%TF.GenerationSoftware,KiCad,Pcbnew,9.0.6*%
%TF.CreationDate,2025-11-21T10:34:24+00:00*%
%TF.ProjectId,batt_pcb_rear,62617474-5f70-4636-925f-726561722e6b,rev?*%
%TF.SameCoordinates,Original*%
%TF.FileFunction,Copper,L2,Bot*%
%TF.FilePolarity,Positive*%
%FSLAX46Y46*%
G04 Gerber Fmt 4.6, Leading zero omitted, Abs format (unit mm)*
G04 Created by KiCad (PCBNEW 9.0.6) date 2025-11-21 10:34:24*
%MOMM*%
%LPD*%
G01*
G04 APERTURE LIST*
G04 Aperture macros list*
%AMRoundRect*
0 Rectangle with rounded corners*
0 $1 Rounding radius*
0 $2 $3 $4 $5 $6 $7 $8 $9 X,Y pos of 4 corners*
0 Add a 4 corners polygon primitive as box body*
4,1,4,$2,$3,$4,$5,$6,$7,$8,$9,$2,$3,0*
0 Add four circle primitives for the rounded corners*
1,1,$1+$1,$2,$3*
1,1,$1+$1,$4,$5*
1,1,$1+$1,$6,$7*
1,1,$1+$1,$8,$9*
0 Add four rect primitives between the rounded corners*
20,1,$1+$1,$2,$3,$4,$5,0*
20,1,$1+$1,$4,$5,$6,$7,0*
20,1,$1+$1,$6,$7,$8,$9,0*
20,1,$1+$1,$8,$9,$2,$3,0*%
G04 Aperture macros list end*
%TA.AperFunction,ComponentPad*%
%ADD10C,1.300000*%
%TD*%
%TA.AperFunction,SMDPad,CuDef*%
%ADD11RoundRect,0.250000X-0.250000X-0.475000X0.250000X-0.475000X0.250000X0.475000X-0.250000X0.475000X0*%
%TD*%
%TA.AperFunction,SMDPad,CuDef*%
%ADD12RoundRect,0.150000X-0.150000X-0.625000X0.150000X-0.625000X0.150000X0.625000X-0.150000X0.625000X0*%
%TD*%
%TA.AperFunction,SMDPad,CuDef*%
%ADD13RoundRect,0.250000X-0.350000X-0.650000X0.350000X-0.650000X0.350000X0.650000X-0.350000X0.650000X0*%
%TD*%
%TA.AperFunction,SMDPad,CuDef*%
%ADD14RoundRect,0.225000X-0.225000X-0.250000X0.225000X-0.250000X0.225000X0.250000X-0.225000X0.250000X0*%
%TD*%
%TA.AperFunction,SMDPad,CuDef*%
%ADD15RoundRect,0.200000X-0.200000X-0.275000X0.200000X-0.275000X0.200000X0.275000X-0.200000X0.275000X0*%
%TD*%
%TA.AperFunction,SMDPad,CuDef*%
%ADD16RoundRect,0.140000X-0.170000X0.140000X-0.170000X-0.140000X0.170000X-0.140000X0.170000X0.140000X0*%
%TD*%
%TA.AperFunction,SMDPad,CuDef*%
%ADD17R,0.304800X0.482600*%
%TD*%
%TA.AperFunction,SMDPad,CuDef*%
%ADD18R,0.304800X0.736600*%
%TD*%
%TA.AperFunction,SMDPad,CuDef*%
%ADD19R,0.457200X0.304800*%
%TD*%
%TA.AperFunction,SMDPad,CuDef*%
%ADD20RoundRect,0.200000X0.200000X0.275000X-0.200000X0.275000X-0.200000X-0.275000X0.200000X-0.275000X0*%
%TD*%
%TA.AperFunction,ComponentPad*%
%ADD21R,4.000000X4.000000*%
%TD*%
%TA.AperFunction,SMDPad,CuDef*%
%ADD22RoundRect,0.200000X-0.275000X0.200000X-0.275000X-0.200000X0.275000X-0.200000X0.275000X0.200000X0*%
%TD*%
%TA.AperFunction,ComponentPad*%
%ADD23RoundRect,0.250000X1.125000X1.125000X-1.125000X1.125000X-1.125000X-1.125000X1.125000X-1.125000X0*%
%TD*%
%TA.AperFunction,ViaPad*%
%ADD24C,0.600000*%
%TD*%
%TA.AperFunction,Conductor*%
%ADD25C,0.200000*%
%TD*%
%TA.AperFunction,Conductor*%
%ADD26C,0.300000*%
%TD*%
G04 APERTURE END LIST*
D10*
%TO.P,J12,1,Pin_1*%
%TO.N,+BATT1*%
X139875000Y-91225000D03*
%TO.P,J12,2,Pin_2*%
%TO.N,+3.3V*%
X141875000Y-91225000D03*
%TO.P,J12,3,Pin_3*%
%TO.N,SDA*%
X143875000Y-91225000D03*
%TD*%
%TO.P,J13,1,Pin_1*%
%TO.N,SCL*%
X153072500Y-91215000D03*
%TO.P,J13,2,Pin_2*%
%TO.N,GND*%
X155072500Y-91215000D03*
%TO.P,J13,3,Pin_3*%
%TO.N,+BATT2*%
X157072500Y-91215000D03*
%TD*%
D11*
%TO.P,C5,1*%
%TO.N,+BATT2_IN*%
X156000000Y-104400000D03*
%TO.P,C5,2*%
%TO.N,GND*%
X157900000Y-104400000D03*
%TD*%
D12*
%TO.P,J8,1,Pin_1*%
%TO.N,+3.3V*%
X155300000Y-115075000D03*
%TO.P,J8,2,Pin_2*%
%TO.N,SDA*%
X156300000Y-115075000D03*
%TO.P,J8,3,Pin_3*%
%TO.N,SCL*%
X157300000Y-115075000D03*
%TO.P,J8,4,Pin_4*%
%TO.N,GND*%
X158300000Y-115075000D03*
D13*
%TO.P,J8,MP*%
%TO.N,N/C*%
X154000000Y-117600000D03*
X159600000Y-117600000D03*
%TD*%
D14*
%TO.P,C7,1*%
%TO.N,+BATT2_IN*%
X156210000Y-102390000D03*
%TO.P,C7,2*%
%TO.N,GND*%
X157760000Y-102390000D03*
%TD*%
D15*
%TO.P,R1,1*%
%TO.N,+BATT1*%
X136620000Y-97252500D03*
%TO.P,R1,2*%
%TO.N,Net-(U1-QOD)*%
X138270000Y-97252500D03*
%TD*%
D16*
%TO.P,C8,1*%
%TO.N,Net-(U2-CT)*%
X154910000Y-98910000D03*
%TO.P,C8,2*%
%TO.N,GND*%
X154910000Y-99870000D03*
%TD*%
D17*
%TO.P,U2,1,VBIAS*%
%TO.N,+BATT2_IN*%
X157810000Y-100760000D03*
D18*
%TO.P,U2,2,VIN*%
X157310000Y-100629201D03*
%TO.P,U2,3,VIN*%
X156810000Y-100629201D03*
D17*
%TO.P,U2,4,PG*%
%TO.N,Net-(U2-PG)*%
X156310000Y-100760000D03*
D19*
%TO.P,U2,5,GND*%
%TO.N,GND*%
X156233799Y-100197500D03*
D17*
%TO.P,U2,6,QOD*%
%TO.N,Net-(U2-QOD)*%
X156310000Y-99635000D03*
D18*
%TO.P,U2,7,VOUT*%
%TO.N,+BATT2*%
X156810000Y-99765799D03*
%TO.P,U2,8,VOUT*%
X157310000Y-99765799D03*
D17*
%TO.P,U2,9,CT*%
%TO.N,Net-(U2-CT)*%
X157810000Y-99635000D03*
D19*
%TO.P,U2,10,ON*%
%TO.N,PWR_EN*%
X157886201Y-100197500D03*
%TD*%
D16*
%TO.P,C4,1*%
%TO.N,Net-(U1-CT)*%
X137600000Y-98972500D03*
%TO.P,C4,2*%
%TO.N,GND*%
X137600000Y-99932500D03*
%TD*%
D14*
%TO.P,C6,1*%
%TO.N,+BATT2*%
X157240000Y-98070000D03*
%TO.P,C6,2*%
%TO.N,GND*%
X158790000Y-98070000D03*
%TD*%
%TO.P,C3,1*%
%TO.N,+BATT1_IN*%
X138985000Y-102512500D03*
%TO.P,C3,2*%
%TO.N,GND*%
X140535000Y-102512500D03*
%TD*%
D20*
%TO.P,R3,1*%
%TO.N,GND*%
X163850000Y-107500000D03*
%TO.P,R3,2*%
%TO.N,PWR_EN*%
X162200000Y-107500000D03*
%TD*%
D14*
%TO.P,C2,1*%
%TO.N,+BATT1*%
X139900000Y-98192500D03*
%TO.P,C2,2*%
%TO.N,GND*%
X141450000Y-98192500D03*
%TD*%
D21*
%TO.P,J10,1,Pin_1*%
%TO.N,GND*%
X141900000Y-116450000D03*
%TD*%
%TO.P,J9,1,Pin_1*%
%TO.N,+BATT2_IN*%
X141900000Y-111350000D03*
%TD*%
D20*
%TO.P,R2,1*%
%TO.N,+BATT1*%
X136300000Y-98850000D03*
%TO.P,R2,2*%
%TO.N,Net-(U1-PG)*%
X134650000Y-98850000D03*
%TD*%
D15*
%TO.P,R4,1*%
%TO.N,+BATT2*%
X153970000Y-97220000D03*
%TO.P,R4,2*%
%TO.N,Net-(U2-QOD)*%
X155620000Y-97220000D03*
%TD*%
D22*
%TO.P,R5,1*%
%TO.N,+BATT2*%
X153200000Y-99275000D03*
%TO.P,R5,2*%
%TO.N,Net-(U2-PG)*%
X153200000Y-100925000D03*
%TD*%
D23*
%TO.P,J7,1,Pin_1*%
%TO.N,PWR_EN*%
X162150000Y-110300000D03*
%TD*%
%TO.P,J11,1,Pin_1*%
%TO.N,+BATT1_IN*%
X166450000Y-110300000D03*
%TD*%
D11*
%TO.P,C1,1*%
%TO.N,+BATT1_IN*%
X138790000Y-104482500D03*
%TO.P,C1,2*%
%TO.N,GND*%
X140690000Y-104482500D03*
%TD*%
D17*
%TO.P,U1,1,VBIAS*%
%TO.N,+BATT1_IN*%
X140550000Y-100962500D03*
D18*
%TO.P,U1,2,VIN*%
X140050000Y-100831701D03*
%TO.P,U1,3,VIN*%
X139550000Y-100831701D03*
D17*
%TO.P,U1,4,PG*%
%TO.N,Net-(U1-PG)*%
X139050000Y-100962500D03*
D19*
%TO.P,U1,5,GND*%
%TO.N,GND*%
X138973799Y-100400000D03*
D17*
%TO.P,U1,6,QOD*%
%TO.N,Net-(U1-QOD)*%
X139050000Y-99837500D03*
D18*
%TO.P,U1,7,VOUT*%
%TO.N,+BATT1*%
X139550000Y-99968299D03*
%TO.P,U1,8,VOUT*%
X140050000Y-99968299D03*
D17*
%TO.P,U1,9,CT*%
%TO.N,Net-(U1-CT)*%
X140550000Y-99837500D03*
D19*
%TO.P,U1,10,ON*%
%TO.N,PWR_EN*%
X140626201Y-100400000D03*
%TD*%
D24*
%TO.N,SDA*%
X156317100Y-113836200D03*
X149400000Y-100650000D03*
%TO.N,+3.3V*%
X155317100Y-113836200D03*
X147900000Y-100700000D03*
%TO.N,SCL*%
X151700000Y-100650000D03*
X157317100Y-113836200D03*
%TO.N,+BATT1_IN*%
X136650000Y-103400000D03*
X135150000Y-106400000D03*
X138300000Y-105832500D03*
X137900000Y-102282500D03*
X135150000Y-104900000D03*
X139450000Y-105882500D03*
X137550000Y-103932500D03*
X137550000Y-104932500D03*
X135150000Y-101850000D03*
X133650000Y-106400000D03*
X137950000Y-103082500D03*
X133650000Y-104900000D03*
X136650000Y-106400000D03*
X133650000Y-103400000D03*
X135150000Y-103400000D03*
X136650000Y-104900000D03*
X136650000Y-101850000D03*
%TO.N,Net-(U1-CT)*%
X141050000Y-99750000D03*
X137057306Y-98234777D03*
%TO.N,Net-(U2-CT)*%
X158400000Y-99600000D03*
X154900000Y-98300000D03*
%TO.N,PWR_EN*%
X159400000Y-100197500D03*
X141750000Y-100382500D03*
%TO.N,Net-(U1-PG)*%
X138567349Y-101002400D03*
X135447600Y-98850000D03*
%TO.N,Net-(U2-PG)*%
X153200000Y-100127400D03*
X155550000Y-100900000D03*
%TD*%
D25*
%TO.N,SDA*%
X149400000Y-100650000D02*
X143875000Y-95125000D01*
X156300000Y-113853300D02*
X156317100Y-113836200D01*
X143875000Y-95125000D02*
X143875000Y-91225000D01*
X156300000Y-115075000D02*
X156300000Y-113853300D01*
D26*
%TO.N,+3.3V*%
X141875000Y-94675000D02*
X141875000Y-91225000D01*
X155300000Y-115075000D02*
X155300000Y-113853300D01*
D25*
X155300000Y-113853300D02*
X155317100Y-113836200D01*
X147900000Y-100700000D02*
X147900000Y-100650000D01*
D26*
X147900000Y-100700000D02*
X141875000Y-94675000D01*
D25*
%TO.N,+BATT1*%
X136620000Y-97680000D02*
X136300000Y-98000000D01*
X136620000Y-97252500D02*
X136620000Y-97680000D01*
X136300000Y-98000000D02*
X136300000Y-98850000D01*
D26*
%TO.N,GND*%
X155237500Y-100197500D02*
X154910000Y-99870000D01*
X138973799Y-100400000D02*
X138067500Y-100400000D01*
X156233799Y-100197500D02*
X155237500Y-100197500D01*
X138067500Y-100400000D02*
X137600000Y-99932500D01*
D25*
%TO.N,+BATT2*%
X153200000Y-99275000D02*
X153200000Y-97990000D01*
X153970000Y-97220000D02*
X153970000Y-96430000D01*
X153970000Y-96430000D02*
X154600000Y-95800000D01*
X154800000Y-95600000D02*
X156600000Y-95600000D01*
X153200000Y-97990000D02*
X153970000Y-97220000D01*
X154600000Y-95800000D02*
X154800000Y-95600000D01*
%TO.N,SCL*%
X151700000Y-100650000D02*
X151700000Y-95250000D01*
X151700000Y-95250000D02*
X153072500Y-93877500D01*
X153072500Y-93877500D02*
X153072500Y-91215000D01*
X157300000Y-113853300D02*
X157317100Y-113836200D01*
X157300000Y-115075000D02*
X157300000Y-113853300D01*
%TO.N,Net-(U1-CT)*%
X137600000Y-98777471D02*
X137057306Y-98234777D01*
X141050000Y-99750000D02*
X140637500Y-99750000D01*
X140637500Y-99750000D02*
X140550000Y-99837500D01*
X137600000Y-98972500D02*
X137600000Y-98777471D01*
%TO.N,Net-(U2-CT)*%
X157845000Y-99600000D02*
X157810000Y-99635000D01*
X154910000Y-98910000D02*
X154910000Y-98310000D01*
X154910000Y-98310000D02*
X154900000Y-98300000D01*
X158400000Y-99600000D02*
X157845000Y-99600000D01*
%TO.N,PWR_EN*%
X160047500Y-100197500D02*
X157886201Y-100197500D01*
X141750000Y-100382500D02*
X140643701Y-100382500D01*
X162150000Y-107550000D02*
X162200000Y-107500000D01*
X162150000Y-102300000D02*
X160047500Y-100197500D01*
X140643701Y-100382500D02*
X140626201Y-100400000D01*
X162150000Y-110300000D02*
X162150000Y-107550000D01*
X162150000Y-108500000D02*
X162150000Y-102300000D01*
%TO.N,Net-(U1-QOD)*%
X138950000Y-98050000D02*
X138950000Y-99737500D01*
X138270000Y-97252500D02*
X138270000Y-97370000D01*
X138270000Y-97370000D02*
X138950000Y-98050000D01*
X138950000Y-99737500D02*
X139050000Y-99837500D01*
%TO.N,Net-(U1-PG)*%
X138966600Y-100879100D02*
X139050000Y-100962500D01*
X138567349Y-101002400D02*
X139010100Y-101002400D01*
X134650000Y-98850000D02*
X135447600Y-98850000D01*
X139010100Y-101002400D02*
X139050000Y-100962500D01*
%TO.N,Net-(U2-QOD)*%
X155620000Y-97220000D02*
X155620000Y-98945000D01*
X155620000Y-98945000D02*
X156310000Y-99635000D01*
%TO.N,Net-(U2-PG)*%
X153200000Y-100925000D02*
X153200000Y-100127400D01*
X155620000Y-100900000D02*
X155760000Y-100760000D01*
X155550000Y-100900000D02*
X155620000Y-100900000D01*
X155760000Y-100760000D02*
X156310000Y-100760000D01*
%TD*%
%TA.AperFunction,Conductor*%
%TO.N,+BATT1_IN*%
G36*
X139808480Y-100633744D02*
G01*
X139820164Y-100633744D01*
X139820213Y-100633326D01*
X139823816Y-100633744D01*
X139825996Y-100633744D01*
X139827597Y-100634179D01*
X139827609Y-100634184D01*
X139852735Y-100637099D01*
X140042000Y-100637098D01*
X140100191Y-100656005D01*
X140132565Y-100696109D01*
X140145395Y-100725165D01*
X140224836Y-100804606D01*
X140327610Y-100849985D01*
X140352736Y-100852900D01*
X140651297Y-100852899D01*
X140709486Y-100871806D01*
X140745450Y-100921306D01*
X140750000Y-100949318D01*
X140750000Y-101300000D01*
X139488413Y-101300000D01*
X139499985Y-101273791D01*
X139502900Y-101248665D01*
X139502899Y-100736097D01*
X139507228Y-100722771D01*
X139506746Y-100708767D01*
X139516448Y-100694397D01*
X139521806Y-100677907D01*
X139533143Y-100669669D01*
X139540984Y-100658057D01*
X139556452Y-100652734D01*
X139571306Y-100641943D01*
X139598489Y-100637157D01*
X139600201Y-100637098D01*
X139747264Y-100637098D01*
X139772391Y-100634184D01*
X139779811Y-100630907D01*
X139796589Y-100630329D01*
X139808480Y-100633744D01*
G37*
%TD.AperFunction*%
%TD*%
%TA.AperFunction,Conductor*%
%TO.N,GND*%
G36*
X155828104Y-99719497D02*
G01*
X155855881Y-99774014D01*
X155857100Y-99789500D01*
X155857100Y-99921161D01*
X155857101Y-99921164D01*
X155860014Y-99946290D01*
X155885356Y-100003685D01*
X155905394Y-100049065D01*
X155983827Y-100127498D01*
X155990944Y-100141467D01*
X156002032Y-100152555D01*
X156004484Y-100168042D01*
X156011603Y-100182013D01*
X156009150Y-100197500D01*
X156011603Y-100212987D01*
X156004484Y-100226957D01*
X156002032Y-100242445D01*
X155983828Y-100267500D01*
X155920823Y-100330505D01*
X155866309Y-100358281D01*
X155850822Y-100359500D01*
X155841353Y-100359500D01*
X155791855Y-100346237D01*
X155781784Y-100340423D01*
X155629057Y-100299500D01*
X155470943Y-100299500D01*
X155318216Y-100340423D01*
X155181284Y-100419480D01*
X155069480Y-100531284D01*
X154990423Y-100668216D01*
X154968509Y-100750000D01*
X154600000Y-100750000D01*
X154600000Y-99700000D01*
X155808607Y-99700000D01*
X155828104Y-99719497D01*
G37*
%TD.AperFunction*%
%TD*%
%TA.AperFunction,Conductor*%
%TO.N,+BATT2*%
G36*
X157959191Y-90418907D02*
G01*
X157995155Y-90468407D01*
X158000000Y-90499000D01*
X158000000Y-98994200D01*
X157981093Y-99052391D01*
X157931593Y-99088355D01*
X157901000Y-99093200D01*
X157612739Y-99093200D01*
X157612736Y-99093201D01*
X157587609Y-99096114D01*
X157484835Y-99141494D01*
X157405394Y-99220935D01*
X157360014Y-99323711D01*
X157357100Y-99348830D01*
X157357100Y-99861401D01*
X157352769Y-99874729D01*
X157353252Y-99888733D01*
X157343551Y-99903101D01*
X157338193Y-99919592D01*
X157326855Y-99927829D01*
X157319015Y-99939442D01*
X157303546Y-99944764D01*
X157288693Y-99955556D01*
X157261510Y-99960342D01*
X157259785Y-99960401D01*
X157112736Y-99960402D01*
X157087609Y-99963316D01*
X157080192Y-99966590D01*
X157063410Y-99967169D01*
X157051538Y-99963759D01*
X157039834Y-99963759D01*
X157039786Y-99964174D01*
X157036209Y-99963759D01*
X157034023Y-99963759D01*
X157032395Y-99963316D01*
X157007269Y-99960401D01*
X157007265Y-99960401D01*
X156861900Y-99960401D01*
X156803709Y-99941494D01*
X156767745Y-99891994D01*
X156762900Y-99861401D01*
X156762899Y-99348839D01*
X156762899Y-99348836D01*
X156759985Y-99323709D01*
X156714606Y-99220935D01*
X156635165Y-99141494D01*
X156532391Y-99096115D01*
X156532390Y-99096114D01*
X156532388Y-99096114D01*
X156507269Y-99093200D01*
X156507265Y-99093200D01*
X156399000Y-99093200D01*
X156340809Y-99074293D01*
X156304845Y-99024793D01*
X156300000Y-98994200D01*
X156300000Y-97658123D01*
X156306241Y-97623529D01*
X156314091Y-97602483D01*
X156320500Y-97542873D01*
X156320499Y-96897128D01*
X156314091Y-96837517D01*
X156306242Y-96816472D01*
X156300000Y-96781876D01*
X156300000Y-90499000D01*
X156318907Y-90440809D01*
X156368407Y-90404845D01*
X156399000Y-90400000D01*
X157901000Y-90400000D01*
X157959191Y-90418907D01*
G37*
%TD.AperFunction*%
%TD*%
%TA.AperFunction,Conductor*%
%TO.N,+BATT2_IN*%
G36*
X157068480Y-100431244D02*
G01*
X157080164Y-100431244D01*
X157080213Y-100430826D01*
X157083816Y-100431244D01*
X157085996Y-100431244D01*
X157087597Y-100431679D01*
X157087609Y-100431684D01*
X157112735Y-100434599D01*
X157302000Y-100434598D01*
X157360191Y-100453505D01*
X157392565Y-100493609D01*
X157405395Y-100522665D01*
X157484836Y-100602106D01*
X157587610Y-100647485D01*
X157612736Y-100650400D01*
X157912329Y-100650399D01*
X157970518Y-100669306D01*
X158006482Y-100718806D01*
X158011328Y-100749554D01*
X158010131Y-101515655D01*
X157991133Y-101573816D01*
X157941577Y-101609702D01*
X157911131Y-101614500D01*
X157493851Y-101614500D01*
X157409408Y-101624641D01*
X157275027Y-101677634D01*
X157159922Y-101764922D01*
X157072634Y-101880027D01*
X157019641Y-102014408D01*
X157009500Y-102098851D01*
X157009500Y-102681148D01*
X157019641Y-102765591D01*
X157072634Y-102899972D01*
X157072635Y-102899974D01*
X157072636Y-102899975D01*
X157159922Y-103015078D01*
X157275025Y-103102364D01*
X157275026Y-103102364D01*
X157275027Y-103102365D01*
X157342217Y-103128861D01*
X157409410Y-103155359D01*
X157493856Y-103165500D01*
X157493858Y-103165500D01*
X157908399Y-103165500D01*
X157923383Y-103170368D01*
X157939137Y-103170393D01*
X157951747Y-103179584D01*
X157966590Y-103184407D01*
X157975850Y-103197153D01*
X157988582Y-103206433D01*
X157993381Y-103221281D01*
X158002554Y-103233907D01*
X158007399Y-103264653D01*
X158007382Y-103275653D01*
X157988385Y-103333814D01*
X157938829Y-103369702D01*
X157908382Y-103374500D01*
X157606893Y-103374500D01*
X157518434Y-103385123D01*
X157377660Y-103440637D01*
X157377656Y-103440640D01*
X157257081Y-103532075D01*
X157257075Y-103532081D01*
X157165640Y-103652656D01*
X157165637Y-103652660D01*
X157110123Y-103793434D01*
X157099500Y-103881893D01*
X157099500Y-104918106D01*
X157110123Y-105006565D01*
X157165637Y-105147339D01*
X157165638Y-105147341D01*
X157165639Y-105147342D01*
X157257078Y-105267922D01*
X157377658Y-105359361D01*
X157377659Y-105359361D01*
X157377660Y-105359362D01*
X157448047Y-105387119D01*
X157518436Y-105414877D01*
X157606898Y-105425500D01*
X157606900Y-105425500D01*
X157904868Y-105425500D01*
X157963059Y-105444407D01*
X157999023Y-105493907D01*
X158003868Y-105524655D01*
X158000058Y-107962448D01*
X157981060Y-108020609D01*
X157975052Y-108028065D01*
X153229536Y-113366772D01*
X153176744Y-113397703D01*
X153155542Y-113400000D01*
X139749000Y-113400000D01*
X139690809Y-113381093D01*
X139654845Y-113331593D01*
X139650000Y-113301000D01*
X139650000Y-109299000D01*
X139668907Y-109240809D01*
X139718407Y-109204845D01*
X139749000Y-109200000D01*
X152299907Y-109200000D01*
X154977500Y-106500001D01*
X154968457Y-105414876D01*
X154934782Y-101373842D01*
X154953203Y-101315500D01*
X155002402Y-101279125D01*
X155063585Y-101278615D01*
X155103779Y-101303015D01*
X155181284Y-101380520D01*
X155318216Y-101459577D01*
X155470943Y-101500500D01*
X155470945Y-101500500D01*
X155629055Y-101500500D01*
X155629057Y-101500500D01*
X155781784Y-101459577D01*
X155918716Y-101380520D01*
X155979123Y-101320111D01*
X156033639Y-101292334D01*
X156080027Y-101298368D01*
X156080419Y-101296929D01*
X156087607Y-101298884D01*
X156087609Y-101298885D01*
X156112735Y-101301800D01*
X156507264Y-101301799D01*
X156532391Y-101298885D01*
X156635165Y-101253506D01*
X156714606Y-101174065D01*
X156759985Y-101071291D01*
X156762900Y-101046165D01*
X156762899Y-100533597D01*
X156767228Y-100520271D01*
X156766746Y-100506267D01*
X156776448Y-100491897D01*
X156781806Y-100475407D01*
X156793143Y-100467169D01*
X156800984Y-100455557D01*
X156816452Y-100450234D01*
X156831306Y-100439443D01*
X156858489Y-100434657D01*
X156860201Y-100434598D01*
X157007264Y-100434598D01*
X157032391Y-100431684D01*
X157039811Y-100428407D01*
X157056589Y-100427829D01*
X157068480Y-100431244D01*
G37*
%TD.AperFunction*%
%TD*%
%TA.AperFunction,Conductor*%
%TO.N,+BATT1_IN*%
G36*
X137926040Y-100932608D02*
G01*
X137962004Y-100982108D01*
X137966849Y-101012701D01*
X137966849Y-101081457D01*
X138007772Y-101234184D01*
X138086829Y-101371116D01*
X138198633Y-101482920D01*
X138335565Y-101561977D01*
X138488292Y-101602900D01*
X138488294Y-101602900D01*
X138646404Y-101602900D01*
X138646406Y-101602900D01*
X138799133Y-101561977D01*
X138876059Y-101517562D01*
X138925560Y-101504299D01*
X139247261Y-101504299D01*
X139247264Y-101504299D01*
X139272391Y-101501385D01*
X139375165Y-101456006D01*
X139454606Y-101376565D01*
X139488413Y-101300000D01*
X140750000Y-101300000D01*
X140750000Y-100949318D01*
X140750293Y-100951122D01*
X140750777Y-101012701D01*
X140755680Y-101637225D01*
X140737231Y-101695560D01*
X140688015Y-101731911D01*
X140656684Y-101737000D01*
X140268851Y-101737000D01*
X140184408Y-101747141D01*
X140050027Y-101800134D01*
X139934922Y-101887422D01*
X139847634Y-102002527D01*
X139794641Y-102136908D01*
X139784500Y-102221351D01*
X139784500Y-102803648D01*
X139794641Y-102888091D01*
X139847634Y-103022472D01*
X139847635Y-103022474D01*
X139847636Y-103022475D01*
X139934922Y-103137578D01*
X140050025Y-103224864D01*
X140050026Y-103224864D01*
X140050027Y-103224865D01*
X140117217Y-103251361D01*
X140184410Y-103277859D01*
X140256501Y-103286516D01*
X140259471Y-103286873D01*
X140314992Y-103312584D01*
X140344798Y-103366019D01*
X140337502Y-103426768D01*
X140295893Y-103471627D01*
X140283986Y-103477264D01*
X140167660Y-103523137D01*
X140167656Y-103523140D01*
X140047081Y-103614575D01*
X140047075Y-103614581D01*
X139955640Y-103735156D01*
X139955637Y-103735160D01*
X139900123Y-103875934D01*
X139889500Y-103964393D01*
X139889500Y-105000606D01*
X139900123Y-105089065D01*
X139955637Y-105229839D01*
X139955638Y-105229841D01*
X139955639Y-105229842D01*
X140047078Y-105350422D01*
X140167658Y-105441861D01*
X140167659Y-105441861D01*
X140167660Y-105441862D01*
X140238047Y-105469619D01*
X140308436Y-105497377D01*
X140396898Y-105508000D01*
X140396900Y-105508000D01*
X140687843Y-105508000D01*
X140746034Y-105526907D01*
X140781998Y-105576407D01*
X140786840Y-105606223D01*
X140799217Y-107182723D01*
X140780767Y-107241060D01*
X140731551Y-107277412D01*
X140700220Y-107282500D01*
X132999000Y-107282500D01*
X132940809Y-107263593D01*
X132904845Y-107214093D01*
X132900000Y-107183500D01*
X132900000Y-101012701D01*
X132918907Y-100954510D01*
X132968407Y-100918546D01*
X132999000Y-100913701D01*
X137867849Y-100913701D01*
X137926040Y-100932608D01*
G37*
%TD.AperFunction*%
%TD*%
%TA.AperFunction,Conductor*%
%TO.N,+BATT1*%
G36*
X140659191Y-90446090D02*
G01*
X140695155Y-90495590D01*
X140700000Y-90526183D01*
X140700000Y-97891267D01*
X140699573Y-97898391D01*
X140699677Y-97898398D01*
X140699500Y-97901359D01*
X140699500Y-98483636D01*
X140699677Y-98486590D01*
X140699573Y-98486596D01*
X140700000Y-98493728D01*
X140700000Y-99196700D01*
X140681093Y-99254891D01*
X140631593Y-99290855D01*
X140601000Y-99295700D01*
X140352740Y-99295700D01*
X140352735Y-99295701D01*
X140327609Y-99298614D01*
X140224835Y-99343994D01*
X140145394Y-99423435D01*
X140100014Y-99526211D01*
X140097100Y-99551330D01*
X140097100Y-100063901D01*
X140092769Y-100077229D01*
X140093252Y-100091233D01*
X140083551Y-100105601D01*
X140078193Y-100122092D01*
X140066855Y-100130329D01*
X140059015Y-100141942D01*
X140043546Y-100147264D01*
X140028693Y-100158056D01*
X140001510Y-100162842D01*
X139999785Y-100162901D01*
X139852736Y-100162902D01*
X139827609Y-100165816D01*
X139820192Y-100169090D01*
X139803410Y-100169669D01*
X139791538Y-100166259D01*
X139779834Y-100166259D01*
X139779786Y-100166674D01*
X139776209Y-100166259D01*
X139774023Y-100166259D01*
X139772395Y-100165816D01*
X139747269Y-100162901D01*
X139747265Y-100162901D01*
X139601900Y-100162901D01*
X139543709Y-100143994D01*
X139507745Y-100094494D01*
X139502900Y-100063901D01*
X139502899Y-99551339D01*
X139502899Y-99551336D01*
X139499985Y-99526209D01*
X139454606Y-99423435D01*
X139379494Y-99348323D01*
X139351719Y-99293809D01*
X139350500Y-99278322D01*
X139350500Y-97997275D01*
X139350499Y-97997269D01*
X139343540Y-97971296D01*
X139323207Y-97895412D01*
X139323205Y-97895409D01*
X139323205Y-97895407D01*
X139270483Y-97804091D01*
X139270479Y-97804086D01*
X139028996Y-97562602D01*
X139001219Y-97508086D01*
X139000000Y-97492599D01*
X139000000Y-93829083D01*
X139018907Y-93770892D01*
X139068407Y-93734928D01*
X139079681Y-93731986D01*
X139107452Y-93726463D01*
X139221286Y-93679311D01*
X139323733Y-93610858D01*
X139410858Y-93523733D01*
X139479311Y-93421286D01*
X139526463Y-93307452D01*
X139550500Y-93186606D01*
X139550500Y-93063394D01*
X139526463Y-92942548D01*
X139479311Y-92828714D01*
X139410858Y-92726267D01*
X139323733Y-92639142D01*
X139221286Y-92570689D01*
X139221287Y-92570689D01*
X139221285Y-92570688D01*
X139107450Y-92523536D01*
X139079686Y-92518014D01*
X139026302Y-92488117D01*
X139000686Y-92432552D01*
X139000000Y-92420916D01*
X139000000Y-90526183D01*
X139018907Y-90467992D01*
X139068407Y-90432028D01*
X139099000Y-90427183D01*
X140601000Y-90427183D01*
X140659191Y-90446090D01*
G37*
%TD.AperFunction*%
%TD*%
%TA.AperFunction,Conductor*%
%TO.N,GND*%
G36*
X139013514Y-83120832D02*
G01*
X139031381Y-83148533D01*
X140637531Y-86889228D01*
X140638023Y-86890394D01*
X140643427Y-86903438D01*
X140643969Y-86904250D01*
X140654092Y-86914115D01*
X140654997Y-86915008D01*
X140665002Y-86925013D01*
X140665814Y-86925555D01*
X140665842Y-86925566D01*
X140665843Y-86925567D01*
X140678995Y-86930818D01*
X140679969Y-86931213D01*
X140693193Y-86936691D01*
X140693197Y-86936691D01*
X140694152Y-86936881D01*
X140694181Y-86936880D01*
X140694182Y-86936881D01*
X140707832Y-86936705D01*
X140708312Y-86936699D01*
X140709585Y-86936691D01*
X141776178Y-86936691D01*
X141814056Y-86944224D01*
X141815284Y-86944732D01*
X141815285Y-86944733D01*
X141822664Y-86947789D01*
X141830074Y-86951223D01*
X141837198Y-86954890D01*
X141837200Y-86954890D01*
X141840208Y-86955752D01*
X141840302Y-86955784D01*
X141840410Y-86955800D01*
X141843475Y-86956410D01*
X141851467Y-86956410D01*
X141859633Y-86956747D01*
X141867607Y-86957407D01*
X141867607Y-86957406D01*
X141867608Y-86957407D01*
X141870734Y-86957050D01*
X141881971Y-86956410D01*
X154473983Y-86956410D01*
X156589126Y-86956410D01*
X156603343Y-86956795D01*
X156604349Y-86956410D01*
X156605425Y-86956410D01*
X156617339Y-86951474D01*
X156619792Y-86950497D01*
X156626876Y-86947785D01*
X156631839Y-86945885D01*
X156631844Y-86945879D01*
X156633528Y-86944819D01*
X156633613Y-86944733D01*
X156633615Y-86944733D01*
X156642737Y-86935609D01*
X156644632Y-86933766D01*
X156647787Y-86930778D01*
X156653991Y-86924902D01*
X156653993Y-86924895D01*
X156655140Y-86923277D01*
X156655188Y-86923159D01*
X156655191Y-86923157D01*
X156660140Y-86911208D01*
X156661153Y-86908852D01*
X158278367Y-83285270D01*
X158319347Y-83239840D01*
X158379206Y-83227173D01*
X158410948Y-83236056D01*
X158960767Y-83494995D01*
X159129769Y-83574587D01*
X159133381Y-83576378D01*
X159993670Y-84025206D01*
X159997206Y-84027144D01*
X160230807Y-84161391D01*
X160838483Y-84510616D01*
X160841926Y-84512690D01*
X161662804Y-85030010D01*
X161666170Y-85032228D01*
X162465312Y-85582548D01*
X162468586Y-85584902D01*
X163244672Y-86167319D01*
X163247847Y-86169805D01*
X163999543Y-86783315D01*
X164002614Y-86785927D01*
X164329890Y-87076025D01*
X164728745Y-87429571D01*
X164731667Y-87432269D01*
X165430996Y-88104955D01*
X165433817Y-88107781D01*
X165867027Y-88559863D01*
X166105179Y-88808390D01*
X166107908Y-88811358D01*
X166750132Y-89538662D01*
X166752739Y-89541738D01*
X167364836Y-90294616D01*
X167367315Y-90297795D01*
X167948247Y-91074970D01*
X167950595Y-91078248D01*
X168499407Y-91878444D01*
X168501619Y-91881815D01*
X169017371Y-92703660D01*
X169019445Y-92707118D01*
X169501335Y-93549338D01*
X169503265Y-93552878D01*
X169950435Y-94413968D01*
X169952220Y-94417583D01*
X170100649Y-94734309D01*
X170356188Y-95279592D01*
X170363961Y-95296177D01*
X170365598Y-95299863D01*
X170741233Y-96194521D01*
X170742718Y-96198269D01*
X171081606Y-97107465D01*
X171082937Y-97111271D01*
X171384529Y-98033532D01*
X171385703Y-98037389D01*
X171649480Y-98971124D01*
X171650497Y-98975026D01*
X171876041Y-99918754D01*
X171876898Y-99922694D01*
X172063820Y-100874788D01*
X172064517Y-100878759D01*
X172212528Y-101837750D01*
X172213061Y-101841747D01*
X172321891Y-102805893D01*
X172322262Y-102809908D01*
X172391746Y-103777722D01*
X172391953Y-103781748D01*
X172421971Y-104751606D01*
X172422013Y-104755638D01*
X172412514Y-105725863D01*
X172412393Y-105729893D01*
X172363395Y-106698978D01*
X172363109Y-106703000D01*
X172274693Y-107669251D01*
X172274244Y-107673258D01*
X172146555Y-108635126D01*
X172145943Y-108639111D01*
X171979195Y-109594976D01*
X171978421Y-109598934D01*
X171772890Y-110547209D01*
X171771956Y-110551131D01*
X171527982Y-111490258D01*
X171526889Y-111494139D01*
X171244877Y-112422552D01*
X171243627Y-112426385D01*
X170924045Y-113342544D01*
X170922640Y-113346323D01*
X170566016Y-114248712D01*
X170564458Y-114252431D01*
X170171387Y-115139551D01*
X170169679Y-115143204D01*
X169740807Y-116013588D01*
X169738951Y-116017167D01*
X169275009Y-116869340D01*
X169273010Y-116872841D01*
X168774733Y-117705451D01*
X168772592Y-117708868D01*
X168240839Y-118520475D01*
X168238561Y-118523802D01*
X167674208Y-119313074D01*
X167671797Y-119316306D01*
X167075747Y-120081980D01*
X167073206Y-120085110D01*
X166446492Y-120825854D01*
X166443825Y-120828879D01*
X165787466Y-121543493D01*
X165784679Y-121546406D01*
X165099756Y-122233711D01*
X165096852Y-122236508D01*
X164384533Y-122895332D01*
X164381518Y-122898009D01*
X163642945Y-123527299D01*
X163639823Y-123529851D01*
X162876251Y-124128534D01*
X162873028Y-124130957D01*
X162085692Y-124698067D01*
X162082373Y-124700356D01*
X161272633Y-125234912D01*
X161269224Y-125237065D01*
X160438338Y-125738237D01*
X160434844Y-125740248D01*
X159584277Y-126207152D01*
X159580703Y-126209020D01*
X158711832Y-126640900D01*
X158708186Y-126642621D01*
X157822436Y-127038771D01*
X157818723Y-127040342D01*
X156917560Y-127400102D01*
X156913785Y-127401520D01*
X155998765Y-127724273D01*
X155994936Y-127725537D01*
X155067486Y-128010777D01*
X155063609Y-128011883D01*
X154125351Y-128259112D01*
X154121432Y-128260060D01*
X153173880Y-128468881D01*
X153169926Y-128469669D01*
X152214613Y-128639740D01*
X152210630Y-128640365D01*
X151249232Y-128771390D01*
X151245226Y-128771853D01*
X150279289Y-128863623D01*
X150275268Y-128863923D01*
X149306358Y-128916285D01*
X149302329Y-128916420D01*
X148332143Y-128929287D01*
X148328111Y-128929259D01*
X147358154Y-128902608D01*
X147354126Y-128902415D01*
X146386081Y-128836292D01*
X146382065Y-128835935D01*
X145417519Y-128730450D01*
X145413521Y-128729930D01*
X144454078Y-128585258D01*
X144450104Y-128584576D01*
X143497343Y-128400956D01*
X143493405Y-128400114D01*
X142548868Y-128177840D01*
X142544966Y-128176837D01*
X141610327Y-127916305D01*
X141606466Y-127915144D01*
X140683171Y-127616758D01*
X140679360Y-127615440D01*
X139768984Y-127279707D01*
X139765231Y-127278235D01*
X138869312Y-126905724D01*
X138865621Y-126904101D01*
X138555870Y-126760250D01*
X137985559Y-126495392D01*
X137981963Y-126493632D01*
X137714764Y-126356050D01*
X137119304Y-126049443D01*
X137115758Y-126047525D01*
X136271897Y-125568577D01*
X136268432Y-125566516D01*
X136039651Y-125424048D01*
X135444772Y-125053601D01*
X135441398Y-125051404D01*
X134639319Y-124505385D01*
X134636033Y-124503049D01*
X133856826Y-123924805D01*
X133853638Y-123922336D01*
X133098656Y-123312869D01*
X133095571Y-123310273D01*
X132366028Y-122670566D01*
X132363051Y-122667847D01*
X131660154Y-121998957D01*
X131657290Y-121996119D01*
X130982189Y-121299139D01*
X130979444Y-121296186D01*
X130560989Y-120827393D01*
X130333320Y-120572336D01*
X130330702Y-120569281D01*
X130123242Y-120316887D01*
X129923851Y-120074310D01*
X131413900Y-120074310D01*
X131413900Y-120316889D01*
X131445561Y-120557381D01*
X131445561Y-120557386D01*
X131508344Y-120791692D01*
X131508348Y-120791705D01*
X131601172Y-121015804D01*
X131601174Y-121015808D01*
X131601176Y-121015812D01*
X131722464Y-121225889D01*
X131722466Y-121225892D01*
X131870129Y-121418331D01*
X131870131Y-121418333D01*
X131870135Y-121418338D01*
X132041662Y-121589865D01*
X132041666Y-121589868D01*
X132041668Y-121589870D01*
X132234107Y-121737533D01*
X132234111Y-121737536D01*
X132444188Y-121858824D01*
X132668300Y-121951654D01*
X132902611Y-122014438D01*
X133143112Y-122046100D01*
X133143113Y-122046100D01*
X133385687Y-122046100D01*
X133385688Y-122046100D01*
X133626189Y-122014438D01*
X133860500Y-121951654D01*
X134084612Y-121858824D01*
X134294689Y-121737536D01*
X134487138Y-121589865D01*
X134658665Y-121418338D01*
X134806336Y-121225889D01*
X134927624Y-121015812D01*
X135020454Y-120791700D01*
X135083238Y-120557389D01*
X135114900Y-120316888D01*
X135114900Y-120074312D01*
X135114900Y-120074310D01*
X161819500Y-120074310D01*
X161819500Y-120316889D01*
X161851161Y-120557381D01*
X161851161Y-120557386D01*
X161913944Y-120791692D01*
X161913948Y-120791705D01*
X162006772Y-121015804D01*
X162006774Y-121015808D01*
X162006776Y-121015812D01*
X162128064Y-121225889D01*
X162128066Y-121225892D01*
X162275729Y-121418331D01*
X162275731Y-121418333D01*
X162275735Y-121418338D01*
X162447262Y-121589865D01*
X162447266Y-121589868D01*
X162447268Y-121589870D01*
X162639707Y-121737533D01*
X162639711Y-121737536D01*
X162849788Y-121858824D01*
X163073900Y-121951654D01*
X163308211Y-122014438D01*
X163548712Y-122046100D01*
X163548713Y-122046100D01*
X163791287Y-122046100D01*
X163791288Y-122046100D01*
X164031789Y-122014438D01*
X164266100Y-121951654D01*
X164490212Y-121858824D01*
X164700289Y-121737536D01*
X164892738Y-121589865D01*
X165064265Y-121418338D01*
X165211936Y-121225889D01*
X165333224Y-121015812D01*
X165426054Y-120791700D01*
X165488838Y-120557389D01*
X165520500Y-120316888D01*
X165520500Y-120074312D01*
X165488838Y-119833811D01*
X165426054Y-119599500D01*
X165333224Y-119375388D01*
X165211936Y-119165311D01*
X165064265Y-118972862D01*
X164892738Y-118801335D01*
X164892733Y-118801331D01*
X164892731Y-118801329D01*
X164700292Y-118653666D01*
X164700289Y-118653664D01*
X164490212Y-118532376D01*
X164490208Y-118532374D01*
X164490204Y-118532372D01*
X164266105Y-118439548D01*
X164266104Y-118439547D01*
X164266100Y-118439546D01*
X164031789Y-118376762D01*
X164031786Y-118376761D01*
X164031784Y-118376761D01*
X163791289Y-118345100D01*
X163791288Y-118345100D01*
X163548712Y-118345100D01*
X163548710Y-118345100D01*
X163308218Y-118376761D01*
X163308213Y-118376761D01*
X163073907Y-118439544D01*
X163073894Y-118439548D01*
X162849795Y-118532372D01*
X162639707Y-118653666D01*
X162447268Y-118801329D01*
X162275729Y-118972868D01*
X162128066Y-119165307D01*
X162006772Y-119375395D01*
X161913948Y-119599494D01*
X161913944Y-119599507D01*
X161851161Y-119833813D01*
X161851161Y-119833818D01*
X161819500Y-120074310D01*
X135114900Y-120074310D01*
X135083238Y-119833811D01*
X135020454Y-119599500D01*
X134927624Y-119375388D01*
X134806336Y-119165311D01*
X134658665Y-118972862D01*
X134487138Y-118801335D01*
X134487133Y-118801331D01*
X134487131Y-118801329D01*
X134294692Y-118653666D01*
X134294689Y-118653664D01*
X134084612Y-118532376D01*
X134084608Y-118532374D01*
X134084604Y-118532372D01*
X133860505Y-118439548D01*
X133860504Y-118439547D01*
X133860500Y-118439546D01*
X133626189Y-118376762D01*
X133626186Y-118376761D01*
X133626184Y-118376761D01*
X133385689Y-118345100D01*
X133385688Y-118345100D01*
X133143112Y-118345100D01*
X133143110Y-118345100D01*
X132902618Y-118376761D01*
X132902613Y-118376761D01*
X132668307Y-118439544D01*
X132668294Y-118439548D01*
X132444195Y-118532372D01*
X132234107Y-118653666D01*
X132041668Y-118801329D01*
X131870129Y-118972868D01*
X131722466Y-119165307D01*
X131601172Y-119375395D01*
X131508348Y-119599494D01*
X131508344Y-119599507D01*
X131445561Y-119833813D01*
X131445561Y-119833818D01*
X131413900Y-120074310D01*
X129923851Y-120074310D01*
X129714562Y-119819690D01*
X129712066Y-119816523D01*
X129126961Y-119042466D01*
X129124596Y-119039201D01*
X128571520Y-118241998D01*
X128569289Y-118238639D01*
X128049101Y-117419527D01*
X128047010Y-117416080D01*
X127752030Y-116906893D01*
X153099500Y-116906893D01*
X153099500Y-118293106D01*
X153110123Y-118381565D01*
X153165637Y-118522339D01*
X153165638Y-118522341D01*
X153165639Y-118522342D01*
X153257078Y-118642922D01*
X153377658Y-118734361D01*
X153377659Y-118734361D01*
X153377660Y-118734362D01*
X153430355Y-118755142D01*
X153518436Y-118789877D01*
X153606898Y-118800500D01*
X153606900Y-118800500D01*
X154393100Y-118800500D01*
X154393102Y-118800500D01*
X154481564Y-118789877D01*
X154622342Y-118734361D01*
X154742922Y-118642922D01*
X154834361Y-118522342D01*
X154889877Y-118381564D01*
X154900500Y-118293102D01*
X154900500Y-116906898D01*
X154900499Y-116906893D01*
X158699500Y-116906893D01*
X158699500Y-118293106D01*
X158710123Y-118381565D01*
X158765637Y-118522339D01*
X158765638Y-118522341D01*
X158765639Y-118522342D01*
X158857078Y-118642922D01*
X158977658Y-118734361D01*
X158977659Y-118734361D01*
X158977660Y-118734362D01*
X159030355Y-118755142D01*
X159118436Y-118789877D01*
X159206898Y-118800500D01*
X159206900Y-118800500D01*
X159993100Y-118800500D01*
X159993102Y-118800500D01*
X160081564Y-118789877D01*
X160222342Y-118734361D01*
X160342922Y-118642922D01*
X160434361Y-118522342D01*
X160489877Y-118381564D01*
X160500500Y-118293102D01*
X160500500Y-116906898D01*
X160489877Y-116818436D01*
X160434361Y-116677658D01*
X160342922Y-116557078D01*
X160222342Y-116465639D01*
X160222341Y-116465638D01*
X160222339Y-116465637D01*
X160081565Y-116410123D01*
X159993106Y-116399500D01*
X159993102Y-116399500D01*
X159206898Y-116399500D01*
X159206893Y-116399500D01*
X159118434Y-116410123D01*
X158977660Y-116465637D01*
X158977656Y-116465640D01*
X158857081Y-116557075D01*
X158857075Y-116557081D01*
X158765640Y-116677656D01*
X158765637Y-116677660D01*
X158710123Y-116818434D01*
X158699500Y-116906893D01*
X154900499Y-116906893D01*
X154889877Y-116818436D01*
X154834361Y-116677658D01*
X154742922Y-116557078D01*
X154622342Y-116465639D01*
X154622341Y-116465638D01*
X154622339Y-116465637D01*
X154481565Y-116410123D01*
X154393106Y-116399500D01*
X154393102Y-116399500D01*
X153606898Y-116399500D01*
X153606893Y-116399500D01*
X153518434Y-116410123D01*
X153377660Y-116465637D01*
X153377656Y-116465640D01*
X153257081Y-116557075D01*
X153257075Y-116557081D01*
X153165640Y-116677656D01*
X153165637Y-116677660D01*
X153110123Y-116818434D01*
X153099500Y-116906893D01*
X127752030Y-116906893D01*
X127560603Y-116576457D01*
X127558698Y-116573007D01*
X127106861Y-115714235D01*
X127105111Y-115710740D01*
X126688606Y-114834259D01*
X126686975Y-114830637D01*
X126517178Y-114432234D01*
X126501618Y-114395725D01*
X154699500Y-114395725D01*
X154699500Y-115754274D01*
X154702353Y-115784694D01*
X154702355Y-115784703D01*
X154747207Y-115912883D01*
X154827845Y-116022144D01*
X154827847Y-116022146D01*
X154827850Y-116022150D01*
X154827853Y-116022152D01*
X154827855Y-116022154D01*
X154937116Y-116102792D01*
X154937117Y-116102792D01*
X154937118Y-116102793D01*
X155065301Y-116147646D01*
X155095725Y-116150499D01*
X155095727Y-116150500D01*
X155095734Y-116150500D01*
X155504273Y-116150500D01*
X155504273Y-116150499D01*
X155534699Y-116147646D01*
X155662882Y-116102793D01*
X155681412Y-116089116D01*
X155741212Y-116044984D01*
X155799260Y-116025642D01*
X155857590Y-116044114D01*
X155858788Y-116044984D01*
X155937116Y-116102792D01*
X155937117Y-116102792D01*
X155937118Y-116102793D01*
X156065301Y-116147646D01*
X156095725Y-116150499D01*
X156095727Y-116150500D01*
X156095734Y-116150500D01*
X156504273Y-116150500D01*
X156504273Y-116150499D01*
X156534699Y-116147646D01*
X156662882Y-116102793D01*
X156681412Y-116089116D01*
X156741212Y-116044984D01*
X156799260Y-116025642D01*
X156857590Y-116044114D01*
X156858788Y-116044984D01*
X156937116Y-116102792D01*
X156937117Y-116102792D01*
X156937118Y-116102793D01*
X157065301Y-116147646D01*
X157095725Y-116150499D01*
X157095727Y-116150500D01*
X157095734Y-116150500D01*
X157504273Y-116150500D01*
X157504273Y-116150499D01*
X157534699Y-116147646D01*
X157662882Y-116102793D01*
X157772150Y-116022150D01*
X157852793Y-115912882D01*
X157897646Y-115784699D01*
X157900499Y-115754273D01*
X157900500Y-115754273D01*
X157900500Y-114395727D01*
X157900499Y-114395725D01*
X157897646Y-114365305D01*
X157897646Y-114365301D01*
X157852793Y-114237118D01*
X157852792Y-114237116D01*
X157852791Y-114237113D01*
X157849894Y-114233188D01*
X157830554Y-114175140D01*
X157843815Y-114124903D01*
X157876675Y-114067987D01*
X157876677Y-114067984D01*
X157917600Y-113915257D01*
X157917600Y-113757143D01*
X157876677Y-113604416D01*
X157797620Y-113467484D01*
X157685816Y-113355680D01*
X157548884Y-113276623D01*
X157396157Y-113235700D01*
X157238043Y-113235700D01*
X157085316Y-113276623D01*
X156948384Y-113355680D01*
X156887101Y-113416962D01*
X156832587Y-113444738D01*
X156772155Y-113435167D01*
X156747099Y-113416963D01*
X156685816Y-113355680D01*
X156548884Y-113276623D01*
X156396157Y-113235700D01*
X156238043Y-113235700D01*
X156085316Y-113276623D01*
X155948384Y-113355680D01*
X155887101Y-113416962D01*
X155832587Y-113444738D01*
X155772155Y-113435167D01*
X155747099Y-113416963D01*
X155685816Y-113355680D01*
X155548884Y-113276623D01*
X155396157Y-113235700D01*
X155238043Y-113235700D01*
X155085316Y-113276623D01*
X154948384Y-113355680D01*
X154836580Y-113467484D01*
X154757523Y-113604416D01*
X154716600Y-113757143D01*
X154716600Y-113915257D01*
X154757523Y-114067984D01*
X154757524Y-114067985D01*
X154757523Y-114067985D01*
X154775374Y-114098904D01*
X154788094Y-114158753D01*
X154769295Y-114207188D01*
X154747207Y-114237117D01*
X154747205Y-114237121D01*
X154702355Y-114365296D01*
X154702353Y-114365305D01*
X154699500Y-114395725D01*
X126501618Y-114395725D01*
X126434018Y-114237113D01*
X126306532Y-113937987D01*
X126305033Y-113934260D01*
X126237930Y-113757143D01*
X125961268Y-113026895D01*
X125959918Y-113023098D01*
X125653387Y-112102499D01*
X125652191Y-112098648D01*
X125383392Y-111166297D01*
X125382355Y-111162401D01*
X125231832Y-110547209D01*
X125151754Y-110219926D01*
X125150878Y-110216003D01*
X125080922Y-109869533D01*
X124965726Y-109298996D01*
X139344500Y-109298996D01*
X139344500Y-109299000D01*
X139344500Y-113301000D01*
X139348261Y-113348786D01*
X139349353Y-113355680D01*
X139353106Y-113379380D01*
X139353106Y-113379385D01*
X139359512Y-113409752D01*
X139359514Y-113409757D01*
X139407689Y-113511158D01*
X139407691Y-113511162D01*
X139443655Y-113560662D01*
X139497823Y-113617919D01*
X139497824Y-113617920D01*
X139596401Y-113671639D01*
X139596403Y-113671640D01*
X139654596Y-113690548D01*
X139654593Y-113690548D01*
X139748997Y-113705500D01*
X139749000Y-113705500D01*
X153155541Y-113705500D01*
X153155542Y-113705500D01*
X153188447Y-113703723D01*
X153209649Y-113701426D01*
X153225533Y-113699282D01*
X153331182Y-113661292D01*
X153383974Y-113630361D01*
X153457870Y-113569735D01*
X158203386Y-108231028D01*
X158212934Y-108219749D01*
X158218942Y-108212293D01*
X158271460Y-108115467D01*
X158290458Y-108057306D01*
X158305558Y-107962925D01*
X158309368Y-105525132D01*
X158305645Y-105477104D01*
X158300800Y-105446356D01*
X158294355Y-105415746D01*
X158246177Y-105314338D01*
X158210213Y-105264838D01*
X158156045Y-105207581D01*
X158156044Y-105207580D01*
X158156043Y-105207579D01*
X158057466Y-105153860D01*
X158057464Y-105153859D01*
X157999271Y-105134951D01*
X157999274Y-105134951D01*
X157904871Y-105120000D01*
X157904868Y-105120000D01*
X157631106Y-105120000D01*
X157619294Y-105119293D01*
X157606562Y-105117763D01*
X157582057Y-105111568D01*
X157541454Y-105095557D01*
X157517953Y-105082344D01*
X157513153Y-105078704D01*
X157485968Y-105058089D01*
X157466907Y-105039028D01*
X157442653Y-105007044D01*
X157429441Y-104983545D01*
X157413430Y-104942942D01*
X157407234Y-104918427D01*
X157405706Y-104905701D01*
X157405000Y-104893899D01*
X157405000Y-103906098D01*
X157405706Y-103894296D01*
X157407234Y-103881570D01*
X157413430Y-103857055D01*
X157429440Y-103816455D01*
X157442650Y-103792957D01*
X157466911Y-103760965D01*
X157485965Y-103741911D01*
X157517957Y-103717650D01*
X157541455Y-103704440D01*
X157582055Y-103688430D01*
X157606571Y-103682234D01*
X157619298Y-103680706D01*
X157631099Y-103680000D01*
X157908372Y-103680000D01*
X157908382Y-103680000D01*
X157955937Y-103676276D01*
X157986384Y-103671478D01*
X158016534Y-103665155D01*
X158118016Y-103617133D01*
X158167572Y-103581245D01*
X158224912Y-103527167D01*
X158278787Y-103428667D01*
X158297784Y-103370506D01*
X158312882Y-103276125D01*
X158312899Y-103265125D01*
X158309175Y-103217099D01*
X158304330Y-103186353D01*
X158297888Y-103155752D01*
X158283417Y-103125292D01*
X158279276Y-103112478D01*
X158245559Y-103041227D01*
X158222145Y-103016401D01*
X158213749Y-103004845D01*
X158213745Y-103004841D01*
X158213741Y-103004836D01*
X158159582Y-102947585D01*
X158159580Y-102947584D01*
X158138867Y-102936296D01*
X158138868Y-102936296D01*
X158129970Y-102931447D01*
X158119081Y-102923511D01*
X158049948Y-102885698D01*
X158016414Y-102879374D01*
X158005156Y-102875716D01*
X158005148Y-102875713D01*
X158002799Y-102874950D01*
X158002791Y-102874948D01*
X157942743Y-102865438D01*
X157942742Y-102865438D01*
X157941334Y-102865215D01*
X157939622Y-102864893D01*
X157939294Y-102864892D01*
X157935759Y-102864332D01*
X157935758Y-102864331D01*
X157908400Y-102860000D01*
X157908399Y-102860000D01*
X157518058Y-102860000D01*
X157506255Y-102859293D01*
X157497540Y-102858246D01*
X157473034Y-102852052D01*
X157438820Y-102838560D01*
X157415319Y-102825346D01*
X157388812Y-102805245D01*
X157369751Y-102786184D01*
X157349651Y-102759678D01*
X157336438Y-102736178D01*
X157322948Y-102701969D01*
X157316752Y-102677453D01*
X157315706Y-102668741D01*
X157315000Y-102656939D01*
X157315000Y-102123058D01*
X157315706Y-102111258D01*
X157316752Y-102102545D01*
X157322945Y-102078036D01*
X157336439Y-102043814D01*
X157349646Y-102020327D01*
X157369757Y-101993808D01*
X157388808Y-101974757D01*
X157415327Y-101954646D01*
X157438820Y-101941437D01*
X157473030Y-101927947D01*
X157497539Y-101921752D01*
X157506265Y-101920704D01*
X157518059Y-101920000D01*
X157911121Y-101920000D01*
X157911131Y-101920000D01*
X157958688Y-101916276D01*
X157989134Y-101911478D01*
X158019274Y-101905157D01*
X158120758Y-101857138D01*
X158170314Y-101821252D01*
X158227657Y-101767173D01*
X158281533Y-101668674D01*
X158300531Y-101610513D01*
X158315631Y-101516132D01*
X158316828Y-100750031D01*
X158313309Y-100704652D01*
X158327661Y-100645176D01*
X158374232Y-100605493D01*
X158412013Y-100598000D01*
X158910256Y-100598000D01*
X158968447Y-100616907D01*
X158980259Y-100626996D01*
X159010164Y-100656900D01*
X159031284Y-100678020D01*
X159168216Y-100757077D01*
X159320943Y-100798000D01*
X159320945Y-100798000D01*
X159479055Y-100798000D01*
X159479057Y-100798000D01*
X159631784Y-100757077D01*
X159768716Y-100678020D01*
X159795169Y-100651566D01*
X159849684Y-100623791D01*
X159910116Y-100633362D01*
X159935175Y-100651568D01*
X161720504Y-102436897D01*
X161748281Y-102491414D01*
X161749500Y-102506901D01*
X161749500Y-106737763D01*
X161730593Y-106795954D01*
X161709830Y-106817016D01*
X161642455Y-106867453D01*
X161642450Y-106867458D01*
X161556202Y-106982670D01*
X161505910Y-107117511D01*
X161505908Y-107117522D01*
X161499500Y-107177129D01*
X161499500Y-107822866D01*
X161499501Y-107822870D01*
X161505908Y-107882480D01*
X161505909Y-107882485D01*
X161556202Y-108017329D01*
X161629673Y-108115473D01*
X161642454Y-108132546D01*
X161709829Y-108182982D01*
X161745082Y-108232990D01*
X161749500Y-108262235D01*
X161749500Y-108525500D01*
X161730593Y-108583691D01*
X161681093Y-108619655D01*
X161650500Y-108624500D01*
X160981893Y-108624500D01*
X160893434Y-108635123D01*
X160752660Y-108690637D01*
X160752656Y-108690640D01*
X160632081Y-108782075D01*
X160632075Y-108782081D01*
X160540640Y-108902656D01*
X160540637Y-108902660D01*
X160485123Y-109043434D01*
X160474500Y-109131893D01*
X160474500Y-111468106D01*
X160485123Y-111556565D01*
X160540637Y-111697339D01*
X160540638Y-111697341D01*
X160540639Y-111697342D01*
X160632078Y-111817922D01*
X160752658Y-111909361D01*
X160752659Y-111909361D01*
X160752660Y-111909362D01*
X160823047Y-111937119D01*
X160893436Y-111964877D01*
X160981898Y-111975500D01*
X160981900Y-111975500D01*
X163318100Y-111975500D01*
X163318102Y-111975500D01*
X163406564Y-111964877D01*
X163547342Y-111909361D01*
X163667922Y-111817922D01*
X163759361Y-111697342D01*
X163814877Y-111556564D01*
X163825500Y-111468102D01*
X163825500Y-109131898D01*
X163825499Y-109131893D01*
X164774500Y-109131893D01*
X164774500Y-111468106D01*
X164785123Y-111556565D01*
X164840637Y-111697339D01*
X164840638Y-111697341D01*
X164840639Y-111697342D01*
X164932078Y-111817922D01*
X165052658Y-111909361D01*
X165052659Y-111909361D01*
X165052660Y-111909362D01*
X165123047Y-111937119D01*
X165193436Y-111964877D01*
X165281898Y-111975500D01*
X165281900Y-111975500D01*
X167618100Y-111975500D01*
X167618102Y-111975500D01*
X167706564Y-111964877D01*
X167847342Y-111909361D01*
X167967922Y-111817922D01*
X168059361Y-111697342D01*
X168114877Y-111556564D01*
X168125500Y-111468102D01*
X168125500Y-109131898D01*
X168114877Y-109043436D01*
X168059361Y-108902658D01*
X167967922Y-108782078D01*
X167847342Y-108690639D01*
X167847341Y-108690638D01*
X167847339Y-108690637D01*
X167706565Y-108635123D01*
X167618106Y-108624500D01*
X167618102Y-108624500D01*
X165281898Y-108624500D01*
X165281893Y-108624500D01*
X165193434Y-108635123D01*
X165052660Y-108690637D01*
X165052656Y-108690640D01*
X164932081Y-108782075D01*
X164932075Y-108782081D01*
X164840640Y-108902656D01*
X164840637Y-108902660D01*
X164785123Y-109043434D01*
X164774500Y-109131893D01*
X163825499Y-109131893D01*
X163814877Y-109043436D01*
X163759361Y-108902658D01*
X163667922Y-108782078D01*
X163547342Y-108690639D01*
X163547341Y-108690638D01*
X163547339Y-108690637D01*
X163406565Y-108635123D01*
X163318106Y-108624500D01*
X163318102Y-108624500D01*
X162649500Y-108624500D01*
X162591309Y-108605593D01*
X162555345Y-108556093D01*
X162550500Y-108525500D01*
X162550500Y-108321783D01*
X162569407Y-108263592D01*
X162614906Y-108229024D01*
X162642331Y-108218796D01*
X162757546Y-108132546D01*
X162843796Y-108017331D01*
X162894091Y-107882483D01*
X162900500Y-107822873D01*
X162900499Y-107177128D01*
X162894091Y-107117517D01*
X162894089Y-107117511D01*
X162843797Y-106982670D01*
X162757549Y-106867458D01*
X162757548Y-106867457D01*
X162757546Y-106867454D01*
X162757541Y-106867450D01*
X162642333Y-106781204D01*
X162614902Y-106770973D01*
X162566988Y-106732921D01*
X162550500Y-106678215D01*
X162550500Y-102247272D01*
X162542857Y-102218749D01*
X162542847Y-102218714D01*
X162541152Y-102212387D01*
X162523207Y-102145412D01*
X162523205Y-102145409D01*
X162523205Y-102145407D01*
X162470483Y-102054091D01*
X162470481Y-102054089D01*
X162470480Y-102054087D01*
X160293413Y-99877020D01*
X160293410Y-99877018D01*
X160293408Y-99877016D01*
X160202091Y-99824294D01*
X160202093Y-99824294D01*
X160162570Y-99813704D01*
X160100227Y-99797000D01*
X160100225Y-99797000D01*
X159889744Y-99797000D01*
X159831553Y-99778093D01*
X159819741Y-99768004D01*
X159768718Y-99716982D01*
X159768716Y-99716980D01*
X159631784Y-99637923D01*
X159479057Y-99597000D01*
X159320943Y-99597000D01*
X159168216Y-99637923D01*
X159168214Y-99637924D01*
X159168213Y-99637924D01*
X159148997Y-99649018D01*
X159089148Y-99661737D01*
X159033254Y-99636849D01*
X159002663Y-99583860D01*
X159000500Y-99563280D01*
X159000500Y-99520944D01*
X158996590Y-99506351D01*
X158959577Y-99368216D01*
X158880520Y-99231284D01*
X158768716Y-99119480D01*
X158631784Y-99040423D01*
X158479057Y-98999500D01*
X158404500Y-98999500D01*
X158346309Y-98980593D01*
X158310345Y-98931093D01*
X158305500Y-98900500D01*
X158305500Y-90499006D01*
X158305500Y-90499000D01*
X158301739Y-90451214D01*
X158296894Y-90420621D01*
X158290487Y-90390246D01*
X158242309Y-90288838D01*
X158232260Y-90275007D01*
X158206348Y-90239342D01*
X158206347Y-90239341D01*
X158206345Y-90239338D01*
X158152177Y-90182081D01*
X158152176Y-90182080D01*
X158152175Y-90182079D01*
X158049575Y-90126168D01*
X158050601Y-90124284D01*
X158010847Y-90089382D01*
X157997377Y-90029698D01*
X158021562Y-89973495D01*
X158074162Y-89942241D01*
X158080489Y-89941219D01*
X158084104Y-89940500D01*
X158084106Y-89940500D01*
X158204952Y-89916463D01*
X158318786Y-89869311D01*
X158421233Y-89800858D01*
X158508358Y-89713733D01*
X158538441Y-89668710D01*
X161819500Y-89668710D01*
X161819500Y-89911289D01*
X161831609Y-90003267D01*
X161845596Y-90109514D01*
X161851161Y-90151781D01*
X161851161Y-90151786D01*
X161913944Y-90386092D01*
X161913948Y-90386105D01*
X162006772Y-90610204D01*
X162006774Y-90610208D01*
X162006776Y-90610212D01*
X162101783Y-90774769D01*
X162128066Y-90820292D01*
X162275729Y-91012731D01*
X162275731Y-91012733D01*
X162275735Y-91012738D01*
X162447262Y-91184265D01*
X162447266Y-91184268D01*
X162447268Y-91184270D01*
X162639707Y-91331933D01*
X162639711Y-91331936D01*
X162849788Y-91453224D01*
X163073900Y-91546054D01*
X163308211Y-91608838D01*
X163548712Y-91640500D01*
X163548713Y-91640500D01*
X163791287Y-91640500D01*
X163791288Y-91640500D01*
X164031789Y-91608838D01*
X164266100Y-91546054D01*
X164490212Y-91453224D01*
X164700289Y-91331936D01*
X164892738Y-91184265D01*
X165064265Y-91012738D01*
X165211936Y-90820289D01*
X165333224Y-90610212D01*
X165426054Y-90386100D01*
X165488838Y-90151789D01*
X165520500Y-89911288D01*
X165520500Y-89668712D01*
X165488838Y-89428211D01*
X165426054Y-89193900D01*
X165333224Y-88969788D01*
X165211936Y-88759711D01*
X165165735Y-88699500D01*
X165064270Y-88567268D01*
X165064268Y-88567266D01*
X165064265Y-88567262D01*
X164892738Y-88395735D01*
X164892733Y-88395731D01*
X164892731Y-88395729D01*
X164700292Y-88248066D01*
X164700289Y-88248064D01*
X164490212Y-88126776D01*
X164490208Y-88126774D01*
X164490204Y-88126772D01*
X164266105Y-88033948D01*
X164266104Y-88033947D01*
X164266100Y-88033946D01*
X164031789Y-87971162D01*
X164031786Y-87971161D01*
X164031784Y-87971161D01*
X163791289Y-87939500D01*
X163791288Y-87939500D01*
X163548712Y-87939500D01*
X163548710Y-87939500D01*
X163308218Y-87971161D01*
X163308213Y-87971161D01*
X163073907Y-88033944D01*
X163073894Y-88033948D01*
X162849795Y-88126772D01*
X162639707Y-88248066D01*
X162447268Y-88395729D01*
X162275729Y-88567268D01*
X162128066Y-88759707D01*
X162006772Y-88969795D01*
X161913948Y-89193894D01*
X161913944Y-89193907D01*
X161851161Y-89428213D01*
X161851161Y-89428218D01*
X161819500Y-89668710D01*
X158538441Y-89668710D01*
X158576811Y-89611286D01*
X158623963Y-89497452D01*
X158648000Y-89376606D01*
X158648000Y-89253394D01*
X158623963Y-89132548D01*
X158576811Y-89018714D01*
X158508358Y-88916267D01*
X158421233Y-88829142D01*
X158318786Y-88760689D01*
X158318787Y-88760689D01*
X158318785Y-88760688D01*
X158204950Y-88713536D01*
X158084108Y-88689500D01*
X158084106Y-88689500D01*
X157960894Y-88689500D01*
X157960891Y-88689500D01*
X157840049Y-88713536D01*
X157726214Y-88760688D01*
X157623767Y-88829142D01*
X157623763Y-88829145D01*
X157536645Y-88916263D01*
X157536642Y-88916267D01*
X157468188Y-89018714D01*
X157421036Y-89132549D01*
X157397000Y-89253391D01*
X157397000Y-89376608D01*
X157421036Y-89497450D01*
X157468188Y-89611285D01*
X157468189Y-89611286D01*
X157536642Y-89713733D01*
X157623767Y-89800858D01*
X157726214Y-89869311D01*
X157726215Y-89869311D01*
X157726216Y-89869312D01*
X157810047Y-89904036D01*
X157856573Y-89943772D01*
X157870857Y-90003267D01*
X157847442Y-90059795D01*
X157795273Y-90091765D01*
X157772162Y-90094500D01*
X156399000Y-90094500D01*
X156351214Y-90098261D01*
X156334800Y-90100860D01*
X156320619Y-90103106D01*
X156320614Y-90103106D01*
X156290247Y-90109512D01*
X156290242Y-90109514D01*
X156188841Y-90157689D01*
X156188831Y-90157695D01*
X156139342Y-90193651D01*
X156082079Y-90247824D01*
X156028360Y-90346401D01*
X156028359Y-90346403D01*
X156009451Y-90404595D01*
X155994500Y-90498996D01*
X155994500Y-95100500D01*
X155975593Y-95158691D01*
X155926093Y-95194655D01*
X155895500Y-95199500D01*
X154858806Y-95199500D01*
X154858790Y-95199499D01*
X154852727Y-95199499D01*
X154747273Y-95199499D01*
X154747270Y-95199499D01*
X154645413Y-95226792D01*
X154645409Y-95226794D01*
X154554087Y-95279519D01*
X154479519Y-95354086D01*
X154479520Y-95354087D01*
X153649516Y-96184091D01*
X153596793Y-96275411D01*
X153596792Y-96275411D01*
X153596793Y-96275412D01*
X153569500Y-96377273D01*
X153569500Y-96420333D01*
X153550593Y-96478524D01*
X153529829Y-96499586D01*
X153412458Y-96587450D01*
X153412450Y-96587458D01*
X153326202Y-96702670D01*
X153275910Y-96837511D01*
X153275908Y-96837522D01*
X153269500Y-96897129D01*
X153269500Y-97313099D01*
X153250593Y-97371290D01*
X153240504Y-97383102D01*
X152879520Y-97744086D01*
X152879516Y-97744091D01*
X152826794Y-97835407D01*
X152818581Y-97866061D01*
X152811828Y-97891267D01*
X152806943Y-97909498D01*
X152806942Y-97909501D01*
X152799500Y-97937272D01*
X152799500Y-98518891D01*
X152780593Y-98577082D01*
X152735098Y-98611648D01*
X152701064Y-98624343D01*
X152682664Y-98631206D01*
X152682663Y-98631207D01*
X152567458Y-98717450D01*
X152567450Y-98717458D01*
X152481202Y-98832670D01*
X152430910Y-98967511D01*
X152430908Y-98967522D01*
X152424500Y-99027129D01*
X152424500Y-99522866D01*
X152424501Y-99522870D01*
X152430908Y-99582480D01*
X152430909Y-99582485D01*
X152481202Y-99717329D01*
X152567450Y-99832541D01*
X152567454Y-99832546D01*
X152567457Y-99832548D01*
X152567459Y-99832550D01*
X152588666Y-99848425D01*
X152623920Y-99898433D01*
X152624966Y-99953302D01*
X152624836Y-99953787D01*
X152599500Y-100048343D01*
X152599500Y-100206457D01*
X152603428Y-100221115D01*
X152612735Y-100255853D01*
X152609532Y-100316955D01*
X152576441Y-100360725D01*
X152567460Y-100367448D01*
X152567450Y-100367458D01*
X152481204Y-100482668D01*
X152470509Y-100511342D01*
X152432457Y-100559256D01*
X152373510Y-100575653D01*
X152316182Y-100554270D01*
X152282372Y-100503275D01*
X152282173Y-100502546D01*
X152259577Y-100418216D01*
X152180520Y-100281284D01*
X152155087Y-100255851D01*
X152129496Y-100230259D01*
X152101719Y-100175742D01*
X152100500Y-100160256D01*
X152100500Y-95456900D01*
X152119407Y-95398709D01*
X152129490Y-95386902D01*
X153392980Y-94123413D01*
X153445707Y-94032088D01*
X153473000Y-93930227D01*
X153473000Y-93824773D01*
X153473000Y-92143242D01*
X153491907Y-92085051D01*
X153519403Y-92061098D01*
X153518686Y-92060025D01*
X153537191Y-92047660D01*
X153678408Y-91953302D01*
X153810802Y-91820908D01*
X153908136Y-91675238D01*
X153914818Y-91665238D01*
X153914819Y-91665234D01*
X153914822Y-91665231D01*
X153986473Y-91492251D01*
X154023000Y-91308616D01*
X154023000Y-91121384D01*
X153986473Y-90937749D01*
X153914822Y-90764769D01*
X153914820Y-90764767D01*
X153914818Y-90764761D01*
X153855149Y-90675463D01*
X153810802Y-90609092D01*
X153678408Y-90476698D01*
X153634059Y-90447065D01*
X153522738Y-90372681D01*
X153522729Y-90372677D01*
X153349749Y-90301026D01*
X153166118Y-90264500D01*
X153166116Y-90264500D01*
X152978884Y-90264500D01*
X152978881Y-90264500D01*
X152795250Y-90301026D01*
X152622270Y-90372677D01*
X152622261Y-90372681D01*
X152466592Y-90476698D01*
X152466588Y-90476701D01*
X152334201Y-90609088D01*
X152334198Y-90609092D01*
X152230181Y-90764761D01*
X152230177Y-90764770D01*
X152158526Y-90937750D01*
X152122000Y-91121381D01*
X152122000Y-91308618D01*
X152158526Y-91492249D01*
X152230177Y-91665229D01*
X152230181Y-91665238D01*
X152304565Y-91776559D01*
X152334198Y-91820908D01*
X152466592Y-91953302D01*
X152592965Y-92037742D01*
X152626314Y-92060025D01*
X152625201Y-92061690D01*
X152662070Y-92100027D01*
X152672000Y-92143242D01*
X152672000Y-92544665D01*
X152653093Y-92602856D01*
X152603593Y-92638820D01*
X152542407Y-92638820D01*
X152517999Y-92626981D01*
X152433752Y-92570689D01*
X152418786Y-92560689D01*
X152415547Y-92559347D01*
X152304950Y-92513536D01*
X152184108Y-92489500D01*
X152184106Y-92489500D01*
X152060894Y-92489500D01*
X152060891Y-92489500D01*
X151940049Y-92513536D01*
X151826214Y-92560688D01*
X151723767Y-92629142D01*
X151723763Y-92629145D01*
X151636645Y-92716263D01*
X151636642Y-92716267D01*
X151568188Y-92818714D01*
X151521036Y-92932549D01*
X151497000Y-93053391D01*
X151497000Y-93176608D01*
X151521036Y-93297450D01*
X151568188Y-93411285D01*
X151568189Y-93411286D01*
X151636642Y-93513733D01*
X151723767Y-93600858D01*
X151826214Y-93669311D01*
X151940048Y-93716463D01*
X152060894Y-93740500D01*
X152060896Y-93740500D01*
X152184104Y-93740500D01*
X152184106Y-93740500D01*
X152304952Y-93716463D01*
X152418786Y-93669311D01*
X152473592Y-93632690D01*
X152532478Y-93616082D01*
X152589881Y-93637259D01*
X152623875Y-93688132D01*
X152621473Y-93749270D01*
X152598596Y-93785010D01*
X151379517Y-95004090D01*
X151379516Y-95004091D01*
X151326793Y-95095411D01*
X151326792Y-95095411D01*
X151326793Y-95095412D01*
X151299500Y-95197273D01*
X151299500Y-100160256D01*
X151280593Y-100218447D01*
X151270504Y-100230259D01*
X151219482Y-100281281D01*
X151219480Y-100281283D01*
X151219480Y-100281284D01*
X151140423Y-100418216D01*
X151099500Y-100570943D01*
X151099500Y-100729057D01*
X151140423Y-100881784D01*
X151219480Y-101018716D01*
X151331284Y-101130520D01*
X151468216Y-101209577D01*
X151620943Y-101250500D01*
X151620945Y-101250500D01*
X151779055Y-101250500D01*
X151779057Y-101250500D01*
X151931784Y-101209577D01*
X152068716Y-101130520D01*
X152180520Y-101018716D01*
X152239765Y-100916098D01*
X152285232Y-100875159D01*
X152346082Y-100868763D01*
X152399071Y-100899355D01*
X152423958Y-100955251D01*
X152424500Y-100965600D01*
X152424500Y-101172866D01*
X152424501Y-101172870D01*
X152430908Y-101232480D01*
X152430909Y-101232485D01*
X152481202Y-101367329D01*
X152487983Y-101376387D01*
X152567454Y-101482546D01*
X152567457Y-101482548D01*
X152567458Y-101482549D01*
X152682670Y-101568797D01*
X152817511Y-101619089D01*
X152817512Y-101619089D01*
X152817517Y-101619091D01*
X152877127Y-101625500D01*
X153522872Y-101625499D01*
X153582483Y-101619091D01*
X153649907Y-101593943D01*
X153717329Y-101568797D01*
X153717329Y-101568796D01*
X153717331Y-101568796D01*
X153832546Y-101482546D01*
X153918796Y-101367331D01*
X153969091Y-101232483D01*
X153975500Y-101172873D01*
X153975499Y-100677128D01*
X153969091Y-100617517D01*
X153969090Y-100617514D01*
X153918797Y-100482670D01*
X153832549Y-100367458D01*
X153832548Y-100367457D01*
X153832546Y-100367454D01*
X153823560Y-100360727D01*
X153788308Y-100310717D01*
X153787265Y-100255851D01*
X153800499Y-100206459D01*
X153800500Y-100206457D01*
X153800500Y-100048346D01*
X153800500Y-100048343D01*
X153775033Y-99953299D01*
X153778235Y-99892202D01*
X153811330Y-99848427D01*
X153832546Y-99832546D01*
X153918796Y-99717331D01*
X153969091Y-99582483D01*
X153975500Y-99522873D01*
X153975499Y-99027128D01*
X153969091Y-98967517D01*
X153950773Y-98918404D01*
X153918797Y-98832670D01*
X153832549Y-98717458D01*
X153832548Y-98717457D01*
X153832546Y-98717454D01*
X153832541Y-98717450D01*
X153717336Y-98631207D01*
X153717335Y-98631206D01*
X153717332Y-98631205D01*
X153717331Y-98631204D01*
X153664901Y-98611648D01*
X153616988Y-98573597D01*
X153600500Y-98518891D01*
X153600500Y-98196899D01*
X153602968Y-98189301D01*
X153601719Y-98181412D01*
X153612243Y-98160756D01*
X153619407Y-98138708D01*
X153629485Y-98126907D01*
X153731898Y-98024493D01*
X153786413Y-97996718D01*
X153801900Y-97995499D01*
X154217867Y-97995499D01*
X154217872Y-97995499D01*
X154220531Y-97995213D01*
X154280410Y-98007789D01*
X154321460Y-98053160D01*
X154328003Y-98113994D01*
X154326746Y-98119257D01*
X154299500Y-98220943D01*
X154299500Y-98379057D01*
X154339563Y-98528577D01*
X154337381Y-98586897D01*
X154302291Y-98687176D01*
X154302289Y-98687185D01*
X154299500Y-98716923D01*
X154299500Y-99103076D01*
X154302289Y-99132814D01*
X154302291Y-99132823D01*
X154346148Y-99258158D01*
X154424997Y-99364995D01*
X154425004Y-99365002D01*
X154531841Y-99443851D01*
X154531842Y-99443851D01*
X154531843Y-99443852D01*
X154657181Y-99487710D01*
X154684619Y-99490282D01*
X154686923Y-99490499D01*
X154686928Y-99490500D01*
X154686934Y-99490500D01*
X155133072Y-99490500D01*
X155133075Y-99490499D01*
X155162819Y-99487710D01*
X155288157Y-99443852D01*
X155371678Y-99382210D01*
X155429724Y-99362869D01*
X155488054Y-99381340D01*
X155500469Y-99391862D01*
X155808607Y-99700000D01*
X154600000Y-99700000D01*
X154600000Y-100750000D01*
X154968509Y-100750000D01*
X154951898Y-100811996D01*
X154949500Y-100820944D01*
X154949500Y-100909007D01*
X154930593Y-100967198D01*
X154893726Y-100998072D01*
X154820784Y-101033473D01*
X154820782Y-101033474D01*
X154771585Y-101069847D01*
X154714779Y-101124489D01*
X154661880Y-101223513D01*
X154661877Y-101223521D01*
X154643458Y-101281856D01*
X154629293Y-101376387D01*
X154670606Y-106334014D01*
X154652184Y-106392360D01*
X154641904Y-106404550D01*
X152201665Y-108865211D01*
X152147264Y-108893216D01*
X152131370Y-108894500D01*
X139749000Y-108894500D01*
X139701214Y-108898261D01*
X139684800Y-108900860D01*
X139670619Y-108903106D01*
X139670614Y-108903106D01*
X139640247Y-108909512D01*
X139640242Y-108909514D01*
X139538841Y-108957689D01*
X139538831Y-108957695D01*
X139489342Y-108993651D01*
X139432079Y-109047824D01*
X139378360Y-109146401D01*
X139378359Y-109146403D01*
X139359451Y-109204595D01*
X139344500Y-109298996D01*
X124965726Y-109298996D01*
X124958835Y-109264868D01*
X124958118Y-109260901D01*
X124901952Y-108909514D01*
X124804966Y-108302754D01*
X124804413Y-108298774D01*
X124690401Y-107335173D01*
X124690014Y-107331211D01*
X124615334Y-106363766D01*
X124615106Y-106359757D01*
X124592225Y-105729893D01*
X124579879Y-105390027D01*
X124579816Y-105386088D01*
X124584105Y-104415750D01*
X124584205Y-104411726D01*
X124628002Y-103442367D01*
X124628259Y-103438443D01*
X124711492Y-102471637D01*
X124711910Y-102467718D01*
X124834444Y-101505096D01*
X124835033Y-101501124D01*
X124838171Y-101482549D01*
X124917538Y-101012697D01*
X132594500Y-101012697D01*
X132594500Y-101012701D01*
X132594500Y-107183500D01*
X132598261Y-107231286D01*
X132601983Y-107254789D01*
X132603106Y-107261880D01*
X132603106Y-107261885D01*
X132609512Y-107292252D01*
X132609514Y-107292257D01*
X132657689Y-107393658D01*
X132657695Y-107393668D01*
X132685677Y-107432182D01*
X132693655Y-107443162D01*
X132734931Y-107486792D01*
X132747824Y-107500420D01*
X132846401Y-107554139D01*
X132846403Y-107554140D01*
X132904596Y-107573048D01*
X132904593Y-107573048D01*
X132998997Y-107588000D01*
X132999000Y-107588000D01*
X140700228Y-107588000D01*
X140700228Y-107587999D01*
X140749190Y-107584050D01*
X140780521Y-107578962D01*
X140812030Y-107572121D01*
X140913057Y-107523148D01*
X140962273Y-107486796D01*
X141019099Y-107432183D01*
X141072047Y-107333182D01*
X141090497Y-107274845D01*
X141104708Y-107180325D01*
X141092331Y-105603825D01*
X141088390Y-105557253D01*
X141083548Y-105527437D01*
X141077330Y-105498246D01*
X141067292Y-105477118D01*
X141038135Y-105415746D01*
X141029152Y-105396838D01*
X140993188Y-105347338D01*
X140939020Y-105290081D01*
X140939019Y-105290080D01*
X140939018Y-105290079D01*
X140840441Y-105236360D01*
X140840439Y-105236359D01*
X140782246Y-105217451D01*
X140782249Y-105217451D01*
X140687846Y-105202500D01*
X140687843Y-105202500D01*
X140421106Y-105202500D01*
X140409294Y-105201793D01*
X140396562Y-105200263D01*
X140372057Y-105194068D01*
X140331454Y-105178057D01*
X140307953Y-105164844D01*
X140275968Y-105140589D01*
X140256907Y-105121528D01*
X140232653Y-105089544D01*
X140219441Y-105066045D01*
X140203430Y-105025442D01*
X140197234Y-105000927D01*
X140195706Y-104988201D01*
X140195000Y-104976399D01*
X140195000Y-103988598D01*
X140195706Y-103976796D01*
X140197234Y-103964070D01*
X140203430Y-103939555D01*
X140219440Y-103898955D01*
X140232650Y-103875457D01*
X140256911Y-103843465D01*
X140275965Y-103824411D01*
X140307957Y-103800150D01*
X140331455Y-103786940D01*
X140396060Y-103761464D01*
X140414707Y-103753384D01*
X140426614Y-103747747D01*
X140429701Y-103746265D01*
X140519875Y-103679382D01*
X140561484Y-103634523D01*
X140607180Y-103570309D01*
X140640822Y-103463197D01*
X140648118Y-103402448D01*
X140647342Y-103323627D01*
X140611599Y-103217198D01*
X140581793Y-103163763D01*
X140575851Y-103155752D01*
X140534842Y-103100460D01*
X140443366Y-103035364D01*
X140387852Y-103009656D01*
X140387843Y-103009653D01*
X140295895Y-102983551D01*
X140295890Y-102983550D01*
X140272540Y-102980746D01*
X140248029Y-102974551D01*
X140213820Y-102961060D01*
X140190323Y-102947849D01*
X140175088Y-102936296D01*
X140163812Y-102927745D01*
X140144751Y-102908684D01*
X140124651Y-102882178D01*
X140111438Y-102858678D01*
X140097948Y-102824469D01*
X140091752Y-102799953D01*
X140090706Y-102791241D01*
X140090000Y-102779439D01*
X140090000Y-102245558D01*
X140090706Y-102233758D01*
X140091752Y-102225045D01*
X140097945Y-102200536D01*
X140111439Y-102166314D01*
X140124646Y-102142827D01*
X140144757Y-102116308D01*
X140163808Y-102097257D01*
X140190327Y-102077146D01*
X140213820Y-102063937D01*
X140248030Y-102050447D01*
X140272539Y-102044252D01*
X140281265Y-102043204D01*
X140293059Y-102042500D01*
X140656692Y-102042500D01*
X140690436Y-102039776D01*
X140705664Y-102038548D01*
X140736995Y-102033459D01*
X140768490Y-102026621D01*
X140781493Y-102020318D01*
X140869515Y-101977650D01*
X140869515Y-101977649D01*
X140869517Y-101977649D01*
X140918733Y-101941298D01*
X140975564Y-101886682D01*
X141028511Y-101787680D01*
X141046960Y-101729345D01*
X141061171Y-101634826D01*
X141055784Y-100948723D01*
X141051842Y-100902145D01*
X141051549Y-100900341D01*
X141051544Y-100900312D01*
X141051144Y-100897850D01*
X141060491Y-100837384D01*
X141103594Y-100793958D01*
X141148867Y-100783000D01*
X141260256Y-100783000D01*
X141318447Y-100801907D01*
X141330259Y-100811996D01*
X141361409Y-100843145D01*
X141381284Y-100863020D01*
X141518216Y-100942077D01*
X141670943Y-100983000D01*
X141670945Y-100983000D01*
X141829055Y-100983000D01*
X141829057Y-100983000D01*
X141981784Y-100942077D01*
X142118716Y-100863020D01*
X142230520Y-100751216D01*
X142309577Y-100614284D01*
X142350500Y-100461557D01*
X142350500Y-100303443D01*
X142309577Y-100150716D01*
X142230520Y-100013784D01*
X142118716Y-99901980D01*
X141981784Y-99822923D01*
X141829057Y-99782000D01*
X141749500Y-99782000D01*
X141691309Y-99763093D01*
X141655345Y-99713593D01*
X141650500Y-99683000D01*
X141650500Y-99670944D01*
X141644625Y-99649018D01*
X141609577Y-99518216D01*
X141530520Y-99381284D01*
X141418716Y-99269480D01*
X141281784Y-99190423D01*
X141129057Y-99149500D01*
X141129055Y-99149500D01*
X141104500Y-99149500D01*
X141046309Y-99130593D01*
X141010345Y-99081093D01*
X141005500Y-99050500D01*
X141005500Y-98493733D01*
X141005044Y-98478478D01*
X141005000Y-98475520D01*
X141005000Y-97909464D01*
X141005044Y-97906504D01*
X141005500Y-97891259D01*
X141005500Y-91938717D01*
X141024407Y-91880526D01*
X141073907Y-91844562D01*
X141135093Y-91844562D01*
X141174501Y-91868711D01*
X141269092Y-91963302D01*
X141380502Y-92037743D01*
X141418381Y-92085792D01*
X141424500Y-92120058D01*
X141424500Y-94734309D01*
X141443313Y-94804520D01*
X141443312Y-94804520D01*
X141455200Y-94848886D01*
X141455202Y-94848890D01*
X141514507Y-94951609D01*
X141514509Y-94951611D01*
X141514511Y-94951614D01*
X147270505Y-100707608D01*
X147298281Y-100762123D01*
X147299500Y-100777610D01*
X147299500Y-100779057D01*
X147340423Y-100931784D01*
X147419480Y-101068716D01*
X147531284Y-101180520D01*
X147668216Y-101259577D01*
X147820943Y-101300500D01*
X147820945Y-101300500D01*
X147979055Y-101300500D01*
X147979057Y-101300500D01*
X148131784Y-101259577D01*
X148268716Y-101180520D01*
X148380520Y-101068716D01*
X148459577Y-100931784D01*
X148500500Y-100779057D01*
X148500500Y-100620943D01*
X148484836Y-100562484D01*
X148485116Y-100557129D01*
X148482682Y-100552351D01*
X148486695Y-100527012D01*
X148488038Y-100501386D01*
X148491413Y-100497217D01*
X148492253Y-100491919D01*
X148510394Y-100473778D01*
X148526543Y-100453836D01*
X148531725Y-100452447D01*
X148535518Y-100448655D01*
X148560858Y-100444641D01*
X148585644Y-100438000D01*
X148590651Y-100439922D01*
X148595950Y-100439083D01*
X148618811Y-100450731D01*
X148642765Y-100459926D01*
X148650466Y-100466860D01*
X148770503Y-100586896D01*
X148798281Y-100641413D01*
X148799500Y-100656900D01*
X148799500Y-100729057D01*
X148840423Y-100881784D01*
X148919480Y-101018716D01*
X149031284Y-101130520D01*
X149168216Y-101209577D01*
X149320943Y-101250500D01*
X149320945Y-101250500D01*
X149479055Y-101250500D01*
X149479057Y-101250500D01*
X149631784Y-101209577D01*
X149768716Y-101130520D01*
X149880520Y-101018716D01*
X149959577Y-100881784D01*
X150000500Y-100729057D01*
X150000500Y-100570943D01*
X149959577Y-100418216D01*
X149880520Y-100281284D01*
X149768716Y-100169480D01*
X149631784Y-100090423D01*
X149479057Y-100049500D01*
X149479055Y-100049500D01*
X149406901Y-100049500D01*
X149348710Y-100030593D01*
X149336897Y-100020504D01*
X144304496Y-94988103D01*
X144276719Y-94933586D01*
X144275500Y-94918099D01*
X144275500Y-92153242D01*
X144294407Y-92095051D01*
X144321903Y-92071098D01*
X144321186Y-92070025D01*
X144340197Y-92057322D01*
X144480908Y-91963302D01*
X144613302Y-91830908D01*
X144687282Y-91720187D01*
X144717318Y-91675238D01*
X144717319Y-91675234D01*
X144717322Y-91675231D01*
X144788973Y-91502251D01*
X144825500Y-91318616D01*
X144825500Y-91131384D01*
X144788973Y-90947749D01*
X144717322Y-90774769D01*
X144717320Y-90774767D01*
X144717318Y-90774761D01*
X144657649Y-90685463D01*
X144613302Y-90619092D01*
X144480908Y-90486698D01*
X144427807Y-90451217D01*
X144325238Y-90382681D01*
X144325229Y-90382677D01*
X144152249Y-90311026D01*
X143968618Y-90274500D01*
X143968616Y-90274500D01*
X143781384Y-90274500D01*
X143781381Y-90274500D01*
X143597750Y-90311026D01*
X143424770Y-90382677D01*
X143424761Y-90382681D01*
X143269092Y-90486698D01*
X143269088Y-90486701D01*
X143136701Y-90619088D01*
X143136698Y-90619092D01*
X143032681Y-90774761D01*
X143032677Y-90774770D01*
X142966464Y-90934624D01*
X142926727Y-90981149D01*
X142867233Y-90995433D01*
X142810705Y-90972018D01*
X142783536Y-90934624D01*
X142729138Y-90803297D01*
X142717322Y-90774769D01*
X142717320Y-90774767D01*
X142717318Y-90774761D01*
X142657649Y-90685463D01*
X142613302Y-90619092D01*
X142480908Y-90486698D01*
X142427807Y-90451217D01*
X142325238Y-90382681D01*
X142325229Y-90382677D01*
X142152249Y-90311026D01*
X141968618Y-90274500D01*
X141968616Y-90274500D01*
X141781384Y-90274500D01*
X141781381Y-90274500D01*
X141597750Y-90311026D01*
X141424770Y-90382677D01*
X141424761Y-90382681D01*
X141269092Y-90486698D01*
X141269082Y-90486706D01*
X141173699Y-90582089D01*
X141119183Y-90609866D01*
X141058750Y-90600294D01*
X141015486Y-90557030D01*
X141005001Y-90519855D01*
X141001739Y-90478397D01*
X140996894Y-90447804D01*
X140990487Y-90417429D01*
X140942309Y-90316021D01*
X140931415Y-90301027D01*
X140906348Y-90266525D01*
X140906347Y-90266524D01*
X140906345Y-90266521D01*
X140852177Y-90209264D01*
X140852176Y-90209263D01*
X140852175Y-90209262D01*
X140753598Y-90155543D01*
X140753596Y-90155542D01*
X140695403Y-90136634D01*
X140695406Y-90136634D01*
X140601003Y-90121683D01*
X140601000Y-90121683D01*
X139099000Y-90121683D01*
X139051214Y-90125444D01*
X139034800Y-90128043D01*
X139020619Y-90130289D01*
X139020614Y-90130289D01*
X138990247Y-90136695D01*
X138990242Y-90136697D01*
X138888841Y-90184872D01*
X138888831Y-90184878D01*
X138839342Y-90220834D01*
X138782079Y-90275007D01*
X138728360Y-90373584D01*
X138728359Y-90373586D01*
X138709451Y-90431778D01*
X138694500Y-90526179D01*
X138694500Y-92420916D01*
X138695029Y-92438883D01*
X138695720Y-92450600D01*
X138695779Y-92451586D01*
X138696489Y-92456169D01*
X138695373Y-92456341D01*
X138691617Y-92512364D01*
X138652422Y-92559347D01*
X138637613Y-92567002D01*
X138628714Y-92570688D01*
X138526267Y-92639142D01*
X138526263Y-92639145D01*
X138439145Y-92726263D01*
X138439142Y-92726267D01*
X138370688Y-92828714D01*
X138323536Y-92942549D01*
X138299500Y-93063391D01*
X138299500Y-93186608D01*
X138323536Y-93307450D01*
X138370688Y-93421285D01*
X138370689Y-93421286D01*
X138439142Y-93523733D01*
X138439145Y-93523736D01*
X138526267Y-93610858D01*
X138628707Y-93679307D01*
X138628711Y-93679309D01*
X138628714Y-93679311D01*
X138636725Y-93682629D01*
X138640606Y-93684237D01*
X138687132Y-93723974D01*
X138701415Y-93783469D01*
X138700501Y-93791187D01*
X138694500Y-93829078D01*
X138694500Y-96385939D01*
X138675593Y-96444130D01*
X138626093Y-96480094D01*
X138583880Y-96481839D01*
X138583641Y-96484071D01*
X138562880Y-96481839D01*
X138517873Y-96477000D01*
X138517870Y-96477000D01*
X138022133Y-96477000D01*
X138022129Y-96477000D01*
X138022128Y-96477001D01*
X138014949Y-96477772D01*
X137962519Y-96483408D01*
X137962514Y-96483409D01*
X137827670Y-96533702D01*
X137712458Y-96619950D01*
X137712450Y-96619958D01*
X137626202Y-96735170D01*
X137575910Y-96870011D01*
X137575908Y-96870022D01*
X137569500Y-96929629D01*
X137569500Y-97575366D01*
X137569501Y-97575370D01*
X137575908Y-97634980D01*
X137575910Y-97634987D01*
X137577858Y-97640210D01*
X137579057Y-97668232D01*
X137581769Y-97696147D01*
X137580355Y-97698551D01*
X137580475Y-97701339D01*
X137564973Y-97724715D01*
X137550760Y-97748893D01*
X137548202Y-97750007D01*
X137546661Y-97752332D01*
X137520382Y-97762131D01*
X137494669Y-97773337D01*
X137492215Y-97772634D01*
X137489332Y-97773710D01*
X137434923Y-97760144D01*
X137427608Y-97755843D01*
X137426022Y-97754257D01*
X137364112Y-97718513D01*
X137363707Y-97718275D01*
X137343655Y-97695649D01*
X137323441Y-97673199D01*
X137323372Y-97672761D01*
X137323126Y-97672484D01*
X137322798Y-97669109D01*
X137315449Y-97622349D01*
X137317049Y-97607467D01*
X137320500Y-97575373D01*
X137320499Y-96929628D01*
X137314091Y-96870017D01*
X137301970Y-96837519D01*
X137263797Y-96735170D01*
X137177549Y-96619958D01*
X137177548Y-96619957D01*
X137177546Y-96619954D01*
X137134132Y-96587454D01*
X137062329Y-96533702D01*
X136927488Y-96483410D01*
X136927483Y-96483409D01*
X136927481Y-96483408D01*
X136927477Y-96483408D01*
X136896249Y-96480050D01*
X136867873Y-96477000D01*
X136867870Y-96477000D01*
X136372133Y-96477000D01*
X136372129Y-96477000D01*
X136372128Y-96477001D01*
X136364949Y-96477772D01*
X136312519Y-96483408D01*
X136312514Y-96483409D01*
X136177670Y-96533702D01*
X136062458Y-96619950D01*
X136062450Y-96619958D01*
X135976202Y-96735170D01*
X135925910Y-96870011D01*
X135925908Y-96870022D01*
X135919500Y-96929629D01*
X135919500Y-97575366D01*
X135919501Y-97575370D01*
X135925909Y-97634985D01*
X135957637Y-97720053D01*
X135960257Y-97781182D01*
X135950616Y-97804148D01*
X135926794Y-97845409D01*
X135926793Y-97845411D01*
X135926793Y-97845412D01*
X135903784Y-97931284D01*
X135903784Y-97931285D01*
X135903783Y-97931284D01*
X135899500Y-97947269D01*
X135899500Y-98050333D01*
X135880593Y-98108524D01*
X135859829Y-98129586D01*
X135742452Y-98217455D01*
X135726569Y-98238671D01*
X135676559Y-98273922D01*
X135621697Y-98274965D01*
X135526657Y-98249500D01*
X135368543Y-98249500D01*
X135368540Y-98249500D01*
X135319145Y-98262735D01*
X135258044Y-98259532D01*
X135214271Y-98226438D01*
X135207546Y-98217454D01*
X135205461Y-98215893D01*
X135092329Y-98131202D01*
X134957488Y-98080910D01*
X134957483Y-98080909D01*
X134957481Y-98080908D01*
X134957477Y-98080908D01*
X134926249Y-98077550D01*
X134897873Y-98074500D01*
X134897870Y-98074500D01*
X134402133Y-98074500D01*
X134402129Y-98074500D01*
X134402128Y-98074501D01*
X134394949Y-98075272D01*
X134342519Y-98080908D01*
X134342514Y-98080909D01*
X134207670Y-98131202D01*
X134092458Y-98217450D01*
X134092450Y-98217458D01*
X134006202Y-98332670D01*
X133955910Y-98467511D01*
X133955908Y-98467522D01*
X133953091Y-98493728D01*
X133950386Y-98518891D01*
X133949500Y-98527129D01*
X133949500Y-99172866D01*
X133949501Y-99172870D01*
X133955908Y-99232480D01*
X133955909Y-99232485D01*
X134006202Y-99367329D01*
X134092450Y-99482541D01*
X134092454Y-99482546D01*
X134092457Y-99482548D01*
X134092458Y-99482549D01*
X134207670Y-99568797D01*
X134342511Y-99619089D01*
X134342512Y-99619089D01*
X134342517Y-99619091D01*
X134402127Y-99625500D01*
X134897872Y-99625499D01*
X134957483Y-99619091D01*
X135024907Y-99593943D01*
X135092329Y-99568797D01*
X135092329Y-99568796D01*
X135092331Y-99568796D01*
X135207546Y-99482546D01*
X135214269Y-99473565D01*
X135264276Y-99438310D01*
X135319145Y-99437264D01*
X135368543Y-99450500D01*
X135368545Y-99450500D01*
X135526656Y-99450500D01*
X135526657Y-99450500D01*
X135621697Y-99425034D01*
X135682797Y-99428235D01*
X135726571Y-99461329D01*
X135742454Y-99482546D01*
X135742457Y-99482548D01*
X135742458Y-99482549D01*
X135857670Y-99568797D01*
X135992511Y-99619089D01*
X135992512Y-99619089D01*
X135992517Y-99619091D01*
X136052127Y-99625500D01*
X136547872Y-99625499D01*
X136607483Y-99619091D01*
X136674907Y-99593943D01*
X136742329Y-99568797D01*
X136742329Y-99568796D01*
X136742331Y-99568796D01*
X136857546Y-99482546D01*
X136927828Y-99388660D01*
X136977836Y-99353408D01*
X137039015Y-99354282D01*
X137086737Y-99389202D01*
X137115001Y-99427499D01*
X137115004Y-99427502D01*
X137221841Y-99506351D01*
X137221842Y-99506351D01*
X137221843Y-99506352D01*
X137347181Y-99550210D01*
X137374619Y-99552782D01*
X137376923Y-99552999D01*
X137376928Y-99553000D01*
X137376934Y-99553000D01*
X137823072Y-99553000D01*
X137823075Y-99552999D01*
X137852819Y-99550210D01*
X137978157Y-99506352D01*
X138084999Y-99427499D01*
X138163852Y-99320657D01*
X138207710Y-99195319D01*
X138210500Y-99165566D01*
X138210500Y-98779434D01*
X138210500Y-98779428D01*
X138210499Y-98779423D01*
X138207710Y-98749685D01*
X138207710Y-98749681D01*
X138163852Y-98624343D01*
X138163851Y-98624341D01*
X138085002Y-98517504D01*
X138084995Y-98517497D01*
X137978158Y-98438648D01*
X137852823Y-98394791D01*
X137852814Y-98394789D01*
X137823076Y-98392000D01*
X137823066Y-98392000D01*
X137821930Y-98392000D01*
X137821738Y-98391937D01*
X137820760Y-98391892D01*
X137820765Y-98391783D01*
X137820760Y-98391783D01*
X137820770Y-98391674D01*
X137820772Y-98391623D01*
X137814332Y-98389531D01*
X137806443Y-98390781D01*
X137785787Y-98380256D01*
X137763739Y-98373093D01*
X137751926Y-98363004D01*
X137686802Y-98297880D01*
X137659025Y-98243363D01*
X137657806Y-98227876D01*
X137657806Y-98155721D01*
X137657805Y-98155717D01*
X137627402Y-98042250D01*
X137630603Y-97981151D01*
X137669108Y-97933601D01*
X137728209Y-97917765D01*
X137782355Y-97937374D01*
X137827669Y-97971296D01*
X137827672Y-97971298D01*
X137962511Y-98021589D01*
X137962512Y-98021589D01*
X137962517Y-98021591D01*
X138022127Y-98028000D01*
X138320598Y-98027999D01*
X138328195Y-98030467D01*
X138336085Y-98029218D01*
X138356741Y-98039742D01*
X138378788Y-98046906D01*
X138390602Y-98056995D01*
X138520504Y-98186897D01*
X138548281Y-98241414D01*
X138549500Y-98256901D01*
X138549500Y-99684773D01*
X138549500Y-99790227D01*
X138576793Y-99892088D01*
X138576794Y-99892090D01*
X138583837Y-99904289D01*
X138597100Y-99953787D01*
X138597100Y-100123661D01*
X138597101Y-100123664D01*
X138600014Y-100148790D01*
X138612382Y-100176800D01*
X138641367Y-100242445D01*
X138649100Y-100259957D01*
X138646414Y-100261142D01*
X138659521Y-100305649D01*
X138639005Y-100363292D01*
X138588525Y-100397868D01*
X138560559Y-100401900D01*
X138488292Y-100401900D01*
X138335565Y-100442823D01*
X138250528Y-100491919D01*
X138198630Y-100521882D01*
X138107123Y-100613388D01*
X138052606Y-100641165D01*
X138006528Y-100637539D01*
X137974080Y-100626996D01*
X137962247Y-100623151D01*
X137867852Y-100608201D01*
X137867849Y-100608201D01*
X132999000Y-100608201D01*
X132951214Y-100611962D01*
X132936552Y-100614284D01*
X132920619Y-100616807D01*
X132920614Y-100616807D01*
X132890247Y-100623213D01*
X132890242Y-100623215D01*
X132788841Y-100671390D01*
X132788831Y-100671396D01*
X132739342Y-100707352D01*
X132682079Y-100761525D01*
X132628360Y-100860102D01*
X132628359Y-100860104D01*
X132609451Y-100918296D01*
X132594500Y-101012697D01*
X124917538Y-101012697D01*
X124996650Y-100544357D01*
X124997383Y-100540490D01*
X125197840Y-99591027D01*
X125198738Y-99587163D01*
X125437689Y-98646652D01*
X125438740Y-98642846D01*
X125715771Y-97712909D01*
X125716996Y-97709082D01*
X126031671Y-96791169D01*
X126033035Y-96787440D01*
X126384818Y-95883121D01*
X126386351Y-95879408D01*
X126774680Y-94990130D01*
X126776331Y-94986552D01*
X127200535Y-94113853D01*
X127202365Y-94110276D01*
X127661761Y-93255556D01*
X127663697Y-93252123D01*
X128157529Y-92416797D01*
X128159611Y-92413433D01*
X128687046Y-91598909D01*
X128689259Y-91595639D01*
X129249420Y-90803271D01*
X129251777Y-90800078D01*
X129843731Y-90031184D01*
X129846208Y-90028099D01*
X130146976Y-89668710D01*
X131413900Y-89668710D01*
X131413900Y-89911289D01*
X131426009Y-90003267D01*
X131439996Y-90109514D01*
X131445561Y-90151781D01*
X131445561Y-90151786D01*
X131508344Y-90386092D01*
X131508348Y-90386105D01*
X131601172Y-90610204D01*
X131601174Y-90610208D01*
X131601176Y-90610212D01*
X131696183Y-90774769D01*
X131722466Y-90820292D01*
X131870129Y-91012731D01*
X131870131Y-91012733D01*
X131870135Y-91012738D01*
X132041662Y-91184265D01*
X132041666Y-91184268D01*
X132041668Y-91184270D01*
X132234107Y-91331933D01*
X132234111Y-91331936D01*
X132444188Y-91453224D01*
X132668300Y-91546054D01*
X132902611Y-91608838D01*
X133143112Y-91640500D01*
X133143113Y-91640500D01*
X133385687Y-91640500D01*
X133385688Y-91640500D01*
X133626189Y-91608838D01*
X133860500Y-91546054D01*
X134084612Y-91453224D01*
X134294689Y-91331936D01*
X134487138Y-91184265D01*
X134658665Y-91012738D01*
X134806336Y-90820289D01*
X134927624Y-90610212D01*
X135020454Y-90386100D01*
X135083238Y-90151789D01*
X135114900Y-89911288D01*
X135114900Y-89668712D01*
X135083238Y-89428211D01*
X135039074Y-89263391D01*
X144199500Y-89263391D01*
X144199500Y-89386608D01*
X144223536Y-89507450D01*
X144270688Y-89621285D01*
X144270689Y-89621286D01*
X144339142Y-89723733D01*
X144426267Y-89810858D01*
X144528714Y-89879311D01*
X144642548Y-89926463D01*
X144763394Y-89950500D01*
X144763396Y-89950500D01*
X144886604Y-89950500D01*
X144886606Y-89950500D01*
X145007452Y-89926463D01*
X145121286Y-89879311D01*
X145223733Y-89810858D01*
X145310858Y-89723733D01*
X145379311Y-89621286D01*
X145426463Y-89507452D01*
X145450500Y-89386606D01*
X145450500Y-89263394D01*
X145426463Y-89142548D01*
X145379311Y-89028714D01*
X145310858Y-88926267D01*
X145223733Y-88839142D01*
X145121286Y-88770689D01*
X145121287Y-88770689D01*
X145121285Y-88770688D01*
X145007450Y-88723536D01*
X144886608Y-88699500D01*
X144886606Y-88699500D01*
X144763394Y-88699500D01*
X144763391Y-88699500D01*
X144642549Y-88723536D01*
X144528714Y-88770688D01*
X144426267Y-88839142D01*
X144426263Y-88839145D01*
X144339145Y-88926263D01*
X144339142Y-88926267D01*
X144270688Y-89028714D01*
X144223536Y-89142549D01*
X144199500Y-89263391D01*
X135039074Y-89263391D01*
X135020454Y-89193900D01*
X134927624Y-88969788D01*
X134806336Y-88759711D01*
X134760135Y-88699500D01*
X134658670Y-88567268D01*
X134658668Y-88567266D01*
X134658665Y-88567262D01*
X134487138Y-88395735D01*
X134487133Y-88395731D01*
X134487131Y-88395729D01*
X134294692Y-88248066D01*
X134294689Y-88248064D01*
X134084612Y-88126776D01*
X134084608Y-88126774D01*
X134084604Y-88126772D01*
X133860505Y-88033948D01*
X133860504Y-88033947D01*
X133860500Y-88033946D01*
X133626189Y-87971162D01*
X133626186Y-87971161D01*
X133626184Y-87971161D01*
X133385689Y-87939500D01*
X133385688Y-87939500D01*
X133143112Y-87939500D01*
X133143110Y-87939500D01*
X132902618Y-87971161D01*
X132902613Y-87971161D01*
X132668307Y-88033944D01*
X132668294Y-88033948D01*
X132444195Y-88126772D01*
X132234107Y-88248066D01*
X132041668Y-88395729D01*
X131870129Y-88567268D01*
X131722466Y-88759707D01*
X131601172Y-88969795D01*
X131508348Y-89193894D01*
X131508344Y-89193907D01*
X131445561Y-89428213D01*
X131445561Y-89428218D01*
X131413900Y-89668710D01*
X130146976Y-89668710D01*
X130468984Y-89283942D01*
X130471585Y-89280960D01*
X131124150Y-88562775D01*
X131126892Y-88559878D01*
X131808115Y-87868906D01*
X131810994Y-87866102D01*
X132519824Y-87203407D01*
X132522754Y-87200777D01*
X133258001Y-86567476D01*
X133261026Y-86564976D01*
X134021467Y-85962126D01*
X134024594Y-85959749D01*
X134808954Y-85388363D01*
X134812176Y-85386115D01*
X135619113Y-84847165D01*
X135622460Y-84845027D01*
X136450673Y-84339383D01*
X136454108Y-84337381D01*
X137302191Y-83865898D01*
X137305746Y-83864016D01*
X137728650Y-83650968D01*
X138172298Y-83427469D01*
X138175908Y-83425741D01*
X138899509Y-83097437D01*
X138960312Y-83090614D01*
X139013514Y-83120832D01*
G37*
%TD.AperFunction*%
%TD*%
M02*
