%TF.GenerationSoftware,KiCad,Pcbnew,9.0.6*%
%TF.CreationDate,2025-11-21T10:34:24+00:00*%
%TF.ProjectId,batt_pcb_rear,62617474-5f70-4636-925f-726561722e6b,rev?*%
%TF.SameCoordinates,Original*%
%TF.FileFunction,Copper,L1,Top*%
%TF.FilePolarity,Positive*%
%FSLAX46Y46*%
G04 Gerber Fmt 4.6, Leading zero omitted, Abs format (unit mm)*
G04 Created by KiCad (PCBNEW 9.0.6) date 2025-11-21 10:34:24*
%MOMM*%
%LPD*%
G01*
G04 APERTURE LIST*
G04 Aperture macros list*
%AMRoundRect*
0 Rectangle with rounded corners*
0 $1 Rounding radius*
0 $2 $3 $4 $5 $6 $7 $8 $9 X,Y pos of 4 corners*
0 Add a 4 corners polygon primitive as box body*
4,1,4,$2,$3,$4,$5,$6,$7,$8,$9,$2,$3,0*
0 Add four circle primitives for the rounded corners*
1,1,$1+$1,$2,$3*
1,1,$1+$1,$4,$5*
1,1,$1+$1,$6,$7*
1,1,$1+$1,$8,$9*
0 Add four rect primitives between the rounded corners*
20,1,$1+$1,$2,$3,$4,$5,0*
20,1,$1+$1,$4,$5,$6,$7,0*
20,1,$1+$1,$6,$7,$8,$9,0*
20,1,$1+$1,$8,$9,$2,$3,0*%
G04 Aperture macros list end*
%TA.AperFunction,SMDPad,CuDef*%
%ADD10C,4.000000*%
%TD*%
%TA.AperFunction,SMDPad,CuDef*%
%ADD11R,0.900000X1.800000*%
%TD*%
%TA.AperFunction,ComponentPad*%
%ADD12C,1.300000*%
%TD*%
%TA.AperFunction,ComponentPad*%
%ADD13R,4.000000X4.000000*%
%TD*%
%TA.AperFunction,ComponentPad*%
%ADD14RoundRect,0.250000X1.125000X1.125000X-1.125000X1.125000X-1.125000X-1.125000X1.125000X-1.125000X0*%
%TD*%
%TA.AperFunction,ViaPad*%
%ADD15C,0.600000*%
%TD*%
%TA.AperFunction,Conductor*%
%ADD16C,0.200000*%
%TD*%
%TA.AperFunction,Conductor*%
%ADD17C,0.300000*%
%TD*%
%TA.AperFunction,Conductor*%
%ADD18C,1.250000*%
%TD*%
G04 APERTURE END LIST*
D10*
%TO.P,J3,1,Pin_1*%
%TO.N,+BATT1_IN*%
X148501100Y-122464500D03*
%TD*%
%TO.P,J4,1,Pin_1*%
%TO.N,+BATT1_IN*%
X161712500Y-116428300D03*
%TD*%
D11*
%TO.P,J12,1,Pin_1*%
%TO.N,+BATT1*%
X139875000Y-89425000D03*
D12*
X139875000Y-91225000D03*
D11*
X139875000Y-93025000D03*
%TO.P,J12,2,Pin_2*%
%TO.N,+3.3V*%
X141875000Y-89425000D03*
D12*
X141875000Y-91225000D03*
D11*
X141875000Y-93025000D03*
%TO.P,J12,3,Pin_3*%
%TO.N,SDA*%
X143875000Y-89425000D03*
D12*
X143875000Y-91225000D03*
D11*
X143875000Y-93025000D03*
%TD*%
D10*
%TO.P,J6,1,Pin_1*%
%TO.N,+BATT1_IN*%
X148501100Y-105003600D03*
%TD*%
%TO.P,J5,1,Pin_1*%
%TO.N,+BATT1_IN*%
X165704400Y-101730900D03*
%TD*%
%TO.P,J1,1,Pin_1*%
%TO.N,+BATT1_IN*%
X131297900Y-101730900D03*
%TD*%
%TO.P,J2,1,Pin_1*%
%TO.N,+BATT1_IN*%
X135289800Y-116428300D03*
%TD*%
D11*
%TO.P,J13,1,Pin_1*%
%TO.N,SCL*%
X153072500Y-89415000D03*
D12*
X153072500Y-91215000D03*
D11*
X153072500Y-93015000D03*
%TO.P,J13,2,Pin_2*%
%TO.N,GND*%
X155072500Y-89415000D03*
D12*
X155072500Y-91215000D03*
D11*
X155072500Y-93015000D03*
%TO.P,J13,3,Pin_3*%
%TO.N,+BATT2*%
X157072500Y-89415000D03*
D12*
X157072500Y-91215000D03*
D11*
X157072500Y-93015000D03*
%TD*%
D13*
%TO.P,J10,1,Pin_1*%
%TO.N,GND*%
X141900000Y-116450000D03*
%TD*%
%TO.P,J9,1,Pin_1*%
%TO.N,+BATT2_IN*%
X141900000Y-111350000D03*
%TD*%
D14*
%TO.P,J7,1,Pin_1*%
%TO.N,PWR_EN*%
X162150000Y-110300000D03*
%TD*%
%TO.P,J11,1,Pin_1*%
%TO.N,+BATT1_IN*%
X166450000Y-110300000D03*
%TD*%
D15*
%TO.N,SDA*%
X156317100Y-113836200D03*
X149400000Y-100650000D03*
%TO.N,+3.3V*%
X155317100Y-113836200D03*
X147900000Y-100700000D03*
%TO.N,SCL*%
X151700000Y-100650000D03*
X157317100Y-113836200D03*
%TO.N,+BATT1_IN*%
X136650000Y-103400000D03*
X135150000Y-106400000D03*
X138300000Y-105832500D03*
X137900000Y-102282500D03*
X135150000Y-104900000D03*
X139450000Y-105882500D03*
X137550000Y-103932500D03*
X137550000Y-104932500D03*
X135150000Y-101850000D03*
X133650000Y-106400000D03*
X137950000Y-103082500D03*
X133650000Y-104900000D03*
X136650000Y-106400000D03*
X133650000Y-103400000D03*
X135150000Y-103400000D03*
X136650000Y-104900000D03*
X136650000Y-101850000D03*
%TO.N,Net-(U1-CT)*%
X141050000Y-99750000D03*
X137057306Y-98234777D03*
%TO.N,Net-(U2-CT)*%
X158400000Y-99600000D03*
X154900000Y-98300000D03*
%TO.N,PWR_EN*%
X159400000Y-100197500D03*
X141750000Y-100382500D03*
%TO.N,Net-(U1-PG)*%
X138567349Y-101002400D03*
X135447600Y-98850000D03*
%TO.N,Net-(U2-PG)*%
X153200000Y-100127400D03*
X155550000Y-100900000D03*
%TD*%
D16*
%TO.N,SDA*%
X149900000Y-100650000D02*
X156317100Y-107067100D01*
D17*
X143875000Y-93025000D02*
X143875000Y-89425000D01*
D16*
X149400000Y-100650000D02*
X149900000Y-100650000D01*
D17*
X143900000Y-93050000D02*
X143875000Y-93025000D01*
D16*
X156317100Y-107067100D02*
X156317100Y-113836200D01*
D17*
%TO.N,+3.3V*%
X155296600Y-107546600D02*
X148450000Y-100700000D01*
X148450000Y-100700000D02*
X147900000Y-100700000D01*
X141875000Y-89425000D02*
X141875000Y-93025000D01*
X155296600Y-113803400D02*
X155296600Y-107546600D01*
X155200000Y-113900000D02*
X155296600Y-113803400D01*
D18*
%TO.N,+BATT1*%
X140176000Y-91526000D02*
X140176000Y-93025000D01*
X139875000Y-91225000D02*
X140176000Y-91526000D01*
X139875000Y-89425000D02*
X139875000Y-91225000D01*
%TO.N,GND*%
X155072500Y-89415000D02*
X155072500Y-93015000D01*
%TO.N,+BATT2*%
X157072500Y-91215000D02*
X156771500Y-90914000D01*
X156771500Y-90914000D02*
X156771500Y-89415000D01*
D16*
%TO.N,SCL*%
X157317100Y-106817100D02*
X157317100Y-113836200D01*
D17*
X153072500Y-93015000D02*
X153072500Y-89415000D01*
D16*
X151700000Y-101200000D02*
X157317100Y-106817100D01*
X151700000Y-100650000D02*
X151700000Y-101200000D01*
%TO.N,Net-(U1-CT)*%
X137057306Y-98234777D02*
X137057306Y-98349389D01*
X137057306Y-98349389D02*
X138457917Y-99750000D01*
X138457917Y-99750000D02*
X141050000Y-99750000D01*
%TO.N,Net-(U2-CT)*%
X154900000Y-98300000D02*
X156200000Y-99600000D01*
X156200000Y-99600000D02*
X158400000Y-99600000D01*
%TO.N,PWR_EN*%
X155350000Y-99550000D02*
X142700000Y-99550000D01*
X155997500Y-100197500D02*
X155350000Y-99550000D01*
X159400000Y-100197500D02*
X155997500Y-100197500D01*
X142700000Y-99550000D02*
X141750000Y-100500000D01*
%TO.N,Net-(U1-PG)*%
X137050000Y-98850000D02*
X137650000Y-99450000D01*
X137650000Y-99450000D02*
X137650000Y-100085051D01*
X135447600Y-98850000D02*
X137050000Y-98850000D01*
X137650000Y-100085051D02*
X138567349Y-101002400D01*
%TO.N,Net-(U2-PG)*%
X155550000Y-100900000D02*
X155350000Y-100700000D01*
X153827400Y-100127400D02*
X153200000Y-100127400D01*
X154400000Y-100700000D02*
X153827400Y-100127400D01*
X155350000Y-100700000D02*
X154400000Y-100700000D01*
%TD*%
%TA.AperFunction,Conductor*%
%TO.N,+BATT1_IN*%
G36*
X139008940Y-83127389D02*
G01*
X139041447Y-83171978D01*
X140637479Y-86889106D01*
X140638098Y-86890574D01*
X140643425Y-86903435D01*
X140643970Y-86904250D01*
X140643990Y-86904270D01*
X140643991Y-86904271D01*
X140654563Y-86914574D01*
X140665003Y-86925014D01*
X140665471Y-86925207D01*
X140665837Y-86925564D01*
X140665841Y-86925565D01*
X140665843Y-86925567D01*
X140678813Y-86930745D01*
X140680214Y-86931315D01*
X140693193Y-86936691D01*
X140694147Y-86936881D01*
X140694180Y-86936880D01*
X140694182Y-86936881D01*
X140708156Y-86936701D01*
X140709752Y-86936691D01*
X141771205Y-86936691D01*
X141779385Y-86938318D01*
X141784466Y-86937402D01*
X141818663Y-86946132D01*
X141821719Y-86947398D01*
X141831012Y-86951706D01*
X141837198Y-86954890D01*
X141838845Y-86955362D01*
X141840287Y-86955865D01*
X141841817Y-86956080D01*
X141843475Y-86956410D01*
X141850441Y-86956410D01*
X141860671Y-86956832D01*
X141862341Y-86956971D01*
X141867605Y-86957407D01*
X141867605Y-86957406D01*
X141867607Y-86957407D01*
X141867608Y-86957406D01*
X141869321Y-86957211D01*
X141883395Y-86956410D01*
X154473983Y-86956410D01*
X156589126Y-86956410D01*
X156603343Y-86956795D01*
X156604349Y-86956410D01*
X156605425Y-86956410D01*
X156605426Y-86956410D01*
X156617015Y-86951609D01*
X156617024Y-86951605D01*
X156618566Y-86950965D01*
X156631839Y-86945885D01*
X156632620Y-86945145D01*
X156633615Y-86944733D01*
X156642706Y-86935640D01*
X156643673Y-86934674D01*
X156653991Y-86924902D01*
X156654425Y-86923927D01*
X156655185Y-86923168D01*
X156655188Y-86923159D01*
X156655191Y-86923157D01*
X156660023Y-86911490D01*
X156661296Y-86908531D01*
X158267968Y-83308571D01*
X158313264Y-83255377D01*
X158380132Y-83235115D01*
X158434033Y-83246928D01*
X159129357Y-83574393D01*
X159133846Y-83576620D01*
X159563528Y-83800793D01*
X159993194Y-84024958D01*
X159997623Y-84027384D01*
X160838019Y-84510350D01*
X160842346Y-84512955D01*
X161662376Y-85029740D01*
X161666593Y-85032519D01*
X162372392Y-85518560D01*
X162464910Y-85582271D01*
X162469004Y-85585216D01*
X163244283Y-86167027D01*
X163248200Y-86170093D01*
X163999178Y-86783016D01*
X164002988Y-86786257D01*
X164196071Y-86957407D01*
X164728347Y-87429219D01*
X164732057Y-87432645D01*
X165430629Y-88104602D01*
X165434161Y-88108140D01*
X166059469Y-88760689D01*
X166104815Y-88808010D01*
X166108233Y-88811726D01*
X166749814Y-89538301D01*
X166753053Y-89542124D01*
X167149388Y-90029615D01*
X167364516Y-90294222D01*
X167367619Y-90298201D01*
X167901728Y-91012736D01*
X167947943Y-91074562D01*
X167950881Y-91078663D01*
X168023304Y-91184260D01*
X168499113Y-91878016D01*
X168501884Y-91882238D01*
X169017111Y-92703246D01*
X169019708Y-92707578D01*
X169501073Y-93548879D01*
X169503491Y-93553312D01*
X169950203Y-94413521D01*
X169952439Y-94418050D01*
X170363754Y-95295736D01*
X170365803Y-95300351D01*
X170720097Y-96144181D01*
X170741037Y-96194053D01*
X170742897Y-96198749D01*
X171081429Y-97106990D01*
X171083096Y-97111757D01*
X171304797Y-97789711D01*
X171373984Y-98001285D01*
X171384362Y-98033019D01*
X171385832Y-98037846D01*
X171433534Y-98206703D01*
X171649340Y-98970628D01*
X171650614Y-98975515D01*
X171875924Y-99918265D01*
X171876997Y-99923199D01*
X172063726Y-100874311D01*
X172064598Y-100879286D01*
X172212446Y-101837217D01*
X172213115Y-101842223D01*
X172321835Y-102805400D01*
X172322299Y-102810428D01*
X172391710Y-103777221D01*
X172391969Y-103782265D01*
X172421955Y-104751091D01*
X172422008Y-104756141D01*
X172412519Y-105725360D01*
X172412367Y-105730408D01*
X172363421Y-106698468D01*
X172363063Y-106703505D01*
X172274741Y-107668733D01*
X172274179Y-107673752D01*
X172146621Y-108634630D01*
X172145854Y-108639622D01*
X171979283Y-109594472D01*
X171978314Y-109599428D01*
X171772998Y-110546711D01*
X171771828Y-110551624D01*
X171528110Y-111489765D01*
X171526741Y-111494626D01*
X171245023Y-112422071D01*
X171243457Y-112426872D01*
X170924214Y-113342060D01*
X170922454Y-113346794D01*
X170566206Y-114248231D01*
X170564255Y-114252889D01*
X170171586Y-115139102D01*
X170169446Y-115143676D01*
X169741038Y-116013120D01*
X169738714Y-116017604D01*
X169275251Y-116868896D01*
X169272747Y-116873281D01*
X168775001Y-117705003D01*
X168772320Y-117709283D01*
X168241109Y-118520064D01*
X168238255Y-118524231D01*
X167674504Y-119312661D01*
X167671484Y-119316709D01*
X167076060Y-120081577D01*
X167072877Y-120085498D01*
X166446828Y-120825457D01*
X166443489Y-120829245D01*
X165787801Y-121543128D01*
X165784309Y-121546777D01*
X165100126Y-122233340D01*
X165096489Y-122236844D01*
X164384912Y-122894982D01*
X164381136Y-122898335D01*
X163643330Y-123526971D01*
X163639420Y-123530167D01*
X162876638Y-124128231D01*
X162872601Y-124131265D01*
X162086121Y-124697758D01*
X162081964Y-124700626D01*
X161273037Y-125234645D01*
X161268766Y-125237341D01*
X160438796Y-125737961D01*
X160434420Y-125740481D01*
X159584713Y-126206912D01*
X159580237Y-126209251D01*
X158712295Y-126640670D01*
X158707728Y-126642826D01*
X157822885Y-127038570D01*
X157818234Y-127040537D01*
X156918052Y-127399906D01*
X156913324Y-127401683D01*
X155999227Y-127724110D01*
X155994432Y-127725692D01*
X155067980Y-128010625D01*
X155063123Y-128012011D01*
X154125839Y-128258984D01*
X154120931Y-128260171D01*
X153174379Y-128468771D01*
X153169426Y-128469758D01*
X152215114Y-128639651D01*
X152210125Y-128640434D01*
X151249739Y-128771321D01*
X151244722Y-128771901D01*
X150279781Y-128863576D01*
X150274745Y-128863951D01*
X149306885Y-128916257D01*
X149301837Y-128916427D01*
X148332633Y-128929280D01*
X148327583Y-128929244D01*
X147358680Y-128902622D01*
X147353636Y-128902381D01*
X146386591Y-128836327D01*
X146381560Y-128835880D01*
X145418034Y-128730506D01*
X145413026Y-128729855D01*
X144454562Y-128585331D01*
X144449585Y-128584476D01*
X143497840Y-128401051D01*
X143492902Y-128399995D01*
X142549380Y-128177960D01*
X142544488Y-128176703D01*
X141610802Y-127916437D01*
X141605966Y-127914982D01*
X140683670Y-127616919D01*
X140678897Y-127615269D01*
X139769456Y-127279881D01*
X139764755Y-127278037D01*
X138869781Y-126905919D01*
X138865158Y-126903886D01*
X137986040Y-126495616D01*
X137981504Y-126493396D01*
X137119751Y-126049674D01*
X137115309Y-126047271D01*
X136272342Y-125568829D01*
X136268001Y-125566247D01*
X135445208Y-125053873D01*
X135440977Y-125051117D01*
X134639742Y-124505673D01*
X134635626Y-124502747D01*
X134566489Y-124451441D01*
X134497588Y-124400310D01*
X146918841Y-124400310D01*
X146918841Y-124400311D01*
X147052143Y-124506615D01*
X147289899Y-124656007D01*
X147542882Y-124777837D01*
X147807919Y-124870577D01*
X147807921Y-124870578D01*
X148081675Y-124933060D01*
X148081687Y-124933062D01*
X148360698Y-124964499D01*
X148360700Y-124964500D01*
X148641500Y-124964500D01*
X148641501Y-124964499D01*
X148920512Y-124933062D01*
X148920524Y-124933060D01*
X149194278Y-124870578D01*
X149194280Y-124870577D01*
X149459317Y-124777837D01*
X149712300Y-124656007D01*
X149950056Y-124506616D01*
X150083357Y-124400310D01*
X148501100Y-122818054D01*
X146918841Y-124400310D01*
X134497588Y-124400310D01*
X133857250Y-123925120D01*
X133853256Y-123922028D01*
X133099060Y-123313195D01*
X133095196Y-123309944D01*
X132366385Y-122670879D01*
X132362657Y-122667472D01*
X132092569Y-122410451D01*
X132001826Y-122324098D01*
X146001100Y-122324098D01*
X146001100Y-122604901D01*
X146032537Y-122883912D01*
X146032539Y-122883924D01*
X146095021Y-123157678D01*
X146095022Y-123157680D01*
X146187762Y-123422717D01*
X146309592Y-123675700D01*
X146458984Y-123913456D01*
X146565287Y-124046757D01*
X148147546Y-122464500D01*
X148147545Y-122464499D01*
X148854654Y-122464499D01*
X148854654Y-122464501D01*
X150436910Y-124046757D01*
X150543216Y-123913456D01*
X150692607Y-123675700D01*
X150814437Y-123422717D01*
X150907177Y-123157680D01*
X150907178Y-123157678D01*
X150969660Y-122883924D01*
X150969662Y-122883912D01*
X151001099Y-122604901D01*
X151001100Y-122604899D01*
X151001100Y-122324100D01*
X151001099Y-122324098D01*
X150969662Y-122045087D01*
X150969660Y-122045075D01*
X150907178Y-121771321D01*
X150907177Y-121771319D01*
X150814437Y-121506282D01*
X150692607Y-121253299D01*
X150543215Y-121015543D01*
X150436910Y-120882241D01*
X148854654Y-122464499D01*
X148147545Y-122464499D01*
X146565287Y-120882241D01*
X146458984Y-121015543D01*
X146309592Y-121253299D01*
X146187762Y-121506282D01*
X146095022Y-121771319D01*
X146095021Y-121771321D01*
X146032539Y-122045075D01*
X146032537Y-122045087D01*
X146001100Y-122324098D01*
X132001826Y-122324098D01*
X131660519Y-121999304D01*
X131656932Y-121995749D01*
X130982559Y-121299521D01*
X130979120Y-121295823D01*
X130728936Y-121015543D01*
X130333644Y-120572699D01*
X130330394Y-120568906D01*
X129923852Y-120074311D01*
X131413900Y-120074311D01*
X131413900Y-120316888D01*
X131445561Y-120557385D01*
X131508347Y-120791704D01*
X131601173Y-121015805D01*
X131601176Y-121015812D01*
X131722464Y-121225889D01*
X131722466Y-121225892D01*
X131722467Y-121225893D01*
X131870133Y-121418336D01*
X131870139Y-121418343D01*
X132041656Y-121589860D01*
X132041662Y-121589865D01*
X132234111Y-121737536D01*
X132444188Y-121858824D01*
X132668300Y-121951654D01*
X132902611Y-122014438D01*
X133082986Y-122038184D01*
X133143111Y-122046100D01*
X133143112Y-122046100D01*
X133385689Y-122046100D01*
X133433788Y-122039767D01*
X133626189Y-122014438D01*
X133860500Y-121951654D01*
X134084612Y-121858824D01*
X134294689Y-121737536D01*
X134487138Y-121589865D01*
X134658665Y-121418338D01*
X134806336Y-121225889D01*
X134927624Y-121015812D01*
X135020454Y-120791700D01*
X135083238Y-120557389D01*
X135087017Y-120528687D01*
X146918841Y-120528687D01*
X148501100Y-122110946D01*
X148501101Y-122110946D01*
X150083357Y-120528687D01*
X149950056Y-120422384D01*
X149712300Y-120272992D01*
X149459317Y-120151162D01*
X149194280Y-120058422D01*
X149194278Y-120058421D01*
X148920524Y-119995939D01*
X148920512Y-119995937D01*
X148641501Y-119964500D01*
X148360698Y-119964500D01*
X148081687Y-119995937D01*
X148081675Y-119995939D01*
X147807921Y-120058421D01*
X147807919Y-120058422D01*
X147542882Y-120151162D01*
X147289899Y-120272992D01*
X147052143Y-120422384D01*
X146918841Y-120528687D01*
X135087017Y-120528687D01*
X135114900Y-120316888D01*
X135114900Y-120074312D01*
X135083238Y-119833811D01*
X135020454Y-119599500D01*
X134927624Y-119375388D01*
X134806336Y-119165311D01*
X134754689Y-119098003D01*
X134752201Y-119094760D01*
X134727007Y-119029591D01*
X134741046Y-118961146D01*
X134789860Y-118911156D01*
X134857951Y-118895493D01*
X134866912Y-118896519D01*
X134866918Y-118896472D01*
X135149398Y-118928299D01*
X135149400Y-118928300D01*
X135430200Y-118928300D01*
X135430201Y-118928299D01*
X135709212Y-118896862D01*
X135709224Y-118896860D01*
X135982978Y-118834378D01*
X135982980Y-118834377D01*
X136248017Y-118741637D01*
X136501000Y-118619807D01*
X136738756Y-118470416D01*
X136872057Y-118364110D01*
X135289800Y-116781854D01*
X133730138Y-118341515D01*
X133668815Y-118375000D01*
X133626272Y-118376773D01*
X133626189Y-118376762D01*
X133530086Y-118364110D01*
X133385689Y-118345100D01*
X133385688Y-118345100D01*
X133143112Y-118345100D01*
X133143111Y-118345100D01*
X132902614Y-118376761D01*
X132668295Y-118439547D01*
X132444194Y-118532373D01*
X132444185Y-118532377D01*
X132234106Y-118653667D01*
X132041663Y-118801333D01*
X132041656Y-118801339D01*
X131870139Y-118972856D01*
X131870133Y-118972863D01*
X131722467Y-119165306D01*
X131601177Y-119375385D01*
X131601173Y-119375394D01*
X131508347Y-119599495D01*
X131445561Y-119833814D01*
X131413900Y-120074311D01*
X129923852Y-120074311D01*
X129714857Y-119820049D01*
X129711769Y-119816131D01*
X129127277Y-119042886D01*
X129124318Y-119038801D01*
X129117928Y-119029591D01*
X128571806Y-118242410D01*
X128569015Y-118238208D01*
X128049380Y-117419965D01*
X128046760Y-117415647D01*
X127560889Y-116576951D01*
X127558447Y-116572531D01*
X127556431Y-116568699D01*
X127408690Y-116287898D01*
X132789800Y-116287898D01*
X132789800Y-116568701D01*
X132821237Y-116847712D01*
X132821239Y-116847724D01*
X132883721Y-117121478D01*
X132883722Y-117121480D01*
X132976462Y-117386517D01*
X133098292Y-117639500D01*
X133247684Y-117877256D01*
X133353987Y-118010557D01*
X134936246Y-116428300D01*
X134936245Y-116428299D01*
X135643354Y-116428299D01*
X135643354Y-116428301D01*
X137225610Y-118010557D01*
X137331916Y-117877256D01*
X137481307Y-117639500D01*
X137603137Y-117386517D01*
X137695877Y-117121480D01*
X137695878Y-117121478D01*
X137758360Y-116847724D01*
X137758362Y-116847712D01*
X137789799Y-116568701D01*
X137789800Y-116568699D01*
X137789800Y-116287900D01*
X137789799Y-116287898D01*
X137758362Y-116008887D01*
X137758360Y-116008875D01*
X137695878Y-115735121D01*
X137695877Y-115735119D01*
X137603137Y-115470082D01*
X137481307Y-115217099D01*
X137331915Y-114979343D01*
X137225610Y-114846041D01*
X135643354Y-116428299D01*
X134936245Y-116428299D01*
X133353987Y-114846041D01*
X133247684Y-114979343D01*
X133098292Y-115217099D01*
X132976462Y-115470082D01*
X132883722Y-115735119D01*
X132883721Y-115735121D01*
X132821239Y-116008875D01*
X132821237Y-116008887D01*
X132789800Y-116287898D01*
X127408690Y-116287898D01*
X127107113Y-115714714D01*
X127104858Y-115710207D01*
X126990750Y-115470082D01*
X126757551Y-114979343D01*
X126688841Y-114834752D01*
X126686767Y-114830148D01*
X126584226Y-114589551D01*
X126542858Y-114492487D01*
X133707541Y-114492487D01*
X135289800Y-116074746D01*
X135289801Y-116074746D01*
X136872057Y-114492487D01*
X136738756Y-114386184D01*
X136501000Y-114236792D01*
X136248017Y-114114962D01*
X135982980Y-114022222D01*
X135982978Y-114022221D01*
X135709224Y-113959739D01*
X135709212Y-113959737D01*
X135430201Y-113928300D01*
X135149398Y-113928300D01*
X134870387Y-113959737D01*
X134870375Y-113959739D01*
X134596621Y-114022221D01*
X134596619Y-114022222D01*
X134331582Y-114114962D01*
X134078599Y-114236792D01*
X133840843Y-114386184D01*
X133707541Y-114492487D01*
X126542858Y-114492487D01*
X126438757Y-114248231D01*
X126306730Y-113938452D01*
X126304862Y-113933809D01*
X125961444Y-113027360D01*
X125959768Y-113022648D01*
X125653528Y-112102922D01*
X125652053Y-112098170D01*
X125383535Y-111166793D01*
X125382245Y-111161952D01*
X125151866Y-110220386D01*
X125150774Y-110215489D01*
X125150437Y-110213820D01*
X124966359Y-109302135D01*
X139399500Y-109302135D01*
X139399500Y-113397870D01*
X139399501Y-113397876D01*
X139405908Y-113457483D01*
X139456202Y-113592328D01*
X139456206Y-113592335D01*
X139542452Y-113707544D01*
X139542455Y-113707547D01*
X139664769Y-113799112D01*
X139663070Y-113801381D01*
X139702264Y-113840580D01*
X139717111Y-113908854D01*
X139692690Y-113974317D01*
X139663689Y-113999445D01*
X139664769Y-114000888D01*
X139542455Y-114092452D01*
X139542452Y-114092455D01*
X139456206Y-114207664D01*
X139456202Y-114207671D01*
X139405908Y-114342517D01*
X139401214Y-114386184D01*
X139399501Y-114402123D01*
X139399500Y-114402135D01*
X139399500Y-118497870D01*
X139399501Y-118497876D01*
X139405908Y-118557483D01*
X139456202Y-118692328D01*
X139456206Y-118692335D01*
X139542452Y-118807544D01*
X139542455Y-118807547D01*
X139657664Y-118893793D01*
X139657671Y-118893797D01*
X139792517Y-118944091D01*
X139792516Y-118944091D01*
X139799444Y-118944835D01*
X139852127Y-118950500D01*
X143947872Y-118950499D01*
X144007483Y-118944091D01*
X144142331Y-118893796D01*
X144257546Y-118807546D01*
X144343796Y-118692331D01*
X144394091Y-118557483D01*
X144400500Y-118497873D01*
X144400500Y-118364110D01*
X160130241Y-118364110D01*
X160130241Y-118364111D01*
X160263543Y-118470415D01*
X160501299Y-118619807D01*
X160754282Y-118741637D01*
X161019319Y-118834377D01*
X161019321Y-118834378D01*
X161293075Y-118896860D01*
X161293087Y-118896862D01*
X161572098Y-118928299D01*
X161572100Y-118928300D01*
X161852900Y-118928300D01*
X161852901Y-118928299D01*
X162063394Y-118904583D01*
X162132216Y-118916637D01*
X162183596Y-118963986D01*
X162201220Y-119031597D01*
X162179494Y-119098003D01*
X162175655Y-119103289D01*
X162128064Y-119165311D01*
X162006777Y-119375385D01*
X162006773Y-119375394D01*
X161913947Y-119599495D01*
X161851161Y-119833814D01*
X161819500Y-120074311D01*
X161819500Y-120316888D01*
X161851161Y-120557385D01*
X161913947Y-120791704D01*
X162006773Y-121015805D01*
X162006776Y-121015812D01*
X162128064Y-121225889D01*
X162128066Y-121225892D01*
X162128067Y-121225893D01*
X162275733Y-121418336D01*
X162275739Y-121418343D01*
X162447256Y-121589860D01*
X162447262Y-121589865D01*
X162639711Y-121737536D01*
X162849788Y-121858824D01*
X163073900Y-121951654D01*
X163308211Y-122014438D01*
X163488586Y-122038184D01*
X163548711Y-122046100D01*
X163548712Y-122046100D01*
X163791289Y-122046100D01*
X163839388Y-122039767D01*
X164031789Y-122014438D01*
X164266100Y-121951654D01*
X164490212Y-121858824D01*
X164700289Y-121737536D01*
X164892738Y-121589865D01*
X165064265Y-121418338D01*
X165211936Y-121225889D01*
X165333224Y-121015812D01*
X165426054Y-120791700D01*
X165488838Y-120557389D01*
X165520500Y-120316888D01*
X165520500Y-120074312D01*
X165488838Y-119833811D01*
X165426054Y-119599500D01*
X165333224Y-119375388D01*
X165211936Y-119165311D01*
X165064265Y-118972862D01*
X165064260Y-118972856D01*
X164892743Y-118801339D01*
X164892736Y-118801333D01*
X164700293Y-118653667D01*
X164700292Y-118653666D01*
X164700289Y-118653664D01*
X164490212Y-118532376D01*
X164490205Y-118532373D01*
X164266104Y-118439547D01*
X164031785Y-118376761D01*
X163791289Y-118345100D01*
X163791288Y-118345100D01*
X163548712Y-118345100D01*
X163548711Y-118345100D01*
X163449905Y-118358108D01*
X163368127Y-118368873D01*
X163299093Y-118358108D01*
X163264262Y-118333616D01*
X161712500Y-116781854D01*
X160130241Y-118364110D01*
X144400500Y-118364110D01*
X144400499Y-116287898D01*
X159212500Y-116287898D01*
X159212500Y-116568701D01*
X159243937Y-116847712D01*
X159243939Y-116847724D01*
X159306421Y-117121478D01*
X159306422Y-117121480D01*
X159399162Y-117386517D01*
X159520992Y-117639500D01*
X159670384Y-117877256D01*
X159776687Y-118010557D01*
X161358946Y-116428300D01*
X161358945Y-116428299D01*
X162066054Y-116428299D01*
X162066054Y-116428301D01*
X163648310Y-118010557D01*
X163754616Y-117877256D01*
X163904007Y-117639500D01*
X164025837Y-117386517D01*
X164118577Y-117121480D01*
X164118578Y-117121478D01*
X164181060Y-116847724D01*
X164181062Y-116847712D01*
X164212499Y-116568701D01*
X164212500Y-116568699D01*
X164212500Y-116287900D01*
X164212499Y-116287898D01*
X164181062Y-116008887D01*
X164181060Y-116008875D01*
X164118578Y-115735121D01*
X164118577Y-115735119D01*
X164025837Y-115470082D01*
X163904007Y-115217099D01*
X163754615Y-114979343D01*
X163648310Y-114846041D01*
X162066054Y-116428299D01*
X161358945Y-116428299D01*
X159776687Y-114846041D01*
X159670384Y-114979343D01*
X159520992Y-115217099D01*
X159399162Y-115470082D01*
X159306422Y-115735119D01*
X159306421Y-115735121D01*
X159243939Y-116008875D01*
X159243937Y-116008887D01*
X159212500Y-116287898D01*
X144400499Y-116287898D01*
X144400499Y-114402128D01*
X144394091Y-114342517D01*
X144343796Y-114207669D01*
X144343795Y-114207668D01*
X144343793Y-114207664D01*
X144257547Y-114092455D01*
X144257544Y-114092452D01*
X144135231Y-114000888D01*
X144136930Y-113998617D01*
X144097743Y-113959435D01*
X144082886Y-113891163D01*
X144107298Y-113825697D01*
X144136311Y-113800556D01*
X144135231Y-113799112D01*
X144215136Y-113739293D01*
X144257546Y-113707546D01*
X144343796Y-113592331D01*
X144394091Y-113457483D01*
X144400500Y-113397873D01*
X144400499Y-109302128D01*
X144394091Y-109242517D01*
X144350270Y-109125028D01*
X144343797Y-109107671D01*
X144343793Y-109107664D01*
X144257547Y-108992455D01*
X144257544Y-108992452D01*
X144142335Y-108906206D01*
X144142328Y-108906202D01*
X144007482Y-108855908D01*
X144007483Y-108855908D01*
X143947883Y-108849501D01*
X143947881Y-108849500D01*
X143947873Y-108849500D01*
X143947864Y-108849500D01*
X139852129Y-108849500D01*
X139852123Y-108849501D01*
X139792516Y-108855908D01*
X139657671Y-108906202D01*
X139657664Y-108906206D01*
X139542455Y-108992452D01*
X139542452Y-108992455D01*
X139456206Y-109107664D01*
X139456202Y-109107671D01*
X139405908Y-109242517D01*
X139399501Y-109302116D01*
X139399501Y-109302123D01*
X139399500Y-109302135D01*
X124966359Y-109302135D01*
X124958929Y-109265335D01*
X124958048Y-109260464D01*
X124805047Y-108303264D01*
X124804353Y-108298265D01*
X124762989Y-107948668D01*
X124690462Y-107335686D01*
X124689973Y-107330678D01*
X124688912Y-107316937D01*
X124659769Y-106939410D01*
X146918841Y-106939410D01*
X146918841Y-106939411D01*
X147052143Y-107045715D01*
X147289899Y-107195107D01*
X147542882Y-107316937D01*
X147807919Y-107409677D01*
X147807921Y-107409678D01*
X148081675Y-107472160D01*
X148081687Y-107472162D01*
X148360698Y-107503599D01*
X148360700Y-107503600D01*
X148641500Y-107503600D01*
X148641501Y-107503599D01*
X148920512Y-107472162D01*
X148920524Y-107472160D01*
X149194278Y-107409678D01*
X149194280Y-107409677D01*
X149459317Y-107316937D01*
X149712300Y-107195107D01*
X149950056Y-107045716D01*
X150083357Y-106939410D01*
X148501100Y-105357154D01*
X146918841Y-106939410D01*
X124659769Y-106939410D01*
X124615372Y-106364262D01*
X124615087Y-106359231D01*
X124614106Y-106332239D01*
X124579899Y-105390596D01*
X124579819Y-105385551D01*
X124582128Y-104863198D01*
X146001100Y-104863198D01*
X146001100Y-105144001D01*
X146032537Y-105423012D01*
X146032539Y-105423024D01*
X146095021Y-105696778D01*
X146095022Y-105696780D01*
X146187762Y-105961817D01*
X146309592Y-106214800D01*
X146458984Y-106452556D01*
X146565287Y-106585857D01*
X148147546Y-105003600D01*
X146565287Y-103421341D01*
X146458984Y-103554643D01*
X146309592Y-103792399D01*
X146187762Y-104045382D01*
X146095022Y-104310419D01*
X146095021Y-104310421D01*
X146032539Y-104584175D01*
X146032537Y-104584187D01*
X146001100Y-104863198D01*
X124582128Y-104863198D01*
X124584103Y-104416231D01*
X124584225Y-104411264D01*
X124617865Y-103666710D01*
X129715641Y-103666710D01*
X129715641Y-103666711D01*
X129848943Y-103773015D01*
X130086699Y-103922407D01*
X130339682Y-104044237D01*
X130604719Y-104136977D01*
X130604721Y-104136978D01*
X130878475Y-104199460D01*
X130878487Y-104199462D01*
X131157498Y-104230899D01*
X131157500Y-104230900D01*
X131438300Y-104230900D01*
X131438301Y-104230899D01*
X131717312Y-104199462D01*
X131717324Y-104199460D01*
X131991078Y-104136978D01*
X131991080Y-104136977D01*
X132256117Y-104044237D01*
X132509100Y-103922407D01*
X132746856Y-103773016D01*
X132880157Y-103666710D01*
X131297900Y-102084454D01*
X129715641Y-103666710D01*
X124617865Y-103666710D01*
X124627978Y-103442893D01*
X124628308Y-103437877D01*
X124639046Y-103313157D01*
X124711448Y-102472154D01*
X124711983Y-102467145D01*
X124717540Y-102423493D01*
X124823573Y-101590498D01*
X128797900Y-101590498D01*
X128797900Y-101871301D01*
X128829337Y-102150312D01*
X128829339Y-102150324D01*
X128891821Y-102424078D01*
X128891822Y-102424080D01*
X128984562Y-102689117D01*
X129106392Y-102942100D01*
X129255784Y-103179856D01*
X129362087Y-103313157D01*
X130944346Y-101730900D01*
X130944345Y-101730899D01*
X131651454Y-101730899D01*
X131651454Y-101730901D01*
X133233710Y-103313157D01*
X133340016Y-103179856D01*
X133489407Y-102942100D01*
X133611237Y-102689117D01*
X133703977Y-102424080D01*
X133703978Y-102424078D01*
X133766460Y-102150324D01*
X133766462Y-102150312D01*
X133797899Y-101871301D01*
X133797900Y-101871299D01*
X133797900Y-101590500D01*
X133797899Y-101590498D01*
X133766462Y-101311487D01*
X133766460Y-101311475D01*
X133703978Y-101037721D01*
X133703977Y-101037719D01*
X133611237Y-100772682D01*
X133489407Y-100519699D01*
X133340015Y-100281943D01*
X133233710Y-100148641D01*
X131651454Y-101730899D01*
X130944345Y-101730899D01*
X129362087Y-100148641D01*
X129255784Y-100281943D01*
X129106392Y-100519699D01*
X128984562Y-100772682D01*
X128891822Y-101037719D01*
X128891821Y-101037721D01*
X128829339Y-101311475D01*
X128829337Y-101311487D01*
X128797900Y-101590498D01*
X124823573Y-101590498D01*
X124834379Y-101505607D01*
X124835107Y-101500683D01*
X124996564Y-100544862D01*
X124997504Y-100539920D01*
X124998813Y-100533720D01*
X125154757Y-99795087D01*
X129715641Y-99795087D01*
X131297900Y-101377346D01*
X131297901Y-101377346D01*
X132880157Y-99795087D01*
X132746856Y-99688784D01*
X132509100Y-99539392D01*
X132256117Y-99417562D01*
X131991080Y-99324822D01*
X131991078Y-99324821D01*
X131717324Y-99262339D01*
X131717312Y-99262337D01*
X131438301Y-99230900D01*
X131157498Y-99230900D01*
X130878487Y-99262337D01*
X130878475Y-99262339D01*
X130604721Y-99324821D01*
X130604719Y-99324822D01*
X130339682Y-99417562D01*
X130086699Y-99539392D01*
X129848943Y-99688784D01*
X129715641Y-99795087D01*
X125154757Y-99795087D01*
X125197726Y-99591565D01*
X125198868Y-99586653D01*
X125406058Y-98771153D01*
X134647100Y-98771153D01*
X134647100Y-98928846D01*
X134677861Y-99083489D01*
X134677864Y-99083501D01*
X134738202Y-99229172D01*
X134738209Y-99229185D01*
X134825810Y-99360288D01*
X134825813Y-99360292D01*
X134937307Y-99471786D01*
X134937311Y-99471789D01*
X135068414Y-99559390D01*
X135068427Y-99559397D01*
X135214098Y-99619735D01*
X135214103Y-99619737D01*
X135368753Y-99650499D01*
X135368756Y-99650500D01*
X135368758Y-99650500D01*
X135526444Y-99650500D01*
X135526445Y-99650499D01*
X135681097Y-99619737D01*
X135826779Y-99559394D01*
X135890970Y-99516503D01*
X135958475Y-99471398D01*
X136025153Y-99450520D01*
X136027366Y-99450500D01*
X136749903Y-99450500D01*
X136779343Y-99459144D01*
X136809330Y-99465668D01*
X136814345Y-99469422D01*
X136816942Y-99470185D01*
X136837584Y-99486819D01*
X137013181Y-99662416D01*
X137046666Y-99723739D01*
X137049500Y-99750097D01*
X137049500Y-99998381D01*
X137049499Y-99998399D01*
X137049499Y-100164105D01*
X137049498Y-100164105D01*
X137049499Y-100164108D01*
X137090423Y-100316836D01*
X137115862Y-100360897D01*
X137147966Y-100416503D01*
X137169479Y-100453765D01*
X137169481Y-100453768D01*
X137288349Y-100572636D01*
X137288355Y-100572641D01*
X137732774Y-101017060D01*
X137766259Y-101078383D01*
X137766710Y-101080549D01*
X137797610Y-101235891D01*
X137797613Y-101235901D01*
X137857951Y-101381572D01*
X137857958Y-101381585D01*
X137945559Y-101512688D01*
X137945562Y-101512692D01*
X138057056Y-101624186D01*
X138057060Y-101624189D01*
X138188163Y-101711790D01*
X138188176Y-101711797D01*
X138333847Y-101772135D01*
X138333852Y-101772137D01*
X138488502Y-101802899D01*
X138488505Y-101802900D01*
X138488507Y-101802900D01*
X138646193Y-101802900D01*
X138646194Y-101802899D01*
X138800846Y-101772137D01*
X138946528Y-101711794D01*
X139077638Y-101624189D01*
X139189138Y-101512689D01*
X139276743Y-101381579D01*
X139337086Y-101235897D01*
X139367849Y-101081242D01*
X139367849Y-100923558D01*
X139367849Y-100923555D01*
X139367848Y-100923553D01*
X139364534Y-100906894D01*
X139337086Y-100768903D01*
X139322211Y-100732991D01*
X139276746Y-100623227D01*
X139276739Y-100623214D01*
X139223403Y-100543391D01*
X139202525Y-100476713D01*
X139221010Y-100409333D01*
X139272988Y-100362643D01*
X139326505Y-100350500D01*
X140470234Y-100350500D01*
X140537273Y-100370185D01*
X140539125Y-100371398D01*
X140670814Y-100459390D01*
X140670827Y-100459397D01*
X140749807Y-100492111D01*
X140816503Y-100519737D01*
X140886810Y-100533721D01*
X140948718Y-100566105D01*
X140976227Y-100611076D01*
X140977932Y-100610370D01*
X141040602Y-100761672D01*
X141040609Y-100761685D01*
X141128210Y-100892788D01*
X141128213Y-100892792D01*
X141239707Y-101004286D01*
X141239711Y-101004289D01*
X141370814Y-101091890D01*
X141370827Y-101091897D01*
X141516498Y-101152235D01*
X141516503Y-101152237D01*
X141671153Y-101182999D01*
X141671156Y-101183000D01*
X141671158Y-101183000D01*
X141828844Y-101183000D01*
X141828845Y-101182999D01*
X141983497Y-101152237D01*
X142129179Y-101091894D01*
X142260289Y-101004289D01*
X142371789Y-100892789D01*
X142459394Y-100761679D01*
X142519737Y-100615997D01*
X142521460Y-100607329D01*
X142553841Y-100545420D01*
X142555337Y-100543896D01*
X142912416Y-100186819D01*
X142973739Y-100153334D01*
X143000097Y-100150500D01*
X147075576Y-100150500D01*
X147142615Y-100170185D01*
X147188370Y-100222989D01*
X147198314Y-100292147D01*
X147190137Y-100321952D01*
X147130264Y-100466498D01*
X147130261Y-100466510D01*
X147099500Y-100621153D01*
X147099500Y-100778846D01*
X147130261Y-100933489D01*
X147130264Y-100933501D01*
X147190602Y-101079172D01*
X147190609Y-101079185D01*
X147278210Y-101210288D01*
X147278213Y-101210292D01*
X147389707Y-101321786D01*
X147389711Y-101321789D01*
X147520814Y-101409390D01*
X147520827Y-101409397D01*
X147607429Y-101445268D01*
X147666503Y-101469737D01*
X147821153Y-101500499D01*
X147821156Y-101500500D01*
X147821158Y-101500500D01*
X147978844Y-101500500D01*
X147978845Y-101500499D01*
X148133497Y-101469737D01*
X148174538Y-101452736D01*
X148244006Y-101445268D01*
X148306485Y-101476542D01*
X148309671Y-101479617D01*
X149192224Y-102362170D01*
X149225709Y-102423493D01*
X149220725Y-102493185D01*
X149178853Y-102549118D01*
X149113389Y-102573535D01*
X149076951Y-102570742D01*
X148920528Y-102535039D01*
X148920512Y-102535037D01*
X148641501Y-102503600D01*
X148360698Y-102503600D01*
X148081687Y-102535037D01*
X148081675Y-102535039D01*
X147807921Y-102597521D01*
X147807919Y-102597522D01*
X147542882Y-102690262D01*
X147289899Y-102812092D01*
X147052143Y-102961484D01*
X146918841Y-103067787D01*
X148677877Y-104826823D01*
X150436910Y-106585857D01*
X150543216Y-106452556D01*
X150692607Y-106214800D01*
X150814437Y-105961817D01*
X150907177Y-105696780D01*
X150907178Y-105696778D01*
X150969660Y-105423024D01*
X150969662Y-105423012D01*
X151001099Y-105144001D01*
X151001100Y-105143999D01*
X151001100Y-104863200D01*
X151001099Y-104863198D01*
X150969662Y-104584187D01*
X150969660Y-104584175D01*
X150933957Y-104427749D01*
X150938230Y-104358010D01*
X150979529Y-104301652D01*
X151044740Y-104276569D01*
X151113161Y-104290723D01*
X151142529Y-104312475D01*
X154609781Y-107779727D01*
X154643266Y-107841050D01*
X154646100Y-107867408D01*
X154646100Y-113361945D01*
X154626415Y-113428984D01*
X154625203Y-113430835D01*
X154607708Y-113457017D01*
X154607702Y-113457028D01*
X154547364Y-113602698D01*
X154547361Y-113602710D01*
X154516600Y-113757353D01*
X154516600Y-113915046D01*
X154547361Y-114069689D01*
X154547364Y-114069701D01*
X154607702Y-114215372D01*
X154607709Y-114215385D01*
X154695310Y-114346488D01*
X154695313Y-114346492D01*
X154806807Y-114457986D01*
X154806811Y-114457989D01*
X154937914Y-114545590D01*
X154937927Y-114545597D01*
X155044043Y-114589551D01*
X155083603Y-114605937D01*
X155238253Y-114636699D01*
X155238256Y-114636700D01*
X155238258Y-114636700D01*
X155395944Y-114636700D01*
X155395945Y-114636699D01*
X155550597Y-114605937D01*
X155696279Y-114545594D01*
X155748210Y-114510894D01*
X155814885Y-114490016D01*
X155882265Y-114508500D01*
X155885963Y-114510876D01*
X155937921Y-114545594D01*
X155937923Y-114545595D01*
X155937925Y-114545596D01*
X156044043Y-114589551D01*
X156083603Y-114605937D01*
X156238253Y-114636699D01*
X156238256Y-114636700D01*
X156238258Y-114636700D01*
X156395944Y-114636700D01*
X156395945Y-114636699D01*
X156550597Y-114605937D01*
X156696279Y-114545594D01*
X156748210Y-114510894D01*
X156814885Y-114490016D01*
X156882265Y-114508500D01*
X156885963Y-114510876D01*
X156937921Y-114545594D01*
X156937923Y-114545595D01*
X156937925Y-114545596D01*
X157044043Y-114589551D01*
X157083603Y-114605937D01*
X157238253Y-114636699D01*
X157238256Y-114636700D01*
X157238258Y-114636700D01*
X157395944Y-114636700D01*
X157395945Y-114636699D01*
X157550597Y-114605937D01*
X157696279Y-114545594D01*
X157775759Y-114492487D01*
X160130241Y-114492487D01*
X161712500Y-116074746D01*
X161712501Y-116074746D01*
X163294757Y-114492487D01*
X163161456Y-114386184D01*
X162923700Y-114236792D01*
X162670717Y-114114962D01*
X162405680Y-114022222D01*
X162405678Y-114022221D01*
X162131924Y-113959739D01*
X162131912Y-113959737D01*
X161852901Y-113928300D01*
X161572098Y-113928300D01*
X161293087Y-113959737D01*
X161293075Y-113959739D01*
X161019321Y-114022221D01*
X161019319Y-114022222D01*
X160754282Y-114114962D01*
X160501299Y-114236792D01*
X160263543Y-114386184D01*
X160130241Y-114492487D01*
X157775759Y-114492487D01*
X157827389Y-114457989D01*
X157827392Y-114457986D01*
X157832126Y-114453253D01*
X157938886Y-114346492D01*
X157938889Y-114346489D01*
X158026494Y-114215379D01*
X158086837Y-114069697D01*
X158117600Y-113915042D01*
X158117600Y-113757358D01*
X158117600Y-113757355D01*
X158117599Y-113757353D01*
X158107691Y-113707544D01*
X158086837Y-113602703D01*
X158086835Y-113602698D01*
X158026497Y-113457027D01*
X158026490Y-113457014D01*
X157938498Y-113325325D01*
X157917620Y-113258647D01*
X157917600Y-113256434D01*
X157917600Y-109124983D01*
X160274500Y-109124983D01*
X160274500Y-111475001D01*
X160274501Y-111475018D01*
X160285000Y-111577796D01*
X160285001Y-111577799D01*
X160340115Y-111744119D01*
X160340186Y-111744334D01*
X160432288Y-111893656D01*
X160556344Y-112017712D01*
X160705666Y-112109814D01*
X160872203Y-112164999D01*
X160974991Y-112175500D01*
X163325008Y-112175499D01*
X163427797Y-112164999D01*
X163594334Y-112109814D01*
X163743656Y-112017712D01*
X163867712Y-111893656D01*
X163959814Y-111744334D01*
X164014999Y-111577797D01*
X164025500Y-111475009D01*
X164025499Y-110220418D01*
X164025499Y-109125013D01*
X164575000Y-109125013D01*
X164575000Y-110050000D01*
X165607586Y-110050000D01*
X165575000Y-110213820D01*
X165575000Y-110386180D01*
X165607586Y-110550000D01*
X164575001Y-110550000D01*
X164575001Y-111474986D01*
X164585494Y-111577697D01*
X164640641Y-111744119D01*
X164640643Y-111744124D01*
X164732684Y-111893345D01*
X164856654Y-112017315D01*
X165005875Y-112109356D01*
X165005880Y-112109358D01*
X165172302Y-112164505D01*
X165172309Y-112164506D01*
X165275019Y-112174999D01*
X166199999Y-112174999D01*
X166200000Y-112174998D01*
X166200000Y-111142413D01*
X166363820Y-111175000D01*
X166536180Y-111175000D01*
X166700000Y-111142413D01*
X166700000Y-112174999D01*
X167624972Y-112174999D01*
X167624986Y-112174998D01*
X167727697Y-112164505D01*
X167894119Y-112109358D01*
X167894124Y-112109356D01*
X168043345Y-112017315D01*
X168167315Y-111893345D01*
X168259356Y-111744124D01*
X168259358Y-111744119D01*
X168314505Y-111577697D01*
X168314506Y-111577690D01*
X168324999Y-111474986D01*
X168325000Y-111474973D01*
X168325000Y-110550000D01*
X167292414Y-110550000D01*
X167325000Y-110386180D01*
X167325000Y-110213820D01*
X167292414Y-110050000D01*
X168324999Y-110050000D01*
X168324999Y-109125028D01*
X168324998Y-109125013D01*
X168314505Y-109022302D01*
X168259358Y-108855880D01*
X168259356Y-108855875D01*
X168167315Y-108706654D01*
X168043345Y-108582684D01*
X167894124Y-108490643D01*
X167894119Y-108490641D01*
X167727697Y-108435494D01*
X167727690Y-108435493D01*
X167624986Y-108425000D01*
X166700000Y-108425000D01*
X166700000Y-109457586D01*
X166536180Y-109425000D01*
X166363820Y-109425000D01*
X166200000Y-109457586D01*
X166200000Y-108425000D01*
X165275028Y-108425000D01*
X165275012Y-108425001D01*
X165172302Y-108435494D01*
X165005880Y-108490641D01*
X165005875Y-108490643D01*
X164856654Y-108582684D01*
X164732684Y-108706654D01*
X164640643Y-108855875D01*
X164640641Y-108855880D01*
X164585494Y-109022302D01*
X164585493Y-109022309D01*
X164575000Y-109125013D01*
X164025499Y-109125013D01*
X164025499Y-109124998D01*
X164025498Y-109124981D01*
X164014999Y-109022203D01*
X164014998Y-109022200D01*
X163976561Y-108906206D01*
X163959814Y-108855666D01*
X163867712Y-108706344D01*
X163743656Y-108582288D01*
X163594334Y-108490186D01*
X163427797Y-108435001D01*
X163427795Y-108435000D01*
X163325010Y-108424500D01*
X160974998Y-108424500D01*
X160974981Y-108424501D01*
X160872203Y-108435000D01*
X160872200Y-108435001D01*
X160705668Y-108490185D01*
X160705663Y-108490187D01*
X160556342Y-108582289D01*
X160432289Y-108706342D01*
X160340187Y-108855663D01*
X160340185Y-108855668D01*
X160340105Y-108855909D01*
X160285001Y-109022203D01*
X160285001Y-109022204D01*
X160285000Y-109022204D01*
X160274500Y-109124983D01*
X157917600Y-109124983D01*
X157917600Y-106906159D01*
X157917601Y-106906146D01*
X157917601Y-106738045D01*
X157917601Y-106738043D01*
X157876677Y-106585315D01*
X157847739Y-106535195D01*
X157797620Y-106448384D01*
X157685816Y-106336580D01*
X157685815Y-106336579D01*
X157681485Y-106332249D01*
X157681474Y-106332239D01*
X155015945Y-103666710D01*
X164122141Y-103666710D01*
X164122141Y-103666711D01*
X164255443Y-103773015D01*
X164493199Y-103922407D01*
X164746182Y-104044237D01*
X165011219Y-104136977D01*
X165011221Y-104136978D01*
X165284975Y-104199460D01*
X165284987Y-104199462D01*
X165563998Y-104230899D01*
X165564000Y-104230900D01*
X165844800Y-104230900D01*
X165844801Y-104230899D01*
X166123812Y-104199462D01*
X166123824Y-104199460D01*
X166397578Y-104136978D01*
X166397580Y-104136977D01*
X166662617Y-104044237D01*
X166915600Y-103922407D01*
X167153356Y-103773016D01*
X167286657Y-103666710D01*
X165704400Y-102084454D01*
X164122141Y-103666710D01*
X155015945Y-103666710D01*
X152458906Y-101109671D01*
X152451749Y-101096564D01*
X152440699Y-101086517D01*
X152435342Y-101066517D01*
X152425421Y-101048348D01*
X152426184Y-101032328D01*
X152422622Y-101019026D01*
X152428042Y-100993383D01*
X152428479Y-100984221D01*
X152430046Y-100979318D01*
X152469737Y-100883497D01*
X152484627Y-100808636D01*
X152486767Y-100801947D01*
X152502574Y-100778596D01*
X152515643Y-100753614D01*
X152521899Y-100750051D01*
X152525936Y-100744089D01*
X152551857Y-100732991D01*
X152576358Y-100719040D01*
X152583546Y-100719425D01*
X152590167Y-100716591D01*
X152617975Y-100721270D01*
X152646128Y-100722779D01*
X152653118Y-100727183D01*
X152659068Y-100728185D01*
X152668913Y-100737136D01*
X152683946Y-100746609D01*
X152685001Y-100745324D01*
X152689711Y-100749189D01*
X152820814Y-100836790D01*
X152820827Y-100836797D01*
X152956006Y-100892789D01*
X152966503Y-100897137D01*
X153121153Y-100927899D01*
X153121156Y-100927900D01*
X153121158Y-100927900D01*
X153278844Y-100927900D01*
X153278845Y-100927899D01*
X153433497Y-100897137D01*
X153579179Y-100836794D01*
X153579181Y-100836792D01*
X153579267Y-100836757D01*
X153648737Y-100829288D01*
X153711216Y-100860563D01*
X153714401Y-100863637D01*
X154031284Y-101180520D01*
X154031286Y-101180521D01*
X154031290Y-101180524D01*
X154168209Y-101259573D01*
X154168216Y-101259577D01*
X154320943Y-101300501D01*
X154320945Y-101300501D01*
X154486654Y-101300501D01*
X154486670Y-101300500D01*
X154788573Y-101300500D01*
X154855612Y-101320185D01*
X154891675Y-101355610D01*
X154928207Y-101410284D01*
X154928213Y-101410292D01*
X155039707Y-101521786D01*
X155039711Y-101521789D01*
X155170814Y-101609390D01*
X155170827Y-101609397D01*
X155316498Y-101669735D01*
X155316503Y-101669737D01*
X155471153Y-101700499D01*
X155471156Y-101700500D01*
X155471158Y-101700500D01*
X155628844Y-101700500D01*
X155628845Y-101700499D01*
X155783497Y-101669737D01*
X155929179Y-101609394D01*
X155957459Y-101590498D01*
X163204400Y-101590498D01*
X163204400Y-101871301D01*
X163235837Y-102150312D01*
X163235839Y-102150324D01*
X163298321Y-102424078D01*
X163298322Y-102424080D01*
X163391062Y-102689117D01*
X163512892Y-102942100D01*
X163662284Y-103179856D01*
X163768587Y-103313157D01*
X165350846Y-101730900D01*
X165350845Y-101730899D01*
X166057954Y-101730899D01*
X166057954Y-101730901D01*
X167640210Y-103313157D01*
X167746516Y-103179856D01*
X167895907Y-102942100D01*
X168017737Y-102689117D01*
X168110477Y-102424080D01*
X168110478Y-102424078D01*
X168172960Y-102150324D01*
X168172962Y-102150312D01*
X168204399Y-101871301D01*
X168204400Y-101871299D01*
X168204400Y-101590500D01*
X168204399Y-101590498D01*
X168172962Y-101311487D01*
X168172960Y-101311475D01*
X168110478Y-101037721D01*
X168110477Y-101037719D01*
X168017737Y-100772682D01*
X167895907Y-100519699D01*
X167746515Y-100281943D01*
X167640210Y-100148641D01*
X166057954Y-101730899D01*
X165350845Y-101730899D01*
X163768587Y-100148641D01*
X163662284Y-100281943D01*
X163512892Y-100519699D01*
X163391062Y-100772682D01*
X163298322Y-101037719D01*
X163298321Y-101037721D01*
X163235839Y-101311475D01*
X163235837Y-101311487D01*
X163204400Y-101590498D01*
X155957459Y-101590498D01*
X156060289Y-101521789D01*
X156069390Y-101512688D01*
X156082736Y-101499343D01*
X156171786Y-101410292D01*
X156171789Y-101410289D01*
X156259394Y-101279179D01*
X156319737Y-101133497D01*
X156350500Y-100978842D01*
X156350500Y-100922000D01*
X156370185Y-100854961D01*
X156422989Y-100809206D01*
X156474500Y-100798000D01*
X158820234Y-100798000D01*
X158887273Y-100817685D01*
X158889125Y-100818898D01*
X159020814Y-100906890D01*
X159020827Y-100906897D01*
X159085056Y-100933501D01*
X159166503Y-100967237D01*
X159297947Y-100993383D01*
X159321153Y-100997999D01*
X159321156Y-100998000D01*
X159321158Y-100998000D01*
X159478844Y-100998000D01*
X159478845Y-100997999D01*
X159633497Y-100967237D01*
X159779179Y-100906894D01*
X159910289Y-100819289D01*
X160021789Y-100707789D01*
X160109394Y-100576679D01*
X160169737Y-100430997D01*
X160200500Y-100276342D01*
X160200500Y-100118658D01*
X160200500Y-100118655D01*
X160200499Y-100118653D01*
X160169737Y-99964003D01*
X160128762Y-99865079D01*
X160109397Y-99818327D01*
X160109390Y-99818314D01*
X160093870Y-99795087D01*
X164122141Y-99795087D01*
X165704400Y-101377346D01*
X165704401Y-101377346D01*
X167286657Y-99795087D01*
X167153356Y-99688784D01*
X166915600Y-99539392D01*
X166662617Y-99417562D01*
X166397580Y-99324822D01*
X166397578Y-99324821D01*
X166123824Y-99262339D01*
X166123812Y-99262337D01*
X165844801Y-99230900D01*
X165563998Y-99230900D01*
X165284987Y-99262337D01*
X165284975Y-99262339D01*
X165011221Y-99324821D01*
X165011219Y-99324822D01*
X164746182Y-99417562D01*
X164493199Y-99539392D01*
X164255443Y-99688784D01*
X164122141Y-99795087D01*
X160093870Y-99795087D01*
X160021789Y-99687211D01*
X160021786Y-99687207D01*
X159910292Y-99575713D01*
X159910288Y-99575710D01*
X159779185Y-99488109D01*
X159779172Y-99488102D01*
X159633501Y-99427764D01*
X159633489Y-99427761D01*
X159478845Y-99397000D01*
X159478842Y-99397000D01*
X159321158Y-99397000D01*
X159321157Y-99397000D01*
X159292739Y-99402652D01*
X159223148Y-99396423D01*
X159167972Y-99353559D01*
X159153990Y-99328486D01*
X159109397Y-99220827D01*
X159109390Y-99220814D01*
X159021789Y-99089711D01*
X159021786Y-99089707D01*
X158910292Y-98978213D01*
X158910288Y-98978210D01*
X158779185Y-98890609D01*
X158779172Y-98890602D01*
X158633501Y-98830264D01*
X158633489Y-98830261D01*
X158478845Y-98799500D01*
X158478842Y-98799500D01*
X158321158Y-98799500D01*
X158321155Y-98799500D01*
X158166510Y-98830261D01*
X158166498Y-98830264D01*
X158020827Y-98890602D01*
X158020814Y-98890609D01*
X157889125Y-98978602D01*
X157822447Y-98999480D01*
X157820234Y-98999500D01*
X156500098Y-98999500D01*
X156433059Y-98979815D01*
X156412417Y-98963181D01*
X155734573Y-98285337D01*
X155701088Y-98224014D01*
X155700637Y-98221847D01*
X155687526Y-98155935D01*
X155669737Y-98066503D01*
X155634602Y-97981679D01*
X155609397Y-97920827D01*
X155609390Y-97920814D01*
X155521789Y-97789711D01*
X155521786Y-97789707D01*
X155410292Y-97678213D01*
X155410288Y-97678210D01*
X155279185Y-97590609D01*
X155279172Y-97590602D01*
X155133501Y-97530264D01*
X155133489Y-97530261D01*
X154978845Y-97499500D01*
X154978842Y-97499500D01*
X154821158Y-97499500D01*
X154821155Y-97499500D01*
X154666510Y-97530261D01*
X154666498Y-97530264D01*
X154520827Y-97590602D01*
X154520814Y-97590609D01*
X154389711Y-97678210D01*
X154389707Y-97678213D01*
X154278213Y-97789707D01*
X154278210Y-97789711D01*
X154190609Y-97920814D01*
X154190602Y-97920827D01*
X154130264Y-98066498D01*
X154130261Y-98066510D01*
X154099500Y-98221153D01*
X154099500Y-98378846D01*
X154130261Y-98533489D01*
X154130264Y-98533501D01*
X154190602Y-98679172D01*
X154190609Y-98679184D01*
X154242343Y-98756609D01*
X154263221Y-98823286D01*
X154244737Y-98890666D01*
X154192758Y-98937357D01*
X154139241Y-98949500D01*
X142786669Y-98949500D01*
X142786653Y-98949499D01*
X142779057Y-98949499D01*
X142620943Y-98949499D01*
X142523852Y-98975515D01*
X142468214Y-98990423D01*
X142443809Y-99004514D01*
X142443808Y-99004514D01*
X142331287Y-99069477D01*
X142331282Y-99069481D01*
X142219478Y-99181286D01*
X141969860Y-99430903D01*
X141908537Y-99464388D01*
X141838845Y-99459404D01*
X141782912Y-99417532D01*
X141767618Y-99390675D01*
X141759395Y-99370823D01*
X141759390Y-99370814D01*
X141671789Y-99239711D01*
X141671786Y-99239707D01*
X141560292Y-99128213D01*
X141560288Y-99128210D01*
X141429185Y-99040609D01*
X141429172Y-99040602D01*
X141283501Y-98980264D01*
X141283489Y-98980261D01*
X141128845Y-98949500D01*
X141128842Y-98949500D01*
X140971158Y-98949500D01*
X140971155Y-98949500D01*
X140816510Y-98980261D01*
X140816498Y-98980264D01*
X140670827Y-99040602D01*
X140670814Y-99040609D01*
X140539125Y-99128602D01*
X140472447Y-99149480D01*
X140470234Y-99149500D01*
X138758014Y-99149500D01*
X138690975Y-99129815D01*
X138670333Y-99113181D01*
X137894125Y-98336973D01*
X137860640Y-98275650D01*
X137857806Y-98249292D01*
X137857806Y-98155932D01*
X137857805Y-98155930D01*
X137840016Y-98066498D01*
X137827043Y-98001280D01*
X137793713Y-97920814D01*
X137766703Y-97855604D01*
X137766696Y-97855591D01*
X137679095Y-97724488D01*
X137679092Y-97724484D01*
X137567598Y-97612990D01*
X137567594Y-97612987D01*
X137436491Y-97525386D01*
X137436478Y-97525379D01*
X137290807Y-97465041D01*
X137290795Y-97465038D01*
X137136151Y-97434277D01*
X137136148Y-97434277D01*
X136978464Y-97434277D01*
X136978461Y-97434277D01*
X136823816Y-97465038D01*
X136823804Y-97465041D01*
X136678133Y-97525379D01*
X136678120Y-97525386D01*
X136547017Y-97612987D01*
X136547013Y-97612990D01*
X136435519Y-97724484D01*
X136435516Y-97724488D01*
X136347915Y-97855591D01*
X136347908Y-97855604D01*
X136287570Y-98001275D01*
X136287567Y-98001285D01*
X136258047Y-98149692D01*
X136243332Y-98177822D01*
X136230143Y-98206703D01*
X136227253Y-98208559D01*
X136225662Y-98211603D01*
X136198069Y-98227315D01*
X136171365Y-98244477D01*
X136166771Y-98245137D01*
X136164946Y-98246177D01*
X136136430Y-98249500D01*
X136027366Y-98249500D01*
X135960327Y-98229815D01*
X135958475Y-98228602D01*
X135826785Y-98140609D01*
X135826772Y-98140602D01*
X135681101Y-98080264D01*
X135681089Y-98080261D01*
X135526445Y-98049500D01*
X135526442Y-98049500D01*
X135368758Y-98049500D01*
X135368755Y-98049500D01*
X135214110Y-98080261D01*
X135214098Y-98080264D01*
X135068427Y-98140602D01*
X135068414Y-98140609D01*
X134937311Y-98228210D01*
X134937307Y-98228213D01*
X134825813Y-98339707D01*
X134825810Y-98339711D01*
X134738209Y-98470814D01*
X134738202Y-98470827D01*
X134677864Y-98616498D01*
X134677861Y-98616510D01*
X134647100Y-98771153D01*
X125406058Y-98771153D01*
X125437560Y-98647162D01*
X125438882Y-98642369D01*
X125715632Y-97713374D01*
X125717155Y-97708618D01*
X126031502Y-96791662D01*
X126033231Y-96786937D01*
X126159158Y-96463221D01*
X126384641Y-95883577D01*
X126386542Y-95878970D01*
X126774468Y-94990615D01*
X126776552Y-94986097D01*
X127200322Y-94114290D01*
X127202600Y-94109838D01*
X127661516Y-93256011D01*
X127663954Y-93251689D01*
X127775274Y-93063389D01*
X138299500Y-93063389D01*
X138299500Y-93186610D01*
X138323535Y-93307444D01*
X138323538Y-93307454D01*
X138370687Y-93421283D01*
X138370692Y-93421292D01*
X138439141Y-93523732D01*
X138439144Y-93523736D01*
X138526263Y-93610855D01*
X138526267Y-93610858D01*
X138628707Y-93679307D01*
X138628713Y-93679310D01*
X138628714Y-93679311D01*
X138742548Y-93726463D01*
X138824693Y-93742802D01*
X138886603Y-93775186D01*
X138921177Y-93835901D01*
X138924501Y-93864419D01*
X138924501Y-93972876D01*
X138930908Y-94032483D01*
X138981202Y-94167328D01*
X138981206Y-94167335D01*
X139067452Y-94282544D01*
X139067455Y-94282547D01*
X139182664Y-94368793D01*
X139182671Y-94368797D01*
X139317517Y-94419091D01*
X139317516Y-94419091D01*
X139324444Y-94419835D01*
X139377127Y-94425500D01*
X140372872Y-94425499D01*
X140432483Y-94419091D01*
X140567331Y-94368796D01*
X140682546Y-94282546D01*
X140714293Y-94240136D01*
X140774112Y-94160231D01*
X140776382Y-94161930D01*
X140815565Y-94122743D01*
X140883837Y-94107886D01*
X140949303Y-94132298D01*
X140974443Y-94161311D01*
X140975888Y-94160231D01*
X141067452Y-94282544D01*
X141067455Y-94282547D01*
X141182664Y-94368793D01*
X141182671Y-94368797D01*
X141317517Y-94419091D01*
X141317516Y-94419091D01*
X141324444Y-94419835D01*
X141377127Y-94425500D01*
X142372872Y-94425499D01*
X142432483Y-94419091D01*
X142567331Y-94368796D01*
X142682546Y-94282546D01*
X142714293Y-94240136D01*
X142774112Y-94160231D01*
X142776382Y-94161930D01*
X142815565Y-94122743D01*
X142883837Y-94107886D01*
X142949303Y-94132298D01*
X142974443Y-94161311D01*
X142975888Y-94160231D01*
X143067452Y-94282544D01*
X143067455Y-94282547D01*
X143182664Y-94368793D01*
X143182671Y-94368797D01*
X143317517Y-94419091D01*
X143317516Y-94419091D01*
X143324444Y-94419835D01*
X143377127Y-94425500D01*
X144372872Y-94425499D01*
X144432483Y-94419091D01*
X144567331Y-94368796D01*
X144682546Y-94282546D01*
X144768796Y-94167331D01*
X144819091Y-94032483D01*
X144825500Y-93972873D01*
X144825499Y-93053389D01*
X151497000Y-93053389D01*
X151497000Y-93176610D01*
X151521035Y-93297444D01*
X151521038Y-93297454D01*
X151568187Y-93411283D01*
X151568192Y-93411292D01*
X151636641Y-93513732D01*
X151636644Y-93513736D01*
X151723763Y-93600855D01*
X151723767Y-93600858D01*
X151826207Y-93669307D01*
X151826213Y-93669310D01*
X151826214Y-93669311D01*
X151940048Y-93716463D01*
X152022193Y-93732802D01*
X152084103Y-93765186D01*
X152118677Y-93825901D01*
X152122001Y-93854419D01*
X152122001Y-93962876D01*
X152128408Y-94022483D01*
X152178702Y-94157328D01*
X152178706Y-94157335D01*
X152264952Y-94272544D01*
X152264955Y-94272547D01*
X152380164Y-94358793D01*
X152380171Y-94358797D01*
X152515017Y-94409091D01*
X152515016Y-94409091D01*
X152521944Y-94409835D01*
X152574627Y-94415500D01*
X153570372Y-94415499D01*
X153629983Y-94409091D01*
X153764831Y-94358796D01*
X153880046Y-94272546D01*
X153911793Y-94230136D01*
X153971612Y-94150231D01*
X153973882Y-94151930D01*
X154013065Y-94112743D01*
X154081337Y-94097886D01*
X154146803Y-94122298D01*
X154171943Y-94151311D01*
X154173388Y-94150231D01*
X154264952Y-94272544D01*
X154264955Y-94272547D01*
X154380164Y-94358793D01*
X154380171Y-94358797D01*
X154515017Y-94409091D01*
X154515016Y-94409091D01*
X154521944Y-94409835D01*
X154574627Y-94415500D01*
X155570372Y-94415499D01*
X155629983Y-94409091D01*
X155764831Y-94358796D01*
X155880046Y-94272546D01*
X155911793Y-94230136D01*
X155971612Y-94150231D01*
X155973882Y-94151930D01*
X156013065Y-94112743D01*
X156081337Y-94097886D01*
X156146803Y-94122298D01*
X156171943Y-94151311D01*
X156173388Y-94150231D01*
X156264952Y-94272544D01*
X156264955Y-94272547D01*
X156380164Y-94358793D01*
X156380171Y-94358797D01*
X156515017Y-94409091D01*
X156515016Y-94409091D01*
X156521944Y-94409835D01*
X156574627Y-94415500D01*
X157570372Y-94415499D01*
X157629983Y-94409091D01*
X157764831Y-94358796D01*
X157880046Y-94272546D01*
X157966296Y-94157331D01*
X158016591Y-94022483D01*
X158023000Y-93962873D01*
X158022999Y-92067128D01*
X158016591Y-92007517D01*
X158016589Y-92007512D01*
X158006680Y-91980945D01*
X158001694Y-91911254D01*
X158022541Y-91864727D01*
X158056496Y-91817994D01*
X158138711Y-91656639D01*
X158194671Y-91484409D01*
X158209265Y-91392259D01*
X158223000Y-91305551D01*
X158223000Y-91124448D01*
X158205306Y-91012736D01*
X158194671Y-90945591D01*
X158153959Y-90820289D01*
X158138712Y-90773363D01*
X158138711Y-90773360D01*
X158061591Y-90622006D01*
X158056496Y-90612006D01*
X158022542Y-90565272D01*
X157999063Y-90499467D01*
X158006679Y-90449057D01*
X158016591Y-90422483D01*
X158023000Y-90362873D01*
X158023000Y-90054419D01*
X158042685Y-89987380D01*
X158095489Y-89941625D01*
X158122805Y-89932802D01*
X158204952Y-89916463D01*
X158318786Y-89869311D01*
X158421233Y-89800858D01*
X158508358Y-89713733D01*
X158538441Y-89668711D01*
X161819500Y-89668711D01*
X161819500Y-89911288D01*
X161851161Y-90151785D01*
X161913947Y-90386104D01*
X161968891Y-90518750D01*
X162006776Y-90610212D01*
X162128064Y-90820289D01*
X162128066Y-90820292D01*
X162128067Y-90820293D01*
X162275733Y-91012736D01*
X162275739Y-91012743D01*
X162447256Y-91184260D01*
X162447262Y-91184265D01*
X162639711Y-91331936D01*
X162849788Y-91453224D01*
X163073900Y-91546054D01*
X163308211Y-91608838D01*
X163488586Y-91632584D01*
X163548711Y-91640500D01*
X163548712Y-91640500D01*
X163791289Y-91640500D01*
X163839388Y-91634167D01*
X164031789Y-91608838D01*
X164266100Y-91546054D01*
X164490212Y-91453224D01*
X164700289Y-91331936D01*
X164892738Y-91184265D01*
X165064265Y-91012738D01*
X165211936Y-90820289D01*
X165333224Y-90610212D01*
X165426054Y-90386100D01*
X165488838Y-90151789D01*
X165520500Y-89911288D01*
X165520500Y-89668712D01*
X165488838Y-89428211D01*
X165426054Y-89193900D01*
X165333224Y-88969788D01*
X165211936Y-88759711D01*
X165070648Y-88575580D01*
X165064266Y-88567263D01*
X165064260Y-88567256D01*
X164892743Y-88395739D01*
X164892736Y-88395733D01*
X164700293Y-88248067D01*
X164700292Y-88248066D01*
X164700289Y-88248064D01*
X164490212Y-88126776D01*
X164490205Y-88126773D01*
X164266104Y-88033947D01*
X164031785Y-87971161D01*
X163791289Y-87939500D01*
X163791288Y-87939500D01*
X163548712Y-87939500D01*
X163548711Y-87939500D01*
X163308214Y-87971161D01*
X163073895Y-88033947D01*
X162849794Y-88126773D01*
X162849785Y-88126777D01*
X162639706Y-88248067D01*
X162447263Y-88395733D01*
X162447256Y-88395739D01*
X162275739Y-88567256D01*
X162275733Y-88567263D01*
X162128067Y-88759706D01*
X162006777Y-88969785D01*
X162006773Y-88969794D01*
X161913947Y-89193895D01*
X161851161Y-89428214D01*
X161819500Y-89668711D01*
X158538441Y-89668711D01*
X158576811Y-89611286D01*
X158623963Y-89497452D01*
X158648000Y-89376606D01*
X158648000Y-89253394D01*
X158623963Y-89132548D01*
X158576811Y-89018714D01*
X158576810Y-89018713D01*
X158576807Y-89018707D01*
X158508358Y-88916267D01*
X158508355Y-88916263D01*
X158421236Y-88829144D01*
X158421232Y-88829141D01*
X158318792Y-88760692D01*
X158318783Y-88760687D01*
X158204954Y-88713538D01*
X158204952Y-88713537D01*
X158204950Y-88713536D01*
X158204946Y-88713535D01*
X158122807Y-88697197D01*
X158060897Y-88664812D01*
X158026322Y-88604096D01*
X158022999Y-88575580D01*
X158022999Y-88467129D01*
X158022998Y-88467123D01*
X158022997Y-88467116D01*
X158016591Y-88407517D01*
X157988466Y-88332111D01*
X157966297Y-88272671D01*
X157966293Y-88272664D01*
X157880047Y-88157455D01*
X157880044Y-88157452D01*
X157764835Y-88071206D01*
X157764828Y-88071202D01*
X157629982Y-88020908D01*
X157629983Y-88020908D01*
X157570383Y-88014501D01*
X157570381Y-88014500D01*
X157570373Y-88014500D01*
X157570364Y-88014500D01*
X156574629Y-88014500D01*
X156574623Y-88014501D01*
X156515016Y-88020908D01*
X156380171Y-88071202D01*
X156380164Y-88071206D01*
X156264955Y-88157452D01*
X156264952Y-88157455D01*
X156173388Y-88279769D01*
X156171118Y-88278070D01*
X156131920Y-88317264D01*
X156063646Y-88332111D01*
X155998183Y-88307690D01*
X155973054Y-88278689D01*
X155971612Y-88279769D01*
X155880047Y-88157455D01*
X155880044Y-88157452D01*
X155764835Y-88071206D01*
X155764828Y-88071202D01*
X155629982Y-88020908D01*
X155629983Y-88020908D01*
X155570383Y-88014501D01*
X155570381Y-88014500D01*
X155570373Y-88014500D01*
X155570364Y-88014500D01*
X154574629Y-88014500D01*
X154574623Y-88014501D01*
X154515016Y-88020908D01*
X154380171Y-88071202D01*
X154380164Y-88071206D01*
X154264955Y-88157452D01*
X154264952Y-88157455D01*
X154173388Y-88279769D01*
X154171118Y-88278070D01*
X154131920Y-88317264D01*
X154063646Y-88332111D01*
X153998183Y-88307690D01*
X153973054Y-88278689D01*
X153971612Y-88279769D01*
X153880047Y-88157455D01*
X153880044Y-88157452D01*
X153764835Y-88071206D01*
X153764828Y-88071202D01*
X153629982Y-88020908D01*
X153629983Y-88020908D01*
X153570383Y-88014501D01*
X153570381Y-88014500D01*
X153570373Y-88014500D01*
X153570364Y-88014500D01*
X152574629Y-88014500D01*
X152574623Y-88014501D01*
X152515016Y-88020908D01*
X152380171Y-88071202D01*
X152380164Y-88071206D01*
X152264955Y-88157452D01*
X152264952Y-88157455D01*
X152178706Y-88272664D01*
X152178702Y-88272671D01*
X152128408Y-88407517D01*
X152122001Y-88467116D01*
X152122001Y-88467123D01*
X152122000Y-88467135D01*
X152122000Y-90362870D01*
X152122001Y-90362876D01*
X152128409Y-90422484D01*
X152138320Y-90449059D01*
X152143302Y-90518750D01*
X152122457Y-90565272D01*
X152088503Y-90612007D01*
X152006288Y-90773360D01*
X152006287Y-90773363D01*
X151950329Y-90945589D01*
X151922000Y-91124448D01*
X151922000Y-91305551D01*
X151950329Y-91484410D01*
X152006287Y-91656636D01*
X152006288Y-91656639D01*
X152088506Y-91817997D01*
X152122455Y-91864725D01*
X152145935Y-91930532D01*
X152138320Y-91980939D01*
X152128409Y-92007512D01*
X152128408Y-92007516D01*
X152122001Y-92067116D01*
X152122001Y-92067123D01*
X152122000Y-92067135D01*
X152122000Y-92375580D01*
X152102315Y-92442619D01*
X152049511Y-92488374D01*
X152022192Y-92497197D01*
X151940054Y-92513535D01*
X151940045Y-92513538D01*
X151826216Y-92560687D01*
X151826207Y-92560692D01*
X151723767Y-92629141D01*
X151723763Y-92629144D01*
X151636644Y-92716263D01*
X151636641Y-92716267D01*
X151568192Y-92818707D01*
X151568187Y-92818716D01*
X151521038Y-92932545D01*
X151521035Y-92932555D01*
X151497000Y-93053389D01*
X144825499Y-93053389D01*
X144825499Y-92994198D01*
X144825499Y-92077129D01*
X144825498Y-92077123D01*
X144825497Y-92077116D01*
X144819091Y-92017517D01*
X144819089Y-92017512D01*
X144809180Y-91990945D01*
X144804194Y-91921254D01*
X144825041Y-91874727D01*
X144858996Y-91827994D01*
X144941211Y-91666639D01*
X144997171Y-91494409D01*
X145011765Y-91402259D01*
X145025500Y-91315551D01*
X145025500Y-91134448D01*
X145006222Y-91012736D01*
X144997171Y-90955591D01*
X144953211Y-90820293D01*
X144941212Y-90783363D01*
X144941211Y-90783360D01*
X144899319Y-90701145D01*
X144858996Y-90622006D01*
X144825042Y-90575272D01*
X144801563Y-90509467D01*
X144809179Y-90459057D01*
X144819091Y-90432483D01*
X144825500Y-90372873D01*
X144825500Y-90064419D01*
X144845185Y-89997380D01*
X144897989Y-89951625D01*
X144925305Y-89942802D01*
X145007452Y-89926463D01*
X145121286Y-89879311D01*
X145223733Y-89810858D01*
X145310858Y-89723733D01*
X145379311Y-89621286D01*
X145426463Y-89507452D01*
X145450500Y-89386606D01*
X145450500Y-89263394D01*
X145426463Y-89142548D01*
X145379311Y-89028714D01*
X145379310Y-89028713D01*
X145379307Y-89028707D01*
X145310858Y-88926267D01*
X145310855Y-88926263D01*
X145223736Y-88839144D01*
X145223732Y-88839141D01*
X145121292Y-88770692D01*
X145121283Y-88770687D01*
X145007454Y-88723538D01*
X145007452Y-88723537D01*
X145007450Y-88723536D01*
X145007446Y-88723535D01*
X144925307Y-88707197D01*
X144863397Y-88674812D01*
X144828822Y-88614096D01*
X144825499Y-88585580D01*
X144825499Y-88477129D01*
X144825498Y-88477123D01*
X144825497Y-88477116D01*
X144819091Y-88417517D01*
X144815361Y-88407517D01*
X144768797Y-88282671D01*
X144768793Y-88282664D01*
X144682547Y-88167455D01*
X144682544Y-88167452D01*
X144567335Y-88081206D01*
X144567328Y-88081202D01*
X144432482Y-88030908D01*
X144432483Y-88030908D01*
X144372883Y-88024501D01*
X144372881Y-88024500D01*
X144372873Y-88024500D01*
X144372864Y-88024500D01*
X143377129Y-88024500D01*
X143377123Y-88024501D01*
X143317516Y-88030908D01*
X143182671Y-88081202D01*
X143182664Y-88081206D01*
X143067455Y-88167452D01*
X143067452Y-88167455D01*
X142975888Y-88289769D01*
X142973618Y-88288070D01*
X142934420Y-88327264D01*
X142866146Y-88342111D01*
X142800683Y-88317690D01*
X142775554Y-88288689D01*
X142774112Y-88289769D01*
X142682547Y-88167455D01*
X142682544Y-88167452D01*
X142567335Y-88081206D01*
X142567328Y-88081202D01*
X142432482Y-88030908D01*
X142432483Y-88030908D01*
X142372883Y-88024501D01*
X142372881Y-88024500D01*
X142372873Y-88024500D01*
X142372864Y-88024500D01*
X141377129Y-88024500D01*
X141377123Y-88024501D01*
X141317516Y-88030908D01*
X141182671Y-88081202D01*
X141182664Y-88081206D01*
X141067455Y-88167452D01*
X141067452Y-88167455D01*
X140975888Y-88289769D01*
X140973618Y-88288070D01*
X140934420Y-88327264D01*
X140866146Y-88342111D01*
X140800683Y-88317690D01*
X140775554Y-88288689D01*
X140774112Y-88289769D01*
X140682547Y-88167455D01*
X140682544Y-88167452D01*
X140567335Y-88081206D01*
X140567328Y-88081202D01*
X140432482Y-88030908D01*
X140432483Y-88030908D01*
X140372883Y-88024501D01*
X140372881Y-88024500D01*
X140372873Y-88024500D01*
X140372864Y-88024500D01*
X139377129Y-88024500D01*
X139377123Y-88024501D01*
X139317516Y-88030908D01*
X139182671Y-88081202D01*
X139182664Y-88081206D01*
X139067455Y-88167452D01*
X139067452Y-88167455D01*
X138981206Y-88282664D01*
X138981202Y-88282671D01*
X138930908Y-88417517D01*
X138925575Y-88467127D01*
X138924501Y-88477123D01*
X138924500Y-88477135D01*
X138924500Y-88781564D01*
X138910985Y-88837859D01*
X138831957Y-88992957D01*
X138831956Y-88992960D01*
X138777214Y-89161443D01*
X138749500Y-89336421D01*
X138749500Y-90966851D01*
X138747973Y-90986249D01*
X138724500Y-91134448D01*
X138724500Y-91315551D01*
X138752829Y-91494410D01*
X138808787Y-91666636D01*
X138808788Y-91666639D01*
X138864664Y-91776300D01*
X138885910Y-91817997D01*
X138891006Y-91827997D01*
X138924955Y-91874725D01*
X138948435Y-91940532D01*
X138940820Y-91990939D01*
X138930909Y-92017512D01*
X138930908Y-92017516D01*
X138925575Y-92067127D01*
X138924501Y-92077123D01*
X138924500Y-92077135D01*
X138924500Y-92385580D01*
X138904815Y-92452619D01*
X138852011Y-92498374D01*
X138824692Y-92507197D01*
X138742554Y-92523535D01*
X138742545Y-92523538D01*
X138628716Y-92570687D01*
X138628707Y-92570692D01*
X138526267Y-92639141D01*
X138526263Y-92639144D01*
X138439144Y-92726263D01*
X138439141Y-92726267D01*
X138370692Y-92828707D01*
X138370687Y-92828716D01*
X138323538Y-92942545D01*
X138323535Y-92942555D01*
X138299500Y-93063389D01*
X127775274Y-93063389D01*
X128157267Y-92417241D01*
X128159891Y-92413002D01*
X128686772Y-91599332D01*
X128689544Y-91595236D01*
X129249131Y-90803680D01*
X129252073Y-90799693D01*
X129843424Y-90031582D01*
X129846544Y-90027697D01*
X130146975Y-89668711D01*
X131413900Y-89668711D01*
X131413900Y-89911288D01*
X131445561Y-90151785D01*
X131508347Y-90386104D01*
X131563291Y-90518750D01*
X131601176Y-90610212D01*
X131722464Y-90820289D01*
X131722466Y-90820292D01*
X131722467Y-90820293D01*
X131870133Y-91012736D01*
X131870139Y-91012743D01*
X132041656Y-91184260D01*
X132041662Y-91184265D01*
X132234111Y-91331936D01*
X132444188Y-91453224D01*
X132668300Y-91546054D01*
X132902611Y-91608838D01*
X133082986Y-91632584D01*
X133143111Y-91640500D01*
X133143112Y-91640500D01*
X133385689Y-91640500D01*
X133433788Y-91634167D01*
X133626189Y-91608838D01*
X133860500Y-91546054D01*
X134084612Y-91453224D01*
X134294689Y-91331936D01*
X134487138Y-91184265D01*
X134658665Y-91012738D01*
X134806336Y-90820289D01*
X134927624Y-90610212D01*
X135020454Y-90386100D01*
X135083238Y-90151789D01*
X135114900Y-89911288D01*
X135114900Y-89668712D01*
X135083238Y-89428211D01*
X135020454Y-89193900D01*
X134927624Y-88969788D01*
X134806336Y-88759711D01*
X134665048Y-88575580D01*
X134658666Y-88567263D01*
X134658660Y-88567256D01*
X134487143Y-88395739D01*
X134487136Y-88395733D01*
X134294693Y-88248067D01*
X134294692Y-88248066D01*
X134294689Y-88248064D01*
X134084612Y-88126776D01*
X134084605Y-88126773D01*
X133860504Y-88033947D01*
X133626185Y-87971161D01*
X133385689Y-87939500D01*
X133385688Y-87939500D01*
X133143112Y-87939500D01*
X133143111Y-87939500D01*
X132902614Y-87971161D01*
X132668295Y-88033947D01*
X132444194Y-88126773D01*
X132444185Y-88126777D01*
X132234106Y-88248067D01*
X132041663Y-88395733D01*
X132041656Y-88395739D01*
X131870139Y-88567256D01*
X131870133Y-88567263D01*
X131722467Y-88759706D01*
X131601177Y-88969785D01*
X131601173Y-88969794D01*
X131508347Y-89193895D01*
X131445561Y-89428214D01*
X131413900Y-89668711D01*
X130146975Y-89668711D01*
X130468669Y-89284319D01*
X130471941Y-89280567D01*
X130885785Y-88825110D01*
X131123789Y-88563174D01*
X131127246Y-88559520D01*
X131807791Y-87869233D01*
X131811344Y-87865775D01*
X132519430Y-87203775D01*
X132523145Y-87200441D01*
X133257611Y-86567812D01*
X133261423Y-86564661D01*
X134021068Y-85962442D01*
X134025020Y-85959439D01*
X134808487Y-85388703D01*
X134812625Y-85385816D01*
X135618686Y-84847451D01*
X135622902Y-84844757D01*
X136450244Y-84339645D01*
X136454546Y-84337137D01*
X137301786Y-83866123D01*
X137306175Y-83863799D01*
X138171864Y-83427688D01*
X138176380Y-83425527D01*
X138876274Y-83107979D01*
X138945456Y-83098207D01*
X139008940Y-83127389D01*
G37*
%TD.AperFunction*%
%TD*%
M02*
