M48
; DRILL file {KiCad 9.0.6} date 2025-11-21T10:34:21+0000
; FORMAT={-:-/ absolute / metric / decimal}
; #@! TF.CreationDate,2025-11-21T10:34:21+00:00
; #@! TF.GenerationSoftware,Kicad,Pcbnew,9.0.6
; #@! TF.FileFunction,Plated,1,2,PTH
FMAT,2
METRIC
; #@! TA.AperFunction,Plated,PTH,ViaDrill
T1C0.300
; #@! TA.AperFunction,Plated,PTH,ComponentDrill
T2C0.800
; #@! TA.AperFunction,Plated,PTH,ComponentDrill
T3C1.750
; #@! TA.AperFunction,Plated,PTH,ComponentDrill
T4C2.000
%
G90
G05
T1
X133.65Y-103.4
X133.65Y-104.9
X133.65Y-106.4
X135.15Y-101.85
X135.15Y-103.4
X135.15Y-104.9
X135.15Y-106.4
X135.448Y-98.85
X136.65Y-101.85
X136.65Y-103.4
X136.65Y-104.9
X136.65Y-106.4
X137.057Y-98.235
X137.55Y-103.932
X137.55Y-104.932
X137.9Y-102.282
X137.95Y-103.082
X138.3Y-105.832
X138.567Y-101.002
X139.45Y-105.882
X141.05Y-99.75
X141.75Y-100.382
X147.9Y-100.7
X149.4Y-100.65
X151.7Y-100.65
X153.2Y-100.127
X154.9Y-98.3
X155.317Y-113.836
X155.55Y-100.9
X156.317Y-113.836
X157.317Y-113.836
X158.4Y-99.6
X159.4Y-100.197
T2
X139.875Y-91.225
X141.875Y-91.225
X143.875Y-91.225
X153.072Y-91.215
X155.072Y-91.215
X157.072Y-91.215
T3
X162.15Y-110.3
X166.45Y-110.3
T4
X141.9Y-111.35
X141.9Y-116.45
M30
