#VRML V2.0 utf8
# 3D model generated by easyeda2kicad.py (https://github.com/uPesy/easyeda2kicad.py)

Shape{
    appearance Appearance {
        material  Material 	{
            diffuseColor 0.5019607843137255 0.5019607843137255 0.5019607843137255
            specularColor 0.44313725490196076 0.44313725490196076 0.44313725490196076
            ambientIntensity 0.2
            transparency 0
            shininess 0.5
        }
    }
    geometry IndexedFaceSet {
        ccw TRUE
        solid FALSE
        coord DEF co Coordinate {
            point [
                0.0804 0.2013 0.0, 0.1573 -0.1288 0.0, 0.0804 -0.1924 0.0, 0.1573 -0.172 0.0, -0.1212 0.2013 0.0, -0.1692 0.4508 0.0, -0.1212 0.1581 0.0, 0.0276 0.1581 0.0, 0.0276 0.0284 0.0, -0.1308 -0.1492 0.0, -0.1308 -0.1924 0.0, -0.1692 -0.1948 0.0, 0.0276 -0.0148 0.0, 0.0276 -0.1492 0.0, -0.1116 -0.0148 0.0, -0.1116 0.0284 0.0, 0.6854 -0.1924 0.0, 0.2887 -0.1948 0.0, 0.4838 -0.1924 0.0, 0.3141 -0.1922 0.0, 0.3523 -0.1791 0.0, 0.2882 0.1585 0.0, 0.3177 0.1479 0.0, 0.1643 -0.1327 0.0, 0.345 0.1296 0.0, 0.3687 0.1034 0.0, 0.3973 0.0002 0.0, 0.3933 -0.0424 0.0, 0.3826 -0.0763 0.0, 0.295 -0.1499 0.0, 0.2583 -0.154 0.0, 0.3237 -0.1393 0.0, 0.3479 -0.1231 0.0, 0.3664 -0.1036 0.0, 0.2061 -0.1482 0.0, 0.1573 0.1905 0.0, 0.1573 0.1377 0.0, 0.2016 0.1566 0.0, 0.2495 0.1629 0.0, 0.385 0.073 0.0, 0.3955 0.0309 0.0, 0.4294 0.0976 0.0, 0.4063 0.1344 0.0, 0.6326 0.2013 0.0, 0.3707 0.1686 0.0, 0.3334 0.1901 0.0, 0.3839 -0.1588 0.0, 0.4135 -0.1277 0.0, 0.4838 -0.1492 0.0, 0.4345 -0.0903 0.0, 0.6326 -0.1492 0.0, 0.4463 -0.0486 0.0, 0.4501 -0.003 0.0, 0.4445 0.053 0.0, 0.2895 0.2028 0.0, 0.2499 0.2061 0.0, 0.2028 0.2028 0.0, 0.239 -0.1948 0.0, 0.2548 -0.197 0.0, -0.1692 -0.4508 0.0, 0.2656 -0.1972 0.0, 0.6854 0.2013 0.0, 2.25 0.4508 0.0, 2.25 -0.1948 0.0, 2.25 -0.4508 0.0, -2.25 -0.4508 0.0, -2.25 -0.1948 0.0, 0.1992 -0.1893 0.0, -0.3147 -0.1924 0.0, -0.2076 -0.1924 0.0, -0.2076 0.2013 0.0, -0.5533 -0.1924 0.0, -0.5048 -0.0845 0.0, -0.4823 -0.1197 0.0, -0.7022 0.2013 0.0, -0.755 0.2013 0.0, -0.851 -0.1924 0.0, -0.9086 -0.1924 0.0, -2.25 0.4508 0.0, -0.4499 -0.1508 0.0, -0.4088 -0.1747 0.0, -0.3634 -0.1882 0.0, -0.3187 0.2013 0.0, -0.3756 0.1952 0.0, -0.4217 0.179 0.0, -0.4645 0.1503 0.0, -0.4649 0.1499 0.0, -0.4928 0.1191 0.0, -0.5111 0.0852 0.0, -0.6109 -0.1924 0.0, -0.6485 -0.082 0.0, -0.8112 -0.082 0.0, -0.5216 0.0464 0.0, -0.5245 0.0094 0.0, -0.519 -0.0433 0.0, 2.25 -0.4508 0.9016, 2.25 -0.0846 0.3333, 2.25 0.0846 0.3333, 2.25 0.0846 0.4435, 2.25 0.4508 0.9016, 2.25 -0.0846 0.4435, -2.25 -0.0846 0.3333, -2.25 -0.0846 0.4435, -2.25 -0.4508 0.9016, -2.25 0.0846 0.4435, -2.25 0.4508 0.9016, -2.25 0.0846 0.3333, -2.25 0.0846 0.3333
            ]
        }
        coordIndex [
            0,1,2,-1,2,1,3,-1,0,4,5,-1,5,4,6,-1,6,7,8,-1,9,10,11,-1,11,10,2,-1,12,13,14,-1,14,13,9,-1,14,9,15,-1,16,17,18,-1,18,17,19,-1,18,19,20,-1,21,22,23,-1,23,22,24,-1,23,24,25,-1,26,27,23,-1,23,27,28,-1,29,30,31,-1,31,30,32,-1,28,33,23,-1,23,33,32,-1,23,32,34,-1,34,32,30,-1,5,35,0,-1,0,35,36,-1,0,36,1,-1,1,36,37,-1,1,37,23,-1,23,37,38,-1,23,38,21,-1,25,39,23,-1,23,39,40,-1,23,40,26,-1,41,42,43,-1,43,42,44,-1,43,44,45,-1,20,46,18,-1,18,46,47,-1,18,47,48,-1,48,47,49,-1,48,49,50,-1,49,51,50,-1,50,51,52,-1,50,52,43,-1,43,52,53,-1,43,53,41,-1,54,55,5,-1,5,55,56,-1,5,56,35,-1,57,58,59,-1,59,58,60,-1,59,60,17,-1,45,54,43,-1,43,54,5,-1,43,5,61,-1,61,5,62,-1,61,62,16,-1,16,62,63,-1,16,63,17,-1,17,63,64,-1,17,64,59,-1,65,66,59,-1,59,66,11,-1,59,11,57,-1,57,11,2,-1,57,2,67,-1,67,2,3,-1,68,69,11,-1,8,15,6,-1,6,15,9,-1,6,9,5,-1,5,9,11,-1,5,11,70,-1,70,11,69,-1,71,72,73,-1,5,74,75,-1,76,11,77,-1,77,11,66,-1,77,66,75,-1,75,66,78,-1,75,78,5,-1,73,79,71,-1,71,79,80,-1,71,80,81,-1,70,82,5,-1,5,82,83,-1,5,83,74,-1,74,83,84,-1,74,84,85,-1,85,86,74,-1,74,86,87,-1,74,87,88,-1,81,68,71,-1,71,68,11,-1,71,11,89,-1,89,11,76,-1,89,76,90,-1,90,76,91,-1,88,92,74,-1,74,92,93,-1,74,93,71,-1,71,93,94,-1,71,94,72,-1,95,64,96,-1,96,64,63,-1,96,63,97,-1,97,63,62,-1,97,62,98,-1,98,62,99,-1,98,99,100,-1,100,99,95,-1,100,95,96,-1,101,65,102,-1,102,65,103,-1,102,103,104,-1,104,103,105,-1,104,105,106,-1,106,105,78,-1,106,78,101,-1,101,78,66,-1,101,66,65,-1,99,62,105,-1,105,62,5,-1,105,5,78,-1,64,95,59,-1,59,95,103,-1,59,103,65,-1,105,103,99,-1,99,103,95,-1,
        ]
    }
}
Shape{
    appearance Appearance {
        material  Material 	{
            diffuseColor 1.0 1.0 1.0
            specularColor 1.0 1.0 1.0
            ambientIntensity 0.2
            transparency 0
            shininess 0.5
        }
    }
    geometry IndexedFaceSet {
        ccw TRUE
        solid FALSE
        coord DEF co Coordinate {
            point [
                -3.1988 -0.0846 0.0602, -3.1988 0.0846 0.0602, -3.1988 -0.0846 -0.05, -3.1988 0.0846 -0.05, -2.8502 0.0846 -0.05, -2.8502 -0.0846 -0.05, -2.8502 -0.0846 0.0602, -2.8502 0.0846 0.0602, -2.7426 0.0846 0.0194, -2.7426 -0.0846 0.0194, -2.7565 -0.0846 -0.0038, -2.7565 0.0846 -0.0038, -2.7752 -0.0846 -0.0232, -2.7752 0.0846 -0.0232, -2.7979 -0.0846 -0.0378, -2.7979 0.0846 -0.0378, -2.8233 -0.0846 -0.0469, -2.8233 0.0846 -0.0469, -2.8484 -0.0846 0.0604, -2.8467 -0.0846 0.061, -2.8452 -0.0846 0.062, -2.8439 -0.0846 0.0633, -2.843 -0.0846 0.0649, -2.8484 0.0846 0.0604, -2.8467 0.0846 0.061, -2.8452 0.0846 0.062, -2.8439 0.0846 0.0633, -2.843 0.0846 0.0649, -2.6318 0.0846 0.2639, -2.6318 -0.0846 0.2639, -2.7322 -0.0846 0.3094, -2.7322 0.0846 0.3094, -2.6179 -0.0846 0.2871, -2.6179 0.0846 0.2871, -2.5992 -0.0846 0.3065, -2.5992 0.0846 0.3065, -2.5765 -0.0846 0.3211, -2.5765 0.0846 0.3211, -2.5511 -0.0846 0.3302, -2.5511 0.0846 0.3302, -2.5242 -0.0846 0.3333, -2.5242 0.0846 0.3333, -2.5242 -0.0846 0.4435, -2.5761 -0.0846 0.4375, -2.6252 -0.0846 0.42, -2.6691 -0.0846 0.3917, -2.7054 -0.0846 0.3542, -2.5242 0.0846 0.4435, -2.5761 0.0846 0.4375, -2.6252 0.0846 0.42, -2.6691 0.0846 0.3917, -2.7054 0.0846 0.3542, -2.25 0.0846 0.3333, -2.25 -0.0846 0.3333, -2.25 -0.0846 0.4435, -2.25 0.0846 0.4435, 3.1988 0.0846 0.0602, 3.1988 -0.0846 0.0602, 3.1988 0.0846 -0.05, 3.1988 -0.0846 -0.05, 2.8502 0.0846 0.0602, 2.8502 -0.0846 0.0602, 2.8502 -0.0846 -0.05, 2.8502 0.0846 -0.05, 2.8484 -0.0846 0.0604, 2.8484 0.0846 0.0604, 2.8467 -0.0846 0.061, 2.8467 0.0846 0.061, 2.8452 -0.0846 0.062, 2.8452 0.0846 0.062, 2.8439 -0.0846 0.0633, 2.8439 0.0846 0.0633, 2.843 -0.0846 0.0649, 2.843 0.0846 0.0649, 2.7426 -0.0846 0.0194, 2.7565 -0.0846 -0.0038, 2.7752 -0.0846 -0.0232, 2.7979 -0.0846 -0.0378, 2.8233 -0.0846 -0.0469, 2.7426 0.0846 0.0194, 2.7565 0.0846 -0.0038, 2.7752 0.0846 -0.0232, 2.7979 0.0846 -0.0378, 2.8233 0.0846 -0.0469, 2.7322 0.0846 0.3094, 2.7322 -0.0846 0.3094, 2.6318 -0.0846 0.2639, 2.6318 0.0846 0.2639, 2.5242 0.0846 0.4435, 2.5242 -0.0846 0.4435, 2.5761 -0.0846 0.4375, 2.5761 0.0846 0.4375, 2.6252 -0.0846 0.42, 2.6252 0.0846 0.42, 2.6691 -0.0846 0.3917, 2.6691 0.0846 0.3917, 2.7054 -0.0846 0.3542, 2.7054 0.0846 0.3542, 2.6179 -0.0846 0.2871, 2.5992 -0.0846 0.3065, 2.5765 -0.0846 0.3211, 2.5511 -0.0846 0.3302, 2.5242 -0.0846 0.3333, 2.6179 0.0846 0.2871, 2.5992 0.0846 0.3065, 2.5765 0.0846 0.3211, 2.5511 0.0846 0.3302, 2.5242 0.0846 0.3333, 2.25 0.0846 0.4435, 2.25 -0.0846 0.4435, 2.25 -0.0846 0.3333, 2.25 0.0846 0.3333, 2.25 0.0846 0.3333
            ]
        }
        coordIndex [
            0,1,2,-1,2,1,3,-1,3,4,2,-1,2,4,5,-1,2,5,0,-1,0,5,6,-1,0,6,1,-1,1,6,7,-1,3,1,4,-1,4,1,7,-1,8,9,10,-1,8,10,11,-1,11,10,12,-1,11,12,13,-1,13,12,14,-1,13,14,15,-1,15,14,16,-1,15,16,17,-1,17,16,5,-1,17,5,4,-1,6,5,18,-1,18,5,16,-1,18,16,19,-1,19,16,14,-1,19,14,20,-1,20,14,12,-1,20,12,21,-1,21,12,10,-1,21,10,22,-1,22,10,9,-1,7,6,23,-1,23,6,18,-1,23,18,24,-1,24,18,19,-1,24,19,25,-1,25,19,20,-1,25,20,26,-1,26,20,21,-1,26,21,27,-1,27,21,22,-1,27,8,26,-1,26,8,11,-1,26,11,25,-1,25,11,13,-1,25,13,24,-1,24,13,15,-1,24,15,23,-1,23,15,17,-1,23,17,7,-1,7,17,4,-1,8,28,9,-1,9,28,29,-1,9,29,22,-1,22,29,30,-1,22,30,27,-1,27,30,31,-1,8,27,28,-1,28,27,31,-1,29,28,32,-1,32,28,33,-1,32,33,34,-1,34,33,35,-1,34,35,36,-1,36,35,37,-1,36,37,38,-1,38,37,39,-1,38,39,40,-1,40,39,41,-1,40,42,38,-1,38,42,43,-1,38,43,36,-1,36,43,44,-1,36,44,34,-1,34,44,45,-1,34,45,32,-1,32,45,46,-1,32,46,29,-1,29,46,30,-1,42,47,48,-1,42,48,43,-1,43,48,49,-1,43,49,44,-1,44,49,50,-1,44,50,45,-1,45,50,51,-1,45,51,46,-1,46,51,31,-1,46,31,30,-1,28,31,33,-1,33,31,51,-1,33,51,35,-1,35,51,50,-1,35,50,37,-1,37,50,49,-1,37,49,39,-1,39,49,48,-1,39,48,41,-1,41,48,47,-1,41,52,40,-1,40,52,53,-1,40,53,42,-1,42,53,54,-1,42,54,47,-1,47,54,55,-1,41,47,52,-1,52,47,55,-1,56,57,58,-1,58,57,59,-1,56,60,57,-1,57,60,61,-1,57,61,59,-1,59,61,62,-1,59,62,58,-1,58,62,63,-1,56,58,60,-1,60,58,63,-1,61,60,64,-1,64,60,65,-1,64,65,66,-1,66,65,67,-1,66,67,68,-1,68,67,69,-1,68,69,70,-1,70,69,71,-1,70,71,72,-1,72,71,73,-1,72,74,70,-1,70,74,75,-1,70,75,68,-1,68,75,76,-1,68,76,66,-1,66,76,77,-1,66,77,64,-1,64,77,78,-1,64,78,61,-1,61,78,62,-1,74,79,80,-1,74,80,75,-1,75,80,81,-1,75,81,76,-1,76,81,82,-1,76,82,77,-1,77,82,83,-1,77,83,78,-1,78,83,63,-1,78,63,62,-1,60,63,65,-1,65,63,83,-1,65,83,67,-1,67,83,82,-1,67,82,69,-1,69,82,81,-1,69,81,71,-1,71,81,80,-1,71,80,73,-1,73,80,79,-1,73,84,72,-1,72,84,85,-1,72,85,74,-1,74,85,86,-1,74,86,79,-1,79,86,87,-1,73,79,84,-1,84,79,87,-1,88,89,90,-1,88,90,91,-1,91,90,92,-1,91,92,93,-1,93,92,94,-1,93,94,95,-1,95,94,96,-1,95,96,97,-1,97,96,85,-1,97,85,84,-1,86,85,98,-1,98,85,96,-1,98,96,99,-1,99,96,94,-1,99,94,100,-1,100,94,92,-1,100,92,101,-1,101,92,90,-1,101,90,102,-1,102,90,89,-1,87,86,103,-1,103,86,98,-1,103,98,104,-1,104,98,99,-1,104,99,105,-1,105,99,100,-1,105,100,106,-1,106,100,101,-1,106,101,107,-1,107,101,102,-1,107,88,106,-1,106,88,91,-1,106,91,105,-1,105,91,93,-1,105,93,104,-1,104,93,95,-1,104,95,103,-1,103,95,97,-1,103,97,87,-1,87,97,84,-1,88,108,89,-1,89,108,109,-1,89,109,102,-1,102,109,110,-1,102,110,107,-1,107,110,111,-1,88,107,108,-1,108,107,111,-1,
        ]
    }
}
Shape{
    appearance Appearance {
        material  Material 	{
            diffuseColor 0.5019607843137255 0.5019607843137255 0.5019607843137255
            specularColor 0.44313725490196076 0.44313725490196076 0.44313725490196076
            ambientIntensity 0.2
            transparency 0
            shininess 0.5
        }
    }
    geometry IndexedFaceSet {
        ccw TRUE
        solid FALSE
        coord DEF co Coordinate {
            point [
                0.4838 -0.1492 0.1181, 0.4838 -0.1924 0.1181, 0.4838 -0.1492 0.0, 0.4838 -0.1924 0.0, 0.6854 -0.1924 0.1181, 0.6854 -0.1924 0.0, 0.6854 0.2013 0.1181, 0.6854 0.2013 0.0, 0.6326 0.2013 0.1181, 0.6326 0.2013 0.0, 0.6326 -0.1492 0.1181, 0.6326 -0.1492 0.0, -0.755 0.2013 0.1181, -0.9086 -0.1924 0.1181, -0.755 0.2013 0.0, -0.9086 -0.1924 0.0, -0.851 -0.1924 0.1181, -0.851 -0.1924 0.0, -0.8112 -0.082 0.1181, -0.8112 -0.082 0.0, -0.6485 -0.082 0.1181, -0.6485 -0.082 0.0, -0.6109 -0.1924 0.1181, -0.6109 -0.1924 0.0, -0.5533 -0.1924 0.1181, -0.5533 -0.1924 0.0, -0.7022 0.2013 0.1181, -0.7022 0.2013 0.0, -0.6618 -0.0388 0.1181, -0.7935 -0.0388 0.1181, -0.7205 0.1257 0.1181, -0.7243 0.1393 0.1181, -0.7268 0.1533 0.1181, -0.7281 0.1533 0.1181, -0.7307 0.1394 0.1181, -0.7342 0.1257 0.1181, -0.6618 -0.0388 0.0, -0.7935 -0.0388 0.0, -0.7205 0.1257 0.0, -0.7243 0.1393 0.0, -0.7268 0.1533 0.0, -0.7281 0.1533 0.0, -0.7307 0.1394 0.0, -0.7342 0.1257 0.0, -0.3147 -0.1924 0.1181, -0.2076 -0.1924 0.1181, -0.3147 -0.1924 0.0, -0.2076 -0.1924 0.0, -0.2076 0.2013 0.1181, -0.2076 0.2013 0.0, -0.3187 0.2013 0.1181, -0.3187 0.2013 0.0, -0.5245 0.0094 0.1181, -0.5245 0.0094 0.0, -0.5216 0.0464 0.0, -0.5216 0.0464 0.1181, -0.5111 0.0852 0.0, -0.5111 0.0852 0.1181, -0.4928 0.1191 0.0, -0.4928 0.1191 0.1181, -0.4649 0.1499 0.0, -0.4649 0.1499 0.1181, -0.4645 0.1503 0.0, -0.4645 0.1503 0.1181, -0.4217 0.179 0.0, -0.4217 0.179 0.1181, -0.3756 0.1952 0.0, -0.3756 0.1952 0.1181, -0.3634 -0.1882 0.0, -0.3634 -0.1882 0.1181, -0.4088 -0.1747 0.0, -0.4088 -0.1747 0.1181, -0.4499 -0.1508 0.0, -0.4499 -0.1508 0.1181, -0.4823 -0.1197 0.0, -0.4823 -0.1197 0.1181, -0.5048 -0.0845 0.0, -0.5048 -0.0845 0.1181, -0.519 -0.0433 0.0, -0.519 -0.0433 0.1181, -0.4455 0.1029 0.1181, -0.4264 0.1232 0.1181, -0.3976 0.1417 0.1181, -0.3651 0.1531 0.1181, -0.3185 0.1581 0.1181, -0.2604 0.1581 0.1181, -0.2604 -0.1492 0.1181, -0.3163 -0.1492 0.1181, -0.3579 -0.1453 0.1181, -0.391 -0.135 0.1181, -0.4178 -0.1191 0.1181, -0.4399 -0.0973 0.1181, -0.4565 -0.0701 0.1181, -0.4681 -0.0331 0.1181, -0.4717 0.0083 0.1181, -0.4683 0.0474 0.1181, -0.4592 0.0786 0.1181, -0.3185 0.1581 0.0, -0.2604 0.1581 0.0, -0.3651 0.1531 -0.0, -0.3976 0.1417 0.0, -0.4264 0.1232 0.0, -0.4455 0.1029 -0.0, -0.4592 0.0786 0.0, -0.4683 0.0474 -0.0, -0.4717 0.0083 -0.0, -0.4681 -0.0331 0.0, -0.4565 -0.0701 0.0, -0.4399 -0.0973 0.0, -0.4178 -0.1191 0.0, -0.391 -0.135 0.0, -0.3579 -0.1453 0.0, -0.3163 -0.1492 0.0, -0.2604 -0.1492 0.0, -0.1308 -0.1492 0.1181, -0.1308 -0.1924 0.1181, -0.1308 -0.1492 0.0, -0.1308 -0.1924 0.0, 0.0804 -0.1924 0.1181, 0.0804 -0.1924 0.0, 0.0804 0.2013 0.1181, 0.0804 0.2013 0.0, -0.1212 0.2013 0.1181, -0.1212 0.2013 0.0, -0.1212 0.1581 0.1181, -0.1212 0.1581 0.0, 0.0276 0.1581 0.1181, 0.0276 0.1581 0.0, 0.0276 0.0284 0.1181, 0.0276 0.0284 0.0, -0.1116 0.0284 0.1181, -0.1116 0.0284 0.0, -0.1116 -0.0148 0.1181, -0.1116 -0.0148 0.0, 0.0276 -0.0148 0.1181, 0.0276 -0.0148 0.0, 0.0276 -0.1492 0.1181, 0.0276 -0.1492 0.0, 0.1573 -0.1288 0.1181, 0.1573 -0.172 0.1181, 0.1573 -0.1288 0.0, 0.1573 -0.172 0.0, 0.1992 -0.1893 0.1181, 0.2656 -0.1972 0.1181, 0.2656 -0.1972 0.0, 0.2548 -0.197 0.0, 0.2548 -0.197 0.1181, 0.239 -0.1948 0.0, 0.1992 -0.1893 0.0, 0.2887 -0.1948 0.0, 0.3141 -0.1922 0.1181, 0.3141 -0.1922 0.0, 0.3523 -0.1791 0.1181, 0.3523 -0.1791 0.0, 0.3839 -0.1588 0.1181, 0.3839 -0.1588 0.0, 0.4135 -0.1277 0.1181, 0.4135 -0.1277 0.0, 0.4345 -0.0903 0.1181, 0.4345 -0.0903 0.0, 0.4463 -0.0486 0.1181, 0.4463 -0.0486 0.0, 0.4501 -0.003 0.1181, 0.4501 -0.003 0.0, 0.2499 0.2061 0.1181, 0.2499 0.2061 0.0, 0.2895 0.2028 0.0, 0.2895 0.2028 0.1181, 0.3334 0.1901 0.0, 0.3334 0.1901 0.1181, 0.3707 0.1686 0.0, 0.3707 0.1686 0.1181, 0.4063 0.1344 0.0, 0.4063 0.1344 0.1181, 0.4294 0.0976 0.0, 0.4294 0.0976 0.1181, 0.4445 0.053 0.0, 0.4445 0.053 0.1181, 0.1573 0.1905 0.1181, 0.1573 0.1905 0.0, 0.2028 0.2028 0.0, 0.2028 0.2028 0.1181, 0.1573 0.1377 0.1181, 0.1573 0.1377 0.0, 0.2495 0.1629 0.1181, 0.2495 0.1629 0.0, 0.2016 0.1566 0.0, 0.2016 0.1566 0.1181, 0.3973 0.0002 0.1181, 0.3973 0.0002 0.0, 0.3955 0.0309 0.0, 0.3955 0.0309 0.1181, 0.385 0.073 0.0, 0.385 0.073 0.1181, 0.3687 0.1034 0.0, 0.3687 0.1034 0.1181, 0.345 0.1296 0.0, 0.345 0.1296 0.1181, 0.3177 0.1479 0.0, 0.3177 0.1479 0.1181, 0.2882 0.1585 0.0, 0.2882 0.1585 0.1181, 0.2583 -0.154 0.1181, 0.2583 -0.154 0.0, 0.295 -0.1499 0.0, 0.295 -0.1499 0.1181, 0.3237 -0.1393 0.0, 0.3237 -0.1393 0.1181, 0.3479 -0.1231 0.0, 0.3479 -0.1231 0.1181, 0.3664 -0.1036 0.0, 0.3664 -0.1036 0.1181, 0.3826 -0.0763 0.0, 0.3826 -0.0763 0.1181, 0.3933 -0.0424 0.0, 0.3933 -0.0424 0.1181, 0.1643 -0.1327 0.0, 0.1643 -0.1327 0.1181, 0.2061 -0.1482 0.0, 0.2061 -0.1482 0.1181, 0.2061 -0.1482 0.1181
            ]
        }
        coordIndex [
            0,1,2,-1,2,1,3,-1,1,4,3,-1,3,4,5,-1,4,6,5,-1,5,6,7,-1,6,8,7,-1,7,8,9,-1,8,10,9,-1,9,10,11,-1,10,0,11,-1,11,0,2,-1,8,6,10,-1,10,6,4,-1,10,4,0,-1,0,4,1,-1,12,13,14,-1,14,13,15,-1,13,16,15,-1,15,16,17,-1,16,18,17,-1,17,18,19,-1,18,20,19,-1,19,20,21,-1,20,22,21,-1,21,22,23,-1,22,24,23,-1,23,24,25,-1,24,26,25,-1,25,26,27,-1,26,12,27,-1,27,12,14,-1,28,20,29,-1,29,20,18,-1,30,26,28,-1,28,26,24,-1,28,24,20,-1,20,24,22,-1,30,31,26,-1,26,31,32,-1,26,32,12,-1,12,32,33,-1,12,33,34,-1,34,35,12,-1,12,35,29,-1,12,29,13,-1,13,29,18,-1,13,18,16,-1,28,29,36,-1,36,29,37,-1,30,28,38,-1,38,28,36,-1,30,38,39,-1,30,39,31,-1,31,39,40,-1,31,40,32,-1,33,32,41,-1,41,32,40,-1,33,41,42,-1,33,42,34,-1,34,42,43,-1,34,43,35,-1,29,35,37,-1,37,35,43,-1,44,45,46,-1,46,45,47,-1,45,48,47,-1,47,48,49,-1,48,50,49,-1,49,50,51,-1,52,53,54,-1,52,54,55,-1,55,54,56,-1,55,56,57,-1,57,56,58,-1,57,58,59,-1,59,58,60,-1,59,60,61,-1,61,60,62,-1,61,62,63,-1,63,62,64,-1,63,64,65,-1,65,64,66,-1,65,66,67,-1,67,66,51,-1,67,51,50,-1,44,46,68,-1,44,68,69,-1,69,68,70,-1,69,70,71,-1,71,70,72,-1,71,72,73,-1,73,72,74,-1,73,74,75,-1,75,74,76,-1,75,76,77,-1,77,76,78,-1,77,78,79,-1,79,78,53,-1,79,53,52,-1,57,59,80,-1,80,59,61,-1,80,61,81,-1,81,61,63,-1,81,63,82,-1,82,63,65,-1,82,65,83,-1,83,65,67,-1,83,67,84,-1,84,67,50,-1,84,50,85,-1,85,50,48,-1,85,48,86,-1,86,48,45,-1,86,45,87,-1,87,45,44,-1,87,44,88,-1,88,44,69,-1,88,69,89,-1,89,69,71,-1,89,71,90,-1,90,71,73,-1,90,73,91,-1,91,73,75,-1,91,75,92,-1,92,75,77,-1,92,77,93,-1,93,77,79,-1,93,79,94,-1,94,79,52,-1,94,52,95,-1,95,52,55,-1,95,55,96,-1,96,55,57,-1,96,57,80,-1,84,85,97,-1,97,85,98,-1,84,97,99,-1,84,99,83,-1,83,99,100,-1,83,100,82,-1,82,100,101,-1,82,101,81,-1,81,101,102,-1,81,102,80,-1,80,102,103,-1,80,103,96,-1,96,103,104,-1,96,104,95,-1,95,104,105,-1,95,105,94,-1,94,105,106,-1,94,106,93,-1,93,106,107,-1,93,107,92,-1,92,107,108,-1,92,108,91,-1,91,108,109,-1,91,109,90,-1,90,109,110,-1,90,110,89,-1,89,110,111,-1,89,111,88,-1,88,111,112,-1,88,112,87,-1,86,87,113,-1,113,87,112,-1,85,86,98,-1,98,86,113,-1,114,115,116,-1,116,115,117,-1,115,118,117,-1,117,118,119,-1,118,120,119,-1,119,120,121,-1,120,122,121,-1,121,122,123,-1,122,124,123,-1,123,124,125,-1,124,126,125,-1,125,126,127,-1,126,128,127,-1,127,128,129,-1,128,130,129,-1,129,130,131,-1,130,132,131,-1,131,132,133,-1,132,134,133,-1,133,134,135,-1,134,136,135,-1,135,136,137,-1,136,114,137,-1,137,114,116,-1,118,115,114,-1,114,136,118,-1,118,136,134,-1,118,134,120,-1,124,122,126,-1,126,122,120,-1,126,120,128,-1,128,120,134,-1,128,134,130,-1,130,134,132,-1,138,139,140,-1,140,139,141,-1,141,139,142,-1,143,144,145,-1,143,145,146,-1,146,145,147,-1,146,147,142,-1,142,147,148,-1,142,148,141,-1,144,143,149,-1,149,143,150,-1,149,150,151,-1,151,150,152,-1,151,152,153,-1,153,152,154,-1,153,154,155,-1,155,154,156,-1,155,156,157,-1,157,156,158,-1,157,158,159,-1,159,158,160,-1,159,160,161,-1,161,160,162,-1,161,162,163,-1,164,165,166,-1,164,166,167,-1,167,166,168,-1,167,168,169,-1,169,168,170,-1,169,170,171,-1,171,170,172,-1,171,172,173,-1,173,172,174,-1,173,174,175,-1,175,174,176,-1,175,176,177,-1,177,176,163,-1,177,163,162,-1,178,179,180,-1,178,180,181,-1,181,180,165,-1,181,165,164,-1,178,182,179,-1,179,182,183,-1,184,185,186,-1,184,186,187,-1,187,186,183,-1,187,183,182,-1,188,189,190,-1,188,190,191,-1,191,190,192,-1,191,192,193,-1,193,192,194,-1,193,194,195,-1,195,194,196,-1,195,196,197,-1,197,196,198,-1,197,198,199,-1,199,198,200,-1,199,200,201,-1,201,200,185,-1,201,185,184,-1,202,203,204,-1,202,204,205,-1,205,204,206,-1,205,206,207,-1,207,206,208,-1,207,208,209,-1,209,208,210,-1,209,210,211,-1,211,210,212,-1,211,212,213,-1,213,212,214,-1,213,214,215,-1,215,214,189,-1,215,189,188,-1,138,140,216,-1,138,216,217,-1,217,216,218,-1,217,218,219,-1,219,218,203,-1,219,203,202,-1,205,143,202,-1,202,143,146,-1,202,146,219,-1,219,146,142,-1,219,142,217,-1,217,142,139,-1,217,139,138,-1,182,178,187,-1,187,178,181,-1,187,181,184,-1,184,181,164,-1,184,164,201,-1,201,164,167,-1,201,167,199,-1,199,167,169,-1,199,169,197,-1,197,169,171,-1,197,171,195,-1,195,171,173,-1,195,173,193,-1,193,173,175,-1,193,175,191,-1,191,175,177,-1,191,177,188,-1,188,177,162,-1,188,162,215,-1,215,162,160,-1,215,160,213,-1,213,160,158,-1,213,158,211,-1,211,158,156,-1,211,156,209,-1,209,156,154,-1,209,154,207,-1,207,154,152,-1,207,152,205,-1,205,152,150,-1,205,150,143,-1,36,37,38,-1,38,37,43,-1,38,43,39,-1,39,43,42,-1,39,42,40,-1,40,42,41,-1,98,113,97,-1,97,113,112,-1,97,112,111,-1,105,104,97,-1,97,104,103,-1,97,103,99,-1,111,110,97,-1,97,110,109,-1,97,109,108,-1,108,107,97,-1,97,107,106,-1,97,106,105,-1,102,101,103,-1,103,101,100,-1,103,100,99,-1,
        ]
    }
}