%TF.GenerationSoftware,KiCad,Pcbnew,9.0.6*%
%TF.CreationDate,2025-11-21T13:38:12+00:00*%
%TF.ProjectId,temperature_fin,74656d70-6572-4617-9475-72655f66696e,rev?*%
%TF.SameCoordinates,Original*%
%TF.FileFunction,Copper,L2,Bot*%
%TF.FilePolarity,Positive*%
%FSLAX46Y46*%
G04 Gerber Fmt 4.6, Leading zero omitted, Abs format (unit mm)*
G04 Created by KiCad (PCBNEW 9.0.6) date 2025-11-21 13:38:12*
%MOMM*%
%LPD*%
G01*
G04 APERTURE LIST*
%TA.AperFunction,ViaPad*%
%ADD10C,0.600000*%
%TD*%
%TA.AperFunction,Conductor*%
%ADD11C,0.200000*%
%TD*%
G04 APERTURE END LIST*
D10*
%TO.N,GND*%
X134850000Y-86950000D03*
X137975000Y-82800000D03*
X136600000Y-89650000D03*
X136325000Y-97300000D03*
X133075000Y-89250000D03*
%TO.N,SDA*%
X134800000Y-101075000D03*
X135400000Y-85500000D03*
%TO.N,SCL*%
X136650000Y-82925000D03*
X137500000Y-100625000D03*
%TD*%
D11*
%TO.N,SDA*%
X135400000Y-85500000D02*
X134950000Y-85500000D01*
X134601000Y-95451000D02*
X134800000Y-95650000D01*
X134025000Y-89725058D02*
X134601000Y-90301058D01*
X134601000Y-90301058D02*
X134601000Y-95451000D01*
X134800000Y-95650000D02*
X134800000Y-101075000D01*
X134025000Y-86425000D02*
X134025000Y-89725058D01*
X134950000Y-85500000D02*
X134025000Y-86425000D01*
%TO.N,SCL*%
X137250000Y-93900000D02*
X137699000Y-93451000D01*
X137699000Y-90301058D02*
X137875000Y-90125058D01*
X137699000Y-93451000D02*
X137699000Y-90301058D01*
X136650000Y-82925000D02*
X136650000Y-83050000D01*
X137500000Y-100625000D02*
X137384684Y-100625000D01*
X136900000Y-99100000D02*
X137250000Y-98750000D01*
X136900000Y-100300000D02*
X136900000Y-99100000D01*
X137384684Y-100625000D02*
X137309684Y-100700000D01*
X137300000Y-100700000D02*
X136900000Y-100300000D01*
X136650000Y-83050000D02*
X137875000Y-84275000D01*
X137250000Y-98750000D02*
X137250000Y-93900000D01*
X137875000Y-90125058D02*
X137875000Y-84275000D01*
X137309684Y-100700000D02*
X137300000Y-100700000D01*
%TD*%
%TA.AperFunction,Conductor*%
%TO.N,GND*%
G36*
X140592539Y-79320185D02*
G01*
X140638294Y-79372989D01*
X140649500Y-79424500D01*
X140649500Y-85087956D01*
X140629815Y-85154995D01*
X140577011Y-85200750D01*
X140567927Y-85204209D01*
X140567949Y-85204265D01*
X140563629Y-85205960D01*
X140347514Y-85310035D01*
X140347505Y-85310040D01*
X140149308Y-85445168D01*
X139973463Y-85608329D01*
X139973460Y-85608331D01*
X139823897Y-85795878D01*
X139703957Y-86003619D01*
X139703953Y-86003627D01*
X139616319Y-86226915D01*
X139616314Y-86226932D01*
X139562937Y-86460791D01*
X139545012Y-86699995D01*
X139545012Y-86700004D01*
X139562937Y-86939208D01*
X139562938Y-86939211D01*
X139616317Y-87173079D01*
X139616319Y-87173084D01*
X139703953Y-87396372D01*
X139703956Y-87396378D01*
X139823897Y-87604122D01*
X139973461Y-87791669D01*
X140149306Y-87954830D01*
X140347506Y-88089960D01*
X140563632Y-88194041D01*
X140563639Y-88194043D01*
X140567961Y-88195740D01*
X140567421Y-88197113D01*
X140620298Y-88232111D01*
X140648464Y-88296051D01*
X140649500Y-88312044D01*
X140649500Y-89925500D01*
X140629815Y-89992539D01*
X140577011Y-90038294D01*
X140525500Y-90049500D01*
X138599500Y-90049500D01*
X138532461Y-90029815D01*
X138486706Y-89977011D01*
X138475500Y-89925500D01*
X138475500Y-84364060D01*
X138475501Y-84364047D01*
X138475501Y-84195944D01*
X138434576Y-84043214D01*
X138434573Y-84043209D01*
X138355524Y-83906290D01*
X138355518Y-83906282D01*
X137486819Y-83037583D01*
X137453334Y-82976260D01*
X137450500Y-82949902D01*
X137450500Y-82846155D01*
X137450499Y-82846153D01*
X137419738Y-82691510D01*
X137419737Y-82691503D01*
X137419735Y-82691498D01*
X137359397Y-82545827D01*
X137359390Y-82545814D01*
X137271789Y-82414711D01*
X137271786Y-82414707D01*
X137160292Y-82303213D01*
X137160288Y-82303210D01*
X137029185Y-82215609D01*
X137029172Y-82215602D01*
X136883501Y-82155264D01*
X136883489Y-82155261D01*
X136728845Y-82124500D01*
X136728842Y-82124500D01*
X136571158Y-82124500D01*
X136571155Y-82124500D01*
X136416510Y-82155261D01*
X136416498Y-82155264D01*
X136270827Y-82215602D01*
X136270814Y-82215609D01*
X136139711Y-82303210D01*
X136139707Y-82303213D01*
X136028213Y-82414707D01*
X136028210Y-82414711D01*
X135940609Y-82545814D01*
X135940602Y-82545827D01*
X135880264Y-82691498D01*
X135880261Y-82691510D01*
X135849500Y-82846153D01*
X135849500Y-83003846D01*
X135880261Y-83158489D01*
X135880264Y-83158501D01*
X135940602Y-83304172D01*
X135940609Y-83304185D01*
X136028210Y-83435288D01*
X136028213Y-83435292D01*
X136139707Y-83546786D01*
X136139711Y-83546789D01*
X136270814Y-83634390D01*
X136270827Y-83634397D01*
X136358230Y-83670599D01*
X136416503Y-83694737D01*
X136416510Y-83694738D01*
X136422336Y-83696506D01*
X136421940Y-83697808D01*
X136477714Y-83726977D01*
X136479300Y-83728535D01*
X137238181Y-84487416D01*
X137271666Y-84548739D01*
X137274500Y-84575097D01*
X137274500Y-89824960D01*
X137254815Y-89891999D01*
X137253170Y-89894493D01*
X137246541Y-89904280D01*
X137218480Y-89932342D01*
X137168360Y-90019153D01*
X137166141Y-90022994D01*
X137166133Y-90023008D01*
X137139425Y-90069267D01*
X137139424Y-90069268D01*
X137139423Y-90069273D01*
X137098499Y-90222001D01*
X137098499Y-90222003D01*
X137098499Y-90390104D01*
X137098500Y-90390117D01*
X137098500Y-93150902D01*
X137078815Y-93217941D01*
X137062181Y-93238583D01*
X136769481Y-93531282D01*
X136769479Y-93531285D01*
X136719361Y-93618094D01*
X136719359Y-93618096D01*
X136690425Y-93668209D01*
X136690424Y-93668210D01*
X136690423Y-93668215D01*
X136649499Y-93820943D01*
X136649499Y-93820945D01*
X136649499Y-93989046D01*
X136649500Y-93989059D01*
X136649500Y-98449901D01*
X136629815Y-98516940D01*
X136613181Y-98537582D01*
X136524214Y-98626548D01*
X136524215Y-98626549D01*
X136419478Y-98731286D01*
X136369361Y-98818094D01*
X136369359Y-98818096D01*
X136340425Y-98868209D01*
X136340424Y-98868210D01*
X136340423Y-98868215D01*
X136299499Y-99020943D01*
X136299499Y-99020945D01*
X136299499Y-99189046D01*
X136299500Y-99189059D01*
X136299500Y-100213330D01*
X136299499Y-100213348D01*
X136299499Y-100379054D01*
X136299498Y-100379054D01*
X136299499Y-100379057D01*
X136340423Y-100531785D01*
X136340424Y-100531787D01*
X136340423Y-100531787D01*
X136357248Y-100560927D01*
X136357250Y-100560929D01*
X136357251Y-100560931D01*
X136398737Y-100632787D01*
X136419479Y-100668715D01*
X136538349Y-100787585D01*
X136538355Y-100787590D01*
X136819478Y-101068713D01*
X136819480Y-101068716D01*
X136853781Y-101103017D01*
X136869201Y-101121805D01*
X136878212Y-101135290D01*
X136878217Y-101135296D01*
X136989707Y-101246786D01*
X136989711Y-101246789D01*
X137028037Y-101272398D01*
X137072842Y-101326010D01*
X137081549Y-101395335D01*
X137051395Y-101458363D01*
X136991952Y-101495082D01*
X136959146Y-101499500D01*
X135676200Y-101499500D01*
X135609161Y-101479815D01*
X135563406Y-101427011D01*
X135553462Y-101357853D01*
X135561639Y-101328048D01*
X135569735Y-101308501D01*
X135569737Y-101308497D01*
X135600500Y-101153842D01*
X135600500Y-100996158D01*
X135600500Y-100996155D01*
X135600499Y-100996153D01*
X135569738Y-100841510D01*
X135569737Y-100841503D01*
X135544477Y-100780520D01*
X135509397Y-100695827D01*
X135509390Y-100695814D01*
X135421398Y-100564125D01*
X135400520Y-100497447D01*
X135400500Y-100495234D01*
X135400500Y-95570945D01*
X135400500Y-95570943D01*
X135359577Y-95418216D01*
X135359573Y-95418209D01*
X135280524Y-95281290D01*
X135280518Y-95281282D01*
X135237819Y-95238583D01*
X135204334Y-95177260D01*
X135201500Y-95150902D01*
X135201500Y-90390117D01*
X135201501Y-90390104D01*
X135201501Y-90222003D01*
X135201501Y-90222001D01*
X135160577Y-90069273D01*
X135131639Y-90019153D01*
X135081520Y-89932342D01*
X134969716Y-89820538D01*
X134969715Y-89820537D01*
X134965385Y-89816207D01*
X134965374Y-89816197D01*
X134661819Y-89512642D01*
X134628334Y-89451319D01*
X134625500Y-89424961D01*
X134625500Y-86725097D01*
X134645185Y-86658058D01*
X134661819Y-86637416D01*
X134811821Y-86487414D01*
X135011041Y-86288193D01*
X135072362Y-86254710D01*
X135142053Y-86259694D01*
X135146116Y-86261292D01*
X135166503Y-86269737D01*
X135321153Y-86300499D01*
X135321156Y-86300500D01*
X135321158Y-86300500D01*
X135478844Y-86300500D01*
X135478845Y-86300499D01*
X135633497Y-86269737D01*
X135779179Y-86209394D01*
X135910289Y-86121789D01*
X136021789Y-86010289D01*
X136109394Y-85879179D01*
X136169737Y-85733497D01*
X136200500Y-85578842D01*
X136200500Y-85421158D01*
X136200500Y-85421155D01*
X136200499Y-85421153D01*
X136169738Y-85266510D01*
X136169737Y-85266503D01*
X136169735Y-85266498D01*
X136109397Y-85120827D01*
X136109390Y-85120814D01*
X136021789Y-84989711D01*
X136021786Y-84989707D01*
X135910292Y-84878213D01*
X135910288Y-84878210D01*
X135779185Y-84790609D01*
X135779172Y-84790602D01*
X135633501Y-84730264D01*
X135633489Y-84730261D01*
X135478845Y-84699500D01*
X135478842Y-84699500D01*
X135321158Y-84699500D01*
X135321155Y-84699500D01*
X135166510Y-84730261D01*
X135166498Y-84730264D01*
X135020827Y-84790602D01*
X135020815Y-84790609D01*
X134889712Y-84878210D01*
X134885002Y-84882076D01*
X134884066Y-84880936D01*
X134835410Y-84909018D01*
X134718220Y-84940421D01*
X134718209Y-84940426D01*
X134581290Y-85019475D01*
X134581282Y-85019481D01*
X133544479Y-86056284D01*
X133519467Y-86099607D01*
X133508895Y-86117920D01*
X133465423Y-86193215D01*
X133424499Y-86345943D01*
X133424499Y-86345945D01*
X133424499Y-86514046D01*
X133424500Y-86514059D01*
X133424500Y-89638388D01*
X133424499Y-89638406D01*
X133424499Y-89646001D01*
X133424499Y-89804115D01*
X133441797Y-89868671D01*
X133448425Y-89893407D01*
X133446762Y-89963256D01*
X133407599Y-90021119D01*
X133343371Y-90048623D01*
X133328650Y-90049500D01*
X131774500Y-90049500D01*
X131707461Y-90029815D01*
X131661706Y-89977011D01*
X131650500Y-89925500D01*
X131650500Y-88312044D01*
X131670185Y-88245005D01*
X131722989Y-88199250D01*
X131732061Y-88195796D01*
X131732039Y-88195740D01*
X131736355Y-88194044D01*
X131736368Y-88194041D01*
X131952494Y-88089960D01*
X132150694Y-87954830D01*
X132326539Y-87791669D01*
X132476103Y-87604122D01*
X132596044Y-87396378D01*
X132683683Y-87173079D01*
X132737062Y-86939211D01*
X132749573Y-86772262D01*
X132754988Y-86700004D01*
X132754988Y-86699995D01*
X132737062Y-86460791D01*
X132737062Y-86460789D01*
X132683683Y-86226921D01*
X132596044Y-86003622D01*
X132476103Y-85795878D01*
X132326539Y-85608331D01*
X132150694Y-85445170D01*
X131952494Y-85310040D01*
X131952485Y-85310035D01*
X131736370Y-85205960D01*
X131736368Y-85205959D01*
X131736365Y-85205958D01*
X131732051Y-85204265D01*
X131732585Y-85202901D01*
X131679676Y-85167859D01*
X131651531Y-85103909D01*
X131650500Y-85087956D01*
X131650500Y-79424500D01*
X131670185Y-79357461D01*
X131722989Y-79311706D01*
X131774500Y-79300500D01*
X140525500Y-79300500D01*
X140592539Y-79320185D01*
G37*
%TD.AperFunction*%
%TD*%
M02*
