%TF.GenerationSoftware,KiCad,Pcbnew,9.0.6*%
%TF.CreationDate,2025-11-21T13:38:12+00:00*%
%TF.ProjectId,temperature_fin,74656d70-6572-4617-9475-72655f66696e,rev?*%
%TF.SameCoordinates,Original*%
%TF.FileFunction,Copper,L1,Top*%
%TF.FilePolarity,Positive*%
%FSLAX46Y46*%
G04 Gerber Fmt 4.6, Leading zero omitted, Abs format (unit mm)*
G04 Created by KiCad (PCBNEW 9.0.6) date 2025-11-21 13:38:12*
%MOMM*%
%LPD*%
G01*
G04 APERTURE LIST*
G04 Aperture macros list*
%AMRoundRect*
0 Rectangle with rounded corners*
0 $1 Rounding radius*
0 $2 $3 $4 $5 $6 $7 $8 $9 X,Y pos of 4 corners*
0 Add a 4 corners polygon primitive as box body*
4,1,4,$2,$3,$4,$5,$6,$7,$8,$9,$2,$3,0*
0 Add four circle primitives for the rounded corners*
1,1,$1+$1,$2,$3*
1,1,$1+$1,$4,$5*
1,1,$1+$1,$6,$7*
1,1,$1+$1,$8,$9*
0 Add four rect primitives between the rounded corners*
20,1,$1+$1,$2,$3,$4,$5,0*
20,1,$1+$1,$4,$5,$6,$7,0*
20,1,$1+$1,$6,$7,$8,$9,0*
20,1,$1+$1,$8,$9,$2,$3,0*%
%AMFreePoly0*
4,1,14,0.233536,0.158536,0.235000,0.155000,0.235000,0.075000,0.233536,0.071464,0.003536,-0.158536,0.000000,-0.160000,-0.230000,-0.160000,-0.233536,-0.158536,-0.235000,-0.155000,-0.235000,0.155000,-0.233536,0.158536,-0.230000,0.160000,0.230000,0.160000,0.233536,0.158536,0.233536,0.158536,$1*%
%AMFreePoly1*
4,1,14,0.003536,0.158536,0.233536,-0.071464,0.235000,-0.075000,0.235000,-0.155000,0.233536,-0.158536,0.230000,-0.160000,-0.230000,-0.160000,-0.233536,-0.158536,-0.235000,-0.155000,-0.235000,0.155000,-0.233536,0.158536,-0.230000,0.160000,0.000000,0.160000,0.003536,0.158536,0.003536,0.158536,$1*%
%AMFreePoly2*
4,1,14,0.233536,0.158536,0.235000,0.155000,0.235000,-0.155000,0.233536,-0.158536,0.230000,-0.160000,-0.230000,-0.160000,-0.233536,-0.158536,-0.235000,-0.155000,-0.235000,-0.075000,-0.233536,-0.071464,-0.003536,0.158536,0.000000,0.160000,0.230000,0.160000,0.233536,0.158536,0.233536,0.158536,$1*%
%AMFreePoly3*
4,1,14,0.233536,0.158536,0.235000,0.155000,0.235000,-0.155000,0.233536,-0.158536,0.230000,-0.160000,0.000000,-0.160000,-0.003536,-0.158536,-0.233536,0.071464,-0.235000,0.075000,-0.235000,0.155000,-0.233536,0.158536,-0.230000,0.160000,0.230000,0.160000,0.233536,0.158536,0.233536,0.158536,$1*%
%AMFreePoly4*
4,1,13,0.003536,0.413658,0.413658,0.003536,0.415122,0.000000,0.413658,-0.003536,0.003536,-0.413658,0.000000,-0.415122,-0.003536,-0.413658,-0.413661,-0.003536,-0.415125,0.000000,-0.413661,0.003536,-0.003536,0.413658,0.000000,0.415122,0.003536,0.413658,0.003536,0.413658,$1*%
G04 Aperture macros list end*
%TA.AperFunction,SMDPad,CuDef*%
%ADD10RoundRect,0.140000X-0.140000X-0.170000X0.140000X-0.170000X0.140000X0.170000X-0.140000X0.170000X0*%
%TD*%
%TA.AperFunction,SMDPad,CuDef*%
%ADD11RoundRect,0.093750X0.093750X0.106250X-0.093750X0.106250X-0.093750X-0.106250X0.093750X-0.106250X0*%
%TD*%
%TA.AperFunction,HeatsinkPad*%
%ADD12R,1.000000X1.600000*%
%TD*%
%TA.AperFunction,SMDPad,CuDef*%
%ADD13RoundRect,0.140000X0.140000X0.170000X-0.140000X0.170000X-0.140000X-0.170000X0.140000X-0.170000X0*%
%TD*%
%TA.AperFunction,SMDPad,CuDef*%
%ADD14FreePoly0,90.000000*%
%TD*%
%TA.AperFunction,SMDPad,CuDef*%
%ADD15FreePoly1,90.000000*%
%TD*%
%TA.AperFunction,SMDPad,CuDef*%
%ADD16FreePoly2,90.000000*%
%TD*%
%TA.AperFunction,SMDPad,CuDef*%
%ADD17FreePoly3,90.000000*%
%TD*%
%TA.AperFunction,SMDPad,CuDef*%
%ADD18FreePoly4,90.000000*%
%TD*%
%TA.AperFunction,SMDPad,CuDef*%
%ADD19RoundRect,0.150000X0.150000X0.625000X-0.150000X0.625000X-0.150000X-0.625000X0.150000X-0.625000X0*%
%TD*%
%TA.AperFunction,SMDPad,CuDef*%
%ADD20RoundRect,0.250000X0.350000X0.650000X-0.350000X0.650000X-0.350000X-0.650000X0.350000X-0.650000X0*%
%TD*%
%TA.AperFunction,ViaPad*%
%ADD21C,0.600000*%
%TD*%
%TA.AperFunction,Conductor*%
%ADD22C,0.200000*%
%TD*%
G04 APERTURE END LIST*
D10*
%TO.P,C3,1*%
%TO.N,+2V8*%
X135670000Y-98143000D03*
%TO.P,C3,2*%
%TO.N,GND*%
X136630000Y-98143000D03*
%TD*%
D11*
%TO.P,U1,1,SCL*%
%TO.N,SCL*%
X137000000Y-100618000D03*
%TO.P,U1,2,GND*%
%TO.N,GND*%
X137000000Y-99968000D03*
%TO.P,U1,3,ALERT*%
%TO.N,unconnected-(U1-ALERT-Pad3)*%
X137000000Y-99318000D03*
%TO.P,U1,4,ADD0*%
%TO.N,+2V8*%
X135225000Y-99318000D03*
%TO.P,U1,5,V+*%
X135225000Y-99968000D03*
%TO.P,U1,6,SDA*%
%TO.N,SDA*%
X135225000Y-100618000D03*
D12*
%TO.P,U1,7*%
%TO.N,N/C*%
X136112500Y-99968000D03*
%TD*%
D13*
%TO.P,C1,1*%
%TO.N,+2V8*%
X134860000Y-89250000D03*
%TO.P,C1,2*%
%TO.N,GND*%
X133900000Y-89250000D03*
%TD*%
D14*
%TO.P,U2,1,OUT*%
%TO.N,+2V8*%
X135800000Y-88910000D03*
D15*
%TO.P,U2,2,GND*%
%TO.N,GND*%
X136450000Y-88910000D03*
D16*
%TO.P,U2,3,EN*%
%TO.N,+3V3*%
X136450000Y-88050000D03*
D17*
%TO.P,U2,4,IN*%
X135800000Y-88050000D03*
D18*
%TO.P,U2,5,THERMAL_PAD*%
%TO.N,GND*%
X136125000Y-88480000D03*
%TD*%
D13*
%TO.P,C2,1*%
%TO.N,+3V3*%
X136585000Y-86975000D03*
%TO.P,C2,2*%
%TO.N,GND*%
X135625000Y-86975000D03*
%TD*%
D19*
%TO.P,J1,1,Pin_1*%
%TO.N,GND*%
X137650000Y-84200000D03*
%TO.P,J1,2,Pin_2*%
%TO.N,SCL*%
X136650000Y-84200000D03*
%TO.P,J1,3,Pin_3*%
%TO.N,SDA*%
X135650000Y-84200000D03*
%TO.P,J1,4,Pin_4*%
%TO.N,+3V3*%
X134650000Y-84200000D03*
D20*
%TO.P,J1,MP*%
%TO.N,N/C*%
X138950000Y-80325000D03*
X133350000Y-80325000D03*
%TD*%
D21*
%TO.N,GND*%
X134850000Y-86950000D03*
X137975000Y-82800000D03*
X136600000Y-89650000D03*
X136325000Y-97300000D03*
X133075000Y-89250000D03*
%TO.N,SDA*%
X134800000Y-101075000D03*
X135400000Y-85500000D03*
%TO.N,SCL*%
X136650000Y-82925000D03*
X137500000Y-100625000D03*
%TD*%
D22*
%TO.N,+2V8*%
X134860000Y-89250000D02*
X135460000Y-89250000D01*
X135225000Y-98588000D02*
X135225000Y-99968000D01*
X134860000Y-90660000D02*
X135670000Y-91470000D01*
X134860000Y-89250000D02*
X134860000Y-90660000D01*
X135670000Y-91470000D02*
X135670000Y-98143000D01*
X135670000Y-98143000D02*
X135225000Y-98588000D01*
X135460000Y-89250000D02*
X135748992Y-88961008D01*
%TO.N,GND*%
X136325000Y-97300000D02*
X136630000Y-97605000D01*
X137650000Y-84200000D02*
X137650000Y-83125000D01*
X137500000Y-98425000D02*
X137218000Y-98143000D01*
X137650000Y-83125000D02*
X137975000Y-82800000D01*
X136600000Y-89650000D02*
X136600000Y-89060000D01*
X137218000Y-98143000D02*
X136630000Y-98143000D01*
X136125000Y-88585000D02*
X136450000Y-88910000D01*
X137187499Y-99968000D02*
X137500000Y-99655499D01*
X136600000Y-89060000D02*
X136450000Y-88910000D01*
X134850000Y-86950000D02*
X135600000Y-86950000D01*
X137500000Y-99655499D02*
X137500000Y-98425000D01*
X136630000Y-97605000D02*
X136630000Y-98143000D01*
X136125000Y-88480000D02*
X136125000Y-88585000D01*
X137000000Y-99968000D02*
X137187499Y-99968000D01*
X133900000Y-89250000D02*
X133075000Y-89250000D01*
X135600000Y-86950000D02*
X135625000Y-86975000D01*
%TO.N,+3V3*%
X134575000Y-84275000D02*
X134575000Y-85700000D01*
X136150000Y-86250000D02*
X136585000Y-86685000D01*
X134575000Y-85700000D02*
X135125000Y-86250000D01*
X136585000Y-86685000D02*
X136585000Y-86975000D01*
X134650000Y-84200000D02*
X134575000Y-84275000D01*
X135125000Y-86250000D02*
X136150000Y-86250000D01*
%TO.N,SDA*%
X135182000Y-100618000D02*
X135225000Y-100618000D01*
X135650000Y-84200000D02*
X135650000Y-85250000D01*
X134800000Y-101000000D02*
X135182000Y-100618000D01*
X134800000Y-101075000D02*
X134800000Y-101000000D01*
X135650000Y-85250000D02*
X135400000Y-85500000D01*
%TO.N,SCL*%
X136650000Y-84200000D02*
X136650000Y-82925000D01*
X137500000Y-100625000D02*
X137425000Y-100625000D01*
X137425000Y-100625000D02*
X137418000Y-100618000D01*
X137418000Y-100618000D02*
X137000000Y-100618000D01*
%TD*%
%TA.AperFunction,Conductor*%
%TO.N,+3V3*%
G36*
X137043039Y-86619685D02*
G01*
X137088794Y-86672489D01*
X137100000Y-86724000D01*
X137100000Y-88176000D01*
X137097449Y-88184685D01*
X137098738Y-88193647D01*
X137087759Y-88217687D01*
X137080315Y-88243039D01*
X137073474Y-88248966D01*
X137069713Y-88257203D01*
X137047478Y-88271492D01*
X137027511Y-88288794D01*
X137016996Y-88291081D01*
X137010935Y-88294977D01*
X136976000Y-88300000D01*
X136781958Y-88300000D01*
X136714919Y-88280315D01*
X136694277Y-88263681D01*
X136312740Y-87882143D01*
X136312739Y-87882142D01*
X136291945Y-87868248D01*
X136229849Y-87826757D01*
X136227814Y-87825914D01*
X136222806Y-87823839D01*
X136222787Y-87823831D01*
X136222778Y-87823828D01*
X136222773Y-87823826D01*
X136124997Y-87804378D01*
X136124996Y-87804378D01*
X136124995Y-87804378D01*
X136027226Y-87823826D01*
X136027219Y-87823828D01*
X136020154Y-87826755D01*
X135937260Y-87882142D01*
X135937259Y-87882143D01*
X135611681Y-88207722D01*
X135550358Y-88241207D01*
X135480666Y-88236223D01*
X135424733Y-88194351D01*
X135400316Y-88128887D01*
X135400000Y-88120041D01*
X135400000Y-87659499D01*
X135419685Y-87592460D01*
X135472489Y-87546705D01*
X135523996Y-87535499D01*
X135795734Y-87535499D01*
X135795739Y-87535499D01*
X135795739Y-87535498D01*
X135841454Y-87528258D01*
X135887170Y-87521018D01*
X135887171Y-87521018D01*
X135887172Y-87521017D01*
X135887175Y-87521017D01*
X135997391Y-87464859D01*
X136062250Y-87400000D01*
X136105000Y-87400000D01*
X136105000Y-87337862D01*
X136141017Y-87267175D01*
X136141017Y-87267173D01*
X136141018Y-87267172D01*
X136141018Y-87267171D01*
X136144901Y-87242650D01*
X136155500Y-87175735D01*
X136155499Y-86774266D01*
X136150610Y-86743396D01*
X136159566Y-86674103D01*
X136204563Y-86620652D01*
X136271314Y-86600013D01*
X136273084Y-86600000D01*
X136976000Y-86600000D01*
X137043039Y-86619685D01*
G37*
%TD.AperFunction*%
%TD*%
M02*
