%TF.GenerationSoftware,KiCad,Pcbnew,9.0.6*%
%TF.CreationDate,2025-11-21T13:38:13+00:00*%
%TF.ProjectId,temperature_fin,74656d70-6572-4617-9475-72655f66696e,rev?*%
%TF.SameCoordinates,Original*%
%TF.FileFunction,Legend,Bot*%
%TF.FilePolarity,Positive*%
%FSLAX46Y46*%
G04 Gerber Fmt 4.6, Leading zero omitted, Abs format (unit mm)*
G04 Created by KiCad (PCBNEW 9.0.6) date 2025-11-21 13:38:13*
%MOMM*%
%LPD*%
G01*
G04 APERTURE LIST*
%ADD10C,0.150000*%
G04 APERTURE END LIST*
D10*
X138622744Y-80399248D02*
X138622744Y-79649248D01*
X138622744Y-79649248D02*
X138337030Y-79649248D01*
X138337030Y-79649248D02*
X138265601Y-79684962D01*
X138265601Y-79684962D02*
X138229887Y-79720676D01*
X138229887Y-79720676D02*
X138194173Y-79792105D01*
X138194173Y-79792105D02*
X138194173Y-79899248D01*
X138194173Y-79899248D02*
X138229887Y-79970676D01*
X138229887Y-79970676D02*
X138265601Y-80006391D01*
X138265601Y-80006391D02*
X138337030Y-80042105D01*
X138337030Y-80042105D02*
X138622744Y-80042105D01*
X137872744Y-80399248D02*
X137872744Y-79899248D01*
X137872744Y-79649248D02*
X137908458Y-79684962D01*
X137908458Y-79684962D02*
X137872744Y-79720676D01*
X137872744Y-79720676D02*
X137837030Y-79684962D01*
X137837030Y-79684962D02*
X137872744Y-79649248D01*
X137872744Y-79649248D02*
X137872744Y-79720676D01*
X137515601Y-79899248D02*
X137515601Y-80399248D01*
X137515601Y-79970676D02*
X137479887Y-79934962D01*
X137479887Y-79934962D02*
X137408458Y-79899248D01*
X137408458Y-79899248D02*
X137301315Y-79899248D01*
X137301315Y-79899248D02*
X137229887Y-79934962D01*
X137229887Y-79934962D02*
X137194173Y-80006391D01*
X137194173Y-80006391D02*
X137194173Y-80399248D01*
X136729887Y-80399248D02*
X136801316Y-80363534D01*
X136801316Y-80363534D02*
X136837030Y-80327819D01*
X136837030Y-80327819D02*
X136872744Y-80256391D01*
X136872744Y-80256391D02*
X136872744Y-80042105D01*
X136872744Y-80042105D02*
X136837030Y-79970676D01*
X136837030Y-79970676D02*
X136801316Y-79934962D01*
X136801316Y-79934962D02*
X136729887Y-79899248D01*
X136729887Y-79899248D02*
X136622744Y-79899248D01*
X136622744Y-79899248D02*
X136551316Y-79934962D01*
X136551316Y-79934962D02*
X136515602Y-79970676D01*
X136515602Y-79970676D02*
X136479887Y-80042105D01*
X136479887Y-80042105D02*
X136479887Y-80256391D01*
X136479887Y-80256391D02*
X136515602Y-80327819D01*
X136515602Y-80327819D02*
X136551316Y-80363534D01*
X136551316Y-80363534D02*
X136622744Y-80399248D01*
X136622744Y-80399248D02*
X136729887Y-80399248D01*
X135837031Y-79899248D02*
X135837031Y-80399248D01*
X136158459Y-79899248D02*
X136158459Y-80292105D01*
X136158459Y-80292105D02*
X136122745Y-80363534D01*
X136122745Y-80363534D02*
X136051316Y-80399248D01*
X136051316Y-80399248D02*
X135944173Y-80399248D01*
X135944173Y-80399248D02*
X135872745Y-80363534D01*
X135872745Y-80363534D02*
X135837031Y-80327819D01*
X135587031Y-79899248D02*
X135301317Y-79899248D01*
X135479888Y-79649248D02*
X135479888Y-80292105D01*
X135479888Y-80292105D02*
X135444174Y-80363534D01*
X135444174Y-80363534D02*
X135372745Y-80399248D01*
X135372745Y-80399248D02*
X135301317Y-80399248D01*
X138229887Y-81606706D02*
X138658458Y-81606706D01*
X138444173Y-81606706D02*
X138444173Y-80856706D01*
X138444173Y-80856706D02*
X138515601Y-80963849D01*
X138515601Y-80963849D02*
X138587030Y-81035277D01*
X138587030Y-81035277D02*
X138658458Y-81070992D01*
X137337029Y-81213849D02*
X136765601Y-81213849D01*
X136765601Y-81428134D02*
X137337029Y-81428134D01*
X135908458Y-80856706D02*
X135444172Y-80856706D01*
X135444172Y-80856706D02*
X135694172Y-81142420D01*
X135694172Y-81142420D02*
X135587029Y-81142420D01*
X135587029Y-81142420D02*
X135515601Y-81178134D01*
X135515601Y-81178134D02*
X135479886Y-81213849D01*
X135479886Y-81213849D02*
X135444172Y-81285277D01*
X135444172Y-81285277D02*
X135444172Y-81463849D01*
X135444172Y-81463849D02*
X135479886Y-81535277D01*
X135479886Y-81535277D02*
X135515601Y-81570992D01*
X135515601Y-81570992D02*
X135587029Y-81606706D01*
X135587029Y-81606706D02*
X135801315Y-81606706D01*
X135801315Y-81606706D02*
X135872743Y-81570992D01*
X135872743Y-81570992D02*
X135908458Y-81535277D01*
X135229886Y-80856706D02*
X134979886Y-81606706D01*
X134979886Y-81606706D02*
X134729886Y-80856706D01*
X134551315Y-80856706D02*
X134087029Y-80856706D01*
X134087029Y-80856706D02*
X134337029Y-81142420D01*
X134337029Y-81142420D02*
X134229886Y-81142420D01*
X134229886Y-81142420D02*
X134158458Y-81178134D01*
X134158458Y-81178134D02*
X134122743Y-81213849D01*
X134122743Y-81213849D02*
X134087029Y-81285277D01*
X134087029Y-81285277D02*
X134087029Y-81463849D01*
X134087029Y-81463849D02*
X134122743Y-81535277D01*
X134122743Y-81535277D02*
X134158458Y-81570992D01*
X134158458Y-81570992D02*
X134229886Y-81606706D01*
X134229886Y-81606706D02*
X134444172Y-81606706D01*
X134444172Y-81606706D02*
X134515600Y-81570992D01*
X134515600Y-81570992D02*
X134551315Y-81535277D01*
X133087028Y-80856706D02*
X133087028Y-81035277D01*
X133265600Y-80963849D02*
X133087028Y-81035277D01*
X133087028Y-81035277D02*
X132908457Y-80963849D01*
X133194171Y-81178134D02*
X133087028Y-81035277D01*
X133087028Y-81035277D02*
X132979885Y-81178134D01*
X138658458Y-82135592D02*
X138622744Y-82099878D01*
X138622744Y-82099878D02*
X138551316Y-82064164D01*
X138551316Y-82064164D02*
X138372744Y-82064164D01*
X138372744Y-82064164D02*
X138301316Y-82099878D01*
X138301316Y-82099878D02*
X138265601Y-82135592D01*
X138265601Y-82135592D02*
X138229887Y-82207021D01*
X138229887Y-82207021D02*
X138229887Y-82278450D01*
X138229887Y-82278450D02*
X138265601Y-82385592D01*
X138265601Y-82385592D02*
X138694173Y-82814164D01*
X138694173Y-82814164D02*
X138229887Y-82814164D01*
X137337029Y-82421307D02*
X136765601Y-82421307D01*
X136765601Y-82635592D02*
X137337029Y-82635592D01*
X135872743Y-82778450D02*
X135765601Y-82814164D01*
X135765601Y-82814164D02*
X135587029Y-82814164D01*
X135587029Y-82814164D02*
X135515601Y-82778450D01*
X135515601Y-82778450D02*
X135479886Y-82742735D01*
X135479886Y-82742735D02*
X135444172Y-82671307D01*
X135444172Y-82671307D02*
X135444172Y-82599878D01*
X135444172Y-82599878D02*
X135479886Y-82528450D01*
X135479886Y-82528450D02*
X135515601Y-82492735D01*
X135515601Y-82492735D02*
X135587029Y-82457021D01*
X135587029Y-82457021D02*
X135729886Y-82421307D01*
X135729886Y-82421307D02*
X135801315Y-82385592D01*
X135801315Y-82385592D02*
X135837029Y-82349878D01*
X135837029Y-82349878D02*
X135872743Y-82278450D01*
X135872743Y-82278450D02*
X135872743Y-82207021D01*
X135872743Y-82207021D02*
X135837029Y-82135592D01*
X135837029Y-82135592D02*
X135801315Y-82099878D01*
X135801315Y-82099878D02*
X135729886Y-82064164D01*
X135729886Y-82064164D02*
X135551315Y-82064164D01*
X135551315Y-82064164D02*
X135444172Y-82099878D01*
X135122743Y-82814164D02*
X135122743Y-82064164D01*
X135122743Y-82064164D02*
X134944172Y-82064164D01*
X134944172Y-82064164D02*
X134837029Y-82099878D01*
X134837029Y-82099878D02*
X134765600Y-82171307D01*
X134765600Y-82171307D02*
X134729886Y-82242735D01*
X134729886Y-82242735D02*
X134694172Y-82385592D01*
X134694172Y-82385592D02*
X134694172Y-82492735D01*
X134694172Y-82492735D02*
X134729886Y-82635592D01*
X134729886Y-82635592D02*
X134765600Y-82707021D01*
X134765600Y-82707021D02*
X134837029Y-82778450D01*
X134837029Y-82778450D02*
X134944172Y-82814164D01*
X134944172Y-82814164D02*
X135122743Y-82814164D01*
X134408457Y-82599878D02*
X134051315Y-82599878D01*
X134479886Y-82814164D02*
X134229886Y-82064164D01*
X134229886Y-82064164D02*
X133979886Y-82814164D01*
X138694173Y-83271622D02*
X138229887Y-83271622D01*
X138229887Y-83271622D02*
X138479887Y-83557336D01*
X138479887Y-83557336D02*
X138372744Y-83557336D01*
X138372744Y-83557336D02*
X138301316Y-83593050D01*
X138301316Y-83593050D02*
X138265601Y-83628765D01*
X138265601Y-83628765D02*
X138229887Y-83700193D01*
X138229887Y-83700193D02*
X138229887Y-83878765D01*
X138229887Y-83878765D02*
X138265601Y-83950193D01*
X138265601Y-83950193D02*
X138301316Y-83985908D01*
X138301316Y-83985908D02*
X138372744Y-84021622D01*
X138372744Y-84021622D02*
X138587030Y-84021622D01*
X138587030Y-84021622D02*
X138658458Y-83985908D01*
X138658458Y-83985908D02*
X138694173Y-83950193D01*
X137337029Y-83628765D02*
X136765601Y-83628765D01*
X136765601Y-83843050D02*
X137337029Y-83843050D01*
X135872743Y-83985908D02*
X135765601Y-84021622D01*
X135765601Y-84021622D02*
X135587029Y-84021622D01*
X135587029Y-84021622D02*
X135515601Y-83985908D01*
X135515601Y-83985908D02*
X135479886Y-83950193D01*
X135479886Y-83950193D02*
X135444172Y-83878765D01*
X135444172Y-83878765D02*
X135444172Y-83807336D01*
X135444172Y-83807336D02*
X135479886Y-83735908D01*
X135479886Y-83735908D02*
X135515601Y-83700193D01*
X135515601Y-83700193D02*
X135587029Y-83664479D01*
X135587029Y-83664479D02*
X135729886Y-83628765D01*
X135729886Y-83628765D02*
X135801315Y-83593050D01*
X135801315Y-83593050D02*
X135837029Y-83557336D01*
X135837029Y-83557336D02*
X135872743Y-83485908D01*
X135872743Y-83485908D02*
X135872743Y-83414479D01*
X135872743Y-83414479D02*
X135837029Y-83343050D01*
X135837029Y-83343050D02*
X135801315Y-83307336D01*
X135801315Y-83307336D02*
X135729886Y-83271622D01*
X135729886Y-83271622D02*
X135551315Y-83271622D01*
X135551315Y-83271622D02*
X135444172Y-83307336D01*
X134694172Y-83950193D02*
X134729886Y-83985908D01*
X134729886Y-83985908D02*
X134837029Y-84021622D01*
X134837029Y-84021622D02*
X134908457Y-84021622D01*
X134908457Y-84021622D02*
X135015600Y-83985908D01*
X135015600Y-83985908D02*
X135087029Y-83914479D01*
X135087029Y-83914479D02*
X135122743Y-83843050D01*
X135122743Y-83843050D02*
X135158457Y-83700193D01*
X135158457Y-83700193D02*
X135158457Y-83593050D01*
X135158457Y-83593050D02*
X135122743Y-83450193D01*
X135122743Y-83450193D02*
X135087029Y-83378765D01*
X135087029Y-83378765D02*
X135015600Y-83307336D01*
X135015600Y-83307336D02*
X134908457Y-83271622D01*
X134908457Y-83271622D02*
X134837029Y-83271622D01*
X134837029Y-83271622D02*
X134729886Y-83307336D01*
X134729886Y-83307336D02*
X134694172Y-83343050D01*
X134015600Y-84021622D02*
X134372743Y-84021622D01*
X134372743Y-84021622D02*
X134372743Y-83271622D01*
X138301316Y-84729080D02*
X138301316Y-85229080D01*
X138479887Y-84443366D02*
X138658458Y-84979080D01*
X138658458Y-84979080D02*
X138194173Y-84979080D01*
X137337029Y-84836223D02*
X136765601Y-84836223D01*
X136765601Y-85050508D02*
X137337029Y-85050508D01*
X135444172Y-84514794D02*
X135515601Y-84479080D01*
X135515601Y-84479080D02*
X135622743Y-84479080D01*
X135622743Y-84479080D02*
X135729886Y-84514794D01*
X135729886Y-84514794D02*
X135801315Y-84586223D01*
X135801315Y-84586223D02*
X135837029Y-84657651D01*
X135837029Y-84657651D02*
X135872743Y-84800508D01*
X135872743Y-84800508D02*
X135872743Y-84907651D01*
X135872743Y-84907651D02*
X135837029Y-85050508D01*
X135837029Y-85050508D02*
X135801315Y-85121937D01*
X135801315Y-85121937D02*
X135729886Y-85193366D01*
X135729886Y-85193366D02*
X135622743Y-85229080D01*
X135622743Y-85229080D02*
X135551315Y-85229080D01*
X135551315Y-85229080D02*
X135444172Y-85193366D01*
X135444172Y-85193366D02*
X135408458Y-85157651D01*
X135408458Y-85157651D02*
X135408458Y-84907651D01*
X135408458Y-84907651D02*
X135551315Y-84907651D01*
X135087029Y-85229080D02*
X135087029Y-84479080D01*
X135087029Y-84479080D02*
X134658458Y-85229080D01*
X134658458Y-85229080D02*
X134658458Y-84479080D01*
X134301315Y-85229080D02*
X134301315Y-84479080D01*
X134301315Y-84479080D02*
X134122744Y-84479080D01*
X134122744Y-84479080D02*
X134015601Y-84514794D01*
X134015601Y-84514794D02*
X133944172Y-84586223D01*
X133944172Y-84586223D02*
X133908458Y-84657651D01*
X133908458Y-84657651D02*
X133872744Y-84800508D01*
X133872744Y-84800508D02*
X133872744Y-84907651D01*
X133872744Y-84907651D02*
X133908458Y-85050508D01*
X133908458Y-85050508D02*
X133944172Y-85121937D01*
X133944172Y-85121937D02*
X134015601Y-85193366D01*
X134015601Y-85193366D02*
X134122744Y-85229080D01*
X134122744Y-85229080D02*
X134301315Y-85229080D01*
M02*
