%TF.GenerationSoftware,KiCad,Pcbnew,9.0.6*%
%TF.CreationDate,2025-11-21T13:38:12+00:00*%
%TF.ProjectId,temperature_fin,74656d70-6572-4617-9475-72655f66696e,rev?*%
%TF.SameCoordinates,Original*%
%TF.FileFunction,Legend,Top*%
%TF.FilePolarity,Positive*%
%FSLAX46Y46*%
G04 Gerber Fmt 4.6, Leading zero omitted, Abs format (unit mm)*
G04 Created by KiCad (PCBNEW 9.0.6) date 2025-11-21 13:38:12*
%MOMM*%
%LPD*%
G01*
G04 APERTURE LIST*
%ADD10C,0.150000*%
%ADD11C,0.120000*%
%ADD12C,0.200000*%
G04 APERTURE END LIST*
D10*
X134700000Y-85414164D02*
X134700000Y-85592735D01*
X134521428Y-85521307D02*
X134700000Y-85592735D01*
X134700000Y-85592735D02*
X134878571Y-85521307D01*
X134592857Y-85735592D02*
X134700000Y-85592735D01*
X134700000Y-85592735D02*
X134807143Y-85735592D01*
X135250999Y-97450735D02*
X135215285Y-97486450D01*
X135215285Y-97486450D02*
X135108142Y-97522164D01*
X135108142Y-97522164D02*
X135036714Y-97522164D01*
X135036714Y-97522164D02*
X134929571Y-97486450D01*
X134929571Y-97486450D02*
X134858142Y-97415021D01*
X134858142Y-97415021D02*
X134822428Y-97343592D01*
X134822428Y-97343592D02*
X134786714Y-97200735D01*
X134786714Y-97200735D02*
X134786714Y-97093592D01*
X134786714Y-97093592D02*
X134822428Y-96950735D01*
X134822428Y-96950735D02*
X134858142Y-96879307D01*
X134858142Y-96879307D02*
X134929571Y-96807878D01*
X134929571Y-96807878D02*
X135036714Y-96772164D01*
X135036714Y-96772164D02*
X135108142Y-96772164D01*
X135108142Y-96772164D02*
X135215285Y-96807878D01*
X135215285Y-96807878D02*
X135250999Y-96843592D01*
X135500999Y-96772164D02*
X135965285Y-96772164D01*
X135965285Y-96772164D02*
X135715285Y-97057878D01*
X135715285Y-97057878D02*
X135822428Y-97057878D01*
X135822428Y-97057878D02*
X135893857Y-97093592D01*
X135893857Y-97093592D02*
X135929571Y-97129307D01*
X135929571Y-97129307D02*
X135965285Y-97200735D01*
X135965285Y-97200735D02*
X135965285Y-97379307D01*
X135965285Y-97379307D02*
X135929571Y-97450735D01*
X135929571Y-97450735D02*
X135893857Y-97486450D01*
X135893857Y-97486450D02*
X135822428Y-97522164D01*
X135822428Y-97522164D02*
X135608142Y-97522164D01*
X135608142Y-97522164D02*
X135536714Y-97486450D01*
X135536714Y-97486450D02*
X135500999Y-97450735D01*
X137275164Y-98506428D02*
X137882307Y-98506428D01*
X137882307Y-98506428D02*
X137953735Y-98470714D01*
X137953735Y-98470714D02*
X137989450Y-98435000D01*
X137989450Y-98435000D02*
X138025164Y-98363571D01*
X138025164Y-98363571D02*
X138025164Y-98220714D01*
X138025164Y-98220714D02*
X137989450Y-98149285D01*
X137989450Y-98149285D02*
X137953735Y-98113571D01*
X137953735Y-98113571D02*
X137882307Y-98077857D01*
X137882307Y-98077857D02*
X137275164Y-98077857D01*
X138025164Y-97327857D02*
X138025164Y-97756428D01*
X138025164Y-97542143D02*
X137275164Y-97542143D01*
X137275164Y-97542143D02*
X137382307Y-97613571D01*
X137382307Y-97613571D02*
X137453735Y-97685000D01*
X137453735Y-97685000D02*
X137489450Y-97756428D01*
X133874999Y-88542735D02*
X133839285Y-88578450D01*
X133839285Y-88578450D02*
X133732142Y-88614164D01*
X133732142Y-88614164D02*
X133660714Y-88614164D01*
X133660714Y-88614164D02*
X133553571Y-88578450D01*
X133553571Y-88578450D02*
X133482142Y-88507021D01*
X133482142Y-88507021D02*
X133446428Y-88435592D01*
X133446428Y-88435592D02*
X133410714Y-88292735D01*
X133410714Y-88292735D02*
X133410714Y-88185592D01*
X133410714Y-88185592D02*
X133446428Y-88042735D01*
X133446428Y-88042735D02*
X133482142Y-87971307D01*
X133482142Y-87971307D02*
X133553571Y-87899878D01*
X133553571Y-87899878D02*
X133660714Y-87864164D01*
X133660714Y-87864164D02*
X133732142Y-87864164D01*
X133732142Y-87864164D02*
X133839285Y-87899878D01*
X133839285Y-87899878D02*
X133874999Y-87935592D01*
X134589285Y-88614164D02*
X134160714Y-88614164D01*
X134374999Y-88614164D02*
X134374999Y-87864164D01*
X134374999Y-87864164D02*
X134303571Y-87971307D01*
X134303571Y-87971307D02*
X134232142Y-88042735D01*
X134232142Y-88042735D02*
X134160714Y-88078450D01*
X137078571Y-87614164D02*
X137078571Y-88221307D01*
X137078571Y-88221307D02*
X137114285Y-88292735D01*
X137114285Y-88292735D02*
X137150000Y-88328450D01*
X137150000Y-88328450D02*
X137221428Y-88364164D01*
X137221428Y-88364164D02*
X137364285Y-88364164D01*
X137364285Y-88364164D02*
X137435714Y-88328450D01*
X137435714Y-88328450D02*
X137471428Y-88292735D01*
X137471428Y-88292735D02*
X137507142Y-88221307D01*
X137507142Y-88221307D02*
X137507142Y-87614164D01*
X137828571Y-87685592D02*
X137864285Y-87649878D01*
X137864285Y-87649878D02*
X137935714Y-87614164D01*
X137935714Y-87614164D02*
X138114285Y-87614164D01*
X138114285Y-87614164D02*
X138185714Y-87649878D01*
X138185714Y-87649878D02*
X138221428Y-87685592D01*
X138221428Y-87685592D02*
X138257142Y-87757021D01*
X138257142Y-87757021D02*
X138257142Y-87828450D01*
X138257142Y-87828450D02*
X138221428Y-87935592D01*
X138221428Y-87935592D02*
X137792856Y-88364164D01*
X137792856Y-88364164D02*
X138257142Y-88364164D01*
X133699999Y-87242735D02*
X133664285Y-87278450D01*
X133664285Y-87278450D02*
X133557142Y-87314164D01*
X133557142Y-87314164D02*
X133485714Y-87314164D01*
X133485714Y-87314164D02*
X133378571Y-87278450D01*
X133378571Y-87278450D02*
X133307142Y-87207021D01*
X133307142Y-87207021D02*
X133271428Y-87135592D01*
X133271428Y-87135592D02*
X133235714Y-86992735D01*
X133235714Y-86992735D02*
X133235714Y-86885592D01*
X133235714Y-86885592D02*
X133271428Y-86742735D01*
X133271428Y-86742735D02*
X133307142Y-86671307D01*
X133307142Y-86671307D02*
X133378571Y-86599878D01*
X133378571Y-86599878D02*
X133485714Y-86564164D01*
X133485714Y-86564164D02*
X133557142Y-86564164D01*
X133557142Y-86564164D02*
X133664285Y-86599878D01*
X133664285Y-86599878D02*
X133699999Y-86635592D01*
X133985714Y-86635592D02*
X134021428Y-86599878D01*
X134021428Y-86599878D02*
X134092857Y-86564164D01*
X134092857Y-86564164D02*
X134271428Y-86564164D01*
X134271428Y-86564164D02*
X134342857Y-86599878D01*
X134342857Y-86599878D02*
X134378571Y-86635592D01*
X134378571Y-86635592D02*
X134414285Y-86707021D01*
X134414285Y-86707021D02*
X134414285Y-86778450D01*
X134414285Y-86778450D02*
X134378571Y-86885592D01*
X134378571Y-86885592D02*
X133949999Y-87314164D01*
X133949999Y-87314164D02*
X134414285Y-87314164D01*
X138875000Y-85014164D02*
X138875000Y-85549878D01*
X138875000Y-85549878D02*
X138839285Y-85657021D01*
X138839285Y-85657021D02*
X138767857Y-85728450D01*
X138767857Y-85728450D02*
X138660714Y-85764164D01*
X138660714Y-85764164D02*
X138589285Y-85764164D01*
X139625000Y-85764164D02*
X139196429Y-85764164D01*
X139410714Y-85764164D02*
X139410714Y-85014164D01*
X139410714Y-85014164D02*
X139339286Y-85121307D01*
X139339286Y-85121307D02*
X139267857Y-85192735D01*
X139267857Y-85192735D02*
X139196429Y-85228450D01*
D11*
%TO.C,C3*%
X136042164Y-97783000D02*
X136257836Y-97783000D01*
X136042164Y-98503000D02*
X136257836Y-98503000D01*
%TO.C,U1*%
X137112500Y-98858000D02*
X135112500Y-98858000D01*
X137112500Y-101078000D02*
X135112500Y-101078000D01*
X137352500Y-101258000D02*
X137352500Y-100978000D01*
X137632500Y-100978000D01*
X137352500Y-101258000D01*
G36*
X137352500Y-101258000D02*
G01*
X137352500Y-100978000D01*
X137632500Y-100978000D01*
X137352500Y-101258000D01*
G37*
%TO.C,C1*%
X134487836Y-88890000D02*
X134272164Y-88890000D01*
X134487836Y-89610000D02*
X134272164Y-89610000D01*
D12*
%TO.C,U2*%
X135900000Y-89740000D02*
G75*
G02*
X135700000Y-89740000I-100000J0D01*
G01*
X135700000Y-89740000D02*
G75*
G02*
X135900000Y-89740000I100000J0D01*
G01*
D11*
%TO.C,C2*%
X136212836Y-86615000D02*
X135997164Y-86615000D01*
X136212836Y-87335000D02*
X135997164Y-87335000D01*
%TO.C,J1*%
X133040000Y-81485000D02*
X133040000Y-83985000D01*
X133040000Y-83985000D02*
X134090000Y-83985000D01*
X138090000Y-79515000D02*
X134210000Y-79515000D01*
X138210000Y-83985000D02*
X138210000Y-84975000D01*
X139260000Y-81485000D02*
X139260000Y-83985000D01*
X139260000Y-83985000D02*
X138210000Y-83985000D01*
%TD*%
M02*
