M48
; DRILL file {KiCad 9.0.6} date 2025-11-21T10:39:50+0000
; FORMAT={-:-/ absolute / metric / decimal}
; #@! TF.CreationDate,2025-11-21T10:39:50+00:00
; #@! TF.GenerationSoftware,Kicad,Pcbnew,9.0.6
; #@! TF.FileFunction,Plated,1,2,PTH
FMAT,2
METRIC
; #@! TA.AperFunction,Plated,PTH,ViaDrill
T1C0.300
%
G90
G05
T1
X125.475Y-100.0
X125.65Y-94.025
X128.25Y-89.1
X129.8Y-107.425
X131.225Y-100.075
X133.1Y-103.75
X135.3Y-89.375
X136.9Y-100.675
X137.375Y-114.725
X137.65Y-92.675
X140.25Y-110.075
X141.0Y-96.25
X143.475Y-113.65
X143.575Y-118.55
X143.825Y-92.2
X148.575Y-120.9
X153.05Y-92.05
X153.475Y-113.725
X153.6Y-119.3
X156.9Y-94.925
X157.075Y-111.55
X160.475Y-98.0
X161.15Y-89.825
X161.725Y-115.075
X163.7Y-102.075
X166.775Y-107.0
X168.075Y-89.875
X168.25Y-100.4
X170.85Y-94.55
M30
