%TF.GenerationSoftware,KiCad,Pcbnew,9.0.6*%
%TF.CreationDate,2025-11-21T10:39:52+00:00*%
%TF.ProjectId,batt_pcb_front,62617474-5f70-4636-925f-66726f6e742e,rev?*%
%TF.SameCoordinates,Original*%
%TF.FileFunction,Legend,Top*%
%TF.FilePolarity,Positive*%
%FSLAX46Y46*%
G04 Gerber Fmt 4.6, Leading zero omitted, Abs format (unit mm)*
G04 Created by KiCad (PCBNEW 9.0.6) date 2025-11-21 10:39:52*
%MOMM*%
%LPD*%
G01*
G04 APERTURE LIST*
%ADD10C,0.150000*%
%ADD11C,0.120000*%
G04 APERTURE END LIST*
D10*
X165383888Y-91233685D02*
X165383888Y-91947970D01*
X165383888Y-91947970D02*
X165336269Y-92090827D01*
X165336269Y-92090827D02*
X165241031Y-92186066D01*
X165241031Y-92186066D02*
X165098174Y-92233685D01*
X165098174Y-92233685D02*
X165002936Y-92233685D01*
X166288650Y-91233685D02*
X166098174Y-91233685D01*
X166098174Y-91233685D02*
X166002936Y-91281304D01*
X166002936Y-91281304D02*
X165955317Y-91328923D01*
X165955317Y-91328923D02*
X165860079Y-91471780D01*
X165860079Y-91471780D02*
X165812460Y-91662256D01*
X165812460Y-91662256D02*
X165812460Y-92043208D01*
X165812460Y-92043208D02*
X165860079Y-92138446D01*
X165860079Y-92138446D02*
X165907698Y-92186066D01*
X165907698Y-92186066D02*
X166002936Y-92233685D01*
X166002936Y-92233685D02*
X166193412Y-92233685D01*
X166193412Y-92233685D02*
X166288650Y-92186066D01*
X166288650Y-92186066D02*
X166336269Y-92138446D01*
X166336269Y-92138446D02*
X166383888Y-92043208D01*
X166383888Y-92043208D02*
X166383888Y-91805113D01*
X166383888Y-91805113D02*
X166336269Y-91709875D01*
X166336269Y-91709875D02*
X166288650Y-91662256D01*
X166288650Y-91662256D02*
X166193412Y-91614637D01*
X166193412Y-91614637D02*
X166002936Y-91614637D01*
X166002936Y-91614637D02*
X165907698Y-91662256D01*
X165907698Y-91662256D02*
X165860079Y-91709875D01*
X165860079Y-91709875D02*
X165812460Y-91805113D01*
X148180640Y-111967268D02*
X148180640Y-112681553D01*
X148180640Y-112681553D02*
X148133021Y-112824410D01*
X148133021Y-112824410D02*
X148037783Y-112919649D01*
X148037783Y-112919649D02*
X147894926Y-112967268D01*
X147894926Y-112967268D02*
X147799688Y-112967268D01*
X149085402Y-112300601D02*
X149085402Y-112967268D01*
X148847307Y-111919649D02*
X148609212Y-112633934D01*
X148609212Y-112633934D02*
X149228259Y-112633934D01*
X134969296Y-105931130D02*
X134969296Y-106645415D01*
X134969296Y-106645415D02*
X134921677Y-106788272D01*
X134921677Y-106788272D02*
X134826439Y-106883511D01*
X134826439Y-106883511D02*
X134683582Y-106931130D01*
X134683582Y-106931130D02*
X134588344Y-106931130D01*
X135350249Y-105931130D02*
X135969296Y-105931130D01*
X135969296Y-105931130D02*
X135635963Y-106312082D01*
X135635963Y-106312082D02*
X135778820Y-106312082D01*
X135778820Y-106312082D02*
X135874058Y-106359701D01*
X135874058Y-106359701D02*
X135921677Y-106407320D01*
X135921677Y-106407320D02*
X135969296Y-106502558D01*
X135969296Y-106502558D02*
X135969296Y-106740653D01*
X135969296Y-106740653D02*
X135921677Y-106835891D01*
X135921677Y-106835891D02*
X135874058Y-106883511D01*
X135874058Y-106883511D02*
X135778820Y-106931130D01*
X135778820Y-106931130D02*
X135493106Y-106931130D01*
X135493106Y-106931130D02*
X135397868Y-106883511D01*
X135397868Y-106883511D02*
X135350249Y-106835891D01*
X130977395Y-91233681D02*
X130977395Y-91947966D01*
X130977395Y-91947966D02*
X130929776Y-92090823D01*
X130929776Y-92090823D02*
X130834538Y-92186062D01*
X130834538Y-92186062D02*
X130691681Y-92233681D01*
X130691681Y-92233681D02*
X130596443Y-92233681D01*
X131405967Y-91328919D02*
X131453586Y-91281300D01*
X131453586Y-91281300D02*
X131548824Y-91233681D01*
X131548824Y-91233681D02*
X131786919Y-91233681D01*
X131786919Y-91233681D02*
X131882157Y-91281300D01*
X131882157Y-91281300D02*
X131929776Y-91328919D01*
X131929776Y-91328919D02*
X131977395Y-91424157D01*
X131977395Y-91424157D02*
X131977395Y-91519395D01*
X131977395Y-91519395D02*
X131929776Y-91662252D01*
X131929776Y-91662252D02*
X131358348Y-92233681D01*
X131358348Y-92233681D02*
X131977395Y-92233681D01*
X161391987Y-105931127D02*
X161391987Y-106645412D01*
X161391987Y-106645412D02*
X161344368Y-106788269D01*
X161344368Y-106788269D02*
X161249130Y-106883508D01*
X161249130Y-106883508D02*
X161106273Y-106931127D01*
X161106273Y-106931127D02*
X161011035Y-106931127D01*
X162344368Y-105931127D02*
X161868178Y-105931127D01*
X161868178Y-105931127D02*
X161820559Y-106407317D01*
X161820559Y-106407317D02*
X161868178Y-106359698D01*
X161868178Y-106359698D02*
X161963416Y-106312079D01*
X161963416Y-106312079D02*
X162201511Y-106312079D01*
X162201511Y-106312079D02*
X162296749Y-106359698D01*
X162296749Y-106359698D02*
X162344368Y-106407317D01*
X162344368Y-106407317D02*
X162391987Y-106502555D01*
X162391987Y-106502555D02*
X162391987Y-106740650D01*
X162391987Y-106740650D02*
X162344368Y-106835888D01*
X162344368Y-106835888D02*
X162296749Y-106883508D01*
X162296749Y-106883508D02*
X162201511Y-106931127D01*
X162201511Y-106931127D02*
X161963416Y-106931127D01*
X161963416Y-106931127D02*
X161868178Y-106883508D01*
X161868178Y-106883508D02*
X161820559Y-106835888D01*
X148180640Y-94506401D02*
X148180640Y-95220686D01*
X148180640Y-95220686D02*
X148133021Y-95363543D01*
X148133021Y-95363543D02*
X148037783Y-95458782D01*
X148037783Y-95458782D02*
X147894926Y-95506401D01*
X147894926Y-95506401D02*
X147799688Y-95506401D01*
X148561593Y-94506401D02*
X149228259Y-94506401D01*
X149228259Y-94506401D02*
X148799688Y-95506401D01*
D11*
%TO.C,J6*%
X167967222Y-94676866D02*
G75*
G02*
X163467222Y-94676866I-2250000J0D01*
G01*
X163467222Y-94676866D02*
G75*
G02*
X167967222Y-94676866I2250000J0D01*
G01*
%TO.C,J4*%
X150763974Y-115410449D02*
G75*
G02*
X146263974Y-115410449I-2250000J0D01*
G01*
X146263974Y-115410449D02*
G75*
G02*
X150763974Y-115410449I2250000J0D01*
G01*
%TO.C,J3*%
X137552630Y-109374311D02*
G75*
G02*
X133052630Y-109374311I-2250000J0D01*
G01*
X133052630Y-109374311D02*
G75*
G02*
X137552630Y-109374311I2250000J0D01*
G01*
%TO.C,J2*%
X133560729Y-94676862D02*
G75*
G02*
X129060729Y-94676862I-2250000J0D01*
G01*
X129060729Y-94676862D02*
G75*
G02*
X133560729Y-94676862I2250000J0D01*
G01*
%TO.C,J5*%
X163975321Y-109374308D02*
G75*
G02*
X159475321Y-109374308I-2250000J0D01*
G01*
X159475321Y-109374308D02*
G75*
G02*
X163975321Y-109374308I2250000J0D01*
G01*
%TO.C,J7*%
X150763974Y-97949582D02*
G75*
G02*
X146263974Y-97949582I-2250000J0D01*
G01*
X146263974Y-97949582D02*
G75*
G02*
X150763974Y-97949582I2250000J0D01*
G01*
%TD*%
M02*
