%TF.GenerationSoftware,KiCad,Pcbnew,9.0.6*%
%TF.CreationDate,2025-11-21T10:39:52+00:00*%
%TF.ProjectId,batt_pcb_front,62617474-5f70-4636-925f-66726f6e742e,rev?*%
%TF.SameCoordinates,Original*%
%TF.FileFunction,Copper,L1,Top*%
%TF.FilePolarity,Positive*%
%FSLAX46Y46*%
G04 Gerber Fmt 4.6, Leading zero omitted, Abs format (unit mm)*
G04 Created by KiCad (PCBNEW 9.0.6) date 2025-11-21 10:39:52*
%MOMM*%
%LPD*%
G01*
G04 APERTURE LIST*
%TA.AperFunction,SMDPad,CuDef*%
%ADD10C,4.000000*%
%TD*%
%TA.AperFunction,ViaPad*%
%ADD11C,0.600000*%
%TD*%
G04 APERTURE END LIST*
D10*
%TO.P,J6,1,Pin_1*%
%TO.N,GND*%
X165717222Y-94676866D03*
%TD*%
%TO.P,J4,1,Pin_1*%
%TO.N,GND*%
X148513974Y-115410449D03*
%TD*%
%TO.P,J3,1,Pin_1*%
%TO.N,GND*%
X135302630Y-109374311D03*
%TD*%
%TO.P,J2,1,Pin_1*%
%TO.N,GND*%
X131310729Y-94676862D03*
%TD*%
%TO.P,J5,1,Pin_1*%
%TO.N,GND*%
X161725321Y-109374308D03*
%TD*%
%TO.P,J7,1,Pin_1*%
%TO.N,GND*%
X148513974Y-97949582D03*
%TD*%
D11*
%TO.N,GND*%
X156900000Y-94925000D03*
X168250000Y-100400000D03*
X153475000Y-113725000D03*
X148575000Y-120900000D03*
X161725000Y-115075000D03*
X160475000Y-98000000D03*
X153050000Y-92050000D03*
X141000000Y-96250000D03*
X157075000Y-111550000D03*
X125650000Y-94025000D03*
X161150000Y-89825000D03*
X168075000Y-89875000D03*
X133100000Y-103750000D03*
X137375000Y-114725000D03*
X136900000Y-100675000D03*
X143475000Y-113650000D03*
X153600000Y-119300000D03*
X170850000Y-94550000D03*
X129800000Y-107425000D03*
X128250000Y-89100000D03*
X143575000Y-118550000D03*
X131225000Y-100075000D03*
X125475000Y-100000000D03*
X166775000Y-107000000D03*
X140250000Y-110075000D03*
X143825000Y-92200000D03*
X137650000Y-92675000D03*
X135300000Y-89375000D03*
X163700000Y-102075000D03*
%TD*%
%TA.AperFunction,Conductor*%
%TO.N,GND*%
G36*
X165706612Y-87713588D02*
G01*
X165718715Y-87714030D01*
X166204837Y-87731786D01*
X166213836Y-87732444D01*
X166707199Y-87786693D01*
X166716103Y-87788003D01*
X167204196Y-87878097D01*
X167213001Y-87880057D01*
X167693177Y-88005502D01*
X167701844Y-88008106D01*
X168171619Y-88168253D01*
X168180062Y-88171480D01*
X168636880Y-88365459D01*
X168645064Y-88369292D01*
X169086529Y-88596082D01*
X169094418Y-88600506D01*
X169518142Y-88858880D01*
X169525693Y-88863871D01*
X169929450Y-89152472D01*
X169936614Y-89157999D01*
X170318253Y-89475290D01*
X170324973Y-89481305D01*
X170682454Y-89825591D01*
X170682464Y-89825601D01*
X170688749Y-89832114D01*
X171020139Y-90201533D01*
X171025933Y-90208486D01*
X171329504Y-90601107D01*
X171334776Y-90608465D01*
X171608903Y-91022190D01*
X171613623Y-91029912D01*
X171856836Y-91462523D01*
X171860981Y-91470570D01*
X172071989Y-91919766D01*
X172075536Y-91928093D01*
X172253219Y-92391493D01*
X172256149Y-92400057D01*
X172398622Y-92872090D01*
X172401753Y-92884886D01*
X172576009Y-93806642D01*
X172576813Y-93811399D01*
X172716104Y-94746070D01*
X172716722Y-94750853D01*
X172819558Y-95690235D01*
X172819989Y-95695040D01*
X172886207Y-96637666D01*
X172886452Y-96642483D01*
X172915963Y-97587041D01*
X172916019Y-97591864D01*
X172908770Y-98536775D01*
X172908640Y-98541597D01*
X172864644Y-99485594D01*
X172864325Y-99490407D01*
X172783653Y-100431914D01*
X172783148Y-100436711D01*
X172665917Y-101374386D01*
X172665226Y-101379160D01*
X172511610Y-102311597D01*
X172510733Y-102316340D01*
X172320978Y-103242049D01*
X172319918Y-103246755D01*
X172094293Y-104164426D01*
X172093050Y-104169087D01*
X171831910Y-105077270D01*
X171830487Y-105081878D01*
X171534231Y-105979199D01*
X171532630Y-105983750D01*
X171201693Y-106868882D01*
X171199917Y-106873366D01*
X170834796Y-107744979D01*
X170832846Y-107749391D01*
X170434112Y-108606124D01*
X170431992Y-108610457D01*
X170000234Y-109451043D01*
X169997947Y-109455290D01*
X169533821Y-110278452D01*
X169531370Y-110282607D01*
X169149165Y-110902786D01*
X169097235Y-110949530D01*
X169028277Y-110960778D01*
X168977947Y-110942921D01*
X168656512Y-110742300D01*
X168304977Y-110567289D01*
X168304956Y-110567279D01*
X168304951Y-110567277D01*
X167938217Y-110426775D01*
X167938215Y-110426774D01*
X167938214Y-110426774D01*
X167938211Y-110426773D01*
X167559702Y-110322093D01*
X167172881Y-110254196D01*
X166781332Y-110223712D01*
X166388679Y-110230922D01*
X166388672Y-110230922D01*
X165998520Y-110275756D01*
X165781626Y-110322093D01*
X165614458Y-110357806D01*
X165614453Y-110357807D01*
X165614451Y-110357808D01*
X165614448Y-110357808D01*
X165240041Y-110476309D01*
X165240036Y-110476311D01*
X164878714Y-110630175D01*
X164878709Y-110630177D01*
X164533808Y-110817988D01*
X164533798Y-110817994D01*
X164208486Y-111038028D01*
X164208485Y-111038028D01*
X163905797Y-111288230D01*
X163628483Y-111566328D01*
X163379125Y-111869731D01*
X163160017Y-112195650D01*
X162973172Y-112541090D01*
X162820324Y-112902850D01*
X162820323Y-112902853D01*
X162788507Y-113004370D01*
X162702874Y-113277606D01*
X162621909Y-113661894D01*
X162578173Y-114052190D01*
X162578173Y-114052195D01*
X162572072Y-114444865D01*
X162572072Y-114444876D01*
X162603657Y-114836309D01*
X162603658Y-114836313D01*
X162672644Y-115222937D01*
X162672645Y-115222942D01*
X162778394Y-115601167D01*
X162919927Y-115967497D01*
X162919930Y-115967503D01*
X162960075Y-116047573D01*
X163095947Y-116318573D01*
X163139329Y-116387646D01*
X163304827Y-116651152D01*
X163537978Y-116953520D01*
X163563326Y-117018629D01*
X163549450Y-117087107D01*
X163514982Y-117127832D01*
X162924527Y-117578191D01*
X162920576Y-117581083D01*
X162135525Y-118132241D01*
X162131463Y-118134975D01*
X161325248Y-118654720D01*
X161321081Y-118657291D01*
X160495001Y-119144788D01*
X160490736Y-119147193D01*
X159646023Y-119601717D01*
X159641666Y-119603951D01*
X158779710Y-120024750D01*
X158775269Y-120026811D01*
X157897346Y-120413266D01*
X157892827Y-120415150D01*
X157000322Y-120766650D01*
X156995731Y-120768354D01*
X156090054Y-121084341D01*
X156085400Y-121085862D01*
X155167959Y-121365847D01*
X155163249Y-121367183D01*
X154235494Y-121610726D01*
X154230735Y-121611876D01*
X153294055Y-121818609D01*
X153289254Y-121819570D01*
X152345132Y-121989166D01*
X152340296Y-121989936D01*
X151390250Y-122122122D01*
X151385388Y-122122701D01*
X150430833Y-122217281D01*
X150425952Y-122217667D01*
X149468449Y-122274487D01*
X149463557Y-122274681D01*
X148504513Y-122293657D01*
X148499617Y-122293657D01*
X147540597Y-122274758D01*
X147535704Y-122274565D01*
X146578170Y-122217819D01*
X146573289Y-122217433D01*
X145618727Y-122122928D01*
X145613865Y-122122349D01*
X144663804Y-121990238D01*
X144658969Y-121989468D01*
X143714860Y-121819952D01*
X143710059Y-121818992D01*
X142773370Y-121612335D01*
X142768610Y-121611186D01*
X141840805Y-121367710D01*
X141836095Y-121366374D01*
X140918633Y-121086462D01*
X140913979Y-121084941D01*
X140008268Y-120769022D01*
X140003678Y-120767318D01*
X139111184Y-120415905D01*
X139106664Y-120414022D01*
X138228711Y-120027637D01*
X138224269Y-120025577D01*
X137362239Y-119604825D01*
X137357883Y-119602591D01*
X136880803Y-119345934D01*
X136513143Y-119148141D01*
X136508900Y-119145749D01*
X135682744Y-118658294D01*
X135678608Y-118655742D01*
X135275473Y-118395897D01*
X134872354Y-118136062D01*
X134868292Y-118133329D01*
X134083180Y-117582223D01*
X134079229Y-117579331D01*
X133839369Y-117396413D01*
X133773602Y-117346259D01*
X146931715Y-117346259D01*
X146931715Y-117346260D01*
X147065017Y-117452564D01*
X147302773Y-117601956D01*
X147555756Y-117723786D01*
X147820793Y-117816526D01*
X147820795Y-117816527D01*
X148094549Y-117879009D01*
X148094561Y-117879011D01*
X148373572Y-117910448D01*
X148373574Y-117910449D01*
X148654374Y-117910449D01*
X148654375Y-117910448D01*
X148933386Y-117879011D01*
X148933398Y-117879009D01*
X149207152Y-117816527D01*
X149207154Y-117816526D01*
X149472191Y-117723786D01*
X149725174Y-117601956D01*
X149962930Y-117452565D01*
X150096231Y-117346259D01*
X148513974Y-115764003D01*
X146931715Y-117346259D01*
X133773602Y-117346259D01*
X133487755Y-117128271D01*
X133446384Y-117071967D01*
X133442022Y-117002233D01*
X133464741Y-116953965D01*
X133694308Y-116656177D01*
X133902346Y-116324905D01*
X134077674Y-115975220D01*
X134218680Y-115610339D01*
X134313875Y-115270047D01*
X146013974Y-115270047D01*
X146013974Y-115550850D01*
X146045411Y-115829861D01*
X146045413Y-115829873D01*
X146107895Y-116103627D01*
X146107896Y-116103629D01*
X146200636Y-116368666D01*
X146322466Y-116621649D01*
X146471858Y-116859405D01*
X146578161Y-116992706D01*
X148160420Y-115410449D01*
X148160419Y-115410448D01*
X148867528Y-115410448D01*
X148867528Y-115410450D01*
X150449784Y-116992706D01*
X150556090Y-116859405D01*
X150705481Y-116621649D01*
X150827311Y-116368666D01*
X150920051Y-116103629D01*
X150920052Y-116103627D01*
X150982534Y-115829873D01*
X150982536Y-115829861D01*
X151013973Y-115550850D01*
X151013974Y-115550848D01*
X151013974Y-115270049D01*
X151013973Y-115270047D01*
X150982536Y-114991036D01*
X150982534Y-114991024D01*
X150920052Y-114717270D01*
X150920051Y-114717268D01*
X150827311Y-114452231D01*
X150705481Y-114199248D01*
X150556089Y-113961492D01*
X150449784Y-113828190D01*
X148867528Y-115410448D01*
X148160419Y-115410448D01*
X146578161Y-113828190D01*
X146471858Y-113961492D01*
X146322466Y-114199248D01*
X146200636Y-114452231D01*
X146107896Y-114717268D01*
X146107895Y-114717270D01*
X146045413Y-114991024D01*
X146045411Y-114991036D01*
X146013974Y-115270047D01*
X134313875Y-115270047D01*
X134324064Y-115233624D01*
X134392856Y-114848542D01*
X134424423Y-114458640D01*
X134418474Y-114067507D01*
X134375064Y-113678745D01*
X134332158Y-113474636D01*
X146931715Y-113474636D01*
X148513974Y-115056895D01*
X148513975Y-115056895D01*
X150096231Y-113474636D01*
X149962930Y-113368333D01*
X149725174Y-113218941D01*
X149472191Y-113097111D01*
X149207154Y-113004371D01*
X149207152Y-113004370D01*
X148933398Y-112941888D01*
X148933386Y-112941886D01*
X148654375Y-112910449D01*
X148373572Y-112910449D01*
X148094561Y-112941886D01*
X148094549Y-112941888D01*
X147820795Y-113004370D01*
X147820793Y-113004371D01*
X147555756Y-113097111D01*
X147302773Y-113218941D01*
X147065017Y-113368333D01*
X146931715Y-113474636D01*
X134332158Y-113474636D01*
X134294592Y-113295934D01*
X134232394Y-113097111D01*
X134177803Y-112922605D01*
X134169470Y-112902850D01*
X134025762Y-112562175D01*
X133839880Y-112217983D01*
X133824892Y-112195655D01*
X133621863Y-111893191D01*
X133621862Y-111893190D01*
X133606370Y-111874311D01*
X133373721Y-111590792D01*
X133097741Y-111313572D01*
X133097738Y-111313568D01*
X133093575Y-111310121D01*
X133720371Y-111310121D01*
X133720371Y-111310122D01*
X133853673Y-111416426D01*
X134091429Y-111565818D01*
X134344412Y-111687648D01*
X134609449Y-111780388D01*
X134609451Y-111780389D01*
X134883205Y-111842871D01*
X134883217Y-111842873D01*
X135162228Y-111874310D01*
X135162230Y-111874311D01*
X135443030Y-111874311D01*
X135443031Y-111874310D01*
X135722042Y-111842873D01*
X135722054Y-111842871D01*
X135995808Y-111780389D01*
X135995810Y-111780388D01*
X136260847Y-111687648D01*
X136513830Y-111565818D01*
X136751586Y-111416427D01*
X136884887Y-111310121D01*
X136884884Y-111310118D01*
X160143062Y-111310118D01*
X160143062Y-111310119D01*
X160276364Y-111416423D01*
X160514120Y-111565815D01*
X160767103Y-111687645D01*
X161032140Y-111780385D01*
X161032142Y-111780386D01*
X161305896Y-111842868D01*
X161305908Y-111842870D01*
X161584919Y-111874307D01*
X161584921Y-111874308D01*
X161865721Y-111874308D01*
X161865722Y-111874307D01*
X162144733Y-111842870D01*
X162144745Y-111842868D01*
X162418499Y-111780386D01*
X162418501Y-111780385D01*
X162683538Y-111687645D01*
X162936521Y-111565815D01*
X163174277Y-111416424D01*
X163307578Y-111310118D01*
X161725321Y-109727862D01*
X160143062Y-111310118D01*
X136884884Y-111310118D01*
X135302630Y-109727865D01*
X133720371Y-111310121D01*
X133093575Y-111310121D01*
X132796465Y-111064082D01*
X132796452Y-111064072D01*
X132472649Y-110844605D01*
X132129299Y-110657183D01*
X132129286Y-110657177D01*
X131769549Y-110503526D01*
X131769541Y-110503523D01*
X131396744Y-110385062D01*
X131396729Y-110385058D01*
X131014296Y-110302873D01*
X130625740Y-110257722D01*
X130234633Y-110250018D01*
X130234630Y-110250018D01*
X129874408Y-110277557D01*
X129844589Y-110279837D01*
X129763395Y-110293966D01*
X129459205Y-110346901D01*
X129082026Y-110450593D01*
X129082000Y-110450602D01*
X128716523Y-110589958D01*
X128716515Y-110589961D01*
X128366056Y-110763715D01*
X128366035Y-110763727D01*
X128039186Y-110966948D01*
X127971860Y-110985629D01*
X127905122Y-110964946D01*
X127868221Y-110926817D01*
X127853374Y-110902786D01*
X127484312Y-110305422D01*
X127481854Y-110301264D01*
X127037273Y-109514709D01*
X127016186Y-109477403D01*
X127013893Y-109473155D01*
X127004694Y-109455290D01*
X126890704Y-109233909D01*
X132802630Y-109233909D01*
X132802630Y-109514712D01*
X132834067Y-109793723D01*
X132834069Y-109793735D01*
X132896551Y-110067489D01*
X132896552Y-110067491D01*
X132989292Y-110332528D01*
X133111122Y-110585511D01*
X133260514Y-110823267D01*
X133366817Y-110956568D01*
X134949076Y-109374311D01*
X134949075Y-109374310D01*
X135656184Y-109374310D01*
X135656184Y-109374312D01*
X137238440Y-110956568D01*
X137344746Y-110823267D01*
X137494137Y-110585511D01*
X137615967Y-110332528D01*
X137708707Y-110067491D01*
X137708708Y-110067489D01*
X137771190Y-109793735D01*
X137771192Y-109793723D01*
X137802629Y-109514712D01*
X137802630Y-109514710D01*
X137802630Y-109233913D01*
X137802629Y-109233908D01*
X137802629Y-109233906D01*
X159225321Y-109233906D01*
X159225321Y-109514709D01*
X159256758Y-109793720D01*
X159256760Y-109793732D01*
X159319242Y-110067486D01*
X159319243Y-110067488D01*
X159411983Y-110332525D01*
X159533813Y-110585508D01*
X159683205Y-110823264D01*
X159789508Y-110956565D01*
X161371767Y-109374308D01*
X161371767Y-109374307D01*
X162078875Y-109374307D01*
X162078875Y-109374309D01*
X163661131Y-110956565D01*
X163767437Y-110823264D01*
X163916828Y-110585508D01*
X164038658Y-110332525D01*
X164131398Y-110067488D01*
X164131399Y-110067486D01*
X164193881Y-109793732D01*
X164193883Y-109793720D01*
X164225320Y-109514709D01*
X164225321Y-109514707D01*
X164225321Y-109233908D01*
X164225320Y-109233906D01*
X164193883Y-108954895D01*
X164193881Y-108954883D01*
X164131399Y-108681129D01*
X164131398Y-108681127D01*
X164038658Y-108416090D01*
X163916828Y-108163107D01*
X163767436Y-107925351D01*
X163661131Y-107792049D01*
X162078875Y-109374307D01*
X161371767Y-109374307D01*
X159789508Y-107792049D01*
X159683205Y-107925351D01*
X159533813Y-108163107D01*
X159411983Y-108416090D01*
X159319243Y-108681127D01*
X159319242Y-108681129D01*
X159256760Y-108954883D01*
X159256758Y-108954895D01*
X159225321Y-109233906D01*
X137802629Y-109233906D01*
X137771192Y-108954898D01*
X137771190Y-108954886D01*
X137708708Y-108681132D01*
X137708707Y-108681130D01*
X137615967Y-108416093D01*
X137494137Y-108163110D01*
X137344745Y-107925354D01*
X137238440Y-107792052D01*
X135656184Y-109374310D01*
X134949075Y-109374310D01*
X133366817Y-107792052D01*
X133260514Y-107925354D01*
X133111122Y-108163110D01*
X132989292Y-108416093D01*
X132896552Y-108681130D01*
X132896551Y-108681132D01*
X132834069Y-108954886D01*
X132834067Y-108954898D01*
X132802630Y-109233909D01*
X126890704Y-109233909D01*
X126580647Y-108631742D01*
X126578529Y-108627422D01*
X126569614Y-108608314D01*
X126178387Y-107769779D01*
X126176460Y-107765429D01*
X126039168Y-107438498D01*
X133720371Y-107438498D01*
X135302630Y-109020757D01*
X135302631Y-109020757D01*
X136884887Y-107438498D01*
X136884883Y-107438495D01*
X160143062Y-107438495D01*
X161725321Y-109020754D01*
X161725322Y-109020754D01*
X163307578Y-107438495D01*
X163174277Y-107332192D01*
X162936521Y-107182800D01*
X162683538Y-107060970D01*
X162418501Y-106968230D01*
X162418499Y-106968229D01*
X162144745Y-106905747D01*
X162144733Y-106905745D01*
X161865722Y-106874308D01*
X161584919Y-106874308D01*
X161305908Y-106905745D01*
X161305896Y-106905747D01*
X161032142Y-106968229D01*
X161032140Y-106968230D01*
X160767103Y-107060970D01*
X160514120Y-107182800D01*
X160276364Y-107332192D01*
X160143062Y-107438495D01*
X136884883Y-107438495D01*
X136751586Y-107332195D01*
X136513830Y-107182803D01*
X136260847Y-107060973D01*
X135995810Y-106968233D01*
X135995808Y-106968232D01*
X135722054Y-106905750D01*
X135722042Y-106905748D01*
X135443031Y-106874311D01*
X135162228Y-106874311D01*
X134883217Y-106905748D01*
X134883205Y-106905750D01*
X134609451Y-106968232D01*
X134609449Y-106968233D01*
X134344412Y-107060973D01*
X134091429Y-107182803D01*
X133853673Y-107332195D01*
X133720371Y-107438498D01*
X126039168Y-107438498D01*
X125810015Y-106892822D01*
X125808239Y-106888350D01*
X125801794Y-106871156D01*
X125476080Y-106002185D01*
X125474473Y-105997629D01*
X125336739Y-105581529D01*
X125177085Y-105099211D01*
X125175661Y-105094612D01*
X125170661Y-105077270D01*
X124913468Y-104185207D01*
X124912243Y-104180622D01*
X124742957Y-103494038D01*
X125659500Y-103494038D01*
X125659500Y-103745961D01*
X125698910Y-103994785D01*
X125776760Y-104234383D01*
X125891132Y-104458848D01*
X126039201Y-104662649D01*
X126039205Y-104662654D01*
X126217345Y-104840794D01*
X126217350Y-104840798D01*
X126395117Y-104969952D01*
X126421155Y-104988870D01*
X126564184Y-105061747D01*
X126645616Y-105103239D01*
X126645618Y-105103239D01*
X126645621Y-105103241D01*
X126885215Y-105181090D01*
X127134038Y-105220500D01*
X127134039Y-105220500D01*
X127385961Y-105220500D01*
X127385962Y-105220500D01*
X127634785Y-105181090D01*
X127874379Y-105103241D01*
X128098845Y-104988870D01*
X128302656Y-104840793D01*
X128480793Y-104662656D01*
X128628870Y-104458845D01*
X128743241Y-104234379D01*
X128821090Y-103994785D01*
X128860500Y-103745962D01*
X128860500Y-103494038D01*
X168139500Y-103494038D01*
X168139500Y-103745961D01*
X168178910Y-103994785D01*
X168256760Y-104234383D01*
X168371132Y-104458848D01*
X168519201Y-104662649D01*
X168519205Y-104662654D01*
X168697345Y-104840794D01*
X168697350Y-104840798D01*
X168875117Y-104969952D01*
X168901155Y-104988870D01*
X169044184Y-105061747D01*
X169125616Y-105103239D01*
X169125618Y-105103239D01*
X169125621Y-105103241D01*
X169365215Y-105181090D01*
X169614038Y-105220500D01*
X169614039Y-105220500D01*
X169865961Y-105220500D01*
X169865962Y-105220500D01*
X170114785Y-105181090D01*
X170354379Y-105103241D01*
X170578845Y-104988870D01*
X170782656Y-104840793D01*
X170960793Y-104662656D01*
X171108870Y-104458845D01*
X171223241Y-104234379D01*
X171301090Y-103994785D01*
X171340500Y-103745962D01*
X171340500Y-103494038D01*
X171301090Y-103245215D01*
X171223241Y-103005621D01*
X171223239Y-103005618D01*
X171223239Y-103005616D01*
X171181747Y-102924184D01*
X171108870Y-102781155D01*
X171089952Y-102755117D01*
X170960798Y-102577350D01*
X170960794Y-102577345D01*
X170782654Y-102399205D01*
X170782649Y-102399201D01*
X170578848Y-102251132D01*
X170578847Y-102251131D01*
X170578845Y-102251130D01*
X170508747Y-102215413D01*
X170354383Y-102136760D01*
X170114785Y-102058910D01*
X169865962Y-102019500D01*
X169614038Y-102019500D01*
X169489626Y-102039205D01*
X169365214Y-102058910D01*
X169125616Y-102136760D01*
X168901151Y-102251132D01*
X168697350Y-102399201D01*
X168697345Y-102399205D01*
X168519205Y-102577345D01*
X168519201Y-102577350D01*
X168371132Y-102781151D01*
X168256760Y-103005616D01*
X168178910Y-103245214D01*
X168139500Y-103494038D01*
X128860500Y-103494038D01*
X128821090Y-103245215D01*
X128743241Y-103005621D01*
X128743239Y-103005618D01*
X128743239Y-103005616D01*
X128701747Y-102924184D01*
X128628870Y-102781155D01*
X128609952Y-102755117D01*
X128480798Y-102577350D01*
X128480794Y-102577345D01*
X128302654Y-102399205D01*
X128302649Y-102399201D01*
X128098848Y-102251132D01*
X128098847Y-102251131D01*
X128098845Y-102251130D01*
X128028747Y-102215413D01*
X127874383Y-102136760D01*
X127634785Y-102058910D01*
X127385962Y-102019500D01*
X127134038Y-102019500D01*
X127009626Y-102039205D01*
X126885214Y-102058910D01*
X126645616Y-102136760D01*
X126421151Y-102251132D01*
X126217350Y-102399201D01*
X126217345Y-102399205D01*
X126039205Y-102577345D01*
X126039201Y-102577350D01*
X125891132Y-102781151D01*
X125776760Y-103005616D01*
X125698910Y-103245214D01*
X125659500Y-103494038D01*
X124742957Y-103494038D01*
X124685683Y-103261749D01*
X124684618Y-103257037D01*
X124596058Y-102826315D01*
X124494018Y-102330031D01*
X124493150Y-102325354D01*
X124338793Y-101391576D01*
X124338109Y-101386872D01*
X124220242Y-100447805D01*
X124219736Y-100443020D01*
X124204227Y-100262919D01*
X124171716Y-99885392D01*
X146931715Y-99885392D01*
X146931715Y-99885393D01*
X147065017Y-99991697D01*
X147302773Y-100141089D01*
X147555756Y-100262919D01*
X147820793Y-100355659D01*
X147820795Y-100355660D01*
X148094549Y-100418142D01*
X148094561Y-100418144D01*
X148373572Y-100449581D01*
X148373574Y-100449582D01*
X148654374Y-100449582D01*
X148654375Y-100449581D01*
X148933386Y-100418144D01*
X148933398Y-100418142D01*
X149207152Y-100355660D01*
X149207154Y-100355659D01*
X149472191Y-100262919D01*
X149725174Y-100141089D01*
X149962930Y-99991698D01*
X150096231Y-99885392D01*
X148513974Y-98303136D01*
X146931715Y-99885392D01*
X124171716Y-99885392D01*
X124138536Y-99500087D01*
X124138221Y-99495352D01*
X124093809Y-98549968D01*
X124093679Y-98545219D01*
X124087802Y-97809180D01*
X146013974Y-97809180D01*
X146013974Y-98089983D01*
X146045411Y-98368994D01*
X146045413Y-98369006D01*
X146107895Y-98642760D01*
X146107896Y-98642762D01*
X146200636Y-98907799D01*
X146322466Y-99160782D01*
X146471858Y-99398538D01*
X146578161Y-99531839D01*
X148160420Y-97949582D01*
X148160419Y-97949581D01*
X148867528Y-97949581D01*
X148867528Y-97949583D01*
X150449784Y-99531839D01*
X150556090Y-99398538D01*
X150705481Y-99160782D01*
X150827311Y-98907799D01*
X150920051Y-98642762D01*
X150920052Y-98642760D01*
X150982534Y-98369006D01*
X150982536Y-98368994D01*
X151013973Y-98089983D01*
X151013974Y-98089981D01*
X151013974Y-97809182D01*
X151013973Y-97809180D01*
X150982536Y-97530169D01*
X150982534Y-97530157D01*
X150920052Y-97256403D01*
X150920051Y-97256401D01*
X150827311Y-96991364D01*
X150705481Y-96738381D01*
X150637508Y-96630202D01*
X150626496Y-96612676D01*
X164134963Y-96612676D01*
X164134963Y-96612677D01*
X164268265Y-96718981D01*
X164506021Y-96868373D01*
X164759004Y-96990203D01*
X165024041Y-97082943D01*
X165024043Y-97082944D01*
X165297797Y-97145426D01*
X165297809Y-97145428D01*
X165576820Y-97176865D01*
X165576822Y-97176866D01*
X165857622Y-97176866D01*
X165857623Y-97176865D01*
X166136634Y-97145428D01*
X166136646Y-97145426D01*
X166410400Y-97082944D01*
X166410402Y-97082943D01*
X166675439Y-96990203D01*
X166928422Y-96868373D01*
X167166178Y-96718982D01*
X167299479Y-96612676D01*
X165717222Y-95030420D01*
X164134963Y-96612676D01*
X150626496Y-96612676D01*
X150556089Y-96500625D01*
X150449784Y-96367323D01*
X148867528Y-97949581D01*
X148160419Y-97949581D01*
X146578161Y-96367323D01*
X146471858Y-96500625D01*
X146322466Y-96738381D01*
X146200636Y-96991364D01*
X146107896Y-97256401D01*
X146107895Y-97256403D01*
X146045413Y-97530157D01*
X146045411Y-97530169D01*
X146013974Y-97809180D01*
X124087802Y-97809180D01*
X124086122Y-97598825D01*
X124086177Y-97594016D01*
X124086319Y-97589431D01*
X124115489Y-96648057D01*
X124115732Y-96643255D01*
X124115787Y-96642483D01*
X124117875Y-96612672D01*
X129728470Y-96612672D01*
X129728470Y-96612673D01*
X129861772Y-96718977D01*
X130099528Y-96868369D01*
X130352511Y-96990199D01*
X130617548Y-97082939D01*
X130617550Y-97082940D01*
X130891304Y-97145422D01*
X130891316Y-97145424D01*
X131170327Y-97176861D01*
X131170329Y-97176862D01*
X131451129Y-97176862D01*
X131451130Y-97176861D01*
X131730141Y-97145424D01*
X131730153Y-97145422D01*
X132003907Y-97082940D01*
X132003909Y-97082939D01*
X132268946Y-96990199D01*
X132521929Y-96868369D01*
X132759685Y-96718978D01*
X132892986Y-96612672D01*
X131310729Y-95030416D01*
X129728470Y-96612672D01*
X124117875Y-96612672D01*
X124181864Y-95699180D01*
X124182288Y-95694441D01*
X124285151Y-94753567D01*
X124285757Y-94748882D01*
X124317395Y-94536460D01*
X128810729Y-94536460D01*
X128810729Y-94817263D01*
X128842166Y-95096274D01*
X128842168Y-95096286D01*
X128904650Y-95370040D01*
X128904651Y-95370042D01*
X128997391Y-95635079D01*
X129119221Y-95888062D01*
X129268613Y-96125818D01*
X129374916Y-96259119D01*
X130957175Y-94676862D01*
X130957174Y-94676861D01*
X131664283Y-94676861D01*
X131664283Y-94676863D01*
X133246539Y-96259119D01*
X133352845Y-96125818D01*
X133423250Y-96013769D01*
X146931715Y-96013769D01*
X148513974Y-97596028D01*
X148513975Y-97596028D01*
X150096231Y-96013769D01*
X149962930Y-95907466D01*
X149725174Y-95758074D01*
X149472191Y-95636244D01*
X149207154Y-95543504D01*
X149207152Y-95543503D01*
X148933398Y-95481021D01*
X148933386Y-95481019D01*
X148654375Y-95449582D01*
X148373572Y-95449582D01*
X148094561Y-95481019D01*
X148094549Y-95481021D01*
X147820795Y-95543503D01*
X147820793Y-95543504D01*
X147555756Y-95636244D01*
X147302773Y-95758074D01*
X147065017Y-95907466D01*
X146931715Y-96013769D01*
X133423250Y-96013769D01*
X133434262Y-95996244D01*
X133502236Y-95888062D01*
X133624066Y-95635079D01*
X133716806Y-95370042D01*
X133716807Y-95370040D01*
X133779289Y-95096286D01*
X133779291Y-95096274D01*
X133810728Y-94817263D01*
X133810729Y-94817261D01*
X133810729Y-94536464D01*
X163217222Y-94536464D01*
X163217222Y-94817267D01*
X163248659Y-95096278D01*
X163248661Y-95096290D01*
X163311143Y-95370044D01*
X163311144Y-95370046D01*
X163403884Y-95635083D01*
X163525714Y-95888066D01*
X163675106Y-96125822D01*
X163781409Y-96259123D01*
X165363668Y-94676866D01*
X165363667Y-94676865D01*
X166070776Y-94676865D01*
X166070776Y-94676867D01*
X167653032Y-96259123D01*
X167759338Y-96125822D01*
X167908729Y-95888066D01*
X168030559Y-95635083D01*
X168123299Y-95370046D01*
X168123300Y-95370044D01*
X168185782Y-95096290D01*
X168185784Y-95096278D01*
X168217221Y-94817267D01*
X168217222Y-94817265D01*
X168217222Y-94536466D01*
X168217221Y-94536464D01*
X168185784Y-94257453D01*
X168185782Y-94257441D01*
X168123300Y-93983687D01*
X168123299Y-93983685D01*
X168030559Y-93718648D01*
X167908729Y-93465665D01*
X167759337Y-93227909D01*
X167653032Y-93094607D01*
X166070776Y-94676865D01*
X165363667Y-94676865D01*
X163781409Y-93094607D01*
X163675106Y-93227909D01*
X163525714Y-93465665D01*
X163403884Y-93718648D01*
X163311144Y-93983685D01*
X163311143Y-93983687D01*
X163248661Y-94257441D01*
X163248659Y-94257453D01*
X163217222Y-94536464D01*
X133810729Y-94536464D01*
X133810729Y-94536462D01*
X133810728Y-94536460D01*
X133779291Y-94257449D01*
X133779289Y-94257437D01*
X133716807Y-93983683D01*
X133716806Y-93983681D01*
X133624066Y-93718644D01*
X133502236Y-93465661D01*
X133352844Y-93227905D01*
X133246539Y-93094603D01*
X131664283Y-94676861D01*
X130957174Y-94676861D01*
X129374916Y-93094603D01*
X129268613Y-93227905D01*
X129119221Y-93465661D01*
X128997391Y-93718644D01*
X128904651Y-93983681D01*
X128904650Y-93983683D01*
X128842168Y-94257437D01*
X128842166Y-94257449D01*
X128810729Y-94536460D01*
X124317395Y-94536460D01*
X124425178Y-93812800D01*
X124425980Y-93808050D01*
X124426246Y-93806642D01*
X124600604Y-92884196D01*
X124603730Y-92871422D01*
X124643081Y-92741049D01*
X129728470Y-92741049D01*
X131310729Y-94323308D01*
X131310730Y-94323308D01*
X132892982Y-92741053D01*
X164134963Y-92741053D01*
X165717222Y-94323312D01*
X165717223Y-94323312D01*
X167299479Y-92741053D01*
X167166178Y-92634750D01*
X166928422Y-92485358D01*
X166675439Y-92363528D01*
X166410402Y-92270788D01*
X166410400Y-92270787D01*
X166136646Y-92208305D01*
X166136634Y-92208303D01*
X165857623Y-92176866D01*
X165576820Y-92176866D01*
X165297809Y-92208303D01*
X165297797Y-92208305D01*
X165024043Y-92270787D01*
X165024041Y-92270788D01*
X164759004Y-92363528D01*
X164506021Y-92485358D01*
X164268265Y-92634750D01*
X164134963Y-92741053D01*
X132892982Y-92741053D01*
X132892986Y-92741049D01*
X132759685Y-92634746D01*
X132521929Y-92485354D01*
X132268946Y-92363524D01*
X132003909Y-92270784D01*
X132003907Y-92270783D01*
X131730153Y-92208301D01*
X131730141Y-92208299D01*
X131451130Y-92176862D01*
X131170327Y-92176862D01*
X130891316Y-92208299D01*
X130891304Y-92208301D01*
X130617550Y-92270783D01*
X130617548Y-92270784D01*
X130352511Y-92363524D01*
X130099528Y-92485354D01*
X129861772Y-92634746D01*
X129728470Y-92741049D01*
X124643081Y-92741049D01*
X124746005Y-92400050D01*
X124748931Y-92391499D01*
X124748934Y-92391493D01*
X124926620Y-91928085D01*
X124930158Y-91919779D01*
X125141191Y-91470532D01*
X125145306Y-91462544D01*
X125388543Y-91029897D01*
X125393255Y-91022190D01*
X125667396Y-90608446D01*
X125672629Y-90601141D01*
X125976239Y-90208475D01*
X125982014Y-90201545D01*
X126313449Y-89832081D01*
X126319693Y-89825612D01*
X126677196Y-89481308D01*
X126683899Y-89475308D01*
X127065561Y-89158002D01*
X127072711Y-89152486D01*
X127476498Y-88863871D01*
X127484009Y-88858905D01*
X127907805Y-88600492D01*
X127915636Y-88596102D01*
X128357119Y-88369307D01*
X128365280Y-88365484D01*
X128822135Y-88171497D01*
X128830558Y-88168277D01*
X129300353Y-88008129D01*
X129308970Y-88005538D01*
X129789189Y-87880088D01*
X129798002Y-87878127D01*
X130286064Y-87788044D01*
X130295005Y-87786729D01*
X130788355Y-87732487D01*
X130797342Y-87731830D01*
X131296699Y-87713596D01*
X131301223Y-87713514D01*
X131322771Y-87713514D01*
X141684385Y-87713514D01*
X141751424Y-87733199D01*
X141772065Y-87749832D01*
X142027734Y-88005502D01*
X143136523Y-89114299D01*
X143136525Y-89114302D01*
X143153964Y-89131740D01*
X143153964Y-89131741D01*
X143213884Y-89191660D01*
X143350994Y-89291275D01*
X143501985Y-89368208D01*
X143501999Y-89368215D01*
X143502003Y-89368217D01*
X143663173Y-89420583D01*
X143663181Y-89420585D01*
X143830520Y-89447087D01*
X143830565Y-89447094D01*
X143830566Y-89447095D01*
X143830571Y-89447095D01*
X153115255Y-89447095D01*
X153115332Y-89447086D01*
X153171613Y-89447088D01*
X153339004Y-89420579D01*
X153500187Y-89368211D01*
X153651193Y-89291273D01*
X153788303Y-89191659D01*
X153819992Y-89159970D01*
X153819998Y-89159966D01*
X153837436Y-89142528D01*
X153837437Y-89142528D01*
X155230131Y-87749823D01*
X155291454Y-87716339D01*
X155317813Y-87713505D01*
X165679418Y-87713505D01*
X165702086Y-87713505D01*
X165706612Y-87713588D01*
G37*
%TD.AperFunction*%
%TD*%
M02*
