%TF.GenerationSoftware,KiCad,Pcbnew,9.0.6*%
%TF.CreationDate,2025-11-21T10:39:52+00:00*%
%TF.ProjectId,batt_pcb_front,62617474-5f70-4636-925f-66726f6e742e,rev?*%
%TF.SameCoordinates,Original*%
%TF.FileFunction,Copper,L2,Bot*%
%TF.FilePolarity,Positive*%
%FSLAX46Y46*%
G04 Gerber Fmt 4.6, Leading zero omitted, Abs format (unit mm)*
G04 Created by KiCad (PCBNEW 9.0.6) date 2025-11-21 10:39:52*
%MOMM*%
%LPD*%
G01*
G04 APERTURE LIST*
G04 Aperture macros list*
%AMRoundRect*
0 Rectangle with rounded corners*
0 $1 Rounding radius*
0 $2 $3 $4 $5 $6 $7 $8 $9 X,Y pos of 4 corners*
0 Add a 4 corners polygon primitive as box body*
4,1,4,$2,$3,$4,$5,$6,$7,$8,$9,$2,$3,0*
0 Add four circle primitives for the rounded corners*
1,1,$1+$1,$2,$3*
1,1,$1+$1,$4,$5*
1,1,$1+$1,$6,$7*
1,1,$1+$1,$8,$9*
0 Add four rect primitives between the rounded corners*
20,1,$1+$1,$2,$3,$4,$5,0*
20,1,$1+$1,$4,$5,$6,$7,0*
20,1,$1+$1,$6,$7,$8,$9,0*
20,1,$1+$1,$8,$9,$2,$3,0*%
G04 Aperture macros list end*
%TA.AperFunction,SMDPad,CuDef*%
%ADD10RoundRect,0.250000X0.250000X1.500000X-0.250000X1.500000X-0.250000X-1.500000X0.250000X-1.500000X0*%
%TD*%
%TA.AperFunction,SMDPad,CuDef*%
%ADD11RoundRect,0.250001X0.499999X1.449999X-0.499999X1.449999X-0.499999X-1.449999X0.499999X-1.449999X0*%
%TD*%
%TA.AperFunction,SMDPad,CuDef*%
%ADD12RoundRect,0.150000X0.150000X0.625000X-0.150000X0.625000X-0.150000X-0.625000X0.150000X-0.625000X0*%
%TD*%
%TA.AperFunction,SMDPad,CuDef*%
%ADD13RoundRect,0.250000X0.350000X0.650000X-0.350000X0.650000X-0.350000X-0.650000X0.350000X-0.650000X0*%
%TD*%
%TA.AperFunction,SMDPad,CuDef*%
%ADD14R,3.500000X3.300000*%
%TD*%
%TA.AperFunction,SMDPad,CuDef*%
%ADD15C,10.200000*%
%TD*%
%TA.AperFunction,ViaPad*%
%ADD16C,0.600000*%
%TD*%
%TA.AperFunction,Conductor*%
%ADD17C,0.500000*%
%TD*%
G04 APERTURE END LIST*
D10*
%TO.P,J8,1,Pin_1*%
%TO.N,GND*%
X132337420Y-91053698D03*
%TO.P,J8,2,Pin_2*%
X130337420Y-91053698D03*
D11*
%TO.P,J8,MP*%
%TO.N,N/C*%
X134687420Y-96803698D03*
X127987420Y-96803698D03*
%TD*%
D12*
%TO.P,J1,1,Pin_1*%
%TO.N,/+RTC_BATT*%
X149011320Y-95078698D03*
%TO.P,J1,2,Pin_2*%
%TO.N,/RTC_GND*%
X148011320Y-95078698D03*
D13*
%TO.P,J1,MP*%
%TO.N,N/C*%
X150311320Y-92553698D03*
X146711320Y-92553698D03*
%TD*%
D14*
%TO.P,BT1,1,+*%
%TO.N,/+RTC_BATT*%
X156412420Y-104703698D03*
X140612420Y-104703698D03*
D15*
%TO.P,BT1,2,-*%
%TO.N,/RTC_GND*%
X148512420Y-104703698D03*
%TD*%
D16*
%TO.N,GND*%
X156900000Y-94925000D03*
X168250000Y-100400000D03*
X153475000Y-113725000D03*
X148575000Y-120900000D03*
X161725000Y-115075000D03*
X160475000Y-98000000D03*
X153050000Y-92050000D03*
X141000000Y-96250000D03*
X157075000Y-111550000D03*
X125650000Y-94025000D03*
X161150000Y-89825000D03*
X168075000Y-89875000D03*
X133100000Y-103750000D03*
X137375000Y-114725000D03*
X136900000Y-100675000D03*
X143475000Y-113650000D03*
X153600000Y-119300000D03*
X170850000Y-94550000D03*
X129800000Y-107425000D03*
X128250000Y-89100000D03*
X143575000Y-118550000D03*
X131225000Y-100075000D03*
X125475000Y-100000000D03*
X166775000Y-107000000D03*
X140250000Y-110075000D03*
X143825000Y-92200000D03*
X137650000Y-92675000D03*
X135300000Y-89375000D03*
X163700000Y-102075000D03*
%TD*%
D17*
%TO.N,/+RTC_BATT*%
X140612420Y-106478698D02*
X140612420Y-104703698D01*
X149011320Y-95078698D02*
X149011320Y-96102598D01*
X156412420Y-106428698D02*
X151362420Y-111478698D01*
X150587420Y-97678698D02*
X152987420Y-97678698D01*
X156412420Y-101103698D02*
X156412420Y-104703698D01*
X151362420Y-111478698D02*
X145612420Y-111478698D01*
X149011320Y-96102598D02*
X150587420Y-97678698D01*
X145612420Y-111478698D02*
X140612420Y-106478698D01*
X152987420Y-97678698D02*
X156412420Y-101103698D01*
X156412420Y-104703698D02*
X156412420Y-106428698D01*
%TO.N,/RTC_GND*%
X148011320Y-104202598D02*
X148512420Y-104703698D01*
X148011320Y-95078698D02*
X148011320Y-104202598D01*
%TD*%
%TA.AperFunction,Conductor*%
%TO.N,GND*%
G36*
X165706612Y-87713588D02*
G01*
X165718715Y-87714030D01*
X166204837Y-87731786D01*
X166213836Y-87732444D01*
X166707199Y-87786693D01*
X166716103Y-87788003D01*
X167204196Y-87878097D01*
X167213001Y-87880057D01*
X167693177Y-88005502D01*
X167701844Y-88008106D01*
X168171619Y-88168253D01*
X168180062Y-88171480D01*
X168636880Y-88365459D01*
X168645064Y-88369292D01*
X169086529Y-88596082D01*
X169094413Y-88600503D01*
X169444855Y-88814192D01*
X169518142Y-88858880D01*
X169525690Y-88863869D01*
X169835555Y-89085357D01*
X169929450Y-89152472D01*
X169936614Y-89157999D01*
X170318253Y-89475290D01*
X170324973Y-89481305D01*
X170682454Y-89825591D01*
X170682464Y-89825601D01*
X170688749Y-89832114D01*
X171020139Y-90201533D01*
X171025933Y-90208486D01*
X171329504Y-90601107D01*
X171334776Y-90608465D01*
X171608903Y-91022190D01*
X171613623Y-91029912D01*
X171856836Y-91462523D01*
X171860981Y-91470570D01*
X172071989Y-91919766D01*
X172075536Y-91928093D01*
X172253219Y-92391493D01*
X172256149Y-92400057D01*
X172398622Y-92872090D01*
X172401753Y-92884886D01*
X172576009Y-93806642D01*
X172576813Y-93811399D01*
X172716104Y-94746070D01*
X172716722Y-94750853D01*
X172819558Y-95690235D01*
X172819989Y-95695040D01*
X172886207Y-96637666D01*
X172886452Y-96642483D01*
X172915963Y-97587041D01*
X172916019Y-97591864D01*
X172908770Y-98536775D01*
X172908640Y-98541597D01*
X172864644Y-99485594D01*
X172864325Y-99490407D01*
X172783653Y-100431914D01*
X172783148Y-100436711D01*
X172665917Y-101374386D01*
X172665226Y-101379160D01*
X172511610Y-102311597D01*
X172510733Y-102316340D01*
X172320978Y-103242049D01*
X172319918Y-103246755D01*
X172094293Y-104164426D01*
X172093050Y-104169087D01*
X171831910Y-105077270D01*
X171830487Y-105081878D01*
X171534231Y-105979199D01*
X171532630Y-105983750D01*
X171201693Y-106868882D01*
X171199917Y-106873366D01*
X170834796Y-107744979D01*
X170832846Y-107749391D01*
X170434112Y-108606124D01*
X170431992Y-108610457D01*
X170000234Y-109451043D01*
X169997947Y-109455290D01*
X169533821Y-110278452D01*
X169531370Y-110282607D01*
X169149165Y-110902786D01*
X169097235Y-110949530D01*
X169028277Y-110960778D01*
X168977947Y-110942921D01*
X168656512Y-110742300D01*
X168304977Y-110567289D01*
X168304956Y-110567279D01*
X168304951Y-110567277D01*
X167938217Y-110426775D01*
X167938215Y-110426774D01*
X167938214Y-110426774D01*
X167938211Y-110426773D01*
X167559702Y-110322093D01*
X167172881Y-110254196D01*
X166781332Y-110223712D01*
X166388679Y-110230922D01*
X166388672Y-110230922D01*
X165998520Y-110275756D01*
X165781626Y-110322093D01*
X165614458Y-110357806D01*
X165614453Y-110357807D01*
X165614451Y-110357808D01*
X165614448Y-110357808D01*
X165240041Y-110476309D01*
X165240036Y-110476311D01*
X164878714Y-110630175D01*
X164878709Y-110630177D01*
X164533808Y-110817988D01*
X164533798Y-110817994D01*
X164208486Y-111038028D01*
X164208485Y-111038028D01*
X163905797Y-111288230D01*
X163628483Y-111566328D01*
X163379125Y-111869731D01*
X163160017Y-112195650D01*
X162973172Y-112541090D01*
X162820324Y-112902850D01*
X162820324Y-112902851D01*
X162702874Y-113277606D01*
X162621909Y-113661894D01*
X162578173Y-114052190D01*
X162578173Y-114052195D01*
X162572072Y-114444865D01*
X162572072Y-114444876D01*
X162603657Y-114836309D01*
X162603658Y-114836313D01*
X162672644Y-115222937D01*
X162672645Y-115222942D01*
X162778394Y-115601167D01*
X162919927Y-115967497D01*
X162919930Y-115967503D01*
X163095948Y-116318575D01*
X163095949Y-116318576D01*
X163304827Y-116651152D01*
X163537978Y-116953520D01*
X163563326Y-117018629D01*
X163549450Y-117087107D01*
X163514982Y-117127832D01*
X162924527Y-117578191D01*
X162920576Y-117581083D01*
X162135525Y-118132241D01*
X162131463Y-118134975D01*
X161325248Y-118654720D01*
X161321081Y-118657291D01*
X160495001Y-119144788D01*
X160490736Y-119147193D01*
X159646023Y-119601717D01*
X159641666Y-119603951D01*
X158779710Y-120024750D01*
X158775269Y-120026811D01*
X157897346Y-120413266D01*
X157892827Y-120415150D01*
X157000322Y-120766650D01*
X156995731Y-120768354D01*
X156090054Y-121084341D01*
X156085400Y-121085862D01*
X155167959Y-121365847D01*
X155163249Y-121367183D01*
X154235494Y-121610726D01*
X154230735Y-121611876D01*
X153294055Y-121818609D01*
X153289254Y-121819570D01*
X152345132Y-121989166D01*
X152340296Y-121989936D01*
X151390250Y-122122122D01*
X151385388Y-122122701D01*
X150430833Y-122217281D01*
X150425952Y-122217667D01*
X149468449Y-122274487D01*
X149463557Y-122274681D01*
X148504513Y-122293657D01*
X148499617Y-122293657D01*
X147540597Y-122274758D01*
X147535704Y-122274565D01*
X146578170Y-122217819D01*
X146573289Y-122217433D01*
X145618727Y-122122928D01*
X145613865Y-122122349D01*
X144663804Y-121990238D01*
X144658969Y-121989468D01*
X143714860Y-121819952D01*
X143710059Y-121818992D01*
X142773370Y-121612335D01*
X142768610Y-121611186D01*
X141840805Y-121367710D01*
X141836095Y-121366374D01*
X140918633Y-121086462D01*
X140913979Y-121084941D01*
X140008268Y-120769022D01*
X140003678Y-120767318D01*
X139111184Y-120415905D01*
X139106664Y-120414022D01*
X138228711Y-120027637D01*
X138224269Y-120025577D01*
X137362239Y-119604825D01*
X137357883Y-119602591D01*
X136880803Y-119345934D01*
X136513143Y-119148141D01*
X136508900Y-119145749D01*
X135682744Y-118658294D01*
X135678608Y-118655742D01*
X135275473Y-118395897D01*
X134872354Y-118136062D01*
X134868292Y-118133329D01*
X134083180Y-117582223D01*
X134079229Y-117579331D01*
X133487755Y-117128271D01*
X133446384Y-117071967D01*
X133442022Y-117002233D01*
X133464741Y-116953965D01*
X133694308Y-116656177D01*
X133902346Y-116324905D01*
X134077674Y-115975220D01*
X134218680Y-115610339D01*
X134324064Y-115233624D01*
X134392856Y-114848542D01*
X134424423Y-114458640D01*
X134418474Y-114067507D01*
X134375064Y-113678745D01*
X134294592Y-113295934D01*
X134244598Y-113136124D01*
X134177803Y-112922605D01*
X134169470Y-112902850D01*
X134025762Y-112562175D01*
X133839880Y-112217983D01*
X133824892Y-112195655D01*
X133621863Y-111893191D01*
X133621862Y-111893190D01*
X133558084Y-111815467D01*
X133373721Y-111590792D01*
X133097741Y-111313572D01*
X133097738Y-111313568D01*
X132796465Y-111064082D01*
X132796452Y-111064072D01*
X132472649Y-110844605D01*
X132129299Y-110657183D01*
X132129286Y-110657177D01*
X131769549Y-110503526D01*
X131769541Y-110503523D01*
X131396744Y-110385062D01*
X131396729Y-110385058D01*
X131014296Y-110302873D01*
X130625740Y-110257722D01*
X130234633Y-110250018D01*
X130234630Y-110250018D01*
X129874408Y-110277557D01*
X129844589Y-110279837D01*
X129763395Y-110293966D01*
X129459205Y-110346901D01*
X129082026Y-110450593D01*
X129082000Y-110450602D01*
X128716523Y-110589958D01*
X128716515Y-110589961D01*
X128366056Y-110763715D01*
X128366035Y-110763727D01*
X128039186Y-110966948D01*
X127971860Y-110985629D01*
X127905122Y-110964946D01*
X127868221Y-110926817D01*
X127853374Y-110902786D01*
X127484312Y-110305422D01*
X127481854Y-110301264D01*
X127016188Y-109477406D01*
X127013893Y-109473155D01*
X127004694Y-109455290D01*
X126580647Y-108631742D01*
X126578529Y-108627422D01*
X126569614Y-108608314D01*
X126178387Y-107769779D01*
X126176460Y-107765429D01*
X125810015Y-106892822D01*
X125808239Y-106888350D01*
X125804708Y-106878930D01*
X125476080Y-106002185D01*
X125474473Y-105997629D01*
X125336739Y-105581529D01*
X125177085Y-105099211D01*
X125175661Y-105094612D01*
X125170661Y-105077270D01*
X124913468Y-104185207D01*
X124912243Y-104180622D01*
X124742956Y-103494038D01*
X125659500Y-103494038D01*
X125659500Y-103745961D01*
X125698910Y-103994785D01*
X125776760Y-104234383D01*
X125891132Y-104458848D01*
X126039201Y-104662649D01*
X126039205Y-104662654D01*
X126217345Y-104840794D01*
X126217350Y-104840798D01*
X126395117Y-104969952D01*
X126421155Y-104988870D01*
X126564184Y-105061747D01*
X126645616Y-105103239D01*
X126645618Y-105103239D01*
X126645621Y-105103241D01*
X126885215Y-105181090D01*
X127134038Y-105220500D01*
X127134039Y-105220500D01*
X127385961Y-105220500D01*
X127385962Y-105220500D01*
X127634785Y-105181090D01*
X127874379Y-105103241D01*
X128098845Y-104988870D01*
X128302656Y-104840793D01*
X128480793Y-104662656D01*
X128628870Y-104458845D01*
X128743241Y-104234379D01*
X128821090Y-103994785D01*
X128860500Y-103745962D01*
X128860500Y-103494038D01*
X128823337Y-103259401D01*
X128821090Y-103245214D01*
X128800650Y-103182308D01*
X128743310Y-103005833D01*
X138361920Y-103005833D01*
X138361920Y-106401568D01*
X138361921Y-106401574D01*
X138368328Y-106461181D01*
X138418622Y-106596026D01*
X138418626Y-106596033D01*
X138504872Y-106711242D01*
X138504875Y-106711245D01*
X138620084Y-106797491D01*
X138620091Y-106797495D01*
X138754937Y-106847789D01*
X138754936Y-106847789D01*
X138761864Y-106848533D01*
X138814547Y-106854198D01*
X139894422Y-106854197D01*
X139961461Y-106873882D01*
X139997524Y-106909306D01*
X140029469Y-106957116D01*
X140029472Y-106957119D01*
X145134004Y-112061650D01*
X145134006Y-112061652D01*
X145163478Y-112081343D01*
X145207690Y-112110884D01*
X145256925Y-112143782D01*
X145256926Y-112143782D01*
X145256927Y-112143783D01*
X145256929Y-112143784D01*
X145382158Y-112195655D01*
X145393507Y-112200356D01*
X145393511Y-112200356D01*
X145393512Y-112200357D01*
X145538499Y-112229198D01*
X145538502Y-112229198D01*
X151436340Y-112229198D01*
X151533882Y-112209794D01*
X151581333Y-112200356D01*
X151717915Y-112143782D01*
X151767149Y-112110884D01*
X151767154Y-112110881D01*
X151791491Y-112094619D01*
X151840836Y-112061650D01*
X156995371Y-106907114D01*
X156995374Y-106907108D01*
X156999241Y-106902399D01*
X157000720Y-106903612D01*
X157047519Y-106864501D01*
X157097009Y-106854197D01*
X158210291Y-106854197D01*
X158210292Y-106854197D01*
X158269903Y-106847789D01*
X158404751Y-106797494D01*
X158519966Y-106711244D01*
X158606216Y-106596029D01*
X158656511Y-106461181D01*
X158662920Y-106401571D01*
X158662919Y-103494038D01*
X168139500Y-103494038D01*
X168139500Y-103745961D01*
X168178910Y-103994785D01*
X168256760Y-104234383D01*
X168371132Y-104458848D01*
X168519201Y-104662649D01*
X168519205Y-104662654D01*
X168697345Y-104840794D01*
X168697350Y-104840798D01*
X168875117Y-104969952D01*
X168901155Y-104988870D01*
X169044184Y-105061747D01*
X169125616Y-105103239D01*
X169125618Y-105103239D01*
X169125621Y-105103241D01*
X169365215Y-105181090D01*
X169614038Y-105220500D01*
X169614039Y-105220500D01*
X169865961Y-105220500D01*
X169865962Y-105220500D01*
X170114785Y-105181090D01*
X170354379Y-105103241D01*
X170578845Y-104988870D01*
X170782656Y-104840793D01*
X170960793Y-104662656D01*
X171108870Y-104458845D01*
X171223241Y-104234379D01*
X171301090Y-103994785D01*
X171340500Y-103745962D01*
X171340500Y-103494038D01*
X171301090Y-103245215D01*
X171223241Y-103005621D01*
X171223239Y-103005618D01*
X171223239Y-103005616D01*
X171181747Y-102924184D01*
X171108870Y-102781155D01*
X171047112Y-102696152D01*
X170960798Y-102577350D01*
X170960794Y-102577345D01*
X170782654Y-102399205D01*
X170782649Y-102399201D01*
X170578848Y-102251132D01*
X170578847Y-102251131D01*
X170578845Y-102251130D01*
X170508747Y-102215413D01*
X170354383Y-102136760D01*
X170114785Y-102058910D01*
X169865962Y-102019500D01*
X169614038Y-102019500D01*
X169489626Y-102039205D01*
X169365214Y-102058910D01*
X169125616Y-102136760D01*
X168901151Y-102251132D01*
X168697350Y-102399201D01*
X168697345Y-102399205D01*
X168519205Y-102577345D01*
X168519201Y-102577350D01*
X168371132Y-102781151D01*
X168256760Y-103005616D01*
X168178910Y-103245214D01*
X168139500Y-103494038D01*
X158662919Y-103494038D01*
X158662919Y-103005826D01*
X158656511Y-102946215D01*
X158611791Y-102826315D01*
X158606217Y-102811369D01*
X158606213Y-102811362D01*
X158519967Y-102696153D01*
X158519964Y-102696150D01*
X158404755Y-102609904D01*
X158404748Y-102609900D01*
X158269902Y-102559606D01*
X158269903Y-102559606D01*
X158210303Y-102553199D01*
X158210301Y-102553198D01*
X158210293Y-102553198D01*
X158210285Y-102553198D01*
X157286920Y-102553198D01*
X157219881Y-102533513D01*
X157174126Y-102480709D01*
X157162920Y-102429198D01*
X157162920Y-101029777D01*
X157134079Y-100884790D01*
X157134078Y-100884789D01*
X157134078Y-100884785D01*
X157134076Y-100884780D01*
X157077507Y-100748209D01*
X157077500Y-100748196D01*
X156995372Y-100625283D01*
X156958035Y-100587946D01*
X156890836Y-100520747D01*
X156183603Y-99813514D01*
X153465841Y-97095750D01*
X153465834Y-97095744D01*
X153392149Y-97046510D01*
X153392149Y-97046511D01*
X153342911Y-97013611D01*
X153206337Y-96957041D01*
X153206327Y-96957038D01*
X153061340Y-96928198D01*
X153061338Y-96928198D01*
X150949650Y-96928198D01*
X150882611Y-96908513D01*
X150861969Y-96891879D01*
X149846964Y-95876874D01*
X149813479Y-95815551D01*
X149811027Y-95779465D01*
X149811820Y-95769392D01*
X149811820Y-94388004D01*
X149808918Y-94351129D01*
X149763064Y-94193300D01*
X149728081Y-94134146D01*
X149710899Y-94066425D01*
X149733059Y-94000163D01*
X149787525Y-93956399D01*
X149847415Y-93947670D01*
X149911311Y-93954198D01*
X150711328Y-93954197D01*
X150711336Y-93954196D01*
X150711339Y-93954196D01*
X150767622Y-93948446D01*
X150814117Y-93943697D01*
X150980654Y-93888512D01*
X151129976Y-93796410D01*
X151254032Y-93672354D01*
X151346134Y-93523032D01*
X151401319Y-93356495D01*
X151411820Y-93253707D01*
X151411819Y-91853690D01*
X151401319Y-91750901D01*
X151346134Y-91584364D01*
X151254032Y-91435042D01*
X151129976Y-91310986D01*
X150980654Y-91218884D01*
X150814117Y-91163699D01*
X150814115Y-91163698D01*
X150711330Y-91153198D01*
X149911318Y-91153198D01*
X149911300Y-91153199D01*
X149808523Y-91163698D01*
X149808520Y-91163699D01*
X149641988Y-91218883D01*
X149641983Y-91218885D01*
X149492662Y-91310987D01*
X149368609Y-91435040D01*
X149276507Y-91584361D01*
X149276506Y-91584364D01*
X149221321Y-91750901D01*
X149221321Y-91750902D01*
X149221320Y-91750902D01*
X149210820Y-91853681D01*
X149210820Y-93253699D01*
X149210821Y-93253716D01*
X149221320Y-93356494D01*
X149221321Y-93356497D01*
X149276505Y-93523029D01*
X149276506Y-93523032D01*
X149332678Y-93614102D01*
X149351118Y-93681494D01*
X149330195Y-93748157D01*
X149276553Y-93792927D01*
X149227139Y-93803198D01*
X148795618Y-93803198D01*
X148758752Y-93806099D01*
X148758746Y-93806100D01*
X148600926Y-93851951D01*
X148574439Y-93867616D01*
X148506714Y-93884796D01*
X148448201Y-93867616D01*
X148421713Y-93851951D01*
X148263893Y-93806100D01*
X148263887Y-93806099D01*
X148227021Y-93803198D01*
X148227014Y-93803198D01*
X147795626Y-93803198D01*
X147795501Y-93803198D01*
X147728462Y-93783513D01*
X147682707Y-93730709D01*
X147672763Y-93661551D01*
X147689961Y-93614103D01*
X147746134Y-93523032D01*
X147801319Y-93356495D01*
X147811820Y-93253707D01*
X147811819Y-91853690D01*
X147801319Y-91750901D01*
X147746134Y-91584364D01*
X147654032Y-91435042D01*
X147529976Y-91310986D01*
X147380654Y-91218884D01*
X147214117Y-91163699D01*
X147214115Y-91163698D01*
X147111330Y-91153198D01*
X146311318Y-91153198D01*
X146311300Y-91153199D01*
X146208523Y-91163698D01*
X146208520Y-91163699D01*
X146041988Y-91218883D01*
X146041983Y-91218885D01*
X145892662Y-91310987D01*
X145768609Y-91435040D01*
X145676507Y-91584361D01*
X145676506Y-91584364D01*
X145621321Y-91750901D01*
X145621321Y-91750902D01*
X145621320Y-91750902D01*
X145610820Y-91853681D01*
X145610820Y-93253699D01*
X145610821Y-93253716D01*
X145621320Y-93356494D01*
X145621321Y-93356497D01*
X145676505Y-93523029D01*
X145676506Y-93523032D01*
X145768608Y-93672354D01*
X145892664Y-93796410D01*
X146041986Y-93888512D01*
X146208523Y-93943697D01*
X146311311Y-93954198D01*
X147111328Y-93954197D01*
X147175226Y-93947669D01*
X147243915Y-93960438D01*
X147294800Y-94008318D01*
X147311721Y-94076108D01*
X147294558Y-94134146D01*
X147259576Y-94193299D01*
X147259574Y-94193304D01*
X147213722Y-94351124D01*
X147213721Y-94351130D01*
X147210820Y-94387996D01*
X147210820Y-95769399D01*
X147213721Y-95806265D01*
X147213722Y-95806271D01*
X147255896Y-95951431D01*
X147260820Y-95986026D01*
X147260820Y-99146787D01*
X147241135Y-99213826D01*
X147188331Y-99259581D01*
X147165768Y-99267361D01*
X147101597Y-99282767D01*
X146991045Y-99309309D01*
X146991040Y-99309310D01*
X146991030Y-99309313D01*
X146572501Y-99445300D01*
X146165909Y-99613717D01*
X145773771Y-99813521D01*
X145773766Y-99813524D01*
X145398557Y-100043453D01*
X145398546Y-100043461D01*
X145042516Y-100302131D01*
X145042502Y-100302141D01*
X144707869Y-100587946D01*
X144707855Y-100587959D01*
X144396681Y-100899133D01*
X144396668Y-100899147D01*
X144110863Y-101233780D01*
X144110853Y-101233794D01*
X143852183Y-101589824D01*
X143852175Y-101589835D01*
X143622246Y-101965044D01*
X143622243Y-101965049D01*
X143422439Y-102357187D01*
X143254022Y-102763779D01*
X143118035Y-103182308D01*
X143118032Y-103182318D01*
X143118031Y-103182323D01*
X143107492Y-103226220D01*
X143072702Y-103286811D01*
X143010675Y-103318974D01*
X142941106Y-103312498D01*
X142886083Y-103269438D01*
X142863074Y-103203465D01*
X142862919Y-103197271D01*
X142862919Y-103005827D01*
X142862918Y-103005821D01*
X142862917Y-103005814D01*
X142856511Y-102946215D01*
X142811791Y-102826315D01*
X142806217Y-102811369D01*
X142806213Y-102811362D01*
X142719967Y-102696153D01*
X142719964Y-102696150D01*
X142604755Y-102609904D01*
X142604748Y-102609900D01*
X142469902Y-102559606D01*
X142469903Y-102559606D01*
X142410303Y-102553199D01*
X142410301Y-102553198D01*
X142410293Y-102553198D01*
X142410284Y-102553198D01*
X138814549Y-102553198D01*
X138814543Y-102553199D01*
X138754936Y-102559606D01*
X138620091Y-102609900D01*
X138620084Y-102609904D01*
X138504875Y-102696150D01*
X138504872Y-102696153D01*
X138418626Y-102811362D01*
X138418622Y-102811369D01*
X138368328Y-102946215D01*
X138361942Y-103005616D01*
X138361921Y-103005821D01*
X138361920Y-103005833D01*
X128743310Y-103005833D01*
X128743241Y-103005621D01*
X128628870Y-102781155D01*
X128567112Y-102696152D01*
X128480798Y-102577350D01*
X128480794Y-102577345D01*
X128302654Y-102399205D01*
X128302649Y-102399201D01*
X128098848Y-102251132D01*
X128098847Y-102251131D01*
X128098845Y-102251130D01*
X128028747Y-102215413D01*
X127874383Y-102136760D01*
X127634785Y-102058910D01*
X127385962Y-102019500D01*
X127134038Y-102019500D01*
X127009626Y-102039205D01*
X126885214Y-102058910D01*
X126645616Y-102136760D01*
X126421151Y-102251132D01*
X126217350Y-102399201D01*
X126217345Y-102399205D01*
X126039205Y-102577345D01*
X126039201Y-102577350D01*
X125891132Y-102781151D01*
X125776760Y-103005616D01*
X125698910Y-103245214D01*
X125659500Y-103494038D01*
X124742956Y-103494038D01*
X124699792Y-103318974D01*
X124685683Y-103261749D01*
X124684618Y-103257037D01*
X124669253Y-103182308D01*
X124494018Y-102330031D01*
X124493150Y-102325354D01*
X124338793Y-101391576D01*
X124338109Y-101386872D01*
X124220242Y-100447805D01*
X124219736Y-100443020D01*
X124218780Y-100431914D01*
X124138536Y-99500087D01*
X124138221Y-99495352D01*
X124093809Y-98549968D01*
X124093679Y-98545219D01*
X124086122Y-97598825D01*
X124086177Y-97594016D01*
X124086319Y-97589431D01*
X124115489Y-96648057D01*
X124115732Y-96643255D01*
X124181864Y-95699180D01*
X124182288Y-95694441D01*
X124225009Y-95303682D01*
X126736920Y-95303682D01*
X126736920Y-98303703D01*
X126747420Y-98406493D01*
X126747421Y-98406494D01*
X126802606Y-98573033D01*
X126802607Y-98573035D01*
X126894706Y-98722349D01*
X126894709Y-98722353D01*
X127018764Y-98846408D01*
X127018768Y-98846411D01*
X127168082Y-98938510D01*
X127168084Y-98938511D01*
X127168086Y-98938512D01*
X127334623Y-98993697D01*
X127437412Y-99004198D01*
X127437417Y-99004198D01*
X128537423Y-99004198D01*
X128537428Y-99004198D01*
X128640217Y-98993697D01*
X128806754Y-98938512D01*
X128956075Y-98846409D01*
X129080131Y-98722353D01*
X129172234Y-98573032D01*
X129227419Y-98406495D01*
X129237920Y-98303706D01*
X129237920Y-95303690D01*
X129237919Y-95303682D01*
X133436920Y-95303682D01*
X133436920Y-98303703D01*
X133447420Y-98406493D01*
X133447421Y-98406494D01*
X133502606Y-98573033D01*
X133502607Y-98573035D01*
X133594706Y-98722349D01*
X133594709Y-98722353D01*
X133718764Y-98846408D01*
X133718768Y-98846411D01*
X133868082Y-98938510D01*
X133868084Y-98938511D01*
X133868086Y-98938512D01*
X134034623Y-98993697D01*
X134137412Y-99004198D01*
X134137417Y-99004198D01*
X135237423Y-99004198D01*
X135237428Y-99004198D01*
X135340217Y-98993697D01*
X135506754Y-98938512D01*
X135656075Y-98846409D01*
X135780131Y-98722353D01*
X135872234Y-98573032D01*
X135927419Y-98406495D01*
X135937920Y-98303706D01*
X135937920Y-95303690D01*
X135927419Y-95200901D01*
X135872234Y-95034364D01*
X135780131Y-94885043D01*
X135656075Y-94760987D01*
X135656071Y-94760984D01*
X135506757Y-94668885D01*
X135506755Y-94668884D01*
X135423485Y-94641291D01*
X135340217Y-94613699D01*
X135340215Y-94613698D01*
X135237435Y-94603198D01*
X135237428Y-94603198D01*
X134137412Y-94603198D01*
X134137404Y-94603198D01*
X134034624Y-94613698D01*
X134034623Y-94613699D01*
X133868084Y-94668884D01*
X133868082Y-94668885D01*
X133718768Y-94760984D01*
X133718764Y-94760987D01*
X133594709Y-94885042D01*
X133594706Y-94885046D01*
X133502607Y-95034360D01*
X133502606Y-95034362D01*
X133447421Y-95200901D01*
X133447420Y-95200902D01*
X133436920Y-95303682D01*
X129237919Y-95303682D01*
X129227419Y-95200901D01*
X129172234Y-95034364D01*
X129080131Y-94885043D01*
X128956075Y-94760987D01*
X128956071Y-94760984D01*
X128806757Y-94668885D01*
X128806755Y-94668884D01*
X128723485Y-94641291D01*
X128640217Y-94613699D01*
X128640215Y-94613698D01*
X128537435Y-94603198D01*
X128537428Y-94603198D01*
X127437412Y-94603198D01*
X127437404Y-94603198D01*
X127334624Y-94613698D01*
X127334623Y-94613699D01*
X127168084Y-94668884D01*
X127168082Y-94668885D01*
X127018768Y-94760984D01*
X127018764Y-94760987D01*
X126894709Y-94885042D01*
X126894706Y-94885046D01*
X126802607Y-95034360D01*
X126802606Y-95034362D01*
X126747421Y-95200901D01*
X126747420Y-95200902D01*
X126736920Y-95303682D01*
X124225009Y-95303682D01*
X124285151Y-94753567D01*
X124285757Y-94748882D01*
X124425178Y-93812800D01*
X124425980Y-93808050D01*
X124428181Y-93796408D01*
X124600604Y-92884196D01*
X124603730Y-92871422D01*
X124684542Y-92603684D01*
X129337421Y-92603684D01*
X129347914Y-92706395D01*
X129403061Y-92872817D01*
X129403063Y-92872822D01*
X129495104Y-93022043D01*
X129619074Y-93146013D01*
X129768295Y-93238054D01*
X129768300Y-93238056D01*
X129934722Y-93293203D01*
X129934729Y-93293204D01*
X130037439Y-93303697D01*
X130587420Y-93303697D01*
X130637392Y-93303697D01*
X130637406Y-93303696D01*
X130740117Y-93293203D01*
X130906539Y-93238056D01*
X130906544Y-93238054D01*
X131055765Y-93146013D01*
X131179735Y-93022043D01*
X131231881Y-92937502D01*
X131283829Y-92890778D01*
X131352792Y-92879555D01*
X131416874Y-92907399D01*
X131442959Y-92937502D01*
X131495104Y-93022043D01*
X131619074Y-93146013D01*
X131768295Y-93238054D01*
X131768300Y-93238056D01*
X131934722Y-93293203D01*
X131934729Y-93293204D01*
X132037439Y-93303697D01*
X132587420Y-93303697D01*
X132637392Y-93303697D01*
X132637406Y-93303696D01*
X132740117Y-93293203D01*
X132906539Y-93238056D01*
X132906544Y-93238054D01*
X133055765Y-93146013D01*
X133179735Y-93022043D01*
X133271776Y-92872822D01*
X133271778Y-92872817D01*
X133326925Y-92706395D01*
X133326926Y-92706388D01*
X133337419Y-92603684D01*
X133337420Y-92603671D01*
X133337420Y-91303698D01*
X132587420Y-91303698D01*
X132587420Y-93303697D01*
X132037439Y-93303697D01*
X132087419Y-93303696D01*
X132087420Y-93303696D01*
X132087420Y-91303698D01*
X130587420Y-91303698D01*
X130587420Y-93303697D01*
X130037439Y-93303697D01*
X130087419Y-93303696D01*
X130087420Y-93303696D01*
X130087420Y-91303698D01*
X129337421Y-91303698D01*
X129337421Y-92603684D01*
X124684542Y-92603684D01*
X124746005Y-92400050D01*
X124748931Y-92391499D01*
X124748934Y-92391493D01*
X124926620Y-91928085D01*
X124930158Y-91919779D01*
X125141191Y-91470532D01*
X125145306Y-91462544D01*
X125388550Y-91029884D01*
X125393255Y-91022190D01*
X125667396Y-90608446D01*
X125672629Y-90601141D01*
X125976239Y-90208475D01*
X125982014Y-90201545D01*
X126313449Y-89832081D01*
X126319693Y-89825612D01*
X126653934Y-89503711D01*
X129337420Y-89503711D01*
X129337420Y-90803698D01*
X130087420Y-90803698D01*
X130087420Y-88803698D01*
X130587420Y-88803698D01*
X130587420Y-90803698D01*
X132087420Y-90803698D01*
X132587420Y-90803698D01*
X133337419Y-90803698D01*
X133337419Y-89503726D01*
X133337418Y-89503711D01*
X133326925Y-89401000D01*
X133271778Y-89234578D01*
X133271776Y-89234573D01*
X133179735Y-89085352D01*
X133055765Y-88961382D01*
X132906544Y-88869341D01*
X132906539Y-88869339D01*
X132740117Y-88814192D01*
X132740110Y-88814191D01*
X132637406Y-88803698D01*
X132587420Y-88803698D01*
X132587420Y-90803698D01*
X132087420Y-90803698D01*
X132087420Y-88803698D01*
X132087419Y-88803697D01*
X132037449Y-88803698D01*
X132037431Y-88803699D01*
X131934722Y-88814192D01*
X131768300Y-88869339D01*
X131768295Y-88869341D01*
X131619074Y-88961382D01*
X131495103Y-89085353D01*
X131495100Y-89085357D01*
X131442958Y-89169893D01*
X131391010Y-89216618D01*
X131322048Y-89227839D01*
X131257966Y-89199996D01*
X131231882Y-89169893D01*
X131179739Y-89085357D01*
X131179736Y-89085353D01*
X131055765Y-88961382D01*
X130906544Y-88869341D01*
X130906539Y-88869339D01*
X130740117Y-88814192D01*
X130740110Y-88814191D01*
X130637406Y-88803698D01*
X130587420Y-88803698D01*
X130087420Y-88803698D01*
X130087419Y-88803697D01*
X130037449Y-88803698D01*
X130037431Y-88803699D01*
X129934722Y-88814192D01*
X129768300Y-88869339D01*
X129768295Y-88869341D01*
X129619074Y-88961382D01*
X129495104Y-89085352D01*
X129403063Y-89234573D01*
X129403061Y-89234578D01*
X129347914Y-89401000D01*
X129347913Y-89401007D01*
X129337420Y-89503711D01*
X126653934Y-89503711D01*
X126677196Y-89481308D01*
X126683899Y-89475308D01*
X127065561Y-89158002D01*
X127072711Y-89152486D01*
X127476498Y-88863871D01*
X127484009Y-88858905D01*
X127907805Y-88600492D01*
X127915636Y-88596102D01*
X128357119Y-88369307D01*
X128365280Y-88365484D01*
X128822135Y-88171497D01*
X128830558Y-88168277D01*
X129300353Y-88008129D01*
X129308970Y-88005538D01*
X129789189Y-87880088D01*
X129798002Y-87878127D01*
X130286064Y-87788044D01*
X130295005Y-87786729D01*
X130788355Y-87732487D01*
X130797342Y-87731830D01*
X131296699Y-87713596D01*
X131301223Y-87713514D01*
X131322771Y-87713514D01*
X141684385Y-87713514D01*
X141751424Y-87733199D01*
X141772065Y-87749832D01*
X142027734Y-88005502D01*
X143136523Y-89114299D01*
X143136525Y-89114302D01*
X143153964Y-89131740D01*
X143153964Y-89131741D01*
X143213884Y-89191660D01*
X143350994Y-89291275D01*
X143501985Y-89368208D01*
X143501999Y-89368215D01*
X143502003Y-89368217D01*
X143663173Y-89420583D01*
X143663181Y-89420585D01*
X143830520Y-89447087D01*
X143830565Y-89447094D01*
X143830566Y-89447095D01*
X143830571Y-89447095D01*
X153115255Y-89447095D01*
X153115332Y-89447086D01*
X153171613Y-89447088D01*
X153339004Y-89420579D01*
X153500187Y-89368211D01*
X153651193Y-89291273D01*
X153788303Y-89191659D01*
X153819992Y-89159970D01*
X153819998Y-89159966D01*
X153837436Y-89142528D01*
X153837437Y-89142528D01*
X155230131Y-87749823D01*
X155291454Y-87716339D01*
X155317813Y-87713505D01*
X165679418Y-87713505D01*
X165702086Y-87713505D01*
X165706612Y-87713588D01*
G37*
%TD.AperFunction*%
%TD*%
M02*
