%TF.GenerationSoftware,KiCad,Pcbnew,9.0.6*%
%TF.CreationDate,2025-11-21T10:38:03+00:00*%
%TF.ProjectId,led_pcb,6c65645f-7063-4622-9e6b-696361645f70,rev?*%
%TF.SameCoordinates,Original*%
%TF.FileFunction,Copper,L1,Top*%
%TF.FilePolarity,Positive*%
%FSLAX46Y46*%
G04 Gerber Fmt 4.6, Leading zero omitted, Abs format (unit mm)*
G04 Created by KiCad (PCBNEW 9.0.6) date 2025-11-21 10:38:03*
%MOMM*%
%LPD*%
G01*
G04 APERTURE LIST*
G04 Aperture macros list*
%AMRoundRect*
0 Rectangle with rounded corners*
0 $1 Rounding radius*
0 $2 $3 $4 $5 $6 $7 $8 $9 X,Y pos of 4 corners*
0 Add a 4 corners polygon primitive as box body*
4,1,4,$2,$3,$4,$5,$6,$7,$8,$9,$2,$3,0*
0 Add four circle primitives for the rounded corners*
1,1,$1+$1,$2,$3*
1,1,$1+$1,$4,$5*
1,1,$1+$1,$6,$7*
1,1,$1+$1,$8,$9*
0 Add four rect primitives between the rounded corners*
20,1,$1+$1,$2,$3,$4,$5,0*
20,1,$1+$1,$4,$5,$6,$7,0*
20,1,$1+$1,$6,$7,$8,$9,0*
20,1,$1+$1,$8,$9,$2,$3,0*%
G04 Aperture macros list end*
%TA.AperFunction,ComponentPad*%
%ADD10R,1.000000X1.000000*%
%TD*%
%TA.AperFunction,ComponentPad*%
%ADD11C,1.000000*%
%TD*%
%TA.AperFunction,SMDPad,CuDef*%
%ADD12R,0.550000X0.300000*%
%TD*%
%TA.AperFunction,SMDPad,CuDef*%
%ADD13RoundRect,0.140000X0.170000X-0.140000X0.170000X0.140000X-0.170000X0.140000X-0.170000X-0.140000X0*%
%TD*%
%TA.AperFunction,SMDPad,CuDef*%
%ADD14R,2.300000X2.300000*%
%TD*%
%TA.AperFunction,SMDPad,CuDef*%
%ADD15R,2.300000X1.550000*%
%TD*%
%TA.AperFunction,SMDPad,CuDef*%
%ADD16RoundRect,0.135000X-0.135000X-0.185000X0.135000X-0.185000X0.135000X0.185000X-0.135000X0.185000X0*%
%TD*%
%TA.AperFunction,ComponentPad*%
%ADD17R,2.000000X2.000000*%
%TD*%
%TA.AperFunction,ViaPad*%
%ADD18C,0.600000*%
%TD*%
%TA.AperFunction,Conductor*%
%ADD19C,1.000000*%
%TD*%
%TA.AperFunction,Conductor*%
%ADD20C,0.200000*%
%TD*%
%TA.AperFunction,Conductor*%
%ADD21C,0.300000*%
%TD*%
G04 APERTURE END LIST*
D10*
%TO.P,J3,1,Pin_1*%
%TO.N,+3.3V*%
X132540000Y-106850000D03*
D11*
%TO.P,J3,2,Pin_2*%
%TO.N,MSDA*%
X133810000Y-106850000D03*
%TO.P,J3,3,Pin_3*%
%TO.N,MSCL*%
X135080000Y-106850000D03*
%TO.P,J3,4,Pin_4*%
%TO.N,GND*%
X136350000Y-106850000D03*
%TD*%
D12*
%TO.P,U10,1*%
%TO.N,GND*%
X147300000Y-105500000D03*
%TO.P,U10,2*%
%TO.N,MSDA*%
X147300000Y-106150000D03*
%TO.P,U10,3*%
%TO.N,Net-(R32-Pad2)*%
X147300000Y-106800000D03*
%TO.P,U10,4*%
%TO.N,GND*%
X149050000Y-106800000D03*
%TO.P,U10,5*%
%TO.N,MSCL*%
X149050000Y-106150000D03*
%TO.P,U10,6*%
%TO.N,+3.3V*%
X149050000Y-105500000D03*
%TD*%
D13*
%TO.P,C38,1*%
%TO.N,GND*%
X150300000Y-106600000D03*
%TO.P,C38,2*%
%TO.N,+3.3V*%
X150300000Y-105640000D03*
%TD*%
D14*
%TO.P,D2,1,K*%
%TO.N,GND*%
X162749960Y-96570000D03*
D15*
%TO.P,D2,2,A*%
%TO.N,+10V*%
X162749960Y-94330000D03*
%TD*%
D16*
%TO.P,R32,1*%
%TO.N,+3.3V*%
X145050000Y-106800000D03*
%TO.P,R32,2*%
%TO.N,Net-(R32-Pad2)*%
X146070000Y-106800000D03*
%TD*%
D14*
%TO.P,D1,1,K*%
%TO.N,GND*%
X133749960Y-96570000D03*
D15*
%TO.P,D1,2,A*%
%TO.N,+10V*%
X133749960Y-94330000D03*
%TD*%
D10*
%TO.P,J4,1,Pin_1*%
%TO.N,+3.3V*%
X132550000Y-103500000D03*
D11*
%TO.P,J4,2,Pin_2*%
%TO.N,MSDA*%
X133820000Y-103500000D03*
%TO.P,J4,3,Pin_3*%
%TO.N,MSCL*%
X135090000Y-103500000D03*
%TO.P,J4,4,Pin_4*%
%TO.N,GND*%
X136360000Y-103500000D03*
%TD*%
D17*
%TO.P,J2,1,Pin_1*%
%TO.N,GND*%
X160490000Y-107322000D03*
%TD*%
%TO.P,J1,1,Pin_1*%
%TO.N,+10V*%
X164024000Y-107321000D03*
%TD*%
D18*
%TO.N,GND*%
X131825000Y-96575000D03*
X133750000Y-98225000D03*
X162750000Y-98325000D03*
X151025000Y-106600000D03*
X164700000Y-96575000D03*
X147725000Y-105050000D03*
%TO.N,MSCL*%
X148325000Y-106150000D03*
%TO.N,MSDA*%
X146500000Y-106025000D03*
X143825000Y-106175000D03*
%TD*%
D19*
%TO.N,GND*%
X162749960Y-98324960D02*
X162750000Y-98325000D01*
X133749960Y-98224960D02*
X133750000Y-98225000D01*
X133749960Y-96570000D02*
X133749960Y-98224960D01*
D20*
X149050000Y-106800000D02*
X150100000Y-106800000D01*
D19*
X164700000Y-96575000D02*
X164695000Y-96570000D01*
X131830000Y-96570000D02*
X131825000Y-96575000D01*
X162749960Y-96570000D02*
X162749960Y-98324960D01*
D20*
X150100000Y-106800000D02*
X150300000Y-106600000D01*
X147300000Y-105475000D02*
X147725000Y-105050000D01*
D19*
X164695000Y-96570000D02*
X162749960Y-96570000D01*
D20*
X150300000Y-106600000D02*
X151025000Y-106600000D01*
D19*
X133749960Y-96570000D02*
X131830000Y-96570000D01*
D20*
X147300000Y-105500000D02*
X147300000Y-105475000D01*
D21*
%TO.N,+3.3V*%
X150300000Y-105640000D02*
X149790000Y-105640000D01*
X145050000Y-106800000D02*
X145050000Y-105675000D01*
X145050000Y-105675000D02*
X146275000Y-104450000D01*
X149875000Y-104450000D02*
X150300000Y-104875000D01*
X150300000Y-104875000D02*
X150300000Y-105640000D01*
X145050000Y-107075000D02*
X145050000Y-106800000D01*
X147974937Y-104446600D02*
X147978337Y-104450000D01*
X149650000Y-105500000D02*
X149050000Y-105500000D01*
X147471663Y-104450000D02*
X147475063Y-104446600D01*
X132550000Y-106840000D02*
X132540000Y-106850000D01*
X149790000Y-105640000D02*
X149650000Y-105500000D01*
X133350000Y-108550000D02*
X143575000Y-108550000D01*
X132550000Y-103500000D02*
X132550000Y-106840000D01*
X143575000Y-108550000D02*
X145050000Y-107075000D01*
X132540000Y-106850000D02*
X132540000Y-107740000D01*
X132540000Y-107740000D02*
X133350000Y-108550000D01*
X146275000Y-104450000D02*
X147471663Y-104450000D01*
X147475063Y-104446600D02*
X147974937Y-104446600D01*
X147978337Y-104450000D02*
X149875000Y-104450000D01*
D20*
%TO.N,MSCL*%
X135090000Y-106840000D02*
X135080000Y-106850000D01*
X135090000Y-103500000D02*
X135090000Y-106840000D01*
X148325000Y-106150000D02*
X149050000Y-106150000D01*
%TO.N,MSDA*%
X134125000Y-107950000D02*
X142050000Y-107950000D01*
X142050000Y-107950000D02*
X143825000Y-106175000D01*
X146500000Y-106025000D02*
X147175000Y-106025000D01*
X133810000Y-107635000D02*
X134125000Y-107950000D01*
X147175000Y-106025000D02*
X147300000Y-106150000D01*
X133810000Y-106850000D02*
X133810000Y-107635000D01*
X133820000Y-103500000D02*
X133820000Y-106840000D01*
X133820000Y-106840000D02*
X133810000Y-106850000D01*
%TO.N,Net-(R32-Pad2)*%
X146070000Y-106800000D02*
X147300000Y-106800000D01*
%TD*%
%TA.AperFunction,Conductor*%
%TO.N,+10V*%
G36*
X139991340Y-91546385D02*
G01*
X140037095Y-91599189D01*
X140048301Y-91650700D01*
X140048301Y-101465255D01*
X140048302Y-101465261D01*
X140059976Y-101493445D01*
X140059979Y-101493449D01*
X140081551Y-101515021D01*
X140081555Y-101515024D01*
X140109739Y-101526698D01*
X140109744Y-101526700D01*
X140109745Y-101526700D01*
X156390256Y-101526700D01*
X156390257Y-101526700D01*
X156418447Y-101515023D01*
X156440023Y-101493447D01*
X156451700Y-101465257D01*
X156451700Y-95434743D01*
X156451700Y-94343713D01*
X157399500Y-94343713D01*
X157399500Y-94556286D01*
X157428942Y-94742179D01*
X157432754Y-94766243D01*
X157482550Y-94919500D01*
X157498444Y-94968414D01*
X157594951Y-95157820D01*
X157719890Y-95329786D01*
X157870213Y-95480109D01*
X158042179Y-95605048D01*
X158042181Y-95605049D01*
X158042184Y-95605051D01*
X158231588Y-95701557D01*
X158433757Y-95767246D01*
X158643713Y-95800500D01*
X158643714Y-95800500D01*
X158856286Y-95800500D01*
X158856287Y-95800500D01*
X159066243Y-95767246D01*
X159268412Y-95701557D01*
X159457816Y-95605051D01*
X159522172Y-95558294D01*
X159629786Y-95480109D01*
X159629788Y-95480106D01*
X159629792Y-95480104D01*
X159780104Y-95329792D01*
X159780106Y-95329788D01*
X159780109Y-95329786D01*
X159905048Y-95157820D01*
X159905047Y-95157820D01*
X159905051Y-95157816D01*
X160001557Y-94968412D01*
X160067246Y-94766243D01*
X160100500Y-94556287D01*
X160100500Y-94343713D01*
X160067246Y-94133757D01*
X160001557Y-93931588D01*
X159905051Y-93742184D01*
X159905049Y-93742181D01*
X159905048Y-93742179D01*
X159780109Y-93570213D01*
X159629786Y-93419890D01*
X159457820Y-93294951D01*
X159268414Y-93198444D01*
X159268413Y-93198443D01*
X159268412Y-93198443D01*
X159066243Y-93132754D01*
X159066241Y-93132753D01*
X159066240Y-93132753D01*
X158875872Y-93102602D01*
X158856287Y-93099500D01*
X158643713Y-93099500D01*
X158624128Y-93102602D01*
X158433760Y-93132753D01*
X158231585Y-93198444D01*
X158042179Y-93294951D01*
X157870213Y-93419890D01*
X157719890Y-93570213D01*
X157594951Y-93742179D01*
X157498444Y-93931585D01*
X157432753Y-94133760D01*
X157399500Y-94343713D01*
X156451700Y-94343713D01*
X156451700Y-91650700D01*
X156471385Y-91583661D01*
X156524189Y-91537906D01*
X156575700Y-91526700D01*
X165549300Y-91526700D01*
X165616339Y-91546385D01*
X165662094Y-91599189D01*
X165673300Y-91650700D01*
X165673300Y-95834016D01*
X165653615Y-95901055D01*
X165600811Y-95946810D01*
X165531653Y-95956754D01*
X165468097Y-95927729D01*
X165461619Y-95921697D01*
X165332785Y-95792863D01*
X165332781Y-95792860D01*
X165168920Y-95683371D01*
X165168911Y-95683366D01*
X165096315Y-95653296D01*
X165040165Y-95630038D01*
X164986836Y-95607949D01*
X164986832Y-95607948D01*
X164986828Y-95607946D01*
X164890188Y-95588724D01*
X164793544Y-95569500D01*
X164793541Y-95569500D01*
X164524459Y-95569500D01*
X164457420Y-95549815D01*
X164411665Y-95497011D01*
X164400459Y-95445500D01*
X164400459Y-95372129D01*
X164400458Y-95372123D01*
X164400457Y-95372118D01*
X164394051Y-95312517D01*
X164343756Y-95177669D01*
X164343755Y-95177668D01*
X164343753Y-95177664D01*
X164257507Y-95062455D01*
X164257504Y-95062452D01*
X164142295Y-94976206D01*
X164142288Y-94976202D01*
X164007442Y-94925908D01*
X164007443Y-94925908D01*
X163947843Y-94919501D01*
X163947841Y-94919500D01*
X163947833Y-94919500D01*
X163947824Y-94919500D01*
X161552089Y-94919500D01*
X161552083Y-94919501D01*
X161492476Y-94925908D01*
X161357631Y-94976202D01*
X161357624Y-94976206D01*
X161242415Y-95062452D01*
X161242412Y-95062455D01*
X161156166Y-95177664D01*
X161156162Y-95177671D01*
X161105868Y-95312517D01*
X161101614Y-95352092D01*
X161099461Y-95372123D01*
X161099460Y-95372135D01*
X161099460Y-97767870D01*
X161099461Y-97767876D01*
X161105868Y-97827483D01*
X161156162Y-97962328D01*
X161156166Y-97962335D01*
X161242412Y-98077544D01*
X161242415Y-98077547D01*
X161357624Y-98163793D01*
X161357631Y-98163797D01*
X161402578Y-98180561D01*
X161492477Y-98214091D01*
X161552087Y-98220500D01*
X161625460Y-98220499D01*
X161692498Y-98240183D01*
X161738254Y-98292986D01*
X161749460Y-98344499D01*
X161749460Y-98423504D01*
X161787907Y-98616793D01*
X161787909Y-98616797D01*
X161798953Y-98643460D01*
X161809998Y-98670125D01*
X161821906Y-98698874D01*
X161863326Y-98798871D01*
X161863331Y-98798880D01*
X161972819Y-98962740D01*
X161972820Y-98962741D01*
X161972821Y-98962742D01*
X162044473Y-99034394D01*
X162112216Y-99102137D01*
X162112220Y-99102141D01*
X162276079Y-99211628D01*
X162276088Y-99211633D01*
X162317334Y-99228717D01*
X162458165Y-99287052D01*
X162651455Y-99325500D01*
X162651458Y-99325501D01*
X162651460Y-99325501D01*
X162848543Y-99325501D01*
X162848544Y-99325500D01*
X163041836Y-99287052D01*
X163223915Y-99211632D01*
X163387782Y-99102140D01*
X163527140Y-98962782D01*
X163636632Y-98798915D01*
X163712052Y-98616836D01*
X163750501Y-98423541D01*
X163750501Y-98344499D01*
X163770186Y-98277460D01*
X163822990Y-98231705D01*
X163874501Y-98220499D01*
X163947831Y-98220499D01*
X163947832Y-98220499D01*
X164007443Y-98214091D01*
X164142291Y-98163796D01*
X164257506Y-98077546D01*
X164343756Y-97962331D01*
X164394051Y-97827483D01*
X164400460Y-97767873D01*
X164400460Y-97694500D01*
X164403010Y-97685814D01*
X164401722Y-97676853D01*
X164412700Y-97652812D01*
X164420145Y-97627461D01*
X164426985Y-97621533D01*
X164430747Y-97613297D01*
X164452981Y-97599007D01*
X164472949Y-97581706D01*
X164483463Y-97579418D01*
X164489525Y-97575523D01*
X164524460Y-97570500D01*
X164564111Y-97570500D01*
X164588303Y-97572883D01*
X164601458Y-97575499D01*
X164601459Y-97575500D01*
X164601460Y-97575500D01*
X164798542Y-97575500D01*
X164798543Y-97575499D01*
X164991836Y-97537051D01*
X165173914Y-97461631D01*
X165337781Y-97352139D01*
X165382783Y-97307137D01*
X165461619Y-97228302D01*
X165522942Y-97194817D01*
X165592634Y-97199801D01*
X165648567Y-97241673D01*
X165672984Y-97307137D01*
X165673300Y-97315983D01*
X165673300Y-108874300D01*
X165653615Y-108941339D01*
X165600811Y-108987094D01*
X165549300Y-108998300D01*
X161792360Y-108998300D01*
X161725321Y-108978615D01*
X161679566Y-108925811D01*
X161669622Y-108856653D01*
X161698647Y-108793097D01*
X161725493Y-108771462D01*
X161725231Y-108771112D01*
X161805136Y-108711293D01*
X161847546Y-108679546D01*
X161933796Y-108564331D01*
X161984091Y-108429483D01*
X161990500Y-108369873D01*
X161990499Y-106274128D01*
X161984091Y-106214517D01*
X161963295Y-106158761D01*
X161933797Y-106079671D01*
X161933793Y-106079664D01*
X161847547Y-105964455D01*
X161847544Y-105964452D01*
X161732335Y-105878206D01*
X161732328Y-105878202D01*
X161597482Y-105827908D01*
X161597483Y-105827908D01*
X161537883Y-105821501D01*
X161537881Y-105821500D01*
X161537873Y-105821500D01*
X161537864Y-105821500D01*
X159442129Y-105821500D01*
X159442123Y-105821501D01*
X159382516Y-105827908D01*
X159247671Y-105878202D01*
X159247664Y-105878206D01*
X159132455Y-105964452D01*
X159132452Y-105964455D01*
X159046206Y-106079664D01*
X159046202Y-106079671D01*
X158995908Y-106214517D01*
X158989501Y-106274116D01*
X158989501Y-106274123D01*
X158989500Y-106274135D01*
X158989500Y-108369870D01*
X158989501Y-108369876D01*
X158995908Y-108429483D01*
X159046202Y-108564328D01*
X159046206Y-108564335D01*
X159132452Y-108679544D01*
X159132455Y-108679547D01*
X159254769Y-108771112D01*
X159253888Y-108772288D01*
X159296474Y-108814877D01*
X159311324Y-108883150D01*
X159286904Y-108948614D01*
X159230969Y-108990483D01*
X159187640Y-108998300D01*
X144346008Y-108998300D01*
X144278969Y-108978615D01*
X144233214Y-108925811D01*
X144223270Y-108856653D01*
X144252295Y-108793097D01*
X144258327Y-108786619D01*
X144480618Y-108564328D01*
X145481560Y-107563384D01*
X145542881Y-107529901D01*
X145612572Y-107534885D01*
X145632349Y-107544329D01*
X145680607Y-107572869D01*
X145680610Y-107572869D01*
X145680612Y-107572871D01*
X145834791Y-107617664D01*
X145834794Y-107617664D01*
X145834796Y-107617665D01*
X145870819Y-107620500D01*
X146269180Y-107620499D01*
X146305204Y-107617665D01*
X146459393Y-107572869D01*
X146597598Y-107491135D01*
X146651915Y-107436817D01*
X146678846Y-107422111D01*
X146704660Y-107405523D01*
X146710859Y-107404631D01*
X146713236Y-107403334D01*
X146739595Y-107400500D01*
X146778271Y-107400500D01*
X146821604Y-107408318D01*
X146917517Y-107444091D01*
X146977127Y-107450500D01*
X147622872Y-107450499D01*
X147682483Y-107444091D01*
X147817331Y-107393796D01*
X147932546Y-107307546D01*
X148018796Y-107192331D01*
X148058818Y-107085027D01*
X148100689Y-107029093D01*
X148166153Y-107004676D01*
X148234426Y-107019527D01*
X148283832Y-107068932D01*
X148291182Y-107085027D01*
X148331202Y-107192328D01*
X148331206Y-107192335D01*
X148417452Y-107307544D01*
X148417455Y-107307547D01*
X148532664Y-107393793D01*
X148532671Y-107393797D01*
X148577618Y-107410561D01*
X148667517Y-107444091D01*
X148727127Y-107450500D01*
X149372872Y-107450499D01*
X149432483Y-107444091D01*
X149528396Y-107408318D01*
X149571729Y-107400500D01*
X150013331Y-107400500D01*
X150013347Y-107400501D01*
X150020943Y-107400501D01*
X150179055Y-107400501D01*
X150179057Y-107400501D01*
X150229817Y-107386899D01*
X150237934Y-107384725D01*
X150270027Y-107380500D01*
X150534682Y-107380500D01*
X150534690Y-107380500D01*
X150570993Y-107377643D01*
X150669999Y-107348878D01*
X150739866Y-107349077D01*
X150752040Y-107353391D01*
X150791503Y-107369737D01*
X150946153Y-107400499D01*
X150946156Y-107400500D01*
X150946158Y-107400500D01*
X151103844Y-107400500D01*
X151103845Y-107400499D01*
X151258497Y-107369737D01*
X151404179Y-107309394D01*
X151535289Y-107221789D01*
X151646789Y-107110289D01*
X151734394Y-106979179D01*
X151794737Y-106833497D01*
X151825500Y-106678842D01*
X151825500Y-106521158D01*
X151825500Y-106521155D01*
X151825499Y-106521153D01*
X151796643Y-106376086D01*
X151794737Y-106366503D01*
X151768072Y-106302127D01*
X151734397Y-106220827D01*
X151734390Y-106220814D01*
X151646789Y-106089711D01*
X151646786Y-106089707D01*
X151535292Y-105978213D01*
X151535288Y-105978210D01*
X151404185Y-105890609D01*
X151404172Y-105890602D01*
X151258501Y-105830264D01*
X151258491Y-105830261D01*
X151210308Y-105820677D01*
X151148397Y-105788292D01*
X151113823Y-105727576D01*
X151110500Y-105699060D01*
X151110500Y-105435317D01*
X151110499Y-105435302D01*
X151107643Y-105399008D01*
X151107642Y-105399002D01*
X151062495Y-105243609D01*
X151062494Y-105243606D01*
X151062494Y-105243605D01*
X150980117Y-105104313D01*
X150980116Y-105104312D01*
X150980114Y-105104308D01*
X150976517Y-105099670D01*
X150950985Y-105034633D01*
X150950500Y-105023675D01*
X150950500Y-104810928D01*
X150925502Y-104685261D01*
X150925501Y-104685260D01*
X150925501Y-104685256D01*
X150876465Y-104566873D01*
X150838911Y-104510669D01*
X150832116Y-104500500D01*
X150805275Y-104460328D01*
X150289673Y-103944726D01*
X150183134Y-103873540D01*
X150183127Y-103873535D01*
X150064744Y-103824499D01*
X150064738Y-103824497D01*
X149939071Y-103799500D01*
X149939069Y-103799500D01*
X148068312Y-103799500D01*
X148044116Y-103797116D01*
X148039009Y-103796100D01*
X148039006Y-103796100D01*
X147410994Y-103796100D01*
X147410991Y-103796100D01*
X147405884Y-103797116D01*
X147381688Y-103799500D01*
X146210929Y-103799500D01*
X146085261Y-103824497D01*
X146085251Y-103824500D01*
X146036220Y-103844810D01*
X145966881Y-103873530D01*
X145966863Y-103873540D01*
X145860332Y-103944721D01*
X145860325Y-103944727D01*
X144544722Y-105260331D01*
X144544717Y-105260337D01*
X144520317Y-105296856D01*
X144520311Y-105296867D01*
X144516796Y-105302128D01*
X144473535Y-105366873D01*
X144438697Y-105450978D01*
X144435957Y-105456153D01*
X144415490Y-105477148D01*
X144397095Y-105499976D01*
X144391386Y-105501876D01*
X144387186Y-105506185D01*
X144358617Y-105512782D01*
X144330801Y-105522041D01*
X144324970Y-105520553D01*
X144319108Y-105521907D01*
X144291508Y-105512012D01*
X144263101Y-105504762D01*
X144257485Y-105501223D01*
X144204183Y-105465608D01*
X144204172Y-105465602D01*
X144058501Y-105405264D01*
X144058489Y-105405261D01*
X143903845Y-105374500D01*
X143903842Y-105374500D01*
X143746158Y-105374500D01*
X143746155Y-105374500D01*
X143591510Y-105405261D01*
X143591498Y-105405264D01*
X143445827Y-105465602D01*
X143445814Y-105465609D01*
X143314711Y-105553210D01*
X143314707Y-105553213D01*
X143203213Y-105664707D01*
X143203210Y-105664711D01*
X143115609Y-105795814D01*
X143115602Y-105795827D01*
X143055264Y-105941498D01*
X143055261Y-105941508D01*
X143024361Y-106096850D01*
X142991976Y-106158761D01*
X142990425Y-106160339D01*
X141837584Y-107313181D01*
X141776261Y-107346666D01*
X141749903Y-107349500D01*
X137411613Y-107349500D01*
X137344574Y-107329815D01*
X137298819Y-107277011D01*
X137288875Y-107207853D01*
X137297051Y-107178049D01*
X137299009Y-107173320D01*
X137312051Y-107141835D01*
X137324632Y-107078582D01*
X137350500Y-106948543D01*
X137350500Y-106751456D01*
X137312052Y-106558170D01*
X137312051Y-106558169D01*
X137312051Y-106558165D01*
X137296720Y-106521153D01*
X137236635Y-106376092D01*
X137236628Y-106376079D01*
X137127139Y-106212218D01*
X137127136Y-106212214D01*
X136987785Y-106072863D01*
X136987781Y-106072860D01*
X136823920Y-105963371D01*
X136823907Y-105963364D01*
X136641839Y-105887950D01*
X136641829Y-105887947D01*
X136448543Y-105849500D01*
X136448541Y-105849500D01*
X136251459Y-105849500D01*
X136251457Y-105849500D01*
X136058170Y-105887947D01*
X136058160Y-105887950D01*
X135876085Y-105963367D01*
X135872953Y-105965042D01*
X135871123Y-105965422D01*
X135870457Y-105965699D01*
X135870404Y-105965572D01*
X135804550Y-105979284D01*
X135739306Y-105954284D01*
X135697936Y-105897979D01*
X135690500Y-105855684D01*
X135690500Y-104487933D01*
X135710185Y-104420894D01*
X135762989Y-104375139D01*
X135832147Y-104365195D01*
X135880690Y-104383797D01*
X135880711Y-104383759D01*
X135881021Y-104383924D01*
X135883396Y-104384835D01*
X135886080Y-104386628D01*
X135886086Y-104386632D01*
X135886092Y-104386635D01*
X136068160Y-104462049D01*
X136068165Y-104462051D01*
X136068169Y-104462051D01*
X136068170Y-104462052D01*
X136261456Y-104500500D01*
X136261459Y-104500500D01*
X136458543Y-104500500D01*
X136607047Y-104470960D01*
X136651835Y-104462051D01*
X136833914Y-104386632D01*
X136997782Y-104277139D01*
X137137139Y-104137782D01*
X137246632Y-103973914D01*
X137322051Y-103791835D01*
X137360500Y-103598541D01*
X137360500Y-103401459D01*
X137360500Y-103401456D01*
X137322052Y-103208170D01*
X137322051Y-103208169D01*
X137322051Y-103208165D01*
X137322049Y-103208160D01*
X137246635Y-103026092D01*
X137246628Y-103026079D01*
X137137139Y-102862218D01*
X137137136Y-102862214D01*
X136997785Y-102722863D01*
X136997781Y-102722860D01*
X136833920Y-102613371D01*
X136833907Y-102613364D01*
X136651839Y-102537950D01*
X136651829Y-102537947D01*
X136458543Y-102499500D01*
X136458541Y-102499500D01*
X136261459Y-102499500D01*
X136261457Y-102499500D01*
X136068170Y-102537947D01*
X136068160Y-102537950D01*
X135886089Y-102613366D01*
X135793890Y-102674971D01*
X135727213Y-102695848D01*
X135659833Y-102677363D01*
X135656110Y-102674971D01*
X135607441Y-102642452D01*
X135563914Y-102613368D01*
X135563911Y-102613366D01*
X135563910Y-102613366D01*
X135381839Y-102537950D01*
X135381829Y-102537947D01*
X135188543Y-102499500D01*
X135188541Y-102499500D01*
X134991459Y-102499500D01*
X134991457Y-102499500D01*
X134798170Y-102537947D01*
X134798160Y-102537950D01*
X134616089Y-102613366D01*
X134523890Y-102674971D01*
X134457213Y-102695848D01*
X134389833Y-102677363D01*
X134386110Y-102674971D01*
X134337441Y-102642452D01*
X134293914Y-102613368D01*
X134293911Y-102613366D01*
X134293910Y-102613366D01*
X134111839Y-102537950D01*
X134111829Y-102537947D01*
X133918543Y-102499500D01*
X133918541Y-102499500D01*
X133721459Y-102499500D01*
X133721457Y-102499500D01*
X133528171Y-102537947D01*
X133528168Y-102537948D01*
X133528166Y-102537948D01*
X133528165Y-102537949D01*
X133528163Y-102537950D01*
X133425874Y-102580318D01*
X133356404Y-102587785D01*
X133304113Y-102565023D01*
X133292335Y-102556206D01*
X133292328Y-102556202D01*
X133157482Y-102505908D01*
X133157483Y-102505908D01*
X133097883Y-102499501D01*
X133097881Y-102499500D01*
X133097873Y-102499500D01*
X133097864Y-102499500D01*
X132002129Y-102499500D01*
X132002123Y-102499501D01*
X131942516Y-102505908D01*
X131807671Y-102556202D01*
X131807664Y-102556206D01*
X131692455Y-102642452D01*
X131692452Y-102642455D01*
X131606206Y-102757664D01*
X131606202Y-102757671D01*
X131555908Y-102892517D01*
X131549501Y-102952116D01*
X131549500Y-102952135D01*
X131549500Y-104047870D01*
X131549501Y-104047876D01*
X131555908Y-104107483D01*
X131606202Y-104242328D01*
X131606206Y-104242335D01*
X131692452Y-104357544D01*
X131692455Y-104357547D01*
X131807665Y-104443794D01*
X131807667Y-104443794D01*
X131807669Y-104443796D01*
X131818830Y-104447958D01*
X131874764Y-104489826D01*
X131899184Y-104555289D01*
X131899500Y-104564141D01*
X131899500Y-105782128D01*
X131879815Y-105849167D01*
X131827011Y-105894922D01*
X131818836Y-105898309D01*
X131797665Y-105906205D01*
X131682455Y-105992452D01*
X131682452Y-105992455D01*
X131596206Y-106107664D01*
X131596202Y-106107671D01*
X131545908Y-106242517D01*
X131539501Y-106302116D01*
X131539500Y-106302135D01*
X131539500Y-107397870D01*
X131539501Y-107397876D01*
X131545908Y-107457483D01*
X131596202Y-107592328D01*
X131596206Y-107592335D01*
X131682452Y-107707544D01*
X131682455Y-107707547D01*
X131797664Y-107793793D01*
X131797673Y-107793798D01*
X131829858Y-107805802D01*
X131837992Y-107811891D01*
X131847882Y-107814228D01*
X131865489Y-107832474D01*
X131885792Y-107847672D01*
X131890635Y-107858532D01*
X131896400Y-107864506D01*
X131908143Y-107897789D01*
X131908483Y-107899498D01*
X131908483Y-107899502D01*
X131914497Y-107929736D01*
X131914499Y-107929744D01*
X131963534Y-108048125D01*
X132034726Y-108154673D01*
X132034727Y-108154674D01*
X132666673Y-108786619D01*
X132700158Y-108847942D01*
X132695174Y-108917633D01*
X132653303Y-108973567D01*
X132587838Y-108997984D01*
X132578992Y-108998300D01*
X130901328Y-108998300D01*
X130834289Y-108978615D01*
X130788534Y-108925811D01*
X130777329Y-108873913D01*
X130788074Y-105435317D01*
X130813589Y-97270551D01*
X130833483Y-97203576D01*
X130886429Y-97157986D01*
X130955619Y-97148259D01*
X131019083Y-97177482D01*
X131040689Y-97202048D01*
X131047861Y-97212782D01*
X131187215Y-97352136D01*
X131187219Y-97352139D01*
X131351079Y-97461627D01*
X131351083Y-97461629D01*
X131351086Y-97461631D01*
X131533164Y-97537051D01*
X131726455Y-97575499D01*
X131726458Y-97575500D01*
X131726460Y-97575500D01*
X131923541Y-97575500D01*
X131923541Y-97575499D01*
X131936697Y-97572883D01*
X131960889Y-97570500D01*
X131975461Y-97570500D01*
X132042500Y-97590185D01*
X132088255Y-97642989D01*
X132099461Y-97694500D01*
X132099461Y-97767876D01*
X132105868Y-97827483D01*
X132156162Y-97962328D01*
X132156166Y-97962335D01*
X132242412Y-98077544D01*
X132242415Y-98077547D01*
X132357624Y-98163793D01*
X132357631Y-98163797D01*
X132402578Y-98180561D01*
X132492477Y-98214091D01*
X132552087Y-98220500D01*
X132627207Y-98220499D01*
X132694245Y-98240183D01*
X132740001Y-98292986D01*
X132748824Y-98320307D01*
X132787907Y-98516789D01*
X132787910Y-98516799D01*
X132863324Y-98698867D01*
X132863331Y-98698880D01*
X132972819Y-98862740D01*
X132972820Y-98862741D01*
X132972821Y-98862742D01*
X133044473Y-98934394D01*
X133112216Y-99002137D01*
X133112220Y-99002141D01*
X133276079Y-99111628D01*
X133276085Y-99111631D01*
X133276086Y-99111632D01*
X133458165Y-99187052D01*
X133651455Y-99225500D01*
X133651458Y-99225501D01*
X133651460Y-99225501D01*
X133848543Y-99225501D01*
X133848544Y-99225500D01*
X134041836Y-99187052D01*
X134223915Y-99111632D01*
X134387782Y-99002140D01*
X134527140Y-98862782D01*
X134636632Y-98698915D01*
X134712052Y-98516836D01*
X134730618Y-98423500D01*
X134751145Y-98320307D01*
X134783530Y-98258396D01*
X134844246Y-98223822D01*
X134872762Y-98220499D01*
X134947831Y-98220499D01*
X134947832Y-98220499D01*
X135007443Y-98214091D01*
X135142291Y-98163796D01*
X135257506Y-98077546D01*
X135343756Y-97962331D01*
X135394051Y-97827483D01*
X135400460Y-97767873D01*
X135400459Y-95372128D01*
X135400458Y-95372116D01*
X135398306Y-95352092D01*
X135397405Y-95343713D01*
X136399500Y-95343713D01*
X136399500Y-95556286D01*
X136422508Y-95701557D01*
X136432754Y-95766243D01*
X136498235Y-95967773D01*
X136498444Y-95968414D01*
X136594951Y-96157820D01*
X136719890Y-96329786D01*
X136870213Y-96480109D01*
X137042179Y-96605048D01*
X137042181Y-96605049D01*
X137042184Y-96605051D01*
X137231588Y-96701557D01*
X137433757Y-96767246D01*
X137643713Y-96800500D01*
X137643714Y-96800500D01*
X137856286Y-96800500D01*
X137856287Y-96800500D01*
X138066243Y-96767246D01*
X138268412Y-96701557D01*
X138457816Y-96605051D01*
X138479789Y-96589086D01*
X138629786Y-96480109D01*
X138629788Y-96480106D01*
X138629792Y-96480104D01*
X138780104Y-96329792D01*
X138780106Y-96329788D01*
X138780109Y-96329786D01*
X138905048Y-96157820D01*
X138905047Y-96157820D01*
X138905051Y-96157816D01*
X139001557Y-95968412D01*
X139067246Y-95766243D01*
X139100500Y-95556287D01*
X139100500Y-95343713D01*
X139067246Y-95133757D01*
X139001557Y-94931588D01*
X138905051Y-94742184D01*
X138905049Y-94742181D01*
X138905048Y-94742179D01*
X138780109Y-94570213D01*
X138629786Y-94419890D01*
X138457820Y-94294951D01*
X138268414Y-94198444D01*
X138268413Y-94198443D01*
X138268412Y-94198443D01*
X138066243Y-94132754D01*
X138066241Y-94132753D01*
X138066240Y-94132753D01*
X137904957Y-94107208D01*
X137856287Y-94099500D01*
X137643713Y-94099500D01*
X137595042Y-94107208D01*
X137433760Y-94132753D01*
X137231585Y-94198444D01*
X137042179Y-94294951D01*
X136870213Y-94419890D01*
X136719890Y-94570213D01*
X136594951Y-94742179D01*
X136498444Y-94931585D01*
X136432753Y-95133760D01*
X136399500Y-95343713D01*
X135397405Y-95343713D01*
X135394051Y-95312516D01*
X135343757Y-95177671D01*
X135343753Y-95177664D01*
X135257507Y-95062455D01*
X135257504Y-95062452D01*
X135142295Y-94976206D01*
X135142288Y-94976202D01*
X135007442Y-94925908D01*
X135007443Y-94925908D01*
X134947843Y-94919501D01*
X134947841Y-94919500D01*
X134947833Y-94919500D01*
X134947824Y-94919500D01*
X132552089Y-94919500D01*
X132552083Y-94919501D01*
X132492476Y-94925908D01*
X132357631Y-94976202D01*
X132357624Y-94976206D01*
X132242415Y-95062452D01*
X132242412Y-95062455D01*
X132156166Y-95177664D01*
X132156162Y-95177671D01*
X132105868Y-95312517D01*
X132101614Y-95352092D01*
X132099461Y-95372123D01*
X132099460Y-95372135D01*
X132099460Y-95445500D01*
X132079775Y-95512539D01*
X132026971Y-95558294D01*
X131975460Y-95569500D01*
X131731455Y-95569500D01*
X131634812Y-95588724D01*
X131538167Y-95607947D01*
X131538161Y-95607949D01*
X131484834Y-95630037D01*
X131484834Y-95630038D01*
X131439315Y-95648892D01*
X131356089Y-95683366D01*
X131356079Y-95683371D01*
X131192219Y-95792859D01*
X131112949Y-95872130D01*
X131052861Y-95932218D01*
X131052858Y-95932221D01*
X131047861Y-95937219D01*
X131041493Y-95946748D01*
X131037377Y-95951709D01*
X131013512Y-95967773D01*
X130991439Y-95986218D01*
X130984890Y-95987040D01*
X130979416Y-95990725D01*
X130950660Y-95991336D01*
X130922114Y-95994920D01*
X130916159Y-95992070D01*
X130909562Y-95992211D01*
X130885036Y-95977176D01*
X130859089Y-95964760D01*
X130855621Y-95959145D01*
X130849994Y-95955696D01*
X130837489Y-95929787D01*
X130822374Y-95905315D01*
X130821117Y-95895867D01*
X130819623Y-95892772D01*
X130820140Y-95888530D01*
X130817959Y-95872136D01*
X130826614Y-93102594D01*
X130826701Y-93101746D01*
X130826701Y-93074863D01*
X130826748Y-93059983D01*
X130826701Y-93059868D01*
X130826701Y-91650700D01*
X130846386Y-91583661D01*
X130899190Y-91537906D01*
X130950701Y-91526700D01*
X139924301Y-91526700D01*
X139991340Y-91546385D01*
G37*
%TD.AperFunction*%
%TD*%
M02*
