%TF.GenerationSoftware,KiCad,Pcbnew,9.0.6*%
%TF.CreationDate,2025-11-21T10:38:04+00:00*%
%TF.ProjectId,led_pcb,6c65645f-7063-4622-9e6b-696361645f70,rev?*%
%TF.SameCoordinates,Original*%
%TF.FileFunction,Legend,Top*%
%TF.FilePolarity,Positive*%
%FSLAX46Y46*%
G04 Gerber Fmt 4.6, Leading zero omitted, Abs format (unit mm)*
G04 Created by KiCad (PCBNEW 9.0.6) date 2025-11-21 10:38:04*
%MOMM*%
%LPD*%
G01*
G04 APERTURE LIST*
%ADD10C,0.150000*%
%ADD11C,0.120000*%
%ADD12C,0.127000*%
%ADD13C,0.250000*%
G04 APERTURE END LIST*
D10*
X147271428Y-103289164D02*
X147271428Y-103896307D01*
X147271428Y-103896307D02*
X147307142Y-103967735D01*
X147307142Y-103967735D02*
X147342857Y-104003450D01*
X147342857Y-104003450D02*
X147414285Y-104039164D01*
X147414285Y-104039164D02*
X147557142Y-104039164D01*
X147557142Y-104039164D02*
X147628571Y-104003450D01*
X147628571Y-104003450D02*
X147664285Y-103967735D01*
X147664285Y-103967735D02*
X147699999Y-103896307D01*
X147699999Y-103896307D02*
X147699999Y-103289164D01*
X148449999Y-104039164D02*
X148021428Y-104039164D01*
X148235713Y-104039164D02*
X148235713Y-103289164D01*
X148235713Y-103289164D02*
X148164285Y-103396307D01*
X148164285Y-103396307D02*
X148092856Y-103467735D01*
X148092856Y-103467735D02*
X148021428Y-103503450D01*
X148914285Y-103289164D02*
X148985714Y-103289164D01*
X148985714Y-103289164D02*
X149057142Y-103324878D01*
X149057142Y-103324878D02*
X149092857Y-103360592D01*
X149092857Y-103360592D02*
X149128571Y-103432021D01*
X149128571Y-103432021D02*
X149164285Y-103574878D01*
X149164285Y-103574878D02*
X149164285Y-103753450D01*
X149164285Y-103753450D02*
X149128571Y-103896307D01*
X149128571Y-103896307D02*
X149092857Y-103967735D01*
X149092857Y-103967735D02*
X149057142Y-104003450D01*
X149057142Y-104003450D02*
X148985714Y-104039164D01*
X148985714Y-104039164D02*
X148914285Y-104039164D01*
X148914285Y-104039164D02*
X148842857Y-104003450D01*
X148842857Y-104003450D02*
X148807142Y-103967735D01*
X148807142Y-103967735D02*
X148771428Y-103896307D01*
X148771428Y-103896307D02*
X148735714Y-103753450D01*
X148735714Y-103753450D02*
X148735714Y-103574878D01*
X148735714Y-103574878D02*
X148771428Y-103432021D01*
X148771428Y-103432021D02*
X148807142Y-103360592D01*
X148807142Y-103360592D02*
X148842857Y-103324878D01*
X148842857Y-103324878D02*
X148914285Y-103289164D01*
X151842856Y-105592735D02*
X151807142Y-105628450D01*
X151807142Y-105628450D02*
X151699999Y-105664164D01*
X151699999Y-105664164D02*
X151628571Y-105664164D01*
X151628571Y-105664164D02*
X151521428Y-105628450D01*
X151521428Y-105628450D02*
X151449999Y-105557021D01*
X151449999Y-105557021D02*
X151414285Y-105485592D01*
X151414285Y-105485592D02*
X151378571Y-105342735D01*
X151378571Y-105342735D02*
X151378571Y-105235592D01*
X151378571Y-105235592D02*
X151414285Y-105092735D01*
X151414285Y-105092735D02*
X151449999Y-105021307D01*
X151449999Y-105021307D02*
X151521428Y-104949878D01*
X151521428Y-104949878D02*
X151628571Y-104914164D01*
X151628571Y-104914164D02*
X151699999Y-104914164D01*
X151699999Y-104914164D02*
X151807142Y-104949878D01*
X151807142Y-104949878D02*
X151842856Y-104985592D01*
X152092856Y-104914164D02*
X152557142Y-104914164D01*
X152557142Y-104914164D02*
X152307142Y-105199878D01*
X152307142Y-105199878D02*
X152414285Y-105199878D01*
X152414285Y-105199878D02*
X152485714Y-105235592D01*
X152485714Y-105235592D02*
X152521428Y-105271307D01*
X152521428Y-105271307D02*
X152557142Y-105342735D01*
X152557142Y-105342735D02*
X152557142Y-105521307D01*
X152557142Y-105521307D02*
X152521428Y-105592735D01*
X152521428Y-105592735D02*
X152485714Y-105628450D01*
X152485714Y-105628450D02*
X152414285Y-105664164D01*
X152414285Y-105664164D02*
X152199999Y-105664164D01*
X152199999Y-105664164D02*
X152128571Y-105628450D01*
X152128571Y-105628450D02*
X152092856Y-105592735D01*
X152985714Y-105235592D02*
X152914285Y-105199878D01*
X152914285Y-105199878D02*
X152878571Y-105164164D01*
X152878571Y-105164164D02*
X152842857Y-105092735D01*
X152842857Y-105092735D02*
X152842857Y-105057021D01*
X152842857Y-105057021D02*
X152878571Y-104985592D01*
X152878571Y-104985592D02*
X152914285Y-104949878D01*
X152914285Y-104949878D02*
X152985714Y-104914164D01*
X152985714Y-104914164D02*
X153128571Y-104914164D01*
X153128571Y-104914164D02*
X153200000Y-104949878D01*
X153200000Y-104949878D02*
X153235714Y-104985592D01*
X153235714Y-104985592D02*
X153271428Y-105057021D01*
X153271428Y-105057021D02*
X153271428Y-105092735D01*
X153271428Y-105092735D02*
X153235714Y-105164164D01*
X153235714Y-105164164D02*
X153200000Y-105199878D01*
X153200000Y-105199878D02*
X153128571Y-105235592D01*
X153128571Y-105235592D02*
X152985714Y-105235592D01*
X152985714Y-105235592D02*
X152914285Y-105271307D01*
X152914285Y-105271307D02*
X152878571Y-105307021D01*
X152878571Y-105307021D02*
X152842857Y-105378450D01*
X152842857Y-105378450D02*
X152842857Y-105521307D01*
X152842857Y-105521307D02*
X152878571Y-105592735D01*
X152878571Y-105592735D02*
X152914285Y-105628450D01*
X152914285Y-105628450D02*
X152985714Y-105664164D01*
X152985714Y-105664164D02*
X153128571Y-105664164D01*
X153128571Y-105664164D02*
X153200000Y-105628450D01*
X153200000Y-105628450D02*
X153235714Y-105592735D01*
X153235714Y-105592735D02*
X153271428Y-105521307D01*
X153271428Y-105521307D02*
X153271428Y-105378450D01*
X153271428Y-105378450D02*
X153235714Y-105307021D01*
X153235714Y-105307021D02*
X153200000Y-105271307D01*
X153200000Y-105271307D02*
X153128571Y-105235592D01*
X162221428Y-92989164D02*
X162221428Y-92239164D01*
X162221428Y-92239164D02*
X162399999Y-92239164D01*
X162399999Y-92239164D02*
X162507142Y-92274878D01*
X162507142Y-92274878D02*
X162578571Y-92346307D01*
X162578571Y-92346307D02*
X162614285Y-92417735D01*
X162614285Y-92417735D02*
X162649999Y-92560592D01*
X162649999Y-92560592D02*
X162649999Y-92667735D01*
X162649999Y-92667735D02*
X162614285Y-92810592D01*
X162614285Y-92810592D02*
X162578571Y-92882021D01*
X162578571Y-92882021D02*
X162507142Y-92953450D01*
X162507142Y-92953450D02*
X162399999Y-92989164D01*
X162399999Y-92989164D02*
X162221428Y-92989164D01*
X162935714Y-92310592D02*
X162971428Y-92274878D01*
X162971428Y-92274878D02*
X163042857Y-92239164D01*
X163042857Y-92239164D02*
X163221428Y-92239164D01*
X163221428Y-92239164D02*
X163292857Y-92274878D01*
X163292857Y-92274878D02*
X163328571Y-92310592D01*
X163328571Y-92310592D02*
X163364285Y-92382021D01*
X163364285Y-92382021D02*
X163364285Y-92453450D01*
X163364285Y-92453450D02*
X163328571Y-92560592D01*
X163328571Y-92560592D02*
X162899999Y-92989164D01*
X162899999Y-92989164D02*
X163364285Y-92989164D01*
X144067856Y-105464164D02*
X143817856Y-105107021D01*
X143639285Y-105464164D02*
X143639285Y-104714164D01*
X143639285Y-104714164D02*
X143924999Y-104714164D01*
X143924999Y-104714164D02*
X143996428Y-104749878D01*
X143996428Y-104749878D02*
X144032142Y-104785592D01*
X144032142Y-104785592D02*
X144067856Y-104857021D01*
X144067856Y-104857021D02*
X144067856Y-104964164D01*
X144067856Y-104964164D02*
X144032142Y-105035592D01*
X144032142Y-105035592D02*
X143996428Y-105071307D01*
X143996428Y-105071307D02*
X143924999Y-105107021D01*
X143924999Y-105107021D02*
X143639285Y-105107021D01*
X144317856Y-104714164D02*
X144782142Y-104714164D01*
X144782142Y-104714164D02*
X144532142Y-104999878D01*
X144532142Y-104999878D02*
X144639285Y-104999878D01*
X144639285Y-104999878D02*
X144710714Y-105035592D01*
X144710714Y-105035592D02*
X144746428Y-105071307D01*
X144746428Y-105071307D02*
X144782142Y-105142735D01*
X144782142Y-105142735D02*
X144782142Y-105321307D01*
X144782142Y-105321307D02*
X144746428Y-105392735D01*
X144746428Y-105392735D02*
X144710714Y-105428450D01*
X144710714Y-105428450D02*
X144639285Y-105464164D01*
X144639285Y-105464164D02*
X144424999Y-105464164D01*
X144424999Y-105464164D02*
X144353571Y-105428450D01*
X144353571Y-105428450D02*
X144317856Y-105392735D01*
X145067857Y-104785592D02*
X145103571Y-104749878D01*
X145103571Y-104749878D02*
X145175000Y-104714164D01*
X145175000Y-104714164D02*
X145353571Y-104714164D01*
X145353571Y-104714164D02*
X145425000Y-104749878D01*
X145425000Y-104749878D02*
X145460714Y-104785592D01*
X145460714Y-104785592D02*
X145496428Y-104857021D01*
X145496428Y-104857021D02*
X145496428Y-104928450D01*
X145496428Y-104928450D02*
X145460714Y-105035592D01*
X145460714Y-105035592D02*
X145032142Y-105464164D01*
X145032142Y-105464164D02*
X145496428Y-105464164D01*
X133196388Y-92989164D02*
X133196388Y-92239164D01*
X133196388Y-92239164D02*
X133374959Y-92239164D01*
X133374959Y-92239164D02*
X133482102Y-92274878D01*
X133482102Y-92274878D02*
X133553531Y-92346307D01*
X133553531Y-92346307D02*
X133589245Y-92417735D01*
X133589245Y-92417735D02*
X133624959Y-92560592D01*
X133624959Y-92560592D02*
X133624959Y-92667735D01*
X133624959Y-92667735D02*
X133589245Y-92810592D01*
X133589245Y-92810592D02*
X133553531Y-92882021D01*
X133553531Y-92882021D02*
X133482102Y-92953450D01*
X133482102Y-92953450D02*
X133374959Y-92989164D01*
X133374959Y-92989164D02*
X133196388Y-92989164D01*
X134339245Y-92989164D02*
X133910674Y-92989164D01*
X134124959Y-92989164D02*
X134124959Y-92239164D01*
X134124959Y-92239164D02*
X134053531Y-92346307D01*
X134053531Y-92346307D02*
X133982102Y-92417735D01*
X133982102Y-92417735D02*
X133910674Y-92453450D01*
D11*
%TO.C,J3*%
X131730000Y-108010000D02*
X131730000Y-106850000D01*
X132540000Y-108010000D02*
X131730000Y-108010000D01*
X133350000Y-105690000D02*
X137095000Y-105690000D01*
X133350000Y-106183292D02*
X133350000Y-105690000D01*
X133350000Y-108010000D02*
X133350000Y-107516708D01*
X133350000Y-108010000D02*
X137095000Y-108010000D01*
X137095000Y-106532077D02*
X137095000Y-105690000D01*
X137095000Y-108010000D02*
X137095000Y-107167923D01*
D12*
%TO.C,U10*%
X146355000Y-105451000D02*
G75*
G02*
X146255000Y-105451000I-50000J0D01*
G01*
X146255000Y-105451000D02*
G75*
G02*
X146355000Y-105451000I50000J0D01*
G01*
D11*
%TO.C,C38*%
X149940000Y-106227836D02*
X149940000Y-106012164D01*
X150660000Y-106227836D02*
X150660000Y-106012164D01*
D13*
%TO.C,D2*%
X161349960Y-94020000D02*
X161349960Y-97520000D01*
X164149960Y-97520000D02*
X164149960Y-94020000D01*
D11*
%TO.C,R32*%
X145406359Y-106420000D02*
X145713641Y-106420000D01*
X145406359Y-107180000D02*
X145713641Y-107180000D01*
D13*
%TO.C,D1*%
X132349960Y-94020000D02*
X132349960Y-97520000D01*
X135149960Y-97520000D02*
X135149960Y-94020000D01*
D11*
%TO.C,J4*%
X131740000Y-104660000D02*
X131740000Y-103500000D01*
X132550000Y-104660000D02*
X131740000Y-104660000D01*
X133360000Y-102340000D02*
X137105000Y-102340000D01*
X133360000Y-102833292D02*
X133360000Y-102340000D01*
X133360000Y-104660000D02*
X133360000Y-104166708D01*
X133360000Y-104660000D02*
X137105000Y-104660000D01*
X137105000Y-103182077D02*
X137105000Y-102340000D01*
X137105000Y-104660000D02*
X137105000Y-103817923D01*
%TD*%
M02*
