%TF.GenerationSoftware,KiCad,Pcbnew,9.0.6*%
%TF.CreationDate,2025-11-21T10:38:04+00:00*%
%TF.ProjectId,led_pcb,6c65645f-7063-4622-9e6b-696361645f70,rev?*%
%TF.SameCoordinates,Original*%
%TF.FileFunction,Copper,L2,Bot*%
%TF.FilePolarity,Positive*%
%FSLAX46Y46*%
G04 Gerber Fmt 4.6, Leading zero omitted, Abs format (unit mm)*
G04 Created by KiCad (PCBNEW 9.0.6) date 2025-11-21 10:38:04*
%MOMM*%
%LPD*%
G01*
G04 APERTURE LIST*
%TA.AperFunction,ComponentPad*%
%ADD10R,1.000000X1.000000*%
%TD*%
%TA.AperFunction,ComponentPad*%
%ADD11C,1.000000*%
%TD*%
%TA.AperFunction,ComponentPad*%
%ADD12R,2.000000X2.000000*%
%TD*%
%TA.AperFunction,ViaPad*%
%ADD13C,0.600000*%
%TD*%
%TA.AperFunction,Conductor*%
%ADD14C,0.200000*%
%TD*%
G04 APERTURE END LIST*
D10*
%TO.P,J3,1,Pin_1*%
%TO.N,+3.3V*%
X132540000Y-106850000D03*
D11*
%TO.P,J3,2,Pin_2*%
%TO.N,MSDA*%
X133810000Y-106850000D03*
%TO.P,J3,3,Pin_3*%
%TO.N,MSCL*%
X135080000Y-106850000D03*
%TO.P,J3,4,Pin_4*%
%TO.N,GND*%
X136350000Y-106850000D03*
%TD*%
D10*
%TO.P,J4,1,Pin_1*%
%TO.N,+3.3V*%
X132550000Y-103500000D03*
D11*
%TO.P,J4,2,Pin_2*%
%TO.N,MSDA*%
X133820000Y-103500000D03*
%TO.P,J4,3,Pin_3*%
%TO.N,MSCL*%
X135090000Y-103500000D03*
%TO.P,J4,4,Pin_4*%
%TO.N,GND*%
X136360000Y-103500000D03*
%TD*%
D12*
%TO.P,J2,1,Pin_1*%
%TO.N,GND*%
X160490000Y-107322000D03*
%TD*%
%TO.P,J1,1,Pin_1*%
%TO.N,+10V*%
X164024000Y-107321000D03*
%TD*%
D13*
%TO.N,GND*%
X131825000Y-96575000D03*
X133750000Y-98225000D03*
X162750000Y-98325000D03*
X151025000Y-106600000D03*
X164700000Y-96575000D03*
X147725000Y-105050000D03*
%TO.N,MSCL*%
X148325000Y-106150000D03*
%TO.N,MSDA*%
X146500000Y-106025000D03*
X143825000Y-106175000D03*
%TD*%
D14*
%TO.N,MSCL*%
X135080000Y-106850000D02*
X135080000Y-107530000D01*
X135500000Y-107950000D02*
X146525000Y-107950000D01*
X135080000Y-107530000D02*
X135500000Y-107950000D01*
X146525000Y-107950000D02*
X148325000Y-106150000D01*
%TO.N,MSDA*%
X146350000Y-106175000D02*
X146500000Y-106025000D01*
X143825000Y-106175000D02*
X146350000Y-106175000D01*
%TD*%
%TA.AperFunction,Conductor*%
%TO.N,GND*%
G36*
X139991340Y-91546385D02*
G01*
X140037095Y-91599189D01*
X140048301Y-91650700D01*
X140048301Y-101465255D01*
X140048302Y-101465261D01*
X140059976Y-101493445D01*
X140059979Y-101493449D01*
X140081551Y-101515021D01*
X140081555Y-101515024D01*
X140109739Y-101526698D01*
X140109744Y-101526700D01*
X140109745Y-101526700D01*
X156390256Y-101526700D01*
X156390257Y-101526700D01*
X156418447Y-101515023D01*
X156440023Y-101493447D01*
X156451700Y-101465257D01*
X156451700Y-95434743D01*
X156451700Y-94343713D01*
X157399500Y-94343713D01*
X157399500Y-94556286D01*
X157432753Y-94766239D01*
X157498444Y-94968414D01*
X157594951Y-95157820D01*
X157719890Y-95329786D01*
X157870213Y-95480109D01*
X158042179Y-95605048D01*
X158042181Y-95605049D01*
X158042184Y-95605051D01*
X158231588Y-95701557D01*
X158433757Y-95767246D01*
X158643713Y-95800500D01*
X158643714Y-95800500D01*
X158856286Y-95800500D01*
X158856287Y-95800500D01*
X159066243Y-95767246D01*
X159268412Y-95701557D01*
X159457816Y-95605051D01*
X159479789Y-95589086D01*
X159629786Y-95480109D01*
X159629788Y-95480106D01*
X159629792Y-95480104D01*
X159780104Y-95329792D01*
X159780106Y-95329788D01*
X159780109Y-95329786D01*
X159905048Y-95157820D01*
X159905047Y-95157820D01*
X159905051Y-95157816D01*
X160001557Y-94968412D01*
X160067246Y-94766243D01*
X160100500Y-94556287D01*
X160100500Y-94343713D01*
X160067246Y-94133757D01*
X160001557Y-93931588D01*
X159905051Y-93742184D01*
X159905049Y-93742181D01*
X159905048Y-93742179D01*
X159780109Y-93570213D01*
X159629786Y-93419890D01*
X159457820Y-93294951D01*
X159268414Y-93198444D01*
X159268413Y-93198443D01*
X159268412Y-93198443D01*
X159066243Y-93132754D01*
X159066241Y-93132753D01*
X159066240Y-93132753D01*
X158875859Y-93102600D01*
X158856287Y-93099500D01*
X158643713Y-93099500D01*
X158624141Y-93102600D01*
X158433760Y-93132753D01*
X158231585Y-93198444D01*
X158042179Y-93294951D01*
X157870213Y-93419890D01*
X157719890Y-93570213D01*
X157594951Y-93742179D01*
X157498444Y-93931585D01*
X157432753Y-94133760D01*
X157399500Y-94343713D01*
X156451700Y-94343713D01*
X156451700Y-91650700D01*
X156471385Y-91583661D01*
X156524189Y-91537906D01*
X156575700Y-91526700D01*
X165549300Y-91526700D01*
X165616339Y-91546385D01*
X165662094Y-91599189D01*
X165673300Y-91650700D01*
X165673300Y-105980630D01*
X165653615Y-106047669D01*
X165600811Y-106093424D01*
X165531653Y-106103368D01*
X165468097Y-106074343D01*
X165450034Y-106054941D01*
X165381547Y-105963455D01*
X165381544Y-105963452D01*
X165266335Y-105877206D01*
X165266328Y-105877202D01*
X165131482Y-105826908D01*
X165131483Y-105826908D01*
X165071883Y-105820501D01*
X165071881Y-105820500D01*
X165071873Y-105820500D01*
X165071864Y-105820500D01*
X162976129Y-105820500D01*
X162976123Y-105820501D01*
X162916516Y-105826908D01*
X162781671Y-105877202D01*
X162781664Y-105877206D01*
X162666455Y-105963452D01*
X162666452Y-105963455D01*
X162580206Y-106078664D01*
X162580202Y-106078671D01*
X162529908Y-106213517D01*
X162523501Y-106273116D01*
X162523500Y-106273135D01*
X162523500Y-108368870D01*
X162523501Y-108368876D01*
X162529908Y-108428483D01*
X162580202Y-108563328D01*
X162580206Y-108563335D01*
X162666452Y-108678544D01*
X162666454Y-108678546D01*
X162781669Y-108764796D01*
X162781671Y-108764796D01*
X162782899Y-108765468D01*
X162783892Y-108766461D01*
X162788769Y-108770112D01*
X162788244Y-108770813D01*
X162832304Y-108814873D01*
X162847156Y-108883146D01*
X162822739Y-108948610D01*
X162766806Y-108990482D01*
X162723472Y-108998300D01*
X130901328Y-108998300D01*
X130834289Y-108978615D01*
X130788534Y-108925811D01*
X130777329Y-108873913D01*
X130782154Y-107329815D01*
X130785366Y-106302135D01*
X131539500Y-106302135D01*
X131539500Y-107397870D01*
X131539501Y-107397876D01*
X131545908Y-107457483D01*
X131596202Y-107592328D01*
X131596206Y-107592335D01*
X131682452Y-107707544D01*
X131682455Y-107707547D01*
X131797664Y-107793793D01*
X131797671Y-107793797D01*
X131932517Y-107844091D01*
X131932516Y-107844091D01*
X131939444Y-107844835D01*
X131992127Y-107850500D01*
X133087872Y-107850499D01*
X133147483Y-107844091D01*
X133282331Y-107793796D01*
X133294110Y-107784977D01*
X133359570Y-107760558D01*
X133415872Y-107769680D01*
X133518165Y-107812051D01*
X133518169Y-107812051D01*
X133518170Y-107812052D01*
X133711456Y-107850500D01*
X133711459Y-107850500D01*
X133908543Y-107850500D01*
X134038582Y-107824632D01*
X134101835Y-107812051D01*
X134269361Y-107742660D01*
X134283907Y-107736635D01*
X134283907Y-107736634D01*
X134283914Y-107736632D01*
X134335363Y-107702254D01*
X134349510Y-107697824D01*
X134361416Y-107688991D01*
X134382178Y-107687594D01*
X134402038Y-107681376D01*
X134416335Y-107685297D01*
X134431128Y-107684303D01*
X134449349Y-107694353D01*
X134469419Y-107699859D01*
X134480374Y-107711466D01*
X134492308Y-107718049D01*
X134505961Y-107738577D01*
X134513338Y-107746393D01*
X134519209Y-107757255D01*
X134520423Y-107761785D01*
X134538905Y-107793796D01*
X134539758Y-107795274D01*
X134539767Y-107795290D01*
X134571642Y-107850499D01*
X134599480Y-107898716D01*
X134711284Y-108010520D01*
X134711285Y-108010521D01*
X135131284Y-108430520D01*
X135131286Y-108430521D01*
X135131290Y-108430524D01*
X135268209Y-108509573D01*
X135268216Y-108509577D01*
X135420943Y-108550501D01*
X135420945Y-108550501D01*
X135586654Y-108550501D01*
X135586670Y-108550500D01*
X146438331Y-108550500D01*
X146438347Y-108550501D01*
X146445943Y-108550501D01*
X146604054Y-108550501D01*
X146604057Y-108550501D01*
X146756785Y-108509577D01*
X146806904Y-108480639D01*
X146893716Y-108430520D01*
X147005520Y-108318716D01*
X147005520Y-108318714D01*
X147015728Y-108308507D01*
X147015729Y-108308504D01*
X148339662Y-106984572D01*
X148400983Y-106951089D01*
X148403150Y-106950638D01*
X148461085Y-106939113D01*
X148558497Y-106919737D01*
X148704179Y-106859394D01*
X148835289Y-106771789D01*
X148946789Y-106660289D01*
X149034394Y-106529179D01*
X149094737Y-106383497D01*
X149125500Y-106228842D01*
X149125500Y-106071158D01*
X149125500Y-106071155D01*
X149125499Y-106071153D01*
X149120465Y-106045848D01*
X149094737Y-105916503D01*
X149078458Y-105877202D01*
X149034397Y-105770827D01*
X149034390Y-105770814D01*
X148946789Y-105639711D01*
X148946786Y-105639707D01*
X148835292Y-105528213D01*
X148835288Y-105528210D01*
X148704185Y-105440609D01*
X148704172Y-105440602D01*
X148558501Y-105380264D01*
X148558489Y-105380261D01*
X148403845Y-105349500D01*
X148403842Y-105349500D01*
X148246158Y-105349500D01*
X148246155Y-105349500D01*
X148091510Y-105380261D01*
X148091498Y-105380264D01*
X147945827Y-105440602D01*
X147945814Y-105440609D01*
X147814711Y-105528210D01*
X147814707Y-105528213D01*
X147703213Y-105639707D01*
X147703210Y-105639711D01*
X147615609Y-105770814D01*
X147615602Y-105770827D01*
X147555264Y-105916498D01*
X147555262Y-105916505D01*
X147545999Y-105963071D01*
X147513612Y-106024981D01*
X147452896Y-106059554D01*
X147383127Y-106055813D01*
X147326455Y-106014945D01*
X147300978Y-105951019D01*
X147300500Y-105946168D01*
X147300500Y-105946158D01*
X147269737Y-105791503D01*
X147261170Y-105770821D01*
X147209397Y-105645827D01*
X147209390Y-105645814D01*
X147121789Y-105514711D01*
X147121786Y-105514707D01*
X147010292Y-105403213D01*
X147010288Y-105403210D01*
X146879185Y-105315609D01*
X146879172Y-105315602D01*
X146733501Y-105255264D01*
X146733489Y-105255261D01*
X146578845Y-105224500D01*
X146578842Y-105224500D01*
X146421158Y-105224500D01*
X146421155Y-105224500D01*
X146266510Y-105255261D01*
X146266498Y-105255264D01*
X146120827Y-105315602D01*
X146120814Y-105315609D01*
X145989711Y-105403210D01*
X145989707Y-105403213D01*
X145878211Y-105514709D01*
X145875086Y-105519388D01*
X145821475Y-105564194D01*
X145771982Y-105574500D01*
X144404766Y-105574500D01*
X144337727Y-105554815D01*
X144335875Y-105553602D01*
X144204185Y-105465609D01*
X144204172Y-105465602D01*
X144058501Y-105405264D01*
X144058489Y-105405261D01*
X143903845Y-105374500D01*
X143903842Y-105374500D01*
X143746158Y-105374500D01*
X143746155Y-105374500D01*
X143591510Y-105405261D01*
X143591498Y-105405264D01*
X143445827Y-105465602D01*
X143445814Y-105465609D01*
X143314711Y-105553210D01*
X143314707Y-105553213D01*
X143203213Y-105664707D01*
X143203210Y-105664711D01*
X143115609Y-105795814D01*
X143115602Y-105795827D01*
X143055264Y-105941498D01*
X143055261Y-105941510D01*
X143024500Y-106096153D01*
X143024500Y-106253846D01*
X143055261Y-106408489D01*
X143055264Y-106408501D01*
X143115602Y-106554172D01*
X143115609Y-106554185D01*
X143203210Y-106685288D01*
X143203213Y-106685292D01*
X143314707Y-106796786D01*
X143314711Y-106796789D01*
X143445814Y-106884390D01*
X143445827Y-106884397D01*
X143591498Y-106944735D01*
X143591503Y-106944737D01*
X143704165Y-106967147D01*
X143746153Y-106975499D01*
X143746156Y-106975500D01*
X143746158Y-106975500D01*
X143903844Y-106975500D01*
X143903845Y-106975499D01*
X144058497Y-106944737D01*
X144204179Y-106884394D01*
X144241600Y-106859390D01*
X144335875Y-106796398D01*
X144402553Y-106775520D01*
X144404766Y-106775500D01*
X146195396Y-106775500D01*
X146242844Y-106784937D01*
X146266503Y-106794737D01*
X146266508Y-106794738D01*
X146266511Y-106794739D01*
X146421153Y-106825499D01*
X146421156Y-106825500D01*
X146500903Y-106825500D01*
X146567942Y-106845185D01*
X146613697Y-106897989D01*
X146623641Y-106967147D01*
X146594616Y-107030703D01*
X146588584Y-107037181D01*
X146312584Y-107313181D01*
X146251261Y-107346666D01*
X146224903Y-107349500D01*
X136141613Y-107349500D01*
X136074574Y-107329815D01*
X136028819Y-107277011D01*
X136018875Y-107207853D01*
X136027051Y-107178049D01*
X136029009Y-107173320D01*
X136042051Y-107141835D01*
X136073333Y-106984574D01*
X136080500Y-106948543D01*
X136080500Y-106751456D01*
X136042052Y-106558170D01*
X136042051Y-106558169D01*
X136042051Y-106558165D01*
X136042049Y-106558160D01*
X135966635Y-106376092D01*
X135966628Y-106376079D01*
X135857139Y-106212218D01*
X135857136Y-106212214D01*
X135717785Y-106072863D01*
X135717781Y-106072860D01*
X135553920Y-105963371D01*
X135553907Y-105963364D01*
X135371839Y-105887950D01*
X135371829Y-105887947D01*
X135178543Y-105849500D01*
X135178541Y-105849500D01*
X134981459Y-105849500D01*
X134981457Y-105849500D01*
X134788170Y-105887947D01*
X134788160Y-105887950D01*
X134606089Y-105963366D01*
X134513890Y-106024971D01*
X134447213Y-106045848D01*
X134379833Y-106027363D01*
X134376110Y-106024971D01*
X134309748Y-105980630D01*
X134283914Y-105963368D01*
X134283911Y-105963366D01*
X134283910Y-105963366D01*
X134101839Y-105887950D01*
X134101829Y-105887947D01*
X133908543Y-105849500D01*
X133908541Y-105849500D01*
X133711459Y-105849500D01*
X133711457Y-105849500D01*
X133518171Y-105887947D01*
X133518168Y-105887948D01*
X133518166Y-105887948D01*
X133518165Y-105887949D01*
X133518163Y-105887950D01*
X133415874Y-105930318D01*
X133346404Y-105937785D01*
X133294113Y-105915023D01*
X133282335Y-105906206D01*
X133282328Y-105906202D01*
X133147482Y-105855908D01*
X133147483Y-105855908D01*
X133087883Y-105849501D01*
X133087881Y-105849500D01*
X133087873Y-105849500D01*
X133087864Y-105849500D01*
X131992129Y-105849500D01*
X131992123Y-105849501D01*
X131932516Y-105855908D01*
X131797671Y-105906202D01*
X131797664Y-105906206D01*
X131682455Y-105992452D01*
X131682452Y-105992455D01*
X131596206Y-106107664D01*
X131596202Y-106107671D01*
X131545908Y-106242517D01*
X131539501Y-106302116D01*
X131539500Y-106302135D01*
X130785366Y-106302135D01*
X130795835Y-102952135D01*
X131549500Y-102952135D01*
X131549500Y-104047870D01*
X131549501Y-104047876D01*
X131555908Y-104107483D01*
X131606202Y-104242328D01*
X131606206Y-104242335D01*
X131692452Y-104357544D01*
X131692455Y-104357547D01*
X131807664Y-104443793D01*
X131807671Y-104443797D01*
X131942517Y-104494091D01*
X131942516Y-104494091D01*
X131949444Y-104494835D01*
X132002127Y-104500500D01*
X133097872Y-104500499D01*
X133157483Y-104494091D01*
X133292331Y-104443796D01*
X133304110Y-104434977D01*
X133369570Y-104410558D01*
X133425872Y-104419680D01*
X133528165Y-104462051D01*
X133528169Y-104462051D01*
X133528170Y-104462052D01*
X133721456Y-104500500D01*
X133721459Y-104500500D01*
X133918543Y-104500500D01*
X134048582Y-104474632D01*
X134111835Y-104462051D01*
X134293914Y-104386632D01*
X134386109Y-104325029D01*
X134452786Y-104304151D01*
X134520166Y-104322635D01*
X134523891Y-104325029D01*
X134616080Y-104386628D01*
X134616086Y-104386632D01*
X134616088Y-104386633D01*
X134616092Y-104386635D01*
X134798160Y-104462049D01*
X134798165Y-104462051D01*
X134798169Y-104462051D01*
X134798170Y-104462052D01*
X134991456Y-104500500D01*
X134991459Y-104500500D01*
X135188543Y-104500500D01*
X135318582Y-104474632D01*
X135381835Y-104462051D01*
X135563914Y-104386632D01*
X135727782Y-104277139D01*
X135867139Y-104137782D01*
X135976632Y-103973914D01*
X136052051Y-103791835D01*
X136090500Y-103598541D01*
X136090500Y-103401459D01*
X136090500Y-103401456D01*
X136052052Y-103208170D01*
X136052051Y-103208169D01*
X136052051Y-103208165D01*
X136052049Y-103208160D01*
X135976635Y-103026092D01*
X135976628Y-103026079D01*
X135867139Y-102862218D01*
X135867136Y-102862214D01*
X135727785Y-102722863D01*
X135727781Y-102722860D01*
X135563920Y-102613371D01*
X135563907Y-102613364D01*
X135381839Y-102537950D01*
X135381829Y-102537947D01*
X135188543Y-102499500D01*
X135188541Y-102499500D01*
X134991459Y-102499500D01*
X134991457Y-102499500D01*
X134798170Y-102537947D01*
X134798160Y-102537950D01*
X134616089Y-102613366D01*
X134523890Y-102674971D01*
X134457213Y-102695848D01*
X134389833Y-102677363D01*
X134386110Y-102674971D01*
X134337441Y-102642452D01*
X134293914Y-102613368D01*
X134293911Y-102613366D01*
X134293910Y-102613366D01*
X134111839Y-102537950D01*
X134111829Y-102537947D01*
X133918543Y-102499500D01*
X133918541Y-102499500D01*
X133721459Y-102499500D01*
X133721457Y-102499500D01*
X133528171Y-102537947D01*
X133528168Y-102537948D01*
X133528166Y-102537948D01*
X133528165Y-102537949D01*
X133528163Y-102537950D01*
X133425874Y-102580318D01*
X133356404Y-102587785D01*
X133304113Y-102565023D01*
X133292335Y-102556206D01*
X133292328Y-102556202D01*
X133157482Y-102505908D01*
X133157483Y-102505908D01*
X133097883Y-102499501D01*
X133097881Y-102499500D01*
X133097873Y-102499500D01*
X133097864Y-102499500D01*
X132002129Y-102499500D01*
X132002123Y-102499501D01*
X131942516Y-102505908D01*
X131807671Y-102556202D01*
X131807664Y-102556206D01*
X131692455Y-102642452D01*
X131692452Y-102642455D01*
X131606206Y-102757664D01*
X131606202Y-102757671D01*
X131555908Y-102892517D01*
X131549501Y-102952116D01*
X131549500Y-102952135D01*
X130795835Y-102952135D01*
X130819611Y-95343713D01*
X136399500Y-95343713D01*
X136399500Y-95556286D01*
X136432753Y-95766239D01*
X136498444Y-95968414D01*
X136594951Y-96157820D01*
X136719890Y-96329786D01*
X136870213Y-96480109D01*
X137042179Y-96605048D01*
X137042181Y-96605049D01*
X137042184Y-96605051D01*
X137231588Y-96701557D01*
X137433757Y-96767246D01*
X137643713Y-96800500D01*
X137643714Y-96800500D01*
X137856286Y-96800500D01*
X137856287Y-96800500D01*
X138066243Y-96767246D01*
X138268412Y-96701557D01*
X138457816Y-96605051D01*
X138479789Y-96589086D01*
X138629786Y-96480109D01*
X138629788Y-96480106D01*
X138629792Y-96480104D01*
X138780104Y-96329792D01*
X138780106Y-96329788D01*
X138780109Y-96329786D01*
X138905048Y-96157820D01*
X138905047Y-96157820D01*
X138905051Y-96157816D01*
X139001557Y-95968412D01*
X139067246Y-95766243D01*
X139100500Y-95556287D01*
X139100500Y-95343713D01*
X139067246Y-95133757D01*
X139001557Y-94931588D01*
X138905051Y-94742184D01*
X138905049Y-94742181D01*
X138905048Y-94742179D01*
X138780109Y-94570213D01*
X138629786Y-94419890D01*
X138457820Y-94294951D01*
X138268414Y-94198444D01*
X138268413Y-94198443D01*
X138268412Y-94198443D01*
X138066243Y-94132754D01*
X138066241Y-94132753D01*
X138066240Y-94132753D01*
X137904957Y-94107208D01*
X137856287Y-94099500D01*
X137643713Y-94099500D01*
X137595042Y-94107208D01*
X137433760Y-94132753D01*
X137231585Y-94198444D01*
X137042179Y-94294951D01*
X136870213Y-94419890D01*
X136719890Y-94570213D01*
X136594951Y-94742179D01*
X136498444Y-94931585D01*
X136432753Y-95133760D01*
X136399500Y-95343713D01*
X130819611Y-95343713D01*
X130826653Y-93090372D01*
X130826701Y-93090257D01*
X130826701Y-93075022D01*
X130826748Y-93059983D01*
X130826747Y-93059982D01*
X130826783Y-93048631D01*
X130826701Y-93047776D01*
X130826701Y-91650700D01*
X130846386Y-91583661D01*
X130899190Y-91537906D01*
X130950701Y-91526700D01*
X139924301Y-91526700D01*
X139991340Y-91546385D01*
G37*
%TD.AperFunction*%
%TD*%
M02*
