%TF.GenerationSoftware,KiCad,Pcbnew,9.0.4*%
%TF.CreationDate,2025-09-02T14:54:45+01:00*%
%TF.ProjectId,lab_in_a_can,6c61625f-696e-45f6-915f-63616e2e6b69,rev?*%
%TF.SameCoordinates,Original*%
%TF.FileFunction,Paste,Top*%
%TF.FilePolarity,Positive*%
%FSLAX46Y46*%
G04 Gerber Fmt 4.6, Leading zero omitted, Abs format (unit mm)*
G04 Created by KiCad (PCBNEW 9.0.4) date 2025-09-02 14:54:45*
%MOMM*%
%LPD*%
G01*
G04 APERTURE LIST*
G04 Aperture macros list*
%AMRoundRect*
0 Rectangle with rounded corners*
0 $1 Rounding radius*
0 $2 $3 $4 $5 $6 $7 $8 $9 X,Y pos of 4 corners*
0 Add a 4 corners polygon primitive as box body*
4,1,4,$2,$3,$4,$5,$6,$7,$8,$9,$2,$3,0*
0 Add four circle primitives for the rounded corners*
1,1,$1+$1,$2,$3*
1,1,$1+$1,$4,$5*
1,1,$1+$1,$6,$7*
1,1,$1+$1,$8,$9*
0 Add four rect primitives between the rounded corners*
20,1,$1+$1,$2,$3,$4,$5,0*
20,1,$1+$1,$4,$5,$6,$7,0*
20,1,$1+$1,$6,$7,$8,$9,0*
20,1,$1+$1,$8,$9,$2,$3,0*%
%AMFreePoly0*
4,1,17,0.315355,0.615355,0.330000,0.580000,0.330000,-0.120000,0.315355,-0.155355,0.280000,-0.170000,-0.290000,-0.170000,-0.325355,-0.155355,-0.340000,-0.120000,-0.340000,0.130000,-0.325355,0.165355,-0.290000,0.180000,0.010000,0.180000,0.010000,0.580000,0.024645,0.615355,0.060000,0.630000,0.280000,0.630000,0.315355,0.615355,0.315355,0.615355,$1*%
%AMFreePoly1*
4,1,17,0.665355,0.235355,0.680000,0.200000,0.680000,-1.250000,0.665355,-1.285355,0.630000,-1.300000,0.230000,-1.300000,0.194645,-1.285355,0.180000,-1.250000,0.180000,-0.250000,-0.620000,-0.250000,-0.655355,-0.235355,-0.670000,-0.200000,-0.670000,0.200000,-0.655355,0.235355,-0.620000,0.250000,0.630000,0.250000,0.665355,0.235355,0.665355,0.235355,$1*%
%AMFreePoly2*
4,1,17,0.655355,0.235355,0.670000,0.200000,0.670000,-0.200000,0.655355,-0.235355,0.620000,-0.250000,-0.180000,-0.250000,-0.180000,-1.250000,-0.194645,-1.285355,-0.230000,-1.300000,-0.630000,-1.300000,-0.665355,-1.285355,-0.680000,-1.250000,-0.680000,0.200000,-0.665355,0.235355,-0.630000,0.250000,0.620000,0.250000,0.655355,0.235355,0.655355,0.235355,$1*%
%AMFreePoly3*
4,1,17,-0.024645,0.615355,-0.010000,0.580000,-0.010000,0.180000,0.280000,0.180000,0.315355,0.165355,0.330000,0.130000,0.330000,-0.120000,0.315355,-0.155355,0.280000,-0.170000,-0.290000,-0.170000,-0.325355,-0.155355,-0.340000,-0.120000,-0.340000,0.580000,-0.325355,0.615355,-0.290000,0.630000,-0.060000,0.630000,-0.024645,0.615355,-0.024645,0.615355,$1*%
G04 Aperture macros list end*
%ADD10C,0.000000*%
%ADD11RoundRect,0.150000X-0.350000X0.150000X-0.350000X-0.150000X0.350000X-0.150000X0.350000X0.150000X0*%
%ADD12RoundRect,0.105000X-0.105000X0.245000X-0.105000X-0.245000X0.105000X-0.245000X0.105000X0.245000X0*%
%ADD13RoundRect,0.200000X0.275000X-0.200000X0.275000X0.200000X-0.275000X0.200000X-0.275000X-0.200000X0*%
%ADD14R,1.143000X1.092200*%
%ADD15RoundRect,0.250000X-0.250000X-0.475000X0.250000X-0.475000X0.250000X0.475000X-0.250000X0.475000X0*%
%ADD16RoundRect,0.200000X-0.275000X0.200000X-0.275000X-0.200000X0.275000X-0.200000X0.275000X0.200000X0*%
%ADD17RoundRect,0.200000X0.200000X0.275000X-0.200000X0.275000X-0.200000X-0.275000X0.200000X-0.275000X0*%
%ADD18RoundRect,0.218750X-0.218750X-0.256250X0.218750X-0.256250X0.218750X0.256250X-0.218750X0.256250X0*%
%ADD19RoundRect,0.100000X-0.100000X0.637500X-0.100000X-0.637500X0.100000X-0.637500X0.100000X0.637500X0*%
%ADD20RoundRect,0.140000X-0.140000X-0.170000X0.140000X-0.170000X0.140000X0.170000X-0.140000X0.170000X0*%
%ADD21RoundRect,0.250000X-0.650000X0.325000X-0.650000X-0.325000X0.650000X-0.325000X0.650000X0.325000X0*%
%ADD22RoundRect,0.150000X0.150000X0.350000X-0.150000X0.350000X-0.150000X-0.350000X0.150000X-0.350000X0*%
%ADD23RoundRect,0.105000X0.245000X0.105000X-0.245000X0.105000X-0.245000X-0.105000X0.245000X-0.105000X0*%
%ADD24RoundRect,0.225000X-0.250000X0.225000X-0.250000X-0.225000X0.250000X-0.225000X0.250000X0.225000X0*%
%ADD25RoundRect,0.225000X-0.225000X-0.250000X0.225000X-0.250000X0.225000X0.250000X-0.225000X0.250000X0*%
%ADD26RoundRect,0.140000X-0.170000X0.140000X-0.170000X-0.140000X0.170000X-0.140000X0.170000X0.140000X0*%
%ADD27RoundRect,0.150000X0.587500X0.150000X-0.587500X0.150000X-0.587500X-0.150000X0.587500X-0.150000X0*%
%ADD28RoundRect,0.218750X0.218750X0.256250X-0.218750X0.256250X-0.218750X-0.256250X0.218750X-0.256250X0*%
%ADD29RoundRect,0.150000X0.625000X-0.150000X0.625000X0.150000X-0.625000X0.150000X-0.625000X-0.150000X0*%
%ADD30RoundRect,0.250000X0.650000X-0.350000X0.650000X0.350000X-0.650000X0.350000X-0.650000X-0.350000X0*%
%ADD31RoundRect,0.200000X-0.200000X-0.275000X0.200000X-0.275000X0.200000X0.275000X-0.200000X0.275000X0*%
%ADD32RoundRect,0.135000X-0.185000X0.135000X-0.185000X-0.135000X0.185000X-0.135000X0.185000X0.135000X0*%
%ADD33R,1.100000X0.600000*%
%ADD34R,1.100000X0.550000*%
%ADD35R,1.500000X3.250000*%
%ADD36R,1.100000X0.500000*%
%ADD37RoundRect,0.140000X0.170000X-0.140000X0.170000X0.140000X-0.170000X0.140000X-0.170000X-0.140000X0*%
%ADD38R,2.000000X2.000000*%
%ADD39O,1.470000X0.280000*%
%ADD40RoundRect,0.218750X0.256250X-0.218750X0.256250X0.218750X-0.256250X0.218750X-0.256250X-0.218750X0*%
%ADD41R,0.299999X0.449999*%
%ADD42R,1.599999X1.000000*%
%ADD43RoundRect,0.140000X0.140000X0.170000X-0.140000X0.170000X-0.140000X-0.170000X0.140000X-0.170000X0*%
%ADD44RoundRect,0.150000X-0.150000X-0.625000X0.150000X-0.625000X0.150000X0.625000X-0.150000X0.625000X0*%
%ADD45RoundRect,0.250000X-0.350000X-0.650000X0.350000X-0.650000X0.350000X0.650000X-0.350000X0.650000X0*%
%ADD46RoundRect,0.250000X-0.312500X-0.625000X0.312500X-0.625000X0.312500X0.625000X-0.312500X0.625000X0*%
%ADD47R,1.200000X2.500000*%
%ADD48RoundRect,0.225000X0.250000X-0.225000X0.250000X0.225000X-0.250000X0.225000X-0.250000X-0.225000X0*%
%ADD49R,3.500000X2.950000*%
%ADD50RoundRect,0.250000X-0.475000X0.250000X-0.475000X-0.250000X0.475000X-0.250000X0.475000X0.250000X0*%
%ADD51R,0.300000X0.550000*%
%ADD52RoundRect,0.150000X0.512500X0.150000X-0.512500X0.150000X-0.512500X-0.150000X0.512500X-0.150000X0*%
%ADD53R,2.000000X1.020000*%
%ADD54R,1.230000X1.360000*%
%ADD55RoundRect,0.245000X0.245000X1.455000X-0.245000X1.455000X-0.245000X-1.455000X0.245000X-1.455000X0*%
%ADD56RoundRect,0.225000X0.225000X0.250000X-0.225000X0.250000X-0.225000X-0.250000X0.225000X-0.250000X0*%
%ADD57RoundRect,0.250000X0.250000X0.475000X-0.250000X0.475000X-0.250000X-0.475000X0.250000X-0.475000X0*%
%ADD58FreePoly0,90.000000*%
%ADD59R,0.250000X0.550000*%
%ADD60FreePoly1,90.000000*%
%ADD61R,1.000000X0.400000*%
%ADD62FreePoly2,90.000000*%
%ADD63FreePoly3,90.000000*%
%ADD64R,0.550000X0.250000*%
%ADD65RoundRect,0.150000X-0.150000X-0.350000X0.150000X-0.350000X0.150000X0.350000X-0.150000X0.350000X0*%
%ADD66RoundRect,0.105000X-0.245000X-0.105000X0.245000X-0.105000X0.245000X0.105000X-0.245000X0.105000X0*%
%ADD67RoundRect,0.100000X0.637500X0.100000X-0.637500X0.100000X-0.637500X-0.100000X0.637500X-0.100000X0*%
%ADD68R,1.500000X0.700000*%
%ADD69R,0.800000X1.000000*%
%ADD70RoundRect,0.218750X-0.256250X0.218750X-0.256250X-0.218750X0.256250X-0.218750X0.256250X0.218750X0*%
%ADD71R,3.200400X1.524000*%
%ADD72RoundRect,0.250000X-0.325000X-0.650000X0.325000X-0.650000X0.325000X0.650000X-0.325000X0.650000X0*%
%ADD73R,0.850000X1.100000*%
%ADD74R,0.750000X1.100000*%
%ADD75R,1.200000X1.000000*%
%ADD76R,1.550000X1.350000*%
%ADD77R,1.900000X1.350000*%
%ADD78R,1.170000X1.800000*%
%ADD79RoundRect,0.250000X-0.465000X-2.500000X0.465000X-2.500000X0.465000X2.500000X-0.465000X2.500000X0*%
%ADD80RoundRect,0.150000X0.150000X-0.587500X0.150000X0.587500X-0.150000X0.587500X-0.150000X-0.587500X0*%
%ADD81RoundRect,0.135000X0.185000X-0.135000X0.185000X0.135000X-0.185000X0.135000X-0.185000X-0.135000X0*%
%ADD82RoundRect,0.150000X-0.587500X-0.150000X0.587500X-0.150000X0.587500X0.150000X-0.587500X0.150000X0*%
%ADD83RoundRect,0.075000X0.075000X-0.662500X0.075000X0.662500X-0.075000X0.662500X-0.075000X-0.662500X0*%
%ADD84RoundRect,0.075000X0.662500X-0.075000X0.662500X0.075000X-0.662500X0.075000X-0.662500X-0.075000X0*%
%ADD85RoundRect,0.245000X-1.455000X0.245000X-1.455000X-0.245000X1.455000X-0.245000X1.455000X0.245000X0*%
%ADD86R,1.000000X1.800000*%
G04 APERTURE END LIST*
D10*
%TO.C,U3*%
G36*
X155583001Y-81699505D02*
G01*
X154117002Y-81699505D01*
X154117002Y-80750505D01*
X155583001Y-80750505D01*
X155583001Y-81699505D01*
G37*
%TD*%
D11*
%TO.C,Q9*%
X166847000Y-53170000D03*
X165717000Y-53170000D03*
X166847000Y-53880000D03*
X165717000Y-53880000D03*
D12*
X167257000Y-54650000D03*
X166607000Y-54650000D03*
X165957000Y-54650000D03*
X165307000Y-54650000D03*
X167257000Y-51650000D03*
X166607000Y-51650000D03*
X165957000Y-51650000D03*
X165307000Y-51650000D03*
%TD*%
D13*
%TO.C,R26*%
X162500000Y-86075000D03*
X162500000Y-84425000D03*
%TD*%
D14*
%TO.C,D4*%
X141663300Y-85500000D03*
X144736700Y-85500000D03*
%TD*%
D15*
%TO.C,C21*%
X142775000Y-87925000D03*
X144675000Y-87925000D03*
%TD*%
D16*
%TO.C,R27*%
X142400000Y-50660000D03*
X142400000Y-52310000D03*
%TD*%
D17*
%TO.C,R21*%
X140375000Y-80350000D03*
X138725000Y-80350000D03*
%TD*%
D18*
%TO.C,D6*%
X138950000Y-57100000D03*
X140525000Y-57100000D03*
%TD*%
D19*
%TO.C,U9*%
X143175000Y-42368750D03*
X142525000Y-42368750D03*
X141875000Y-42368750D03*
X141225000Y-42368750D03*
X140575000Y-42368750D03*
X139925000Y-42368750D03*
X139275000Y-42368750D03*
X138625000Y-42368750D03*
X138625000Y-48093750D03*
X139275000Y-48093750D03*
X139925000Y-48093750D03*
X140575000Y-48093750D03*
X141225000Y-48093750D03*
X141875000Y-48093750D03*
X142525000Y-48093750D03*
X143175000Y-48093750D03*
%TD*%
D20*
%TO.C,C7*%
X142850000Y-123550000D03*
X143810000Y-123550000D03*
%TD*%
D21*
%TO.C,C44*%
X164475000Y-61825000D03*
X164475000Y-64775000D03*
%TD*%
D22*
%TO.C,Q3*%
X154550000Y-88437500D03*
X154550000Y-87307500D03*
X153840000Y-88437500D03*
X153840000Y-87307500D03*
D23*
X153070000Y-88847500D03*
X153070000Y-88197500D03*
X153070000Y-87547500D03*
X153070000Y-86897500D03*
X156070000Y-88847500D03*
X156070000Y-88197500D03*
X156070000Y-87547500D03*
X156070000Y-86897500D03*
%TD*%
D24*
%TO.C,C22*%
X151200000Y-87850000D03*
X151200000Y-89400000D03*
%TD*%
D25*
%TO.C,C30*%
X154975000Y-55075000D03*
X156525000Y-55075000D03*
%TD*%
D19*
%TO.C,U11*%
X172800000Y-42368750D03*
X172150000Y-42368750D03*
X171500000Y-42368750D03*
X170850000Y-42368750D03*
X170200000Y-42368750D03*
X169550000Y-42368750D03*
X168900000Y-42368750D03*
X168250000Y-42368750D03*
X168250000Y-48093750D03*
X168900000Y-48093750D03*
X169550000Y-48093750D03*
X170200000Y-48093750D03*
X170850000Y-48093750D03*
X171500000Y-48093750D03*
X172150000Y-48093750D03*
X172800000Y-48093750D03*
%TD*%
D26*
%TO.C,C38*%
X140675000Y-73685000D03*
X140675000Y-74645000D03*
%TD*%
D27*
%TO.C,Q4*%
X160600000Y-86225000D03*
X160600000Y-84325000D03*
X158725000Y-85275000D03*
%TD*%
D28*
%TO.C,D9*%
X144375000Y-136825000D03*
X142800000Y-136825000D03*
%TD*%
D29*
%TO.C,J5*%
X140850000Y-120050000D03*
X140850000Y-119050000D03*
X140850000Y-118050000D03*
X140850000Y-117050000D03*
X140850000Y-116050000D03*
D30*
X138325000Y-121350000D03*
X138325000Y-114750000D03*
%TD*%
D31*
%TO.C,R14*%
X141450000Y-70350000D03*
X143100000Y-70350000D03*
%TD*%
D32*
%TO.C,R6*%
X164480000Y-131625000D03*
X164480000Y-132645000D03*
%TD*%
D28*
%TO.C,D8*%
X142775000Y-105200000D03*
X141200000Y-105200000D03*
%TD*%
%TO.C,D5*%
X140300000Y-78800000D03*
X138725000Y-78800000D03*
%TD*%
D31*
%TO.C,R38*%
X138150000Y-105200000D03*
X139800000Y-105200000D03*
%TD*%
D33*
%TO.C,U6*%
X146800000Y-86800000D03*
X146800000Y-87750000D03*
X146800000Y-88700000D03*
X149500000Y-88700000D03*
X149500000Y-87750000D03*
X149500000Y-86800000D03*
%TD*%
D34*
%TO.C,J7*%
X160350000Y-37025000D03*
D35*
X160350000Y-38925000D03*
D36*
X160350000Y-40800000D03*
D34*
X162350000Y-37025000D03*
D35*
X162350000Y-38925000D03*
D36*
X162350000Y-40800000D03*
D34*
X164350000Y-37025000D03*
D35*
X164350000Y-38925000D03*
D36*
X164350000Y-40800000D03*
%TD*%
D16*
%TO.C,R12*%
X171857000Y-74065000D03*
X171857000Y-75715000D03*
%TD*%
D13*
%TO.C,R36*%
X173557000Y-55477500D03*
X173557000Y-53827500D03*
%TD*%
D24*
%TO.C,C12*%
X154425000Y-72600000D03*
X154425000Y-74150000D03*
%TD*%
D32*
%TO.C,R43*%
X156250000Y-67475000D03*
X156250000Y-68495000D03*
%TD*%
D26*
%TO.C,C2*%
X158000000Y-116940000D03*
X158000000Y-117900000D03*
%TD*%
D25*
%TO.C,C26*%
X138825000Y-49868750D03*
X140375000Y-49868750D03*
%TD*%
D37*
%TO.C,C37*%
X142550000Y-133925000D03*
X142550000Y-132965000D03*
%TD*%
D38*
%TO.C,D3*%
X147000000Y-103225000D03*
X151400000Y-103225000D03*
%TD*%
D39*
%TO.C,U7*%
X154000000Y-109500000D03*
X154000000Y-109000000D03*
X154000000Y-108500000D03*
X154000000Y-108000000D03*
X154000000Y-107500000D03*
X149700000Y-107500000D03*
X149700000Y-108000000D03*
X149700000Y-108500000D03*
X149700000Y-109000000D03*
X149700000Y-109500000D03*
%TD*%
D40*
%TO.C,D2*%
X173400000Y-75675000D03*
X173400000Y-74100000D03*
%TD*%
D13*
%TO.C,R20*%
X157645000Y-88295000D03*
X157645000Y-86645000D03*
%TD*%
%TO.C,R24*%
X147900000Y-108650000D03*
X147900000Y-107000000D03*
%TD*%
%TO.C,R39*%
X141250000Y-133735000D03*
X141250000Y-132085000D03*
%TD*%
D41*
%TO.C,U3*%
X155500001Y-80250001D03*
X154850000Y-80250001D03*
X154200001Y-80250001D03*
X154200001Y-82199999D03*
X154850000Y-82199999D03*
X155500001Y-82199999D03*
D42*
X154850000Y-81225000D03*
%TD*%
D34*
%TO.C,J3*%
X147150000Y-37025000D03*
D35*
X147150000Y-38925000D03*
D36*
X147150000Y-40800000D03*
D34*
X149150000Y-37025000D03*
D35*
X149150000Y-38925000D03*
D36*
X149150000Y-40800000D03*
D34*
X151150000Y-37025000D03*
D35*
X151150000Y-38925000D03*
D36*
X151150000Y-40800000D03*
%TD*%
D32*
%TO.C,R3*%
X169715000Y-131580000D03*
X169715000Y-132600000D03*
%TD*%
D16*
%TO.C,R10*%
X143675000Y-64300000D03*
X143675000Y-65950000D03*
%TD*%
D25*
%TO.C,C32*%
X168450000Y-49868750D03*
X170000000Y-49868750D03*
%TD*%
D26*
%TO.C,C49*%
X157250000Y-67500000D03*
X157250000Y-68460000D03*
%TD*%
D43*
%TO.C,C11*%
X150600000Y-126700000D03*
X149640000Y-126700000D03*
%TD*%
D44*
%TO.C,J4*%
X142700000Y-140875000D03*
X143700000Y-140875000D03*
D45*
X141400000Y-144750000D03*
X145000000Y-144750000D03*
%TD*%
D24*
%TO.C,C15*%
X164300000Y-68300000D03*
X164300000Y-69850000D03*
%TD*%
D46*
%TO.C,R16*%
X145137500Y-94525000D03*
X148062500Y-94525000D03*
%TD*%
D16*
%TO.C,R31*%
X155850000Y-106000000D03*
X155850000Y-107650000D03*
%TD*%
D47*
%TO.C,SW4*%
X138500000Y-144425000D03*
X138500000Y-128825000D03*
%TD*%
D48*
%TO.C,C47*%
X152600000Y-62110000D03*
X152600000Y-60560000D03*
%TD*%
D16*
%TO.C,R33*%
X169057000Y-51712500D03*
X169057000Y-53362500D03*
%TD*%
D21*
%TO.C,C45*%
X145521200Y-67825000D03*
X145521200Y-70775000D03*
%TD*%
D49*
%TO.C,L4*%
X156400000Y-96900000D03*
X156400000Y-102350000D03*
%TD*%
D22*
%TO.C,Q8*%
X169510000Y-39235000D03*
X169510000Y-38105000D03*
X168800000Y-39235000D03*
X168800000Y-38105000D03*
D23*
X168030000Y-39645000D03*
X168030000Y-38995000D03*
X168030000Y-38345000D03*
X168030000Y-37695000D03*
X171030000Y-39645000D03*
X171030000Y-38995000D03*
X171030000Y-38345000D03*
X171030000Y-37695000D03*
%TD*%
D50*
%TO.C,C25*%
X144800000Y-102825000D03*
X144800000Y-104725000D03*
%TD*%
D51*
%TO.C,U10*%
X139575000Y-73335000D03*
X138925000Y-73335000D03*
X138275000Y-73335000D03*
X138275000Y-75085000D03*
X138925000Y-75085000D03*
X139575000Y-75085000D03*
%TD*%
D17*
%TO.C,R29*%
X143606000Y-57400000D03*
X141956000Y-57400000D03*
%TD*%
D52*
%TO.C,U8*%
X151800000Y-100625000D03*
X151800000Y-99675000D03*
X151800000Y-98725000D03*
X149525000Y-98725000D03*
X149525000Y-100625000D03*
%TD*%
D16*
%TO.C,R40*%
X141250000Y-135100000D03*
X141250000Y-136750000D03*
%TD*%
D47*
%TO.C,SW3*%
X138500000Y-87275000D03*
X138500000Y-102875000D03*
%TD*%
D37*
%TO.C,C31*%
X154076400Y-60810000D03*
X154076400Y-59850000D03*
%TD*%
D46*
%TO.C,R18*%
X145137500Y-96925000D03*
X148062500Y-96925000D03*
%TD*%
D32*
%TO.C,R42*%
X154075000Y-67475000D03*
X154075000Y-68495000D03*
%TD*%
D43*
%TO.C,C4*%
X153705000Y-125600000D03*
X152745000Y-125600000D03*
%TD*%
D53*
%TO.C,J1*%
X167100000Y-79970000D03*
X172700000Y-79970000D03*
X167100000Y-82510000D03*
X172700000Y-82510000D03*
X167100000Y-85050000D03*
X172700000Y-85050000D03*
X167100000Y-87590000D03*
X172700000Y-87590000D03*
X167100000Y-90130000D03*
X172700000Y-90130000D03*
X167100000Y-92670000D03*
X172700000Y-92670000D03*
X167100000Y-95210000D03*
X172700000Y-95210000D03*
X167100000Y-97750000D03*
X172700000Y-97750000D03*
X167100000Y-100290000D03*
X172700000Y-100290000D03*
X167100000Y-102830000D03*
X172700000Y-102830000D03*
X167100000Y-105370000D03*
X172700000Y-105370000D03*
X167100000Y-107910000D03*
X172700000Y-107910000D03*
X167100000Y-110450000D03*
X172700000Y-110450000D03*
X167100000Y-112990000D03*
X172700000Y-112990000D03*
X167100000Y-115530000D03*
X172700000Y-115530000D03*
X167100000Y-118070000D03*
X172700000Y-118070000D03*
X167100000Y-120610000D03*
X172700000Y-120610000D03*
X167100000Y-123150000D03*
X172700000Y-123150000D03*
X167100000Y-125690000D03*
X172700000Y-125690000D03*
X167100000Y-128230000D03*
X172700000Y-128230000D03*
%TD*%
D15*
%TO.C,C23*%
X149750000Y-96825000D03*
X151650000Y-96825000D03*
%TD*%
D54*
%TO.C,SW1*%
X137500000Y-124950000D03*
X141860000Y-124950000D03*
%TD*%
D55*
%TO.C,L3*%
X149400000Y-83200000D03*
X147030000Y-83200000D03*
%TD*%
D32*
%TO.C,R5*%
X152700000Y-112790000D03*
X152700000Y-113810000D03*
%TD*%
D56*
%TO.C,C5*%
X154045000Y-126900000D03*
X152495000Y-126900000D03*
%TD*%
D16*
%TO.C,R13*%
X155000000Y-39775000D03*
X155000000Y-41425000D03*
%TD*%
D32*
%TO.C,R4*%
X151700000Y-112790000D03*
X151700000Y-113810000D03*
%TD*%
D57*
%TO.C,C28*%
X147800000Y-47900000D03*
X145900000Y-47900000D03*
%TD*%
D48*
%TO.C,C51*%
X152600000Y-65810000D03*
X152600000Y-64260000D03*
%TD*%
D58*
%TO.C,U12*%
X154330000Y-64750000D03*
D59*
X154830000Y-64760000D03*
D60*
X155400000Y-64420000D03*
D61*
X155450000Y-63340000D03*
D62*
X155400000Y-62260000D03*
D59*
X154830000Y-61920000D03*
D63*
X154330000Y-61920000D03*
D64*
X154030000Y-62590000D03*
X154030000Y-63090000D03*
X154030000Y-63590000D03*
X154030000Y-64090000D03*
%TD*%
D65*
%TO.C,Q1*%
X142320000Y-61085000D03*
X142320000Y-62215000D03*
X143030000Y-61085000D03*
X143030000Y-62215000D03*
D66*
X143800000Y-60675000D03*
X143800000Y-61325000D03*
X143800000Y-61975000D03*
X143800000Y-62625000D03*
X140800000Y-60675000D03*
X140800000Y-61325000D03*
X140800000Y-61975000D03*
X140800000Y-62625000D03*
%TD*%
D67*
%TO.C,U2*%
X162025000Y-76400000D03*
X162025000Y-75750000D03*
X162025000Y-75100000D03*
X162025000Y-74450000D03*
X162025000Y-73800000D03*
X162025000Y-73150000D03*
X162025000Y-72500000D03*
X162025000Y-71850000D03*
X156300000Y-71850000D03*
X156300000Y-72500000D03*
X156300000Y-73150000D03*
X156300000Y-73800000D03*
X156300000Y-74450000D03*
X156300000Y-75100000D03*
X156300000Y-75750000D03*
X156300000Y-76400000D03*
%TD*%
D28*
%TO.C,D12*%
X158075000Y-42875000D03*
X156500000Y-42875000D03*
%TD*%
D16*
%TO.C,R30*%
X137925000Y-52775000D03*
X137925000Y-54425000D03*
%TD*%
D44*
%TO.C,J6*%
X148600000Y-140900000D03*
X149600000Y-140900000D03*
X150600000Y-140900000D03*
X151600000Y-140900000D03*
D45*
X147300000Y-144775000D03*
X152900000Y-144775000D03*
%TD*%
D11*
%TO.C,Q6*%
X145765000Y-52370000D03*
X144635000Y-52370000D03*
X145765000Y-53080000D03*
X144635000Y-53080000D03*
D12*
X146175000Y-53850000D03*
X145525000Y-53850000D03*
X144875000Y-53850000D03*
X144225000Y-53850000D03*
X146175000Y-50850000D03*
X145525000Y-50850000D03*
X144875000Y-50850000D03*
X144225000Y-50850000D03*
%TD*%
D68*
%TO.C,SW2*%
X141800000Y-108750000D03*
X141800000Y-109750000D03*
X141800000Y-110750000D03*
D69*
X141100000Y-107000000D03*
X138900000Y-107000000D03*
X141100000Y-112500000D03*
X138900000Y-112500000D03*
%TD*%
D31*
%TO.C,R22*%
X143350000Y-90400000D03*
X145000000Y-90400000D03*
%TD*%
D25*
%TO.C,C20*%
X152600000Y-105900000D03*
X154150000Y-105900000D03*
%TD*%
D28*
%TO.C,D7*%
X172658000Y-58219000D03*
X171083000Y-58219000D03*
%TD*%
D70*
%TO.C,D1*%
X174050000Y-130725000D03*
X174050000Y-132300000D03*
%TD*%
D16*
%TO.C,R8*%
X172475000Y-130675000D03*
X172475000Y-132325000D03*
%TD*%
D17*
%TO.C,R17*%
X151100000Y-105900000D03*
X149450000Y-105900000D03*
%TD*%
D25*
%TO.C,C35*%
X163729000Y-46100000D03*
X165279000Y-46100000D03*
%TD*%
D71*
%TO.C,D11*%
X159300000Y-53634200D03*
X159300000Y-47024200D03*
%TD*%
D20*
%TO.C,C10*%
X147740000Y-126700000D03*
X148700000Y-126700000D03*
%TD*%
D24*
%TO.C,C33*%
X157745000Y-62535000D03*
X157745000Y-64085000D03*
%TD*%
D18*
%TO.C,D13*%
X153425000Y-42875000D03*
X155000000Y-42875000D03*
%TD*%
D26*
%TO.C,C48*%
X155250000Y-67500000D03*
X155250000Y-68460000D03*
%TD*%
D56*
%TO.C,C29*%
X147844000Y-46100000D03*
X146294000Y-46100000D03*
%TD*%
D50*
%TO.C,C13*%
X157150000Y-79650000D03*
X157150000Y-81550000D03*
%TD*%
D16*
%TO.C,R11*%
X156500000Y-39775000D03*
X156500000Y-41425000D03*
%TD*%
D20*
%TO.C,C3*%
X149240000Y-114100000D03*
X150200000Y-114100000D03*
%TD*%
D31*
%TO.C,R23*%
X155175000Y-85050000D03*
X156825000Y-85050000D03*
%TD*%
D21*
%TO.C,C39*%
X166850000Y-61825000D03*
X166850000Y-64775000D03*
%TD*%
%TO.C,C41*%
X171600000Y-61825000D03*
X171600000Y-64775000D03*
%TD*%
D71*
%TO.C,D10*%
X152200000Y-53614600D03*
X152200000Y-47004600D03*
%TD*%
D37*
%TO.C,C6*%
X146500000Y-122960000D03*
X146500000Y-122000000D03*
%TD*%
D72*
%TO.C,C27*%
X154325000Y-57075000D03*
X157275000Y-57075000D03*
%TD*%
D67*
%TO.C,U4*%
X171825000Y-72600000D03*
X171825000Y-71950000D03*
X171825000Y-71300000D03*
X171825000Y-70650000D03*
X171825000Y-70000000D03*
X171825000Y-69350000D03*
X171825000Y-68700000D03*
X171825000Y-68050000D03*
X166100000Y-68050000D03*
X166100000Y-68700000D03*
X166100000Y-69350000D03*
X166100000Y-70000000D03*
X166100000Y-70650000D03*
X166100000Y-71300000D03*
X166100000Y-71950000D03*
X166100000Y-72600000D03*
%TD*%
D31*
%TO.C,R25*%
X146450000Y-90400000D03*
X148100000Y-90400000D03*
%TD*%
D73*
%TO.C,J2*%
X171090000Y-145125000D03*
X169990000Y-145125000D03*
X168890000Y-145125000D03*
X167790000Y-145125000D03*
X166690000Y-145125000D03*
X165590000Y-145125000D03*
X164490000Y-145125000D03*
D74*
X163440000Y-145125000D03*
D75*
X173725000Y-138975000D03*
X173725000Y-135275000D03*
D76*
X173550000Y-145000000D03*
D77*
X170225000Y-134300000D03*
X164255000Y-134300000D03*
D78*
X162230000Y-144775000D03*
%TD*%
D32*
%TO.C,R32*%
X138275000Y-71030000D03*
X138275000Y-72050000D03*
%TD*%
D31*
%TO.C,R34*%
X164657000Y-56150000D03*
X166307000Y-56150000D03*
%TD*%
D21*
%TO.C,C43*%
X162100000Y-61825000D03*
X162100000Y-64775000D03*
%TD*%
D79*
%TO.C,L5*%
X146080000Y-63260000D03*
X150120000Y-63260000D03*
%TD*%
D56*
%TO.C,C24*%
X152450000Y-111100000D03*
X150900000Y-111100000D03*
%TD*%
D15*
%TO.C,C34*%
X163773000Y-47900000D03*
X165673000Y-47900000D03*
%TD*%
D20*
%TO.C,C36*%
X143450000Y-107045000D03*
X144410000Y-107045000D03*
%TD*%
D32*
%TO.C,R1*%
X170750000Y-131590000D03*
X170750000Y-132610000D03*
%TD*%
D80*
%TO.C,Q2*%
X141350000Y-68525000D03*
X143250000Y-68525000D03*
X142300000Y-66650000D03*
%TD*%
D21*
%TO.C,C40*%
X169225000Y-61825000D03*
X169225000Y-64775000D03*
%TD*%
D31*
%TO.C,R35*%
X168020000Y-58219000D03*
X169670000Y-58219000D03*
%TD*%
D32*
%TO.C,R7*%
X163455000Y-131625000D03*
X163455000Y-132645000D03*
%TD*%
D50*
%TO.C,C14*%
X152550000Y-79650000D03*
X152550000Y-81550000D03*
%TD*%
D81*
%TO.C,R41*%
X153075000Y-68495000D03*
X153075000Y-67475000D03*
%TD*%
D31*
%TO.C,R9*%
X140525000Y-64400000D03*
X142175000Y-64400000D03*
%TD*%
D82*
%TO.C,Q7*%
X139775000Y-52650000D03*
X139775000Y-54550000D03*
X141650000Y-53600000D03*
%TD*%
D17*
%TO.C,R28*%
X146950000Y-55350000D03*
X145300000Y-55350000D03*
%TD*%
D21*
%TO.C,C42*%
X159725000Y-61825000D03*
X159725000Y-64775000D03*
%TD*%
D83*
%TO.C,U1*%
X149500000Y-124025000D03*
X150000000Y-124025000D03*
X150500000Y-124025000D03*
X151000000Y-124025000D03*
X151500000Y-124025000D03*
X152000000Y-124025000D03*
X152500000Y-124025000D03*
X153000000Y-124025000D03*
X153500000Y-124025000D03*
X154000000Y-124025000D03*
X154500000Y-124025000D03*
X155000000Y-124025000D03*
D84*
X156412500Y-122612500D03*
X156412500Y-122112500D03*
X156412500Y-121612500D03*
X156412500Y-121112500D03*
X156412500Y-120612500D03*
X156412500Y-120112500D03*
X156412500Y-119612500D03*
X156412500Y-119112500D03*
X156412500Y-118612500D03*
X156412500Y-118112500D03*
X156412500Y-117612500D03*
X156412500Y-117112500D03*
D83*
X155000000Y-115700000D03*
X154500000Y-115700000D03*
X154000000Y-115700000D03*
X153500000Y-115700000D03*
X153000000Y-115700000D03*
X152500000Y-115700000D03*
X152000000Y-115700000D03*
X151500000Y-115700000D03*
X151000000Y-115700000D03*
X150500000Y-115700000D03*
X150000000Y-115700000D03*
X149500000Y-115700000D03*
D84*
X148087500Y-117112500D03*
X148087500Y-117612500D03*
X148087500Y-118112500D03*
X148087500Y-118612500D03*
X148087500Y-119112500D03*
X148087500Y-119612500D03*
X148087500Y-120112500D03*
X148087500Y-120612500D03*
X148087500Y-121112500D03*
X148087500Y-121612500D03*
X148087500Y-122112500D03*
X148087500Y-122612500D03*
%TD*%
D21*
%TO.C,C46*%
X147878800Y-67825000D03*
X147878800Y-70775000D03*
%TD*%
D32*
%TO.C,R2*%
X143850000Y-111790000D03*
X143850000Y-112810000D03*
%TD*%
D85*
%TO.C,L1*%
X160650000Y-78530000D03*
X160650000Y-80900000D03*
%TD*%
D24*
%TO.C,C1*%
X159300000Y-116600000D03*
X159300000Y-118150000D03*
%TD*%
D17*
%TO.C,R19*%
X151300000Y-91900000D03*
X149650000Y-91900000D03*
%TD*%
D86*
%TO.C,Y1*%
X150410000Y-128300000D03*
X147910000Y-128300000D03*
%TD*%
D27*
%TO.C,Q10*%
X171719500Y-55602500D03*
X171719500Y-53702500D03*
X169844500Y-54652500D03*
%TD*%
D31*
%TO.C,R37*%
X139925000Y-103350000D03*
X141575000Y-103350000D03*
%TD*%
D65*
%TO.C,Q5*%
X141970000Y-38085000D03*
X141970000Y-39215000D03*
X142680000Y-38085000D03*
X142680000Y-39215000D03*
D66*
X143450000Y-37675000D03*
X143450000Y-38325000D03*
X143450000Y-38975000D03*
X143450000Y-39625000D03*
X140450000Y-37675000D03*
X140450000Y-38325000D03*
X140450000Y-38975000D03*
X140450000Y-39625000D03*
%TD*%
M02*
