%TF.GenerationSoftware,KiCad,Pcbnew,9.0.4*%
%TF.CreationDate,2025-09-02T14:54:46+01:00*%
%TF.ProjectId,lab_in_a_can,6c61625f-696e-45f6-915f-63616e2e6b69,rev?*%
%TF.SameCoordinates,Original*%
%TF.FileFunction,Legend,Bot*%
%TF.FilePolarity,Positive*%
%FSLAX46Y46*%
G04 Gerber Fmt 4.6, Leading zero omitted, Abs format (unit mm)*
G04 Created by KiCad (PCBNEW 9.0.4) date 2025-09-02 14:54:46*
%MOMM*%
%LPD*%
G01*
G04 APERTURE LIST*
%ADD10C,0.150000*%
%ADD11C,0.127000*%
%ADD12C,0.120000*%
G04 APERTURE END LIST*
D10*
G36*
X141317856Y-141414164D02*
G01*
X141226455Y-141414164D01*
X141147655Y-141387897D01*
X141097351Y-141337593D01*
X141070763Y-141284416D01*
X141039285Y-141158501D01*
X141039285Y-141069825D01*
X141070763Y-140943910D01*
X141097352Y-140890734D01*
X141147655Y-140840430D01*
X141226455Y-140814164D01*
X141317856Y-140814164D01*
X141317856Y-141414164D01*
G37*
G36*
X146675000Y-141414164D02*
G01*
X146481991Y-141414164D01*
X146437284Y-141391811D01*
X146418782Y-141373308D01*
X146396429Y-141328602D01*
X146396429Y-141256868D01*
X146418781Y-141212162D01*
X146433370Y-141197573D01*
X146512170Y-141171307D01*
X146675000Y-141171307D01*
X146675000Y-141414164D01*
G37*
G36*
X146675000Y-141021307D02*
G01*
X146517706Y-141021307D01*
X146472997Y-140998952D01*
X146454495Y-140980450D01*
X146432143Y-140935745D01*
X146432143Y-140899725D01*
X146454495Y-140855020D01*
X146472998Y-140836517D01*
X146517705Y-140814164D01*
X146675000Y-140814164D01*
X146675000Y-141021307D01*
G37*
G36*
X145931658Y-141199878D02*
G01*
X145782628Y-141199878D01*
X145857143Y-140976334D01*
X145931658Y-141199878D01*
G37*
G36*
X146908333Y-141647497D02*
G01*
X140805952Y-141647497D01*
X140805952Y-141060592D01*
X140889285Y-141060592D01*
X140889285Y-141167735D01*
X140889536Y-141170288D01*
X140889374Y-141171380D01*
X140890182Y-141176852D01*
X140890726Y-141182367D01*
X140891149Y-141183388D01*
X140891524Y-141185925D01*
X140927238Y-141328782D01*
X140927623Y-141329861D01*
X140927662Y-141330401D01*
X140929989Y-141336482D01*
X140932185Y-141342628D01*
X140932507Y-141343063D01*
X140932917Y-141344133D01*
X140968631Y-141415562D01*
X140972595Y-141421861D01*
X140973353Y-141423689D01*
X140975041Y-141425745D01*
X140976463Y-141428005D01*
X140977961Y-141429304D01*
X140982680Y-141435054D01*
X141054109Y-141506483D01*
X141065474Y-141515811D01*
X141067966Y-141516843D01*
X141070000Y-141518607D01*
X141083425Y-141524601D01*
X141190569Y-141560315D01*
X141197820Y-141561964D01*
X141199653Y-141562723D01*
X141202308Y-141562984D01*
X141204905Y-141563575D01*
X141206879Y-141563434D01*
X141214285Y-141564164D01*
X141392856Y-141564164D01*
X141407488Y-141562723D01*
X141434524Y-141551524D01*
X141455216Y-141530832D01*
X141466415Y-141503796D01*
X141467856Y-141489164D01*
X141467856Y-140739164D01*
X141674999Y-140739164D01*
X141674999Y-141489164D01*
X141675369Y-141492927D01*
X141675182Y-141494403D01*
X141675703Y-141496313D01*
X141676440Y-141503796D01*
X141680257Y-141513011D01*
X141682882Y-141522635D01*
X141685809Y-141526415D01*
X141687639Y-141530832D01*
X141694689Y-141537882D01*
X141700799Y-141545772D01*
X141704952Y-141548145D01*
X141708331Y-141551524D01*
X141717543Y-141555340D01*
X141726208Y-141560291D01*
X141730951Y-141560893D01*
X141735367Y-141562723D01*
X141745341Y-141562723D01*
X141755238Y-141563981D01*
X141759850Y-141562723D01*
X141764631Y-141562723D01*
X141773846Y-141558905D01*
X141783470Y-141556281D01*
X141787250Y-141553353D01*
X141791667Y-141551524D01*
X141798717Y-141544473D01*
X141806607Y-141538364D01*
X141810959Y-141532231D01*
X141812359Y-141530832D01*
X141812928Y-141529457D01*
X141815117Y-141526374D01*
X142103570Y-141021580D01*
X142103570Y-141489164D01*
X142105011Y-141503796D01*
X142116210Y-141530832D01*
X142136902Y-141551524D01*
X142163938Y-141562723D01*
X142193202Y-141562723D01*
X142220238Y-141551524D01*
X142240930Y-141530832D01*
X142252129Y-141503796D01*
X142253570Y-141489164D01*
X142253570Y-141167735D01*
X142424999Y-141167735D01*
X142424999Y-141417735D01*
X142426440Y-141432367D01*
X142431288Y-141444070D01*
X142437638Y-141459402D01*
X142446965Y-141470767D01*
X142482679Y-141506482D01*
X142494044Y-141515810D01*
X142496536Y-141516842D01*
X142498571Y-141518607D01*
X142511996Y-141524601D01*
X142619140Y-141560315D01*
X142626391Y-141561964D01*
X142628224Y-141562723D01*
X142630879Y-141562984D01*
X142633476Y-141563575D01*
X142635450Y-141563434D01*
X142642856Y-141564164D01*
X142714284Y-141564164D01*
X142721689Y-141563434D01*
X142723664Y-141563575D01*
X142726261Y-141562984D01*
X142728916Y-141562723D01*
X142730747Y-141561964D01*
X142738001Y-141560315D01*
X142845144Y-141524601D01*
X142858570Y-141518607D01*
X142860606Y-141516840D01*
X142863095Y-141515810D01*
X142874460Y-141506483D01*
X142906411Y-141474532D01*
X143747869Y-141474532D01*
X143747869Y-141503796D01*
X143759068Y-141530832D01*
X143779760Y-141551524D01*
X143806796Y-141562723D01*
X143821428Y-141564164D01*
X144249999Y-141564164D01*
X144264631Y-141562723D01*
X144291667Y-141551524D01*
X144312359Y-141530832D01*
X144323558Y-141503796D01*
X144323558Y-141474532D01*
X144312359Y-141447496D01*
X144291667Y-141426804D01*
X144264631Y-141415605D01*
X144249999Y-141414164D01*
X144110714Y-141414164D01*
X144110714Y-140955944D01*
X144125538Y-140970768D01*
X144131287Y-140975486D01*
X144132586Y-140976984D01*
X144134844Y-140978405D01*
X144136904Y-140980096D01*
X144138732Y-140980853D01*
X144145029Y-140984817D01*
X144216457Y-141020531D01*
X144230189Y-141025786D01*
X144259379Y-141027861D01*
X144287140Y-141018607D01*
X144309248Y-140999434D01*
X144322335Y-140973260D01*
X144324410Y-140944070D01*
X144315156Y-140916309D01*
X144295983Y-140894201D01*
X144283540Y-140886368D01*
X144222997Y-140856095D01*
X144165427Y-140798526D01*
X144116098Y-140724532D01*
X144390727Y-140724532D01*
X144390727Y-140753796D01*
X144401926Y-140780832D01*
X144422618Y-140801524D01*
X144449654Y-140812723D01*
X144464286Y-140814164D01*
X144603571Y-140814164D01*
X144603571Y-141489164D01*
X144605012Y-141503796D01*
X144616211Y-141530832D01*
X144636903Y-141551524D01*
X144663939Y-141562723D01*
X144693203Y-141562723D01*
X144720239Y-141551524D01*
X144740931Y-141530832D01*
X144752130Y-141503796D01*
X144753571Y-141489164D01*
X144753571Y-140814164D01*
X144892857Y-140814164D01*
X144907489Y-140812723D01*
X144934525Y-140801524D01*
X144955217Y-140780832D01*
X144964286Y-140758938D01*
X144973355Y-140780832D01*
X144994047Y-140801524D01*
X145021083Y-140812723D01*
X145035715Y-140814164D01*
X145175000Y-140814164D01*
X145175000Y-141489164D01*
X145176441Y-141503796D01*
X145187640Y-141530832D01*
X145208332Y-141551524D01*
X145235368Y-141562723D01*
X145264632Y-141562723D01*
X145291668Y-141551524D01*
X145312360Y-141530832D01*
X145323559Y-141503796D01*
X145325000Y-141489164D01*
X145325000Y-141479784D01*
X145532732Y-141479784D01*
X145534807Y-141508974D01*
X145547893Y-141535147D01*
X145570000Y-141554321D01*
X145597763Y-141563575D01*
X145626953Y-141561500D01*
X145653126Y-141548414D01*
X145672300Y-141526307D01*
X145678294Y-141512881D01*
X145732628Y-141349878D01*
X145981658Y-141349878D01*
X146035992Y-141512881D01*
X146041986Y-141526306D01*
X146061160Y-141548413D01*
X146087333Y-141561500D01*
X146116523Y-141563575D01*
X146144285Y-141554321D01*
X146166393Y-141535147D01*
X146179479Y-141508973D01*
X146181554Y-141479783D01*
X146178294Y-141465447D01*
X146102866Y-141239164D01*
X146246429Y-141239164D01*
X146246429Y-141346307D01*
X146247870Y-141360939D01*
X146248901Y-141363428D01*
X146249092Y-141366116D01*
X146254347Y-141379848D01*
X146290061Y-141451276D01*
X146294024Y-141457572D01*
X146294782Y-141459402D01*
X146296471Y-141461460D01*
X146297893Y-141463719D01*
X146299391Y-141465018D01*
X146304109Y-141470767D01*
X146339823Y-141506482D01*
X146345574Y-141511202D01*
X146346873Y-141512700D01*
X146349128Y-141514119D01*
X146351188Y-141515810D01*
X146353018Y-141516568D01*
X146359316Y-141520532D01*
X146430746Y-141556246D01*
X146444477Y-141561501D01*
X146447164Y-141561691D01*
X146449654Y-141562723D01*
X146464286Y-141564164D01*
X146750000Y-141564164D01*
X146764632Y-141562723D01*
X146791668Y-141551524D01*
X146812360Y-141530832D01*
X146823559Y-141503796D01*
X146825000Y-141489164D01*
X146825000Y-140739164D01*
X146823559Y-140724532D01*
X146812360Y-140697496D01*
X146791668Y-140676804D01*
X146764632Y-140665605D01*
X146750000Y-140664164D01*
X146500000Y-140664164D01*
X146485368Y-140665605D01*
X146482878Y-140666636D01*
X146480191Y-140666827D01*
X146466459Y-140672082D01*
X146395031Y-140707796D01*
X146388734Y-140711759D01*
X146386905Y-140712517D01*
X146384846Y-140714206D01*
X146382588Y-140715628D01*
X146381288Y-140717126D01*
X146375540Y-140721844D01*
X146339825Y-140757558D01*
X146335104Y-140763309D01*
X146333607Y-140764608D01*
X146332187Y-140766863D01*
X146330497Y-140768923D01*
X146329738Y-140770753D01*
X146325775Y-140777051D01*
X146290061Y-140848480D01*
X146284806Y-140862212D01*
X146284615Y-140864899D01*
X146283584Y-140867389D01*
X146282143Y-140882021D01*
X146282143Y-140953450D01*
X146283584Y-140968082D01*
X146284615Y-140970571D01*
X146284806Y-140973259D01*
X146290061Y-140986991D01*
X146325775Y-141058419D01*
X146329738Y-141064716D01*
X146330497Y-141066547D01*
X146332187Y-141068606D01*
X146333607Y-141070862D01*
X146335104Y-141072160D01*
X146339825Y-141077912D01*
X146340415Y-141078502D01*
X146339824Y-141078988D01*
X146304110Y-141114702D01*
X146299391Y-141120451D01*
X146297893Y-141121751D01*
X146296471Y-141124010D01*
X146294783Y-141126067D01*
X146294025Y-141127894D01*
X146290061Y-141134194D01*
X146254347Y-141205623D01*
X146249092Y-141219355D01*
X146248901Y-141222042D01*
X146247870Y-141224532D01*
X146246429Y-141239164D01*
X146102866Y-141239164D01*
X145928294Y-140715447D01*
X145922300Y-140702021D01*
X145918788Y-140697972D01*
X145916393Y-140693181D01*
X145909289Y-140687019D01*
X145903126Y-140679914D01*
X145898332Y-140677517D01*
X145894285Y-140674007D01*
X145885363Y-140671033D01*
X145876953Y-140666828D01*
X145871608Y-140666448D01*
X145866523Y-140664753D01*
X145857143Y-140665419D01*
X145847763Y-140664753D01*
X145842677Y-140666448D01*
X145837333Y-140666828D01*
X145828925Y-140671032D01*
X145820000Y-140674007D01*
X145815949Y-140677520D01*
X145811160Y-140679915D01*
X145805001Y-140687015D01*
X145797893Y-140693181D01*
X145795496Y-140697974D01*
X145791986Y-140702022D01*
X145785992Y-140715447D01*
X145535992Y-141465447D01*
X145532732Y-141479784D01*
X145325000Y-141479784D01*
X145325000Y-140814164D01*
X145464286Y-140814164D01*
X145478918Y-140812723D01*
X145505954Y-140801524D01*
X145526646Y-140780832D01*
X145537845Y-140753796D01*
X145537845Y-140724532D01*
X145526646Y-140697496D01*
X145505954Y-140676804D01*
X145478918Y-140665605D01*
X145464286Y-140664164D01*
X145035715Y-140664164D01*
X145021083Y-140665605D01*
X144994047Y-140676804D01*
X144973355Y-140697496D01*
X144964286Y-140719389D01*
X144955217Y-140697496D01*
X144934525Y-140676804D01*
X144907489Y-140665605D01*
X144892857Y-140664164D01*
X144464286Y-140664164D01*
X144449654Y-140665605D01*
X144422618Y-140676804D01*
X144401926Y-140697496D01*
X144390727Y-140724532D01*
X144116098Y-140724532D01*
X144098118Y-140697562D01*
X144098084Y-140697520D01*
X144098074Y-140697496D01*
X144098018Y-140697440D01*
X144088803Y-140686186D01*
X144082630Y-140682052D01*
X144077382Y-140676804D01*
X144070594Y-140673992D01*
X144064488Y-140669903D01*
X144057206Y-140668446D01*
X144050346Y-140665605D01*
X144042998Y-140665605D01*
X144035793Y-140664164D01*
X144028509Y-140665605D01*
X144021082Y-140665605D01*
X144014292Y-140668417D01*
X144007086Y-140669843D01*
X144000906Y-140673962D01*
X143994046Y-140676804D01*
X143988851Y-140681998D01*
X143982736Y-140686075D01*
X143978602Y-140692247D01*
X143973354Y-140697496D01*
X143970542Y-140704283D01*
X143966453Y-140710390D01*
X143964996Y-140717671D01*
X143962155Y-140724532D01*
X143960729Y-140739008D01*
X143960714Y-140739085D01*
X143960719Y-140739111D01*
X143960714Y-140739164D01*
X143960714Y-141414164D01*
X143821428Y-141414164D01*
X143806796Y-141415605D01*
X143779760Y-141426804D01*
X143759068Y-141447496D01*
X143747869Y-141474532D01*
X142906411Y-141474532D01*
X142945889Y-141435054D01*
X142950609Y-141429303D01*
X142952106Y-141428005D01*
X142953525Y-141425750D01*
X142955217Y-141423689D01*
X142955975Y-141421856D01*
X142959938Y-141415562D01*
X142995652Y-141344132D01*
X142996060Y-141343064D01*
X142996384Y-141342628D01*
X142998582Y-141336476D01*
X143000907Y-141330401D01*
X143000945Y-141329861D01*
X143001331Y-141328782D01*
X143037045Y-141185925D01*
X143037420Y-141183387D01*
X143037843Y-141182367D01*
X143038384Y-141176864D01*
X143039196Y-141171380D01*
X143039032Y-141170284D01*
X143039284Y-141167735D01*
X143039284Y-141060592D01*
X143039032Y-141058042D01*
X143039196Y-141056947D01*
X143038384Y-141051462D01*
X143037843Y-141045960D01*
X143037420Y-141044939D01*
X143037045Y-141042402D01*
X143001331Y-140899545D01*
X143000945Y-140898465D01*
X143000907Y-140897926D01*
X142998579Y-140891844D01*
X142996384Y-140885699D01*
X142996061Y-140885263D01*
X142995652Y-140884194D01*
X142959938Y-140812766D01*
X142955975Y-140806471D01*
X142955217Y-140804639D01*
X142953525Y-140802577D01*
X142952106Y-140800323D01*
X142950609Y-140799024D01*
X142945889Y-140793274D01*
X142874460Y-140721845D01*
X142863095Y-140712518D01*
X142860606Y-140711487D01*
X142858570Y-140709721D01*
X142845144Y-140703727D01*
X142738001Y-140668013D01*
X142730747Y-140666363D01*
X142728916Y-140665605D01*
X142726261Y-140665343D01*
X142723664Y-140664753D01*
X142721689Y-140664893D01*
X142714284Y-140664164D01*
X142607142Y-140664164D01*
X142592510Y-140665605D01*
X142590020Y-140666636D01*
X142587333Y-140666827D01*
X142573602Y-140672082D01*
X142502172Y-140707796D01*
X142489729Y-140715628D01*
X142470556Y-140737736D01*
X142461302Y-140765497D01*
X142463376Y-140794687D01*
X142476463Y-140820862D01*
X142498571Y-140840035D01*
X142526332Y-140849289D01*
X142555522Y-140847215D01*
X142569254Y-140841960D01*
X142624847Y-140814164D01*
X142702114Y-140814164D01*
X142780912Y-140840429D01*
X142831217Y-140890734D01*
X142857805Y-140943910D01*
X142889284Y-141069825D01*
X142889284Y-141158501D01*
X142857805Y-141284416D01*
X142831216Y-141337594D01*
X142780912Y-141387898D01*
X142702114Y-141414164D01*
X142655026Y-141414164D01*
X142576227Y-141387898D01*
X142574999Y-141386669D01*
X142574999Y-141242735D01*
X142642856Y-141242735D01*
X142657488Y-141241294D01*
X142684524Y-141230095D01*
X142705216Y-141209403D01*
X142716415Y-141182367D01*
X142716415Y-141153103D01*
X142705216Y-141126067D01*
X142684524Y-141105375D01*
X142657488Y-141094176D01*
X142642856Y-141092735D01*
X142499999Y-141092735D01*
X142485367Y-141094176D01*
X142458331Y-141105375D01*
X142437639Y-141126067D01*
X142426440Y-141153103D01*
X142424999Y-141167735D01*
X142253570Y-141167735D01*
X142253570Y-140739164D01*
X142253199Y-140735400D01*
X142253387Y-140733925D01*
X142252865Y-140732014D01*
X142252129Y-140724532D01*
X142248311Y-140715315D01*
X142245687Y-140705694D01*
X142242760Y-140701914D01*
X142240930Y-140697496D01*
X142233878Y-140690444D01*
X142227770Y-140682556D01*
X142223616Y-140680182D01*
X142220238Y-140676804D01*
X142211025Y-140672987D01*
X142202361Y-140668037D01*
X142197617Y-140667434D01*
X142193202Y-140665605D01*
X142183228Y-140665605D01*
X142173331Y-140664347D01*
X142168719Y-140665605D01*
X142163938Y-140665605D01*
X142154722Y-140669422D01*
X142145099Y-140672047D01*
X142141318Y-140674974D01*
X142136902Y-140676804D01*
X142129848Y-140683857D01*
X142121962Y-140689965D01*
X142117610Y-140696095D01*
X142116210Y-140697496D01*
X142115640Y-140698870D01*
X142113452Y-140701954D01*
X141824999Y-141206747D01*
X141824999Y-140739164D01*
X141823558Y-140724532D01*
X141812359Y-140697496D01*
X141791667Y-140676804D01*
X141764631Y-140665605D01*
X141735367Y-140665605D01*
X141708331Y-140676804D01*
X141687639Y-140697496D01*
X141676440Y-140724532D01*
X141674999Y-140739164D01*
X141467856Y-140739164D01*
X141466415Y-140724532D01*
X141455216Y-140697496D01*
X141434524Y-140676804D01*
X141407488Y-140665605D01*
X141392856Y-140664164D01*
X141214285Y-140664164D01*
X141206879Y-140664893D01*
X141204905Y-140664753D01*
X141202308Y-140665343D01*
X141199653Y-140665605D01*
X141197820Y-140666363D01*
X141190569Y-140668013D01*
X141083425Y-140703727D01*
X141070000Y-140709721D01*
X141067966Y-140711484D01*
X141065474Y-140712517D01*
X141054109Y-140721845D01*
X140982680Y-140793274D01*
X140977961Y-140799023D01*
X140976463Y-140800323D01*
X140975041Y-140802582D01*
X140973353Y-140804639D01*
X140972595Y-140806466D01*
X140968631Y-140812766D01*
X140932917Y-140884194D01*
X140932507Y-140885263D01*
X140932185Y-140885699D01*
X140929989Y-140891844D01*
X140927662Y-140897926D01*
X140927623Y-140898465D01*
X140927238Y-140899545D01*
X140891524Y-141042402D01*
X140891149Y-141044938D01*
X140890726Y-141045960D01*
X140890182Y-141051474D01*
X140889374Y-141056947D01*
X140889536Y-141058038D01*
X140889285Y-141060592D01*
X140805952Y-141060592D01*
X140805952Y-140580831D01*
X146908333Y-140580831D01*
X146908333Y-141647497D01*
G37*
X165125000Y-143267735D02*
X165160714Y-143303450D01*
X165160714Y-143303450D02*
X165267857Y-143339164D01*
X165267857Y-143339164D02*
X165339285Y-143339164D01*
X165339285Y-143339164D02*
X165446428Y-143303450D01*
X165446428Y-143303450D02*
X165517857Y-143232021D01*
X165517857Y-143232021D02*
X165553571Y-143160592D01*
X165553571Y-143160592D02*
X165589285Y-143017735D01*
X165589285Y-143017735D02*
X165589285Y-142910592D01*
X165589285Y-142910592D02*
X165553571Y-142767735D01*
X165553571Y-142767735D02*
X165517857Y-142696307D01*
X165517857Y-142696307D02*
X165446428Y-142624878D01*
X165446428Y-142624878D02*
X165339285Y-142589164D01*
X165339285Y-142589164D02*
X165267857Y-142589164D01*
X165267857Y-142589164D02*
X165160714Y-142624878D01*
X165160714Y-142624878D02*
X165125000Y-142660592D01*
X164696428Y-142910592D02*
X164767857Y-142874878D01*
X164767857Y-142874878D02*
X164803571Y-142839164D01*
X164803571Y-142839164D02*
X164839285Y-142767735D01*
X164839285Y-142767735D02*
X164839285Y-142732021D01*
X164839285Y-142732021D02*
X164803571Y-142660592D01*
X164803571Y-142660592D02*
X164767857Y-142624878D01*
X164767857Y-142624878D02*
X164696428Y-142589164D01*
X164696428Y-142589164D02*
X164553571Y-142589164D01*
X164553571Y-142589164D02*
X164482143Y-142624878D01*
X164482143Y-142624878D02*
X164446428Y-142660592D01*
X164446428Y-142660592D02*
X164410714Y-142732021D01*
X164410714Y-142732021D02*
X164410714Y-142767735D01*
X164410714Y-142767735D02*
X164446428Y-142839164D01*
X164446428Y-142839164D02*
X164482143Y-142874878D01*
X164482143Y-142874878D02*
X164553571Y-142910592D01*
X164553571Y-142910592D02*
X164696428Y-142910592D01*
X164696428Y-142910592D02*
X164767857Y-142946307D01*
X164767857Y-142946307D02*
X164803571Y-142982021D01*
X164803571Y-142982021D02*
X164839285Y-143053450D01*
X164839285Y-143053450D02*
X164839285Y-143196307D01*
X164839285Y-143196307D02*
X164803571Y-143267735D01*
X164803571Y-143267735D02*
X164767857Y-143303450D01*
X164767857Y-143303450D02*
X164696428Y-143339164D01*
X164696428Y-143339164D02*
X164553571Y-143339164D01*
X164553571Y-143339164D02*
X164482143Y-143303450D01*
X164482143Y-143303450D02*
X164446428Y-143267735D01*
X164446428Y-143267735D02*
X164410714Y-143196307D01*
X164410714Y-143196307D02*
X164410714Y-143053450D01*
X164410714Y-143053450D02*
X164446428Y-142982021D01*
X164446428Y-142982021D02*
X164482143Y-142946307D01*
X164482143Y-142946307D02*
X164553571Y-142910592D01*
X164600000Y-141417735D02*
X164635714Y-141453450D01*
X164635714Y-141453450D02*
X164742857Y-141489164D01*
X164742857Y-141489164D02*
X164814285Y-141489164D01*
X164814285Y-141489164D02*
X164921428Y-141453450D01*
X164921428Y-141453450D02*
X164992857Y-141382021D01*
X164992857Y-141382021D02*
X165028571Y-141310592D01*
X165028571Y-141310592D02*
X165064285Y-141167735D01*
X165064285Y-141167735D02*
X165064285Y-141060592D01*
X165064285Y-141060592D02*
X165028571Y-140917735D01*
X165028571Y-140917735D02*
X164992857Y-140846307D01*
X164992857Y-140846307D02*
X164921428Y-140774878D01*
X164921428Y-140774878D02*
X164814285Y-140739164D01*
X164814285Y-140739164D02*
X164742857Y-140739164D01*
X164742857Y-140739164D02*
X164635714Y-140774878D01*
X164635714Y-140774878D02*
X164600000Y-140810592D01*
X164242857Y-141489164D02*
X164100000Y-141489164D01*
X164100000Y-141489164D02*
X164028571Y-141453450D01*
X164028571Y-141453450D02*
X163992857Y-141417735D01*
X163992857Y-141417735D02*
X163921428Y-141310592D01*
X163921428Y-141310592D02*
X163885714Y-141167735D01*
X163885714Y-141167735D02*
X163885714Y-140882021D01*
X163885714Y-140882021D02*
X163921428Y-140810592D01*
X163921428Y-140810592D02*
X163957143Y-140774878D01*
X163957143Y-140774878D02*
X164028571Y-140739164D01*
X164028571Y-140739164D02*
X164171428Y-140739164D01*
X164171428Y-140739164D02*
X164242857Y-140774878D01*
X164242857Y-140774878D02*
X164278571Y-140810592D01*
X164278571Y-140810592D02*
X164314285Y-140882021D01*
X164314285Y-140882021D02*
X164314285Y-141060592D01*
X164314285Y-141060592D02*
X164278571Y-141132021D01*
X164278571Y-141132021D02*
X164242857Y-141167735D01*
X164242857Y-141167735D02*
X164171428Y-141203450D01*
X164171428Y-141203450D02*
X164028571Y-141203450D01*
X164028571Y-141203450D02*
X163957143Y-141167735D01*
X163957143Y-141167735D02*
X163921428Y-141132021D01*
X163921428Y-141132021D02*
X163885714Y-141060592D01*
D11*
%TO.C,J1*%
X149900000Y-75100000D02*
G75*
G02*
X143900000Y-75100000I-3000000J0D01*
G01*
X143900000Y-75100000D02*
G75*
G02*
X149900000Y-75100000I3000000J0D01*
G01*
X149900000Y-133100000D02*
G75*
G02*
X143900000Y-133100000I-3000000J0D01*
G01*
X143900000Y-133100000D02*
G75*
G02*
X149900000Y-133100000I3000000J0D01*
G01*
D12*
%TO.C,C8*%
X166822598Y-142615000D02*
X166606926Y-142615000D01*
X166822598Y-143335000D02*
X166606926Y-143335000D01*
%TO.C,C9*%
X166855342Y-140635000D02*
X166574182Y-140635000D01*
X166855342Y-141655000D02*
X166574182Y-141655000D01*
%TO.C,J10*%
X144100000Y-143050000D02*
X144100000Y-145450000D01*
X144100000Y-145450000D02*
X146500000Y-145450000D01*
X146500000Y-143050000D02*
X144100000Y-143050000D01*
X146500000Y-145450000D02*
X146500000Y-143050000D01*
%TO.C,J9*%
X141100000Y-143050000D02*
X141100000Y-145450000D01*
X141100000Y-145450000D02*
X143500000Y-145450000D01*
X143500000Y-143050000D02*
X141100000Y-143050000D01*
X143500000Y-145450000D02*
X143500000Y-143050000D01*
%TD*%
M02*
