%TF.GenerationSoftware,KiCad,Pcbnew,9.0.4*%
%TF.CreationDate,2025-09-02T14:54:46+01:00*%
%TF.ProjectId,lab_in_a_can,6c61625f-696e-45f6-915f-63616e2e6b69,rev?*%
%TF.SameCoordinates,Original*%
%TF.FileFunction,Soldermask,Bot*%
%TF.FilePolarity,Negative*%
%FSLAX46Y46*%
G04 Gerber Fmt 4.6, Leading zero omitted, Abs format (unit mm)*
G04 Created by KiCad (PCBNEW 9.0.4) date 2025-09-02 14:54:46*
%MOMM*%
%LPD*%
G01*
G04 APERTURE LIST*
G04 Aperture macros list*
%AMRoundRect*
0 Rectangle with rounded corners*
0 $1 Rounding radius*
0 $2 $3 $4 $5 $6 $7 $8 $9 X,Y pos of 4 corners*
0 Add a 4 corners polygon primitive as box body*
4,1,4,$2,$3,$4,$5,$6,$7,$8,$9,$2,$3,0*
0 Add four circle primitives for the rounded corners*
1,1,$1+$1,$2,$3*
1,1,$1+$1,$4,$5*
1,1,$1+$1,$6,$7*
1,1,$1+$1,$8,$9*
0 Add four rect primitives between the rounded corners*
20,1,$1+$1,$2,$3,$4,$5,0*
20,1,$1+$1,$4,$5,$6,$7,0*
20,1,$1+$1,$6,$7,$8,$9,0*
20,1,$1+$1,$8,$9,$2,$3,0*%
G04 Aperture macros list end*
%ADD10C,0.750000*%
%ADD11C,2.750000*%
%ADD12C,1.020000*%
%ADD13C,2.000000*%
%ADD14C,2.700000*%
%ADD15RoundRect,0.250000X-0.350000X-0.625000X0.350000X-0.625000X0.350000X0.625000X-0.350000X0.625000X0*%
%ADD16O,1.200000X1.750000*%
%ADD17C,0.900000*%
%ADD18RoundRect,0.140000X0.140000X0.170000X-0.140000X0.170000X-0.140000X-0.170000X0.140000X-0.170000X0*%
%ADD19RoundRect,0.225000X0.225000X0.250000X-0.225000X0.250000X-0.225000X-0.250000X0.225000X-0.250000X0*%
%ADD20R,2.000000X2.000000*%
G04 APERTURE END LIST*
D10*
%TO.C,J7*%
X158650000Y-39500000D03*
X166050000Y-39500000D03*
%TD*%
%TO.C,J3*%
X145450000Y-39500000D03*
X152850000Y-39500000D03*
%TD*%
D11*
%TO.C,J1*%
X146900000Y-75100000D03*
D12*
X171170000Y-79970000D03*
X168630000Y-79970000D03*
X171170000Y-82510000D03*
X168630000Y-82510000D03*
D13*
X169900000Y-83780000D03*
D12*
X171170000Y-85050000D03*
X168630000Y-85050000D03*
X171170000Y-87590000D03*
X168630000Y-87590000D03*
X171170000Y-90130000D03*
X168630000Y-90130000D03*
X171170000Y-92670000D03*
X168630000Y-92670000D03*
X171170000Y-95210000D03*
X168630000Y-95210000D03*
X171170000Y-97750000D03*
X168630000Y-97750000D03*
X171170000Y-100290000D03*
X168630000Y-100290000D03*
X171170000Y-102830000D03*
X168630000Y-102830000D03*
X171170000Y-105370000D03*
X168630000Y-105370000D03*
X171170000Y-107910000D03*
X168630000Y-107910000D03*
X171170000Y-110450000D03*
X168630000Y-110450000D03*
X171170000Y-112990000D03*
X168630000Y-112990000D03*
X171170000Y-115530000D03*
X168630000Y-115530000D03*
X171170000Y-118070000D03*
X168630000Y-118070000D03*
X171170000Y-120610000D03*
X168630000Y-120610000D03*
X171170000Y-123150000D03*
X168630000Y-123150000D03*
D13*
X169900000Y-124420000D03*
D12*
X171170000Y-125690000D03*
X168630000Y-125690000D03*
X171170000Y-128230000D03*
X168630000Y-128230000D03*
D11*
X146890000Y-133100000D03*
%TD*%
D14*
%TO.C,H1*%
X155750000Y-150750000D03*
%TD*%
D15*
%TO.C,J8*%
X156600000Y-139425000D03*
D16*
X158600000Y-139425000D03*
%TD*%
D17*
%TO.C,SW2*%
X140000000Y-108250000D03*
X140000000Y-111250000D03*
%TD*%
D18*
%TO.C,C8*%
X167194762Y-142975000D03*
X166234762Y-142975000D03*
%TD*%
D19*
%TO.C,C9*%
X167489762Y-141145000D03*
X165939762Y-141145000D03*
%TD*%
D20*
%TO.C,J10*%
X145300000Y-144250000D03*
%TD*%
%TO.C,J9*%
X142300000Y-144250000D03*
%TD*%
M02*
