M48
; DRILL file {KiCad 9.0.5} date 2025-10-06T11:36:54+0100
; FORMAT={-:-/ absolute / metric / decimal}
; #@! TF.CreationDate,2025-10-06T11:36:54+01:00
; #@! TF.GenerationSoftware,Kicad,Pcbnew,9.0.5
; #@! TF.FileFunction,Plated,1,4,PTH
FMAT,2
METRIC
; #@! TA.AperFunction,Plated,PTH,ViaDrill
T1C0.300
; #@! TA.AperFunction,Plated,PTH,ComponentDrill
T2C0.750
; #@! TA.AperFunction,Plated,PTH,ComponentDrill
T3C0.900
; #@! TA.AperFunction,Plated,PTH,ComponentDrill
T4C1.020
; #@! TA.AperFunction,Plated,PTH,ComponentDrill
T5C2.000
%
G90
G05
T1
X137.35Y-145.1
X137.45Y-123.05
X137.75Y-137.85
X137.8Y-141.75
X138.088Y-51.33
X138.18Y-49.83
X138.488Y-85.662
X138.55Y-70.25
X138.6Y-75.935
X138.625Y-44.65
X138.65Y-39.89
X138.7Y-135.55
X138.75Y-140.0
X138.925Y-74.25
X138.95Y-50.83
X138.95Y-51.89
X139.188Y-72.337
X139.25Y-43.29
X139.63Y-42.23
X139.63Y-52.66
X139.75Y-144.4
X140.075Y-122.8
X140.16Y-50.15
X140.16Y-51.314
X140.17Y-48.61
X140.5Y-131.25
X140.5Y-139.5
X140.5Y-141.9
X141.13Y-69.45
X141.375Y-74.675
X141.38Y-50.85
X141.39Y-73.685
X141.394Y-48.59
X141.45Y-78.8
X141.925Y-57.95
X141.925Y-59.1
X142.05Y-120.05
X142.3Y-107.85
X142.3Y-111.65
X142.3Y-142.3
X142.437Y-51.614
X142.48Y-72.96
X142.49Y-49.0
X142.54Y-50.19
X142.55Y-132.0
X142.75Y-103.95
X142.874Y-54.652
X143.0Y-59.1
X143.19Y-50.9
X143.34Y-48.49
X143.34Y-49.56
X143.45Y-107.85
X143.853Y-57.743
X143.9Y-113.55
X144.069Y-69.926
X144.069Y-70.815
X144.14Y-51.41
X144.23Y-50.33
X144.275Y-58.925
X144.4Y-135.7
X144.405Y-106.295
X144.45Y-123.55
X144.5Y-140.2
X144.65Y-142.2
X144.875Y-55.2
X144.9Y-54.1
X144.975Y-58.0
X145.059Y-69.698
X145.18Y-49.82
X145.18Y-50.87
X145.52Y-58.92
X145.7Y-87.675
X145.7Y-88.4
X145.725Y-105.75
X145.725Y-106.625
X145.875Y-121.975
X145.875Y-122.95
X145.948Y-69.698
X146.16Y-51.32
X146.188Y-72.612
X146.5Y-58.55
X146.55Y-139.5
X146.6Y-142.2
X146.69Y-49.13
X146.8Y-120.625
X146.8Y-137.35
X146.82Y-119.605
X146.825Y-125.7
X146.825Y-128.15
X146.85Y-118.8
X146.875Y-129.9
X147.23Y-51.32
X147.447Y-69.672
X147.5Y-58.55
X147.65Y-60.2
X147.9Y-143.3
X147.93Y-49.13
X147.975Y-105.65
X148.15Y-87.75
X148.15Y-88.64
X148.2Y-136.6
X148.25Y-51.32
X148.311Y-69.698
X148.425Y-129.9
X148.45Y-109.925
X148.6Y-58.55
X148.6Y-142.1
X148.625Y-125.7
X148.8Y-91.85
X149.0Y-113.35
X149.15Y-41.45
X149.327Y-71.12
X149.352Y-70.256
X149.5Y-89.325
X149.6Y-138.862
X149.65Y-135.8
X149.67Y-50.17
X149.67Y-51.44
X149.825Y-111.025
X149.875Y-58.55
X149.975Y-129.9
X150.0Y-143.8
X150.114Y-70.637
X150.139Y-69.774
X150.325Y-57.675
X150.4Y-117.9
X150.45Y-113.425
X150.575Y-99.675
X150.575Y-138.838
X150.775Y-90.375
X150.8Y-50.17
X150.84Y-51.43
X151.0Y-122.65
X151.15Y-41.45
X151.15Y-108.35
X151.186Y-70.65
X151.325Y-125.85
X151.43Y-48.95
X151.525Y-127.95
X151.525Y-129.9
X151.575Y-90.375
X151.6Y-139.7
X151.65Y-76.55
X151.7Y-112.075
X151.7Y-144.75
X151.775Y-69.125
X151.775Y-117.225
X151.8Y-64.55
X151.9Y-66.875
X151.9Y-142.8
X151.94Y-50.73
X151.986Y-125.262
X152.05Y-70.675
X152.17Y-51.85
X152.171Y-82.434
X152.171Y-83.134
X152.325Y-68.0
X152.34Y-49.64
X152.45Y-110.325
X152.45Y-127.75
X152.6Y-104.95
X152.625Y-117.175
X152.7Y-112.075
X152.8Y-109.525
X152.983Y-82.431
X152.983Y-83.131
X153.25Y-99.65
X153.425Y-41.7
X153.425Y-74.15
X153.441Y-59.842
X153.45Y-72.625
X153.475Y-75.425
X153.475Y-76.575
X153.5Y-70.4
X153.53Y-47.924
X153.55Y-113.55
X154.0Y-127.75
X154.25Y-99.659
X154.5Y-49.46
X154.6Y-75.425
X154.6Y-76.575
X154.625Y-70.4
X154.675Y-117.95
X154.886Y-59.95
X154.975Y-105.375
X155.0Y-37.775
X155.18Y-71.849
X155.2Y-91.625
X155.3Y-99.659
X155.425Y-111.975
X155.458Y-60.981
X155.725Y-70.4
X155.831Y-83.299
X156.0Y-64.575
X156.075Y-85.05
X156.125Y-65.85
X156.163Y-110.8
X156.35Y-99.641
X156.5Y-37.05
X156.51Y-46.052
X156.596Y-82.607
X156.596Y-83.307
X156.675Y-70.4
X156.8Y-127.3
X157.05Y-64.925
X157.08Y-55.18
X157.08Y-56.29
X157.35Y-99.65
X157.375Y-73.15
X157.408Y-82.604
X157.408Y-83.304
X157.475Y-113.6
X157.625Y-75.4
X157.625Y-76.55
X157.7Y-65.85
X157.76Y-48.62
X157.875Y-70.4
X157.9Y-61.25
X158.075Y-41.675
X158.15Y-125.85
X158.161Y-121.118
X158.4Y-99.65
X158.45Y-106.475
X158.46Y-51.79
X158.465Y-121.858
X158.47Y-49.69
X158.47Y-50.94
X158.625Y-120.375
X158.75Y-75.4
X158.75Y-76.55
X158.88Y-52.62
X158.88Y-53.58
X158.95Y-38.35
X159.3Y-65.825
X159.325Y-91.55
X159.35Y-99.65
X159.4Y-41.7
X159.4Y-43.1
X159.45Y-68.1
X159.45Y-69.375
X159.475Y-66.875
X159.475Y-70.65
X159.48Y-54.82
X159.48Y-55.93
X159.48Y-56.97
X159.55Y-49.54
X159.67Y-51.93
X159.68Y-50.6
X159.86Y-53.31
X159.987Y-72.212
X160.0Y-110.9
X160.125Y-119.612
X160.164Y-65.85
X160.3Y-116.575
X160.325Y-118.125
X160.52Y-48.65
X160.575Y-83.5
X160.76Y-52.59
X160.76Y-54.09
X160.76Y-55.59
X160.76Y-57.09
X160.761Y-51.317
X160.875Y-73.175
X160.875Y-74.45
X160.975Y-68.125
X160.975Y-69.4
X161.0Y-66.9
X161.0Y-70.675
X161.1Y-109.3
X161.15Y-41.7
X161.15Y-43.1
X161.16Y-50.07
X161.636Y-65.85
X162.26Y-52.59
X162.26Y-54.09
X162.26Y-55.59
X162.26Y-57.09
X162.261Y-51.317
X162.32Y-50.07
X162.35Y-41.4
X162.488Y-85.325
X162.5Y-65.875
X162.5Y-68.125
X162.5Y-69.4
X162.525Y-66.9
X162.525Y-70.675
X162.525Y-83.55
X163.15Y-73.825
X163.2Y-129.8
X163.4Y-41.7
X163.4Y-43.1
X163.46Y-130.85
X163.588Y-67.662
X163.61Y-139.525
X163.636Y-51.293
X163.76Y-52.59
X163.76Y-54.09
X163.76Y-55.59
X163.76Y-57.09
X164.036Y-65.85
X164.28Y-48.81
X164.46Y-130.85
X164.475Y-66.825
X164.475Y-129.725
X164.485Y-143.975
X164.8Y-51.3
X164.9Y-65.875
X165.235Y-132.625
X165.26Y-52.59
X165.26Y-54.09
X165.26Y-55.59
X165.26Y-57.09
X165.3Y-41.7
X165.3Y-43.1
X165.39Y-48.81
X165.76Y-144.025
X165.775Y-90.1
X165.785Y-139.825
X165.907Y-51.309
X165.975Y-124.375
X166.0Y-66.85
X166.025Y-99.025
X166.411Y-65.85
X166.675Y-83.825
X166.725Y-81.2
X166.75Y-91.275
X166.76Y-52.59
X166.76Y-54.09
X166.76Y-55.59
X166.76Y-57.09
X166.767Y-49.778
X166.77Y-48.53
X166.775Y-109.45
X166.775Y-111.425
X166.775Y-127.25
X166.775Y-129.225
X167.0Y-51.24
X167.275Y-65.875
X167.475Y-68.1
X167.525Y-66.85
X167.535Y-144.1
X167.55Y-42.35
X167.635Y-139.8
X168.284Y-52.597
X168.284Y-54.097
X168.284Y-55.597
X168.284Y-57.097
X168.29Y-48.55
X168.291Y-49.784
X168.291Y-51.284
X168.811Y-65.85
X168.9Y-66.825
X168.91Y-143.8
X169.54Y-45.57
X169.675Y-65.875
X169.7Y-130.775
X169.784Y-52.597
X169.784Y-54.097
X169.784Y-55.597
X169.784Y-57.097
X169.791Y-51.284
X169.8Y-49.5
X170.125Y-68.05
X170.425Y-66.85
X170.51Y-58.26
X170.6Y-69.975
X171.136Y-65.825
X171.225Y-42.275
X171.284Y-52.597
X171.284Y-54.097
X171.284Y-55.597
X171.284Y-57.097
X171.291Y-49.784
X171.291Y-51.284
X171.5Y-45.6
X171.75Y-83.825
X171.95Y-66.85
X172.0Y-65.85
X172.15Y-42.1
X172.175Y-84.25
X172.39Y-48.57
X172.56Y-138.95
X172.752Y-49.783
X172.761Y-52.596
X172.761Y-54.096
X172.761Y-55.596
X172.761Y-57.096
X172.767Y-51.284
X172.8Y-39.6
X172.86Y-58.26
X173.05Y-94.15
X173.05Y-96.125
X173.05Y-101.85
X173.05Y-103.825
X173.05Y-114.55
X173.05Y-116.525
X173.05Y-119.625
X173.05Y-121.6
X173.4Y-76.525
X174.05Y-129.55
X174.252Y-49.783
X174.261Y-52.596
X174.261Y-54.096
X174.261Y-55.596
X174.261Y-57.096
X174.267Y-51.284
T2
X156.6Y-139.425
X158.6Y-139.425
T3
X140.0Y-108.25
X140.0Y-111.25
T4
X168.63Y-79.97
X168.63Y-82.51
X168.63Y-85.05
X168.63Y-87.59
X168.63Y-90.13
X168.63Y-92.67
X168.63Y-95.21
X168.63Y-97.75
X168.63Y-100.29
X168.63Y-102.83
X168.63Y-105.37
X168.63Y-107.91
X168.63Y-110.45
X168.63Y-112.99
X168.63Y-115.53
X168.63Y-118.07
X168.63Y-120.61
X168.63Y-123.15
X168.63Y-125.69
X168.63Y-128.23
X171.17Y-79.97
X171.17Y-82.51
X171.17Y-85.05
X171.17Y-87.59
X171.17Y-90.13
X171.17Y-92.67
X171.17Y-95.21
X171.17Y-97.75
X171.17Y-100.29
X171.17Y-102.83
X171.17Y-105.37
X171.17Y-107.91
X171.17Y-110.45
X171.17Y-112.99
X171.17Y-115.53
X171.17Y-118.07
X171.17Y-120.61
X171.17Y-123.15
X171.17Y-125.69
X171.17Y-128.23
T5
X169.9Y-83.78
X169.9Y-124.42
M30
