%TF.GenerationSoftware,KiCad,Pcbnew,9.0.4*%
%TF.CreationDate,2025-09-19T11:19:37+01:00*%
%TF.ProjectId,batt_switch_evm,62617474-5f73-4776-9974-63685f65766d,rev?*%
%TF.SameCoordinates,Original*%
%TF.FileFunction,Copper,L2,Bot*%
%TF.FilePolarity,Positive*%
%FSLAX46Y46*%
G04 Gerber Fmt 4.6, Leading zero omitted, Abs format (unit mm)*
G04 Created by KiCad (PCBNEW 9.0.4) date 2025-09-19 11:19:37*
%MOMM*%
%LPD*%
G01*
G04 APERTURE LIST*
%TA.AperFunction,ComponentPad*%
%ADD10R,1.700000X1.700000*%
%TD*%
%TA.AperFunction,ComponentPad*%
%ADD11R,1.000000X1.000000*%
%TD*%
%TA.AperFunction,ComponentPad*%
%ADD12C,1.000000*%
%TD*%
%TA.AperFunction,ViaPad*%
%ADD13C,0.600000*%
%TD*%
%TA.AperFunction,Conductor*%
%ADD14C,0.200000*%
%TD*%
%TA.AperFunction,Conductor*%
%ADD15C,0.300000*%
%TD*%
G04 APERTURE END LIST*
D10*
%TO.P,J3,1,Pin_1*%
%TO.N,BATT2_IN*%
X155800000Y-79600000D03*
%TD*%
%TO.P,J7,1,Pin_1*%
%TO.N,BATT_ST*%
X160650000Y-96600000D03*
%TD*%
%TO.P,J4,1,Pin_1*%
%TO.N,GND*%
X144400000Y-98075000D03*
%TD*%
%TO.P,J5,1,Pin_1*%
%TO.N,+VBAT*%
X139300000Y-94700000D03*
%TD*%
%TO.P,J1,1,Pin_1*%
%TO.N,BATT1_IN*%
X129900000Y-79600000D03*
%TD*%
%TO.P,J6,1,Pin_1*%
%TO.N,BATT_SW*%
X124800000Y-93800000D03*
%TD*%
D11*
%TO.P,J2,1,Pin_1*%
%TO.N,+3.3V*%
X150800000Y-94900000D03*
D12*
%TO.P,J2,2,Pin_2*%
%TO.N,MSDA*%
X152070000Y-94900000D03*
%TO.P,J2,3,Pin_3*%
%TO.N,MSCL*%
X153340000Y-94900000D03*
%TD*%
D10*
%TO.P,J8,1,Pin_1*%
%TO.N,+5V_IN*%
X130100000Y-102600000D03*
%TD*%
%TO.P,J9,1,Pin_1*%
%TO.N,5V_EN*%
X128450000Y-109525000D03*
%TD*%
D13*
%TO.N,GND*%
X131375000Y-95525000D03*
X154600000Y-95450000D03*
X156800000Y-95425000D03*
X155425000Y-94200000D03*
X158875000Y-94450000D03*
X160800000Y-94325000D03*
X160825000Y-91325000D03*
X159375000Y-92850000D03*
X157400000Y-92850000D03*
X148350000Y-95500000D03*
X149025000Y-94275000D03*
X152200000Y-91325000D03*
X154025000Y-90925000D03*
X154175000Y-89025000D03*
X153475000Y-87525000D03*
X151900000Y-87525000D03*
X150225000Y-87550000D03*
X147650000Y-87550000D03*
X144175000Y-95425000D03*
X144175000Y-94300000D03*
X144200000Y-93125000D03*
X145900000Y-92400000D03*
X128625000Y-100100000D03*
X132250000Y-98500000D03*
X131450000Y-94375000D03*
%TO.N,MSDA*%
X138300000Y-83900000D03*
X126150000Y-81275000D03*
X128375000Y-84075000D03*
%TO.N,MSCL*%
X124600000Y-87125000D03*
X132625000Y-86750000D03*
X129875000Y-89050000D03*
X150875000Y-92975000D03*
%TO.N,BATT_ST*%
X138550000Y-86700000D03*
%TO.N,MSDA*%
X156700000Y-83600000D03*
X152187500Y-93250000D03*
%TO.N,MSCL*%
X156052880Y-89150000D03*
X153750000Y-93125000D03*
%TO.N,+3.3V*%
X140900735Y-90599265D03*
X124750000Y-91275000D03*
X127475000Y-92925000D03*
X147983577Y-91532107D03*
X150775000Y-93875000D03*
%TO.N,BATT2_IN*%
X159925000Y-83875000D03*
X158625000Y-87250000D03*
%TO.N,GND*%
X125600000Y-84000000D03*
X158000000Y-81400000D03*
%TO.N,+3.3V*%
X157300000Y-87100000D03*
X158900000Y-83700000D03*
X156925000Y-90875000D03*
%TO.N,BATT_ST*%
X148000000Y-90700000D03*
%TO.N,GND*%
X158500000Y-91200000D03*
X159500000Y-90100000D03*
X148000000Y-94300000D03*
X148000000Y-92800000D03*
X153100000Y-90000000D03*
X152000000Y-90000000D03*
X150900000Y-90000000D03*
X149400000Y-88800000D03*
X148300000Y-88800000D03*
X146600000Y-95500000D03*
X146600000Y-94500000D03*
X146600000Y-93600000D03*
X146700000Y-88425000D03*
X145500000Y-88600000D03*
X145325000Y-87550000D03*
X136900000Y-88900000D03*
X134000000Y-98800000D03*
X130400000Y-98800000D03*
X128500000Y-98400000D03*
X127100000Y-90200000D03*
X124900000Y-106900000D03*
X136100000Y-99000000D03*
X133200000Y-90100000D03*
X135000000Y-99000000D03*
X129700000Y-90200000D03*
X131400000Y-88800000D03*
X131400000Y-90100000D03*
X135500000Y-90100000D03*
X133200000Y-98800000D03*
X139200000Y-90000000D03*
X137900000Y-88900000D03*
X137400000Y-90000000D03*
X134400000Y-90100000D03*
X128875000Y-99250000D03*
X139100000Y-88500000D03*
%TO.N,Net-(U4-CT)*%
X129475000Y-95023679D03*
X130425338Y-97949412D03*
%TO.N,BATT_SW*%
X144600000Y-85500000D03*
X141747077Y-87685204D03*
%TO.N,5V_EN*%
X127500000Y-105900000D03*
X131501000Y-99300000D03*
%TD*%
D14*
%TO.N,Net-(U4-CT)*%
X129600000Y-97124074D02*
X130425338Y-97949412D01*
X129475000Y-95023679D02*
X129537604Y-95023679D01*
X129537604Y-95023679D02*
X129600000Y-95086075D01*
X129600000Y-95086075D02*
X129600000Y-97124074D01*
%TO.N,5V_EN*%
X131501000Y-99300000D02*
X131600000Y-99399000D01*
X129499000Y-100601000D02*
X128500000Y-101600000D01*
X131600000Y-99399000D02*
X131600000Y-99400000D01*
X131600000Y-99400000D02*
X131501000Y-99499000D01*
X128500000Y-104900000D02*
X127500000Y-105900000D01*
X131501000Y-99499000D02*
X129851058Y-99499000D01*
X129851058Y-99499000D02*
X129499000Y-99851058D01*
X128500000Y-101600000D02*
X128500000Y-104900000D01*
X129499000Y-99851058D02*
X129499000Y-100601000D01*
D15*
%TO.N,+3.3V*%
X127100000Y-92550000D02*
X126025000Y-92550000D01*
X127475000Y-92925000D02*
X127100000Y-92550000D01*
X126025000Y-92550000D02*
X124750000Y-91275000D01*
D14*
%TO.N,MSDA*%
X128375000Y-84075000D02*
X128375000Y-83600000D01*
X128375000Y-83600000D02*
X126150000Y-81375000D01*
X126150000Y-81375000D02*
X126150000Y-81275000D01*
X138300000Y-84749942D02*
X138300000Y-83900000D01*
X140361049Y-85699000D02*
X139249058Y-85699000D01*
X139249058Y-85699000D02*
X138300000Y-84749942D01*
%TO.N,MSCL*%
X124600000Y-89175000D02*
X124600000Y-87125000D01*
X124775000Y-89350000D02*
X124600000Y-89175000D01*
X129575000Y-89350000D02*
X124775000Y-89350000D01*
X138225000Y-86100000D02*
X137575000Y-86750000D01*
X137575000Y-86750000D02*
X132625000Y-86750000D01*
X129875000Y-89050000D02*
X129575000Y-89350000D01*
%TO.N,MSDA*%
X152187500Y-93250000D02*
X148635500Y-89698000D01*
X148635500Y-89698000D02*
X147583900Y-89698000D01*
X142357200Y-90073000D02*
X141127000Y-88842800D01*
X147583900Y-89698000D02*
X147208900Y-90073000D01*
X147208900Y-90073000D02*
X142357200Y-90073000D01*
X141127000Y-88842800D02*
X141127000Y-86464951D01*
X141127000Y-86464951D02*
X140361049Y-85699000D01*
%TO.N,MSCL*%
X140194949Y-86100000D02*
X138225000Y-86100000D01*
X140726000Y-89008900D02*
X140726000Y-86631051D01*
X147750000Y-90099000D02*
X147375000Y-90474000D01*
X148248943Y-90099000D02*
X147750000Y-90099000D01*
X140726000Y-86631051D02*
X140194949Y-86100000D01*
X150875000Y-92725057D02*
X148248943Y-90099000D01*
X150875000Y-92975000D02*
X150875000Y-92725057D01*
X147375000Y-90474000D02*
X142191100Y-90474000D01*
X142191100Y-90474000D02*
X140726000Y-89008900D01*
%TO.N,BATT_SW*%
X141747077Y-87730200D02*
X141766877Y-87750000D01*
X144600000Y-87100000D02*
X144600000Y-85500000D01*
X144100000Y-87600000D02*
X144600000Y-87100000D01*
X142600000Y-87600000D02*
X144100000Y-87600000D01*
X142450000Y-87750000D02*
X142600000Y-87600000D01*
X141747077Y-87685204D02*
X141747077Y-87730200D01*
X141766877Y-87750000D02*
X142450000Y-87750000D01*
%TO.N,BATT_ST*%
X138550000Y-86700000D02*
X140227849Y-86700000D01*
X140227849Y-86700000D02*
X140325000Y-86797151D01*
X140325000Y-86797151D02*
X140325000Y-89175000D01*
X147825000Y-90875000D02*
X148000000Y-90700000D01*
X140325000Y-89175000D02*
X142025000Y-90875000D01*
X142025000Y-90875000D02*
X147825000Y-90875000D01*
%TO.N,MSDA*%
X155325000Y-91100000D02*
X155325000Y-85250000D01*
X152425000Y-93250000D02*
X153300000Y-92375000D01*
X152187500Y-93250000D02*
X152425000Y-93250000D01*
X153300000Y-92375000D02*
X154050000Y-92375000D01*
X154050000Y-92375000D02*
X155325000Y-91100000D01*
X155325000Y-85250000D02*
X156700000Y-83875000D01*
X156700000Y-83875000D02*
X156700000Y-83600000D01*
D15*
%TO.N,+3.3V*%
X156925000Y-90875000D02*
X156925000Y-91175000D01*
X150800000Y-93900000D02*
X150775000Y-93875000D01*
X156925000Y-91175000D02*
X154200000Y-93900000D01*
X154200000Y-93900000D02*
X150800000Y-93900000D01*
D14*
%TO.N,MSCL*%
X156052880Y-89150000D02*
X156052880Y-91127880D01*
X156052880Y-91127880D02*
X154055760Y-93125000D01*
X154055760Y-93125000D02*
X153750000Y-93125000D01*
D15*
%TO.N,+3.3V*%
X147983577Y-91532107D02*
X141833577Y-91532107D01*
X141833577Y-91532107D02*
X140900735Y-90599265D01*
%TO.N,BATT2_IN*%
X158625000Y-87250000D02*
X158625000Y-86600000D01*
X158625000Y-86600000D02*
X159425000Y-85800000D01*
X159425000Y-85800000D02*
X159425000Y-84375000D01*
X159425000Y-84375000D02*
X159925000Y-83875000D01*
D14*
%TO.N,+3.3V*%
X158900000Y-85500000D02*
X157300000Y-87100000D01*
X158900000Y-83700000D02*
X158900000Y-85500000D01*
%TD*%
%TA.AperFunction,Conductor*%
%TO.N,GND*%
G36*
X129358691Y-78219407D02*
G01*
X129394655Y-78268907D01*
X129399500Y-78299500D01*
X129399500Y-78350500D01*
X129380593Y-78408691D01*
X129331093Y-78444655D01*
X129300500Y-78449500D01*
X129005139Y-78449500D01*
X129005136Y-78449501D01*
X128980009Y-78452414D01*
X128877235Y-78497794D01*
X128797794Y-78577235D01*
X128752414Y-78680011D01*
X128749500Y-78705130D01*
X128749500Y-80494860D01*
X128749501Y-80494863D01*
X128752414Y-80519990D01*
X128777756Y-80577385D01*
X128797794Y-80622765D01*
X128877235Y-80702206D01*
X128980009Y-80747585D01*
X129005135Y-80750500D01*
X129300500Y-80750499D01*
X129358690Y-80769406D01*
X129394654Y-80818906D01*
X129399500Y-80849499D01*
X129399500Y-83165892D01*
X129413859Y-83219480D01*
X129433609Y-83293190D01*
X129499496Y-83407309D01*
X129499498Y-83407311D01*
X129499500Y-83407314D01*
X129592686Y-83500500D01*
X129592688Y-83500501D01*
X129592690Y-83500503D01*
X129706810Y-83566390D01*
X129706808Y-83566390D01*
X129706812Y-83566391D01*
X129706814Y-83566392D01*
X129834108Y-83600500D01*
X129965892Y-83600500D01*
X137629548Y-83600500D01*
X137687739Y-83619407D01*
X137723703Y-83668907D01*
X137725174Y-83725122D01*
X137699500Y-83820943D01*
X137699500Y-83979057D01*
X137740423Y-84131784D01*
X137819480Y-84268716D01*
X137870505Y-84319741D01*
X137898281Y-84374256D01*
X137899500Y-84389743D01*
X137899500Y-84697215D01*
X137899500Y-84802669D01*
X137923570Y-84892501D01*
X137926794Y-84904534D01*
X137979516Y-84995850D01*
X137979518Y-84995852D01*
X137979520Y-84995855D01*
X138334956Y-85351290D01*
X138514162Y-85530496D01*
X138541939Y-85585013D01*
X138532368Y-85645445D01*
X138489103Y-85688710D01*
X138444158Y-85699500D01*
X138277727Y-85699500D01*
X138172273Y-85699500D01*
X138109929Y-85716204D01*
X138070407Y-85726794D01*
X137979091Y-85779516D01*
X137438103Y-86320504D01*
X137383586Y-86348281D01*
X137368099Y-86349500D01*
X133114744Y-86349500D01*
X133056553Y-86330593D01*
X133044741Y-86320504D01*
X132993718Y-86269482D01*
X132993716Y-86269480D01*
X132856784Y-86190423D01*
X132704057Y-86149500D01*
X132545943Y-86149500D01*
X132393216Y-86190423D01*
X132256284Y-86269480D01*
X132144480Y-86381284D01*
X132065423Y-86518216D01*
X132024500Y-86670943D01*
X132024500Y-86829057D01*
X132065423Y-86981784D01*
X132144480Y-87118716D01*
X132256284Y-87230520D01*
X132393216Y-87309577D01*
X132545943Y-87350500D01*
X132545945Y-87350500D01*
X132704055Y-87350500D01*
X132704057Y-87350500D01*
X132856784Y-87309577D01*
X132993716Y-87230520D01*
X133025955Y-87198281D01*
X133044741Y-87179496D01*
X133099258Y-87151719D01*
X133114744Y-87150500D01*
X137627725Y-87150500D01*
X137627727Y-87150500D01*
X137729588Y-87123207D01*
X137729590Y-87123205D01*
X137729592Y-87123205D01*
X137768917Y-87100500D01*
X137820913Y-87070480D01*
X137887915Y-87003477D01*
X137942429Y-86975701D01*
X138002861Y-86985272D01*
X138043651Y-87023980D01*
X138069480Y-87068716D01*
X138181284Y-87180520D01*
X138318216Y-87259577D01*
X138470943Y-87300500D01*
X138470945Y-87300500D01*
X138629055Y-87300500D01*
X138629057Y-87300500D01*
X138781784Y-87259577D01*
X138918716Y-87180520D01*
X138948736Y-87150500D01*
X138969741Y-87129496D01*
X139024258Y-87101719D01*
X139039744Y-87100500D01*
X139825500Y-87100500D01*
X139883691Y-87119407D01*
X139919655Y-87168907D01*
X139924500Y-87199500D01*
X139924500Y-89122273D01*
X139924500Y-89227727D01*
X139938984Y-89281783D01*
X139951794Y-89329592D01*
X140004516Y-89420908D01*
X140004517Y-89420909D01*
X140004518Y-89420910D01*
X140004520Y-89420913D01*
X140306812Y-89723205D01*
X140548775Y-89965168D01*
X140576552Y-90019685D01*
X140566981Y-90080117D01*
X140535786Y-90112999D01*
X140537165Y-90114796D01*
X140532025Y-90118739D01*
X140532019Y-90118745D01*
X140420215Y-90230549D01*
X140341158Y-90367481D01*
X140300235Y-90520208D01*
X140300235Y-90678322D01*
X140341158Y-90831049D01*
X140420215Y-90967981D01*
X140532019Y-91079785D01*
X140668951Y-91158842D01*
X140821678Y-91199765D01*
X140823124Y-91199765D01*
X140824108Y-91200084D01*
X140828112Y-91200612D01*
X140828014Y-91201353D01*
X140881315Y-91218672D01*
X140893127Y-91228760D01*
X141556963Y-91892597D01*
X141659690Y-91951906D01*
X141683897Y-91958391D01*
X141683902Y-91958394D01*
X141683903Y-91958393D01*
X141774265Y-91982606D01*
X141774267Y-91982607D01*
X141774268Y-91982607D01*
X147543834Y-91982607D01*
X147602025Y-92001514D01*
X147613831Y-92011597D01*
X147614861Y-92012627D01*
X147751793Y-92091684D01*
X147904520Y-92132607D01*
X147904522Y-92132607D01*
X148062632Y-92132607D01*
X148062634Y-92132607D01*
X148215361Y-92091684D01*
X148352293Y-92012627D01*
X148464097Y-91900823D01*
X148543154Y-91763891D01*
X148584077Y-91611164D01*
X148584077Y-91453050D01*
X148543154Y-91300323D01*
X148473030Y-91178864D01*
X148467843Y-91154461D01*
X148459778Y-91130846D01*
X148461632Y-91125245D01*
X148460309Y-91119018D01*
X148477813Y-91072379D01*
X148480086Y-91069149D01*
X148480520Y-91068716D01*
X148481105Y-91067701D01*
X148483655Y-91064080D01*
X148504742Y-91048271D01*
X148524315Y-91030638D01*
X148528912Y-91030153D01*
X148532612Y-91027380D01*
X148558961Y-91026985D01*
X148585163Y-91024224D01*
X148589412Y-91026530D01*
X148593790Y-91026465D01*
X148608935Y-91037126D01*
X148634613Y-91051063D01*
X150277403Y-92693853D01*
X150305180Y-92748370D01*
X150303026Y-92789479D01*
X150287897Y-92845943D01*
X150274500Y-92895943D01*
X150274500Y-93054057D01*
X150315423Y-93206784D01*
X150365613Y-93293716D01*
X150379399Y-93317594D01*
X150392120Y-93377443D01*
X150367233Y-93433338D01*
X150363666Y-93437097D01*
X150294482Y-93506281D01*
X150294480Y-93506283D01*
X150294480Y-93506284D01*
X150215423Y-93643216D01*
X150174500Y-93795943D01*
X150174500Y-93954057D01*
X150193966Y-94026708D01*
X150190764Y-94087808D01*
X150152259Y-94135358D01*
X150138332Y-94142893D01*
X150127237Y-94147792D01*
X150047794Y-94227235D01*
X150002414Y-94330011D01*
X149999500Y-94355130D01*
X149999500Y-95444860D01*
X149999501Y-95444863D01*
X150002414Y-95469990D01*
X150025286Y-95521789D01*
X150047794Y-95572765D01*
X150127235Y-95652206D01*
X150230009Y-95697585D01*
X150255135Y-95700500D01*
X151344864Y-95700499D01*
X151369991Y-95697585D01*
X151472765Y-95652206D01*
X151528321Y-95596649D01*
X151582836Y-95568874D01*
X151643268Y-95578445D01*
X151653323Y-95584338D01*
X151690821Y-95609394D01*
X151836503Y-95669737D01*
X151991158Y-95700500D01*
X151991159Y-95700500D01*
X152148841Y-95700500D01*
X152148842Y-95700500D01*
X152303497Y-95669737D01*
X152449179Y-95609394D01*
X152580289Y-95521789D01*
X152634996Y-95467082D01*
X152689512Y-95439304D01*
X152749944Y-95448875D01*
X152775004Y-95467082D01*
X152829702Y-95521781D01*
X152829706Y-95521784D01*
X152829711Y-95521789D01*
X152900179Y-95568874D01*
X152960814Y-95609390D01*
X152960825Y-95609396D01*
X153014638Y-95631685D01*
X153106503Y-95669737D01*
X153261158Y-95700500D01*
X153261159Y-95700500D01*
X153418841Y-95700500D01*
X153418842Y-95700500D01*
X153573497Y-95669737D01*
X153719179Y-95609394D01*
X153850289Y-95521789D01*
X153961789Y-95410289D01*
X154049394Y-95279179D01*
X154109737Y-95133497D01*
X154140500Y-94978842D01*
X154140500Y-94821158D01*
X154109737Y-94666503D01*
X154049394Y-94520821D01*
X154049391Y-94520815D01*
X154038490Y-94504501D01*
X154021882Y-94445613D01*
X154043060Y-94388209D01*
X154093934Y-94354217D01*
X154120806Y-94350500D01*
X154259307Y-94350500D01*
X154259309Y-94350500D01*
X154352610Y-94325500D01*
X154373887Y-94319799D01*
X154476614Y-94260489D01*
X157285489Y-91451614D01*
X157344799Y-91348887D01*
X157354202Y-91313790D01*
X157379826Y-91269409D01*
X157405520Y-91243716D01*
X157484577Y-91106784D01*
X157525500Y-90954057D01*
X157525500Y-90795943D01*
X157484577Y-90643216D01*
X157405520Y-90506284D01*
X157293716Y-90394480D01*
X157156784Y-90315423D01*
X157004057Y-90274500D01*
X156845943Y-90274500D01*
X156693216Y-90315423D01*
X156601878Y-90368156D01*
X156542031Y-90380877D01*
X156486136Y-90355990D01*
X156455543Y-90303002D01*
X156453380Y-90282419D01*
X156453380Y-89639743D01*
X156472287Y-89581552D01*
X156482370Y-89569745D01*
X156533400Y-89518716D01*
X156612457Y-89381784D01*
X156653380Y-89229057D01*
X156653380Y-89070943D01*
X156612457Y-88918216D01*
X156533400Y-88781284D01*
X156421596Y-88669480D01*
X156284664Y-88590423D01*
X156131937Y-88549500D01*
X155973823Y-88549500D01*
X155889825Y-88572006D01*
X155850123Y-88582645D01*
X155789021Y-88579442D01*
X155741471Y-88540937D01*
X155725500Y-88487018D01*
X155725500Y-87020943D01*
X156699500Y-87020943D01*
X156699500Y-87179057D01*
X156740423Y-87331784D01*
X156819480Y-87468716D01*
X156931284Y-87580520D01*
X157068216Y-87659577D01*
X157220943Y-87700500D01*
X157220945Y-87700500D01*
X157379055Y-87700500D01*
X157379057Y-87700500D01*
X157531784Y-87659577D01*
X157668716Y-87580520D01*
X157780520Y-87468716D01*
X157853218Y-87342798D01*
X157898685Y-87301858D01*
X157959536Y-87295462D01*
X158012524Y-87326055D01*
X158034579Y-87366675D01*
X158065423Y-87481784D01*
X158144480Y-87618716D01*
X158256284Y-87730520D01*
X158393216Y-87809577D01*
X158545943Y-87850500D01*
X158545945Y-87850500D01*
X158704055Y-87850500D01*
X158704057Y-87850500D01*
X158856784Y-87809577D01*
X158993716Y-87730520D01*
X159105520Y-87618716D01*
X159184577Y-87481784D01*
X159225500Y-87329057D01*
X159225500Y-87170943D01*
X159184577Y-87018216D01*
X159105520Y-86881284D01*
X159105517Y-86881281D01*
X159104229Y-86879602D01*
X159103723Y-86878173D01*
X159102275Y-86875665D01*
X159102739Y-86875396D01*
X159083807Y-86821926D01*
X159101186Y-86763260D01*
X159112763Y-86749339D01*
X159785490Y-86076614D01*
X159844799Y-85973887D01*
X159852562Y-85944913D01*
X159875500Y-85859309D01*
X159875500Y-84602611D01*
X159877968Y-84595013D01*
X159876719Y-84587124D01*
X159887243Y-84566468D01*
X159894407Y-84544420D01*
X159904496Y-84532607D01*
X159932607Y-84504496D01*
X159987124Y-84476719D01*
X160002611Y-84475500D01*
X160004055Y-84475500D01*
X160004057Y-84475500D01*
X160156784Y-84434577D01*
X160293716Y-84355520D01*
X160405520Y-84243716D01*
X160484577Y-84106784D01*
X160525500Y-83954057D01*
X160525500Y-83795943D01*
X160484577Y-83643216D01*
X160405520Y-83506284D01*
X160293716Y-83394480D01*
X160156784Y-83315423D01*
X160004057Y-83274500D01*
X159845943Y-83274500D01*
X159693216Y-83315423D01*
X159556284Y-83394480D01*
X159556283Y-83394480D01*
X159556276Y-83394485D01*
X159551134Y-83398431D01*
X159549612Y-83396447D01*
X159504669Y-83419331D01*
X159444239Y-83409741D01*
X159403475Y-83371044D01*
X159380520Y-83331284D01*
X159268716Y-83219480D01*
X159131784Y-83140423D01*
X158979057Y-83099500D01*
X158820943Y-83099500D01*
X158668216Y-83140423D01*
X158531284Y-83219480D01*
X158419480Y-83331284D01*
X158340423Y-83468216D01*
X158299500Y-83620943D01*
X158299500Y-83779057D01*
X158340423Y-83931784D01*
X158419480Y-84068716D01*
X158470505Y-84119741D01*
X158498281Y-84174256D01*
X158499500Y-84189743D01*
X158499500Y-85293099D01*
X158480593Y-85351290D01*
X158470504Y-85363103D01*
X157363103Y-86470504D01*
X157308586Y-86498281D01*
X157293099Y-86499500D01*
X157220943Y-86499500D01*
X157068216Y-86540423D01*
X156931284Y-86619480D01*
X156819480Y-86731284D01*
X156740423Y-86868216D01*
X156699500Y-87020943D01*
X155725500Y-87020943D01*
X155725500Y-85456899D01*
X155744407Y-85398708D01*
X155754490Y-85386901D01*
X156945910Y-84195481D01*
X156945913Y-84195480D01*
X157020480Y-84120913D01*
X157024209Y-84114453D01*
X157032741Y-84105654D01*
X157042846Y-84100307D01*
X157054320Y-84088831D01*
X157068716Y-84080520D01*
X157180520Y-83968716D01*
X157259577Y-83831784D01*
X157300500Y-83679057D01*
X157300500Y-83520943D01*
X157259577Y-83368216D01*
X157180520Y-83231284D01*
X157068716Y-83119480D01*
X156931784Y-83040423D01*
X156779057Y-82999500D01*
X156620943Y-82999500D01*
X156468216Y-83040423D01*
X156468214Y-83040424D01*
X156468213Y-83040424D01*
X156448997Y-83051518D01*
X156389148Y-83064237D01*
X156333254Y-83039349D01*
X156302663Y-82986360D01*
X156300500Y-82965780D01*
X156300500Y-80849499D01*
X156319407Y-80791308D01*
X156368907Y-80755344D01*
X156399500Y-80750499D01*
X156694861Y-80750499D01*
X156694864Y-80750499D01*
X156719991Y-80747585D01*
X156822765Y-80702206D01*
X156902206Y-80622765D01*
X156947585Y-80519991D01*
X156950500Y-80494865D01*
X156950499Y-78705136D01*
X156947585Y-78680009D01*
X156902206Y-78577235D01*
X156822765Y-78497794D01*
X156719991Y-78452415D01*
X156719990Y-78452414D01*
X156719988Y-78452414D01*
X156694869Y-78449500D01*
X156694865Y-78449500D01*
X156399500Y-78449500D01*
X156384588Y-78444655D01*
X156368907Y-78444655D01*
X156356221Y-78435438D01*
X156341309Y-78430593D01*
X156332092Y-78417907D01*
X156319407Y-78408691D01*
X156314561Y-78393778D01*
X156305345Y-78381093D01*
X156300500Y-78350500D01*
X156300500Y-78299500D01*
X156319407Y-78241309D01*
X156368907Y-78205345D01*
X156399500Y-78200500D01*
X161500500Y-78200500D01*
X161558691Y-78219407D01*
X161594655Y-78268907D01*
X161599500Y-78299500D01*
X161599500Y-95350500D01*
X161580593Y-95408691D01*
X161531093Y-95444655D01*
X161500500Y-95449500D01*
X159755139Y-95449500D01*
X159755136Y-95449501D01*
X159730009Y-95452414D01*
X159627235Y-95497794D01*
X159547794Y-95577235D01*
X159502414Y-95680011D01*
X159499500Y-95705130D01*
X159499500Y-96000500D01*
X159480593Y-96058691D01*
X159431093Y-96094655D01*
X159400500Y-96099500D01*
X144465892Y-96099500D01*
X144334108Y-96099500D01*
X144256200Y-96120375D01*
X144206809Y-96133609D01*
X144092690Y-96199496D01*
X143999496Y-96292690D01*
X143933609Y-96406809D01*
X143899500Y-96534109D01*
X143899500Y-99500500D01*
X143880593Y-99558691D01*
X143831093Y-99594655D01*
X143800500Y-99599500D01*
X141999500Y-99599500D01*
X141941309Y-99580593D01*
X141905345Y-99531093D01*
X141900500Y-99500500D01*
X141900500Y-95134109D01*
X141900500Y-95134108D01*
X141866392Y-95006814D01*
X141866390Y-95006811D01*
X141866390Y-95006809D01*
X141800503Y-94892690D01*
X141800499Y-94892685D01*
X141707314Y-94799499D01*
X141707314Y-94799500D01*
X141207314Y-94299500D01*
X141207311Y-94299498D01*
X141207310Y-94299497D01*
X141207309Y-94299496D01*
X141093189Y-94233609D01*
X141093191Y-94233609D01*
X141043799Y-94220375D01*
X140965892Y-94199500D01*
X140965890Y-94199500D01*
X140549499Y-94199500D01*
X140491308Y-94180593D01*
X140455344Y-94131093D01*
X140450499Y-94100500D01*
X140450499Y-93805139D01*
X140450499Y-93805136D01*
X140447585Y-93780009D01*
X140402206Y-93677235D01*
X140322765Y-93597794D01*
X140219991Y-93552415D01*
X140219990Y-93552414D01*
X140219988Y-93552414D01*
X140194868Y-93549500D01*
X138405139Y-93549500D01*
X138405136Y-93549501D01*
X138380009Y-93552414D01*
X138277235Y-93597794D01*
X138197794Y-93677235D01*
X138152414Y-93780011D01*
X138149500Y-93805130D01*
X138149500Y-94100500D01*
X138130593Y-94158691D01*
X138081093Y-94194655D01*
X138050500Y-94199500D01*
X137765892Y-94199500D01*
X137634107Y-94199500D01*
X137556200Y-94220374D01*
X137506809Y-94233609D01*
X137392690Y-94299496D01*
X136792686Y-94899500D01*
X136792685Y-94899499D01*
X136699500Y-94992685D01*
X136699496Y-94992690D01*
X136633609Y-95106809D01*
X136599500Y-95234109D01*
X136599500Y-99500500D01*
X136580593Y-99558691D01*
X136531093Y-99594655D01*
X136500500Y-99599500D01*
X132171452Y-99599500D01*
X132113261Y-99580593D01*
X132077297Y-99531093D01*
X132075825Y-99474877D01*
X132101500Y-99379057D01*
X132101500Y-99220943D01*
X132060577Y-99068216D01*
X131981520Y-98931284D01*
X131869716Y-98819480D01*
X131732784Y-98740423D01*
X131580057Y-98699500D01*
X131421943Y-98699500D01*
X131269216Y-98740423D01*
X131132284Y-98819480D01*
X131020478Y-98931286D01*
X130952516Y-99049000D01*
X130907047Y-99089941D01*
X130866780Y-99098500D01*
X129903785Y-99098500D01*
X129798331Y-99098500D01*
X129735987Y-99115204D01*
X129696465Y-99125794D01*
X129605149Y-99178516D01*
X129178516Y-99605149D01*
X129125793Y-99696469D01*
X129125792Y-99696469D01*
X129125793Y-99696470D01*
X129098500Y-99798331D01*
X129098500Y-100394099D01*
X129079593Y-100452290D01*
X129069504Y-100464103D01*
X128179518Y-101354089D01*
X128126792Y-101445411D01*
X128126792Y-101445412D01*
X128124918Y-101452409D01*
X128124917Y-101452415D01*
X128099500Y-101547274D01*
X128099500Y-104693099D01*
X128080593Y-104751290D01*
X128070504Y-104763103D01*
X127563103Y-105270504D01*
X127508586Y-105298281D01*
X127493099Y-105299500D01*
X127420943Y-105299500D01*
X127268216Y-105340423D01*
X127131284Y-105419480D01*
X127019480Y-105531284D01*
X126940423Y-105668216D01*
X126899500Y-105820943D01*
X126899500Y-105979057D01*
X126940423Y-106131784D01*
X127019480Y-106268716D01*
X127131284Y-106380520D01*
X127268216Y-106459577D01*
X127420943Y-106500500D01*
X127420945Y-106500500D01*
X127579055Y-106500500D01*
X127579057Y-106500500D01*
X127731784Y-106459577D01*
X127868716Y-106380520D01*
X127980520Y-106268716D01*
X128059577Y-106131784D01*
X128100500Y-105979057D01*
X128100500Y-105906899D01*
X128119407Y-105848708D01*
X128129490Y-105836901D01*
X128745910Y-105220481D01*
X128745913Y-105220480D01*
X128820480Y-105145913D01*
X128873207Y-105054587D01*
X128900501Y-104952727D01*
X128900501Y-104847273D01*
X128900501Y-104841211D01*
X128900500Y-104841193D01*
X128900500Y-103764478D01*
X128919407Y-103706287D01*
X128968907Y-103670323D01*
X129030093Y-103670323D01*
X129069501Y-103694472D01*
X129077235Y-103702206D01*
X129180009Y-103747585D01*
X129205135Y-103750500D01*
X129500500Y-103750499D01*
X129558690Y-103769406D01*
X129594654Y-103818906D01*
X129599500Y-103849499D01*
X129599500Y-108326819D01*
X129580593Y-108385010D01*
X129531093Y-108420974D01*
X129469907Y-108420974D01*
X129460512Y-108417384D01*
X129369991Y-108377415D01*
X129369990Y-108377414D01*
X129369988Y-108377414D01*
X129344868Y-108374500D01*
X127555139Y-108374500D01*
X127555136Y-108374501D01*
X127530009Y-108377414D01*
X127427235Y-108422794D01*
X127347794Y-108502235D01*
X127302414Y-108605011D01*
X127299500Y-108630130D01*
X127299500Y-108925500D01*
X127280593Y-108983691D01*
X127231093Y-109019655D01*
X127200500Y-109024500D01*
X124199500Y-109024500D01*
X124141309Y-109005593D01*
X124105345Y-108956093D01*
X124100500Y-108925500D01*
X124100500Y-96248320D01*
X124119407Y-96190129D01*
X124129490Y-96178322D01*
X125107311Y-95200501D01*
X125107314Y-95200500D01*
X125200500Y-95107314D01*
X125262459Y-94999998D01*
X125307928Y-94959058D01*
X125348195Y-94950499D01*
X125694861Y-94950499D01*
X125694864Y-94950499D01*
X125719991Y-94947585D01*
X125726702Y-94944622D01*
X128874500Y-94944622D01*
X128874500Y-95102736D01*
X128915423Y-95255463D01*
X128994480Y-95392395D01*
X129106284Y-95504199D01*
X129149999Y-95529437D01*
X129190940Y-95574905D01*
X129199500Y-95615174D01*
X129199500Y-97071347D01*
X129199500Y-97176801D01*
X129223570Y-97266633D01*
X129226794Y-97278666D01*
X129279516Y-97369982D01*
X129279518Y-97369984D01*
X129279520Y-97369987D01*
X129795843Y-97886310D01*
X129823619Y-97940825D01*
X129824838Y-97956312D01*
X129824838Y-98028469D01*
X129865761Y-98181196D01*
X129944818Y-98318128D01*
X130056622Y-98429932D01*
X130193554Y-98508989D01*
X130346281Y-98549912D01*
X130346283Y-98549912D01*
X130504393Y-98549912D01*
X130504395Y-98549912D01*
X130657122Y-98508989D01*
X130794054Y-98429932D01*
X130905858Y-98318128D01*
X130984915Y-98181196D01*
X131025838Y-98028469D01*
X131025838Y-97870355D01*
X130984915Y-97717628D01*
X130905858Y-97580696D01*
X130794054Y-97468892D01*
X130657122Y-97389835D01*
X130504395Y-97348912D01*
X130504393Y-97348912D01*
X130432239Y-97348912D01*
X130374048Y-97330005D01*
X130362235Y-97319916D01*
X130029496Y-96987177D01*
X130001719Y-96932660D01*
X130000500Y-96917173D01*
X130000500Y-95341012D01*
X130013763Y-95291513D01*
X130034577Y-95255463D01*
X130075500Y-95102736D01*
X130075500Y-94944622D01*
X130034577Y-94791895D01*
X129955520Y-94654963D01*
X129843716Y-94543159D01*
X129706784Y-94464102D01*
X129554057Y-94423179D01*
X129395943Y-94423179D01*
X129243216Y-94464102D01*
X129106284Y-94543159D01*
X128994480Y-94654963D01*
X128915423Y-94791895D01*
X128874500Y-94944622D01*
X125726702Y-94944622D01*
X125822765Y-94902206D01*
X125902206Y-94822765D01*
X125947585Y-94719991D01*
X125950500Y-94694865D01*
X125950499Y-93099499D01*
X125969406Y-93041309D01*
X126018906Y-93005345D01*
X126049499Y-93000500D01*
X126797582Y-93000500D01*
X126855773Y-93019407D01*
X126891737Y-93068907D01*
X126893200Y-93073847D01*
X126915423Y-93156784D01*
X126994480Y-93293716D01*
X127106284Y-93405520D01*
X127243216Y-93484577D01*
X127395943Y-93525500D01*
X127395945Y-93525500D01*
X127554055Y-93525500D01*
X127554057Y-93525500D01*
X127706784Y-93484577D01*
X127843716Y-93405520D01*
X127955520Y-93293716D01*
X128034577Y-93156784D01*
X128075500Y-93004057D01*
X128075500Y-92845943D01*
X128034577Y-92693216D01*
X127955520Y-92556284D01*
X127843716Y-92444480D01*
X127706784Y-92365423D01*
X127554057Y-92324500D01*
X127554055Y-92324500D01*
X127552611Y-92324500D01*
X127551626Y-92324180D01*
X127547623Y-92323653D01*
X127547720Y-92322911D01*
X127494420Y-92305593D01*
X127482608Y-92295504D01*
X127376614Y-92189511D01*
X127376609Y-92189507D01*
X127273890Y-92130202D01*
X127273886Y-92130200D01*
X127249673Y-92123712D01*
X127249673Y-92123713D01*
X127159309Y-92099500D01*
X127159307Y-92099500D01*
X126252611Y-92099500D01*
X126194420Y-92080593D01*
X126182607Y-92070504D01*
X125379496Y-91267393D01*
X125351719Y-91212876D01*
X125350500Y-91197389D01*
X125350500Y-91195944D01*
X125345924Y-91178866D01*
X125309577Y-91043216D01*
X125230520Y-90906284D01*
X125118716Y-90794480D01*
X124981784Y-90715423D01*
X124829057Y-90674500D01*
X124670943Y-90674500D01*
X124518216Y-90715423D01*
X124381284Y-90794480D01*
X124269501Y-90906262D01*
X124214987Y-90934038D01*
X124154555Y-90924467D01*
X124111290Y-90881202D01*
X124100500Y-90836257D01*
X124100500Y-89479254D01*
X124119407Y-89421063D01*
X124168907Y-89385099D01*
X124230093Y-89385099D01*
X124274660Y-89416596D01*
X124274932Y-89416325D01*
X124276514Y-89417907D01*
X124278042Y-89418987D01*
X124279519Y-89420912D01*
X124454518Y-89595912D01*
X124454519Y-89595912D01*
X124454520Y-89595913D01*
X124454519Y-89595913D01*
X124498350Y-89639743D01*
X124529087Y-89670480D01*
X124620413Y-89723207D01*
X124722273Y-89750500D01*
X124722275Y-89750500D01*
X129627725Y-89750500D01*
X129627727Y-89750500D01*
X129729588Y-89723207D01*
X129729590Y-89723205D01*
X129729592Y-89723205D01*
X129826533Y-89667236D01*
X129827257Y-89668490D01*
X129877969Y-89650534D01*
X129880558Y-89650500D01*
X129954055Y-89650500D01*
X129954057Y-89650500D01*
X130106784Y-89609577D01*
X130243716Y-89530520D01*
X130355520Y-89418716D01*
X130434577Y-89281784D01*
X130475500Y-89129057D01*
X130475500Y-88970943D01*
X130434577Y-88818216D01*
X130355520Y-88681284D01*
X130243716Y-88569480D01*
X130106784Y-88490423D01*
X129954057Y-88449500D01*
X129795943Y-88449500D01*
X129655924Y-88487018D01*
X129643216Y-88490423D01*
X129506284Y-88569480D01*
X129394480Y-88681284D01*
X129315422Y-88818218D01*
X129299906Y-88876124D01*
X129266582Y-88927438D01*
X129209460Y-88949364D01*
X129204280Y-88949500D01*
X125099500Y-88949500D01*
X125041309Y-88930593D01*
X125005345Y-88881093D01*
X125000500Y-88850500D01*
X125000500Y-87614743D01*
X125019407Y-87556552D01*
X125029490Y-87544745D01*
X125080520Y-87493716D01*
X125159577Y-87356784D01*
X125200500Y-87204057D01*
X125200500Y-87045943D01*
X125159577Y-86893216D01*
X125080520Y-86756284D01*
X124968716Y-86644480D01*
X124831784Y-86565423D01*
X124679057Y-86524500D01*
X124520943Y-86524500D01*
X124444579Y-86544961D01*
X124368214Y-86565423D01*
X124248999Y-86634252D01*
X124189151Y-86646973D01*
X124133256Y-86622086D01*
X124102663Y-86569098D01*
X124100500Y-86548515D01*
X124100500Y-81195943D01*
X125549500Y-81195943D01*
X125549500Y-81354057D01*
X125590423Y-81506784D01*
X125669480Y-81643716D01*
X125781284Y-81755520D01*
X125918216Y-81834577D01*
X126063303Y-81873452D01*
X126107681Y-81899074D01*
X127848235Y-83639628D01*
X127876012Y-83694145D01*
X127866441Y-83754577D01*
X127863968Y-83759131D01*
X127815423Y-83843214D01*
X127809216Y-83866381D01*
X127774500Y-83995943D01*
X127774500Y-84154057D01*
X127815423Y-84306784D01*
X127894480Y-84443716D01*
X128006284Y-84555520D01*
X128143216Y-84634577D01*
X128295943Y-84675500D01*
X128295945Y-84675500D01*
X128454055Y-84675500D01*
X128454057Y-84675500D01*
X128606784Y-84634577D01*
X128743716Y-84555520D01*
X128855520Y-84443716D01*
X128934577Y-84306784D01*
X128975500Y-84154057D01*
X128975500Y-83995943D01*
X128934577Y-83843216D01*
X128855520Y-83706284D01*
X128843381Y-83694145D01*
X128804496Y-83655259D01*
X128776719Y-83600742D01*
X128775500Y-83585256D01*
X128775500Y-83547275D01*
X128775499Y-83547269D01*
X128771216Y-83531284D01*
X128748207Y-83445412D01*
X128748205Y-83445409D01*
X128748205Y-83445407D01*
X128695483Y-83354091D01*
X128695482Y-83354090D01*
X128695481Y-83354089D01*
X128695480Y-83354087D01*
X126778617Y-81437224D01*
X126750840Y-81382707D01*
X126750551Y-81360546D01*
X126750500Y-81360546D01*
X126750500Y-81356667D01*
X126750469Y-81354293D01*
X126750500Y-81354057D01*
X126750500Y-81195944D01*
X126750500Y-81195943D01*
X126709577Y-81043216D01*
X126630520Y-80906284D01*
X126518716Y-80794480D01*
X126381784Y-80715423D01*
X126229057Y-80674500D01*
X126070943Y-80674500D01*
X125918216Y-80715423D01*
X125781284Y-80794480D01*
X125669480Y-80906284D01*
X125590423Y-81043216D01*
X125549500Y-81195943D01*
X124100500Y-81195943D01*
X124100500Y-78299500D01*
X124119407Y-78241309D01*
X124168907Y-78205345D01*
X124199500Y-78200500D01*
X129300500Y-78200500D01*
X129358691Y-78219407D01*
G37*
%TD.AperFunction*%
%TA.AperFunction,Conductor*%
G36*
X156002957Y-83572769D02*
G01*
X156031093Y-83572769D01*
X156033280Y-83574358D01*
X156035978Y-83574500D01*
X156057822Y-83592188D01*
X156080593Y-83608733D01*
X156081428Y-83611305D01*
X156083528Y-83613005D01*
X156099500Y-83666924D01*
X156099500Y-83679057D01*
X156133321Y-83805282D01*
X156130119Y-83866381D01*
X156107699Y-83900907D01*
X155004517Y-85004090D01*
X155004516Y-85004091D01*
X154951794Y-85095408D01*
X154951793Y-85095410D01*
X154939976Y-85139509D01*
X154939977Y-85139510D01*
X154924500Y-85197273D01*
X154924500Y-90893099D01*
X154905593Y-90951290D01*
X154895504Y-90963103D01*
X153913103Y-91945504D01*
X153858586Y-91973281D01*
X153843099Y-91974500D01*
X153352727Y-91974500D01*
X153247273Y-91974500D01*
X153184929Y-91991204D01*
X153145407Y-92001794D01*
X153054091Y-92054516D01*
X153054086Y-92054520D01*
X152458831Y-92649773D01*
X152445190Y-92656722D01*
X152434448Y-92667632D01*
X152420877Y-92669110D01*
X152404315Y-92677550D01*
X152374091Y-92677666D01*
X152368577Y-92676836D01*
X152266557Y-92649500D01*
X152186990Y-92649500D01*
X152179663Y-92648397D01*
X152158603Y-92637869D01*
X152136209Y-92630593D01*
X152125142Y-92621141D01*
X152124935Y-92621038D01*
X152124866Y-92620905D01*
X152124396Y-92620504D01*
X150528116Y-91024224D01*
X148881413Y-89377520D01*
X148881410Y-89377518D01*
X148881408Y-89377516D01*
X148790091Y-89324794D01*
X148790093Y-89324794D01*
X148750570Y-89314204D01*
X148688227Y-89297500D01*
X147636627Y-89297500D01*
X147531173Y-89297500D01*
X147468829Y-89314204D01*
X147429307Y-89324794D01*
X147337991Y-89377516D01*
X147337986Y-89377520D01*
X147072002Y-89643504D01*
X147017486Y-89671281D01*
X147001999Y-89672500D01*
X142564100Y-89672500D01*
X142505909Y-89653593D01*
X142494096Y-89643504D01*
X141556496Y-88705903D01*
X141528719Y-88651386D01*
X141527500Y-88635899D01*
X141527500Y-88377071D01*
X141546407Y-88318880D01*
X141595907Y-88282916D01*
X141652124Y-88281445D01*
X141657615Y-88282916D01*
X141668017Y-88285703D01*
X141668019Y-88285704D01*
X141668020Y-88285704D01*
X141826132Y-88285704D01*
X141826134Y-88285704D01*
X141978861Y-88244781D01*
X142115793Y-88165724D01*
X142115795Y-88165721D01*
X142119188Y-88163763D01*
X142168688Y-88150500D01*
X142502725Y-88150500D01*
X142502727Y-88150500D01*
X142604588Y-88123207D01*
X142604590Y-88123205D01*
X142604592Y-88123205D01*
X142695908Y-88070483D01*
X142695909Y-88070482D01*
X142695913Y-88070480D01*
X142695914Y-88070479D01*
X142736898Y-88029496D01*
X142791415Y-88001719D01*
X142806901Y-88000500D01*
X144152725Y-88000500D01*
X144152727Y-88000500D01*
X144254588Y-87973207D01*
X144254590Y-87973205D01*
X144254592Y-87973205D01*
X144345908Y-87920483D01*
X144345908Y-87920482D01*
X144345913Y-87920480D01*
X144845910Y-87420481D01*
X144845913Y-87420480D01*
X144920480Y-87345913D01*
X144962065Y-87273886D01*
X144973207Y-87254588D01*
X145000500Y-87152727D01*
X145000500Y-87047273D01*
X145000500Y-85989743D01*
X145019407Y-85931552D01*
X145029490Y-85919745D01*
X145080520Y-85868716D01*
X145159577Y-85731784D01*
X145200500Y-85579057D01*
X145200500Y-85420943D01*
X145174825Y-85325122D01*
X145178028Y-85264021D01*
X145216533Y-85216471D01*
X145270452Y-85200500D01*
X146765890Y-85200500D01*
X146765892Y-85200500D01*
X146893186Y-85166392D01*
X146893188Y-85166390D01*
X146893190Y-85166390D01*
X147007309Y-85100503D01*
X147007309Y-85100502D01*
X147007314Y-85100500D01*
X147100500Y-85007314D01*
X147102361Y-85004091D01*
X147166390Y-84893190D01*
X147166390Y-84893188D01*
X147166392Y-84893186D01*
X147200500Y-84765892D01*
X147200500Y-83699500D01*
X147219407Y-83641309D01*
X147268907Y-83605345D01*
X147299500Y-83600500D01*
X155865890Y-83600500D01*
X155865892Y-83600500D01*
X155974879Y-83571297D01*
X156002957Y-83572769D01*
G37*
%TD.AperFunction*%
%TD*%
M02*
