M48
; DRILL file {KiCad 9.0.4} date 2025-09-19T11:19:29+0100
; FORMAT={-:-/ absolute / metric / decimal}
; #@! TF.CreationDate,2025-09-19T11:19:29+01:00
; #@! TF.GenerationSoftware,Kicad,Pcbnew,9.0.4
; #@! TF.FileFunction,Plated,1,2,PTH
FMAT,2
METRIC
; #@! TA.AperFunction,Plated,PTH,ViaDrill
T1C0.300
; #@! TA.AperFunction,Plated,PTH,ComponentDrill
T2C0.650
; #@! TA.AperFunction,Plated,PTH,ComponentDrill
T3C1.000
%
G90
G05
T1
X124.6Y-87.125
X124.75Y-91.275
X124.9Y-106.9
X125.6Y-84.0
X126.15Y-81.275
X127.1Y-90.2
X127.475Y-92.925
X127.5Y-105.9
X128.375Y-84.075
X128.5Y-98.4
X128.625Y-100.1
X128.875Y-99.25
X129.475Y-95.024
X129.7Y-90.2
X129.875Y-89.05
X130.4Y-98.8
X130.425Y-97.949
X131.375Y-95.525
X131.4Y-88.8
X131.4Y-90.1
X131.45Y-94.375
X131.501Y-99.3
X132.25Y-98.5
X132.625Y-86.75
X133.2Y-90.1
X133.2Y-98.8
X134.0Y-98.8
X134.4Y-90.1
X135.0Y-99.0
X135.5Y-90.1
X136.1Y-99.0
X136.9Y-88.9
X137.4Y-90.0
X137.9Y-88.9
X138.3Y-83.9
X138.55Y-86.7
X139.1Y-88.5
X139.2Y-90.0
X140.901Y-90.599
X141.747Y-87.685
X144.175Y-94.3
X144.175Y-95.425
X144.2Y-93.125
X144.6Y-85.5
X145.325Y-87.55
X145.5Y-88.6
X145.9Y-92.4
X146.6Y-93.6
X146.6Y-94.5
X146.6Y-95.5
X146.7Y-88.425
X147.65Y-87.55
X147.984Y-91.532
X148.0Y-90.7
X148.0Y-92.8
X148.0Y-94.3
X148.3Y-88.8
X148.35Y-95.5
X149.025Y-94.275
X149.4Y-88.8
X150.225Y-87.55
X150.775Y-93.875
X150.875Y-92.975
X150.9Y-90.0
X151.9Y-87.525
X152.0Y-90.0
X152.188Y-93.25
X152.2Y-91.325
X153.1Y-90.0
X153.475Y-87.525
X153.75Y-93.125
X154.025Y-90.925
X154.175Y-89.025
X154.6Y-95.45
X155.425Y-94.2
X156.053Y-89.15
X156.7Y-83.6
X156.8Y-95.425
X156.925Y-90.875
X157.3Y-87.1
X157.4Y-92.85
X158.0Y-81.4
X158.5Y-91.2
X158.625Y-87.25
X158.875Y-94.45
X158.9Y-83.7
X159.375Y-92.85
X159.5Y-90.1
X159.925Y-83.875
X160.8Y-94.325
X160.825Y-91.325
T2
X150.8Y-94.9
X152.07Y-94.9
X153.34Y-94.9
T3
X124.8Y-93.8
X128.45Y-109.525
X129.9Y-79.6
X130.1Y-102.6
X139.3Y-94.7
X144.4Y-98.075
X155.8Y-79.6
X160.65Y-96.6
M30
