%TF.GenerationSoftware,KiCad,Pcbnew,9.0.4*%
%TF.CreationDate,2025-09-19T11:19:37+01:00*%
%TF.ProjectId,batt_switch_evm,62617474-5f73-4776-9974-63685f65766d,rev?*%
%TF.SameCoordinates,Original*%
%TF.FileFunction,Copper,L1,Top*%
%TF.FilePolarity,Positive*%
%FSLAX46Y46*%
G04 Gerber Fmt 4.6, Leading zero omitted, Abs format (unit mm)*
G04 Created by KiCad (PCBNEW 9.0.4) date 2025-09-19 11:19:37*
%MOMM*%
%LPD*%
G01*
G04 APERTURE LIST*
G04 Aperture macros list*
%AMRoundRect*
0 Rectangle with rounded corners*
0 $1 Rounding radius*
0 $2 $3 $4 $5 $6 $7 $8 $9 X,Y pos of 4 corners*
0 Add a 4 corners polygon primitive as box body*
4,1,4,$2,$3,$4,$5,$6,$7,$8,$9,$2,$3,0*
0 Add four circle primitives for the rounded corners*
1,1,$1+$1,$2,$3*
1,1,$1+$1,$4,$5*
1,1,$1+$1,$6,$7*
1,1,$1+$1,$8,$9*
0 Add four rect primitives between the rounded corners*
20,1,$1+$1,$2,$3,$4,$5,0*
20,1,$1+$1,$4,$5,$6,$7,0*
20,1,$1+$1,$6,$7,$8,$9,0*
20,1,$1+$1,$8,$9,$2,$3,0*%
G04 Aperture macros list end*
%TA.AperFunction,ComponentPad*%
%ADD10R,1.700000X1.700000*%
%TD*%
%TA.AperFunction,SMDPad,CuDef*%
%ADD11RoundRect,0.100000X-0.100000X0.637500X-0.100000X-0.637500X0.100000X-0.637500X0.100000X0.637500X0*%
%TD*%
%TA.AperFunction,SMDPad,CuDef*%
%ADD12RoundRect,0.200000X-0.275000X0.200000X-0.275000X-0.200000X0.275000X-0.200000X0.275000X0.200000X0*%
%TD*%
%TA.AperFunction,SMDPad,CuDef*%
%ADD13RoundRect,0.225000X-0.225000X-0.250000X0.225000X-0.250000X0.225000X0.250000X-0.225000X0.250000X0*%
%TD*%
%TA.AperFunction,SMDPad,CuDef*%
%ADD14RoundRect,0.225000X-0.250000X0.225000X-0.250000X-0.225000X0.250000X-0.225000X0.250000X0.225000X0*%
%TD*%
%TA.AperFunction,SMDPad,CuDef*%
%ADD15RoundRect,0.200000X-0.200000X-0.275000X0.200000X-0.275000X0.200000X0.275000X-0.200000X0.275000X0*%
%TD*%
%TA.AperFunction,SMDPad,CuDef*%
%ADD16RoundRect,0.250000X-1.100000X0.325000X-1.100000X-0.325000X1.100000X-0.325000X1.100000X0.325000X0*%
%TD*%
%TA.AperFunction,SMDPad,CuDef*%
%ADD17RoundRect,0.250000X-0.250000X-0.475000X0.250000X-0.475000X0.250000X0.475000X-0.250000X0.475000X0*%
%TD*%
%TA.AperFunction,SMDPad,CuDef*%
%ADD18RoundRect,0.140000X-0.140000X-0.170000X0.140000X-0.170000X0.140000X0.170000X-0.140000X0.170000X0*%
%TD*%
%TA.AperFunction,ComponentPad*%
%ADD19R,1.000000X1.000000*%
%TD*%
%TA.AperFunction,ComponentPad*%
%ADD20C,1.000000*%
%TD*%
%TA.AperFunction,SMDPad,CuDef*%
%ADD21RoundRect,0.200000X0.275000X-0.200000X0.275000X0.200000X-0.275000X0.200000X-0.275000X-0.200000X0*%
%TD*%
%TA.AperFunction,SMDPad,CuDef*%
%ADD22RoundRect,0.250000X-0.325000X-1.100000X0.325000X-1.100000X0.325000X1.100000X-0.325000X1.100000X0*%
%TD*%
%TA.AperFunction,SMDPad,CuDef*%
%ADD23R,0.482600X0.304800*%
%TD*%
%TA.AperFunction,SMDPad,CuDef*%
%ADD24R,0.736600X0.304800*%
%TD*%
%TA.AperFunction,SMDPad,CuDef*%
%ADD25R,0.304800X0.457200*%
%TD*%
%TA.AperFunction,SMDPad,CuDef*%
%ADD26RoundRect,0.250000X-0.475000X0.250000X-0.475000X-0.250000X0.475000X-0.250000X0.475000X0.250000X0*%
%TD*%
%TA.AperFunction,SMDPad,CuDef*%
%ADD27RoundRect,0.050000X0.285000X0.100000X-0.285000X0.100000X-0.285000X-0.100000X0.285000X-0.100000X0*%
%TD*%
%TA.AperFunction,ViaPad*%
%ADD28C,0.600000*%
%TD*%
%TA.AperFunction,Conductor*%
%ADD29C,0.200000*%
%TD*%
%TA.AperFunction,Conductor*%
%ADD30C,0.300000*%
%TD*%
G04 APERTURE END LIST*
D10*
%TO.P,J3,1,Pin_1*%
%TO.N,BATT2_IN*%
X155800000Y-79600000D03*
%TD*%
D11*
%TO.P,U3,16,IN-*%
%TO.N,+BATT1*%
X129025000Y-88300000D03*
%TO.P,U3,15,IN-*%
X128375000Y-88300000D03*
%TO.P,U3,14,IN-*%
X127725000Y-88300000D03*
%TO.P,U3,13,NC*%
%TO.N,unconnected-(U3-NC-Pad13)*%
X127075000Y-88300000D03*
%TO.P,U3,12,VBUS*%
%TO.N,BATT1_IN*%
X126425000Y-88300000D03*
%TO.P,U3,11,GND*%
%TO.N,GND*%
X125775000Y-88300000D03*
%TO.P,U3,10,VS*%
%TO.N,+3.3V*%
X125125000Y-88300000D03*
%TO.P,U3,9,SCL*%
%TO.N,MSCL*%
X124475000Y-88300000D03*
%TO.P,U3,8,SDA*%
%TO.N,MSDA*%
X124475000Y-82575000D03*
%TO.P,U3,7,ALERT*%
%TO.N,unconnected-(U3-ALERT-Pad7)*%
X125125000Y-82575000D03*
%TO.P,U3,6,GND*%
%TO.N,GND*%
X125775000Y-82575000D03*
%TO.P,U3,5,A0*%
%TO.N,+3.3V*%
X126425000Y-82575000D03*
%TO.P,U3,4,A1*%
X127075000Y-82575000D03*
%TO.P,U3,3,IN+*%
%TO.N,BATT1_IN*%
X127725000Y-82575000D03*
%TO.P,U3,2,IN+*%
X128375000Y-82575000D03*
%TO.P,U3,1,IN+*%
X129025000Y-82575000D03*
%TD*%
D12*
%TO.P,R3,1*%
%TO.N,+5V_IN*%
X128500000Y-93550000D03*
%TO.P,R3,2*%
%TO.N,Net-(U4-QOD)*%
X128500000Y-95200000D03*
%TD*%
D10*
%TO.P,J7,1,Pin_1*%
%TO.N,BATT_ST*%
X160650000Y-96600000D03*
%TD*%
%TO.P,J4,1,Pin_1*%
%TO.N,GND*%
X144400000Y-98075000D03*
%TD*%
%TO.P,J5,1,Pin_1*%
%TO.N,+VBAT*%
X139300000Y-94700000D03*
%TD*%
%TO.P,J1,1,Pin_1*%
%TO.N,BATT1_IN*%
X129900000Y-79600000D03*
%TD*%
%TO.P,J6,1,Pin_1*%
%TO.N,BATT_SW*%
X124800000Y-93800000D03*
%TD*%
D13*
%TO.P,C6,1*%
%TO.N,+VBAT*%
X143025000Y-90100000D03*
%TO.P,C6,2*%
%TO.N,GND*%
X144575000Y-90100000D03*
%TD*%
D14*
%TO.P,C4,1*%
%TO.N,+BATT2*%
X146700000Y-85900000D03*
%TO.P,C4,2*%
%TO.N,GND*%
X146700000Y-87450000D03*
%TD*%
D13*
%TO.P,C1,1*%
%TO.N,+3.3V*%
X124725000Y-90175000D03*
%TO.P,C1,2*%
%TO.N,GND*%
X126275000Y-90175000D03*
%TD*%
%TO.P,C9,1*%
%TO.N,+3.3V*%
X156925000Y-90125000D03*
%TO.P,C9,2*%
%TO.N,GND*%
X158475000Y-90125000D03*
%TD*%
D15*
%TO.P,R5,1*%
%TO.N,GND*%
X125850000Y-106900000D03*
%TO.P,R5,2*%
%TO.N,5V_EN*%
X127500000Y-106900000D03*
%TD*%
%TO.P,R4,1*%
%TO.N,+5V_IN*%
X130550000Y-93600000D03*
%TO.P,R4,2*%
%TO.N,Net-(U4-PG)*%
X132200000Y-93600000D03*
%TD*%
D16*
%TO.P,C10,1*%
%TO.N,+BATT1*%
X134400000Y-86025000D03*
%TO.P,C10,2*%
%TO.N,GND*%
X134400000Y-88975000D03*
%TD*%
D17*
%TO.P,C7,1*%
%TO.N,+VBAT*%
X143050000Y-91900000D03*
%TO.P,C7,2*%
%TO.N,GND*%
X144950000Y-91900000D03*
%TD*%
D18*
%TO.P,C16,1*%
%TO.N,Net-(U4-CT)*%
X130120000Y-94950000D03*
%TO.P,C16,2*%
%TO.N,GND*%
X131080000Y-94950000D03*
%TD*%
D19*
%TO.P,J2,1,Pin_1*%
%TO.N,+3.3V*%
X150800000Y-94900000D03*
D20*
%TO.P,J2,2,Pin_2*%
%TO.N,MSDA*%
X152070000Y-94900000D03*
%TO.P,J2,3,Pin_3*%
%TO.N,MSCL*%
X153340000Y-94900000D03*
%TD*%
D14*
%TO.P,C15,1*%
%TO.N,+VBAT*%
X133600000Y-96200000D03*
%TO.P,C15,2*%
%TO.N,GND*%
X133600000Y-97750000D03*
%TD*%
D21*
%TO.P,R2,1*%
%TO.N,BATT_ST*%
X131700000Y-87525000D03*
%TO.P,R2,2*%
%TO.N,+BATT1*%
X131700000Y-85875000D03*
%TD*%
D14*
%TO.P,C12,1*%
%TO.N,+BATT1*%
X139500000Y-85925000D03*
%TO.P,C12,2*%
%TO.N,GND*%
X139500000Y-87475000D03*
%TD*%
D22*
%TO.P,C8,1*%
%TO.N,+VBAT*%
X142525000Y-94600000D03*
%TO.P,C8,2*%
%TO.N,GND*%
X145475000Y-94600000D03*
%TD*%
D23*
%TO.P,U4,1,VBIAS*%
%TO.N,+VBAT*%
X132125000Y-97650000D03*
D24*
%TO.P,U4,2,VIN*%
X131994201Y-97150000D03*
%TO.P,U4,3,VIN*%
X131994201Y-96650000D03*
D23*
%TO.P,U4,4,PG*%
%TO.N,Net-(U4-PG)*%
X132125000Y-96150000D03*
D25*
%TO.P,U4,5,GND*%
%TO.N,GND*%
X131562500Y-96073799D03*
D23*
%TO.P,U4,6,QOD*%
%TO.N,Net-(U4-QOD)*%
X131000000Y-96150000D03*
D24*
%TO.P,U4,7,VOUT*%
%TO.N,+5V_IN*%
X131130799Y-96650000D03*
%TO.P,U4,8,VOUT*%
X131130799Y-97150000D03*
D23*
%TO.P,U4,9,CT*%
%TO.N,Net-(U4-CT)*%
X131000000Y-97650000D03*
D25*
%TO.P,U4,10,ON*%
%TO.N,5V_EN*%
X131562500Y-97726201D03*
%TD*%
D11*
%TO.P,U1,1,IN+*%
%TO.N,BATT2_IN*%
X161225000Y-82550000D03*
%TO.P,U1,2,IN+*%
X160575000Y-82550000D03*
%TO.P,U1,3,IN+*%
X159925000Y-82550000D03*
%TO.P,U1,4,A1*%
%TO.N,+3.3V*%
X159275000Y-82550000D03*
%TO.P,U1,5,A0*%
X158625000Y-82550000D03*
%TO.P,U1,6,GND*%
%TO.N,GND*%
X157975000Y-82550000D03*
%TO.P,U1,7,ALERT*%
%TO.N,unconnected-(U1-ALERT-Pad7)*%
X157325000Y-82550000D03*
%TO.P,U1,8,SDA*%
%TO.N,MSDA*%
X156675000Y-82550000D03*
%TO.P,U1,9,SCL*%
%TO.N,MSCL*%
X156675000Y-88275000D03*
%TO.P,U1,10,VS*%
%TO.N,+3.3V*%
X157325000Y-88275000D03*
%TO.P,U1,11,GND*%
%TO.N,GND*%
X157975000Y-88275000D03*
%TO.P,U1,12,VBUS*%
%TO.N,BATT2_IN*%
X158625000Y-88275000D03*
%TO.P,U1,13,NC*%
%TO.N,unconnected-(U1-NC-Pad13)*%
X159275000Y-88275000D03*
%TO.P,U1,14,IN-*%
%TO.N,+BATT2*%
X159925000Y-88275000D03*
%TO.P,U1,15,IN-*%
X160575000Y-88275000D03*
%TO.P,U1,16,IN-*%
X161225000Y-88275000D03*
%TD*%
D26*
%TO.P,C3,1*%
%TO.N,+BATT2*%
X148900000Y-85900000D03*
%TO.P,C3,2*%
%TO.N,GND*%
X148900000Y-87800000D03*
%TD*%
%TO.P,C13,1*%
%TO.N,+VBAT*%
X135500000Y-96000000D03*
%TO.P,C13,2*%
%TO.N,GND*%
X135500000Y-97900000D03*
%TD*%
D14*
%TO.P,C14,1*%
%TO.N,+5V_IN*%
X129500000Y-96900000D03*
%TO.P,C14,2*%
%TO.N,GND*%
X129500000Y-98450000D03*
%TD*%
D27*
%TO.P,U2,1,GND*%
%TO.N,GND*%
X143640000Y-87050000D03*
%TO.P,U2,2,VOUT*%
%TO.N,+VBAT*%
X143640000Y-86550000D03*
%TO.P,U2,3,VIN1*%
%TO.N,+BATT2*%
X143640000Y-86050000D03*
%TO.P,U2,4,PR1*%
%TO.N,BATT_SW*%
X143640000Y-85550000D03*
%TO.P,U2,5,MODE*%
%TO.N,+BATT1*%
X142160000Y-85550000D03*
%TO.P,U2,6,VIN2*%
X142160000Y-86050000D03*
%TO.P,U2,7,VOUT*%
%TO.N,+VBAT*%
X142160000Y-86550000D03*
%TO.P,U2,8,ST*%
%TO.N,BATT_ST*%
X142160000Y-87050000D03*
%TD*%
D21*
%TO.P,R1,1*%
%TO.N,BATT_SW*%
X128000000Y-91950000D03*
%TO.P,R1,2*%
%TO.N,GND*%
X128000000Y-90300000D03*
%TD*%
D26*
%TO.P,C11,1*%
%TO.N,+BATT1*%
X137400000Y-85950000D03*
%TO.P,C11,2*%
%TO.N,GND*%
X137400000Y-87850000D03*
%TD*%
D16*
%TO.P,C2,1*%
%TO.N,+BATT2*%
X151950000Y-86000000D03*
%TO.P,C2,2*%
%TO.N,GND*%
X151950000Y-88950000D03*
%TD*%
D13*
%TO.P,C5,1*%
%TO.N,+VBAT*%
X143050000Y-88500000D03*
%TO.P,C5,2*%
%TO.N,GND*%
X144600000Y-88500000D03*
%TD*%
D10*
%TO.P,J8,1,Pin_1*%
%TO.N,+5V_IN*%
X130100000Y-102600000D03*
%TD*%
%TO.P,J9,1,Pin_1*%
%TO.N,5V_EN*%
X128450000Y-109525000D03*
%TD*%
D28*
%TO.N,GND*%
X131375000Y-95525000D03*
X154600000Y-95450000D03*
X156800000Y-95425000D03*
X155425000Y-94200000D03*
X158875000Y-94450000D03*
X160800000Y-94325000D03*
X160825000Y-91325000D03*
X159375000Y-92850000D03*
X157400000Y-92850000D03*
X148350000Y-95500000D03*
X149025000Y-94275000D03*
X152200000Y-91325000D03*
X154025000Y-90925000D03*
X154175000Y-89025000D03*
X153475000Y-87525000D03*
X151900000Y-87525000D03*
X150225000Y-87550000D03*
X147650000Y-87550000D03*
X144175000Y-95425000D03*
X144175000Y-94300000D03*
X144200000Y-93125000D03*
X145900000Y-92400000D03*
X128625000Y-100100000D03*
X132250000Y-98500000D03*
X131450000Y-94375000D03*
%TO.N,MSDA*%
X138300000Y-83900000D03*
X126150000Y-81275000D03*
X128375000Y-84075000D03*
%TO.N,MSCL*%
X124600000Y-87125000D03*
X132625000Y-86750000D03*
X129875000Y-89050000D03*
X150875000Y-92975000D03*
%TO.N,BATT_ST*%
X138550000Y-86700000D03*
%TO.N,MSDA*%
X156700000Y-83600000D03*
X152187500Y-93250000D03*
%TO.N,MSCL*%
X156052880Y-89150000D03*
X153750000Y-93125000D03*
%TO.N,+3.3V*%
X140900735Y-90599265D03*
X124750000Y-91275000D03*
X127475000Y-92925000D03*
X147983577Y-91532107D03*
X150775000Y-93875000D03*
%TO.N,BATT2_IN*%
X159925000Y-83875000D03*
X158625000Y-87250000D03*
%TO.N,GND*%
X125600000Y-84000000D03*
X158000000Y-81400000D03*
%TO.N,+3.3V*%
X157300000Y-87100000D03*
X158900000Y-83700000D03*
X156925000Y-90875000D03*
%TO.N,BATT_ST*%
X148000000Y-90700000D03*
%TO.N,GND*%
X158500000Y-91200000D03*
X159500000Y-90100000D03*
X148000000Y-94300000D03*
X148000000Y-92800000D03*
X153100000Y-90000000D03*
X152000000Y-90000000D03*
X150900000Y-90000000D03*
X149400000Y-88800000D03*
X148300000Y-88800000D03*
X146600000Y-95500000D03*
X146600000Y-94500000D03*
X146600000Y-93600000D03*
X146700000Y-88425000D03*
X145500000Y-88600000D03*
X145325000Y-87550000D03*
X136900000Y-88900000D03*
X134000000Y-98800000D03*
X130400000Y-98800000D03*
X128500000Y-98400000D03*
X127100000Y-90200000D03*
X124900000Y-106900000D03*
X136100000Y-99000000D03*
X133200000Y-90100000D03*
X135000000Y-99000000D03*
X129700000Y-90200000D03*
X131400000Y-88800000D03*
X131400000Y-90100000D03*
X135500000Y-90100000D03*
X133200000Y-98800000D03*
X139200000Y-90000000D03*
X137900000Y-88900000D03*
X137400000Y-90000000D03*
X134400000Y-90100000D03*
X128875000Y-99250000D03*
X139100000Y-88500000D03*
%TO.N,Net-(U4-CT)*%
X129475000Y-95023679D03*
X130425338Y-97949412D03*
%TO.N,BATT_SW*%
X144600000Y-85500000D03*
X141747077Y-87685204D03*
%TO.N,5V_EN*%
X127500000Y-105900000D03*
X131501000Y-99300000D03*
%TD*%
D29*
%TO.N,+5V_IN*%
X128500000Y-93550000D02*
X128500000Y-94000000D01*
X128500000Y-94000000D02*
X128200000Y-94300000D01*
X130550000Y-93600000D02*
X130000000Y-93600000D01*
X130000000Y-93600000D02*
X129300000Y-94300000D01*
X129300000Y-94300000D02*
X128200000Y-94300000D01*
X128200000Y-94300000D02*
X127700000Y-94800000D01*
X127700000Y-94800000D02*
X127700000Y-95200000D01*
%TO.N,Net-(U4-CT)*%
X129662396Y-95023679D02*
X129736075Y-94950000D01*
X129475000Y-95023679D02*
X129662396Y-95023679D01*
X129736075Y-94950000D02*
X130120000Y-94950000D01*
%TO.N,5V_EN*%
X131501000Y-99300000D02*
X131562500Y-99238500D01*
X131562500Y-99238500D02*
X131562500Y-97726201D01*
D30*
%TO.N,+3.3V*%
X127475000Y-92925000D02*
X127699000Y-92701000D01*
X127699000Y-92701000D02*
X128508774Y-92701000D01*
X128659774Y-92550000D02*
X131087810Y-92550000D01*
X128508774Y-92701000D02*
X128659774Y-92550000D01*
X131087810Y-92550000D02*
X132262810Y-91375000D01*
X132262810Y-91375000D02*
X139625000Y-91375000D01*
X139625000Y-91375000D02*
X140400735Y-90599265D01*
X140400735Y-90599265D02*
X140900735Y-90599265D01*
D29*
%TO.N,MSDA*%
X128375000Y-84075000D02*
X128375000Y-83812500D01*
X128486500Y-83701000D02*
X138101000Y-83701000D01*
X128375000Y-83812500D02*
X128486500Y-83701000D01*
X138101000Y-83701000D02*
X138300000Y-83900000D01*
X124475000Y-81600000D02*
X124475000Y-82575000D01*
X126150000Y-81275000D02*
X124800000Y-81275000D01*
X124800000Y-81275000D02*
X124475000Y-81600000D01*
%TO.N,MSCL*%
X124600000Y-88175000D02*
X124475000Y-88300000D01*
X124600000Y-87125000D02*
X124600000Y-88175000D01*
D30*
%TO.N,+3.3V*%
X125125000Y-88300000D02*
X125224000Y-88201000D01*
X125224000Y-88201000D02*
X125224000Y-87472918D01*
X125224000Y-87472918D02*
X125475000Y-87221918D01*
X125475000Y-87221918D02*
X125475000Y-85625000D01*
X125475000Y-85625000D02*
X126425000Y-84675000D01*
D29*
%TO.N,MSCL*%
X130775000Y-86750000D02*
X129925000Y-87600000D01*
X132625000Y-86750000D02*
X130775000Y-86750000D01*
X129925000Y-89000000D02*
X129875000Y-89050000D01*
X129925000Y-87600000D02*
X129925000Y-89000000D01*
%TO.N,BATT_ST*%
X138550000Y-86700000D02*
X138161160Y-86700000D01*
X138161160Y-86700000D02*
X137812160Y-87049000D01*
X137812160Y-87049000D02*
X136689840Y-87049000D01*
X131875000Y-87350000D02*
X131700000Y-87525000D01*
X136689840Y-87049000D02*
X136388840Y-87350000D01*
X136388840Y-87350000D02*
X131875000Y-87350000D01*
%TO.N,MSCL*%
X151300000Y-92975000D02*
X151626000Y-92649000D01*
X151626000Y-92649000D02*
X153274000Y-92649000D01*
X150875000Y-92975000D02*
X151300000Y-92975000D01*
X153274000Y-92649000D02*
X153750000Y-93125000D01*
%TO.N,BATT_SW*%
X141600000Y-88725000D02*
X139450000Y-90875000D01*
X141600000Y-87750013D02*
X141600000Y-88725000D01*
X141747077Y-87685204D02*
X141664809Y-87685204D01*
X141664809Y-87685204D02*
X141600000Y-87750013D01*
X131050000Y-91950000D02*
X128000000Y-91950000D01*
X139450000Y-90875000D02*
X132125000Y-90875000D01*
X132125000Y-90875000D02*
X131050000Y-91950000D01*
%TO.N,MSDA*%
X152187500Y-93487500D02*
X152070000Y-93605000D01*
X152070000Y-93605000D02*
X152070000Y-94900000D01*
X152187500Y-93250000D02*
X152187500Y-93487500D01*
%TO.N,BATT_ST*%
X148000000Y-90700000D02*
X149500000Y-92200000D01*
X149500000Y-92200000D02*
X155000000Y-92200000D01*
X155000000Y-92200000D02*
X158799000Y-95999000D01*
X158799000Y-95999000D02*
X160650000Y-95999000D01*
X140227849Y-86700000D02*
X138550000Y-86700000D01*
%TO.N,MSDA*%
X156700000Y-83600000D02*
X156700000Y-82575000D01*
X156700000Y-82575000D02*
X156675000Y-82550000D01*
D30*
%TO.N,+3.3V*%
X156925000Y-90875000D02*
X156925000Y-90125000D01*
D29*
%TO.N,MSCL*%
X156052880Y-89150000D02*
X156052880Y-88897120D01*
X156052880Y-88897120D02*
X156675000Y-88275000D01*
X153340000Y-94900000D02*
X153340000Y-93535000D01*
X153340000Y-93535000D02*
X153750000Y-93125000D01*
D30*
%TO.N,+3.3V*%
X124750000Y-90200000D02*
X124725000Y-90175000D01*
X124750000Y-91275000D02*
X124750000Y-90200000D01*
X150326470Y-93875000D02*
X147983577Y-91532107D01*
X150775000Y-93875000D02*
X150326470Y-93875000D01*
X150775000Y-93875000D02*
X150775000Y-94875000D01*
X150775000Y-94875000D02*
X150800000Y-94900000D01*
X156925000Y-90125000D02*
X157325000Y-89725000D01*
X157325000Y-88275000D02*
X157325000Y-89725000D01*
%TO.N,GND*%
X157975000Y-88275000D02*
X157975000Y-89625000D01*
X157975000Y-89625000D02*
X158475000Y-90125000D01*
%TO.N,BATT2_IN*%
X158625000Y-88275000D02*
X158625000Y-87250000D01*
X159925000Y-83875000D02*
X159925000Y-82550000D01*
%TO.N,BATT1_IN*%
X126425000Y-88300000D02*
X126425000Y-85600000D01*
X126425000Y-85600000D02*
X127725000Y-84300000D01*
X127725000Y-84300000D02*
X127725000Y-82575000D01*
%TO.N,GND*%
X125775000Y-83825000D02*
X125600000Y-84000000D01*
X125775000Y-82575000D02*
X125775000Y-83825000D01*
X125775000Y-88300000D02*
X125775000Y-89675000D01*
X125775000Y-89675000D02*
X126275000Y-90175000D01*
%TO.N,+3.3V*%
X127075000Y-82575000D02*
X127075000Y-84025000D01*
X127075000Y-84025000D02*
X126425000Y-84675000D01*
X126425000Y-84675000D02*
X126425000Y-82575000D01*
X124725000Y-90175000D02*
X125125000Y-89775000D01*
X125125000Y-89775000D02*
X125125000Y-88300000D01*
D29*
%TO.N,GND*%
X157975000Y-81425000D02*
X158000000Y-81400000D01*
X157975000Y-82550000D02*
X157975000Y-81425000D01*
%TO.N,+3.3V*%
X158625000Y-82550000D02*
X158625000Y-83425000D01*
X158625000Y-83425000D02*
X158900000Y-83700000D01*
X159275000Y-82550000D02*
X159275000Y-83325000D01*
X159275000Y-83325000D02*
X158900000Y-83700000D01*
%TO.N,GND*%
X125850000Y-106900000D02*
X124900000Y-106900000D01*
%TO.N,+5V_IN*%
X128750000Y-93600000D02*
X128700000Y-93550000D01*
%TO.N,Net-(U4-CT)*%
X130724750Y-97650000D02*
X130425338Y-97949412D01*
X131000000Y-97650000D02*
X130724750Y-97650000D01*
%TO.N,BATT_SW*%
X127451000Y-91950000D02*
X125601000Y-93800000D01*
X143690000Y-85500000D02*
X143640000Y-85550000D01*
X128000000Y-91950000D02*
X127451000Y-91950000D01*
X144600000Y-85500000D02*
X143690000Y-85500000D01*
%TO.N,5V_EN*%
X127500000Y-105900000D02*
X127500000Y-106900000D01*
X127500000Y-107974000D02*
X128450000Y-108924000D01*
X127500000Y-106900000D02*
X127500000Y-107974000D01*
%TO.N,Net-(U4-QOD)*%
X129300000Y-95800000D02*
X130100000Y-95800000D01*
X128700000Y-95200000D02*
X129300000Y-95800000D01*
X130450000Y-96150000D02*
X131000000Y-96150000D01*
X130100000Y-95800000D02*
X130450000Y-96150000D01*
%TO.N,Net-(U4-PG)*%
X132200000Y-93800000D02*
X132125000Y-93875000D01*
X132200000Y-93600000D02*
X132200000Y-93800000D01*
X132125000Y-93875000D02*
X132125000Y-96150000D01*
%TO.N,BATT_ST*%
X142160000Y-87050000D02*
X140577849Y-87050000D01*
X140577849Y-87050000D02*
X140227849Y-86700000D01*
%TO.N,+3.3V*%
X157300000Y-88250000D02*
X157325000Y-88275000D01*
X157300000Y-87100000D02*
X157300000Y-88250000D01*
%TD*%
%TA.AperFunction,Conductor*%
%TO.N,GND*%
G36*
X156043039Y-86919685D02*
G01*
X156088794Y-86972489D01*
X156100000Y-87024000D01*
X156100000Y-88232244D01*
X156080315Y-88299283D01*
X156063681Y-88319925D01*
X155766600Y-88617005D01*
X155740921Y-88636710D01*
X155684167Y-88669478D01*
X155684161Y-88669482D01*
X155572361Y-88781282D01*
X155572355Y-88781290D01*
X155493306Y-88918209D01*
X155493303Y-88918216D01*
X155452380Y-89070943D01*
X155452380Y-89229057D01*
X155485908Y-89354183D01*
X155493303Y-89381783D01*
X155493306Y-89381790D01*
X155572355Y-89518709D01*
X155572359Y-89518714D01*
X155572360Y-89518716D01*
X155684164Y-89630520D01*
X155684166Y-89630521D01*
X155684170Y-89630524D01*
X155821089Y-89709573D01*
X155821096Y-89709577D01*
X155973823Y-89750500D01*
X155973825Y-89750500D01*
X156050500Y-89750500D01*
X156117539Y-89770185D01*
X156163294Y-89822989D01*
X156174500Y-89874500D01*
X156174500Y-90416144D01*
X156179825Y-90460494D01*
X156184640Y-90500588D01*
X156237636Y-90634976D01*
X156270507Y-90678322D01*
X156293849Y-90709103D01*
X156299303Y-90716294D01*
X156324127Y-90781605D01*
X156324500Y-90791220D01*
X156324500Y-90795943D01*
X156324500Y-90954057D01*
X156345406Y-91032077D01*
X156365423Y-91106783D01*
X156365426Y-91106790D01*
X156444475Y-91243709D01*
X156444479Y-91243714D01*
X156444480Y-91243716D01*
X156556284Y-91355520D01*
X156556286Y-91355521D01*
X156556290Y-91355524D01*
X156693209Y-91434573D01*
X156693216Y-91434577D01*
X156845943Y-91475500D01*
X156845945Y-91475500D01*
X157004055Y-91475500D01*
X157004057Y-91475500D01*
X157156784Y-91434577D01*
X157293716Y-91355520D01*
X157405520Y-91243716D01*
X157484577Y-91106784D01*
X157525500Y-90954057D01*
X157525500Y-90795943D01*
X157525500Y-90791220D01*
X157545185Y-90724181D01*
X157550697Y-90716294D01*
X157556151Y-90709103D01*
X157612364Y-90634975D01*
X157665359Y-90500590D01*
X157675500Y-90416144D01*
X157675500Y-90052141D01*
X157679649Y-90036653D01*
X157678995Y-90022908D01*
X157692112Y-89990142D01*
X157744798Y-89898887D01*
X157744799Y-89898886D01*
X157775500Y-89784309D01*
X157775500Y-89524000D01*
X157795185Y-89456961D01*
X157847989Y-89411206D01*
X157899500Y-89400000D01*
X161475500Y-89400000D01*
X161542539Y-89419685D01*
X161588294Y-89472489D01*
X161599500Y-89524000D01*
X161599500Y-95325500D01*
X161579815Y-95392539D01*
X161527011Y-95438294D01*
X161475500Y-95449500D01*
X159755143Y-95449500D01*
X159755117Y-95449502D01*
X159730012Y-95452413D01*
X159730008Y-95452415D01*
X159627235Y-95497793D01*
X159627234Y-95497794D01*
X159562848Y-95562181D01*
X159501525Y-95595666D01*
X159475167Y-95598500D01*
X159016255Y-95598500D01*
X158949216Y-95578815D01*
X158928574Y-95562181D01*
X155245915Y-91879522D01*
X155245913Y-91879520D01*
X155200250Y-91853156D01*
X155154589Y-91826793D01*
X155103657Y-91813146D01*
X155052727Y-91799500D01*
X155052726Y-91799500D01*
X149717255Y-91799500D01*
X149650216Y-91779815D01*
X149629574Y-91763181D01*
X148636819Y-90770426D01*
X148603334Y-90709103D01*
X148600500Y-90682745D01*
X148600500Y-90620945D01*
X148600500Y-90620943D01*
X148559577Y-90468216D01*
X148559573Y-90468209D01*
X148480524Y-90331290D01*
X148480518Y-90331282D01*
X148368717Y-90219481D01*
X148368709Y-90219475D01*
X148231790Y-90140426D01*
X148231786Y-90140424D01*
X148231784Y-90140423D01*
X148079057Y-90099500D01*
X147920943Y-90099500D01*
X147768216Y-90140423D01*
X147768209Y-90140426D01*
X147631290Y-90219475D01*
X147631282Y-90219481D01*
X147519481Y-90331282D01*
X147519475Y-90331290D01*
X147440426Y-90468209D01*
X147440423Y-90468216D01*
X147399500Y-90620943D01*
X147399500Y-90779057D01*
X147430692Y-90895465D01*
X147440423Y-90931783D01*
X147440423Y-90931784D01*
X147502803Y-91039831D01*
X147519274Y-91107731D01*
X147502803Y-91163829D01*
X147424000Y-91300322D01*
X147424000Y-91300323D01*
X147383077Y-91453050D01*
X147383077Y-91611163D01*
X147424000Y-91763890D01*
X147424003Y-91763897D01*
X147503052Y-91900816D01*
X147503056Y-91900821D01*
X147503057Y-91900823D01*
X147614861Y-92012627D01*
X147614863Y-92012628D01*
X147614867Y-92012631D01*
X147751786Y-92091680D01*
X147751793Y-92091684D01*
X147904520Y-92132607D01*
X147904522Y-92132607D01*
X147911676Y-92133549D01*
X147975573Y-92161814D01*
X147983174Y-92168807D01*
X149985834Y-94171467D01*
X150019319Y-94232790D01*
X150014335Y-94302482D01*
X150011588Y-94309233D01*
X150002415Y-94330006D01*
X150002415Y-94330008D01*
X149999500Y-94355131D01*
X149999500Y-95444856D01*
X149999502Y-95444882D01*
X150002413Y-95469987D01*
X150002415Y-95469991D01*
X150047793Y-95572764D01*
X150047794Y-95572765D01*
X150127235Y-95652206D01*
X150230009Y-95697585D01*
X150255135Y-95700500D01*
X151344864Y-95700499D01*
X151344879Y-95700497D01*
X151344882Y-95700497D01*
X151369987Y-95697586D01*
X151369988Y-95697585D01*
X151369991Y-95697585D01*
X151472765Y-95652206D01*
X151513813Y-95611157D01*
X151575134Y-95577673D01*
X151644825Y-95582657D01*
X151670378Y-95595734D01*
X151690821Y-95609394D01*
X151690823Y-95609395D01*
X151690825Y-95609396D01*
X151794179Y-95652206D01*
X151836503Y-95669737D01*
X151991143Y-95700497D01*
X151991153Y-95700499D01*
X151991156Y-95700500D01*
X151991158Y-95700500D01*
X152148844Y-95700500D01*
X152148845Y-95700499D01*
X152303497Y-95669737D01*
X152449179Y-95609394D01*
X152580289Y-95521789D01*
X152580292Y-95521786D01*
X152617319Y-95484760D01*
X152678642Y-95451275D01*
X152748334Y-95456259D01*
X152792681Y-95484760D01*
X152829707Y-95521786D01*
X152829711Y-95521789D01*
X152960814Y-95609390D01*
X152960827Y-95609397D01*
X153064179Y-95652206D01*
X153106503Y-95669737D01*
X153261143Y-95700497D01*
X153261153Y-95700499D01*
X153261156Y-95700500D01*
X153261158Y-95700500D01*
X153418844Y-95700500D01*
X153418845Y-95700499D01*
X153573497Y-95669737D01*
X153719179Y-95609394D01*
X153850289Y-95521789D01*
X153961789Y-95410289D01*
X154049394Y-95279179D01*
X154109737Y-95133497D01*
X154140500Y-94978842D01*
X154140500Y-94821158D01*
X154140500Y-94821155D01*
X154140499Y-94821153D01*
X154109738Y-94666510D01*
X154109737Y-94666503D01*
X154096319Y-94634108D01*
X154049397Y-94520827D01*
X154049390Y-94520814D01*
X153961789Y-94389711D01*
X153961786Y-94389707D01*
X153850292Y-94278213D01*
X153795608Y-94241674D01*
X153750804Y-94188061D01*
X153740500Y-94138572D01*
X153740500Y-93844376D01*
X153760185Y-93777337D01*
X153812989Y-93731582D01*
X153832392Y-93724606D01*
X153981784Y-93684577D01*
X154118716Y-93605520D01*
X154230520Y-93493716D01*
X154309577Y-93356784D01*
X154350500Y-93204057D01*
X154350500Y-93045943D01*
X154309577Y-92893216D01*
X154247964Y-92786499D01*
X154231492Y-92718599D01*
X154254345Y-92652573D01*
X154309266Y-92609382D01*
X154355352Y-92600500D01*
X154782745Y-92600500D01*
X154849784Y-92620185D01*
X154870426Y-92636819D01*
X158121426Y-95887819D01*
X158154911Y-95949142D01*
X158149927Y-96018834D01*
X158108055Y-96074767D01*
X158042591Y-96099184D01*
X158033745Y-96099500D01*
X144334108Y-96099500D01*
X144206812Y-96133608D01*
X144092686Y-96199500D01*
X144092683Y-96199502D01*
X143999502Y-96292683D01*
X143999500Y-96292686D01*
X143933608Y-96406812D01*
X143899500Y-96534108D01*
X143899500Y-99475500D01*
X143879815Y-99542539D01*
X143827011Y-99588294D01*
X143775500Y-99599500D01*
X142024500Y-99599500D01*
X141957461Y-99579815D01*
X141911706Y-99527011D01*
X141900500Y-99475500D01*
X141900500Y-97927953D01*
X141920185Y-97860914D01*
X141944510Y-97833204D01*
X143324330Y-96668421D01*
X143325512Y-96018114D01*
X143334157Y-95972856D01*
X143334358Y-95972345D01*
X143334361Y-95972342D01*
X143389877Y-95831564D01*
X143400500Y-95743102D01*
X143400500Y-93456898D01*
X143389877Y-93368436D01*
X143339292Y-93240161D01*
X143337946Y-93233045D01*
X143335606Y-93229389D01*
X143330646Y-93194450D01*
X143330933Y-93036641D01*
X143350740Y-92969641D01*
X143403627Y-92923982D01*
X143424546Y-92916651D01*
X143431559Y-92914878D01*
X143431560Y-92914877D01*
X143431564Y-92914877D01*
X143572342Y-92859361D01*
X143692922Y-92767922D01*
X143784361Y-92647342D01*
X143839877Y-92506564D01*
X143850500Y-92418102D01*
X143850500Y-91381898D01*
X143839877Y-91293436D01*
X143784361Y-91152658D01*
X143784360Y-91152657D01*
X143784360Y-91152656D01*
X143692922Y-91032077D01*
X143586873Y-90951658D01*
X143545349Y-90895465D01*
X143540798Y-90825744D01*
X143574663Y-90764630D01*
X143586873Y-90754050D01*
X143625078Y-90725078D01*
X143704045Y-90620945D01*
X143712364Y-90609975D01*
X143765359Y-90475590D01*
X143775500Y-90391144D01*
X143775500Y-89808856D01*
X143765359Y-89724410D01*
X143712364Y-89590025D01*
X143712363Y-89590024D01*
X143712363Y-89590023D01*
X143625078Y-89474921D01*
X143537202Y-89408283D01*
X143495678Y-89352090D01*
X143491127Y-89282369D01*
X143524992Y-89221255D01*
X143537202Y-89210675D01*
X143545488Y-89204392D01*
X143650078Y-89125078D01*
X143737364Y-89009975D01*
X143790359Y-88875590D01*
X143800500Y-88791144D01*
X143800500Y-88208856D01*
X143790359Y-88124410D01*
X143737364Y-87990025D01*
X143737363Y-87990024D01*
X143737363Y-87990023D01*
X143650078Y-87874921D01*
X143534976Y-87787636D01*
X143487179Y-87768787D01*
X143419278Y-87742010D01*
X143364136Y-87699106D01*
X143340943Y-87633198D01*
X143340771Y-87626472D01*
X143341684Y-87124273D01*
X143361491Y-87057271D01*
X143414378Y-87011612D01*
X143465684Y-87000500D01*
X143958261Y-87000500D01*
X143980971Y-86997191D01*
X144026393Y-86990573D01*
X144131483Y-86939198D01*
X144131485Y-86939196D01*
X144134363Y-86936319D01*
X144139266Y-86933641D01*
X144139847Y-86933227D01*
X144139897Y-86933297D01*
X144195686Y-86902834D01*
X144222044Y-86900000D01*
X155976000Y-86900000D01*
X156043039Y-86919685D01*
G37*
%TD.AperFunction*%
%TD*%
%TA.AperFunction,Conductor*%
%TO.N,+5V_IN*%
G36*
X127783691Y-95118907D02*
G01*
X127819655Y-95168407D01*
X127824500Y-95199000D01*
X127824500Y-95431520D01*
X127824501Y-95431523D01*
X127839352Y-95525299D01*
X127839354Y-95525304D01*
X127896950Y-95638342D01*
X127986658Y-95728050D01*
X128099696Y-95785646D01*
X128193481Y-95800500D01*
X128806518Y-95800499D01*
X128816265Y-95798955D01*
X128876695Y-95808522D01*
X128901760Y-95826731D01*
X129059540Y-95984511D01*
X129059539Y-95984511D01*
X129115489Y-96040460D01*
X129184007Y-96080019D01*
X129184011Y-96080021D01*
X129260435Y-96100499D01*
X129260437Y-96100500D01*
X129260438Y-96100500D01*
X129339562Y-96100500D01*
X129934521Y-96100500D01*
X129992712Y-96119407D01*
X130004524Y-96129496D01*
X130265488Y-96390459D01*
X130265493Y-96390463D01*
X130334008Y-96430020D01*
X130334006Y-96430020D01*
X130334010Y-96430021D01*
X130334012Y-96430022D01*
X130410438Y-96450500D01*
X130489562Y-96450500D01*
X130589426Y-96450500D01*
X130644428Y-96467185D01*
X130680469Y-96491267D01*
X130724931Y-96500111D01*
X130738941Y-96502898D01*
X130738946Y-96502898D01*
X130738952Y-96502900D01*
X130738953Y-96502900D01*
X131261047Y-96502900D01*
X131261048Y-96502900D01*
X131261049Y-96502899D01*
X131261055Y-96502899D01*
X131280855Y-96498960D01*
X131306389Y-96493881D01*
X131345030Y-96493883D01*
X131345739Y-96494025D01*
X131399114Y-96523932D01*
X131424717Y-96579502D01*
X131425401Y-96591117D01*
X131425401Y-96822150D01*
X131437045Y-96880686D01*
X131437045Y-96919314D01*
X131425401Y-96977849D01*
X131425401Y-97208881D01*
X131423556Y-97214559D01*
X131424727Y-97220414D01*
X131414247Y-97243207D01*
X131406494Y-97267072D01*
X131401662Y-97270582D01*
X131399169Y-97276006D01*
X131377297Y-97288284D01*
X131356994Y-97303036D01*
X131345816Y-97305958D01*
X131345116Y-97306098D01*
X131306386Y-97306118D01*
X131261058Y-97297101D01*
X131261048Y-97297100D01*
X130738952Y-97297100D01*
X130738951Y-97297100D01*
X130738941Y-97297101D01*
X130680472Y-97308732D01*
X130680466Y-97308734D01*
X130614151Y-97353045D01*
X130614145Y-97353051D01*
X130612172Y-97356005D01*
X130607543Y-97359653D01*
X130607255Y-97359942D01*
X130607220Y-97359907D01*
X130564121Y-97393882D01*
X130529859Y-97400000D01*
X128000000Y-97400000D01*
X128000000Y-98332241D01*
X127999500Y-98334108D01*
X127999500Y-98465892D01*
X128000000Y-98467758D01*
X128000000Y-100700000D01*
X129500500Y-100700000D01*
X129558691Y-100718907D01*
X129594655Y-100768407D01*
X129599500Y-100799000D01*
X129599500Y-104401000D01*
X129580593Y-104459191D01*
X129531093Y-104495155D01*
X129500500Y-104500000D01*
X124199500Y-104500000D01*
X124141309Y-104481093D01*
X124105345Y-104431593D01*
X124100500Y-104401000D01*
X124100500Y-96248320D01*
X124119407Y-96190129D01*
X124129490Y-96178322D01*
X125099161Y-95208651D01*
X125107311Y-95200500D01*
X125107314Y-95200500D01*
X125178819Y-95128994D01*
X125233334Y-95101219D01*
X125248821Y-95100000D01*
X127725500Y-95100000D01*
X127783691Y-95118907D01*
G37*
%TD.AperFunction*%
%TD*%
%TA.AperFunction,Conductor*%
%TO.N,+VBAT*%
G36*
X143801292Y-86409966D02*
G01*
X143816054Y-86414811D01*
X143831593Y-86414811D01*
X143844393Y-86424111D01*
X143859425Y-86429044D01*
X143868521Y-86441640D01*
X143881093Y-86450775D01*
X143885982Y-86465822D01*
X143895244Y-86478649D01*
X143900000Y-86508966D01*
X143900000Y-86596000D01*
X143881093Y-86654191D01*
X143831593Y-86690155D01*
X143801000Y-86695000D01*
X143465683Y-86695000D01*
X143428900Y-86698938D01*
X143418362Y-86699500D01*
X143330326Y-86699500D01*
X143330325Y-86699500D01*
X143330315Y-86699501D01*
X143257263Y-86714033D01*
X143257257Y-86714035D01*
X143174400Y-86769397D01*
X143174395Y-86769402D01*
X143119035Y-86852257D01*
X143119032Y-86852265D01*
X143115356Y-86870745D01*
X143106425Y-86896459D01*
X143068525Y-86970662D01*
X143048716Y-87037670D01*
X143046848Y-87050500D01*
X143036185Y-87123718D01*
X143035678Y-87402872D01*
X143035272Y-87625934D01*
X143035370Y-87634257D01*
X143035542Y-87641003D01*
X143035542Y-87641004D01*
X143035543Y-87641008D01*
X143045048Y-87692671D01*
X143052764Y-87734605D01*
X143075958Y-87800516D01*
X143102103Y-87856170D01*
X143102104Y-87856171D01*
X143176532Y-87940218D01*
X143176534Y-87940220D01*
X143176537Y-87940222D01*
X143231677Y-87983125D01*
X143248134Y-87992513D01*
X143307203Y-88026210D01*
X143371182Y-88051440D01*
X143394677Y-88064651D01*
X143421183Y-88084751D01*
X143440243Y-88103810D01*
X143460348Y-88130322D01*
X143473560Y-88153820D01*
X143487051Y-88188031D01*
X143493246Y-88212538D01*
X143494293Y-88221251D01*
X143495000Y-88233062D01*
X143495000Y-88766936D01*
X143494293Y-88778747D01*
X143493246Y-88787460D01*
X143487051Y-88811967D01*
X143473560Y-88846178D01*
X143460346Y-88869679D01*
X143440249Y-88896181D01*
X143421185Y-88915245D01*
X143352617Y-88967242D01*
X143337128Y-88979804D01*
X143324934Y-88990370D01*
X143324932Y-88990372D01*
X143257776Y-89073179D01*
X143257769Y-89073190D01*
X143223915Y-89134286D01*
X143223908Y-89134300D01*
X143199672Y-89190799D01*
X143186368Y-89301501D01*
X143186276Y-89302268D01*
X143190755Y-89370889D01*
X143190828Y-89371997D01*
X143190828Y-89372005D01*
X143200984Y-89432629D01*
X143200985Y-89432632D01*
X143249978Y-89533642D01*
X143249982Y-89533649D01*
X143291505Y-89589841D01*
X143291506Y-89589842D01*
X143352605Y-89651705D01*
X143396182Y-89684750D01*
X143415246Y-89703814D01*
X143435345Y-89730318D01*
X143448560Y-89753820D01*
X143462051Y-89788031D01*
X143468246Y-89812538D01*
X143469293Y-89821251D01*
X143470000Y-89833062D01*
X143470000Y-90366936D01*
X143469293Y-90378747D01*
X143468246Y-90387460D01*
X143462051Y-90411967D01*
X143448560Y-90446178D01*
X143435345Y-90469680D01*
X143414747Y-90496842D01*
X143398227Y-90513911D01*
X143386806Y-90523174D01*
X143374603Y-90533747D01*
X143307447Y-90616554D01*
X143307440Y-90616565D01*
X143273586Y-90677661D01*
X143273579Y-90677675D01*
X143249343Y-90734174D01*
X143242339Y-90792455D01*
X143235947Y-90845643D01*
X143240398Y-90913838D01*
X143240499Y-90915372D01*
X143240499Y-90915380D01*
X143250655Y-90976004D01*
X143250656Y-90976007D01*
X143270923Y-91017791D01*
X143299652Y-91077023D01*
X143324803Y-91111059D01*
X143341176Y-91133216D01*
X143341177Y-91133217D01*
X143402275Y-91195079D01*
X143402279Y-91195082D01*
X143402280Y-91195083D01*
X143464029Y-91241908D01*
X143483092Y-91260971D01*
X143507342Y-91292950D01*
X143520553Y-91316445D01*
X143536569Y-91357056D01*
X143542764Y-91381565D01*
X143544293Y-91394291D01*
X143545000Y-91406101D01*
X143545000Y-92393897D01*
X143544293Y-92405707D01*
X143542764Y-92418433D01*
X143536569Y-92442940D01*
X143520558Y-92483543D01*
X143507342Y-92507047D01*
X143483089Y-92539028D01*
X143464026Y-92558091D01*
X143432046Y-92582342D01*
X143408546Y-92595555D01*
X143335365Y-92624414D01*
X143327593Y-92627112D01*
X143323519Y-92628338D01*
X143312590Y-92632168D01*
X143302590Y-92635673D01*
X143301003Y-92636235D01*
X143301000Y-92636236D01*
X143300999Y-92636237D01*
X143300995Y-92636238D01*
X143203995Y-92692732D01*
X143203979Y-92692744D01*
X143151105Y-92738392D01*
X143151097Y-92738399D01*
X143108844Y-92783048D01*
X143108843Y-92783050D01*
X143057772Y-92883035D01*
X143037968Y-92950024D01*
X143037965Y-92950040D01*
X143025434Y-93036078D01*
X143025147Y-93193893D01*
X143025147Y-93193900D01*
X143028179Y-93237393D01*
X143033140Y-93272339D01*
X143036178Y-93290003D01*
X143036179Y-93290006D01*
X143037518Y-93293314D01*
X143039093Y-93297471D01*
X143040053Y-93300189D01*
X143055092Y-93352235D01*
X143087225Y-93433722D01*
X143087819Y-93435402D01*
X143087864Y-93437181D01*
X143092765Y-93456570D01*
X143094293Y-93469289D01*
X143095000Y-93481097D01*
X143095000Y-95718897D01*
X143094293Y-95730709D01*
X143092764Y-95743433D01*
X143086569Y-95767939D01*
X143051704Y-95856350D01*
X143051705Y-95856351D01*
X143050062Y-95860515D01*
X143050061Y-95860518D01*
X143049860Y-95861029D01*
X143049653Y-95861554D01*
X143049567Y-95861774D01*
X143049538Y-95861846D01*
X143041214Y-95882952D01*
X143041729Y-95888459D01*
X143040235Y-95894277D01*
X143034082Y-95915536D01*
X143025437Y-95960791D01*
X143025436Y-95960803D01*
X143020013Y-96017558D01*
X143020012Y-96017564D01*
X143019171Y-96480419D01*
X143000158Y-96538575D01*
X142984031Y-96555889D01*
X142063360Y-97333079D01*
X142006698Y-97356167D01*
X141947287Y-97341541D01*
X141907819Y-97294787D01*
X141900500Y-97257429D01*
X141900500Y-95134109D01*
X141899858Y-95131713D01*
X141866392Y-95006814D01*
X141866390Y-95006811D01*
X141866390Y-95006809D01*
X141800503Y-94892690D01*
X141800499Y-94892685D01*
X141707314Y-94799499D01*
X141707314Y-94799500D01*
X141207314Y-94299500D01*
X141207311Y-94299498D01*
X141207310Y-94299497D01*
X141207309Y-94299496D01*
X141093189Y-94233609D01*
X141093191Y-94233609D01*
X141043799Y-94220375D01*
X140965892Y-94199500D01*
X137765892Y-94199500D01*
X137634107Y-94199500D01*
X137556200Y-94220374D01*
X137506809Y-94233609D01*
X137392690Y-94299496D01*
X136792686Y-94899500D01*
X136792685Y-94899499D01*
X136699500Y-94992685D01*
X136699496Y-94992690D01*
X136633609Y-95106809D01*
X136617520Y-95166856D01*
X136604184Y-95216629D01*
X136599500Y-95234109D01*
X136599500Y-96895500D01*
X136580593Y-96953691D01*
X136531093Y-96989655D01*
X136500500Y-96994500D01*
X132662001Y-96994500D01*
X132659088Y-96994729D01*
X132642635Y-96996023D01*
X132641394Y-96996113D01*
X132634318Y-96996579D01*
X132632719Y-96996521D01*
X132631965Y-96996735D01*
X132629693Y-96996885D01*
X132629352Y-96996926D01*
X132626417Y-96997573D01*
X132594918Y-97002561D01*
X132567729Y-97014181D01*
X132555913Y-97018368D01*
X132544749Y-97021543D01*
X132528666Y-97030360D01*
X132528667Y-97030361D01*
X132524408Y-97032696D01*
X132510622Y-97038589D01*
X132501246Y-97045399D01*
X132495757Y-97048410D01*
X132495758Y-97048410D01*
X132491092Y-97050970D01*
X132491079Y-97050978D01*
X132460532Y-97071488D01*
X132460529Y-97071491D01*
X132457336Y-97075560D01*
X132451601Y-97082867D01*
X132433377Y-97098792D01*
X132415119Y-97129347D01*
X132411235Y-97134297D01*
X132411235Y-97134298D01*
X132404069Y-97143429D01*
X132404063Y-97143438D01*
X132396216Y-97160059D01*
X132396217Y-97160060D01*
X132394146Y-97164449D01*
X132386468Y-97177301D01*
X132382889Y-97188312D01*
X132380216Y-97193979D01*
X132380215Y-97193983D01*
X132377939Y-97198806D01*
X132377938Y-97198811D01*
X132359942Y-97260514D01*
X132359939Y-97260526D01*
X132359149Y-97266735D01*
X132359147Y-97266750D01*
X132357502Y-97292688D01*
X132357452Y-97294274D01*
X132357401Y-97294272D01*
X132357401Y-97294282D01*
X132357292Y-97294275D01*
X132355599Y-97311466D01*
X132351027Y-97334452D01*
X132348722Y-97348597D01*
X132348288Y-97352006D01*
X132348563Y-97405973D01*
X132348563Y-97405977D01*
X132351085Y-97424307D01*
X132351620Y-97429028D01*
X132352132Y-97434795D01*
X132351709Y-97449881D01*
X132353610Y-97459442D01*
X132353618Y-97459474D01*
X132359397Y-97488526D01*
X132361300Y-97507839D01*
X132361300Y-97698400D01*
X132342393Y-97756591D01*
X132292893Y-97792555D01*
X132262300Y-97797400D01*
X132014400Y-97797400D01*
X131956209Y-97778493D01*
X131920245Y-97728993D01*
X131915400Y-97698400D01*
X131915400Y-97477854D01*
X131915398Y-97477842D01*
X131904749Y-97424307D01*
X131903767Y-97419370D01*
X131859452Y-97353049D01*
X131857899Y-97352011D01*
X131793133Y-97308735D01*
X131793128Y-97308733D01*
X131779282Y-97305979D01*
X131725899Y-97276081D01*
X131700285Y-97220516D01*
X131699599Y-97208882D01*
X131699599Y-96977853D01*
X131699598Y-96977844D01*
X131687955Y-96919316D01*
X131687955Y-96880684D01*
X131699598Y-96822155D01*
X131699599Y-96822146D01*
X131699599Y-96591117D01*
X131701457Y-96585398D01*
X131700283Y-96579502D01*
X131710764Y-96556752D01*
X131718506Y-96532926D01*
X131723370Y-96529391D01*
X131725886Y-96523932D01*
X131747736Y-96511688D01*
X131768006Y-96496962D01*
X131779242Y-96494028D01*
X131779969Y-96493883D01*
X131818610Y-96493881D01*
X131834100Y-96496962D01*
X131863944Y-96502899D01*
X131863950Y-96502899D01*
X131863952Y-96502900D01*
X131863953Y-96502900D01*
X132386047Y-96502900D01*
X132386048Y-96502900D01*
X132444531Y-96491267D01*
X132510852Y-96446952D01*
X132555167Y-96380631D01*
X132566800Y-96322148D01*
X132566800Y-95977852D01*
X132555167Y-95919369D01*
X132552606Y-95915537D01*
X132510854Y-95853051D01*
X132510852Y-95853048D01*
X132469497Y-95825415D01*
X132431618Y-95777364D01*
X132425500Y-95743100D01*
X132425500Y-94361007D01*
X132444407Y-94302816D01*
X132493907Y-94266852D01*
X132509012Y-94263226D01*
X132525304Y-94260646D01*
X132638342Y-94203050D01*
X132728050Y-94113342D01*
X132785646Y-94000304D01*
X132800500Y-93906519D01*
X132800499Y-93293482D01*
X132791616Y-93237393D01*
X132785647Y-93199700D01*
X132785646Y-93199698D01*
X132785646Y-93199696D01*
X132728050Y-93086658D01*
X132638342Y-92996950D01*
X132525304Y-92939354D01*
X132525305Y-92939354D01*
X132431522Y-92924500D01*
X131968483Y-92924500D01*
X131875657Y-92939201D01*
X131815225Y-92929628D01*
X131802784Y-92922089D01*
X131789594Y-92912706D01*
X131778995Y-92898117D01*
X131754754Y-92870372D01*
X131676244Y-92823464D01*
X131653978Y-92816229D01*
X131641612Y-92807432D01*
X131631981Y-92794451D01*
X131618904Y-92784949D01*
X131614207Y-92770493D01*
X131605156Y-92758293D01*
X131604994Y-92742135D01*
X131600000Y-92726762D01*
X131600000Y-92574500D01*
X131618907Y-92516309D01*
X131628996Y-92504496D01*
X132378996Y-91754496D01*
X132433513Y-91726719D01*
X132449000Y-91725500D01*
X139671142Y-91725500D01*
X139671144Y-91725500D01*
X139760288Y-91701614D01*
X139840212Y-91655470D01*
X140477892Y-91017789D01*
X140532407Y-90990014D01*
X140592839Y-90999585D01*
X140597394Y-91002059D01*
X140707545Y-91065655D01*
X140707543Y-91065655D01*
X140707547Y-91065656D01*
X140707549Y-91065657D01*
X140834843Y-91099765D01*
X140834845Y-91099765D01*
X140966625Y-91099765D01*
X140966627Y-91099765D01*
X141093921Y-91065657D01*
X141093923Y-91065655D01*
X141093925Y-91065655D01*
X141208044Y-90999768D01*
X141208044Y-90999767D01*
X141208049Y-90999765D01*
X141301235Y-90906579D01*
X141312491Y-90887083D01*
X141367125Y-90792455D01*
X141367125Y-90792453D01*
X141367127Y-90792451D01*
X141401235Y-90665157D01*
X141401235Y-90533373D01*
X141367127Y-90406079D01*
X141367125Y-90406076D01*
X141367125Y-90406074D01*
X141301238Y-90291955D01*
X141301236Y-90291953D01*
X141301235Y-90291951D01*
X141208049Y-90198765D01*
X141208046Y-90198763D01*
X141173143Y-90178611D01*
X141132202Y-90133140D01*
X141125808Y-90072290D01*
X141152637Y-90022875D01*
X141800000Y-89375513D01*
X141800000Y-88990978D01*
X141818907Y-88932787D01*
X141818928Y-88932758D01*
X141823496Y-88926474D01*
X141840460Y-88909511D01*
X141855693Y-88883126D01*
X141880021Y-88840989D01*
X141900500Y-88764562D01*
X141900500Y-88231710D01*
X141919407Y-88173519D01*
X141949998Y-88145975D01*
X142054391Y-88085704D01*
X142147577Y-87992518D01*
X142177770Y-87940222D01*
X142213467Y-87878394D01*
X142213467Y-87878392D01*
X142213469Y-87878390D01*
X142247577Y-87751096D01*
X142247577Y-87619312D01*
X142222339Y-87525121D01*
X142225542Y-87464021D01*
X142264047Y-87416471D01*
X142317966Y-87400500D01*
X142469673Y-87400500D01*
X142469674Y-87400500D01*
X142542740Y-87385966D01*
X142625601Y-87330601D01*
X142680966Y-87247740D01*
X142695500Y-87174674D01*
X142695500Y-86925326D01*
X142680966Y-86852260D01*
X142644475Y-86797646D01*
X142625602Y-86769400D01*
X142625599Y-86769397D01*
X142542742Y-86714035D01*
X142542740Y-86714034D01*
X142542737Y-86714033D01*
X142542736Y-86714033D01*
X142469684Y-86699501D01*
X142469674Y-86699500D01*
X141899000Y-86699500D01*
X141840809Y-86680593D01*
X141804845Y-86631093D01*
X141800000Y-86600500D01*
X141800000Y-86503392D01*
X141818907Y-86445201D01*
X141868407Y-86409237D01*
X141899283Y-86404392D01*
X143801292Y-86409966D01*
G37*
%TD.AperFunction*%
%TD*%
%TA.AperFunction,Conductor*%
%TO.N,BATT2_IN*%
G36*
X161558691Y-78219407D02*
G01*
X161594655Y-78268907D01*
X161599500Y-78299500D01*
X161599500Y-83095500D01*
X161580593Y-83153691D01*
X161531093Y-83189655D01*
X161500500Y-83194500D01*
X160457877Y-83194500D01*
X160426000Y-83196170D01*
X160425978Y-83196172D01*
X160425969Y-83196172D01*
X160425967Y-83196173D01*
X160410703Y-83197777D01*
X160405393Y-83198335D01*
X160405390Y-83198335D01*
X160405384Y-83198336D01*
X160399468Y-83199105D01*
X160390447Y-83200279D01*
X160284562Y-83237592D01*
X160284558Y-83237593D01*
X160231577Y-83268183D01*
X160231568Y-83268189D01*
X160168970Y-83316068D01*
X160168969Y-83316070D01*
X160161964Y-83326229D01*
X160113363Y-83363400D01*
X160078868Y-83369013D01*
X159866601Y-83365590D01*
X159808722Y-83345747D01*
X159773561Y-83295674D01*
X159770416Y-83251116D01*
X159775500Y-83219019D01*
X159775499Y-81880982D01*
X159775499Y-81880978D01*
X159775498Y-81880976D01*
X159760647Y-81787200D01*
X159760646Y-81787198D01*
X159760646Y-81787196D01*
X159703050Y-81674158D01*
X159613342Y-81584450D01*
X159500304Y-81526854D01*
X159500305Y-81526854D01*
X159406522Y-81512000D01*
X159143479Y-81512000D01*
X159143478Y-81512001D01*
X159049700Y-81526852D01*
X159049697Y-81526853D01*
X158994943Y-81554751D01*
X158934511Y-81564321D01*
X158905057Y-81554751D01*
X158873553Y-81538699D01*
X158850304Y-81526854D01*
X158819042Y-81521902D01*
X158756521Y-81512000D01*
X158756519Y-81512000D01*
X158699500Y-81512000D01*
X158641309Y-81493093D01*
X158605345Y-81443593D01*
X158600500Y-81413000D01*
X158600500Y-81320944D01*
X158600500Y-81320943D01*
X158559577Y-81168216D01*
X158480520Y-81031284D01*
X158368716Y-80919480D01*
X158231784Y-80840423D01*
X158079057Y-80799500D01*
X157920943Y-80799500D01*
X157768216Y-80840423D01*
X157631284Y-80919480D01*
X157519480Y-81031284D01*
X157440423Y-81168216D01*
X157399500Y-81320944D01*
X157399500Y-81413000D01*
X157380593Y-81471191D01*
X157331093Y-81507155D01*
X157300501Y-81512000D01*
X157193479Y-81512000D01*
X157193478Y-81512001D01*
X157099700Y-81526852D01*
X157099697Y-81526853D01*
X157044943Y-81554751D01*
X156984511Y-81564321D01*
X156955057Y-81554751D01*
X156923553Y-81538699D01*
X156900304Y-81526854D01*
X156869042Y-81521902D01*
X156806521Y-81512000D01*
X156543479Y-81512000D01*
X156543476Y-81512001D01*
X156449700Y-81526852D01*
X156449695Y-81526853D01*
X156444441Y-81529531D01*
X156384009Y-81539099D01*
X156329493Y-81511320D01*
X156301718Y-81456802D01*
X156300500Y-81441319D01*
X156300500Y-78299500D01*
X156319407Y-78241309D01*
X156368907Y-78205345D01*
X156399500Y-78200500D01*
X161500500Y-78200500D01*
X161558691Y-78219407D01*
G37*
%TD.AperFunction*%
%TD*%
%TA.AperFunction,Conductor*%
%TO.N,BATT1_IN*%
G36*
X129358691Y-78219407D02*
G01*
X129394655Y-78268907D01*
X129399500Y-78299500D01*
X129399500Y-83165892D01*
X129402041Y-83175378D01*
X129398839Y-83236478D01*
X129360334Y-83284028D01*
X129306415Y-83300000D01*
X127674500Y-83300000D01*
X127616309Y-83281093D01*
X127580345Y-83231593D01*
X127575500Y-83201000D01*
X127575499Y-81905978D01*
X127575498Y-81905976D01*
X127560647Y-81812200D01*
X127560646Y-81812198D01*
X127560646Y-81812196D01*
X127503050Y-81699158D01*
X127413342Y-81609450D01*
X127300304Y-81551854D01*
X127300305Y-81551854D01*
X127206522Y-81537000D01*
X126943479Y-81537000D01*
X126943478Y-81537001D01*
X126842001Y-81553072D01*
X126841466Y-81549695D01*
X126795089Y-81549636D01*
X126745636Y-81513608D01*
X126726804Y-81455393D01*
X126730177Y-81429902D01*
X126750500Y-81354057D01*
X126750500Y-81195943D01*
X126709577Y-81043216D01*
X126630520Y-80906284D01*
X126518716Y-80794480D01*
X126381784Y-80715423D01*
X126229057Y-80674500D01*
X126070943Y-80674500D01*
X125918216Y-80715423D01*
X125781281Y-80794482D01*
X125730259Y-80845504D01*
X125675742Y-80873281D01*
X125660256Y-80874500D01*
X124747273Y-80874500D01*
X124696343Y-80888146D01*
X124645411Y-80901793D01*
X124623385Y-80914511D01*
X124623384Y-80914510D01*
X124554088Y-80954519D01*
X124554087Y-80954519D01*
X124554087Y-80954520D01*
X124269501Y-81239105D01*
X124214987Y-81266881D01*
X124154555Y-81257310D01*
X124111290Y-81214045D01*
X124100500Y-81169100D01*
X124100500Y-78299500D01*
X124119407Y-78241309D01*
X124168907Y-78205345D01*
X124199500Y-78200500D01*
X129300500Y-78200500D01*
X129358691Y-78219407D01*
G37*
%TD.AperFunction*%
%TD*%
%TA.AperFunction,Conductor*%
%TO.N,GND*%
G36*
X129932685Y-97624407D02*
G01*
X129968649Y-97673907D01*
X129968649Y-97735093D01*
X129960232Y-97753997D01*
X129958947Y-97756221D01*
X129958946Y-97756226D01*
X129924838Y-97883520D01*
X129924838Y-98015304D01*
X129939844Y-98071307D01*
X129958947Y-98142602D01*
X130024834Y-98256721D01*
X130024836Y-98256723D01*
X130024838Y-98256726D01*
X130118024Y-98349912D01*
X130118026Y-98349913D01*
X130118028Y-98349915D01*
X130232148Y-98415802D01*
X130232146Y-98415802D01*
X130232150Y-98415803D01*
X130232152Y-98415804D01*
X130359446Y-98449912D01*
X130359448Y-98449912D01*
X130491228Y-98449912D01*
X130491230Y-98449912D01*
X130618524Y-98415804D01*
X130618526Y-98415802D01*
X130618528Y-98415802D01*
X130732647Y-98349915D01*
X130732647Y-98349914D01*
X130732652Y-98349912D01*
X130825838Y-98256726D01*
X130891730Y-98142598D01*
X130909500Y-98076275D01*
X130910972Y-98074010D01*
X130910972Y-98071307D01*
X130927508Y-98048546D01*
X130942824Y-98024963D01*
X130945346Y-98023994D01*
X130946936Y-98021807D01*
X130973697Y-98013112D01*
X130999946Y-98003036D01*
X131005127Y-98002900D01*
X131148183Y-98002900D01*
X131206374Y-98021807D01*
X131230496Y-98046895D01*
X131245314Y-98069072D01*
X131262000Y-98124074D01*
X131262000Y-98802900D01*
X131243093Y-98861091D01*
X131212503Y-98888635D01*
X131193688Y-98899498D01*
X131100496Y-98992690D01*
X131034609Y-99106809D01*
X131034608Y-99106814D01*
X131000500Y-99234108D01*
X131000500Y-99365892D01*
X131029702Y-99474879D01*
X131026500Y-99535978D01*
X130987995Y-99583528D01*
X130934076Y-99599500D01*
X130165892Y-99599500D01*
X130034108Y-99599500D01*
X129956200Y-99620375D01*
X129906809Y-99633609D01*
X129792690Y-99699496D01*
X129699496Y-99792690D01*
X129633609Y-99906809D01*
X129599500Y-100034109D01*
X129599500Y-100395500D01*
X129580593Y-100453691D01*
X129531093Y-100489655D01*
X129500500Y-100494500D01*
X128304500Y-100494500D01*
X128246309Y-100475593D01*
X128210345Y-100426093D01*
X128205500Y-100395500D01*
X128205500Y-98467763D01*
X128205288Y-98464530D01*
X128205461Y-98464518D01*
X128205000Y-98457474D01*
X128205000Y-98342524D01*
X128205462Y-98335480D01*
X128205288Y-98335469D01*
X128205500Y-98332236D01*
X128205500Y-97704500D01*
X128224407Y-97646309D01*
X128273907Y-97610345D01*
X128304500Y-97605500D01*
X129874494Y-97605500D01*
X129932685Y-97624407D01*
G37*
%TD.AperFunction*%
%TA.AperFunction,Conductor*%
G36*
X136558691Y-97218907D02*
G01*
X136594655Y-97268407D01*
X136599500Y-97299000D01*
X136599500Y-99500500D01*
X136580593Y-99558691D01*
X136531093Y-99594655D01*
X136500500Y-99599500D01*
X132067924Y-99599500D01*
X132009733Y-99580593D01*
X131973769Y-99531093D01*
X131972297Y-99474879D01*
X132001500Y-99365892D01*
X132001500Y-99234108D01*
X131967392Y-99106814D01*
X131967390Y-99106811D01*
X131967390Y-99106809D01*
X131901503Y-98992690D01*
X131901498Y-98992683D01*
X131891994Y-98983179D01*
X131864218Y-98928662D01*
X131863000Y-98913178D01*
X131863000Y-98124074D01*
X131879685Y-98069072D01*
X131894503Y-98046895D01*
X131942554Y-98009018D01*
X131976817Y-98002900D01*
X132386047Y-98002900D01*
X132386048Y-98002900D01*
X132444531Y-97991267D01*
X132510852Y-97946952D01*
X132555167Y-97880631D01*
X132566800Y-97822148D01*
X132566800Y-97477852D01*
X132555167Y-97419369D01*
X132555165Y-97419367D01*
X132553264Y-97409806D01*
X132556440Y-97409174D01*
X132552144Y-97377956D01*
X132552578Y-97374546D01*
X132563001Y-97322148D01*
X132563001Y-97292716D01*
X132563794Y-97286491D01*
X132574299Y-97264225D01*
X132581908Y-97240809D01*
X132587142Y-97237005D01*
X132589903Y-97231156D01*
X132611484Y-97219320D01*
X132631408Y-97204845D01*
X132640506Y-97203404D01*
X132643550Y-97201735D01*
X132647704Y-97202264D01*
X132662001Y-97200000D01*
X136500500Y-97200000D01*
X136558691Y-97218907D01*
G37*
%TD.AperFunction*%
%TD*%
%TA.AperFunction,Conductor*%
%TO.N,+BATT1*%
G36*
X137723971Y-84120407D02*
G01*
X137751516Y-84151000D01*
X137819478Y-84268713D01*
X137819480Y-84268716D01*
X137931284Y-84380520D01*
X138068216Y-84459577D01*
X138220943Y-84500500D01*
X138220945Y-84500500D01*
X138379054Y-84500500D01*
X138379057Y-84500500D01*
X138474880Y-84474824D01*
X138535978Y-84478026D01*
X138583528Y-84516531D01*
X138599500Y-84570451D01*
X138599500Y-84634108D01*
X138599500Y-84765892D01*
X138621738Y-84848887D01*
X138633609Y-84893190D01*
X138699496Y-85007309D01*
X138699498Y-85007311D01*
X138699500Y-85007314D01*
X138792686Y-85100500D01*
X138792688Y-85100501D01*
X138792690Y-85100503D01*
X138906810Y-85166390D01*
X138906808Y-85166390D01*
X138906812Y-85166391D01*
X138906814Y-85166392D01*
X139034108Y-85200500D01*
X142701000Y-85200500D01*
X142759191Y-85219407D01*
X142795155Y-85268907D01*
X142800000Y-85299500D01*
X142800000Y-85923586D01*
X142799759Y-85930493D01*
X142799457Y-85934803D01*
X142794500Y-85966104D01*
X142794500Y-86005683D01*
X142794259Y-86009129D01*
X142784031Y-86034440D01*
X142775593Y-86060413D01*
X142772683Y-86062527D01*
X142771337Y-86065859D01*
X142748187Y-86080324D01*
X142726093Y-86096377D01*
X142721292Y-86097130D01*
X142719449Y-86098282D01*
X142715645Y-86098015D01*
X142695210Y-86101222D01*
X142492894Y-86100629D01*
X142478929Y-86099597D01*
X142478271Y-86099501D01*
X142478264Y-86099500D01*
X142478260Y-86099500D01*
X142478253Y-86099500D01*
X142107304Y-86099500D01*
X141900178Y-86098893D01*
X141900177Y-86098893D01*
X141900168Y-86098893D01*
X141896715Y-86099157D01*
X141896019Y-86099211D01*
X141888468Y-86099500D01*
X141841740Y-86099500D01*
X141807673Y-86104463D01*
X141773604Y-86109427D01*
X141668518Y-86160801D01*
X141668517Y-86160802D01*
X141585802Y-86243517D01*
X141585331Y-86244479D01*
X141584503Y-86245335D01*
X141581036Y-86250192D01*
X141580307Y-86249672D01*
X141542790Y-86288453D01*
X141496391Y-86300000D01*
X140290863Y-86300000D01*
X140283235Y-86299500D01*
X140280576Y-86299500D01*
X139039744Y-86299500D01*
X138981553Y-86280593D01*
X138969741Y-86270504D01*
X138918718Y-86219482D01*
X138918716Y-86219480D01*
X138781784Y-86140423D01*
X138629057Y-86099500D01*
X138470943Y-86099500D01*
X138318216Y-86140423D01*
X138181281Y-86219482D01*
X138129759Y-86271004D01*
X138075242Y-86298781D01*
X138059756Y-86300000D01*
X133065243Y-86300000D01*
X133007052Y-86281093D01*
X132995245Y-86271009D01*
X132993716Y-86269480D01*
X132856784Y-86190423D01*
X132704057Y-86149500D01*
X132545943Y-86149500D01*
X132393216Y-86190423D01*
X132256284Y-86269480D01*
X132254758Y-86271005D01*
X132253380Y-86271707D01*
X132251134Y-86273431D01*
X132250814Y-86273014D01*
X132200244Y-86298781D01*
X132184757Y-86300000D01*
X130350000Y-86300000D01*
X129600000Y-87050000D01*
X129600000Y-87050001D01*
X129600000Y-87335387D01*
X129586737Y-87384886D01*
X129551794Y-87445409D01*
X129551793Y-87445411D01*
X129551793Y-87445412D01*
X129535937Y-87504588D01*
X129535937Y-87504589D01*
X129535936Y-87504588D01*
X129524500Y-87547270D01*
X129524500Y-88510257D01*
X129505593Y-88568448D01*
X129495509Y-88580254D01*
X129394480Y-88681284D01*
X129315423Y-88818216D01*
X129289774Y-88913942D01*
X129274500Y-88970944D01*
X129274500Y-89095500D01*
X129255593Y-89153691D01*
X129206093Y-89189655D01*
X129175500Y-89194500D01*
X127654117Y-89194500D01*
X127595926Y-89175593D01*
X127559962Y-89126093D01*
X127559962Y-89070584D01*
X127559427Y-89070500D01*
X127559962Y-89067122D01*
X127559962Y-89064907D01*
X127559963Y-89064907D01*
X127560645Y-89062806D01*
X127560645Y-89062805D01*
X127560646Y-89062804D01*
X127575500Y-88969019D01*
X127575499Y-87630982D01*
X127575499Y-87630981D01*
X127575499Y-87630978D01*
X127575498Y-87630976D01*
X127560647Y-87537200D01*
X127560646Y-87537198D01*
X127560646Y-87537196D01*
X127503050Y-87424158D01*
X127428994Y-87350102D01*
X127401219Y-87295588D01*
X127400000Y-87280101D01*
X127400000Y-85303111D01*
X127418907Y-85244920D01*
X127428996Y-85233107D01*
X127710489Y-84951614D01*
X128016158Y-84645944D01*
X128070673Y-84618169D01*
X128131105Y-84627740D01*
X128135636Y-84630201D01*
X128143216Y-84634577D01*
X128295943Y-84675500D01*
X128295945Y-84675500D01*
X128454055Y-84675500D01*
X128454057Y-84675500D01*
X128606784Y-84634577D01*
X128743716Y-84555520D01*
X128855520Y-84443716D01*
X128934577Y-84306784D01*
X128969921Y-84174876D01*
X129003245Y-84123562D01*
X129060367Y-84101636D01*
X129065548Y-84101500D01*
X137665780Y-84101500D01*
X137723971Y-84120407D01*
G37*
%TD.AperFunction*%
%TD*%
%TA.AperFunction,Conductor*%
%TO.N,+BATT2*%
G36*
X158283839Y-83506395D02*
G01*
X158304423Y-83508559D01*
X158312284Y-83515637D01*
X158322347Y-83518907D01*
X158349892Y-83549500D01*
X158386236Y-83612449D01*
X158399500Y-83661949D01*
X158399500Y-83765892D01*
X158411080Y-83809108D01*
X158433609Y-83893190D01*
X158499496Y-84007309D01*
X158499498Y-84007311D01*
X158499500Y-84007314D01*
X158592686Y-84100500D01*
X158592688Y-84100501D01*
X158592690Y-84100503D01*
X158706810Y-84166390D01*
X158706808Y-84166390D01*
X158706812Y-84166391D01*
X158706814Y-84166392D01*
X158834108Y-84200500D01*
X158834110Y-84200500D01*
X158965890Y-84200500D01*
X158965892Y-84200500D01*
X159093186Y-84166392D01*
X159093188Y-84166390D01*
X159093190Y-84166390D01*
X159207309Y-84100503D01*
X159207309Y-84100502D01*
X159207314Y-84100500D01*
X159291084Y-84016729D01*
X159345598Y-83988953D01*
X159406031Y-83998524D01*
X159449295Y-84041788D01*
X159456713Y-84061113D01*
X159458608Y-84068188D01*
X159458609Y-84068189D01*
X159524496Y-84182309D01*
X159524498Y-84182311D01*
X159524500Y-84182314D01*
X159617686Y-84275500D01*
X159617688Y-84275501D01*
X159617690Y-84275503D01*
X159731810Y-84341390D01*
X159731808Y-84341390D01*
X159731812Y-84341391D01*
X159731814Y-84341392D01*
X159859108Y-84375500D01*
X159859110Y-84375500D01*
X159990890Y-84375500D01*
X159990892Y-84375500D01*
X160118186Y-84341392D01*
X160118188Y-84341390D01*
X160118190Y-84341390D01*
X160232309Y-84275503D01*
X160232309Y-84275502D01*
X160232314Y-84275500D01*
X160325500Y-84182314D01*
X160372734Y-84100503D01*
X160391390Y-84068190D01*
X160391390Y-84068188D01*
X160391392Y-84068186D01*
X160425500Y-83940892D01*
X160425500Y-83809108D01*
X160391392Y-83681814D01*
X160391390Y-83681811D01*
X160391390Y-83681809D01*
X160372159Y-83648500D01*
X160359437Y-83588652D01*
X160384324Y-83532756D01*
X160437312Y-83502163D01*
X160457895Y-83500000D01*
X161500500Y-83500000D01*
X161558691Y-83518907D01*
X161594655Y-83568407D01*
X161599500Y-83599000D01*
X161599500Y-88998076D01*
X161580593Y-89056267D01*
X161531093Y-89092231D01*
X161486416Y-89096069D01*
X161477684Y-89094814D01*
X161475500Y-89094500D01*
X161475499Y-89094500D01*
X159770740Y-89094500D01*
X159712549Y-89075593D01*
X159676585Y-89026093D01*
X159672400Y-88984091D01*
X159675499Y-88957372D01*
X159675500Y-88957365D01*
X159675499Y-87592636D01*
X159672585Y-87567509D01*
X159627206Y-87464735D01*
X159627204Y-87464733D01*
X159622021Y-87457166D01*
X159623655Y-87456046D01*
X159601217Y-87411998D01*
X159600337Y-87400815D01*
X159600000Y-87400001D01*
X159600000Y-87400000D01*
X159100000Y-86900000D01*
X159099999Y-86900000D01*
X159023821Y-86900000D01*
X158965630Y-86881093D01*
X158953823Y-86871009D01*
X158932314Y-86849500D01*
X158932311Y-86849498D01*
X158932309Y-86849496D01*
X158818189Y-86783609D01*
X158818191Y-86783609D01*
X158768799Y-86770375D01*
X158690892Y-86749500D01*
X158559108Y-86749500D01*
X158481200Y-86770375D01*
X158431809Y-86783609D01*
X158317690Y-86849496D01*
X158317689Y-86849497D01*
X158317686Y-86849499D01*
X158317686Y-86849500D01*
X158296180Y-86871005D01*
X158241666Y-86898781D01*
X158226179Y-86900000D01*
X157819615Y-86900000D01*
X157761424Y-86881093D01*
X157733878Y-86850499D01*
X157733301Y-86849500D01*
X157700500Y-86792686D01*
X157607314Y-86699500D01*
X157607311Y-86699498D01*
X157607309Y-86699496D01*
X157493189Y-86633609D01*
X157493191Y-86633609D01*
X157443799Y-86620375D01*
X157365892Y-86599500D01*
X157234108Y-86599500D01*
X157156200Y-86620375D01*
X157106809Y-86633609D01*
X156992690Y-86699496D01*
X156899498Y-86792688D01*
X156878460Y-86829128D01*
X156866699Y-86849500D01*
X156866122Y-86850499D01*
X156820653Y-86891441D01*
X156780385Y-86900000D01*
X156451072Y-86900000D01*
X156392881Y-86881093D01*
X156365615Y-86850980D01*
X156319675Y-86772429D01*
X156273920Y-86719625D01*
X156229187Y-86677447D01*
X156201241Y-86663237D01*
X156129114Y-86626562D01*
X156129107Y-86626559D01*
X156062078Y-86606877D01*
X156062068Y-86606875D01*
X155997762Y-86597629D01*
X155976000Y-86594500D01*
X144274500Y-86594500D01*
X144216309Y-86575593D01*
X144180345Y-86526093D01*
X144175500Y-86495500D01*
X144175500Y-86425327D01*
X144175498Y-86425315D01*
X144166822Y-86381699D01*
X144160966Y-86352260D01*
X144160964Y-86352257D01*
X144105602Y-86269400D01*
X144105599Y-86269397D01*
X144022742Y-86214035D01*
X144022740Y-86214034D01*
X144022737Y-86214033D01*
X144022736Y-86214033D01*
X143949684Y-86199501D01*
X143949674Y-86199500D01*
X143330326Y-86199500D01*
X143330324Y-86199500D01*
X143322267Y-86201102D01*
X143302671Y-86203003D01*
X143198710Y-86202698D01*
X143140575Y-86183620D01*
X143104756Y-86134014D01*
X143100000Y-86103698D01*
X143100000Y-85966104D01*
X143118907Y-85907913D01*
X143168407Y-85871949D01*
X143229593Y-85871949D01*
X143254001Y-85883788D01*
X143257260Y-85885966D01*
X143312808Y-85897015D01*
X143330315Y-85900498D01*
X143330320Y-85900498D01*
X143330326Y-85900500D01*
X143330327Y-85900500D01*
X143949673Y-85900500D01*
X143949674Y-85900500D01*
X144022740Y-85885966D01*
X144105601Y-85830601D01*
X144105602Y-85830598D01*
X144108293Y-85828801D01*
X144167181Y-85812192D01*
X144224585Y-85833369D01*
X144233290Y-85841104D01*
X144292686Y-85900500D01*
X144292688Y-85900501D01*
X144292690Y-85900503D01*
X144406810Y-85966390D01*
X144406808Y-85966390D01*
X144406812Y-85966391D01*
X144406814Y-85966392D01*
X144534108Y-86000500D01*
X144534110Y-86000500D01*
X144665890Y-86000500D01*
X144665892Y-86000500D01*
X144793186Y-85966392D01*
X144793188Y-85966390D01*
X144793190Y-85966390D01*
X144907309Y-85900503D01*
X144907309Y-85900502D01*
X144907314Y-85900500D01*
X145000500Y-85807314D01*
X145066392Y-85693186D01*
X145100500Y-85565892D01*
X145100500Y-85434108D01*
X145071297Y-85325120D01*
X145074500Y-85264022D01*
X145113005Y-85216472D01*
X145166924Y-85200500D01*
X146765890Y-85200500D01*
X146765892Y-85200500D01*
X146893186Y-85166392D01*
X146893188Y-85166390D01*
X146893190Y-85166390D01*
X147007309Y-85100503D01*
X147007309Y-85100502D01*
X147007314Y-85100500D01*
X147100500Y-85007314D01*
X147166392Y-84893186D01*
X147200500Y-84765892D01*
X147200500Y-83699500D01*
X147219407Y-83641309D01*
X147268907Y-83605345D01*
X147299500Y-83600500D01*
X155865890Y-83600500D01*
X155865892Y-83600500D01*
X155993186Y-83566392D01*
X156051000Y-83533012D01*
X156110847Y-83520291D01*
X156166743Y-83545177D01*
X156197336Y-83598165D01*
X156199500Y-83618749D01*
X156199500Y-83665892D01*
X156226294Y-83765890D01*
X156233609Y-83793190D01*
X156299496Y-83907309D01*
X156299498Y-83907311D01*
X156299500Y-83907314D01*
X156392686Y-84000500D01*
X156392688Y-84000501D01*
X156392690Y-84000503D01*
X156506810Y-84066390D01*
X156506808Y-84066390D01*
X156506812Y-84066391D01*
X156506814Y-84066392D01*
X156634108Y-84100500D01*
X156634110Y-84100500D01*
X156765890Y-84100500D01*
X156765892Y-84100500D01*
X156893186Y-84066392D01*
X156893188Y-84066390D01*
X156893190Y-84066390D01*
X157007309Y-84000503D01*
X157007309Y-84000502D01*
X157007314Y-84000500D01*
X157100500Y-83907314D01*
X157157199Y-83809109D01*
X157166390Y-83793190D01*
X157166390Y-83793188D01*
X157166392Y-83793186D01*
X157200500Y-83665892D01*
X157200500Y-83599000D01*
X157219407Y-83540809D01*
X157268907Y-83504845D01*
X157299500Y-83500000D01*
X158264156Y-83500000D01*
X158283839Y-83506395D01*
G37*
%TD.AperFunction*%
%TD*%
%TA.AperFunction,Conductor*%
%TO.N,GND*%
G36*
X130926393Y-87505643D02*
G01*
X130984410Y-87525074D01*
X131019926Y-87574896D01*
X131024500Y-87604638D01*
X131024500Y-87756520D01*
X131024501Y-87756523D01*
X131039352Y-87850299D01*
X131039354Y-87850304D01*
X131096950Y-87963342D01*
X131186658Y-88053050D01*
X131299696Y-88110646D01*
X131393481Y-88125500D01*
X132006518Y-88125499D01*
X132006520Y-88125499D01*
X132006521Y-88125498D01*
X132053411Y-88118072D01*
X132100299Y-88110647D01*
X132100299Y-88110646D01*
X132100304Y-88110646D01*
X132213342Y-88053050D01*
X132303050Y-87963342D01*
X132360646Y-87850304D01*
X132371926Y-87779081D01*
X132375500Y-87756521D01*
X132375500Y-87749500D01*
X132394407Y-87691309D01*
X132443907Y-87655345D01*
X132474500Y-87650500D01*
X136428403Y-87650500D01*
X136428403Y-87650499D01*
X136504829Y-87630021D01*
X136573351Y-87590460D01*
X136577624Y-87586186D01*
X136632135Y-87558409D01*
X136648507Y-87557193D01*
X141148471Y-87597733D01*
X141206487Y-87617164D01*
X141242003Y-87666986D01*
X141246577Y-87696729D01*
X141246577Y-87751096D01*
X141269315Y-87835958D01*
X141280685Y-87878391D01*
X141286235Y-87888002D01*
X141299500Y-87937505D01*
X141299500Y-88559521D01*
X141280593Y-88617712D01*
X141270504Y-88629525D01*
X139354525Y-90545504D01*
X139300008Y-90573281D01*
X139284521Y-90574500D01*
X132164562Y-90574500D01*
X132085438Y-90574500D01*
X132038661Y-90587033D01*
X132009007Y-90594979D01*
X131940493Y-90634536D01*
X131940488Y-90634540D01*
X131604024Y-90971004D01*
X131549508Y-90998781D01*
X131534021Y-91000000D01*
X125599000Y-91000000D01*
X125540809Y-90981093D01*
X125504845Y-90931593D01*
X125500000Y-90901000D01*
X125500000Y-89599000D01*
X125518907Y-89540809D01*
X125568407Y-89504845D01*
X125599000Y-89500000D01*
X129626895Y-89500000D01*
X129676392Y-89513261D01*
X129681814Y-89516392D01*
X129809108Y-89550500D01*
X129809110Y-89550500D01*
X129940890Y-89550500D01*
X129940892Y-89550500D01*
X130068186Y-89516392D01*
X130068188Y-89516390D01*
X130068190Y-89516390D01*
X130182309Y-89450503D01*
X130182309Y-89450502D01*
X130182314Y-89450500D01*
X130275500Y-89357314D01*
X130341392Y-89243186D01*
X130375500Y-89115892D01*
X130375500Y-88984108D01*
X130341392Y-88856814D01*
X130341391Y-88856812D01*
X130313263Y-88808092D01*
X130300000Y-88758593D01*
X130300000Y-87966267D01*
X130318907Y-87908076D01*
X130329300Y-87895961D01*
X130695673Y-87532875D01*
X130750311Y-87505346D01*
X130766239Y-87504200D01*
X130926393Y-87505643D01*
G37*
%TD.AperFunction*%
%TD*%
%TA.AperFunction,Conductor*%
%TO.N,GND*%
G36*
X131612742Y-93018907D02*
G01*
X131648706Y-93068407D01*
X131648706Y-93129593D01*
X131642760Y-93143945D01*
X131614355Y-93199692D01*
X131614354Y-93199694D01*
X131599500Y-93293477D01*
X131599500Y-93906520D01*
X131599501Y-93906523D01*
X131614352Y-94000299D01*
X131614354Y-94000304D01*
X131671950Y-94113342D01*
X131696005Y-94137397D01*
X131723781Y-94191912D01*
X131725000Y-94207399D01*
X131725000Y-95844189D01*
X131708316Y-95899190D01*
X131694834Y-95919366D01*
X131694832Y-95919372D01*
X131683201Y-95977841D01*
X131683200Y-95977853D01*
X131683200Y-96200526D01*
X131681343Y-96206240D01*
X131682517Y-96212131D01*
X131672036Y-96234883D01*
X131664293Y-96258717D01*
X131659431Y-96262248D01*
X131656919Y-96267704D01*
X131635066Y-96279951D01*
X131614793Y-96294681D01*
X131603545Y-96297618D01*
X131601166Y-96298092D01*
X131581821Y-96300000D01*
X131543179Y-96300000D01*
X131523834Y-96298092D01*
X131521455Y-96297618D01*
X131468081Y-96267704D01*
X131442483Y-96212131D01*
X131441800Y-96200526D01*
X131441800Y-95977853D01*
X131441798Y-95977841D01*
X131439011Y-95963831D01*
X131430167Y-95919369D01*
X131385852Y-95853048D01*
X131385848Y-95853045D01*
X131319533Y-95808734D01*
X131319531Y-95808733D01*
X131319528Y-95808732D01*
X131319527Y-95808732D01*
X131261058Y-95797101D01*
X131261048Y-95797100D01*
X130738952Y-95797100D01*
X130738951Y-95797100D01*
X130738941Y-95797101D01*
X130670907Y-95810635D01*
X130670260Y-95807386D01*
X130625869Y-95810871D01*
X130573706Y-95778890D01*
X130550304Y-95722358D01*
X130550000Y-95714611D01*
X130550000Y-95325731D01*
X130559275Y-95283893D01*
X130593972Y-95209487D01*
X130600500Y-95159901D01*
X130600499Y-94740100D01*
X130593972Y-94690513D01*
X130559275Y-94616107D01*
X130550000Y-94574268D01*
X130550000Y-94374499D01*
X130568907Y-94316308D01*
X130618407Y-94280344D01*
X130648998Y-94275499D01*
X130781518Y-94275499D01*
X130781521Y-94275499D01*
X130781522Y-94275498D01*
X130828411Y-94268072D01*
X130875299Y-94260647D01*
X130875299Y-94260646D01*
X130875304Y-94260646D01*
X130988342Y-94203050D01*
X131078050Y-94113342D01*
X131135646Y-94000304D01*
X131150500Y-93906519D01*
X131150499Y-93293482D01*
X131135646Y-93199696D01*
X131135645Y-93199694D01*
X131135645Y-93199692D01*
X131107240Y-93143945D01*
X131097668Y-93083513D01*
X131125445Y-93028997D01*
X131179962Y-93001219D01*
X131195449Y-93000000D01*
X131554551Y-93000000D01*
X131612742Y-93018907D01*
G37*
%TD.AperFunction*%
%TD*%
M02*
