%TF.GenerationSoftware,KiCad,Pcbnew,9.0.4*%
%TF.CreationDate,2025-09-19T11:19:38+01:00*%
%TF.ProjectId,batt_switch_evm,62617474-5f73-4776-9974-63685f65766d,rev?*%
%TF.SameCoordinates,Original*%
%TF.FileFunction,Profile,NP*%
%FSLAX46Y46*%
G04 Gerber Fmt 4.6, Leading zero omitted, Abs format (unit mm)*
G04 Created by KiCad (PCBNEW 9.0.4) date 2025-09-19 11:19:38*
%MOMM*%
%LPD*%
G01*
G04 APERTURE LIST*
%TA.AperFunction,Profile*%
%ADD10C,0.050000*%
%TD*%
G04 APERTURE END LIST*
D10*
X129900000Y-77700000D02*
X123600000Y-77700000D01*
X162100000Y-77700000D02*
X155800000Y-77700000D01*
X155800000Y-83100000D02*
X155800000Y-77700000D01*
X155800000Y-83100000D02*
X146700000Y-83100000D01*
X144400000Y-96600000D02*
X162100000Y-96600000D01*
X139100000Y-83100000D02*
X139100000Y-84700000D01*
X146700000Y-83100000D02*
X146700000Y-84700000D01*
X123600000Y-91600000D02*
X123600000Y-77700000D01*
X123600000Y-96000000D02*
X123600000Y-100100000D01*
X162100000Y-77700000D02*
X162100000Y-96600000D01*
X137100000Y-95300000D02*
X137700000Y-94700000D01*
X123600000Y-96000000D02*
X124800000Y-94800000D01*
X137100000Y-100100000D02*
X130100000Y-100100000D01*
X141400000Y-100100000D02*
X144400000Y-100100000D01*
X137700000Y-94700000D02*
X140900000Y-94700000D01*
X144400000Y-96600000D02*
X144400000Y-100100000D01*
X123600000Y-109525000D02*
X130100000Y-109525000D01*
X140900000Y-94700000D02*
X141400000Y-95200000D01*
X129900000Y-83100000D02*
X139100000Y-83100000D01*
X139100000Y-84700000D02*
X146700000Y-84700000D01*
X137100000Y-95300000D02*
X137100000Y-100100000D01*
X124800000Y-92800000D02*
X123600000Y-91600000D01*
X141400000Y-95200000D02*
X141400000Y-100100000D01*
X129900000Y-77700000D02*
X129900000Y-83100000D01*
X124800000Y-94800000D02*
X124800000Y-92800000D01*
X130100000Y-109525000D02*
X130100000Y-100100000D01*
X123600000Y-100100000D02*
X123600000Y-109525000D01*
M02*
