%TF.GenerationSoftware,KiCad,Pcbnew,9.0.4*%
%TF.CreationDate,2025-09-19T11:19:38+01:00*%
%TF.ProjectId,batt_switch_evm,62617474-5f73-4776-9974-63685f65766d,rev?*%
%TF.SameCoordinates,Original*%
%TF.FileFunction,Legend,Top*%
%TF.FilePolarity,Positive*%
%FSLAX46Y46*%
G04 Gerber Fmt 4.6, Leading zero omitted, Abs format (unit mm)*
G04 Created by KiCad (PCBNEW 9.0.4) date 2025-09-19 11:19:38*
%MOMM*%
%LPD*%
G01*
G04 APERTURE LIST*
%ADD10C,0.150000*%
%ADD11C,0.120000*%
%ADD12C,0.157703*%
G04 APERTURE END LIST*
D10*
X157400000Y-78264164D02*
X157400000Y-78799878D01*
X157400000Y-78799878D02*
X157364285Y-78907021D01*
X157364285Y-78907021D02*
X157292857Y-78978450D01*
X157292857Y-78978450D02*
X157185714Y-79014164D01*
X157185714Y-79014164D02*
X157114285Y-79014164D01*
X157685714Y-78264164D02*
X158150000Y-78264164D01*
X158150000Y-78264164D02*
X157900000Y-78549878D01*
X157900000Y-78549878D02*
X158007143Y-78549878D01*
X158007143Y-78549878D02*
X158078572Y-78585592D01*
X158078572Y-78585592D02*
X158114286Y-78621307D01*
X158114286Y-78621307D02*
X158150000Y-78692735D01*
X158150000Y-78692735D02*
X158150000Y-78871307D01*
X158150000Y-78871307D02*
X158114286Y-78942735D01*
X158114286Y-78942735D02*
X158078572Y-78978450D01*
X158078572Y-78978450D02*
X158007143Y-79014164D01*
X158007143Y-79014164D02*
X157792857Y-79014164D01*
X157792857Y-79014164D02*
X157721429Y-78978450D01*
X157721429Y-78978450D02*
X157685714Y-78942735D01*
X124103571Y-80614164D02*
X124103571Y-81221307D01*
X124103571Y-81221307D02*
X124139285Y-81292735D01*
X124139285Y-81292735D02*
X124175000Y-81328450D01*
X124175000Y-81328450D02*
X124246428Y-81364164D01*
X124246428Y-81364164D02*
X124389285Y-81364164D01*
X124389285Y-81364164D02*
X124460714Y-81328450D01*
X124460714Y-81328450D02*
X124496428Y-81292735D01*
X124496428Y-81292735D02*
X124532142Y-81221307D01*
X124532142Y-81221307D02*
X124532142Y-80614164D01*
X124817856Y-80614164D02*
X125282142Y-80614164D01*
X125282142Y-80614164D02*
X125032142Y-80899878D01*
X125032142Y-80899878D02*
X125139285Y-80899878D01*
X125139285Y-80899878D02*
X125210714Y-80935592D01*
X125210714Y-80935592D02*
X125246428Y-80971307D01*
X125246428Y-80971307D02*
X125282142Y-81042735D01*
X125282142Y-81042735D02*
X125282142Y-81221307D01*
X125282142Y-81221307D02*
X125246428Y-81292735D01*
X125246428Y-81292735D02*
X125210714Y-81328450D01*
X125210714Y-81328450D02*
X125139285Y-81364164D01*
X125139285Y-81364164D02*
X124924999Y-81364164D01*
X124924999Y-81364164D02*
X124853571Y-81328450D01*
X124853571Y-81328450D02*
X124817856Y-81292735D01*
X127614164Y-94500000D02*
X127257021Y-94750000D01*
X127614164Y-94928571D02*
X126864164Y-94928571D01*
X126864164Y-94928571D02*
X126864164Y-94642857D01*
X126864164Y-94642857D02*
X126899878Y-94571428D01*
X126899878Y-94571428D02*
X126935592Y-94535714D01*
X126935592Y-94535714D02*
X127007021Y-94500000D01*
X127007021Y-94500000D02*
X127114164Y-94500000D01*
X127114164Y-94500000D02*
X127185592Y-94535714D01*
X127185592Y-94535714D02*
X127221307Y-94571428D01*
X127221307Y-94571428D02*
X127257021Y-94642857D01*
X127257021Y-94642857D02*
X127257021Y-94928571D01*
X126864164Y-94250000D02*
X126864164Y-93785714D01*
X126864164Y-93785714D02*
X127149878Y-94035714D01*
X127149878Y-94035714D02*
X127149878Y-93928571D01*
X127149878Y-93928571D02*
X127185592Y-93857143D01*
X127185592Y-93857143D02*
X127221307Y-93821428D01*
X127221307Y-93821428D02*
X127292735Y-93785714D01*
X127292735Y-93785714D02*
X127471307Y-93785714D01*
X127471307Y-93785714D02*
X127542735Y-93821428D01*
X127542735Y-93821428D02*
X127578450Y-93857143D01*
X127578450Y-93857143D02*
X127614164Y-93928571D01*
X127614164Y-93928571D02*
X127614164Y-94142857D01*
X127614164Y-94142857D02*
X127578450Y-94214285D01*
X127578450Y-94214285D02*
X127542735Y-94250000D01*
X159525000Y-94289164D02*
X159525000Y-94824878D01*
X159525000Y-94824878D02*
X159489285Y-94932021D01*
X159489285Y-94932021D02*
X159417857Y-95003450D01*
X159417857Y-95003450D02*
X159310714Y-95039164D01*
X159310714Y-95039164D02*
X159239285Y-95039164D01*
X159810714Y-94289164D02*
X160310714Y-94289164D01*
X160310714Y-94289164D02*
X159989286Y-95039164D01*
X142225000Y-98089164D02*
X142225000Y-98624878D01*
X142225000Y-98624878D02*
X142189285Y-98732021D01*
X142189285Y-98732021D02*
X142117857Y-98803450D01*
X142117857Y-98803450D02*
X142010714Y-98839164D01*
X142010714Y-98839164D02*
X141939285Y-98839164D01*
X142903572Y-98339164D02*
X142903572Y-98839164D01*
X142725000Y-98053450D02*
X142546429Y-98589164D01*
X142546429Y-98589164D02*
X143010714Y-98589164D01*
X137300000Y-92889164D02*
X137300000Y-93424878D01*
X137300000Y-93424878D02*
X137264285Y-93532021D01*
X137264285Y-93532021D02*
X137192857Y-93603450D01*
X137192857Y-93603450D02*
X137085714Y-93639164D01*
X137085714Y-93639164D02*
X137014285Y-93639164D01*
X138014286Y-92889164D02*
X137657143Y-92889164D01*
X137657143Y-92889164D02*
X137621429Y-93246307D01*
X137621429Y-93246307D02*
X137657143Y-93210592D01*
X137657143Y-93210592D02*
X137728572Y-93174878D01*
X137728572Y-93174878D02*
X137907143Y-93174878D01*
X137907143Y-93174878D02*
X137978572Y-93210592D01*
X137978572Y-93210592D02*
X138014286Y-93246307D01*
X138014286Y-93246307D02*
X138050000Y-93317735D01*
X138050000Y-93317735D02*
X138050000Y-93496307D01*
X138050000Y-93496307D02*
X138014286Y-93567735D01*
X138014286Y-93567735D02*
X137978572Y-93603450D01*
X137978572Y-93603450D02*
X137907143Y-93639164D01*
X137907143Y-93639164D02*
X137728572Y-93639164D01*
X137728572Y-93639164D02*
X137657143Y-93603450D01*
X137657143Y-93603450D02*
X137621429Y-93567735D01*
X127975000Y-78039164D02*
X127975000Y-78574878D01*
X127975000Y-78574878D02*
X127939285Y-78682021D01*
X127939285Y-78682021D02*
X127867857Y-78753450D01*
X127867857Y-78753450D02*
X127760714Y-78789164D01*
X127760714Y-78789164D02*
X127689285Y-78789164D01*
X128725000Y-78789164D02*
X128296429Y-78789164D01*
X128510714Y-78789164D02*
X128510714Y-78039164D01*
X128510714Y-78039164D02*
X128439286Y-78146307D01*
X128439286Y-78146307D02*
X128367857Y-78217735D01*
X128367857Y-78217735D02*
X128296429Y-78253450D01*
X125375000Y-95514164D02*
X125375000Y-96049878D01*
X125375000Y-96049878D02*
X125339285Y-96157021D01*
X125339285Y-96157021D02*
X125267857Y-96228450D01*
X125267857Y-96228450D02*
X125160714Y-96264164D01*
X125160714Y-96264164D02*
X125089285Y-96264164D01*
X126053572Y-95514164D02*
X125910714Y-95514164D01*
X125910714Y-95514164D02*
X125839286Y-95549878D01*
X125839286Y-95549878D02*
X125803572Y-95585592D01*
X125803572Y-95585592D02*
X125732143Y-95692735D01*
X125732143Y-95692735D02*
X125696429Y-95835592D01*
X125696429Y-95835592D02*
X125696429Y-96121307D01*
X125696429Y-96121307D02*
X125732143Y-96192735D01*
X125732143Y-96192735D02*
X125767857Y-96228450D01*
X125767857Y-96228450D02*
X125839286Y-96264164D01*
X125839286Y-96264164D02*
X125982143Y-96264164D01*
X125982143Y-96264164D02*
X126053572Y-96228450D01*
X126053572Y-96228450D02*
X126089286Y-96192735D01*
X126089286Y-96192735D02*
X126125000Y-96121307D01*
X126125000Y-96121307D02*
X126125000Y-95942735D01*
X126125000Y-95942735D02*
X126089286Y-95871307D01*
X126089286Y-95871307D02*
X126053572Y-95835592D01*
X126053572Y-95835592D02*
X125982143Y-95799878D01*
X125982143Y-95799878D02*
X125839286Y-95799878D01*
X125839286Y-95799878D02*
X125767857Y-95835592D01*
X125767857Y-95835592D02*
X125732143Y-95871307D01*
X125732143Y-95871307D02*
X125696429Y-95942735D01*
X141399999Y-90117735D02*
X141364285Y-90153450D01*
X141364285Y-90153450D02*
X141257142Y-90189164D01*
X141257142Y-90189164D02*
X141185714Y-90189164D01*
X141185714Y-90189164D02*
X141078571Y-90153450D01*
X141078571Y-90153450D02*
X141007142Y-90082021D01*
X141007142Y-90082021D02*
X140971428Y-90010592D01*
X140971428Y-90010592D02*
X140935714Y-89867735D01*
X140935714Y-89867735D02*
X140935714Y-89760592D01*
X140935714Y-89760592D02*
X140971428Y-89617735D01*
X140971428Y-89617735D02*
X141007142Y-89546307D01*
X141007142Y-89546307D02*
X141078571Y-89474878D01*
X141078571Y-89474878D02*
X141185714Y-89439164D01*
X141185714Y-89439164D02*
X141257142Y-89439164D01*
X141257142Y-89439164D02*
X141364285Y-89474878D01*
X141364285Y-89474878D02*
X141399999Y-89510592D01*
X142042857Y-89439164D02*
X141899999Y-89439164D01*
X141899999Y-89439164D02*
X141828571Y-89474878D01*
X141828571Y-89474878D02*
X141792857Y-89510592D01*
X141792857Y-89510592D02*
X141721428Y-89617735D01*
X141721428Y-89617735D02*
X141685714Y-89760592D01*
X141685714Y-89760592D02*
X141685714Y-90046307D01*
X141685714Y-90046307D02*
X141721428Y-90117735D01*
X141721428Y-90117735D02*
X141757142Y-90153450D01*
X141757142Y-90153450D02*
X141828571Y-90189164D01*
X141828571Y-90189164D02*
X141971428Y-90189164D01*
X141971428Y-90189164D02*
X142042857Y-90153450D01*
X142042857Y-90153450D02*
X142078571Y-90117735D01*
X142078571Y-90117735D02*
X142114285Y-90046307D01*
X142114285Y-90046307D02*
X142114285Y-89867735D01*
X142114285Y-89867735D02*
X142078571Y-89796307D01*
X142078571Y-89796307D02*
X142042857Y-89760592D01*
X142042857Y-89760592D02*
X141971428Y-89724878D01*
X141971428Y-89724878D02*
X141828571Y-89724878D01*
X141828571Y-89724878D02*
X141757142Y-89760592D01*
X141757142Y-89760592D02*
X141721428Y-89796307D01*
X141721428Y-89796307D02*
X141685714Y-89867735D01*
X146549999Y-89517735D02*
X146514285Y-89553450D01*
X146514285Y-89553450D02*
X146407142Y-89589164D01*
X146407142Y-89589164D02*
X146335714Y-89589164D01*
X146335714Y-89589164D02*
X146228571Y-89553450D01*
X146228571Y-89553450D02*
X146157142Y-89482021D01*
X146157142Y-89482021D02*
X146121428Y-89410592D01*
X146121428Y-89410592D02*
X146085714Y-89267735D01*
X146085714Y-89267735D02*
X146085714Y-89160592D01*
X146085714Y-89160592D02*
X146121428Y-89017735D01*
X146121428Y-89017735D02*
X146157142Y-88946307D01*
X146157142Y-88946307D02*
X146228571Y-88874878D01*
X146228571Y-88874878D02*
X146335714Y-88839164D01*
X146335714Y-88839164D02*
X146407142Y-88839164D01*
X146407142Y-88839164D02*
X146514285Y-88874878D01*
X146514285Y-88874878D02*
X146549999Y-88910592D01*
X147192857Y-89089164D02*
X147192857Y-89589164D01*
X147014285Y-88803450D02*
X146835714Y-89339164D01*
X146835714Y-89339164D02*
X147299999Y-89339164D01*
X125674999Y-91717735D02*
X125639285Y-91753450D01*
X125639285Y-91753450D02*
X125532142Y-91789164D01*
X125532142Y-91789164D02*
X125460714Y-91789164D01*
X125460714Y-91789164D02*
X125353571Y-91753450D01*
X125353571Y-91753450D02*
X125282142Y-91682021D01*
X125282142Y-91682021D02*
X125246428Y-91610592D01*
X125246428Y-91610592D02*
X125210714Y-91467735D01*
X125210714Y-91467735D02*
X125210714Y-91360592D01*
X125210714Y-91360592D02*
X125246428Y-91217735D01*
X125246428Y-91217735D02*
X125282142Y-91146307D01*
X125282142Y-91146307D02*
X125353571Y-91074878D01*
X125353571Y-91074878D02*
X125460714Y-91039164D01*
X125460714Y-91039164D02*
X125532142Y-91039164D01*
X125532142Y-91039164D02*
X125639285Y-91074878D01*
X125639285Y-91074878D02*
X125674999Y-91110592D01*
X126389285Y-91789164D02*
X125960714Y-91789164D01*
X126174999Y-91789164D02*
X126174999Y-91039164D01*
X126174999Y-91039164D02*
X126103571Y-91146307D01*
X126103571Y-91146307D02*
X126032142Y-91217735D01*
X126032142Y-91217735D02*
X125960714Y-91253450D01*
X155249999Y-90417735D02*
X155214285Y-90453450D01*
X155214285Y-90453450D02*
X155107142Y-90489164D01*
X155107142Y-90489164D02*
X155035714Y-90489164D01*
X155035714Y-90489164D02*
X154928571Y-90453450D01*
X154928571Y-90453450D02*
X154857142Y-90382021D01*
X154857142Y-90382021D02*
X154821428Y-90310592D01*
X154821428Y-90310592D02*
X154785714Y-90167735D01*
X154785714Y-90167735D02*
X154785714Y-90060592D01*
X154785714Y-90060592D02*
X154821428Y-89917735D01*
X154821428Y-89917735D02*
X154857142Y-89846307D01*
X154857142Y-89846307D02*
X154928571Y-89774878D01*
X154928571Y-89774878D02*
X155035714Y-89739164D01*
X155035714Y-89739164D02*
X155107142Y-89739164D01*
X155107142Y-89739164D02*
X155214285Y-89774878D01*
X155214285Y-89774878D02*
X155249999Y-89810592D01*
X155607142Y-90489164D02*
X155749999Y-90489164D01*
X155749999Y-90489164D02*
X155821428Y-90453450D01*
X155821428Y-90453450D02*
X155857142Y-90417735D01*
X155857142Y-90417735D02*
X155928571Y-90310592D01*
X155928571Y-90310592D02*
X155964285Y-90167735D01*
X155964285Y-90167735D02*
X155964285Y-89882021D01*
X155964285Y-89882021D02*
X155928571Y-89810592D01*
X155928571Y-89810592D02*
X155892857Y-89774878D01*
X155892857Y-89774878D02*
X155821428Y-89739164D01*
X155821428Y-89739164D02*
X155678571Y-89739164D01*
X155678571Y-89739164D02*
X155607142Y-89774878D01*
X155607142Y-89774878D02*
X155571428Y-89810592D01*
X155571428Y-89810592D02*
X155535714Y-89882021D01*
X155535714Y-89882021D02*
X155535714Y-90060592D01*
X155535714Y-90060592D02*
X155571428Y-90132021D01*
X155571428Y-90132021D02*
X155607142Y-90167735D01*
X155607142Y-90167735D02*
X155678571Y-90203450D01*
X155678571Y-90203450D02*
X155821428Y-90203450D01*
X155821428Y-90203450D02*
X155892857Y-90167735D01*
X155892857Y-90167735D02*
X155928571Y-90132021D01*
X155928571Y-90132021D02*
X155964285Y-90060592D01*
X125699999Y-105989164D02*
X125449999Y-105632021D01*
X125271428Y-105989164D02*
X125271428Y-105239164D01*
X125271428Y-105239164D02*
X125557142Y-105239164D01*
X125557142Y-105239164D02*
X125628571Y-105274878D01*
X125628571Y-105274878D02*
X125664285Y-105310592D01*
X125664285Y-105310592D02*
X125699999Y-105382021D01*
X125699999Y-105382021D02*
X125699999Y-105489164D01*
X125699999Y-105489164D02*
X125664285Y-105560592D01*
X125664285Y-105560592D02*
X125628571Y-105596307D01*
X125628571Y-105596307D02*
X125557142Y-105632021D01*
X125557142Y-105632021D02*
X125271428Y-105632021D01*
X126378571Y-105239164D02*
X126021428Y-105239164D01*
X126021428Y-105239164D02*
X125985714Y-105596307D01*
X125985714Y-105596307D02*
X126021428Y-105560592D01*
X126021428Y-105560592D02*
X126092857Y-105524878D01*
X126092857Y-105524878D02*
X126271428Y-105524878D01*
X126271428Y-105524878D02*
X126342857Y-105560592D01*
X126342857Y-105560592D02*
X126378571Y-105596307D01*
X126378571Y-105596307D02*
X126414285Y-105667735D01*
X126414285Y-105667735D02*
X126414285Y-105846307D01*
X126414285Y-105846307D02*
X126378571Y-105917735D01*
X126378571Y-105917735D02*
X126342857Y-105953450D01*
X126342857Y-105953450D02*
X126271428Y-105989164D01*
X126271428Y-105989164D02*
X126092857Y-105989164D01*
X126092857Y-105989164D02*
X126021428Y-105953450D01*
X126021428Y-105953450D02*
X125985714Y-105917735D01*
X131249999Y-92739164D02*
X130999999Y-92382021D01*
X130821428Y-92739164D02*
X130821428Y-91989164D01*
X130821428Y-91989164D02*
X131107142Y-91989164D01*
X131107142Y-91989164D02*
X131178571Y-92024878D01*
X131178571Y-92024878D02*
X131214285Y-92060592D01*
X131214285Y-92060592D02*
X131249999Y-92132021D01*
X131249999Y-92132021D02*
X131249999Y-92239164D01*
X131249999Y-92239164D02*
X131214285Y-92310592D01*
X131214285Y-92310592D02*
X131178571Y-92346307D01*
X131178571Y-92346307D02*
X131107142Y-92382021D01*
X131107142Y-92382021D02*
X130821428Y-92382021D01*
X131892857Y-92239164D02*
X131892857Y-92739164D01*
X131714285Y-91953450D02*
X131535714Y-92489164D01*
X131535714Y-92489164D02*
X131999999Y-92489164D01*
X133917856Y-84967735D02*
X133882142Y-85003450D01*
X133882142Y-85003450D02*
X133774999Y-85039164D01*
X133774999Y-85039164D02*
X133703571Y-85039164D01*
X133703571Y-85039164D02*
X133596428Y-85003450D01*
X133596428Y-85003450D02*
X133524999Y-84932021D01*
X133524999Y-84932021D02*
X133489285Y-84860592D01*
X133489285Y-84860592D02*
X133453571Y-84717735D01*
X133453571Y-84717735D02*
X133453571Y-84610592D01*
X133453571Y-84610592D02*
X133489285Y-84467735D01*
X133489285Y-84467735D02*
X133524999Y-84396307D01*
X133524999Y-84396307D02*
X133596428Y-84324878D01*
X133596428Y-84324878D02*
X133703571Y-84289164D01*
X133703571Y-84289164D02*
X133774999Y-84289164D01*
X133774999Y-84289164D02*
X133882142Y-84324878D01*
X133882142Y-84324878D02*
X133917856Y-84360592D01*
X134632142Y-85039164D02*
X134203571Y-85039164D01*
X134417856Y-85039164D02*
X134417856Y-84289164D01*
X134417856Y-84289164D02*
X134346428Y-84396307D01*
X134346428Y-84396307D02*
X134274999Y-84467735D01*
X134274999Y-84467735D02*
X134203571Y-84503450D01*
X135096428Y-84289164D02*
X135167857Y-84289164D01*
X135167857Y-84289164D02*
X135239285Y-84324878D01*
X135239285Y-84324878D02*
X135275000Y-84360592D01*
X135275000Y-84360592D02*
X135310714Y-84432021D01*
X135310714Y-84432021D02*
X135346428Y-84574878D01*
X135346428Y-84574878D02*
X135346428Y-84753450D01*
X135346428Y-84753450D02*
X135310714Y-84896307D01*
X135310714Y-84896307D02*
X135275000Y-84967735D01*
X135275000Y-84967735D02*
X135239285Y-85003450D01*
X135239285Y-85003450D02*
X135167857Y-85039164D01*
X135167857Y-85039164D02*
X135096428Y-85039164D01*
X135096428Y-85039164D02*
X135025000Y-85003450D01*
X135025000Y-85003450D02*
X134989285Y-84967735D01*
X134989285Y-84967735D02*
X134953571Y-84896307D01*
X134953571Y-84896307D02*
X134917857Y-84753450D01*
X134917857Y-84753450D02*
X134917857Y-84574878D01*
X134917857Y-84574878D02*
X134953571Y-84432021D01*
X134953571Y-84432021D02*
X134989285Y-84360592D01*
X134989285Y-84360592D02*
X135025000Y-84324878D01*
X135025000Y-84324878D02*
X135096428Y-84289164D01*
X141374999Y-91767735D02*
X141339285Y-91803450D01*
X141339285Y-91803450D02*
X141232142Y-91839164D01*
X141232142Y-91839164D02*
X141160714Y-91839164D01*
X141160714Y-91839164D02*
X141053571Y-91803450D01*
X141053571Y-91803450D02*
X140982142Y-91732021D01*
X140982142Y-91732021D02*
X140946428Y-91660592D01*
X140946428Y-91660592D02*
X140910714Y-91517735D01*
X140910714Y-91517735D02*
X140910714Y-91410592D01*
X140910714Y-91410592D02*
X140946428Y-91267735D01*
X140946428Y-91267735D02*
X140982142Y-91196307D01*
X140982142Y-91196307D02*
X141053571Y-91124878D01*
X141053571Y-91124878D02*
X141160714Y-91089164D01*
X141160714Y-91089164D02*
X141232142Y-91089164D01*
X141232142Y-91089164D02*
X141339285Y-91124878D01*
X141339285Y-91124878D02*
X141374999Y-91160592D01*
X141624999Y-91089164D02*
X142124999Y-91089164D01*
X142124999Y-91089164D02*
X141803571Y-91839164D01*
X132142856Y-95242735D02*
X132107142Y-95278450D01*
X132107142Y-95278450D02*
X131999999Y-95314164D01*
X131999999Y-95314164D02*
X131928571Y-95314164D01*
X131928571Y-95314164D02*
X131821428Y-95278450D01*
X131821428Y-95278450D02*
X131749999Y-95207021D01*
X131749999Y-95207021D02*
X131714285Y-95135592D01*
X131714285Y-95135592D02*
X131678571Y-94992735D01*
X131678571Y-94992735D02*
X131678571Y-94885592D01*
X131678571Y-94885592D02*
X131714285Y-94742735D01*
X131714285Y-94742735D02*
X131749999Y-94671307D01*
X131749999Y-94671307D02*
X131821428Y-94599878D01*
X131821428Y-94599878D02*
X131928571Y-94564164D01*
X131928571Y-94564164D02*
X131999999Y-94564164D01*
X131999999Y-94564164D02*
X132107142Y-94599878D01*
X132107142Y-94599878D02*
X132142856Y-94635592D01*
X132857142Y-95314164D02*
X132428571Y-95314164D01*
X132642856Y-95314164D02*
X132642856Y-94564164D01*
X132642856Y-94564164D02*
X132571428Y-94671307D01*
X132571428Y-94671307D02*
X132499999Y-94742735D01*
X132499999Y-94742735D02*
X132428571Y-94778450D01*
X133500000Y-94564164D02*
X133357142Y-94564164D01*
X133357142Y-94564164D02*
X133285714Y-94599878D01*
X133285714Y-94599878D02*
X133250000Y-94635592D01*
X133250000Y-94635592D02*
X133178571Y-94742735D01*
X133178571Y-94742735D02*
X133142857Y-94885592D01*
X133142857Y-94885592D02*
X133142857Y-95171307D01*
X133142857Y-95171307D02*
X133178571Y-95242735D01*
X133178571Y-95242735D02*
X133214285Y-95278450D01*
X133214285Y-95278450D02*
X133285714Y-95314164D01*
X133285714Y-95314164D02*
X133428571Y-95314164D01*
X133428571Y-95314164D02*
X133500000Y-95278450D01*
X133500000Y-95278450D02*
X133535714Y-95242735D01*
X133535714Y-95242735D02*
X133571428Y-95171307D01*
X133571428Y-95171307D02*
X133571428Y-94992735D01*
X133571428Y-94992735D02*
X133535714Y-94921307D01*
X133535714Y-94921307D02*
X133500000Y-94885592D01*
X133500000Y-94885592D02*
X133428571Y-94849878D01*
X133428571Y-94849878D02*
X133285714Y-94849878D01*
X133285714Y-94849878D02*
X133214285Y-94885592D01*
X133214285Y-94885592D02*
X133178571Y-94921307D01*
X133178571Y-94921307D02*
X133142857Y-94992735D01*
X155150000Y-95228126D02*
X155150000Y-95763840D01*
X155150000Y-95763840D02*
X155114285Y-95870983D01*
X155114285Y-95870983D02*
X155042857Y-95942412D01*
X155042857Y-95942412D02*
X154935714Y-95978126D01*
X154935714Y-95978126D02*
X154864285Y-95978126D01*
X155471429Y-95299554D02*
X155507143Y-95263840D01*
X155507143Y-95263840D02*
X155578572Y-95228126D01*
X155578572Y-95228126D02*
X155757143Y-95228126D01*
X155757143Y-95228126D02*
X155828572Y-95263840D01*
X155828572Y-95263840D02*
X155864286Y-95299554D01*
X155864286Y-95299554D02*
X155900000Y-95370983D01*
X155900000Y-95370983D02*
X155900000Y-95442412D01*
X155900000Y-95442412D02*
X155864286Y-95549554D01*
X155864286Y-95549554D02*
X155435714Y-95978126D01*
X155435714Y-95978126D02*
X155900000Y-95978126D01*
X134692735Y-94532143D02*
X134728450Y-94567857D01*
X134728450Y-94567857D02*
X134764164Y-94675000D01*
X134764164Y-94675000D02*
X134764164Y-94746428D01*
X134764164Y-94746428D02*
X134728450Y-94853571D01*
X134728450Y-94853571D02*
X134657021Y-94925000D01*
X134657021Y-94925000D02*
X134585592Y-94960714D01*
X134585592Y-94960714D02*
X134442735Y-94996428D01*
X134442735Y-94996428D02*
X134335592Y-94996428D01*
X134335592Y-94996428D02*
X134192735Y-94960714D01*
X134192735Y-94960714D02*
X134121307Y-94925000D01*
X134121307Y-94925000D02*
X134049878Y-94853571D01*
X134049878Y-94853571D02*
X134014164Y-94746428D01*
X134014164Y-94746428D02*
X134014164Y-94675000D01*
X134014164Y-94675000D02*
X134049878Y-94567857D01*
X134049878Y-94567857D02*
X134085592Y-94532143D01*
X134764164Y-93817857D02*
X134764164Y-94246428D01*
X134764164Y-94032143D02*
X134014164Y-94032143D01*
X134014164Y-94032143D02*
X134121307Y-94103571D01*
X134121307Y-94103571D02*
X134192735Y-94175000D01*
X134192735Y-94175000D02*
X134228450Y-94246428D01*
X134014164Y-93139285D02*
X134014164Y-93496428D01*
X134014164Y-93496428D02*
X134371307Y-93532142D01*
X134371307Y-93532142D02*
X134335592Y-93496428D01*
X134335592Y-93496428D02*
X134299878Y-93425000D01*
X134299878Y-93425000D02*
X134299878Y-93246428D01*
X134299878Y-93246428D02*
X134335592Y-93175000D01*
X134335592Y-93175000D02*
X134371307Y-93139285D01*
X134371307Y-93139285D02*
X134442735Y-93103571D01*
X134442735Y-93103571D02*
X134621307Y-93103571D01*
X134621307Y-93103571D02*
X134692735Y-93139285D01*
X134692735Y-93139285D02*
X134728450Y-93175000D01*
X134728450Y-93175000D02*
X134764164Y-93246428D01*
X134764164Y-93246428D02*
X134764164Y-93425000D01*
X134764164Y-93425000D02*
X134728450Y-93496428D01*
X134728450Y-93496428D02*
X134692735Y-93532142D01*
X131574999Y-85039164D02*
X131324999Y-84682021D01*
X131146428Y-85039164D02*
X131146428Y-84289164D01*
X131146428Y-84289164D02*
X131432142Y-84289164D01*
X131432142Y-84289164D02*
X131503571Y-84324878D01*
X131503571Y-84324878D02*
X131539285Y-84360592D01*
X131539285Y-84360592D02*
X131574999Y-84432021D01*
X131574999Y-84432021D02*
X131574999Y-84539164D01*
X131574999Y-84539164D02*
X131539285Y-84610592D01*
X131539285Y-84610592D02*
X131503571Y-84646307D01*
X131503571Y-84646307D02*
X131432142Y-84682021D01*
X131432142Y-84682021D02*
X131146428Y-84682021D01*
X131860714Y-84360592D02*
X131896428Y-84324878D01*
X131896428Y-84324878D02*
X131967857Y-84289164D01*
X131967857Y-84289164D02*
X132146428Y-84289164D01*
X132146428Y-84289164D02*
X132217857Y-84324878D01*
X132217857Y-84324878D02*
X132253571Y-84360592D01*
X132253571Y-84360592D02*
X132289285Y-84432021D01*
X132289285Y-84432021D02*
X132289285Y-84503450D01*
X132289285Y-84503450D02*
X132253571Y-84610592D01*
X132253571Y-84610592D02*
X131824999Y-85039164D01*
X131824999Y-85039164D02*
X132289285Y-85039164D01*
X141067735Y-87257143D02*
X141103450Y-87292857D01*
X141103450Y-87292857D02*
X141139164Y-87400000D01*
X141139164Y-87400000D02*
X141139164Y-87471428D01*
X141139164Y-87471428D02*
X141103450Y-87578571D01*
X141103450Y-87578571D02*
X141032021Y-87650000D01*
X141032021Y-87650000D02*
X140960592Y-87685714D01*
X140960592Y-87685714D02*
X140817735Y-87721428D01*
X140817735Y-87721428D02*
X140710592Y-87721428D01*
X140710592Y-87721428D02*
X140567735Y-87685714D01*
X140567735Y-87685714D02*
X140496307Y-87650000D01*
X140496307Y-87650000D02*
X140424878Y-87578571D01*
X140424878Y-87578571D02*
X140389164Y-87471428D01*
X140389164Y-87471428D02*
X140389164Y-87400000D01*
X140389164Y-87400000D02*
X140424878Y-87292857D01*
X140424878Y-87292857D02*
X140460592Y-87257143D01*
X141139164Y-86542857D02*
X141139164Y-86971428D01*
X141139164Y-86757143D02*
X140389164Y-86757143D01*
X140389164Y-86757143D02*
X140496307Y-86828571D01*
X140496307Y-86828571D02*
X140567735Y-86900000D01*
X140567735Y-86900000D02*
X140603450Y-86971428D01*
X140460592Y-86257142D02*
X140424878Y-86221428D01*
X140424878Y-86221428D02*
X140389164Y-86150000D01*
X140389164Y-86150000D02*
X140389164Y-85971428D01*
X140389164Y-85971428D02*
X140424878Y-85900000D01*
X140424878Y-85900000D02*
X140460592Y-85864285D01*
X140460592Y-85864285D02*
X140532021Y-85828571D01*
X140532021Y-85828571D02*
X140603450Y-85828571D01*
X140603450Y-85828571D02*
X140710592Y-85864285D01*
X140710592Y-85864285D02*
X141139164Y-86292857D01*
X141139164Y-86292857D02*
X141139164Y-85828571D01*
X141374999Y-92892735D02*
X141339285Y-92928450D01*
X141339285Y-92928450D02*
X141232142Y-92964164D01*
X141232142Y-92964164D02*
X141160714Y-92964164D01*
X141160714Y-92964164D02*
X141053571Y-92928450D01*
X141053571Y-92928450D02*
X140982142Y-92857021D01*
X140982142Y-92857021D02*
X140946428Y-92785592D01*
X140946428Y-92785592D02*
X140910714Y-92642735D01*
X140910714Y-92642735D02*
X140910714Y-92535592D01*
X140910714Y-92535592D02*
X140946428Y-92392735D01*
X140946428Y-92392735D02*
X140982142Y-92321307D01*
X140982142Y-92321307D02*
X141053571Y-92249878D01*
X141053571Y-92249878D02*
X141160714Y-92214164D01*
X141160714Y-92214164D02*
X141232142Y-92214164D01*
X141232142Y-92214164D02*
X141339285Y-92249878D01*
X141339285Y-92249878D02*
X141374999Y-92285592D01*
X141803571Y-92535592D02*
X141732142Y-92499878D01*
X141732142Y-92499878D02*
X141696428Y-92464164D01*
X141696428Y-92464164D02*
X141660714Y-92392735D01*
X141660714Y-92392735D02*
X141660714Y-92357021D01*
X141660714Y-92357021D02*
X141696428Y-92285592D01*
X141696428Y-92285592D02*
X141732142Y-92249878D01*
X141732142Y-92249878D02*
X141803571Y-92214164D01*
X141803571Y-92214164D02*
X141946428Y-92214164D01*
X141946428Y-92214164D02*
X142017857Y-92249878D01*
X142017857Y-92249878D02*
X142053571Y-92285592D01*
X142053571Y-92285592D02*
X142089285Y-92357021D01*
X142089285Y-92357021D02*
X142089285Y-92392735D01*
X142089285Y-92392735D02*
X142053571Y-92464164D01*
X142053571Y-92464164D02*
X142017857Y-92499878D01*
X142017857Y-92499878D02*
X141946428Y-92535592D01*
X141946428Y-92535592D02*
X141803571Y-92535592D01*
X141803571Y-92535592D02*
X141732142Y-92571307D01*
X141732142Y-92571307D02*
X141696428Y-92607021D01*
X141696428Y-92607021D02*
X141660714Y-92678450D01*
X141660714Y-92678450D02*
X141660714Y-92821307D01*
X141660714Y-92821307D02*
X141696428Y-92892735D01*
X141696428Y-92892735D02*
X141732142Y-92928450D01*
X141732142Y-92928450D02*
X141803571Y-92964164D01*
X141803571Y-92964164D02*
X141946428Y-92964164D01*
X141946428Y-92964164D02*
X142017857Y-92928450D01*
X142017857Y-92928450D02*
X142053571Y-92892735D01*
X142053571Y-92892735D02*
X142089285Y-92821307D01*
X142089285Y-92821307D02*
X142089285Y-92678450D01*
X142089285Y-92678450D02*
X142053571Y-92607021D01*
X142053571Y-92607021D02*
X142017857Y-92571307D01*
X142017857Y-92571307D02*
X141946428Y-92535592D01*
X131978571Y-99039164D02*
X131978571Y-99646307D01*
X131978571Y-99646307D02*
X132014285Y-99717735D01*
X132014285Y-99717735D02*
X132050000Y-99753450D01*
X132050000Y-99753450D02*
X132121428Y-99789164D01*
X132121428Y-99789164D02*
X132264285Y-99789164D01*
X132264285Y-99789164D02*
X132335714Y-99753450D01*
X132335714Y-99753450D02*
X132371428Y-99717735D01*
X132371428Y-99717735D02*
X132407142Y-99646307D01*
X132407142Y-99646307D02*
X132407142Y-99039164D01*
X133085714Y-99289164D02*
X133085714Y-99789164D01*
X132907142Y-99003450D02*
X132728571Y-99539164D01*
X132728571Y-99539164D02*
X133192856Y-99539164D01*
X160303571Y-89589164D02*
X160303571Y-90196307D01*
X160303571Y-90196307D02*
X160339285Y-90267735D01*
X160339285Y-90267735D02*
X160375000Y-90303450D01*
X160375000Y-90303450D02*
X160446428Y-90339164D01*
X160446428Y-90339164D02*
X160589285Y-90339164D01*
X160589285Y-90339164D02*
X160660714Y-90303450D01*
X160660714Y-90303450D02*
X160696428Y-90267735D01*
X160696428Y-90267735D02*
X160732142Y-90196307D01*
X160732142Y-90196307D02*
X160732142Y-89589164D01*
X161482142Y-90339164D02*
X161053571Y-90339164D01*
X161267856Y-90339164D02*
X161267856Y-89589164D01*
X161267856Y-89589164D02*
X161196428Y-89696307D01*
X161196428Y-89696307D02*
X161124999Y-89767735D01*
X161124999Y-89767735D02*
X161053571Y-89803450D01*
X148774999Y-84917735D02*
X148739285Y-84953450D01*
X148739285Y-84953450D02*
X148632142Y-84989164D01*
X148632142Y-84989164D02*
X148560714Y-84989164D01*
X148560714Y-84989164D02*
X148453571Y-84953450D01*
X148453571Y-84953450D02*
X148382142Y-84882021D01*
X148382142Y-84882021D02*
X148346428Y-84810592D01*
X148346428Y-84810592D02*
X148310714Y-84667735D01*
X148310714Y-84667735D02*
X148310714Y-84560592D01*
X148310714Y-84560592D02*
X148346428Y-84417735D01*
X148346428Y-84417735D02*
X148382142Y-84346307D01*
X148382142Y-84346307D02*
X148453571Y-84274878D01*
X148453571Y-84274878D02*
X148560714Y-84239164D01*
X148560714Y-84239164D02*
X148632142Y-84239164D01*
X148632142Y-84239164D02*
X148739285Y-84274878D01*
X148739285Y-84274878D02*
X148774999Y-84310592D01*
X149024999Y-84239164D02*
X149489285Y-84239164D01*
X149489285Y-84239164D02*
X149239285Y-84524878D01*
X149239285Y-84524878D02*
X149346428Y-84524878D01*
X149346428Y-84524878D02*
X149417857Y-84560592D01*
X149417857Y-84560592D02*
X149453571Y-84596307D01*
X149453571Y-84596307D02*
X149489285Y-84667735D01*
X149489285Y-84667735D02*
X149489285Y-84846307D01*
X149489285Y-84846307D02*
X149453571Y-84917735D01*
X149453571Y-84917735D02*
X149417857Y-84953450D01*
X149417857Y-84953450D02*
X149346428Y-84989164D01*
X149346428Y-84989164D02*
X149132142Y-84989164D01*
X149132142Y-84989164D02*
X149060714Y-84953450D01*
X149060714Y-84953450D02*
X149024999Y-84917735D01*
X135792735Y-94532143D02*
X135828450Y-94567857D01*
X135828450Y-94567857D02*
X135864164Y-94675000D01*
X135864164Y-94675000D02*
X135864164Y-94746428D01*
X135864164Y-94746428D02*
X135828450Y-94853571D01*
X135828450Y-94853571D02*
X135757021Y-94925000D01*
X135757021Y-94925000D02*
X135685592Y-94960714D01*
X135685592Y-94960714D02*
X135542735Y-94996428D01*
X135542735Y-94996428D02*
X135435592Y-94996428D01*
X135435592Y-94996428D02*
X135292735Y-94960714D01*
X135292735Y-94960714D02*
X135221307Y-94925000D01*
X135221307Y-94925000D02*
X135149878Y-94853571D01*
X135149878Y-94853571D02*
X135114164Y-94746428D01*
X135114164Y-94746428D02*
X135114164Y-94675000D01*
X135114164Y-94675000D02*
X135149878Y-94567857D01*
X135149878Y-94567857D02*
X135185592Y-94532143D01*
X135864164Y-93817857D02*
X135864164Y-94246428D01*
X135864164Y-94032143D02*
X135114164Y-94032143D01*
X135114164Y-94032143D02*
X135221307Y-94103571D01*
X135221307Y-94103571D02*
X135292735Y-94175000D01*
X135292735Y-94175000D02*
X135328450Y-94246428D01*
X135114164Y-93567857D02*
X135114164Y-93103571D01*
X135114164Y-93103571D02*
X135399878Y-93353571D01*
X135399878Y-93353571D02*
X135399878Y-93246428D01*
X135399878Y-93246428D02*
X135435592Y-93175000D01*
X135435592Y-93175000D02*
X135471307Y-93139285D01*
X135471307Y-93139285D02*
X135542735Y-93103571D01*
X135542735Y-93103571D02*
X135721307Y-93103571D01*
X135721307Y-93103571D02*
X135792735Y-93139285D01*
X135792735Y-93139285D02*
X135828450Y-93175000D01*
X135828450Y-93175000D02*
X135864164Y-93246428D01*
X135864164Y-93246428D02*
X135864164Y-93460714D01*
X135864164Y-93460714D02*
X135828450Y-93532142D01*
X135828450Y-93532142D02*
X135792735Y-93567857D01*
X126842856Y-97942735D02*
X126807142Y-97978450D01*
X126807142Y-97978450D02*
X126699999Y-98014164D01*
X126699999Y-98014164D02*
X126628571Y-98014164D01*
X126628571Y-98014164D02*
X126521428Y-97978450D01*
X126521428Y-97978450D02*
X126449999Y-97907021D01*
X126449999Y-97907021D02*
X126414285Y-97835592D01*
X126414285Y-97835592D02*
X126378571Y-97692735D01*
X126378571Y-97692735D02*
X126378571Y-97585592D01*
X126378571Y-97585592D02*
X126414285Y-97442735D01*
X126414285Y-97442735D02*
X126449999Y-97371307D01*
X126449999Y-97371307D02*
X126521428Y-97299878D01*
X126521428Y-97299878D02*
X126628571Y-97264164D01*
X126628571Y-97264164D02*
X126699999Y-97264164D01*
X126699999Y-97264164D02*
X126807142Y-97299878D01*
X126807142Y-97299878D02*
X126842856Y-97335592D01*
X127557142Y-98014164D02*
X127128571Y-98014164D01*
X127342856Y-98014164D02*
X127342856Y-97264164D01*
X127342856Y-97264164D02*
X127271428Y-97371307D01*
X127271428Y-97371307D02*
X127199999Y-97442735D01*
X127199999Y-97442735D02*
X127128571Y-97478450D01*
X128200000Y-97514164D02*
X128200000Y-98014164D01*
X128021428Y-97228450D02*
X127842857Y-97764164D01*
X127842857Y-97764164D02*
X128307142Y-97764164D01*
X144353571Y-85964164D02*
X144353571Y-86571307D01*
X144353571Y-86571307D02*
X144389285Y-86642735D01*
X144389285Y-86642735D02*
X144425000Y-86678450D01*
X144425000Y-86678450D02*
X144496428Y-86714164D01*
X144496428Y-86714164D02*
X144639285Y-86714164D01*
X144639285Y-86714164D02*
X144710714Y-86678450D01*
X144710714Y-86678450D02*
X144746428Y-86642735D01*
X144746428Y-86642735D02*
X144782142Y-86571307D01*
X144782142Y-86571307D02*
X144782142Y-85964164D01*
X145103571Y-86035592D02*
X145139285Y-85999878D01*
X145139285Y-85999878D02*
X145210714Y-85964164D01*
X145210714Y-85964164D02*
X145389285Y-85964164D01*
X145389285Y-85964164D02*
X145460714Y-85999878D01*
X145460714Y-85999878D02*
X145496428Y-86035592D01*
X145496428Y-86035592D02*
X145532142Y-86107021D01*
X145532142Y-86107021D02*
X145532142Y-86178450D01*
X145532142Y-86178450D02*
X145496428Y-86285592D01*
X145496428Y-86285592D02*
X145067856Y-86714164D01*
X145067856Y-86714164D02*
X145532142Y-86714164D01*
X129349999Y-91701422D02*
X129099999Y-91344279D01*
X128921428Y-91701422D02*
X128921428Y-90951422D01*
X128921428Y-90951422D02*
X129207142Y-90951422D01*
X129207142Y-90951422D02*
X129278571Y-90987136D01*
X129278571Y-90987136D02*
X129314285Y-91022850D01*
X129314285Y-91022850D02*
X129349999Y-91094279D01*
X129349999Y-91094279D02*
X129349999Y-91201422D01*
X129349999Y-91201422D02*
X129314285Y-91272850D01*
X129314285Y-91272850D02*
X129278571Y-91308565D01*
X129278571Y-91308565D02*
X129207142Y-91344279D01*
X129207142Y-91344279D02*
X128921428Y-91344279D01*
X130064285Y-91701422D02*
X129635714Y-91701422D01*
X129849999Y-91701422D02*
X129849999Y-90951422D01*
X129849999Y-90951422D02*
X129778571Y-91058565D01*
X129778571Y-91058565D02*
X129707142Y-91129993D01*
X129707142Y-91129993D02*
X129635714Y-91165708D01*
X136917856Y-84942735D02*
X136882142Y-84978450D01*
X136882142Y-84978450D02*
X136774999Y-85014164D01*
X136774999Y-85014164D02*
X136703571Y-85014164D01*
X136703571Y-85014164D02*
X136596428Y-84978450D01*
X136596428Y-84978450D02*
X136524999Y-84907021D01*
X136524999Y-84907021D02*
X136489285Y-84835592D01*
X136489285Y-84835592D02*
X136453571Y-84692735D01*
X136453571Y-84692735D02*
X136453571Y-84585592D01*
X136453571Y-84585592D02*
X136489285Y-84442735D01*
X136489285Y-84442735D02*
X136524999Y-84371307D01*
X136524999Y-84371307D02*
X136596428Y-84299878D01*
X136596428Y-84299878D02*
X136703571Y-84264164D01*
X136703571Y-84264164D02*
X136774999Y-84264164D01*
X136774999Y-84264164D02*
X136882142Y-84299878D01*
X136882142Y-84299878D02*
X136917856Y-84335592D01*
X137632142Y-85014164D02*
X137203571Y-85014164D01*
X137417856Y-85014164D02*
X137417856Y-84264164D01*
X137417856Y-84264164D02*
X137346428Y-84371307D01*
X137346428Y-84371307D02*
X137274999Y-84442735D01*
X137274999Y-84442735D02*
X137203571Y-84478450D01*
X138346428Y-85014164D02*
X137917857Y-85014164D01*
X138132142Y-85014164D02*
X138132142Y-84264164D01*
X138132142Y-84264164D02*
X138060714Y-84371307D01*
X138060714Y-84371307D02*
X137989285Y-84442735D01*
X137989285Y-84442735D02*
X137917857Y-84478450D01*
X151824999Y-84917735D02*
X151789285Y-84953450D01*
X151789285Y-84953450D02*
X151682142Y-84989164D01*
X151682142Y-84989164D02*
X151610714Y-84989164D01*
X151610714Y-84989164D02*
X151503571Y-84953450D01*
X151503571Y-84953450D02*
X151432142Y-84882021D01*
X151432142Y-84882021D02*
X151396428Y-84810592D01*
X151396428Y-84810592D02*
X151360714Y-84667735D01*
X151360714Y-84667735D02*
X151360714Y-84560592D01*
X151360714Y-84560592D02*
X151396428Y-84417735D01*
X151396428Y-84417735D02*
X151432142Y-84346307D01*
X151432142Y-84346307D02*
X151503571Y-84274878D01*
X151503571Y-84274878D02*
X151610714Y-84239164D01*
X151610714Y-84239164D02*
X151682142Y-84239164D01*
X151682142Y-84239164D02*
X151789285Y-84274878D01*
X151789285Y-84274878D02*
X151824999Y-84310592D01*
X152110714Y-84310592D02*
X152146428Y-84274878D01*
X152146428Y-84274878D02*
X152217857Y-84239164D01*
X152217857Y-84239164D02*
X152396428Y-84239164D01*
X152396428Y-84239164D02*
X152467857Y-84274878D01*
X152467857Y-84274878D02*
X152503571Y-84310592D01*
X152503571Y-84310592D02*
X152539285Y-84382021D01*
X152539285Y-84382021D02*
X152539285Y-84453450D01*
X152539285Y-84453450D02*
X152503571Y-84560592D01*
X152503571Y-84560592D02*
X152074999Y-84989164D01*
X152074999Y-84989164D02*
X152539285Y-84989164D01*
X141424999Y-88817735D02*
X141389285Y-88853450D01*
X141389285Y-88853450D02*
X141282142Y-88889164D01*
X141282142Y-88889164D02*
X141210714Y-88889164D01*
X141210714Y-88889164D02*
X141103571Y-88853450D01*
X141103571Y-88853450D02*
X141032142Y-88782021D01*
X141032142Y-88782021D02*
X140996428Y-88710592D01*
X140996428Y-88710592D02*
X140960714Y-88567735D01*
X140960714Y-88567735D02*
X140960714Y-88460592D01*
X140960714Y-88460592D02*
X140996428Y-88317735D01*
X140996428Y-88317735D02*
X141032142Y-88246307D01*
X141032142Y-88246307D02*
X141103571Y-88174878D01*
X141103571Y-88174878D02*
X141210714Y-88139164D01*
X141210714Y-88139164D02*
X141282142Y-88139164D01*
X141282142Y-88139164D02*
X141389285Y-88174878D01*
X141389285Y-88174878D02*
X141424999Y-88210592D01*
X142103571Y-88139164D02*
X141746428Y-88139164D01*
X141746428Y-88139164D02*
X141710714Y-88496307D01*
X141710714Y-88496307D02*
X141746428Y-88460592D01*
X141746428Y-88460592D02*
X141817857Y-88424878D01*
X141817857Y-88424878D02*
X141996428Y-88424878D01*
X141996428Y-88424878D02*
X142067857Y-88460592D01*
X142067857Y-88460592D02*
X142103571Y-88496307D01*
X142103571Y-88496307D02*
X142139285Y-88567735D01*
X142139285Y-88567735D02*
X142139285Y-88746307D01*
X142139285Y-88746307D02*
X142103571Y-88817735D01*
X142103571Y-88817735D02*
X142067857Y-88853450D01*
X142067857Y-88853450D02*
X141996428Y-88889164D01*
X141996428Y-88889164D02*
X141817857Y-88889164D01*
X141817857Y-88889164D02*
X141746428Y-88853450D01*
X141746428Y-88853450D02*
X141710714Y-88817735D01*
X128150000Y-102164164D02*
X128150000Y-102699878D01*
X128150000Y-102699878D02*
X128114285Y-102807021D01*
X128114285Y-102807021D02*
X128042857Y-102878450D01*
X128042857Y-102878450D02*
X127935714Y-102914164D01*
X127935714Y-102914164D02*
X127864285Y-102914164D01*
X128614286Y-102485592D02*
X128542857Y-102449878D01*
X128542857Y-102449878D02*
X128507143Y-102414164D01*
X128507143Y-102414164D02*
X128471429Y-102342735D01*
X128471429Y-102342735D02*
X128471429Y-102307021D01*
X128471429Y-102307021D02*
X128507143Y-102235592D01*
X128507143Y-102235592D02*
X128542857Y-102199878D01*
X128542857Y-102199878D02*
X128614286Y-102164164D01*
X128614286Y-102164164D02*
X128757143Y-102164164D01*
X128757143Y-102164164D02*
X128828572Y-102199878D01*
X128828572Y-102199878D02*
X128864286Y-102235592D01*
X128864286Y-102235592D02*
X128900000Y-102307021D01*
X128900000Y-102307021D02*
X128900000Y-102342735D01*
X128900000Y-102342735D02*
X128864286Y-102414164D01*
X128864286Y-102414164D02*
X128828572Y-102449878D01*
X128828572Y-102449878D02*
X128757143Y-102485592D01*
X128757143Y-102485592D02*
X128614286Y-102485592D01*
X128614286Y-102485592D02*
X128542857Y-102521307D01*
X128542857Y-102521307D02*
X128507143Y-102557021D01*
X128507143Y-102557021D02*
X128471429Y-102628450D01*
X128471429Y-102628450D02*
X128471429Y-102771307D01*
X128471429Y-102771307D02*
X128507143Y-102842735D01*
X128507143Y-102842735D02*
X128542857Y-102878450D01*
X128542857Y-102878450D02*
X128614286Y-102914164D01*
X128614286Y-102914164D02*
X128757143Y-102914164D01*
X128757143Y-102914164D02*
X128828572Y-102878450D01*
X128828572Y-102878450D02*
X128864286Y-102842735D01*
X128864286Y-102842735D02*
X128900000Y-102771307D01*
X128900000Y-102771307D02*
X128900000Y-102628450D01*
X128900000Y-102628450D02*
X128864286Y-102557021D01*
X128864286Y-102557021D02*
X128828572Y-102521307D01*
X128828572Y-102521307D02*
X128757143Y-102485592D01*
X125725000Y-108439164D02*
X125725000Y-108974878D01*
X125725000Y-108974878D02*
X125689285Y-109082021D01*
X125689285Y-109082021D02*
X125617857Y-109153450D01*
X125617857Y-109153450D02*
X125510714Y-109189164D01*
X125510714Y-109189164D02*
X125439285Y-109189164D01*
X126117857Y-109189164D02*
X126260714Y-109189164D01*
X126260714Y-109189164D02*
X126332143Y-109153450D01*
X126332143Y-109153450D02*
X126367857Y-109117735D01*
X126367857Y-109117735D02*
X126439286Y-109010592D01*
X126439286Y-109010592D02*
X126475000Y-108867735D01*
X126475000Y-108867735D02*
X126475000Y-108582021D01*
X126475000Y-108582021D02*
X126439286Y-108510592D01*
X126439286Y-108510592D02*
X126403572Y-108474878D01*
X126403572Y-108474878D02*
X126332143Y-108439164D01*
X126332143Y-108439164D02*
X126189286Y-108439164D01*
X126189286Y-108439164D02*
X126117857Y-108474878D01*
X126117857Y-108474878D02*
X126082143Y-108510592D01*
X126082143Y-108510592D02*
X126046429Y-108582021D01*
X126046429Y-108582021D02*
X126046429Y-108760592D01*
X126046429Y-108760592D02*
X126082143Y-108832021D01*
X126082143Y-108832021D02*
X126117857Y-108867735D01*
X126117857Y-108867735D02*
X126189286Y-108903450D01*
X126189286Y-108903450D02*
X126332143Y-108903450D01*
X126332143Y-108903450D02*
X126403572Y-108867735D01*
X126403572Y-108867735D02*
X126439286Y-108832021D01*
X126439286Y-108832021D02*
X126475000Y-108760592D01*
D11*
%TO.C,U3*%
X129025000Y-81577500D02*
X128785000Y-81247500D01*
X129265000Y-81247500D01*
X129025000Y-81577500D01*
G36*
X129025000Y-81577500D02*
G01*
X128785000Y-81247500D01*
X129265000Y-81247500D01*
X129025000Y-81577500D01*
G37*
X129485000Y-85437500D02*
X129485000Y-87637500D01*
X129485000Y-85437500D02*
X129485000Y-83237500D01*
X124015000Y-85437500D02*
X124015000Y-87637500D01*
X124015000Y-85437500D02*
X124015000Y-83237500D01*
%TO.C,R3*%
X127977500Y-94137742D02*
X127977500Y-94612258D01*
X129022500Y-94137742D02*
X129022500Y-94612258D01*
%TO.C,C6*%
X143659420Y-89590000D02*
X143940580Y-89590000D01*
X143659420Y-90610000D02*
X143940580Y-90610000D01*
%TO.C,C4*%
X146190000Y-86534420D02*
X146190000Y-86815580D01*
X147210000Y-86534420D02*
X147210000Y-86815580D01*
%TO.C,C1*%
X125359420Y-89665000D02*
X125640580Y-89665000D01*
X125359420Y-90685000D02*
X125640580Y-90685000D01*
%TO.C,C9*%
X157559420Y-89615000D02*
X157840580Y-89615000D01*
X157559420Y-90635000D02*
X157840580Y-90635000D01*
%TO.C,R5*%
X126437742Y-106377500D02*
X126912258Y-106377500D01*
X126437742Y-107422500D02*
X126912258Y-107422500D01*
%TO.C,R4*%
X131137742Y-93077500D02*
X131612258Y-93077500D01*
X131137742Y-94122500D02*
X131612258Y-94122500D01*
%TO.C,C10*%
X133040000Y-86788748D02*
X133040000Y-88211252D01*
X135760000Y-86788748D02*
X135760000Y-88211252D01*
%TO.C,C7*%
X143738748Y-91165000D02*
X144261252Y-91165000D01*
X143738748Y-92635000D02*
X144261252Y-92635000D01*
%TO.C,C16*%
X130492164Y-94590000D02*
X130707836Y-94590000D01*
X130492164Y-95310000D02*
X130707836Y-95310000D01*
%TO.C,J2*%
X149990000Y-96060000D02*
X149990000Y-94900000D01*
X150800000Y-96060000D02*
X149990000Y-96060000D01*
X151610000Y-93740000D02*
X154085000Y-93740000D01*
X151610000Y-94233292D02*
X151610000Y-93740000D01*
X151610000Y-96060000D02*
X151610000Y-95566708D01*
X151610000Y-96060000D02*
X154085000Y-96060000D01*
X154085000Y-94582077D02*
X154085000Y-93740000D01*
X154085000Y-96060000D02*
X154085000Y-95217923D01*
%TO.C,C15*%
X133090000Y-96834420D02*
X133090000Y-97115580D01*
X134110000Y-96834420D02*
X134110000Y-97115580D01*
%TO.C,R2*%
X131177500Y-86937258D02*
X131177500Y-86462742D01*
X132222500Y-86937258D02*
X132222500Y-86462742D01*
%TO.C,C12*%
X138990000Y-86559420D02*
X138990000Y-86840580D01*
X140010000Y-86559420D02*
X140010000Y-86840580D01*
%TO.C,C8*%
X143288748Y-93240000D02*
X144711252Y-93240000D01*
X143288748Y-95960000D02*
X144711252Y-95960000D01*
%TO.C,U4*%
D12*
X132941351Y-98120000D02*
G75*
G02*
X132783649Y-98120000I-78851J0D01*
G01*
X132783649Y-98120000D02*
G75*
G02*
X132941351Y-98120000I78851J0D01*
G01*
D11*
%TO.C,U1*%
X156215000Y-85412500D02*
X156215000Y-83212500D01*
X156215000Y-85412500D02*
X156215000Y-87612500D01*
X161685000Y-85412500D02*
X161685000Y-83212500D01*
X161685000Y-85412500D02*
X161685000Y-87612500D01*
X161225000Y-81552500D02*
X160985000Y-81222500D01*
X161465000Y-81222500D01*
X161225000Y-81552500D01*
G36*
X161225000Y-81552500D02*
G01*
X160985000Y-81222500D01*
X161465000Y-81222500D01*
X161225000Y-81552500D01*
G37*
%TO.C,C3*%
X148165000Y-86588748D02*
X148165000Y-87111252D01*
X149635000Y-86588748D02*
X149635000Y-87111252D01*
%TO.C,C13*%
X134765000Y-96688748D02*
X134765000Y-97211252D01*
X136235000Y-96688748D02*
X136235000Y-97211252D01*
%TO.C,C14*%
X128990000Y-97534420D02*
X128990000Y-97815580D01*
X130010000Y-97534420D02*
X130010000Y-97815580D01*
%TO.C,U2*%
X142250000Y-85140000D02*
X143550000Y-85140000D01*
X142250000Y-87460000D02*
X143300000Y-87460000D01*
X143660000Y-87740000D02*
X143660000Y-87460000D01*
X143940000Y-87460000D01*
X143660000Y-87740000D01*
G36*
X143660000Y-87740000D02*
G01*
X143660000Y-87460000D01*
X143940000Y-87460000D01*
X143660000Y-87740000D01*
G37*
%TO.C,R1*%
X127477500Y-91362258D02*
X127477500Y-90887742D01*
X128522500Y-91362258D02*
X128522500Y-90887742D01*
%TO.C,C11*%
X136665000Y-86638748D02*
X136665000Y-87161252D01*
X138135000Y-86638748D02*
X138135000Y-87161252D01*
%TO.C,C2*%
X150590000Y-86763748D02*
X150590000Y-88186252D01*
X153310000Y-86763748D02*
X153310000Y-88186252D01*
%TO.C,C5*%
X143684420Y-87990000D02*
X143965580Y-87990000D01*
X143684420Y-89010000D02*
X143965580Y-89010000D01*
%TD*%
M02*
