#VRML V2.0 utf8
# 3D model generated by easyeda2kicad.py (https://github.com/uPesy/easyeda2kicad.py)

Shape{
    appearance Appearance {
        material  Material 	{
            diffuseColor 1.0 1.0 1.0
            specularColor 0.5019607843137255 0.5019607843137255 0.5019607843137255
            ambientIntensity 0.2
            transparency 0
            shininess 0.5
        }
    }
    geometry IndexedFaceSet {
        ccw TRUE
        solid FALSE
        coord DEF co Coordinate {
            point [
                -0.1291 0.4731 0.0, -0.1554 0.4731 0.0, -0.1408 0.506 0.0, -0.1436 0.506 0.0, -0.1416 0.5087 0.0, -0.1429 0.5088 0.0, -0.1421 0.5115 0.0, -0.1424 0.5115 0.0, 0.0193 0.5211 0.0, 0.0347 0.4551 0.0, 0.0193 0.4424 0.0, 0.0347 0.4465 0.0, -0.021 0.5211 0.0, -0.0306 0.5512 0.0, -0.021 0.5125 0.0, 0.0088 0.5125 0.0, 0.0088 0.4866 0.0, -0.0229 0.451 0.0, -0.0229 0.4424 0.0, -0.0306 0.4419 0.0, 0.0088 0.4779 0.0, 0.0088 0.451 0.0, -0.0191 0.4779 0.0, -0.0191 0.4866 0.0, 0.0737 0.4451 0.0, 0.1 0.4424 0.0, 0.0661 0.4424 0.0, 0.061 0.4419 0.0, 0.0609 0.5126 0.0, 0.0668 0.5105 0.0, 0.0361 0.4543 0.0, 0.0722 0.5068 0.0, 0.077 0.5016 0.0, 0.0827 0.4809 0.0, 0.0819 0.4724 0.0, 0.0798 0.4656 0.0, 0.0623 0.4509 0.0, 0.0549 0.4501 0.0, 0.068 0.453 0.0, 0.0728 0.4563 0.0, 0.0765 0.4602 0.0, 0.0445 0.4512 0.0, 0.0347 0.519 0.0, 0.0347 0.5084 0.0, 0.0436 0.5122 0.0, 0.0532 0.5135 0.0, 0.0802 0.4955 0.0, 0.0823 0.4871 0.0, 0.0891 0.5004 0.0, 0.0845 0.5078 0.0, 0.1298 0.5211 0.0, 0.0774 0.5146 0.0, 0.0699 0.5189 0.0, 0.08 0.4491 0.0, 0.086 0.4553 0.0, 0.1 0.451 0.0, 0.0902 0.4628 0.0, 0.1298 0.451 0.0, 0.0925 0.4712 0.0, 0.0933 0.4803 0.0, 0.0922 0.4915 0.0, 0.0611 0.5215 0.0, 0.0532 0.5221 0.0, 0.0438 0.5214 0.0, 0.1403 0.5211 0.0, 0.6102 0.5512 0.0, 0.1403 0.4424 0.0, 0.6102 0.4419 0.0, 0.0564 0.4414 0.0, 0.6102 -0.5512 0.0, 0.0542 0.4415 0.0, -0.0306 -0.5512 0.0, 0.0511 0.4419 0.0, -0.6102 -0.5512 0.0, -0.6102 0.4419 0.0, 0.0431 0.443 0.0, -0.0597 0.4424 0.0, -0.0383 0.4424 0.0, -0.0383 0.5211 0.0, -0.1074 0.4424 0.0, -0.0977 0.464 0.0, -0.0932 0.4569 0.0, -0.1372 0.5211 0.0, -0.1477 0.5211 0.0, -0.1669 0.4424 0.0, -0.1785 0.4424 0.0, -0.6102 0.5512 0.0, -0.0867 0.4507 0.0, -0.0785 0.446 0.0, -0.0694 0.4432 0.0, -0.0605 0.5211 0.0, -0.0719 0.5199 0.0, -0.0811 0.5167 0.0, -0.0896 0.5109 0.0, -0.0897 0.5109 0.0, -0.0953 0.5047 0.0, -0.099 0.4979 0.0, -0.1189 0.4424 0.0, -0.1264 0.4645 0.0, -0.159 0.4645 0.0, -0.1011 0.4902 0.0, -0.1016 0.4828 0.0, -0.1005 0.4722 0.0, -0.0488 0.5125 0.0, -0.0488 0.451 0.0, -0.0604 0.5125 0.0, -0.06 0.451 0.0, -0.0683 0.4518 0.0, -0.0911 0.4825 0.0, -0.0904 0.4904 0.0, -0.0886 0.4966 0.0, -0.0698 0.5115 0.0, -0.0749 0.4539 0.0, -0.0803 0.4571 0.0, -0.0847 0.4614 0.0, -0.088 0.4669 0.0, -0.0904 0.4743 0.0, -0.0858 0.5015 0.0, -0.082 0.5055 0.0, -0.0763 0.5092 0.0, -0.0763 0.5092 0.0
            ]
        }
        coordIndex [
            0,1,2,-1,2,1,3,-1,2,3,4,-1,4,3,5,-1,4,5,6,-1,6,5,7,-1,8,9,10,-1,10,9,11,-1,8,12,13,-1,13,12,14,-1,14,15,16,-1,17,18,19,-1,19,18,10,-1,20,21,22,-1,22,21,17,-1,22,17,23,-1,24,25,26,-1,26,25,27,-1,28,29,30,-1,30,29,31,-1,30,31,32,-1,33,34,30,-1,30,34,35,-1,36,37,38,-1,38,37,39,-1,35,40,30,-1,30,40,39,-1,30,39,41,-1,41,39,37,-1,13,42,8,-1,8,42,43,-1,8,43,9,-1,9,43,44,-1,9,44,30,-1,30,44,45,-1,30,45,28,-1,32,46,30,-1,30,46,47,-1,30,47,33,-1,48,49,50,-1,50,49,51,-1,50,51,52,-1,24,53,25,-1,25,53,54,-1,25,54,55,-1,55,54,56,-1,55,56,57,-1,56,58,57,-1,57,58,59,-1,57,59,50,-1,50,59,60,-1,50,60,48,-1,61,62,13,-1,13,62,63,-1,13,63,42,-1,52,61,50,-1,50,61,13,-1,50,13,64,-1,64,13,65,-1,64,65,66,-1,66,65,67,-1,25,66,27,-1,27,66,67,-1,27,67,68,-1,68,67,69,-1,68,69,70,-1,70,69,71,-1,70,71,72,-1,73,74,71,-1,71,74,19,-1,71,19,72,-1,72,19,10,-1,72,10,75,-1,75,10,11,-1,76,77,19,-1,16,23,14,-1,14,23,17,-1,14,17,13,-1,13,17,19,-1,13,19,78,-1,78,19,77,-1,79,80,81,-1,13,82,83,-1,84,19,85,-1,85,19,74,-1,85,74,83,-1,83,74,86,-1,83,86,13,-1,81,87,79,-1,79,87,88,-1,79,88,89,-1,78,90,13,-1,13,90,91,-1,13,91,82,-1,82,91,92,-1,82,92,93,-1,93,94,82,-1,82,94,95,-1,82,95,96,-1,89,76,79,-1,79,76,19,-1,79,19,97,-1,97,19,84,-1,97,84,98,-1,98,84,99,-1,96,100,82,-1,82,100,101,-1,82,101,79,-1,79,101,102,-1,79,102,80,-1,103,104,105,-1,105,104,106,-1,105,106,107,-1,108,109,105,-1,105,109,110,-1,105,110,111,-1,107,112,105,-1,105,112,113,-1,105,113,114,-1,114,115,105,-1,105,115,116,-1,105,116,108,-1,117,118,110,-1,110,118,119,-1,110,119,111,-1,
        ]
    }
}
Shape{
    appearance Appearance {
        material  Material 	{
            diffuseColor 0.0 0.0 0.0
            specularColor 0.0 0.0 0.0
            ambientIntensity 0.2
            transparency 0
            shininess 0.5
        }
    }
    geometry IndexedFaceSet {
        ccw TRUE
        solid FALSE
        coord DEF co Coordinate {
            point [
                -0.1291 0.4731 0.0, -0.1264 0.4645 0.0, -0.1554 0.4731 0.0, -0.159 0.4645 0.0, -0.1408 0.506 0.0, -0.1372 0.5211 0.0, -0.1074 0.4424 0.0, -0.1189 0.4424 0.0, -0.1416 0.5087 0.0, -0.1421 0.5115 0.0, -0.1477 0.5211 0.0, -0.1424 0.5115 0.0, -0.1429 0.5088 0.0, -0.1436 0.506 0.0, -0.1785 0.4424 0.0, -0.1669 0.4424 0.0, -0.099 0.4979 0.0, -0.0953 0.5047 0.0, -0.0858 0.5015 0.0, -0.0897 0.5109 0.0, -0.082 0.5055 0.0, -0.0896 0.5109 0.0, -0.0763 0.5092 0.0, -0.0811 0.5167 0.0, -0.0698 0.5115 0.0, -0.0719 0.5199 0.0, -0.0604 0.5125 0.0, -0.0605 0.5211 0.0, -0.0488 0.5125 0.0, -0.0383 0.5211 0.0, -0.0488 0.451 0.0, -0.0383 0.4424 0.0, -0.06 0.451 0.0, -0.0597 0.4424 0.0, -0.0683 0.4518 0.0, -0.0694 0.4432 0.0, -0.0749 0.4539 0.0, -0.0785 0.446 0.0, -0.0803 0.4571 0.0, -0.0867 0.4507 0.0, -0.0847 0.4614 0.0, -0.0932 0.4569 0.0, -0.088 0.4669 0.0, -0.0977 0.464 0.0, -0.0904 0.4743 0.0, -0.1005 0.4722 0.0, -0.0911 0.4825 0.0, -0.1016 0.4828 0.0, -0.0904 0.4904 0.0, -0.1011 0.4902 0.0, -0.0886 0.4966 0.0, 0.0193 0.4424 0.0, -0.0229 0.4424 0.0, -0.0229 0.451 0.0, 0.0088 0.451 0.0, 0.0088 0.4779 0.0, 0.0193 0.5211 0.0, -0.021 0.5125 0.0, -0.021 0.5211 0.0, 0.0088 0.5125 0.0, 0.0088 0.4866 0.0, -0.0191 0.4866 0.0, -0.0191 0.4779 0.0, 0.0347 0.4465 0.0, 0.0347 0.4551 0.0, 0.0361 0.4543 0.0, 0.0431 0.443 0.0, 0.0445 0.4512 0.0, 0.0511 0.4419 0.0, 0.0549 0.4501 0.0, 0.0542 0.4415 0.0, 0.0564 0.4414 0.0, 0.0623 0.4509 0.0, 0.061 0.4419 0.0, 0.0347 0.5084 0.0, 0.0347 0.519 0.0, 0.0436 0.5122 0.0, 0.0438 0.5214 0.0, 0.0532 0.5135 0.0, 0.0532 0.5221 0.0, 0.0609 0.5126 0.0, 0.0611 0.5215 0.0, 0.0668 0.5105 0.0, 0.0699 0.5189 0.0, 0.0722 0.5068 0.0, 0.0774 0.5146 0.0, 0.077 0.5016 0.0, 0.0845 0.5078 0.0, 0.0802 0.4955 0.0, 0.0891 0.5004 0.0, 0.0823 0.4871 0.0, 0.0922 0.4915 0.0, 0.0827 0.4809 0.0, 0.0933 0.4803 0.0, 0.0819 0.4724 0.0, 0.0925 0.4712 0.0, 0.0798 0.4656 0.0, 0.0902 0.4628 0.0, 0.0765 0.4602 0.0, 0.086 0.4553 0.0, 0.0728 0.4563 0.0, 0.08 0.4491 0.0, 0.068 0.453 0.0, 0.0737 0.4451 0.0, 0.0661 0.4424 0.0, 0.0661 0.4424 0.0
            ]
        }
        coordIndex [
            0,1,2,-1,2,1,3,-1,4,5,0,-1,0,5,6,-1,0,6,1,-1,1,6,7,-1,4,8,5,-1,5,8,9,-1,5,9,10,-1,10,9,11,-1,10,11,12,-1,12,13,10,-1,10,13,2,-1,10,2,14,-1,14,2,3,-1,14,3,15,-1,16,17,18,-1,18,17,19,-1,18,19,20,-1,20,19,21,-1,20,21,22,-1,22,21,23,-1,22,23,24,-1,24,23,25,-1,24,25,26,-1,26,25,27,-1,26,27,28,-1,28,27,29,-1,28,29,30,-1,30,29,31,-1,30,31,32,-1,32,31,33,-1,32,33,34,-1,34,33,35,-1,34,35,36,-1,36,35,37,-1,36,37,38,-1,38,37,39,-1,38,39,40,-1,40,39,41,-1,40,41,42,-1,42,41,43,-1,42,43,44,-1,44,43,45,-1,44,45,46,-1,46,45,47,-1,46,47,48,-1,48,47,49,-1,48,49,50,-1,50,49,16,-1,50,16,18,-1,51,52,53,-1,53,54,51,-1,51,54,55,-1,51,55,56,-1,57,58,59,-1,59,58,56,-1,59,56,60,-1,60,56,55,-1,60,55,61,-1,61,55,62,-1,63,64,65,-1,63,65,66,-1,66,65,67,-1,66,67,68,-1,68,67,69,-1,68,69,70,-1,70,69,71,-1,71,69,72,-1,71,72,73,-1,74,75,76,-1,76,75,77,-1,76,77,78,-1,78,77,79,-1,78,79,80,-1,80,79,81,-1,80,81,82,-1,82,81,83,-1,82,83,84,-1,84,83,85,-1,84,85,86,-1,86,85,87,-1,86,87,88,-1,88,87,89,-1,88,89,90,-1,90,89,91,-1,90,91,92,-1,92,91,93,-1,92,93,94,-1,94,93,95,-1,94,95,96,-1,96,95,97,-1,96,97,98,-1,98,97,99,-1,98,99,100,-1,100,99,101,-1,100,101,102,-1,102,101,103,-1,102,103,72,-1,72,103,104,-1,72,104,73,-1,
        ]
    }
}
Shape{
    appearance Appearance {
        material  Material 	{
            diffuseColor 1.0 1.0 0.0
            specularColor 0.5019607843137255 0.5019607843137255 0.0
            ambientIntensity 0.2
            transparency 0
            shininess 0.5
        }
    }
    geometry IndexedFaceSet {
        ccw TRUE
        solid FALSE
        coord DEF co Coordinate {
            point [
                -0.5394 0.3425 0.315, -0.5394 -0.3425 0.315, -0.4606 0.4213 0.315, -0.4606 -0.4213 0.315, 0.4606 0.4213 0.315, 0.4606 -0.4213 0.315, 0.5394 0.3425 0.315, 0.5394 -0.3425 0.315, 0.5394 -0.3425 0.315
            ]
        }
        coordIndex [
            0,1,2,-1,2,1,3,-1,2,3,4,-1,4,3,5,-1,4,5,6,-1,6,5,7,-1,
        ]
    }
}
Shape{
    appearance Appearance {
        material  Material 	{
            diffuseColor 1.0 1.0 1.0
            specularColor 0.5019607843137255 0.5019607843137255 0.5019607843137255
            ambientIntensity 0.2
            transparency 0
            shininess 0.5
        }
    }
    geometry IndexedFaceSet {
        ccw TRUE
        solid FALSE
        coord DEF co Coordinate {
            point [
                0.6496 -0.5512 0.1969, 0.6496 -0.5512 0.0394, 0.6496 -0.4331 0.1969, 0.6496 0.5512 0.0394, 0.6496 -0.4331 0.315, 0.6496 0.5512 0.315, -0.0306 0.5512 0.0, -0.6102 0.5512 0.0, -0.6496 0.5512 0.0394, 0.6102 0.5512 0.0, -0.6496 0.5512 0.315, -0.6496 -0.5512 0.0394, -0.6496 -0.5512 0.315, -0.6102 -0.5512 0.0, -0.0306 -0.5512 0.0, 0.6102 -0.5512 0.0, 0.5315 -0.5512 0.1969, 0.5315 -0.5512 0.315, -0.5394 -0.3425 0.315, -0.5394 0.3425 0.315, -0.4606 0.4213 0.315, 0.4606 0.4213 0.315, 0.5394 0.3425 0.315, 0.5394 -0.3425 0.315, 0.4606 -0.4213 0.315, -0.4606 -0.4213 0.315, -0.4606 -0.4213 0.315
            ]
        }
        coordIndex [
            0,1,2,-1,2,1,3,-1,2,3,4,-1,4,3,5,-1,6,7,8,-1,3,9,5,-1,5,9,6,-1,5,6,10,-1,10,6,8,-1,11,12,8,-1,8,12,10,-1,11,13,12,-1,12,13,14,-1,1,0,15,-1,15,0,16,-1,15,16,14,-1,14,16,17,-1,14,17,12,-1,10,12,18,-1,18,19,10,-1,10,19,20,-1,10,20,5,-1,20,21,5,-1,5,21,22,-1,5,22,4,-1,4,22,23,-1,4,23,17,-1,17,23,24,-1,17,24,12,-1,12,24,25,-1,12,25,18,-1,
        ]
    }
}
Shape{
    appearance Appearance {
        material  Material 	{
            diffuseColor 0.0 0.0 0.0
            specularColor 0.0 0.0 0.0
            ambientIntensity 0.2
            transparency 0
            shininess 0.5
        }
    }
    geometry IndexedFaceSet {
        ccw TRUE
        solid FALSE
        coord DEF co Coordinate {
            point [
                0.1298 0.5211 0.0, 0.1403 0.5211 0.0, 0.1298 0.451 0.0, 0.1403 0.4424 0.0, 0.1 0.451 0.0, 0.1 0.4424 0.0, 0.1 0.4424 0.0
            ]
        }
        coordIndex [
            0,1,2,-1,2,1,3,-1,2,3,4,-1,4,3,5,-1,
        ]
    }
}
Shape{
    appearance Appearance {
        material  Material 	{
            diffuseColor 1.0 1.0 1.0
            specularColor 0.5019607843137255 0.5019607843137255 0.5019607843137255
            ambientIntensity 0.2
            transparency 0
            shininess 0.5
        }
    }
    geometry IndexedFaceSet {
        ccw TRUE
        solid FALSE
        coord DEF co Coordinate {
            point [
                0.6496 -0.5512 0.0394, 0.6102 -0.5512 0.0, 0.6496 0.5512 0.0394, 0.6102 0.4419 0.0, 0.6102 0.5512 0.0, -0.6102 -0.5512 0.0, -0.6496 -0.5512 0.0394, -0.6102 0.4419 0.0, -0.6496 0.5512 0.0394, -0.6102 0.5512 0.0, 0.5315 -0.5512 0.1969, 0.6496 -0.4331 0.1969, 0.5315 -0.5512 0.315, 0.6496 -0.4331 0.315, 0.6496 -0.5512 0.1969, 0.6496 -0.5512 0.1969
            ]
        }
        coordIndex [
            0,1,2,-1,2,1,3,-1,2,3,4,-1,5,6,7,-1,7,6,8,-1,7,8,9,-1,10,11,12,-1,12,11,13,-1,11,10,14,-1,
        ]
    }
}
Shape{
    appearance Appearance {
        material  Material 	{
            diffuseColor 0.7529411764705882 0.7529411764705882 0.7529411764705882
            specularColor 0.3764705882352941 0.3764705882352941 0.3764705882352941
            ambientIntensity 0.2
            transparency 0
            shininess 0.5
        }
    }
    geometry IndexedFaceSet {
        ccw TRUE
        solid FALSE
        coord DEF co Coordinate {
            point [
                0.689 0.4134 -0.0079, 0.689 0.4134 0.1181, 0.689 0.315 -0.0079, 0.689 0.315 0.1181, 0.5694 -0.4134 -0.0079, 0.5694 -0.4134 0.1181, 0.4513 -0.3543 -0.0079, 0.4513 -0.3543 0.1181, 0.689 -0.4134 -0.0079, 0.689 -0.4134 0.1181, 0.689 -0.315 0.1181, 0.689 -0.315 -0.0079, 0.5694 0.4134 -0.0079, 0.5694 0.4134 0.1181, 0.4513 0.3543 -0.0079, 0.4513 0.3543 0.1181, -0.0197 0.3543 -0.0079, -0.0197 0.3543 0.1181, -0.0197 -0.3543 -0.0079, -0.0197 -0.3543 0.1181, 0.6299 0.315 0.1181, 0.6299 -0.315 0.1181, 0.6299 -0.315 -0.0079, 0.6299 0.315 -0.0079, 0.6299 0.315 -0.0079
            ]
        }
        coordIndex [
            0,1,2,-1,2,1,3,-1,4,5,6,-1,6,5,7,-1,8,9,4,-1,4,9,5,-1,9,8,10,-1,10,8,11,-1,12,13,0,-1,0,13,1,-1,14,15,12,-1,12,15,13,-1,16,17,14,-1,14,17,15,-1,18,19,16,-1,16,19,17,-1,6,7,18,-1,18,7,19,-1,3,1,20,-1,20,1,13,-1,20,13,21,-1,21,13,15,-1,9,10,5,-1,5,10,21,-1,5,21,7,-1,7,21,15,-1,7,15,19,-1,19,15,17,-1,11,8,22,-1,22,8,4,-1,22,4,23,-1,23,4,6,-1,0,2,12,-1,12,2,23,-1,12,23,14,-1,14,23,6,-1,14,6,16,-1,16,6,18,-1,
        ]
    }
}
Shape{
    appearance Appearance {
        material  Material 	{
            diffuseColor 1.0 1.0 1.0
            specularColor 0.5019607843137255 0.5019607843137255 0.5019607843137255
            ambientIntensity 0.2
            transparency 0
            shininess 0.5
        }
    }
    geometry IndexedFaceSet {
        ccw TRUE
        solid FALSE
        coord DEF co Coordinate {
            point [
                0.6299 0.315 -0.0079, 0.6299 0.315 0.1181, 0.6299 -0.315 -0.0079, 0.6299 -0.315 0.1181, 0.689 0.315 0.1181, 0.689 0.315 -0.0079, 0.689 -0.315 -0.0079, 0.689 -0.315 0.1181, 0.689 -0.315 0.1181
            ]
        }
        coordIndex [
            0,1,2,-1,2,1,3,-1,1,0,4,-1,4,0,5,-1,2,3,6,-1,6,3,7,-1,
        ]
    }
}
Shape{
    appearance Appearance {
        material  Material 	{
            diffuseColor 0.7529411764705882 0.7529411764705882 0.7529411764705882
            specularColor 0.3764705882352941 0.3764705882352941 0.3764705882352941
            ambientIntensity 0.2
            transparency 0
            shininess 0.5
        }
    }
    geometry IndexedFaceSet {
        ccw TRUE
        solid FALSE
        coord DEF co Coordinate {
            point [
                -0.689 0.4134 0.1181, -0.689 0.4134 -0.0079, -0.689 0.315 0.1181, -0.689 0.315 -0.0079, -0.4513 -0.3543 -0.0079, -0.4513 -0.3543 0.1181, -0.5694 -0.4134 -0.0079, -0.5694 -0.4134 0.1181, -0.2165 -0.3543 -0.0079, -0.2165 -0.3543 0.1181, -0.2165 0.3543 -0.0079, -0.2165 0.3543 0.1181, -0.4513 0.3543 -0.0079, -0.4513 0.3543 0.1181, -0.5694 0.4134 -0.0079, -0.5694 0.4134 0.1181, -0.689 -0.4134 -0.0079, -0.689 -0.4134 0.1181, -0.689 -0.315 -0.0079, -0.689 -0.315 0.1181, -0.6299 -0.315 0.1181, -0.6299 0.315 0.1181, -0.6299 0.315 -0.0079, -0.6299 -0.315 -0.0079, -0.6299 -0.315 -0.0079
            ]
        }
        coordIndex [
            0,1,2,-1,2,1,3,-1,4,5,6,-1,6,5,7,-1,8,9,4,-1,4,9,5,-1,10,11,8,-1,8,11,9,-1,12,13,10,-1,10,13,11,-1,14,15,12,-1,12,15,13,-1,1,0,14,-1,14,0,15,-1,16,17,18,-1,18,17,19,-1,6,7,16,-1,16,7,17,-1,19,17,20,-1,20,17,7,-1,20,7,21,-1,21,7,5,-1,0,2,15,-1,15,2,21,-1,15,21,13,-1,13,21,5,-1,13,5,11,-1,11,5,9,-1,3,1,22,-1,22,1,14,-1,22,14,23,-1,23,14,12,-1,16,18,6,-1,6,18,23,-1,6,23,4,-1,4,23,12,-1,4,12,8,-1,8,12,10,-1,
        ]
    }
}
Shape{
    appearance Appearance {
        material  Material 	{
            diffuseColor 1.0 1.0 1.0
            specularColor 0.5019607843137255 0.5019607843137255 0.5019607843137255
            ambientIntensity 0.2
            transparency 0
            shininess 0.5
        }
    }
    geometry IndexedFaceSet {
        ccw TRUE
        solid FALSE
        coord DEF co Coordinate {
            point [
                -0.6299 0.315 -0.0079, -0.6299 -0.315 -0.0079, -0.6299 0.315 0.1181, -0.6299 -0.315 0.1181, -0.689 0.315 -0.0079, -0.689 0.315 0.1181, -0.689 -0.315 0.1181, -0.689 -0.315 -0.0079, -0.689 -0.315 -0.0079
            ]
        }
        coordIndex [
            0,1,2,-1,2,1,3,-1,0,2,4,-1,4,2,5,-1,3,1,6,-1,6,1,7,-1,
        ]
    }
}