%TF.GenerationSoftware,KiCad,Pcbnew,9.0.3*%
%TF.CreationDate,2025-07-15T16:25:54+01:00*%
%TF.ProjectId,lab_in_a_can,6c61625f-696e-45f6-915f-63616e2e6b69,rev?*%
%TF.SameCoordinates,Original*%
%TF.FileFunction,Copper,L1,Top*%
%TF.FilePolarity,Positive*%
%FSLAX46Y46*%
G04 Gerber Fmt 4.6, Leading zero omitted, Abs format (unit mm)*
G04 Created by KiCad (PCBNEW 9.0.3) date 2025-07-15 16:25:54*
%MOMM*%
%LPD*%
G01*
G04 APERTURE LIST*
G04 Aperture macros list*
%AMRoundRect*
0 Rectangle with rounded corners*
0 $1 Rounding radius*
0 $2 $3 $4 $5 $6 $7 $8 $9 X,Y pos of 4 corners*
0 Add a 4 corners polygon primitive as box body*
4,1,4,$2,$3,$4,$5,$6,$7,$8,$9,$2,$3,0*
0 Add four circle primitives for the rounded corners*
1,1,$1+$1,$2,$3*
1,1,$1+$1,$4,$5*
1,1,$1+$1,$6,$7*
1,1,$1+$1,$8,$9*
0 Add four rect primitives between the rounded corners*
20,1,$1+$1,$2,$3,$4,$5,0*
20,1,$1+$1,$4,$5,$6,$7,0*
20,1,$1+$1,$6,$7,$8,$9,0*
20,1,$1+$1,$8,$9,$2,$3,0*%
%AMFreePoly0*
4,1,17,1.395000,0.765000,0.855000,0.765000,0.855000,0.535000,1.395000,0.535000,1.395000,0.115000,0.855000,0.115000,0.855000,-0.115000,1.395000,-0.115000,1.395000,-0.535000,0.855000,-0.535000,0.855000,-0.765000,1.395000,-0.765000,1.395000,-1.185000,-0.855000,-1.185000,-0.855000,1.185000,1.395000,1.185000,1.395000,0.765000,1.395000,0.765000,$1*%
G04 Aperture macros list end*
%TA.AperFunction,SMDPad,CuDef*%
%ADD10RoundRect,0.200000X0.275000X-0.200000X0.275000X0.200000X-0.275000X0.200000X-0.275000X-0.200000X0*%
%TD*%
%TA.AperFunction,SMDPad,CuDef*%
%ADD11FreePoly0,270.000000*%
%TD*%
%TA.AperFunction,SMDPad,CuDef*%
%ADD12RoundRect,0.105000X-0.105000X0.245000X-0.105000X-0.245000X0.105000X-0.245000X0.105000X0.245000X0*%
%TD*%
%TA.AperFunction,SMDPad,CuDef*%
%ADD13FreePoly0,0.000000*%
%TD*%
%TA.AperFunction,SMDPad,CuDef*%
%ADD14RoundRect,0.105000X-0.245000X-0.105000X0.245000X-0.105000X0.245000X0.105000X-0.245000X0.105000X0*%
%TD*%
%TA.AperFunction,SMDPad,CuDef*%
%ADD15FreePoly0,180.000000*%
%TD*%
%TA.AperFunction,SMDPad,CuDef*%
%ADD16RoundRect,0.105000X0.245000X0.105000X-0.245000X0.105000X-0.245000X-0.105000X0.245000X-0.105000X0*%
%TD*%
%TA.AperFunction,SMDPad,CuDef*%
%ADD17RoundRect,0.062500X0.062500X-0.162500X0.062500X0.162500X-0.062500X0.162500X-0.062500X-0.162500X0*%
%TD*%
%TA.AperFunction,SMDPad,CuDef*%
%ADD18RoundRect,0.087500X0.087500X-0.487500X0.087500X0.487500X-0.087500X0.487500X-0.087500X-0.487500X0*%
%TD*%
%TA.AperFunction,SMDPad,CuDef*%
%ADD19RoundRect,0.050000X0.050000X-0.675000X0.050000X0.675000X-0.050000X0.675000X-0.050000X-0.675000X0*%
%TD*%
%TA.AperFunction,SMDPad,CuDef*%
%ADD20R,0.800000X1.000000*%
%TD*%
%TA.AperFunction,SMDPad,CuDef*%
%ADD21R,1.500000X0.700000*%
%TD*%
%TA.AperFunction,ComponentPad*%
%ADD22C,0.900000*%
%TD*%
%TA.AperFunction,SMDPad,CuDef*%
%ADD23R,1.100000X0.500000*%
%TD*%
%TA.AperFunction,SMDPad,CuDef*%
%ADD24R,1.500000X3.250000*%
%TD*%
%TA.AperFunction,SMDPad,CuDef*%
%ADD25R,1.100000X0.550000*%
%TD*%
%TA.AperFunction,SMDPad,CuDef*%
%ADD26RoundRect,0.250000X-0.350000X-0.650000X0.350000X-0.650000X0.350000X0.650000X-0.350000X0.650000X0*%
%TD*%
%TA.AperFunction,SMDPad,CuDef*%
%ADD27RoundRect,0.150000X-0.150000X-0.625000X0.150000X-0.625000X0.150000X0.625000X-0.150000X0.625000X0*%
%TD*%
%TA.AperFunction,SMDPad,CuDef*%
%ADD28RoundRect,0.250000X0.650000X-0.350000X0.650000X0.350000X-0.650000X0.350000X-0.650000X-0.350000X0*%
%TD*%
%TA.AperFunction,SMDPad,CuDef*%
%ADD29RoundRect,0.150000X0.625000X-0.150000X0.625000X0.150000X-0.625000X0.150000X-0.625000X-0.150000X0*%
%TD*%
%TA.AperFunction,SMDPad,CuDef*%
%ADD30R,2.000000X1.020000*%
%TD*%
%TA.AperFunction,ComponentPad*%
%ADD31C,1.020000*%
%TD*%
%TA.AperFunction,ComponentPad*%
%ADD32C,2.000000*%
%TD*%
%TA.AperFunction,SMDPad,CuDef*%
%ADD33RoundRect,0.250000X-0.250000X-0.475000X0.250000X-0.475000X0.250000X0.475000X-0.250000X0.475000X0*%
%TD*%
%TA.AperFunction,SMDPad,CuDef*%
%ADD34RoundRect,0.200000X0.200000X0.275000X-0.200000X0.275000X-0.200000X-0.275000X0.200000X-0.275000X0*%
%TD*%
%TA.AperFunction,SMDPad,CuDef*%
%ADD35R,1.143000X1.092200*%
%TD*%
%TA.AperFunction,SMDPad,CuDef*%
%ADD36RoundRect,0.200000X-0.275000X0.200000X-0.275000X-0.200000X0.275000X-0.200000X0.275000X0.200000X0*%
%TD*%
%TA.AperFunction,SMDPad,CuDef*%
%ADD37RoundRect,0.218750X-0.218750X-0.256250X0.218750X-0.256250X0.218750X0.256250X-0.218750X0.256250X0*%
%TD*%
%TA.AperFunction,SMDPad,CuDef*%
%ADD38RoundRect,0.100000X-0.100000X0.637500X-0.100000X-0.637500X0.100000X-0.637500X0.100000X0.637500X0*%
%TD*%
%TA.AperFunction,SMDPad,CuDef*%
%ADD39RoundRect,0.140000X-0.140000X-0.170000X0.140000X-0.170000X0.140000X0.170000X-0.140000X0.170000X0*%
%TD*%
%TA.AperFunction,SMDPad,CuDef*%
%ADD40RoundRect,0.225000X-0.250000X0.225000X-0.250000X-0.225000X0.250000X-0.225000X0.250000X0.225000X0*%
%TD*%
%TA.AperFunction,SMDPad,CuDef*%
%ADD41RoundRect,0.225000X-0.225000X-0.250000X0.225000X-0.250000X0.225000X0.250000X-0.225000X0.250000X0*%
%TD*%
%TA.AperFunction,SMDPad,CuDef*%
%ADD42RoundRect,0.150000X-0.150000X0.587500X-0.150000X-0.587500X0.150000X-0.587500X0.150000X0.587500X0*%
%TD*%
%TA.AperFunction,SMDPad,CuDef*%
%ADD43RoundRect,0.218750X0.218750X0.256250X-0.218750X0.256250X-0.218750X-0.256250X0.218750X-0.256250X0*%
%TD*%
%TA.AperFunction,SMDPad,CuDef*%
%ADD44RoundRect,0.135000X-0.185000X0.135000X-0.185000X-0.135000X0.185000X-0.135000X0.185000X0.135000X0*%
%TD*%
%TA.AperFunction,SMDPad,CuDef*%
%ADD45RoundRect,0.200000X-0.200000X-0.275000X0.200000X-0.275000X0.200000X0.275000X-0.200000X0.275000X0*%
%TD*%
%TA.AperFunction,SMDPad,CuDef*%
%ADD46R,1.100000X0.600000*%
%TD*%
%TA.AperFunction,SMDPad,CuDef*%
%ADD47RoundRect,0.225000X0.250000X-0.225000X0.250000X0.225000X-0.250000X0.225000X-0.250000X-0.225000X0*%
%TD*%
%TA.AperFunction,SMDPad,CuDef*%
%ADD48RoundRect,0.140000X-0.170000X0.140000X-0.170000X-0.140000X0.170000X-0.140000X0.170000X0.140000X0*%
%TD*%
%TA.AperFunction,SMDPad,CuDef*%
%ADD49RoundRect,0.140000X0.170000X-0.140000X0.170000X0.140000X-0.170000X0.140000X-0.170000X-0.140000X0*%
%TD*%
%TA.AperFunction,SMDPad,CuDef*%
%ADD50R,2.000000X2.000000*%
%TD*%
%TA.AperFunction,SMDPad,CuDef*%
%ADD51O,1.470000X0.280000*%
%TD*%
%TA.AperFunction,SMDPad,CuDef*%
%ADD52RoundRect,0.218750X-0.256250X0.218750X-0.256250X-0.218750X0.256250X-0.218750X0.256250X0.218750X0*%
%TD*%
%TA.AperFunction,SMDPad,CuDef*%
%ADD53R,0.320000X0.660000*%
%TD*%
%TA.AperFunction,SMDPad,CuDef*%
%ADD54R,1.600000X1.000000*%
%TD*%
%TA.AperFunction,SMDPad,CuDef*%
%ADD55RoundRect,0.140000X0.140000X0.170000X-0.140000X0.170000X-0.140000X-0.170000X0.140000X-0.170000X0*%
%TD*%
%TA.AperFunction,SMDPad,CuDef*%
%ADD56RoundRect,0.250000X-0.312500X-0.625000X0.312500X-0.625000X0.312500X0.625000X-0.312500X0.625000X0*%
%TD*%
%TA.AperFunction,SMDPad,CuDef*%
%ADD57R,1.200000X2.500000*%
%TD*%
%TA.AperFunction,SMDPad,CuDef*%
%ADD58R,3.500000X2.950000*%
%TD*%
%TA.AperFunction,SMDPad,CuDef*%
%ADD59RoundRect,0.250000X-0.475000X0.250000X-0.475000X-0.250000X0.475000X-0.250000X0.475000X0.250000X0*%
%TD*%
%TA.AperFunction,SMDPad,CuDef*%
%ADD60R,0.550000X0.300000*%
%TD*%
%TA.AperFunction,SMDPad,CuDef*%
%ADD61RoundRect,0.150000X0.512500X0.150000X-0.512500X0.150000X-0.512500X-0.150000X0.512500X-0.150000X0*%
%TD*%
%TA.AperFunction,SMDPad,CuDef*%
%ADD62R,1.230000X1.360000*%
%TD*%
%TA.AperFunction,SMDPad,CuDef*%
%ADD63RoundRect,0.245000X0.245000X1.455000X-0.245000X1.455000X-0.245000X-1.455000X0.245000X-1.455000X0*%
%TD*%
%TA.AperFunction,SMDPad,CuDef*%
%ADD64R,1.000000X1.500000*%
%TD*%
%TA.AperFunction,SMDPad,CuDef*%
%ADD65RoundRect,0.225000X0.225000X0.250000X-0.225000X0.250000X-0.225000X-0.250000X0.225000X-0.250000X0*%
%TD*%
%TA.AperFunction,SMDPad,CuDef*%
%ADD66RoundRect,0.250000X0.250000X0.475000X-0.250000X0.475000X-0.250000X-0.475000X0.250000X-0.475000X0*%
%TD*%
%TA.AperFunction,SMDPad,CuDef*%
%ADD67R,1.500000X1.000000*%
%TD*%
%TA.AperFunction,SMDPad,CuDef*%
%ADD68RoundRect,0.100000X-0.637500X-0.100000X0.637500X-0.100000X0.637500X0.100000X-0.637500X0.100000X0*%
%TD*%
%TA.AperFunction,SMDPad,CuDef*%
%ADD69RoundRect,0.150000X-0.587500X-0.150000X0.587500X-0.150000X0.587500X0.150000X-0.587500X0.150000X0*%
%TD*%
%TA.AperFunction,ComponentPad*%
%ADD70RoundRect,0.250000X-0.350000X-0.625000X0.350000X-0.625000X0.350000X0.625000X-0.350000X0.625000X0*%
%TD*%
%TA.AperFunction,ComponentPad*%
%ADD71O,1.200000X1.750000*%
%TD*%
%TA.AperFunction,SMDPad,CuDef*%
%ADD72R,3.200400X1.524000*%
%TD*%
%TA.AperFunction,SMDPad,CuDef*%
%ADD73RoundRect,0.250000X0.650000X-0.325000X0.650000X0.325000X-0.650000X0.325000X-0.650000X-0.325000X0*%
%TD*%
%TA.AperFunction,SMDPad,CuDef*%
%ADD74RoundRect,0.250000X0.475000X-0.250000X0.475000X0.250000X-0.475000X0.250000X-0.475000X-0.250000X0*%
%TD*%
%TA.AperFunction,SMDPad,CuDef*%
%ADD75RoundRect,0.250000X-2.500000X0.465000X-2.500000X-0.465000X2.500000X-0.465000X2.500000X0.465000X0*%
%TD*%
%TA.AperFunction,SMDPad,CuDef*%
%ADD76RoundRect,0.250000X-0.325000X-0.650000X0.325000X-0.650000X0.325000X0.650000X-0.325000X0.650000X0*%
%TD*%
%TA.AperFunction,SMDPad,CuDef*%
%ADD77R,0.850000X1.100000*%
%TD*%
%TA.AperFunction,SMDPad,CuDef*%
%ADD78R,0.750000X1.100000*%
%TD*%
%TA.AperFunction,SMDPad,CuDef*%
%ADD79R,1.200000X1.000000*%
%TD*%
%TA.AperFunction,SMDPad,CuDef*%
%ADD80R,1.550000X1.350000*%
%TD*%
%TA.AperFunction,SMDPad,CuDef*%
%ADD81R,1.900000X1.350000*%
%TD*%
%TA.AperFunction,SMDPad,CuDef*%
%ADD82R,1.170000X1.800000*%
%TD*%
%TA.AperFunction,SMDPad,CuDef*%
%ADD83RoundRect,0.135000X-0.135000X-0.185000X0.135000X-0.185000X0.135000X0.185000X-0.135000X0.185000X0*%
%TD*%
%TA.AperFunction,SMDPad,CuDef*%
%ADD84RoundRect,0.075000X0.075000X-0.662500X0.075000X0.662500X-0.075000X0.662500X-0.075000X-0.662500X0*%
%TD*%
%TA.AperFunction,SMDPad,CuDef*%
%ADD85RoundRect,0.075000X0.662500X-0.075000X0.662500X0.075000X-0.662500X0.075000X-0.662500X-0.075000X0*%
%TD*%
%TA.AperFunction,SMDPad,CuDef*%
%ADD86RoundRect,0.245000X1.455000X-0.245000X1.455000X0.245000X-1.455000X0.245000X-1.455000X-0.245000X0*%
%TD*%
%TA.AperFunction,SMDPad,CuDef*%
%ADD87R,1.000000X1.800000*%
%TD*%
%TA.AperFunction,SMDPad,CuDef*%
%ADD88RoundRect,0.150000X0.587500X0.150000X-0.587500X0.150000X-0.587500X-0.150000X0.587500X-0.150000X0*%
%TD*%
%TA.AperFunction,ViaPad*%
%ADD89C,0.600000*%
%TD*%
%TA.AperFunction,Conductor*%
%ADD90C,0.300000*%
%TD*%
%TA.AperFunction,Conductor*%
%ADD91C,0.400000*%
%TD*%
%TA.AperFunction,Conductor*%
%ADD92C,0.200000*%
%TD*%
%TA.AperFunction,Conductor*%
%ADD93C,0.700000*%
%TD*%
%TA.AperFunction,Conductor*%
%ADD94C,1.000000*%
%TD*%
%TA.AperFunction,Conductor*%
%ADD95C,0.500000*%
%TD*%
%TA.AperFunction,Conductor*%
%ADD96C,1.250000*%
%TD*%
G04 APERTURE END LIST*
D10*
%TO.P,R10,2*%
%TO.N,GND*%
X166100000Y-61200000D03*
%TO.P,R10,1*%
%TO.N,/Power/5V_IN*%
X166100000Y-62850000D03*
%TD*%
%TO.P,R23,2*%
%TO.N,GND*%
X153250000Y-84400000D03*
%TO.P,R23,1*%
%TO.N,/Power/10V_IN*%
X153250000Y-86050000D03*
%TD*%
D11*
%TO.P,Q3,5,D*%
%TO.N,/Power/10V_IN*%
X156020000Y-87685000D03*
D12*
%TO.P,Q3,4,G*%
%TO.N,Net-(Q3-G)*%
X155045000Y-85730000D03*
%TO.P,Q3,3,S*%
%TO.N,+5V*%
X155695000Y-85730000D03*
%TO.P,Q3,2,S*%
X156345000Y-85730000D03*
%TO.P,Q3,1,S*%
X156995000Y-85730000D03*
%TD*%
D13*
%TO.P,Q1,5,D*%
%TO.N,/Power/5V_IN*%
X163585000Y-63167000D03*
D14*
%TO.P,Q1,4,G*%
%TO.N,Net-(Q1-G)*%
X161630000Y-64142000D03*
%TO.P,Q1,3,S*%
%TO.N,+VBAT*%
X161630000Y-63492000D03*
%TO.P,Q1,2,S*%
X161630000Y-62842000D03*
%TO.P,Q1,1,S*%
X161630000Y-62192000D03*
%TD*%
D11*
%TO.P,Q9,5,D*%
%TO.N,/Battery Inputs/BATT2_IN*%
X166282000Y-53605000D03*
D12*
%TO.P,Q9,4,G*%
%TO.N,Net-(Q10-D)*%
X165307000Y-51650000D03*
%TO.P,Q9,3,S*%
%TO.N,Net-(Q9-S-Pad1)*%
X165957000Y-51650000D03*
%TO.P,Q9,2,S*%
X166607000Y-51650000D03*
%TO.P,Q9,1,S*%
X167257000Y-51650000D03*
%TD*%
D15*
%TO.P,Q8,5,D*%
%TO.N,+BATT2*%
X169075000Y-38670000D03*
D16*
%TO.P,Q8,4,G*%
%TO.N,GND*%
X171030000Y-37695000D03*
%TO.P,Q8,3,S*%
%TO.N,Net-(U11-VBUS)*%
X171030000Y-38345000D03*
%TO.P,Q8,2,S*%
X171030000Y-38995000D03*
%TO.P,Q8,1,S*%
X171030000Y-39645000D03*
%TD*%
D11*
%TO.P,Q6,5,D*%
%TO.N,/Battery Inputs/BATT1_IN*%
X145200000Y-52805000D03*
D12*
%TO.P,Q6,4,G*%
%TO.N,Net-(Q6-G)*%
X144225000Y-50850000D03*
%TO.P,Q6,3,S*%
%TO.N,Net-(Q6-S-Pad1)*%
X144875000Y-50850000D03*
%TO.P,Q6,2,S*%
X145525000Y-50850000D03*
%TO.P,Q6,1,S*%
X146175000Y-50850000D03*
%TD*%
D13*
%TO.P,Q5,5,D*%
%TO.N,+BATT1*%
X142405000Y-38650000D03*
D14*
%TO.P,Q5,4,G*%
%TO.N,GND*%
X140450000Y-39625000D03*
%TO.P,Q5,3,S*%
%TO.N,Net-(U9-VBUS)*%
X140450000Y-38975000D03*
%TO.P,Q5,2,S*%
X140450000Y-38325000D03*
%TO.P,Q5,1,S*%
X140450000Y-37675000D03*
%TD*%
D17*
%TO.P,U5,7,VIN*%
%TO.N,/Power/5V_IN*%
X160465000Y-70637500D03*
%TO.P,U5,6,MODE*%
%TO.N,GND*%
X160965000Y-70637500D03*
%TO.P,U5,5,EN*%
%TO.N,Net-(U5-EN)*%
X161465000Y-70637500D03*
%TO.P,U5,4,FB*%
%TO.N,FB_5V*%
X161965000Y-70637500D03*
D18*
%TO.P,U5,3,VOUT*%
%TO.N,5V_OUT*%
X161765000Y-72237500D03*
D19*
%TO.P,U5,2,SW*%
%TO.N,SW_5V*%
X161215000Y-72087500D03*
D18*
%TO.P,U5,1,GND*%
%TO.N,GND*%
X160665000Y-72237500D03*
%TD*%
D20*
%TO.P,SW2,5*%
%TO.N,N/C*%
X138900000Y-112500000D03*
X141100000Y-112500000D03*
%TO.P,SW2,4*%
X138900000Y-107000000D03*
X141100000Y-107000000D03*
D21*
%TO.P,SW2,3,C*%
%TO.N,+3.3V*%
X141800000Y-110750000D03*
%TO.P,SW2,2,B*%
%TO.N,Net-(SW2-B)*%
X141800000Y-109750000D03*
%TO.P,SW2,1,A*%
%TO.N,GND*%
X141800000Y-108750000D03*
D22*
%TO.P,SW2,*%
%TO.N,*%
X140000000Y-111250000D03*
X140000000Y-108250000D03*
%TD*%
D23*
%TO.P,J7,3,Pin_3*%
%TO.N,+BATT2*%
X164350000Y-40800000D03*
D24*
X164350000Y-38925000D03*
D25*
X164350000Y-37025000D03*
D23*
%TO.P,J7,2,Pin_2*%
%TO.N,GND*%
X162350000Y-40800000D03*
D24*
X162350000Y-38925000D03*
D25*
X162350000Y-37025000D03*
D23*
%TO.P,J7,1,Pin_1*%
%TO.N,MSCL*%
X160350000Y-40800000D03*
D24*
X160350000Y-38925000D03*
D25*
X160350000Y-37025000D03*
%TD*%
D26*
%TO.P,J6,MP*%
%TO.N,N/C*%
X152900000Y-144775000D03*
X147300000Y-144775000D03*
D27*
%TO.P,J6,4,Pin_4*%
%TO.N,GND*%
X151600000Y-140900000D03*
%TO.P,J6,3,Pin_3*%
%TO.N,MSCL*%
X150600000Y-140900000D03*
%TO.P,J6,2,Pin_2*%
%TO.N,MSDA*%
X149600000Y-140900000D03*
%TO.P,J6,1,Pin_1*%
%TO.N,+3.3V*%
X148600000Y-140900000D03*
%TD*%
D28*
%TO.P,J5,MP*%
%TO.N,N/C*%
X138325000Y-114750000D03*
X138325000Y-121350000D03*
D29*
%TO.P,J5,5,Pin_5*%
%TO.N,SWDIO*%
X140850000Y-116050000D03*
%TO.P,J5,4,Pin_4*%
%TO.N,SWCLK*%
X140850000Y-117050000D03*
%TO.P,J5,3,Pin_3*%
%TO.N,SWO*%
X140850000Y-118050000D03*
%TO.P,J5,2,Pin_2*%
%TO.N,NRST*%
X140850000Y-119050000D03*
%TO.P,J5,1,Pin_1*%
%TO.N,GND*%
X140850000Y-120050000D03*
%TD*%
D26*
%TO.P,J4,MP*%
%TO.N,N/C*%
X145000000Y-144750000D03*
X141400000Y-144750000D03*
D27*
%TO.P,J4,2,Pin_2*%
%TO.N,GND*%
X143700000Y-140875000D03*
%TO.P,J4,1,Pin_1*%
%TO.N,+RTC_BATT*%
X142700000Y-140875000D03*
%TD*%
D23*
%TO.P,J3,3,Pin_3*%
%TO.N,MSDA*%
X151150000Y-40800000D03*
D24*
X151150000Y-38925000D03*
D25*
X151150000Y-37025000D03*
D23*
%TO.P,J3,2,Pin_2*%
%TO.N,+3.3V*%
X149150000Y-40800000D03*
D24*
X149150000Y-38925000D03*
D25*
X149150000Y-37025000D03*
D23*
%TO.P,J3,1,Pin_1*%
%TO.N,+BATT1*%
X147150000Y-40800000D03*
D24*
X147150000Y-38925000D03*
D25*
X147150000Y-37025000D03*
%TD*%
D30*
%TO.P,J1,40,Pin_40*%
%TO.N,unconnected-(J1-Pin_40-Pad40)*%
X172700000Y-128230000D03*
%TO.P,J1,39,Pin_39*%
%TO.N,GND*%
X167100000Y-128230000D03*
%TO.P,J1,38,Pin_38*%
%TO.N,unconnected-(J1-Pin_38-Pad38)*%
X172700000Y-125690000D03*
%TO.P,J1,37,Pin_37*%
%TO.N,BOOT_MODE*%
X167100000Y-125690000D03*
%TO.P,J1,36,Pin_36*%
%TO.N,unconnected-(J1-Pin_36-Pad36)*%
X172700000Y-123150000D03*
%TO.P,J1,35,Pin_35*%
%TO.N,unconnected-(J1-Pin_35-Pad35)*%
X167100000Y-123150000D03*
%TO.P,J1,34,Pin_34*%
%TO.N,GND*%
X172700000Y-120610000D03*
%TO.P,J1,33,Pin_33*%
%TO.N,unconnected-(J1-Pin_33-Pad33)*%
X167100000Y-120610000D03*
%TO.P,J1,32,Pin_32*%
%TO.N,unconnected-(J1-Pin_32-Pad32)*%
X172700000Y-118070000D03*
%TO.P,J1,31,Pin_31*%
%TO.N,unconnected-(J1-Pin_31-Pad31)*%
X167100000Y-118070000D03*
%TO.P,J1,30,Pin_30*%
%TO.N,GND*%
X172700000Y-115530000D03*
%TO.P,J1,29,Pin_29*%
%TO.N,unconnected-(J1-Pin_29-Pad29)*%
X167100000Y-115530000D03*
%TO.P,J1,28,Pin_28*%
%TO.N,unconnected-(J1-Pin_28-Pad28)*%
X172700000Y-112990000D03*
%TO.P,J1,27,Pin_27*%
%TO.N,unconnected-(J1-Pin_27-Pad27)*%
X167100000Y-112990000D03*
%TO.P,J1,26,Pin_26*%
%TO.N,unconnected-(J1-Pin_26-Pad26)*%
X172700000Y-110450000D03*
%TO.P,J1,25,Pin_25*%
%TO.N,GND*%
X167100000Y-110450000D03*
%TO.P,J1,24,Pin_24*%
%TO.N,unconnected-(J1-Pin_24-Pad24)*%
X172700000Y-107910000D03*
%TO.P,J1,23,Pin_23*%
%TO.N,unconnected-(J1-Pin_23-Pad23)*%
X167100000Y-107910000D03*
%TO.P,J1,22,Pin_22*%
%TO.N,unconnected-(J1-Pin_22-Pad22)*%
X172700000Y-105370000D03*
%TO.P,J1,21,Pin_21*%
%TO.N,unconnected-(J1-Pin_21-Pad21)*%
X167100000Y-105370000D03*
%TO.P,J1,20,Pin_20*%
%TO.N,GND*%
X172700000Y-102830000D03*
%TO.P,J1,19,Pin_19*%
%TO.N,unconnected-(J1-Pin_19-Pad19)*%
X167100000Y-102830000D03*
%TO.P,J1,18,Pin_18*%
%TO.N,unconnected-(J1-Pin_18-Pad18)*%
X172700000Y-100290000D03*
%TO.P,J1,17,Pin_17*%
%TO.N,unconnected-(J1-Pin_17-Pad17)*%
X167100000Y-100290000D03*
%TO.P,J1,16,Pin_16*%
%TO.N,unconnected-(J1-Pin_16-Pad16)*%
X172700000Y-97750000D03*
%TO.P,J1,15,Pin_15*%
%TO.N,RPI_GPIO22*%
X167100000Y-97750000D03*
%TO.P,J1,14,Pin_14*%
%TO.N,GND*%
X172700000Y-95210000D03*
%TO.P,J1,13,Pin_13*%
%TO.N,unconnected-(J1-Pin_13-Pad13)*%
X167100000Y-95210000D03*
%TO.P,J1,12,Pin_12*%
%TO.N,unconnected-(J1-Pin_12-Pad12)*%
X172700000Y-92670000D03*
%TO.P,J1,11,Pin_11*%
%TO.N,unconnected-(J1-Pin_11-Pad11)*%
X167100000Y-92670000D03*
%TO.P,J1,10,Pin_10*%
%TO.N,unconnected-(J1-Pin_10-Pad10)*%
X172700000Y-90130000D03*
%TO.P,J1,9,Pin_9*%
%TO.N,GND*%
X167100000Y-90130000D03*
%TO.P,J1,8,Pin_8*%
%TO.N,unconnected-(J1-Pin_8-Pad8)*%
X172700000Y-87590000D03*
%TO.P,J1,7,Pin_7*%
%TO.N,unconnected-(J1-Pin_7-Pad7)*%
X167100000Y-87590000D03*
%TO.P,J1,6,Pin_6*%
%TO.N,GND*%
X172700000Y-85050000D03*
%TO.P,J1,5,Pin_5*%
%TO.N,SSCL*%
X167100000Y-85050000D03*
%TO.P,J1,4,Pin_4*%
%TO.N,+5V*%
X172700000Y-82510000D03*
%TO.P,J1,3,Pin_3*%
%TO.N,SSDA*%
X167100000Y-82510000D03*
%TO.P,J1,2,Pin_2*%
%TO.N,+5V*%
X172700000Y-79970000D03*
%TO.P,J1,1,Pin_1*%
%TO.N,unconnected-(J1-Pin_1-Pad1)*%
X167100000Y-79970000D03*
D31*
%TO.P,J1,*%
%TO.N,*%
X168630000Y-128230000D03*
X171170000Y-128230000D03*
X168630000Y-125690000D03*
X171170000Y-125690000D03*
D32*
X169900000Y-124420000D03*
D31*
X168630000Y-123150000D03*
X171170000Y-123150000D03*
X168630000Y-120610000D03*
X171170000Y-120610000D03*
X168630000Y-118070000D03*
X171170000Y-118070000D03*
X168630000Y-115530000D03*
X171170000Y-115530000D03*
X168630000Y-112990000D03*
X171170000Y-112990000D03*
X168630000Y-110450000D03*
X171170000Y-110450000D03*
X168630000Y-107910000D03*
X171170000Y-107910000D03*
X168630000Y-105370000D03*
X171170000Y-105370000D03*
X168630000Y-102830000D03*
X171170000Y-102830000D03*
X168630000Y-100290000D03*
X171170000Y-100290000D03*
X168630000Y-97750000D03*
X171170000Y-97750000D03*
X168630000Y-95210000D03*
X171170000Y-95210000D03*
X168630000Y-92670000D03*
X171170000Y-92670000D03*
X168630000Y-90130000D03*
X171170000Y-90130000D03*
X168630000Y-87590000D03*
X171170000Y-87590000D03*
X168630000Y-85050000D03*
X171170000Y-85050000D03*
D32*
X169900000Y-83780000D03*
D31*
X168630000Y-82510000D03*
X171170000Y-82510000D03*
X168630000Y-79970000D03*
X171170000Y-79970000D03*
%TD*%
D33*
%TO.P,C19,1*%
%TO.N,GND*%
X160690000Y-76462500D03*
%TO.P,C19,2*%
%TO.N,5V_OUT*%
X162590000Y-76462500D03*
%TD*%
D34*
%TO.P,R26,1*%
%TO.N,/MCU/10V_EN*%
X155840000Y-78700000D03*
%TO.P,R26,2*%
%TO.N,GND*%
X154190000Y-78700000D03*
%TD*%
D35*
%TO.P,D4,1,K*%
%TO.N,+10V*%
X141663300Y-85500000D03*
%TO.P,D4,2,A*%
%TO.N,SW_10V*%
X144736700Y-85500000D03*
%TD*%
D33*
%TO.P,C21,1*%
%TO.N,+10V*%
X142775000Y-87925000D03*
%TO.P,C21,2*%
%TO.N,GND*%
X144675000Y-87925000D03*
%TD*%
D36*
%TO.P,R27,1*%
%TO.N,Net-(Q6-S-Pad1)*%
X142400000Y-50660000D03*
%TO.P,R27,2*%
%TO.N,Net-(Q6-G)*%
X142400000Y-52310000D03*
%TD*%
%TO.P,R14,1*%
%TO.N,/MCU/5V_EN*%
X153711000Y-63143000D03*
%TO.P,R14,2*%
%TO.N,GND*%
X153711000Y-64793000D03*
%TD*%
D34*
%TO.P,R21,1*%
%TO.N,Net-(JP3-A)*%
X140375000Y-79525000D03*
%TO.P,R21,2*%
%TO.N,Net-(D5-A)*%
X138725000Y-79525000D03*
%TD*%
D37*
%TO.P,D6,1,K*%
%TO.N,GND*%
X138932500Y-57725000D03*
%TO.P,D6,2,A*%
%TO.N,Net-(D6-A)*%
X140507500Y-57725000D03*
%TD*%
D36*
%TO.P,R9,1*%
%TO.N,+VBAT*%
X159200000Y-63375000D03*
%TO.P,R9,2*%
%TO.N,Net-(Q1-G)*%
X159200000Y-65025000D03*
%TD*%
D38*
%TO.P,U9,1,IN+*%
%TO.N,Net-(U9-VBUS)*%
X143175000Y-42368750D03*
%TO.P,U9,2,IN+*%
X142525000Y-42368750D03*
%TO.P,U9,3,IN+*%
X141875000Y-42368750D03*
%TO.P,U9,4,A1*%
%TO.N,+3.3V*%
X141225000Y-42368750D03*
%TO.P,U9,5,A0*%
X140575000Y-42368750D03*
%TO.P,U9,6,GND*%
%TO.N,GND*%
X139925000Y-42368750D03*
%TO.P,U9,7,ALERT*%
%TO.N,unconnected-(U9-ALERT-Pad7)*%
X139275000Y-42368750D03*
%TO.P,U9,8,SDA*%
%TO.N,MSDA*%
X138625000Y-42368750D03*
%TO.P,U9,9,SCL*%
%TO.N,MSCL*%
X138625000Y-48093750D03*
%TO.P,U9,10,VS*%
%TO.N,+3.3V*%
X139275000Y-48093750D03*
%TO.P,U9,11,GND*%
%TO.N,GND*%
X139925000Y-48093750D03*
%TO.P,U9,12,VBUS*%
%TO.N,Net-(U9-VBUS)*%
X140575000Y-48093750D03*
%TO.P,U9,13,NC*%
%TO.N,unconnected-(U9-NC-Pad13)*%
X141225000Y-48093750D03*
%TO.P,U9,14,IN-*%
%TO.N,Net-(Q6-S-Pad1)*%
X141875000Y-48093750D03*
%TO.P,U9,15,IN-*%
X142525000Y-48093750D03*
%TO.P,U9,16,IN-*%
X143175000Y-48093750D03*
%TD*%
D39*
%TO.P,C7,1*%
%TO.N,NRST*%
X142850000Y-123550000D03*
%TO.P,C7,2*%
%TO.N,GND*%
X143810000Y-123550000D03*
%TD*%
D40*
%TO.P,C22,1*%
%TO.N,/Power/10V_IN*%
X151200000Y-87850000D03*
%TO.P,C22,2*%
%TO.N,GND*%
X151200000Y-89400000D03*
%TD*%
D41*
%TO.P,C30,1*%
%TO.N,+VBAT*%
X154975000Y-55110000D03*
%TO.P,C30,2*%
%TO.N,GND*%
X156525000Y-55110000D03*
%TD*%
D38*
%TO.P,U11,1,IN+*%
%TO.N,Net-(U11-VBUS)*%
X172800000Y-42368750D03*
%TO.P,U11,2,IN+*%
X172150000Y-42368750D03*
%TO.P,U11,3,IN+*%
X171500000Y-42368750D03*
%TO.P,U11,4,A1*%
%TO.N,+3.3V*%
X170850000Y-42368750D03*
%TO.P,U11,5,A0*%
%TO.N,GND*%
X170200000Y-42368750D03*
%TO.P,U11,6,GND*%
X169550000Y-42368750D03*
%TO.P,U11,7,ALERT*%
%TO.N,unconnected-(U11-ALERT-Pad7)*%
X168900000Y-42368750D03*
%TO.P,U11,8,SDA*%
%TO.N,MSDA*%
X168250000Y-42368750D03*
%TO.P,U11,9,SCL*%
%TO.N,MSCL*%
X168250000Y-48093750D03*
%TO.P,U11,10,VS*%
%TO.N,+3.3V*%
X168900000Y-48093750D03*
%TO.P,U11,11,GND*%
%TO.N,GND*%
X169550000Y-48093750D03*
%TO.P,U11,12,VBUS*%
%TO.N,Net-(U11-VBUS)*%
X170200000Y-48093750D03*
%TO.P,U11,13,NC*%
%TO.N,unconnected-(U11-NC-Pad13)*%
X170850000Y-48093750D03*
%TO.P,U11,14,IN-*%
%TO.N,Net-(Q9-S-Pad1)*%
X171500000Y-48093750D03*
%TO.P,U11,15,IN-*%
X172150000Y-48093750D03*
%TO.P,U11,16,IN-*%
X172800000Y-48093750D03*
%TD*%
D39*
%TO.P,C38,1*%
%TO.N,GND*%
X170635000Y-62300000D03*
%TO.P,C38,2*%
%TO.N,+3.3V*%
X171595000Y-62300000D03*
%TD*%
D42*
%TO.P,Q4,1,G*%
%TO.N,/MCU/10V_EN*%
X155990000Y-80600000D03*
%TO.P,Q4,2,S*%
%TO.N,GND*%
X154090000Y-80600000D03*
%TO.P,Q4,3,D*%
%TO.N,Net-(Q3-G)*%
X155040000Y-82475000D03*
%TD*%
D43*
%TO.P,D9,1,K*%
%TO.N,GND*%
X144375000Y-136825000D03*
%TO.P,D9,2,A*%
%TO.N,Net-(D9-A)*%
X142800000Y-136825000D03*
%TD*%
D44*
%TO.P,R6,1*%
%TO.N,+3.3V*%
X164480000Y-131625000D03*
%TO.P,R6,2*%
%TO.N,SD_MISO*%
X164480000Y-132645000D03*
%TD*%
D43*
%TO.P,D8,1,K*%
%TO.N,GND*%
X142775000Y-105200000D03*
%TO.P,D8,2,A*%
%TO.N,Net-(D8-A)*%
X141200000Y-105200000D03*
%TD*%
%TO.P,D5,1,K*%
%TO.N,GND*%
X140300000Y-77925000D03*
%TO.P,D5,2,A*%
%TO.N,Net-(D5-A)*%
X138725000Y-77925000D03*
%TD*%
D45*
%TO.P,R38,1*%
%TO.N,ON_OFF*%
X138150000Y-105200000D03*
%TO.P,R38,2*%
%TO.N,Net-(D8-A)*%
X139800000Y-105200000D03*
%TD*%
D46*
%TO.P,U6,1,SW*%
%TO.N,SW_10V*%
X146800000Y-86800000D03*
%TO.P,U6,2,GND*%
%TO.N,GND*%
X146800000Y-87750000D03*
%TO.P,U6,3,FB*%
%TO.N,FB_10V*%
X146800000Y-88700000D03*
%TO.P,U6,4,EN*%
%TO.N,Net-(U6-EN)*%
X149500000Y-88700000D03*
%TO.P,U6,5,VIN*%
%TO.N,/Power/10V_IN*%
X149500000Y-87750000D03*
%TO.P,U6,6,FREQ*%
%TO.N,GND*%
X149500000Y-86800000D03*
%TD*%
D36*
%TO.P,R12,1*%
%TO.N,Net-(JP1-A)*%
X171358000Y-69148000D03*
%TO.P,R12,2*%
%TO.N,Net-(D2-A)*%
X171358000Y-70798000D03*
%TD*%
D10*
%TO.P,R36,1*%
%TO.N,/Battery Inputs/BATT2_EN*%
X173557000Y-55477500D03*
%TO.P,R36,2*%
%TO.N,GND*%
X173557000Y-53827500D03*
%TD*%
D47*
%TO.P,C12,1*%
%TO.N,+3.3V*%
X146700000Y-70450000D03*
%TO.P,C12,2*%
%TO.N,GND*%
X146700000Y-68900000D03*
%TD*%
D48*
%TO.P,C2,1*%
%TO.N,+3.3V*%
X158000000Y-116940000D03*
%TO.P,C2,2*%
%TO.N,GND*%
X158000000Y-117900000D03*
%TD*%
D41*
%TO.P,C26,1*%
%TO.N,+3.3V*%
X138825000Y-49868750D03*
%TO.P,C26,2*%
%TO.N,GND*%
X140375000Y-49868750D03*
%TD*%
D49*
%TO.P,C37,1*%
%TO.N,BOOT_MODE*%
X142550000Y-133925000D03*
%TO.P,C37,2*%
%TO.N,GND*%
X142550000Y-132965000D03*
%TD*%
D34*
%TO.P,R13,1*%
%TO.N,5V_OUT*%
X165850000Y-72975000D03*
%TO.P,R13,2*%
%TO.N,FB_5V*%
X164200000Y-72975000D03*
%TD*%
D50*
%TO.P,D3,1,K*%
%TO.N,+10V*%
X147000000Y-103225000D03*
%TO.P,D3,2,A*%
%TO.N,/Power/LED_OUT_SW*%
X151400000Y-103225000D03*
%TD*%
D51*
%TO.P,U7,1,SDA*%
%TO.N,MSDA*%
X154000000Y-109500000D03*
%TO.P,U7,2,GND*%
%TO.N,GND*%
X154000000Y-109000000D03*
%TO.P,U7,3,VCC*%
%TO.N,+3.3V*%
X154000000Y-108500000D03*
%TO.P,U7,4,A1*%
%TO.N,Net-(U7-A0)*%
X154000000Y-108000000D03*
%TO.P,U7,5,A0*%
X154000000Y-107500000D03*
%TO.P,U7,6,RH*%
%TO.N,Net-(U7-RH)*%
X149700000Y-107500000D03*
%TO.P,U7,7,RW*%
%TO.N,Net-(U7-RW)*%
X149700000Y-108000000D03*
%TO.P,U7,8,RL*%
%TO.N,GND*%
X149700000Y-108500000D03*
%TO.P,U7,9,V+*%
%TO.N,Net-(U7-RH)*%
X149700000Y-109000000D03*
%TO.P,U7,10,SCL*%
%TO.N,MSCL*%
X149700000Y-109500000D03*
%TD*%
D52*
%TO.P,D2,1,K*%
%TO.N,GND*%
X169746000Y-69195000D03*
%TO.P,D2,2,A*%
%TO.N,Net-(D2-A)*%
X169746000Y-70770000D03*
%TD*%
D34*
%TO.P,R20,1*%
%TO.N,+5V*%
X157975000Y-83250000D03*
%TO.P,R20,2*%
%TO.N,Net-(Q3-G)*%
X156325000Y-83250000D03*
%TD*%
D10*
%TO.P,R24,1*%
%TO.N,Net-(U7-RW)*%
X147900000Y-108650000D03*
%TO.P,R24,2*%
%TO.N,/Power/LED_CTRL*%
X147900000Y-107000000D03*
%TD*%
%TO.P,R39,1*%
%TO.N,BOOT_MODE*%
X141250000Y-133735000D03*
%TO.P,R39,2*%
%TO.N,GND*%
X141250000Y-132085000D03*
%TD*%
D34*
%TO.P,R15,1*%
%TO.N,GND*%
X165825000Y-71425000D03*
%TO.P,R15,2*%
%TO.N,FB_5V*%
X164175000Y-71425000D03*
%TD*%
D53*
%TO.P,U3,1,SW*%
%TO.N,Net-(U3-SW)*%
X146800000Y-62850000D03*
%TO.P,U3,2,VOUT*%
%TO.N,Net-(U2-VBUS)*%
X147450000Y-62850000D03*
%TO.P,U3,3,VIN*%
%TO.N,+VBAT*%
X148100000Y-62850000D03*
%TO.P,U3,4,EN/BYP*%
X148100000Y-60800000D03*
%TO.P,U3,5,VSEL*%
%TO.N,GND*%
X147450000Y-60800000D03*
%TO.P,U3,6,GND*%
X146800000Y-60800000D03*
D54*
%TO.P,U3,7,EXP*%
X147450000Y-61825000D03*
%TD*%
D44*
%TO.P,R3,1*%
%TO.N,+3.3V*%
X169715000Y-131580000D03*
%TO.P,R3,2*%
%TO.N,SD_CS*%
X169715000Y-132600000D03*
%TD*%
D41*
%TO.P,C32,1*%
%TO.N,+3.3V*%
X168450000Y-49868750D03*
%TO.P,C32,2*%
%TO.N,GND*%
X170000000Y-49868750D03*
%TD*%
D33*
%TO.P,C17,1*%
%TO.N,GND*%
X160690000Y-78512500D03*
%TO.P,C17,2*%
%TO.N,5V_OUT*%
X162590000Y-78512500D03*
%TD*%
D55*
%TO.P,C11,1*%
%TO.N,GND*%
X150600000Y-126700000D03*
%TO.P,C11,2*%
%TO.N,/MCU/OSC32_OUT*%
X149640000Y-126700000D03*
%TD*%
D33*
%TO.P,C16,1*%
%TO.N,/Power/5V_IN*%
X160690000Y-68750000D03*
%TO.P,C16,2*%
%TO.N,GND*%
X162590000Y-68750000D03*
%TD*%
D41*
%TO.P,C15,1*%
%TO.N,+3.3V*%
X160365000Y-88292500D03*
%TO.P,C15,2*%
%TO.N,GND*%
X161915000Y-88292500D03*
%TD*%
D56*
%TO.P,R16,1*%
%TO.N,Net-(JP2-A)*%
X145137500Y-94525000D03*
%TO.P,R16,2*%
%TO.N,LED_OUT_P*%
X148062500Y-94525000D03*
%TD*%
D36*
%TO.P,R31,1*%
%TO.N,GND*%
X155850000Y-106000000D03*
%TO.P,R31,2*%
%TO.N,Net-(U7-A0)*%
X155850000Y-107650000D03*
%TD*%
D57*
%TO.P,SW4,1,1*%
%TO.N,+3.3V*%
X138500000Y-144425000D03*
%TO.P,SW4,2,2*%
%TO.N,BOOT_MODE*%
X138500000Y-128825000D03*
%TD*%
D36*
%TO.P,R33,1*%
%TO.N,Net-(Q9-S-Pad1)*%
X169057000Y-51712500D03*
%TO.P,R33,2*%
%TO.N,Net-(Q10-D)*%
X169057000Y-53362500D03*
%TD*%
D58*
%TO.P,L4,1,1*%
%TO.N,LED_OUT_N*%
X156400000Y-96900000D03*
%TO.P,L4,2,2*%
%TO.N,/Power/LED_OUT_SW*%
X156400000Y-102350000D03*
%TD*%
D59*
%TO.P,C25,1*%
%TO.N,+10V*%
X144800000Y-102825000D03*
%TO.P,C25,2*%
%TO.N,GND*%
X144800000Y-104725000D03*
%TD*%
D60*
%TO.P,U10,1*%
%TO.N,GND*%
X170285000Y-63400000D03*
%TO.P,U10,2*%
%TO.N,MSDA*%
X170285000Y-64050000D03*
%TO.P,U10,3*%
%TO.N,Net-(R32-Pad2)*%
X170285000Y-64700000D03*
%TO.P,U10,4*%
%TO.N,GND*%
X172035000Y-64700000D03*
%TO.P,U10,5*%
%TO.N,MSCL*%
X172035000Y-64050000D03*
%TO.P,U10,6*%
%TO.N,+3.3V*%
X172035000Y-63400000D03*
%TD*%
D34*
%TO.P,R29,1*%
%TO.N,Net-(JP4-A)*%
X143581000Y-57725000D03*
%TO.P,R29,2*%
%TO.N,Net-(D6-A)*%
X141931000Y-57725000D03*
%TD*%
D61*
%TO.P,U8,1,SW*%
%TO.N,/Power/LED_OUT_SW*%
X151800000Y-100625000D03*
%TO.P,U8,2,GND*%
%TO.N,GND*%
X151800000Y-99675000D03*
%TO.P,U8,3,CTRL*%
%TO.N,/Power/LED_CTRL*%
X151800000Y-98725000D03*
%TO.P,U8,4,SET*%
%TO.N,LED_OUT_P*%
X149525000Y-98725000D03*
%TO.P,U8,5,VIN*%
%TO.N,+10V*%
X149525000Y-100625000D03*
%TD*%
D36*
%TO.P,R40,1*%
%TO.N,BOOT_MODE*%
X141250000Y-135100000D03*
%TO.P,R40,2*%
%TO.N,Net-(D9-A)*%
X141250000Y-136750000D03*
%TD*%
D57*
%TO.P,SW3,1,1*%
%TO.N,+3.3V*%
X138500000Y-87275000D03*
%TO.P,SW3,2,2*%
%TO.N,ON_OFF*%
X138500000Y-102875000D03*
%TD*%
D33*
%TO.P,C31,1*%
%TO.N,+VBAT*%
X154810000Y-56900000D03*
%TO.P,C31,2*%
%TO.N,GND*%
X156710000Y-56900000D03*
%TD*%
D56*
%TO.P,R18,1*%
%TO.N,+10V*%
X145137500Y-96925000D03*
%TO.P,R18,2*%
%TO.N,LED_OUT_P*%
X148062500Y-96925000D03*
%TD*%
D55*
%TO.P,C4,1*%
%TO.N,+3.3V*%
X153705000Y-125600000D03*
%TO.P,C4,2*%
%TO.N,GND*%
X152745000Y-125600000D03*
%TD*%
D33*
%TO.P,C23,1*%
%TO.N,LED_OUT_P*%
X149750000Y-96825000D03*
%TO.P,C23,2*%
%TO.N,LED_OUT_N*%
X151650000Y-96825000D03*
%TD*%
D62*
%TO.P,SW1,1,1*%
%TO.N,GND*%
X137500000Y-124950000D03*
%TO.P,SW1,2,2*%
%TO.N,NRST*%
X141860000Y-124950000D03*
%TD*%
D63*
%TO.P,L3,1,1*%
%TO.N,/Power/10V_IN*%
X149400000Y-83200000D03*
%TO.P,L3,2,2*%
%TO.N,SW_10V*%
X147030000Y-83200000D03*
%TD*%
D44*
%TO.P,R5,1*%
%TO.N,+3.3V*%
X152700000Y-112790000D03*
%TO.P,R5,2*%
%TO.N,MSCL*%
X152700000Y-113810000D03*
%TD*%
D64*
%TO.P,JP3,1,A*%
%TO.N,Net-(JP3-A)*%
X140225000Y-81725000D03*
%TO.P,JP3,2,B*%
%TO.N,+10V*%
X138925000Y-81725000D03*
%TD*%
D65*
%TO.P,C5,1*%
%TO.N,+3.3V*%
X154045000Y-126900000D03*
%TO.P,C5,2*%
%TO.N,GND*%
X152495000Y-126900000D03*
%TD*%
D44*
%TO.P,R4,1*%
%TO.N,+3.3V*%
X151700000Y-112790000D03*
%TO.P,R4,2*%
%TO.N,MSDA*%
X151700000Y-113810000D03*
%TD*%
D66*
%TO.P,C28,1*%
%TO.N,/Battery Inputs/BATT1_IN*%
X147800000Y-47900000D03*
%TO.P,C28,2*%
%TO.N,GND*%
X145900000Y-47900000D03*
%TD*%
D67*
%TO.P,JP2,1,A*%
%TO.N,Net-(JP2-A)*%
X143000000Y-94750000D03*
%TO.P,JP2,2,B*%
%TO.N,+10V*%
X143000000Y-96050000D03*
%TD*%
D34*
%TO.P,R11,1*%
%TO.N,/Power/5V_IN*%
X165840000Y-69887500D03*
%TO.P,R11,2*%
%TO.N,Net-(U5-EN)*%
X164190000Y-69887500D03*
%TD*%
D68*
%TO.P,U2,1,IN+*%
%TO.N,Net-(U2-VBUS)*%
X139100000Y-66650000D03*
%TO.P,U2,2,IN+*%
X139100000Y-67300000D03*
%TO.P,U2,3,IN+*%
X139100000Y-67950000D03*
%TO.P,U2,4,A1*%
%TO.N,GND*%
X139100000Y-68600000D03*
%TO.P,U2,5,A0*%
%TO.N,+3.3V*%
X139100000Y-69250000D03*
%TO.P,U2,6,GND*%
%TO.N,GND*%
X139100000Y-69900000D03*
%TO.P,U2,7,ALERT*%
%TO.N,unconnected-(U2-ALERT-Pad7)*%
X139100000Y-70550000D03*
%TO.P,U2,8,SDA*%
%TO.N,MSDA*%
X139100000Y-71200000D03*
%TO.P,U2,9,SCL*%
%TO.N,MSCL*%
X144825000Y-71200000D03*
%TO.P,U2,10,VS*%
%TO.N,+3.3V*%
X144825000Y-70550000D03*
%TO.P,U2,11,GND*%
%TO.N,GND*%
X144825000Y-69900000D03*
%TO.P,U2,12,VBUS*%
%TO.N,Net-(U2-VBUS)*%
X144825000Y-69250000D03*
%TO.P,U2,13,NC*%
%TO.N,unconnected-(U2-NC-Pad13)*%
X144825000Y-68600000D03*
%TO.P,U2,14,IN-*%
%TO.N,+3.3V*%
X144825000Y-67950000D03*
%TO.P,U2,15,IN-*%
X144825000Y-67300000D03*
%TO.P,U2,16,IN-*%
X144825000Y-66650000D03*
%TD*%
D69*
%TO.P,Q2,1,G*%
%TO.N,/MCU/5V_EN*%
X155536000Y-63043000D03*
%TO.P,Q2,2,S*%
%TO.N,GND*%
X155536000Y-64943000D03*
%TO.P,Q2,3,D*%
%TO.N,Net-(Q1-G)*%
X157411000Y-63993000D03*
%TD*%
D70*
%TO.P,J8,1,Pin_1*%
%TO.N,LED_OUT_N*%
X156600000Y-139425000D03*
D71*
%TO.P,J8,2,Pin_2*%
%TO.N,LED_OUT_P*%
X158600000Y-139425000D03*
%TD*%
D36*
%TO.P,R30,1*%
%TO.N,/Battery Inputs/BATT1_EN*%
X137925000Y-52775000D03*
%TO.P,R30,2*%
%TO.N,GND*%
X137925000Y-54425000D03*
%TD*%
D45*
%TO.P,R22,1*%
%TO.N,+10V*%
X143350000Y-90400000D03*
%TO.P,R22,2*%
%TO.N,FB_10V*%
X145000000Y-90400000D03*
%TD*%
D41*
%TO.P,C20,1*%
%TO.N,+3.3V*%
X152600000Y-105900000D03*
%TO.P,C20,2*%
%TO.N,GND*%
X154150000Y-105900000D03*
%TD*%
D43*
%TO.P,D7,1,K*%
%TO.N,GND*%
X172635000Y-58475000D03*
%TO.P,D7,2,A*%
%TO.N,Net-(D7-A)*%
X171060000Y-58475000D03*
%TD*%
D67*
%TO.P,JP1,1,A*%
%TO.N,Net-(JP1-A)*%
X173470000Y-70086000D03*
%TO.P,JP1,2,B*%
%TO.N,+5V*%
X173470000Y-71386000D03*
%TD*%
D52*
%TO.P,D1,1,K*%
%TO.N,GND*%
X174050000Y-130725000D03*
%TO.P,D1,2,A*%
%TO.N,Net-(D1-A)*%
X174050000Y-132300000D03*
%TD*%
D36*
%TO.P,R8,1*%
%TO.N,BLINKY*%
X172475000Y-130675000D03*
%TO.P,R8,2*%
%TO.N,Net-(D1-A)*%
X172475000Y-132325000D03*
%TD*%
D34*
%TO.P,R17,1*%
%TO.N,+3.3V*%
X151100000Y-105900000D03*
%TO.P,R17,2*%
%TO.N,Net-(U7-RH)*%
X149450000Y-105900000D03*
%TD*%
D41*
%TO.P,C35,1*%
%TO.N,/Battery Inputs/BATT2_IN*%
X163729000Y-46100000D03*
%TO.P,C35,2*%
%TO.N,GND*%
X165279000Y-46100000D03*
%TD*%
D72*
%TO.P,D11,1,K*%
%TO.N,+VBAT*%
X159300000Y-53634200D03*
%TO.P,D11,2,A*%
%TO.N,/Battery Inputs/BATT2_IN*%
X159300000Y-47024200D03*
%TD*%
D39*
%TO.P,C10,1*%
%TO.N,GND*%
X147740000Y-126700000D03*
%TO.P,C10,2*%
%TO.N,/MCU/OSC32_IN*%
X148700000Y-126700000D03*
%TD*%
D73*
%TO.P,C33,1*%
%TO.N,+VBAT*%
X159375000Y-61775000D03*
%TO.P,C33,2*%
%TO.N,GND*%
X159375000Y-58825000D03*
%TD*%
D65*
%TO.P,C29,1*%
%TO.N,/Battery Inputs/BATT1_IN*%
X147844000Y-46100000D03*
%TO.P,C29,2*%
%TO.N,GND*%
X146294000Y-46100000D03*
%TD*%
D74*
%TO.P,C13,1*%
%TO.N,Net-(U2-VBUS)*%
X145150000Y-63400000D03*
%TO.P,C13,2*%
%TO.N,GND*%
X145150000Y-61500000D03*
%TD*%
D39*
%TO.P,C3,1*%
%TO.N,+3.3V*%
X149240000Y-114100000D03*
%TO.P,C3,2*%
%TO.N,GND*%
X150200000Y-114100000D03*
%TD*%
D64*
%TO.P,JP4,1,A*%
%TO.N,Net-(JP4-A)*%
X145300000Y-57725000D03*
%TO.P,JP4,2,B*%
%TO.N,/Battery Inputs/BATT1_IN*%
X146600000Y-57725000D03*
%TD*%
D75*
%TO.P,L2,1,1*%
%TO.N,/Power/5V_IN*%
X156190000Y-67480000D03*
%TO.P,L2,2,2*%
%TO.N,SW_5V*%
X156190000Y-71520000D03*
%TD*%
D72*
%TO.P,D10,1,K*%
%TO.N,+VBAT*%
X152200000Y-53614600D03*
%TO.P,D10,2,A*%
%TO.N,/Battery Inputs/BATT1_IN*%
X152200000Y-47004600D03*
%TD*%
D64*
%TO.P,JP5,1,A*%
%TO.N,Net-(JP5-A)*%
X166274000Y-58486000D03*
%TO.P,JP5,2,B*%
%TO.N,/Battery Inputs/BATT2_IN*%
X164974000Y-58486000D03*
%TD*%
D49*
%TO.P,C6,1*%
%TO.N,+3.3V*%
X146500000Y-122960000D03*
%TO.P,C6,2*%
%TO.N,GND*%
X146500000Y-122000000D03*
%TD*%
D76*
%TO.P,C27,1*%
%TO.N,+VBAT*%
X154375000Y-59125000D03*
%TO.P,C27,2*%
%TO.N,GND*%
X157325000Y-59125000D03*
%TD*%
D38*
%TO.P,U4,1,IN+*%
%TO.N,5V_OUT*%
X164390000Y-80787500D03*
%TO.P,U4,2,IN+*%
X163740000Y-80787500D03*
%TO.P,U4,3,IN+*%
X163090000Y-80787500D03*
%TO.P,U4,4,A1*%
%TO.N,GND*%
X162440000Y-80787500D03*
%TO.P,U4,5,A0*%
X161790000Y-80787500D03*
%TO.P,U4,6,GND*%
X161140000Y-80787500D03*
%TO.P,U4,7,ALERT*%
%TO.N,unconnected-(U4-ALERT-Pad7)*%
X160490000Y-80787500D03*
%TO.P,U4,8,SDA*%
%TO.N,MSDA*%
X159840000Y-80787500D03*
%TO.P,U4,9,SCL*%
%TO.N,MSCL*%
X159840000Y-86512500D03*
%TO.P,U4,10,VS*%
%TO.N,+3.3V*%
X160490000Y-86512500D03*
%TO.P,U4,11,GND*%
%TO.N,GND*%
X161140000Y-86512500D03*
%TO.P,U4,12,VBUS*%
%TO.N,5V_OUT*%
X161790000Y-86512500D03*
%TO.P,U4,13,NC*%
%TO.N,unconnected-(U4-NC-Pad13)*%
X162440000Y-86512500D03*
%TO.P,U4,14,IN-*%
%TO.N,+5V*%
X163090000Y-86512500D03*
%TO.P,U4,15,IN-*%
X163740000Y-86512500D03*
%TO.P,U4,16,IN-*%
X164390000Y-86512500D03*
%TD*%
D45*
%TO.P,R25,1*%
%TO.N,FB_10V*%
X146450000Y-90400000D03*
%TO.P,R25,2*%
%TO.N,GND*%
X148100000Y-90400000D03*
%TD*%
D77*
%TO.P,J2,1,DAT2*%
%TO.N,Net-(J2-DAT2)*%
X171090000Y-145125000D03*
%TO.P,J2,2,DAT3/CD*%
%TO.N,SD_CS*%
X169990000Y-145125000D03*
%TO.P,J2,3,CMD*%
%TO.N,SD_MOSI*%
X168890000Y-145125000D03*
%TO.P,J2,4,VDD*%
%TO.N,+3.3V*%
X167790000Y-145125000D03*
%TO.P,J2,5,CLK*%
%TO.N,SD_CLK*%
X166690000Y-145125000D03*
%TO.P,J2,6,VSS*%
%TO.N,GND*%
X165590000Y-145125000D03*
%TO.P,J2,7,DAT0*%
%TO.N,SD_MISO*%
X164490000Y-145125000D03*
D78*
%TO.P,J2,8,DAT1*%
%TO.N,Net-(J2-DAT1)*%
X163440000Y-145125000D03*
D79*
%TO.P,J2,9,DET_B*%
%TO.N,GND*%
X173725000Y-138975000D03*
%TO.P,J2,10,DET_A*%
%TO.N,unconnected-(J2-DET_A-Pad10)*%
X173725000Y-135275000D03*
D80*
%TO.P,J2,11,SHIELD*%
%TO.N,unconnected-(J2-SHIELD-Pad11)*%
X173550000Y-145000000D03*
D81*
%TO.N,unconnected-(J2-SHIELD-Pad11)_3*%
X170225000Y-134300000D03*
%TO.N,unconnected-(J2-SHIELD-Pad11)_1*%
X164255000Y-134300000D03*
D82*
%TO.N,unconnected-(J2-SHIELD-Pad11)_2*%
X162230000Y-144775000D03*
%TD*%
D83*
%TO.P,R32,1*%
%TO.N,+3.3V*%
X167980000Y-64700000D03*
%TO.P,R32,2*%
%TO.N,Net-(R32-Pad2)*%
X169000000Y-64700000D03*
%TD*%
D45*
%TO.P,R34,1*%
%TO.N,/Battery Inputs/BATT2_IN*%
X164657000Y-56150000D03*
%TO.P,R34,2*%
%TO.N,GND*%
X166307000Y-56150000D03*
%TD*%
D65*
%TO.P,C24,1*%
%TO.N,GND*%
X152450000Y-111100000D03*
%TO.P,C24,2*%
%TO.N,Net-(U7-RH)*%
X150900000Y-111100000D03*
%TD*%
D33*
%TO.P,C34,1*%
%TO.N,/Battery Inputs/BATT2_IN*%
X163773000Y-47900000D03*
%TO.P,C34,2*%
%TO.N,GND*%
X165673000Y-47900000D03*
%TD*%
D39*
%TO.P,C36,1*%
%TO.N,ON_OFF*%
X143450000Y-107045000D03*
%TO.P,C36,2*%
%TO.N,GND*%
X144410000Y-107045000D03*
%TD*%
D44*
%TO.P,R1,1*%
%TO.N,+3.3V*%
X170750000Y-131590000D03*
%TO.P,R1,2*%
%TO.N,Net-(J2-DAT2)*%
X170750000Y-132610000D03*
%TD*%
D45*
%TO.P,R35,1*%
%TO.N,Net-(JP5-A)*%
X167997000Y-58475000D03*
%TO.P,R35,2*%
%TO.N,Net-(D7-A)*%
X169647000Y-58475000D03*
%TD*%
D44*
%TO.P,R7,1*%
%TO.N,+3.3V*%
X163455000Y-131625000D03*
%TO.P,R7,2*%
%TO.N,Net-(J2-DAT1)*%
X163455000Y-132645000D03*
%TD*%
D74*
%TO.P,C14,1*%
%TO.N,+VBAT*%
X149750000Y-63400000D03*
%TO.P,C14,2*%
%TO.N,GND*%
X149750000Y-61500000D03*
%TD*%
D69*
%TO.P,Q7,1,G*%
%TO.N,/Battery Inputs/BATT1_EN*%
X139775000Y-52650000D03*
%TO.P,Q7,2,S*%
%TO.N,GND*%
X139775000Y-54550000D03*
%TO.P,Q7,3,D*%
%TO.N,Net-(Q6-G)*%
X141650000Y-53600000D03*
%TD*%
D34*
%TO.P,R28,1*%
%TO.N,/Battery Inputs/BATT1_IN*%
X146950000Y-55350000D03*
%TO.P,R28,2*%
%TO.N,GND*%
X145300000Y-55350000D03*
%TD*%
D33*
%TO.P,C18,1*%
%TO.N,GND*%
X160690000Y-74412500D03*
%TO.P,C18,2*%
%TO.N,5V_OUT*%
X162590000Y-74412500D03*
%TD*%
D84*
%TO.P,U1,1,VBAT*%
%TO.N,+RTC_BATT*%
X149500000Y-124025000D03*
%TO.P,U1,2,PC13*%
%TO.N,unconnected-(U1-PC13-Pad2)*%
X150000000Y-124025000D03*
%TO.P,U1,3,PC14*%
%TO.N,/MCU/OSC32_IN*%
X150500000Y-124025000D03*
%TO.P,U1,4,PC15*%
%TO.N,/MCU/OSC32_OUT*%
X151000000Y-124025000D03*
%TO.P,U1,5,PH0*%
%TO.N,unconnected-(U1-PH0-Pad5)*%
X151500000Y-124025000D03*
%TO.P,U1,6,PH1*%
%TO.N,unconnected-(U1-PH1-Pad6)*%
X152000000Y-124025000D03*
%TO.P,U1,7,NRST*%
%TO.N,NRST*%
X152500000Y-124025000D03*
%TO.P,U1,8,VSSA*%
%TO.N,GND*%
X153000000Y-124025000D03*
%TO.P,U1,9,VDDA*%
%TO.N,+3.3V*%
X153500000Y-124025000D03*
%TO.P,U1,10,PA0*%
%TO.N,BLINKY*%
X154000000Y-124025000D03*
%TO.P,U1,11,PA1*%
%TO.N,SD_CLK*%
X154500000Y-124025000D03*
%TO.P,U1,12,PA2*%
%TO.N,unconnected-(U1-PA2-Pad12)*%
X155000000Y-124025000D03*
D85*
%TO.P,U1,13,PA3*%
%TO.N,unconnected-(U1-PA3-Pad13)*%
X156412500Y-122612500D03*
%TO.P,U1,14,PA4*%
%TO.N,unconnected-(U1-PA4-Pad14)*%
X156412500Y-122112500D03*
%TO.P,U1,15,PA5*%
%TO.N,SD_CS*%
X156412500Y-121612500D03*
%TO.P,U1,16,PA6*%
%TO.N,SD_MISO*%
X156412500Y-121112500D03*
%TO.P,U1,17,PA7*%
%TO.N,SD_MOSI*%
X156412500Y-120612500D03*
%TO.P,U1,18,PB0*%
%TO.N,unconnected-(U1-PB0-Pad18)*%
X156412500Y-120112500D03*
%TO.P,U1,19,PB1*%
%TO.N,BOOT_MODE*%
X156412500Y-119612500D03*
%TO.P,U1,20,PB2*%
%TO.N,ON_OFF*%
X156412500Y-119112500D03*
%TO.P,U1,21,PB10*%
%TO.N,SSCL*%
X156412500Y-118612500D03*
%TO.P,U1,22,PB11*%
%TO.N,SSDA*%
X156412500Y-118112500D03*
%TO.P,U1,23,VSS*%
%TO.N,GND*%
X156412500Y-117612500D03*
%TO.P,U1,24,VDD*%
%TO.N,+3.3V*%
X156412500Y-117112500D03*
D84*
%TO.P,U1,25,PB12*%
%TO.N,RPI_GPIO22*%
X155000000Y-115700000D03*
%TO.P,U1,26,PB13*%
%TO.N,/MCU/5V_EN*%
X154500000Y-115700000D03*
%TO.P,U1,27,PB14*%
%TO.N,/MCU/10V_EN*%
X154000000Y-115700000D03*
%TO.P,U1,28,PB15*%
%TO.N,/Battery Inputs/BATT2_EN*%
X153500000Y-115700000D03*
%TO.P,U1,29,PA8*%
%TO.N,/Battery Inputs/BATT1_EN*%
X153000000Y-115700000D03*
%TO.P,U1,30,PA9*%
%TO.N,MSCL*%
X152500000Y-115700000D03*
%TO.P,U1,31,PA10*%
%TO.N,MSDA*%
X152000000Y-115700000D03*
%TO.P,U1,32,PA11*%
%TO.N,unconnected-(U1-PA11-Pad32)*%
X151500000Y-115700000D03*
%TO.P,U1,33,PA12*%
%TO.N,unconnected-(U1-PA12-Pad33)*%
X151000000Y-115700000D03*
%TO.P,U1,34,PA13*%
%TO.N,SWDIO*%
X150500000Y-115700000D03*
%TO.P,U1,35,VSS*%
%TO.N,GND*%
X150000000Y-115700000D03*
%TO.P,U1,36,VDD*%
%TO.N,+3.3V*%
X149500000Y-115700000D03*
D85*
%TO.P,U1,37,PA14*%
%TO.N,SWCLK*%
X148087500Y-117112500D03*
%TO.P,U1,38,PA15*%
%TO.N,unconnected-(U1-PA15-Pad38)*%
X148087500Y-117612500D03*
%TO.P,U1,39,PB3*%
%TO.N,SWO*%
X148087500Y-118112500D03*
%TO.P,U1,40,PB4*%
%TO.N,unconnected-(U1-PB4-Pad40)*%
X148087500Y-118612500D03*
%TO.P,U1,41,PB5*%
%TO.N,unconnected-(U1-PB5-Pad41)*%
X148087500Y-119112500D03*
%TO.P,U1,42,PB6*%
%TO.N,unconnected-(U1-PB6-Pad42)*%
X148087500Y-119612500D03*
%TO.P,U1,43,PB7*%
%TO.N,unconnected-(U1-PB7-Pad43)*%
X148087500Y-120112500D03*
%TO.P,U1,44,PH3*%
%TO.N,Net-(U1-PH3)*%
X148087500Y-120612500D03*
%TO.P,U1,45,PB8*%
%TO.N,unconnected-(U1-PB8-Pad45)*%
X148087500Y-121112500D03*
%TO.P,U1,46,PB9*%
%TO.N,unconnected-(U1-PB9-Pad46)*%
X148087500Y-121612500D03*
%TO.P,U1,47,VSS*%
%TO.N,GND*%
X148087500Y-122112500D03*
%TO.P,U1,48,VDD*%
%TO.N,+3.3V*%
X148087500Y-122612500D03*
%TD*%
D44*
%TO.P,R2,1*%
%TO.N,Net-(SW2-B)*%
X143850000Y-111790000D03*
%TO.P,R2,2*%
%TO.N,Net-(U1-PH3)*%
X143850000Y-112810000D03*
%TD*%
D86*
%TO.P,L1,1,1*%
%TO.N,+VBAT*%
X141650000Y-64520000D03*
%TO.P,L1,2,2*%
%TO.N,Net-(U3-SW)*%
X141650000Y-62150000D03*
%TD*%
D40*
%TO.P,C1,1*%
%TO.N,+3.3V*%
X159300000Y-116600000D03*
%TO.P,C1,2*%
%TO.N,GND*%
X159300000Y-118150000D03*
%TD*%
D34*
%TO.P,R19,1*%
%TO.N,/Power/10V_IN*%
X151300000Y-91900000D03*
%TO.P,R19,2*%
%TO.N,Net-(U6-EN)*%
X149650000Y-91900000D03*
%TD*%
D87*
%TO.P,Y1,1,1*%
%TO.N,/MCU/OSC32_OUT*%
X150410000Y-128300000D03*
%TO.P,Y1,2,2*%
%TO.N,/MCU/OSC32_IN*%
X147910000Y-128300000D03*
%TD*%
D88*
%TO.P,Q10,1,G*%
%TO.N,/Battery Inputs/BATT2_EN*%
X171719500Y-55602500D03*
%TO.P,Q10,2,S*%
%TO.N,GND*%
X171719500Y-53702500D03*
%TO.P,Q10,3,D*%
%TO.N,Net-(Q10-D)*%
X169844500Y-54652500D03*
%TD*%
D45*
%TO.P,R37,1*%
%TO.N,ON_OFF*%
X139925000Y-103350000D03*
%TO.P,R37,2*%
%TO.N,GND*%
X141575000Y-103350000D03*
%TD*%
D89*
%TO.N,GND*%
X166100000Y-60300000D03*
X152225000Y-84400000D03*
X139550000Y-39600000D03*
X142300000Y-107850000D03*
X145700000Y-87675000D03*
X160975000Y-58200000D03*
X144500000Y-140200000D03*
X139925000Y-46900000D03*
X158450000Y-77500000D03*
X154550000Y-73850000D03*
X152450000Y-127750000D03*
X140500000Y-131250000D03*
X155550000Y-77025000D03*
X169550000Y-43500000D03*
X160250000Y-57775000D03*
X156575000Y-73850000D03*
X166775000Y-109450000D03*
X149750000Y-60450000D03*
X144800000Y-47900000D03*
X171735000Y-54552500D03*
X137800000Y-141750000D03*
X161525000Y-89375000D03*
X159400000Y-41700000D03*
X159400000Y-57775000D03*
X154550000Y-74900000D03*
X144892000Y-60446000D03*
X144650000Y-142200000D03*
X148625000Y-125700000D03*
X173050000Y-116525000D03*
X172885000Y-64700000D03*
X154825000Y-80600000D03*
X151900000Y-142800000D03*
X166800000Y-71450000D03*
X162300000Y-89400000D03*
X155550000Y-74900000D03*
X137831000Y-57725000D03*
X146825000Y-125700000D03*
X151000000Y-122650000D03*
X170635000Y-61500000D03*
X173050000Y-94150000D03*
X155550000Y-75975000D03*
X166850000Y-47900000D03*
X144892000Y-59746000D03*
X159350000Y-99650000D03*
X151600000Y-139700000D03*
X147700000Y-68900000D03*
X144750000Y-46100000D03*
X173050000Y-119625000D03*
X154250000Y-99659287D03*
X158575000Y-57750000D03*
X146600000Y-142200000D03*
X165785000Y-139825000D03*
X158425000Y-75400000D03*
X148200000Y-136600000D03*
X142550000Y-132000000D03*
X165760000Y-144025000D03*
X160975000Y-57175000D03*
X161150000Y-41700000D03*
X163400000Y-41700000D03*
X140500000Y-141900000D03*
X139347367Y-43606250D03*
X148150000Y-87750000D03*
X145725000Y-105750000D03*
X156350000Y-99640713D03*
X157800000Y-57750000D03*
X154975000Y-105375000D03*
X173050000Y-121600000D03*
X139800000Y-53800000D03*
X149650000Y-135800000D03*
X157350000Y-99650000D03*
X163900000Y-67650000D03*
X156575000Y-75975000D03*
X162350000Y-41400000D03*
X155533000Y-64135000D03*
X142300000Y-142300000D03*
X145875000Y-121975000D03*
X168550000Y-69150000D03*
X138750000Y-140000000D03*
X145700000Y-88400000D03*
X151575000Y-90375000D03*
X161125000Y-82050000D03*
X172175000Y-84250000D03*
X156575000Y-77025000D03*
X148425000Y-129900000D03*
X145725000Y-106625000D03*
X146800000Y-137350000D03*
X166750000Y-91275000D03*
X146469000Y-59751000D03*
X158400000Y-99650000D03*
X163400000Y-43100000D03*
X137350000Y-145100000D03*
X148150000Y-88640000D03*
X142050000Y-120050000D03*
X151700000Y-144750000D03*
X164750000Y-66750000D03*
X161775000Y-82075000D03*
X169550000Y-46750000D03*
X166775000Y-111425000D03*
X150450000Y-113425000D03*
X165300000Y-41700000D03*
X141525000Y-77900000D03*
X144400000Y-135700000D03*
X165557000Y-56100000D03*
X158800000Y-56700000D03*
X146875000Y-129900000D03*
X166300000Y-46100000D03*
X159450000Y-75400000D03*
X173050000Y-101850000D03*
X174050000Y-129550000D03*
X171100000Y-49850000D03*
X157800000Y-56975000D03*
X159475000Y-77500000D03*
X147900000Y-143300000D03*
X173050000Y-114550000D03*
X142750000Y-103950000D03*
X144500000Y-55325000D03*
X140500000Y-139500000D03*
X138700000Y-135550000D03*
X137450000Y-123050000D03*
X160975000Y-59225000D03*
X146550000Y-139500000D03*
X144450000Y-123550000D03*
X172560000Y-138950000D03*
X164750000Y-68500000D03*
X163900000Y-66750000D03*
X140250000Y-69875000D03*
X152450000Y-110325000D03*
X160975000Y-55125000D03*
X163900000Y-68500000D03*
X151150000Y-108350000D03*
X162450000Y-82050000D03*
X157800000Y-56200000D03*
X149750000Y-59750000D03*
X151325000Y-125850000D03*
X140375000Y-50781250D03*
X153699000Y-64043000D03*
X166775000Y-129225000D03*
X144405000Y-106295000D03*
X151525000Y-127950000D03*
X151525000Y-129900000D03*
X157425000Y-75400000D03*
X145704000Y-60443000D03*
X157575000Y-55125000D03*
X173050000Y-96125000D03*
X137750000Y-137850000D03*
X137950000Y-53675000D03*
X173550000Y-53050000D03*
X154940000Y-78683831D03*
X155300000Y-99659287D03*
X154550000Y-75975000D03*
X150000000Y-143800000D03*
X165300000Y-43100000D03*
X159800000Y-56700000D03*
X160325000Y-118125000D03*
X154550000Y-77025000D03*
X153250000Y-99650000D03*
X155550000Y-73850000D03*
X161150000Y-43100000D03*
X156575000Y-74900000D03*
X146825000Y-128150000D03*
X165775000Y-90100000D03*
X145704000Y-59743000D03*
X140250000Y-68600000D03*
X164750000Y-67650000D03*
X150775000Y-90375000D03*
X171750000Y-83825000D03*
X174160000Y-58450000D03*
X159400000Y-43100000D03*
X166775000Y-127250000D03*
X173050000Y-103825000D03*
X171550000Y-37100000D03*
X143750000Y-69900000D03*
X160975000Y-56150000D03*
X149975000Y-129900000D03*
%TO.N,+3.3V*%
X145875000Y-122950000D03*
X163460000Y-130850000D03*
X147650000Y-67625000D03*
X148775000Y-66475000D03*
X146525000Y-67625000D03*
X137450000Y-87300000D03*
X151700000Y-112075000D03*
X148600000Y-142100000D03*
X160300000Y-116575000D03*
X167650000Y-49250000D03*
X149150000Y-41450000D03*
X159575000Y-88300000D03*
X169700000Y-130775000D03*
X143500000Y-67650000D03*
X164460000Y-130850000D03*
X154000000Y-127750000D03*
X143500000Y-66500000D03*
X170846383Y-43468481D03*
X140166508Y-43774563D03*
X149000000Y-113350000D03*
X152700000Y-112075000D03*
X147650000Y-66475000D03*
X146525000Y-66475000D03*
X148775000Y-67625000D03*
X167200000Y-64700000D03*
X139750000Y-144400000D03*
X167635000Y-139800000D03*
X142300000Y-111650000D03*
X142375000Y-67650000D03*
X149900000Y-66475000D03*
X142375000Y-66500000D03*
X171585000Y-61450000D03*
X167535000Y-144100000D03*
X152600000Y-104950000D03*
X149900000Y-67625000D03*
X137975000Y-69225000D03*
X147675000Y-70425000D03*
X138825000Y-50856250D03*
%TO.N,NRST*%
X151986030Y-125262500D03*
X140075000Y-122800000D03*
%TO.N,5V_OUT*%
X163650000Y-82975000D03*
X161775000Y-85475000D03*
%TO.N,SSDA*%
X165450000Y-82875000D03*
X157475000Y-113600000D03*
%TO.N,RPI_GPIO22*%
X166025000Y-99025000D03*
X161100000Y-109300000D03*
%TO.N,SSCL*%
X154675000Y-117950000D03*
X165450000Y-84550000D03*
%TO.N,BOOT_MODE*%
X160125000Y-119612500D03*
X165975000Y-124375000D03*
%TO.N,SD_MOSI*%
X158625000Y-120375000D03*
X168910000Y-143800000D03*
%TO.N,SD_MISO*%
X164485000Y-143975000D03*
X158161300Y-121117628D03*
X165235000Y-132625000D03*
%TO.N,SD_CS*%
X164475000Y-129725000D03*
X158464704Y-121857864D03*
%TO.N,SD_CLK*%
X163610000Y-139525000D03*
X156800000Y-127300000D03*
%TO.N,MSDA*%
X151775000Y-117225000D03*
X167550000Y-42350000D03*
X158450000Y-106475000D03*
X169050000Y-63550000D03*
X139650000Y-45400000D03*
X149825000Y-111025000D03*
X159875000Y-82300000D03*
X151150000Y-41450000D03*
X149600000Y-138862500D03*
X159075000Y-90325000D03*
X152800000Y-109525000D03*
X158100000Y-92125000D03*
%TO.N,MSCL*%
X146825000Y-71500000D03*
X152625000Y-117175000D03*
X148450000Y-109925000D03*
X168250000Y-45700000D03*
X150575000Y-138837500D03*
X156725000Y-91775000D03*
X157025000Y-38350000D03*
X172951437Y-63902760D03*
X138625000Y-46806250D03*
%TO.N,ON_OFF*%
X150400000Y-117900000D03*
X143450000Y-107850000D03*
%TO.N,/MCU/5V_EN*%
X153725000Y-62175000D03*
X156163235Y-110800000D03*
%TO.N,/MCU/10V_EN*%
X155425000Y-111975000D03*
X156975000Y-79225000D03*
%TO.N,Net-(U1-PH3)*%
X146800000Y-120625000D03*
X144700000Y-112850000D03*
%TO.N,BLINKY*%
X158150000Y-125850000D03*
X163200000Y-129800000D03*
%TO.N,/Power/LED_CTRL*%
X147975000Y-105650000D03*
X150575000Y-99675000D03*
%TO.N,/Battery Inputs/BATT1_EN*%
X138100000Y-51700000D03*
X153550000Y-113550000D03*
%TO.N,Net-(Q10-D)*%
X164835000Y-50900000D03*
X169044531Y-52612500D03*
%TO.N,/Battery Inputs/BATT2_EN*%
X173410000Y-56877500D03*
X160000000Y-110900000D03*
%TO.N,Net-(U6-EN)*%
X149500000Y-89325000D03*
X148800000Y-91850000D03*
%TD*%
D90*
%TO.N,GND*%
X166100000Y-61200000D02*
X166100000Y-60300000D01*
X153250000Y-84400000D02*
X152225000Y-84400000D01*
D91*
X140250000Y-39600000D02*
X140265000Y-39615000D01*
X139550000Y-39600000D02*
X140250000Y-39600000D01*
D92*
%TO.N,+RTC_BATT*%
X138173000Y-126700000D02*
X142975000Y-126700000D01*
X137050000Y-134850000D02*
X137050000Y-127823000D01*
X142700000Y-140875000D02*
X142700000Y-140500000D01*
X142975000Y-126700000D02*
X145650000Y-124025000D01*
X145650000Y-124025000D02*
X149500000Y-124025000D01*
X137050000Y-127823000D02*
X138173000Y-126700000D01*
X142700000Y-140500000D02*
X137050000Y-134850000D01*
D90*
%TO.N,GND*%
X165607000Y-56150000D02*
X165557000Y-56100000D01*
X154450000Y-105900000D02*
X154150000Y-105900000D01*
X137925000Y-54425000D02*
X139650000Y-54425000D01*
X162300000Y-89370000D02*
X162300000Y-89400000D01*
X165590000Y-145125000D02*
X165590000Y-144195000D01*
X144410000Y-106300000D02*
X144405000Y-106295000D01*
X155536000Y-64138000D02*
X155533000Y-64135000D01*
X139100000Y-68600000D02*
X140250000Y-68600000D01*
X154975000Y-105375000D02*
X155250000Y-105100000D01*
D93*
X167125000Y-111075000D02*
X166775000Y-111425000D01*
X165805000Y-90130000D02*
X165775000Y-90100000D01*
D90*
X170000000Y-49868750D02*
X169550000Y-49418750D01*
D92*
X142150000Y-103350000D02*
X142750000Y-103950000D01*
D90*
X170000000Y-49868750D02*
X171081250Y-49868750D01*
D93*
X172700000Y-102910000D02*
X172700000Y-103475000D01*
D90*
X161140000Y-80787500D02*
X161140000Y-82035000D01*
X159050000Y-117900000D02*
X159300000Y-118150000D01*
X139925000Y-48093750D02*
X139925000Y-46900000D01*
X154923831Y-78700000D02*
X154940000Y-78683831D01*
X169550000Y-42368750D02*
X169550000Y-43500000D01*
X169550000Y-48093750D02*
X169550000Y-46750000D01*
D93*
X165279000Y-46100000D02*
X166300000Y-46100000D01*
D90*
X150200000Y-113675000D02*
X150450000Y-113425000D01*
X137925000Y-54425000D02*
X137925000Y-53700000D01*
D94*
X144800000Y-104725000D02*
X145725000Y-105650000D01*
D90*
X145900000Y-122000000D02*
X145875000Y-121975000D01*
X139925000Y-48093750D02*
X139925000Y-49418750D01*
D93*
X167125000Y-128165000D02*
X167125000Y-127600000D01*
D90*
X160965000Y-70637500D02*
X160964000Y-70636500D01*
X144825000Y-69900000D02*
X145700000Y-69900000D01*
X165825000Y-71425000D02*
X166775000Y-71425000D01*
D94*
X145725000Y-105750000D02*
X145725000Y-106625000D01*
D92*
X142775000Y-103975000D02*
X142750000Y-103950000D01*
X144400000Y-136800000D02*
X144375000Y-136825000D01*
D90*
X162332470Y-68750000D02*
X162590000Y-68750000D01*
X161140000Y-86512500D02*
X161140000Y-87517500D01*
D93*
X172700000Y-115610000D02*
X172700000Y-116175000D01*
D94*
X145725000Y-106625000D02*
X145725000Y-106725000D01*
D93*
X172700000Y-119975000D02*
X173050000Y-119625000D01*
X167100000Y-90925000D02*
X166750000Y-91275000D01*
D90*
X140500000Y-131335000D02*
X141250000Y-132085000D01*
X160300000Y-118150000D02*
X160325000Y-118125000D01*
X159300000Y-118150000D02*
X160300000Y-118150000D01*
D92*
X137500000Y-124950000D02*
X137500000Y-123100000D01*
D90*
X146500000Y-122000000D02*
X145900000Y-122000000D01*
X139775000Y-54550000D02*
X139775000Y-53825000D01*
D92*
X141575000Y-103350000D02*
X142150000Y-103350000D01*
D90*
X152700000Y-122575000D02*
X151075000Y-122575000D01*
X152700000Y-125600000D02*
X152700000Y-126650000D01*
X162440000Y-82040000D02*
X162450000Y-82050000D01*
X152700000Y-126650000D02*
X152450000Y-126900000D01*
D93*
X172700000Y-114900000D02*
X173050000Y-114550000D01*
D90*
X139925000Y-49418750D02*
X140375000Y-49868750D01*
X140375000Y-49868750D02*
X140375000Y-50781250D01*
D93*
X172700000Y-102200000D02*
X173050000Y-101850000D01*
X167125000Y-109800000D02*
X166775000Y-109450000D01*
D90*
X158000000Y-117900000D02*
X159050000Y-117900000D01*
X140300000Y-77925000D02*
X141500000Y-77925000D01*
X173557000Y-53827500D02*
X171844500Y-53827500D01*
X172585000Y-138975000D02*
X172560000Y-138950000D01*
X171719500Y-53702500D02*
X171719500Y-54537000D01*
X137925000Y-53700000D02*
X137950000Y-53675000D01*
D91*
X171110000Y-37660000D02*
X171110000Y-37540000D01*
D90*
X151075000Y-122575000D02*
X151000000Y-122650000D01*
D93*
X172700000Y-95775000D02*
X173050000Y-96125000D01*
D90*
X171844500Y-53827500D02*
X171719500Y-53702500D01*
X139775000Y-53825000D02*
X139800000Y-53800000D01*
X155600000Y-106000000D02*
X155850000Y-106000000D01*
X144410000Y-107045000D02*
X144410000Y-106300000D01*
X154975000Y-105375000D02*
X154450000Y-105900000D01*
X154190000Y-78700000D02*
X154190000Y-80500000D01*
D93*
X172700000Y-120685000D02*
X172700000Y-119975000D01*
D90*
X148600000Y-86800000D02*
X148175000Y-87225000D01*
D93*
X167100000Y-90130000D02*
X165805000Y-90130000D01*
D90*
X152450000Y-111100000D02*
X152450000Y-110325000D01*
X153711000Y-64055000D02*
X153699000Y-64043000D01*
D93*
X172700000Y-85050000D02*
X172700000Y-84775000D01*
D91*
X171110000Y-37540000D02*
X171550000Y-37100000D01*
D93*
X172700000Y-95210000D02*
X172700000Y-94500000D01*
D90*
X154190000Y-80500000D02*
X154090000Y-80600000D01*
D92*
X144500000Y-140200000D02*
X143825000Y-140875000D01*
D93*
X167125000Y-110365000D02*
X167125000Y-111075000D01*
D94*
X145900000Y-47900000D02*
X144800000Y-47900000D01*
D90*
X161915000Y-88985000D02*
X161525000Y-89375000D01*
X154090000Y-80600000D02*
X154825000Y-80600000D01*
X153000000Y-124025000D02*
X153000000Y-122875000D01*
X138932500Y-57725000D02*
X137831000Y-57725000D01*
X146612500Y-122112500D02*
X146500000Y-122000000D01*
X146700000Y-68900000D02*
X147700000Y-68900000D01*
X148087500Y-122112500D02*
X146612500Y-122112500D01*
D93*
X167125000Y-128875000D02*
X166775000Y-129225000D01*
D94*
X145725000Y-105650000D02*
X145725000Y-105750000D01*
D90*
X156200000Y-109000000D02*
X154000000Y-109000000D01*
X160964000Y-70636500D02*
X160964000Y-70118470D01*
X173550000Y-53820500D02*
X173557000Y-53827500D01*
X169746000Y-69195000D02*
X168595000Y-69195000D01*
X139100000Y-69900000D02*
X140225000Y-69900000D01*
X140500000Y-131250000D02*
X140500000Y-131335000D01*
X151150000Y-108350000D02*
X150825000Y-108350000D01*
D92*
X142775000Y-105200000D02*
X142775000Y-103975000D01*
D90*
X171081250Y-49868750D02*
X171100000Y-49850000D01*
D92*
X143825000Y-140875000D02*
X143700000Y-140875000D01*
D93*
X172700000Y-116175000D02*
X173050000Y-116525000D01*
D92*
X143810000Y-123550000D02*
X144450000Y-123550000D01*
D90*
X170100000Y-43500000D02*
X169550000Y-43500000D01*
D93*
X172700000Y-103475000D02*
X173050000Y-103825000D01*
X172700000Y-94500000D02*
X173050000Y-94150000D01*
D90*
X153000000Y-125300000D02*
X152700000Y-125600000D01*
X153000000Y-122875000D02*
X152700000Y-122575000D01*
X166775000Y-71425000D02*
X166800000Y-71450000D01*
X174135000Y-58475000D02*
X174160000Y-58450000D01*
D93*
X146294000Y-46100000D02*
X144750000Y-46100000D01*
X167125000Y-127600000D02*
X166775000Y-127250000D01*
D90*
X152450000Y-126900000D02*
X152450000Y-127750000D01*
X161790000Y-80787500D02*
X161790000Y-82060000D01*
X157712500Y-117612500D02*
X158000000Y-117900000D01*
X173432000Y-53702500D02*
X173557000Y-53827500D01*
D92*
X144400000Y-135700000D02*
X144400000Y-136800000D01*
D90*
X162440000Y-80787500D02*
X162440000Y-82040000D01*
X171719500Y-54537000D02*
X171735000Y-54552500D01*
X172635000Y-58475000D02*
X174135000Y-58475000D01*
X170285000Y-63000000D02*
X170285000Y-63400000D01*
D92*
X141800000Y-108350000D02*
X142300000Y-107850000D01*
D90*
X160964000Y-70118470D02*
X162332470Y-68750000D01*
X155386000Y-64793000D02*
X155536000Y-64943000D01*
X170200000Y-42368750D02*
X170200000Y-43400000D01*
D92*
X141800000Y-108750000D02*
X141800000Y-108350000D01*
X172035000Y-64700000D02*
X172885000Y-64700000D01*
D90*
X166307000Y-56150000D02*
X165607000Y-56150000D01*
X155536000Y-64943000D02*
X155536000Y-64138000D01*
X161915000Y-88985000D02*
X162300000Y-89370000D01*
D93*
X172700000Y-95210000D02*
X172700000Y-95775000D01*
D90*
X154975000Y-105375000D02*
X155600000Y-106000000D01*
X161915000Y-88292500D02*
X161915000Y-88985000D01*
D93*
X151800000Y-99675000D02*
X159325000Y-99675000D01*
D92*
X140850000Y-120050000D02*
X142050000Y-120050000D01*
D93*
X172700000Y-84775000D02*
X171750000Y-83825000D01*
D90*
X150200000Y-114100000D02*
X150200000Y-113675000D01*
X170635000Y-62650000D02*
X170285000Y-63000000D01*
X161140000Y-82035000D02*
X161125000Y-82050000D01*
X156950000Y-105600000D02*
X156950000Y-108250000D01*
X170635000Y-62300000D02*
X170635000Y-61500000D01*
X154190000Y-78700000D02*
X154923831Y-78700000D01*
X151600000Y-141212500D02*
X151600000Y-139700000D01*
X149500000Y-86800000D02*
X148600000Y-86800000D01*
X156412500Y-117612500D02*
X157712500Y-117612500D01*
X150675000Y-108500000D02*
X149700000Y-108500000D01*
X156950000Y-108250000D02*
X156200000Y-109000000D01*
D93*
X172700000Y-102910000D02*
X172700000Y-102200000D01*
D90*
X165590000Y-144195000D02*
X165760000Y-144025000D01*
X173550000Y-53050000D02*
X173550000Y-53820500D01*
D93*
X167125000Y-110365000D02*
X167125000Y-109800000D01*
D95*
X149800000Y-61350000D02*
X149475000Y-61675000D01*
D93*
X167125000Y-128165000D02*
X167125000Y-128875000D01*
D90*
X144825000Y-69900000D02*
X143750000Y-69900000D01*
D93*
X167100000Y-90130000D02*
X167100000Y-90925000D01*
D90*
X139925000Y-43096832D02*
X139415582Y-43606250D01*
X150825000Y-108350000D02*
X150675000Y-108500000D01*
X144525000Y-55350000D02*
X144500000Y-55325000D01*
D94*
X165673000Y-47900000D02*
X166850000Y-47900000D01*
D90*
X153711000Y-64793000D02*
X153711000Y-64055000D01*
D93*
X172700000Y-115610000D02*
X172700000Y-114900000D01*
D90*
X141500000Y-77925000D02*
X141525000Y-77900000D01*
X168595000Y-69195000D02*
X168550000Y-69150000D01*
X153711000Y-64793000D02*
X155386000Y-64793000D01*
X173725000Y-138975000D02*
X172585000Y-138975000D01*
X140225000Y-69900000D02*
X140250000Y-69875000D01*
D92*
X137500000Y-123100000D02*
X137450000Y-123050000D01*
D93*
X172700000Y-121250000D02*
X173050000Y-121600000D01*
X172700000Y-120685000D02*
X172700000Y-121250000D01*
D90*
X153000000Y-124025000D02*
X153000000Y-125300000D01*
X161790000Y-82060000D02*
X161775000Y-82075000D01*
X156450000Y-105100000D02*
X156950000Y-105600000D01*
X154000000Y-106050000D02*
X154150000Y-105900000D01*
X170635000Y-62300000D02*
X170635000Y-62650000D01*
X142550000Y-132965000D02*
X142550000Y-132000000D01*
D92*
X174050000Y-130725000D02*
X174050000Y-129550000D01*
D90*
X150000000Y-115700000D02*
X150000000Y-114300000D01*
X139650000Y-54425000D02*
X139775000Y-54550000D01*
X145300000Y-55350000D02*
X144525000Y-55350000D01*
X145700000Y-69900000D02*
X146700000Y-68900000D01*
D94*
X149750000Y-61500000D02*
X149750000Y-60450000D01*
D90*
X155250000Y-105100000D02*
X156450000Y-105100000D01*
X170200000Y-43400000D02*
X170100000Y-43500000D01*
X169550000Y-49418750D02*
X169550000Y-48093750D01*
X150000000Y-114300000D02*
X150200000Y-114100000D01*
X161140000Y-87517500D02*
X161915000Y-88292500D01*
D94*
X149750000Y-60450000D02*
X149750000Y-59750000D01*
D90*
%TO.N,+3.3V*%
X146700000Y-70450000D02*
X147650000Y-70450000D01*
D92*
X170750000Y-131150000D02*
X170750000Y-131590000D01*
D90*
X158000000Y-116940000D02*
X158960000Y-116940000D01*
X141225000Y-43306250D02*
X140756687Y-43774563D01*
X140575000Y-43366071D02*
X140166508Y-43774563D01*
X138825000Y-49868750D02*
X138825000Y-50856250D01*
X171595000Y-61460000D02*
X171585000Y-61450000D01*
X146700000Y-70450000D02*
X144925000Y-70450000D01*
X152600000Y-107907379D02*
X153192621Y-108500000D01*
X160490000Y-86512500D02*
X160490000Y-88167500D01*
X153660000Y-125600000D02*
X153660000Y-126560000D01*
X147650000Y-70450000D02*
X147675000Y-70425000D01*
X140756687Y-43774563D02*
X140166508Y-43774563D01*
X160275000Y-116600000D02*
X160300000Y-116575000D01*
X156412500Y-117112500D02*
X157827500Y-117112500D01*
X171595000Y-62510000D02*
X172035000Y-62950000D01*
X149240000Y-114100000D02*
X149240000Y-113590000D01*
X168268750Y-49868750D02*
X167650000Y-49250000D01*
X153500000Y-124025000D02*
X153500000Y-125440000D01*
D92*
X169700000Y-130775000D02*
X170375000Y-130775000D01*
X169715000Y-131580000D02*
X169715000Y-130790000D01*
D90*
X168900000Y-48093750D02*
X168900000Y-49418750D01*
D92*
X169715000Y-130790000D02*
X169700000Y-130775000D01*
D90*
X159300000Y-116600000D02*
X160275000Y-116600000D01*
X144925000Y-70450000D02*
X144825000Y-70550000D01*
X146500000Y-122960000D02*
X145885000Y-122960000D01*
D92*
X164480000Y-131625000D02*
X164480000Y-130870000D01*
X170375000Y-130775000D02*
X170750000Y-131150000D01*
D90*
X152600000Y-105900000D02*
X152600000Y-107907379D01*
D92*
X163455000Y-131625000D02*
X163455000Y-130855000D01*
D90*
X160490000Y-88167500D02*
X160365000Y-88292500D01*
D92*
X148690000Y-39640000D02*
X148690000Y-40550000D01*
X141800000Y-111150000D02*
X142300000Y-111650000D01*
D90*
X158960000Y-116940000D02*
X159300000Y-116600000D01*
X171595000Y-62300000D02*
X171595000Y-62510000D01*
X145885000Y-122960000D02*
X145875000Y-122950000D01*
X146847500Y-122612500D02*
X146500000Y-122960000D01*
X149500000Y-114360000D02*
X149240000Y-114100000D01*
X141225000Y-42368750D02*
X141225000Y-43306250D01*
X153500000Y-125440000D02*
X153660000Y-125600000D01*
X172035000Y-62950000D02*
X172035000Y-63400000D01*
D92*
X137475000Y-87275000D02*
X137450000Y-87300000D01*
X163455000Y-130855000D02*
X163460000Y-130850000D01*
D90*
X153660000Y-126560000D02*
X154000000Y-126900000D01*
D92*
X164480000Y-130870000D02*
X164460000Y-130850000D01*
D90*
X139100000Y-69250000D02*
X138000000Y-69250000D01*
X139275000Y-49418750D02*
X138825000Y-49868750D01*
X138000000Y-69250000D02*
X137975000Y-69225000D01*
D92*
X167980000Y-64700000D02*
X167200000Y-64700000D01*
D90*
X168450000Y-49868750D02*
X168268750Y-49868750D01*
D92*
X151700000Y-112790000D02*
X151700000Y-112075000D01*
D90*
X140575000Y-42368750D02*
X140575000Y-43366071D01*
X153192621Y-108500000D02*
X154000000Y-108500000D01*
X167790000Y-144355000D02*
X167535000Y-144100000D01*
X159582500Y-88292500D02*
X159575000Y-88300000D01*
D95*
X149150000Y-38800000D02*
X149150000Y-41450000D01*
D90*
X138500000Y-144425000D02*
X139725000Y-144425000D01*
D92*
X138500000Y-87275000D02*
X137475000Y-87275000D01*
D90*
X152600000Y-105900000D02*
X152600000Y-104950000D01*
X148600000Y-140900000D02*
X148600000Y-142100000D01*
X149500000Y-115700000D02*
X149500000Y-114360000D01*
X139725000Y-144425000D02*
X139750000Y-144400000D01*
X170850000Y-43464864D02*
X170846383Y-43468481D01*
X154000000Y-126900000D02*
X154000000Y-127750000D01*
D92*
X141800000Y-110750000D02*
X141800000Y-111150000D01*
D90*
X157827500Y-117112500D02*
X158000000Y-116940000D01*
X148087500Y-122612500D02*
X146847500Y-122612500D01*
X168900000Y-49418750D02*
X168450000Y-49868750D01*
X170850000Y-42368750D02*
X170850000Y-43464864D01*
X139275000Y-48093750D02*
X139275000Y-49418750D01*
X171595000Y-62300000D02*
X171595000Y-61460000D01*
X149240000Y-113590000D02*
X149000000Y-113350000D01*
X167790000Y-145125000D02*
X167790000Y-144355000D01*
D92*
X152700000Y-112790000D02*
X152700000Y-112075000D01*
D90*
X151100000Y-105900000D02*
X152600000Y-105900000D01*
X160365000Y-88292500D02*
X159582500Y-88292500D01*
D92*
%TO.N,NRST*%
X141900000Y-123200000D02*
X142250000Y-123550000D01*
X142850000Y-123550000D02*
X142850000Y-123960000D01*
X142850000Y-123960000D02*
X141860000Y-124950000D01*
X152500000Y-124796324D02*
X152033824Y-125262500D01*
X139975000Y-120925000D02*
X139375000Y-120325000D01*
X140075000Y-122375000D02*
X139975000Y-122275000D01*
X139975000Y-122275000D02*
X139975000Y-120925000D01*
X140475000Y-123200000D02*
X141900000Y-123200000D01*
X139375000Y-119525000D02*
X139850000Y-119050000D01*
X152500000Y-124025000D02*
X152500000Y-124796324D01*
X152033824Y-125262500D02*
X151986030Y-125262500D01*
X142250000Y-123550000D02*
X142850000Y-123550000D01*
X140075000Y-122800000D02*
X140475000Y-123200000D01*
X139375000Y-120325000D02*
X139375000Y-119525000D01*
X139850000Y-119050000D02*
X140850000Y-119050000D01*
X140075000Y-122800000D02*
X140075000Y-122375000D01*
%TO.N,/MCU/OSC32_IN*%
X150500000Y-124900000D02*
X148700000Y-126700000D01*
X148700000Y-127510000D02*
X147910000Y-128300000D01*
X150500000Y-124025000D02*
X150500000Y-124900000D01*
X148700000Y-126700000D02*
X148700000Y-127510000D01*
%TO.N,/MCU/OSC32_OUT*%
X149640000Y-127530000D02*
X150410000Y-128300000D01*
X151000000Y-124967100D02*
X151000000Y-124025000D01*
X149640000Y-126700000D02*
X149640000Y-127530000D01*
X149640000Y-126327100D02*
X151000000Y-124967100D01*
X149640000Y-126700000D02*
X149640000Y-126327100D01*
D90*
%TO.N,Net-(U2-VBUS)*%
X144825000Y-69250000D02*
X142100000Y-69250000D01*
X142100000Y-69250000D02*
X140800000Y-67950000D01*
X140800000Y-67950000D02*
X139100000Y-67950000D01*
D92*
%TO.N,+VBAT*%
X148100000Y-60800000D02*
X148100000Y-59466000D01*
X148100000Y-59466000D02*
X148915000Y-58651000D01*
X148915000Y-58651000D02*
X150387000Y-58651000D01*
D90*
%TO.N,/Power/5V_IN*%
X163498000Y-62850000D02*
X163181000Y-63167000D01*
X165840000Y-69887500D02*
X165840000Y-66140000D01*
X165840000Y-66140000D02*
X164500000Y-64800000D01*
%TO.N,5V_OUT*%
X161790000Y-85490000D02*
X161775000Y-85475000D01*
X161790000Y-86512500D02*
X161790000Y-85490000D01*
X165850000Y-74000000D02*
X165437500Y-74412500D01*
X163650000Y-80877500D02*
X163740000Y-80787500D01*
X165437500Y-74412500D02*
X162590000Y-74412500D01*
X165850000Y-72975000D02*
X165850000Y-74000000D01*
X163650000Y-82975000D02*
X163650000Y-80877500D01*
%TO.N,+10V*%
X143000000Y-96175000D02*
X143000000Y-97800000D01*
X141425000Y-90400000D02*
X141400000Y-90375000D01*
X143875000Y-96925000D02*
X145137500Y-96925000D01*
X143000000Y-98000000D02*
X142950000Y-98050000D01*
X143000000Y-97800000D02*
X143000000Y-98000000D01*
X138925000Y-83350000D02*
X139450000Y-83875000D01*
X143350000Y-90400000D02*
X141425000Y-90400000D01*
X143000000Y-97800000D02*
X143875000Y-96925000D01*
X138925000Y-81725000D02*
X138925000Y-83350000D01*
%TO.N,/Power/10V_IN*%
X152825000Y-91900000D02*
X153400000Y-91325000D01*
X153400000Y-91325000D02*
X153500000Y-91225000D01*
X153500000Y-91225000D02*
X153500000Y-88750000D01*
X151300000Y-91900000D02*
X152825000Y-91900000D01*
D96*
%TO.N,LED_OUT_N*%
X162325000Y-125975000D02*
X156600000Y-131700000D01*
X156600000Y-131700000D02*
X156600000Y-139725000D01*
X161100000Y-96900000D02*
X162350000Y-98150000D01*
X162325000Y-98175000D02*
X162325000Y-125975000D01*
X156400000Y-96900000D02*
X161100000Y-96900000D01*
X162350000Y-98150000D02*
X162325000Y-98175000D01*
%TO.N,LED_OUT_P*%
X148062500Y-94525000D02*
X148987500Y-93600000D01*
X158600000Y-132225000D02*
X158600000Y-139725000D01*
X164200000Y-126625000D02*
X158600000Y-132225000D01*
X161675000Y-93600000D02*
X164200000Y-96125000D01*
X148987500Y-93600000D02*
X161675000Y-93600000D01*
X164200000Y-96125000D02*
X164200000Y-126625000D01*
D92*
%TO.N,Net-(D1-A)*%
X172475000Y-132325000D02*
X174025000Y-132325000D01*
X174025000Y-132325000D02*
X174050000Y-132300000D01*
D90*
%TO.N,Net-(D2-A)*%
X169774000Y-70798000D02*
X169746000Y-70770000D01*
X171358000Y-70798000D02*
X169774000Y-70798000D01*
%TO.N,Net-(D5-A)*%
X138725000Y-77925000D02*
X138725000Y-79525000D01*
%TO.N,+5V*%
X173775000Y-78895000D02*
X172700000Y-79970000D01*
X158040000Y-83300000D02*
X158040000Y-84260000D01*
X158040000Y-84260000D02*
X158025000Y-84275000D01*
X173775000Y-72975000D02*
X173775000Y-78895000D01*
X173775000Y-72975000D02*
X173470000Y-72670000D01*
X173470000Y-72670000D02*
X173470000Y-71386000D01*
D92*
%TO.N,SSDA*%
X155374000Y-116597324D02*
X157475000Y-114496324D01*
X155641176Y-118112500D02*
X155374000Y-117845324D01*
X156412500Y-118112500D02*
X155641176Y-118112500D01*
X157475000Y-114496324D02*
X157475000Y-113600000D01*
X166735000Y-82875000D02*
X167100000Y-82510000D01*
X155374000Y-117845324D02*
X155374000Y-116597324D01*
X165450000Y-82875000D02*
X166735000Y-82875000D01*
%TO.N,RPI_GPIO22*%
X166025000Y-99025000D02*
X166025000Y-98825000D01*
X161100000Y-111250000D02*
X161100000Y-109300000D01*
X157275000Y-112150000D02*
X160200000Y-112150000D01*
X166025000Y-98825000D02*
X167100000Y-97750000D01*
X156451000Y-112974000D02*
X157275000Y-112150000D01*
X155000000Y-114995776D02*
X156451000Y-113544776D01*
X156451000Y-113544776D02*
X156451000Y-112974000D01*
X160200000Y-112150000D02*
X161100000Y-111250000D01*
X155000000Y-115700000D02*
X155000000Y-114995776D01*
%TO.N,SSCL*%
X155337500Y-118612500D02*
X154675000Y-117950000D01*
X156412500Y-118612500D02*
X155337500Y-118612500D01*
X165825000Y-84175000D02*
X166725000Y-84175000D01*
X167100000Y-84550000D02*
X167100000Y-85050000D01*
X165450000Y-84550000D02*
X165825000Y-84175000D01*
X166725000Y-84175000D02*
X167100000Y-84550000D01*
D90*
%TO.N,BOOT_MODE*%
X141250000Y-133735000D02*
X138500000Y-130985000D01*
X141060000Y-133925000D02*
X141250000Y-133735000D01*
X160100000Y-119637500D02*
X160100000Y-125900000D01*
D92*
X165975000Y-124565000D02*
X167100000Y-125690000D01*
D90*
X143675000Y-135050000D02*
X142550000Y-133925000D01*
D92*
X165975000Y-124375000D02*
X165975000Y-124565000D01*
D90*
X160100000Y-125900000D02*
X150950000Y-135050000D01*
X150950000Y-135050000D02*
X143675000Y-135050000D01*
D92*
X138650000Y-128655000D02*
X138770000Y-128655000D01*
D90*
X141250000Y-133735000D02*
X142360000Y-133735000D01*
X160125000Y-119612500D02*
X160100000Y-119637500D01*
X138500000Y-130985000D02*
X138500000Y-129621000D01*
D92*
X160125000Y-119612500D02*
X156412500Y-119612500D01*
D90*
X141250000Y-135100000D02*
X141250000Y-133735000D01*
D92*
%TO.N,SD_MOSI*%
X157837500Y-120612500D02*
X156412500Y-120612500D01*
X168910000Y-145105000D02*
X168890000Y-145125000D01*
X158625000Y-120375000D02*
X158075000Y-120375000D01*
X158075000Y-120375000D02*
X157837500Y-120612500D01*
X168910000Y-143800000D02*
X168910000Y-145105000D01*
%TO.N,SD_MISO*%
X164500000Y-132625000D02*
X164480000Y-132645000D01*
X164490000Y-143980000D02*
X164485000Y-143975000D01*
X165235000Y-132625000D02*
X164500000Y-132625000D01*
X158156172Y-121112500D02*
X158161300Y-121117628D01*
X156412500Y-121112500D02*
X158156172Y-121112500D01*
X164490000Y-145125000D02*
X164490000Y-143980000D01*
D90*
%TO.N,Net-(U7-RH)*%
X151875000Y-108100000D02*
X151875000Y-108920485D01*
X150900000Y-110625000D02*
X150900000Y-111100000D01*
X149700000Y-109000000D02*
X150800000Y-109000000D01*
X150800000Y-109000000D02*
X151175000Y-109375000D01*
X151275000Y-107500000D02*
X151875000Y-108100000D01*
X151175000Y-109375000D02*
X151175000Y-110350000D01*
X149450000Y-107250000D02*
X149700000Y-107500000D01*
X151420485Y-109375000D02*
X151175000Y-109375000D01*
X151875000Y-108920485D02*
X151420485Y-109375000D01*
X151175000Y-110350000D02*
X150900000Y-110625000D01*
X149450000Y-105900000D02*
X149450000Y-107250000D01*
X149700000Y-107500000D02*
X151275000Y-107500000D01*
%TO.N,/Battery Inputs/BATT1_IN*%
X146950000Y-57375000D02*
X146600000Y-57725000D01*
X146950000Y-55350000D02*
X146950000Y-54100000D01*
X146950000Y-55350000D02*
X146950000Y-57375000D01*
D92*
%TO.N,SD_CS*%
X158464704Y-121857864D02*
X157707864Y-121857864D01*
X164475000Y-129725000D02*
X167600000Y-132850000D01*
X157707864Y-121857864D02*
X157462500Y-121612500D01*
X168560000Y-138175000D02*
X168560000Y-132850000D01*
X168560000Y-132850000D02*
X168810000Y-132600000D01*
X169990000Y-139605000D02*
X168560000Y-138175000D01*
X168810000Y-132600000D02*
X169715000Y-132600000D01*
X157462500Y-121612500D02*
X156412500Y-121612500D01*
X169990000Y-145125000D02*
X169990000Y-139605000D01*
X167600000Y-132850000D02*
X168560000Y-132850000D01*
%TO.N,SD_CLK*%
X166690000Y-145125000D02*
X166690000Y-142605000D01*
X156800000Y-127300000D02*
X156075000Y-127300000D01*
X166690000Y-142605000D02*
X163610000Y-139525000D01*
X156075000Y-127300000D02*
X154500000Y-125725000D01*
X154500000Y-125725000D02*
X154500000Y-124025000D01*
%TO.N,MSDA*%
X170285000Y-64050000D02*
X169550000Y-64050000D01*
X137375000Y-70212499D02*
X138362501Y-71200000D01*
X156952500Y-77900000D02*
X144225000Y-77900000D01*
X138625000Y-42368750D02*
X136851000Y-44142750D01*
X158100000Y-91300000D02*
X159075000Y-90325000D01*
X159875000Y-80822500D02*
X159840000Y-80787500D01*
X136851000Y-44142750D02*
X136851000Y-60151000D01*
X140050000Y-73725000D02*
X140050000Y-72150000D01*
X153975000Y-109525000D02*
X154000000Y-109500000D01*
X158450000Y-108350000D02*
X158450000Y-106475000D01*
X151700000Y-113810000D02*
X149825000Y-111935000D01*
X140050000Y-72150000D02*
X139100000Y-71200000D01*
X151700000Y-113810000D02*
X152000000Y-114110000D01*
X151150000Y-40675000D02*
X151150000Y-41450000D01*
X152800000Y-109525000D02*
X153975000Y-109525000D01*
X149600000Y-138862500D02*
X149600000Y-141212500D01*
X138625000Y-42368750D02*
X138625000Y-44375000D01*
X144225000Y-77900000D02*
X140050000Y-73725000D01*
X168250000Y-42368750D02*
X167568750Y-42368750D01*
X149825000Y-111935000D02*
X149825000Y-111025000D01*
X152000000Y-117000000D02*
X151775000Y-117225000D01*
X167568750Y-42368750D02*
X167550000Y-42350000D01*
X138362501Y-71200000D02*
X139100000Y-71200000D01*
X137375000Y-60675000D02*
X137375000Y-70212499D01*
X152000000Y-115700000D02*
X152000000Y-117000000D01*
X138625000Y-44375000D02*
X139650000Y-45400000D01*
X169550000Y-64050000D02*
X169050000Y-63550000D01*
X154000000Y-109500000D02*
X157300000Y-109500000D01*
X136851000Y-60151000D02*
X137375000Y-60675000D01*
X158100000Y-92125000D02*
X158100000Y-91300000D01*
X159840000Y-80787500D02*
X156952500Y-77900000D01*
X157300000Y-109500000D02*
X158450000Y-108350000D01*
X152000000Y-114110000D02*
X152000000Y-115700000D01*
X159875000Y-82300000D02*
X159875000Y-80822500D01*
%TO.N,MSCL*%
X157376000Y-38649000D02*
X160199000Y-38649000D01*
X138625000Y-46806250D02*
X138625000Y-48093750D01*
X150600000Y-138862500D02*
X150600000Y-141212500D01*
X168250000Y-48093750D02*
X168250000Y-45700000D01*
X146525000Y-71200000D02*
X144825000Y-71200000D01*
X152700000Y-113810000D02*
X152500000Y-114010000D01*
X158400000Y-89650000D02*
X158400000Y-87950000D01*
X157077000Y-38350000D02*
X157376000Y-38649000D01*
X157025000Y-38350000D02*
X157077000Y-38350000D01*
X156725000Y-91325000D02*
X158400000Y-89650000D01*
X158400000Y-87950000D02*
X158402500Y-87950000D01*
X150575000Y-138837500D02*
X150600000Y-138862500D01*
X152500000Y-117050000D02*
X152625000Y-117175000D01*
X160199000Y-38649000D02*
X160350000Y-38800000D01*
X146825000Y-71500000D02*
X146525000Y-71200000D01*
X152500000Y-115700000D02*
X152500000Y-117050000D01*
X149275000Y-109925000D02*
X149700000Y-109500000D01*
X172804197Y-64050000D02*
X172951437Y-63902760D01*
X156725000Y-91775000D02*
X156725000Y-91325000D01*
X158402500Y-87950000D02*
X159840000Y-86512500D01*
X152500000Y-114010000D02*
X152500000Y-115700000D01*
X172035000Y-64050000D02*
X172804197Y-64050000D01*
X148450000Y-109925000D02*
X149275000Y-109925000D01*
%TO.N,ON_OFF*%
X138500000Y-104850000D02*
X138150000Y-105200000D01*
X153675000Y-118425000D02*
X154362500Y-119112500D01*
X142036500Y-104636500D02*
X142036500Y-105911499D01*
X154362500Y-119112500D02*
X156412500Y-119112500D01*
X140701000Y-104126000D02*
X141526000Y-104126000D01*
X139925000Y-103350000D02*
X140701000Y-104126000D01*
X143450000Y-107850000D02*
X143450000Y-107045000D01*
X142036500Y-105911499D02*
X143170001Y-107045000D01*
X150400000Y-117900000D02*
X150925000Y-118425000D01*
X143170001Y-107045000D02*
X143450000Y-107045000D01*
X139450000Y-102875000D02*
X139925000Y-103350000D01*
X141526000Y-104126000D02*
X142036500Y-104636500D01*
X138500000Y-102875000D02*
X138500000Y-104850000D01*
X150925000Y-118425000D02*
X153675000Y-118425000D01*
D90*
X138150000Y-103850000D02*
X138200000Y-103800000D01*
D92*
X138500000Y-102875000D02*
X139450000Y-102875000D01*
%TO.N,SWDIO*%
X149428676Y-116900000D02*
X148578676Y-116050000D01*
X150500000Y-115700000D02*
X150500000Y-116569324D01*
X148578676Y-116050000D02*
X140850000Y-116050000D01*
X150500000Y-116569324D02*
X150169324Y-116900000D01*
X150169324Y-116900000D02*
X149428676Y-116900000D01*
%TO.N,SWCLK*%
X140912500Y-117112500D02*
X140850000Y-117050000D01*
X148087500Y-117112500D02*
X140912500Y-117112500D01*
%TO.N,SWO*%
X140912500Y-118112500D02*
X140850000Y-118050000D01*
X148087500Y-118112500D02*
X140912500Y-118112500D01*
D90*
%TO.N,Net-(JP1-A)*%
X172296000Y-70086000D02*
X171358000Y-69148000D01*
X173470000Y-70086000D02*
X172296000Y-70086000D01*
%TO.N,Net-(JP2-A)*%
X145137500Y-94525000D02*
X143225000Y-94525000D01*
X143225000Y-94525000D02*
X143000000Y-94750000D01*
%TO.N,Net-(JP3-A)*%
X140375000Y-81575000D02*
X140225000Y-81725000D01*
X140375000Y-79525000D02*
X140375000Y-81575000D01*
%TO.N,SW_5V*%
X160075000Y-71629942D02*
X160075000Y-71950000D01*
X161215000Y-71390000D02*
X161125000Y-71300000D01*
X161215000Y-72087500D02*
X161215000Y-71390000D01*
X161125000Y-71300000D02*
X160500000Y-71300000D01*
X160404942Y-71300000D02*
X160075000Y-71629942D01*
X160300000Y-71300000D02*
X160025000Y-71025000D01*
X160500000Y-71300000D02*
X160300000Y-71300000D01*
X160500000Y-71300000D02*
X160404942Y-71300000D01*
%TO.N,Net-(Q1-G)*%
X160612000Y-65025000D02*
X161500000Y-64137000D01*
X157693000Y-63993000D02*
X158725000Y-65025000D01*
X158725000Y-65025000D02*
X159200000Y-65025000D01*
X157411000Y-63993000D02*
X157693000Y-63993000D01*
X159200000Y-65025000D02*
X160612000Y-65025000D01*
%TO.N,Net-(Q3-G)*%
X155565000Y-82475000D02*
X156390000Y-83300000D01*
X155040000Y-82475000D02*
X155565000Y-82475000D01*
X156390000Y-83300000D02*
X155050000Y-84640000D01*
X155050000Y-84640000D02*
X155050000Y-85600000D01*
D92*
%TO.N,/MCU/5V_EN*%
X154500000Y-114928676D02*
X154500000Y-115700000D01*
X156050000Y-113378676D02*
X154500000Y-114928676D01*
X156050000Y-110913235D02*
X156050000Y-113378676D01*
X153725000Y-62175000D02*
X153725000Y-63129000D01*
X156163235Y-110800000D02*
X156050000Y-110913235D01*
D90*
X155436000Y-63143000D02*
X155536000Y-63043000D01*
D92*
X153725000Y-63129000D02*
X153711000Y-63143000D01*
D90*
X153711000Y-63143000D02*
X155436000Y-63143000D01*
D92*
%TO.N,/MCU/10V_EN*%
X155450000Y-113350000D02*
X154000000Y-114800000D01*
D90*
X155990000Y-80600000D02*
X155990000Y-78850000D01*
D92*
X156975000Y-79225000D02*
X156365000Y-79225000D01*
X156365000Y-79225000D02*
X155840000Y-78700000D01*
X155450000Y-112000000D02*
X155450000Y-113350000D01*
X155425000Y-111975000D02*
X155450000Y-112000000D01*
X154000000Y-114800000D02*
X154000000Y-115700000D01*
D90*
X155990000Y-78850000D02*
X155840000Y-78700000D01*
D92*
%TO.N,Net-(SW2-B)*%
X143850000Y-110850000D02*
X143850000Y-111790000D01*
X142750000Y-109750000D02*
X143850000Y-110850000D01*
X141800000Y-109750000D02*
X142750000Y-109750000D01*
%TO.N,Net-(U1-PH3)*%
X144700000Y-112850000D02*
X143890000Y-112850000D01*
X146800000Y-120625000D02*
X148075000Y-120625000D01*
X143890000Y-112850000D02*
X143850000Y-112810000D01*
X148075000Y-120625000D02*
X148087500Y-120612500D01*
%TO.N,BLINKY*%
X163200000Y-129800000D02*
X163200000Y-129700000D01*
X154000000Y-123253676D02*
X154267176Y-122986500D01*
X155286500Y-122986500D02*
X158150000Y-125850000D01*
X171974000Y-130174000D02*
X172475000Y-130675000D01*
X163925000Y-128975000D02*
X164925000Y-128975000D01*
X164925000Y-128975000D02*
X166124000Y-130174000D01*
X166124000Y-130174000D02*
X171974000Y-130174000D01*
X154000000Y-124025000D02*
X154000000Y-123253676D01*
X163200000Y-129700000D02*
X163925000Y-128975000D01*
X154267176Y-122986500D02*
X155286500Y-122986500D01*
D90*
%TO.N,FB_5V*%
X161965000Y-70637500D02*
X163387500Y-70637500D01*
X164200000Y-71450000D02*
X164175000Y-71425000D01*
X164200000Y-72975000D02*
X164200000Y-71450000D01*
X163387500Y-70637500D02*
X164175000Y-71425000D01*
%TO.N,FB_10V*%
X146450000Y-90400000D02*
X145000000Y-90400000D01*
X146450000Y-90400000D02*
X146450000Y-89050000D01*
X146450000Y-89050000D02*
X146800000Y-88700000D01*
%TO.N,/Power/LED_CTRL*%
X150575000Y-99675000D02*
X150575000Y-99287501D01*
X151137501Y-98725000D02*
X151800000Y-98725000D01*
X147900000Y-105725000D02*
X147975000Y-105650000D01*
X147900000Y-107000000D02*
X147900000Y-105725000D01*
X150575000Y-99287501D02*
X151137501Y-98725000D01*
%TO.N,/Battery Inputs/BATT2_IN*%
X164974000Y-58486000D02*
X164596000Y-58486000D01*
X164485000Y-57000000D02*
X164460000Y-56975000D01*
X164974000Y-58486000D02*
X164974000Y-57489000D01*
X164460000Y-56975000D02*
X164460000Y-54600000D01*
X164974000Y-57489000D02*
X164485000Y-57000000D01*
%TO.N,Net-(D6-A)*%
X141931000Y-57725000D02*
X140507500Y-57725000D01*
%TO.N,Net-(D7-A)*%
X169647000Y-58475000D02*
X171060000Y-58475000D01*
D92*
%TO.N,Net-(J2-DAT2)*%
X171090000Y-138345000D02*
X171810000Y-137625000D01*
X171810000Y-133310000D02*
X171110000Y-132610000D01*
X171090000Y-145125000D02*
X171090000Y-138345000D01*
X171110000Y-132610000D02*
X170750000Y-132610000D01*
X171810000Y-137625000D02*
X171810000Y-133310000D01*
%TO.N,Net-(J2-DAT1)*%
X162710000Y-133390000D02*
X162710000Y-141225000D01*
X163440000Y-141995000D02*
X163440000Y-145125000D01*
X162710000Y-141225000D02*
X163460000Y-141975000D01*
X163460000Y-141975000D02*
X163440000Y-141995000D01*
X163455000Y-132645000D02*
X162710000Y-133390000D01*
D90*
%TO.N,Net-(JP4-A)*%
X145300000Y-57725000D02*
X143581000Y-57725000D01*
%TO.N,Net-(JP5-A)*%
X167986000Y-58486000D02*
X167997000Y-58475000D01*
X166274000Y-58486000D02*
X167986000Y-58486000D01*
%TO.N,Net-(U9-VBUS)*%
X141875000Y-45406250D02*
X141875000Y-42368750D01*
X140575000Y-48093750D02*
X140575000Y-46706250D01*
X140575000Y-46706250D02*
X141875000Y-45406250D01*
%TO.N,Net-(Q6-G)*%
X144230000Y-50720000D02*
X143990000Y-50720000D01*
X142400000Y-52310000D02*
X142400000Y-52850000D01*
X143990000Y-50720000D02*
X142400000Y-52310000D01*
X142400000Y-52850000D02*
X141650000Y-53600000D01*
D92*
%TO.N,/Battery Inputs/BATT1_EN*%
X153550000Y-114075000D02*
X153550000Y-113550000D01*
X153000000Y-114625000D02*
X153275000Y-114350000D01*
D90*
X139775000Y-52650000D02*
X138050000Y-52650000D01*
D92*
X153000000Y-115700000D02*
X153000000Y-114625000D01*
X138100000Y-51700000D02*
X138100000Y-52600000D01*
X138100000Y-52600000D02*
X137925000Y-52775000D01*
X153275000Y-114350000D02*
X153550000Y-114075000D01*
D90*
X138050000Y-52650000D02*
X137925000Y-52775000D01*
%TO.N,Net-(U11-VBUS)*%
X170200000Y-46050000D02*
X170200000Y-48093750D01*
X172150000Y-44100000D02*
X170200000Y-46050000D01*
X172150000Y-42368750D02*
X172150000Y-44100000D01*
%TO.N,Net-(Q10-D)*%
X169844500Y-54150000D02*
X169057000Y-53362500D01*
X169844500Y-54652500D02*
X169844500Y-54150000D01*
X164835000Y-51043000D02*
X165312000Y-51520000D01*
X169044531Y-53350031D02*
X169057000Y-53362500D01*
X164835000Y-50900000D02*
X164835000Y-51043000D01*
X169044531Y-52612500D02*
X169044531Y-53350031D01*
D92*
%TO.N,/Battery Inputs/BATT2_EN*%
X153500000Y-114692100D02*
X153500000Y-115700000D01*
X158275000Y-110000000D02*
X155575000Y-110000000D01*
X154425000Y-113767100D02*
X153500000Y-114692100D01*
X154425000Y-111150000D02*
X154425000Y-113767100D01*
X173410000Y-56877500D02*
X173410000Y-55624500D01*
X173410000Y-55624500D02*
X173557000Y-55477500D01*
X155575000Y-110000000D02*
X154425000Y-111150000D01*
D90*
X171719500Y-55602500D02*
X173432000Y-55602500D01*
D92*
X159175000Y-110900000D02*
X158275000Y-110000000D01*
D90*
X173432000Y-55602500D02*
X173557000Y-55477500D01*
D92*
X160000000Y-110900000D02*
X159175000Y-110900000D01*
D90*
%TO.N,Net-(U5-EN)*%
X161465000Y-70325990D02*
X161465000Y-70637500D01*
X161903490Y-69887500D02*
X161465000Y-70325990D01*
X164190000Y-69887500D02*
X161903490Y-69887500D01*
%TO.N,Net-(U6-EN)*%
X149500000Y-88700000D02*
X149500000Y-89325000D01*
X148800000Y-91850000D02*
X149600000Y-91850000D01*
X149600000Y-91850000D02*
X149650000Y-91900000D01*
D92*
%TO.N,Net-(D8-A)*%
X139800000Y-105200000D02*
X141200000Y-105200000D01*
D90*
%TO.N,Net-(D9-A)*%
X141250000Y-136750000D02*
X142725000Y-136750000D01*
X142725000Y-136750000D02*
X142800000Y-136825000D01*
%TO.N,Net-(U7-RW)*%
X148550000Y-108000000D02*
X147900000Y-108650000D01*
X149700000Y-108000000D02*
X148550000Y-108000000D01*
%TO.N,Net-(U7-A0)*%
X154000000Y-107500000D02*
X155700000Y-107500000D01*
X155700000Y-107500000D02*
X155850000Y-107650000D01*
X154000000Y-108000000D02*
X155500000Y-108000000D01*
X155500000Y-108000000D02*
X155850000Y-107650000D01*
D92*
%TO.N,Net-(R32-Pad2)*%
X169000000Y-64700000D02*
X170285000Y-64700000D01*
D90*
%TO.N,/Power/5V_IN*%
X163902000Y-62850000D02*
X163585000Y-63167000D01*
X166100000Y-62850000D02*
X163902000Y-62850000D01*
%TD*%
%TA.AperFunction,Conductor*%
%TO.N,GND*%
G36*
X157545928Y-54594685D02*
G01*
X157547779Y-54595897D01*
X157602060Y-54632166D01*
X157602064Y-54632167D01*
X157675121Y-54646699D01*
X157675124Y-54646700D01*
X157675126Y-54646700D01*
X160924876Y-54646700D01*
X160924877Y-54646699D01*
X160997940Y-54632166D01*
X161052221Y-54595896D01*
X161118899Y-54575020D01*
X161121111Y-54575000D01*
X161551000Y-54575000D01*
X161618039Y-54594685D01*
X161663794Y-54647489D01*
X161675000Y-54699000D01*
X161675000Y-59951000D01*
X161655315Y-60018039D01*
X161602511Y-60063794D01*
X161551000Y-60075000D01*
X156589598Y-60075000D01*
X156522559Y-60055315D01*
X156492770Y-60028462D01*
X156027172Y-59446464D01*
X156000664Y-59381818D01*
X156000000Y-59369002D01*
X156000000Y-54699000D01*
X156019685Y-54631961D01*
X156072489Y-54586206D01*
X156124000Y-54575000D01*
X157478889Y-54575000D01*
X157545928Y-54594685D01*
G37*
%TD.AperFunction*%
%TD*%
%TA.AperFunction,Conductor*%
%TO.N,+3.3V*%
G36*
X150368039Y-66019685D02*
G01*
X150413794Y-66072489D01*
X150425000Y-66124000D01*
X150425000Y-68001000D01*
X150405315Y-68068039D01*
X150352511Y-68113794D01*
X150301000Y-68125000D01*
X141974000Y-68125000D01*
X141906961Y-68105315D01*
X141861206Y-68052511D01*
X141850000Y-68001000D01*
X141850000Y-66124000D01*
X141869685Y-66056961D01*
X141922489Y-66011206D01*
X141974000Y-66000000D01*
X150301000Y-66000000D01*
X150368039Y-66019685D01*
G37*
%TD.AperFunction*%
%TD*%
%TA.AperFunction,Conductor*%
%TO.N,/Power/10V_IN*%
G36*
X151093039Y-80719685D02*
G01*
X151138794Y-80772489D01*
X151150000Y-80824000D01*
X151150000Y-84400000D01*
X152425000Y-85550000D01*
X154076000Y-85550000D01*
X154143039Y-85569685D01*
X154188794Y-85622489D01*
X154200000Y-85674000D01*
X154200000Y-86315275D01*
X154199999Y-86315275D01*
X154421605Y-86475323D01*
X154801928Y-86750000D01*
X157749419Y-86750000D01*
X157816458Y-86769685D01*
X157862213Y-86822489D01*
X157873419Y-86873915D01*
X157873737Y-87335966D01*
X157874305Y-88164035D01*
X157874915Y-89050915D01*
X157855276Y-89117968D01*
X157802504Y-89163759D01*
X157750915Y-89175000D01*
X152611666Y-89175000D01*
X152544627Y-89155315D01*
X152512788Y-89125827D01*
X152456098Y-89050915D01*
X151850000Y-88250000D01*
X151836115Y-88249892D01*
X150295016Y-88237945D01*
X150228131Y-88217742D01*
X150227087Y-88217051D01*
X150147743Y-88164035D01*
X150147735Y-88164032D01*
X150074677Y-88149500D01*
X150074674Y-88149500D01*
X148929500Y-88149500D01*
X148862461Y-88129815D01*
X148816706Y-88077011D01*
X148805500Y-88025500D01*
X148805500Y-87474500D01*
X148825185Y-87407461D01*
X148877989Y-87361706D01*
X148929500Y-87350500D01*
X150074676Y-87350500D01*
X150074677Y-87350499D01*
X150147740Y-87335966D01*
X150230601Y-87280601D01*
X150285966Y-87197740D01*
X150300500Y-87124674D01*
X150300500Y-86475326D01*
X150300500Y-86475323D01*
X150300499Y-86475321D01*
X150285967Y-86402264D01*
X150285966Y-86402260D01*
X150284122Y-86399500D01*
X150230601Y-86319399D01*
X150147740Y-86264034D01*
X150147739Y-86264033D01*
X150147735Y-86264032D01*
X150074677Y-86249500D01*
X150074674Y-86249500D01*
X148925326Y-86249500D01*
X148925323Y-86249500D01*
X148852264Y-86264032D01*
X148852260Y-86264033D01*
X148817890Y-86286999D01*
X148751212Y-86307876D01*
X148683832Y-86289391D01*
X148637142Y-86237411D01*
X148625000Y-86183896D01*
X148625000Y-80824000D01*
X148644685Y-80756961D01*
X148697489Y-80711206D01*
X148749000Y-80700000D01*
X151026000Y-80700000D01*
X151093039Y-80719685D01*
G37*
%TD.AperFunction*%
%TD*%
%TA.AperFunction,Conductor*%
%TO.N,GND*%
G36*
X144498095Y-86844685D02*
G01*
X144518737Y-86861319D01*
X144756095Y-87098677D01*
X144766017Y-87108081D01*
X144775891Y-87116951D01*
X144775895Y-87116953D01*
X144775897Y-87116955D01*
X144806061Y-87135963D01*
X144848859Y-87162932D01*
X144913410Y-87189670D01*
X144953514Y-87199905D01*
X144966176Y-87203870D01*
X145026917Y-87226525D01*
X145057889Y-87243437D01*
X145106480Y-87279811D01*
X145113880Y-87285147D01*
X145121142Y-87290189D01*
X145194873Y-87325465D01*
X145261912Y-87345150D01*
X145261916Y-87345150D01*
X145261918Y-87345151D01*
X145273549Y-87346823D01*
X145333897Y-87355500D01*
X145333898Y-87355500D01*
X147713118Y-87355500D01*
X147713119Y-87355500D01*
X147773355Y-87348298D01*
X147773362Y-87348296D01*
X147773364Y-87348296D01*
X147790456Y-87344149D01*
X147830174Y-87334514D01*
X147862065Y-87324529D01*
X147946250Y-87271133D01*
X147996818Y-87222918D01*
X148041775Y-87165752D01*
X148050811Y-87150100D01*
X148070511Y-87124424D01*
X148319346Y-86875592D01*
X148327837Y-86866138D01*
X148356640Y-86848346D01*
X148385152Y-86830023D01*
X148386651Y-86829807D01*
X148387280Y-86829419D01*
X148420087Y-86825000D01*
X148426000Y-86825000D01*
X148493039Y-86844685D01*
X148538794Y-86897489D01*
X148550000Y-86949000D01*
X148550000Y-88825000D01*
X148575500Y-88825000D01*
X148642539Y-88844685D01*
X148688294Y-88897489D01*
X148699500Y-88949000D01*
X148699500Y-89024678D01*
X148714032Y-89097735D01*
X148714033Y-89097739D01*
X148714034Y-89097740D01*
X148769399Y-89180601D01*
X148852260Y-89235966D01*
X148863544Y-89240640D01*
X148862841Y-89242335D01*
X148911595Y-89267833D01*
X148946174Y-89328546D01*
X148949500Y-89357072D01*
X148949500Y-89397475D01*
X148987016Y-89537485D01*
X148987017Y-89537488D01*
X149059488Y-89663011D01*
X149059490Y-89663013D01*
X149059491Y-89663015D01*
X149161985Y-89765509D01*
X149161986Y-89765510D01*
X149161988Y-89765511D01*
X149287511Y-89837982D01*
X149287512Y-89837982D01*
X149287515Y-89837984D01*
X149427525Y-89875500D01*
X149427528Y-89875500D01*
X149572472Y-89875500D01*
X149572475Y-89875500D01*
X149712485Y-89837984D01*
X149838015Y-89765509D01*
X149940509Y-89663015D01*
X150012984Y-89537485D01*
X150050500Y-89397475D01*
X150050500Y-89357072D01*
X150070185Y-89290033D01*
X150122989Y-89244278D01*
X150144239Y-89237415D01*
X150147738Y-89235966D01*
X150147740Y-89235966D01*
X150230601Y-89180601D01*
X150285966Y-89097740D01*
X150300500Y-89024674D01*
X150300500Y-88949000D01*
X150320185Y-88881961D01*
X150372989Y-88836206D01*
X150424500Y-88825000D01*
X151827340Y-88825000D01*
X151894379Y-88844685D01*
X151940134Y-88897489D01*
X151951333Y-88947652D01*
X151968187Y-90498246D01*
X151949232Y-90565496D01*
X151932351Y-90586795D01*
X151436364Y-91088203D01*
X151375225Y-91122021D01*
X151348209Y-91125000D01*
X147526638Y-91125000D01*
X147459599Y-91105315D01*
X147413844Y-91052511D01*
X147402665Y-90998390D01*
X147438295Y-89305958D01*
X147459386Y-89239354D01*
X147493374Y-89205474D01*
X147530601Y-89180601D01*
X147585966Y-89097740D01*
X147600500Y-89024674D01*
X147600500Y-88375326D01*
X147600500Y-88375323D01*
X147600499Y-88375321D01*
X147585967Y-88302264D01*
X147585966Y-88302260D01*
X147530601Y-88219399D01*
X147447740Y-88164034D01*
X147447739Y-88164033D01*
X147447735Y-88164032D01*
X147374677Y-88149500D01*
X147374674Y-88149500D01*
X146225326Y-88149500D01*
X146225323Y-88149500D01*
X146152264Y-88164032D01*
X146152260Y-88164033D01*
X146069399Y-88219399D01*
X146014033Y-88302260D01*
X146014032Y-88302264D01*
X145999500Y-88375321D01*
X145999500Y-88613089D01*
X145979815Y-88680128D01*
X145927011Y-88725883D01*
X145874484Y-88737085D01*
X144097984Y-88722524D01*
X144031108Y-88702290D01*
X143985787Y-88649113D01*
X143975000Y-88598528D01*
X143975000Y-86949000D01*
X143994685Y-86881961D01*
X144047489Y-86836206D01*
X144099000Y-86825000D01*
X144431056Y-86825000D01*
X144498095Y-86844685D01*
G37*
%TD.AperFunction*%
%TD*%
%TA.AperFunction,Conductor*%
%TO.N,GND*%
G36*
X149067727Y-124819245D02*
G01*
X149079491Y-124835721D01*
X149115174Y-124908712D01*
X149203787Y-124997325D01*
X149203788Y-124997325D01*
X149203789Y-124997326D01*
X149316375Y-125052366D01*
X149389364Y-125063000D01*
X149389370Y-125063000D01*
X149610632Y-125063000D01*
X149610636Y-125063000D01*
X149614466Y-125062442D01*
X149660096Y-125073996D01*
X149684190Y-125114432D01*
X149672636Y-125160062D01*
X149666820Y-125166786D01*
X148762120Y-126071487D01*
X148718633Y-126089500D01*
X148506926Y-126089500D01*
X148477186Y-126092289D01*
X148477177Y-126092290D01*
X148465009Y-126096549D01*
X148444697Y-126100000D01*
X148169999Y-126100000D01*
X148160131Y-126114178D01*
X148120503Y-126139579D01*
X148089343Y-126137092D01*
X147962727Y-126092787D01*
X147962719Y-126092786D01*
X147933011Y-126090000D01*
X147890000Y-126090000D01*
X147890000Y-126502298D01*
X147752400Y-126700000D01*
X147740000Y-126700000D01*
X147740000Y-126717816D01*
X147648000Y-126850000D01*
X147160001Y-126850000D01*
X147160001Y-126922999D01*
X147162787Y-126952726D01*
X147206594Y-127077921D01*
X147217848Y-127093169D01*
X147229178Y-127138855D01*
X147211853Y-127173174D01*
X147157794Y-127227234D01*
X147112414Y-127330010D01*
X147109501Y-127355124D01*
X147109500Y-127355142D01*
X147109500Y-129244860D01*
X147112415Y-129269992D01*
X147141852Y-129336659D01*
X147157794Y-129372765D01*
X147237235Y-129452206D01*
X147340009Y-129497585D01*
X147365135Y-129500500D01*
X148454864Y-129500499D01*
X148479991Y-129497585D01*
X148582765Y-129452206D01*
X148662206Y-129372765D01*
X148678148Y-129336658D01*
X148712191Y-129304153D01*
X148734408Y-129300000D01*
X149585592Y-129300000D01*
X149629079Y-129318013D01*
X149641851Y-129336657D01*
X149657794Y-129372765D01*
X149737235Y-129452206D01*
X149840009Y-129497585D01*
X149865135Y-129500500D01*
X150954864Y-129500499D01*
X150979991Y-129497585D01*
X151082765Y-129452206D01*
X151162206Y-129372765D01*
X151207585Y-129269991D01*
X151210500Y-129244865D01*
X151210499Y-127355136D01*
X151207585Y-127330009D01*
X151162206Y-127227235D01*
X151119653Y-127184682D01*
X151101640Y-127141195D01*
X151113659Y-127104673D01*
X151133405Y-127077919D01*
X151177212Y-126952727D01*
X151177213Y-126952719D01*
X151180000Y-126923010D01*
X151180000Y-126850000D01*
X150661500Y-126850000D01*
X150618637Y-126832245D01*
X150617171Y-126829955D01*
X150600000Y-126788500D01*
X150600000Y-126700000D01*
X150534000Y-126700000D01*
X150450000Y-126568750D01*
X150450000Y-126550000D01*
X150750000Y-126550000D01*
X151179999Y-126550000D01*
X151179999Y-126477000D01*
X151177212Y-126447273D01*
X151133405Y-126322080D01*
X151054640Y-126215359D01*
X150947918Y-126136594D01*
X150822727Y-126092787D01*
X150822719Y-126092786D01*
X150793011Y-126090000D01*
X150750000Y-126090000D01*
X150750000Y-126550000D01*
X150450000Y-126550000D01*
X150450000Y-126108965D01*
X150468012Y-126065480D01*
X151280544Y-125252948D01*
X151324030Y-125234936D01*
X151367517Y-125252949D01*
X151385530Y-125296436D01*
X151385530Y-125341559D01*
X151426451Y-125494279D01*
X151426452Y-125494281D01*
X151426453Y-125494284D01*
X151505510Y-125631216D01*
X151617314Y-125743020D01*
X151754246Y-125822077D01*
X151804419Y-125835520D01*
X151841760Y-125864173D01*
X151850000Y-125894924D01*
X151850000Y-130188500D01*
X151831987Y-130231987D01*
X151788500Y-130250000D01*
X146561500Y-130250000D01*
X146518013Y-130231987D01*
X146500000Y-130188500D01*
X146500000Y-126476989D01*
X147160000Y-126476989D01*
X147160000Y-126550000D01*
X147590000Y-126550000D01*
X147590000Y-126089999D01*
X147547000Y-126090000D01*
X147517273Y-126092787D01*
X147392080Y-126136594D01*
X147285359Y-126215359D01*
X147206594Y-126322081D01*
X147162787Y-126447272D01*
X147162786Y-126447280D01*
X147160000Y-126476989D01*
X146500000Y-126476989D01*
X146500000Y-125411500D01*
X146518013Y-125368013D01*
X146561500Y-125350000D01*
X148450000Y-125350000D01*
X148980756Y-124819243D01*
X149024240Y-124801232D01*
X149067727Y-124819245D01*
G37*
%TD.AperFunction*%
%TD*%
%TA.AperFunction,Conductor*%
%TO.N,SW_5V*%
G36*
X160001259Y-70849433D02*
G01*
X160068283Y-70869147D01*
X160113577Y-70921025D01*
X160142150Y-70982299D01*
X160220201Y-71060350D01*
X160320240Y-71106999D01*
X160365821Y-71113000D01*
X160564178Y-71112999D01*
X160564180Y-71112999D01*
X160579372Y-71110999D01*
X160609760Y-71106999D01*
X160662597Y-71082360D01*
X160731671Y-71071869D01*
X160767401Y-71082359D01*
X160820240Y-71106999D01*
X160865821Y-71113000D01*
X161064178Y-71112999D01*
X161074815Y-71111598D01*
X161091714Y-71114233D01*
X161108647Y-71111799D01*
X161125520Y-71119504D01*
X161143846Y-71122362D01*
X161156639Y-71133716D01*
X161172203Y-71140824D01*
X161182231Y-71156429D01*
X161196103Y-71168740D01*
X161200918Y-71185506D01*
X161209977Y-71199602D01*
X161215000Y-71234537D01*
X161215000Y-71435135D01*
X161195315Y-71502174D01*
X161142511Y-71547929D01*
X161073353Y-71557873D01*
X161009797Y-71528848D01*
X161003319Y-71522816D01*
X160949359Y-71468856D01*
X160877044Y-71435135D01*
X160841330Y-71418481D01*
X160841328Y-71418480D01*
X160792113Y-71412001D01*
X160792108Y-71412000D01*
X160792103Y-71412000D01*
X160792096Y-71412000D01*
X160537895Y-71412000D01*
X160488674Y-71418480D01*
X160488666Y-71418482D01*
X160380640Y-71468856D01*
X160296354Y-71553142D01*
X160290131Y-71562030D01*
X160289032Y-71561260D01*
X160250370Y-71605163D01*
X160240632Y-71608040D01*
X160225000Y-71623853D01*
X160225000Y-71803551D01*
X160224930Y-71807704D01*
X160224702Y-71814485D01*
X160220000Y-71847197D01*
X160220000Y-71954827D01*
X160219930Y-71956916D01*
X160219136Y-71959316D01*
X160215772Y-71984865D01*
X160214341Y-71990204D01*
X160201954Y-72020105D01*
X160199186Y-72024899D01*
X160185121Y-72044551D01*
X160185114Y-72044559D01*
X160181798Y-72048199D01*
X160180663Y-72049396D01*
X160162374Y-72069757D01*
X160153001Y-72081388D01*
X160141133Y-72094159D01*
X159133494Y-73036085D01*
X159071077Y-73067485D01*
X159048816Y-73069500D01*
X154148997Y-73069500D01*
X154094687Y-73075338D01*
X154043181Y-73086543D01*
X154043172Y-73086545D01*
X154010240Y-73095581D01*
X153977433Y-73100000D01*
X152598707Y-73100000D01*
X152531668Y-73080315D01*
X152485913Y-73027511D01*
X152474707Y-72976294D01*
X152472614Y-72094159D01*
X152469947Y-70970335D01*
X152489473Y-70903253D01*
X152542168Y-70857373D01*
X152593999Y-70846045D01*
X160001259Y-70849433D01*
G37*
%TD.AperFunction*%
%TD*%
%TA.AperFunction,Conductor*%
%TO.N,/Battery Inputs/BATT1_IN*%
G36*
X154443039Y-44569685D02*
G01*
X154488794Y-44622489D01*
X154500000Y-44674000D01*
X154500000Y-48276000D01*
X154480315Y-48343039D01*
X154427511Y-48388794D01*
X154376000Y-48400000D01*
X150099999Y-48400000D01*
X149400000Y-48971428D01*
X149400000Y-52848638D01*
X149380315Y-52915677D01*
X149363681Y-52936319D01*
X147836319Y-54463681D01*
X147774996Y-54497166D01*
X147748638Y-54500000D01*
X143724000Y-54500000D01*
X143656961Y-54480315D01*
X143611206Y-54427511D01*
X143600000Y-54376000D01*
X143600000Y-51727753D01*
X143608644Y-51698312D01*
X143615168Y-51668326D01*
X143618922Y-51663310D01*
X143619685Y-51660714D01*
X143636319Y-51640072D01*
X143640072Y-51636319D01*
X143701395Y-51602834D01*
X143727753Y-51600000D01*
X146600000Y-51600000D01*
X147200000Y-51000000D01*
X147200000Y-44674000D01*
X147219685Y-44606961D01*
X147272489Y-44561206D01*
X147324000Y-44550000D01*
X154376000Y-44550000D01*
X154443039Y-44569685D01*
G37*
%TD.AperFunction*%
%TD*%
%TA.AperFunction,Conductor*%
%TO.N,+VBAT*%
G36*
X161443039Y-52069685D02*
G01*
X161488794Y-52122489D01*
X161500000Y-52174000D01*
X161500000Y-54195500D01*
X161480315Y-54262539D01*
X161427511Y-54308294D01*
X161376000Y-54319500D01*
X161121111Y-54319500D01*
X161121019Y-54319500D01*
X161118793Y-54319509D01*
X161116593Y-54319529D01*
X161079710Y-54325339D01*
X161042559Y-54331191D01*
X161042557Y-54331191D01*
X161042554Y-54331192D01*
X161025458Y-54336545D01*
X161000572Y-54344336D01*
X160963525Y-54350000D01*
X157637325Y-54350000D01*
X157602392Y-54344977D01*
X157550874Y-54329850D01*
X157550872Y-54329849D01*
X157550870Y-54329849D01*
X157550867Y-54329848D01*
X157478890Y-54319500D01*
X157478889Y-54319500D01*
X156124000Y-54319500D01*
X156123997Y-54319500D01*
X156069687Y-54325338D01*
X156018181Y-54336543D01*
X156018172Y-54336545D01*
X155985240Y-54345581D01*
X155952433Y-54350000D01*
X155850000Y-54350000D01*
X155850000Y-54391249D01*
X155830315Y-54458288D01*
X155825622Y-54464220D01*
X155825932Y-54464444D01*
X155820745Y-54471636D01*
X155774534Y-54559977D01*
X155774533Y-54559977D01*
X155754851Y-54627009D01*
X155754848Y-54627021D01*
X155744500Y-54698998D01*
X155744500Y-59368983D01*
X155744842Y-59382233D01*
X155745506Y-59395038D01*
X155760900Y-59463736D01*
X155764266Y-59478753D01*
X155790774Y-59543399D01*
X155790776Y-59543403D01*
X155827653Y-59606063D01*
X155827656Y-59606068D01*
X155827660Y-59606074D01*
X156293258Y-60188072D01*
X156293264Y-60188078D01*
X156293272Y-60188088D01*
X156321682Y-60218222D01*
X156321707Y-60218246D01*
X156351480Y-60245084D01*
X156362238Y-60254256D01*
X156362241Y-60254258D01*
X156450574Y-60300465D01*
X156450575Y-60300466D01*
X156494816Y-60313456D01*
X156517613Y-60320150D01*
X156517617Y-60320150D01*
X156517619Y-60320151D01*
X156529250Y-60321823D01*
X156589598Y-60330500D01*
X156589599Y-60330500D01*
X161551000Y-60330500D01*
X161605313Y-60324661D01*
X161656824Y-60313455D01*
X161683198Y-60306219D01*
X161739641Y-60274077D01*
X161807636Y-60258010D01*
X161873526Y-60281254D01*
X161916390Y-60336431D01*
X161925000Y-60381832D01*
X161925000Y-61382241D01*
X161919977Y-61417176D01*
X161901851Y-61478905D01*
X161901848Y-61478917D01*
X161891500Y-61550894D01*
X161891500Y-61807968D01*
X161891576Y-61814214D01*
X161891722Y-61820233D01*
X161905796Y-61897871D01*
X161918133Y-61933382D01*
X161925000Y-61974074D01*
X161925000Y-63557500D01*
X161905315Y-63624539D01*
X161852511Y-63670294D01*
X161801000Y-63681500D01*
X161351258Y-63681500D01*
X161305192Y-63688211D01*
X161282157Y-63691567D01*
X161175569Y-63743676D01*
X161175568Y-63743677D01*
X161130567Y-63788680D01*
X161069244Y-63822166D01*
X161042885Y-63825000D01*
X158665399Y-63825000D01*
X158598360Y-63805315D01*
X158552605Y-63752511D01*
X158541402Y-63700195D01*
X158545755Y-63029259D01*
X158545755Y-63029258D01*
X158118747Y-62601324D01*
X158118746Y-62601324D01*
X156457298Y-62608506D01*
X156390174Y-62589111D01*
X156369081Y-62572188D01*
X156361847Y-62564954D01*
X156361844Y-62564952D01*
X156361842Y-62564950D01*
X156268224Y-62517249D01*
X156248801Y-62507352D01*
X156155024Y-62492500D01*
X154916982Y-62492500D01*
X154836019Y-62505323D01*
X154823196Y-62507354D01*
X154710158Y-62564950D01*
X154710157Y-62564950D01*
X154710155Y-62564952D01*
X154694918Y-62580188D01*
X154633594Y-62613670D01*
X154607777Y-62616502D01*
X154345138Y-62617638D01*
X154324007Y-62611532D01*
X154302058Y-62610112D01*
X154282238Y-62599463D01*
X154278014Y-62598243D01*
X154270967Y-62593408D01*
X154253631Y-62580613D01*
X154211381Y-62524965D01*
X154205924Y-62455308D01*
X154219879Y-62418843D01*
X154226331Y-62407668D01*
X154237984Y-62387485D01*
X154275500Y-62247475D01*
X154275500Y-62102525D01*
X154237984Y-61962515D01*
X154165509Y-61836985D01*
X154063015Y-61734491D01*
X154063013Y-61734490D01*
X154063011Y-61734488D01*
X153937488Y-61662017D01*
X153937489Y-61662017D01*
X153926006Y-61658940D01*
X153797475Y-61624500D01*
X153652525Y-61624500D01*
X153523993Y-61658940D01*
X153512511Y-61662017D01*
X153386988Y-61734488D01*
X153386982Y-61734493D01*
X153284493Y-61836982D01*
X153284488Y-61836988D01*
X153212017Y-61962511D01*
X153212016Y-61962515D01*
X153174500Y-62102525D01*
X153174500Y-62247475D01*
X153212016Y-62387485D01*
X153212017Y-62387488D01*
X153221754Y-62404353D01*
X153222218Y-62406266D01*
X153223601Y-62407668D01*
X153230419Y-62440071D01*
X153238227Y-62472254D01*
X153237582Y-62474114D01*
X153237988Y-62476040D01*
X153226203Y-62506991D01*
X153215374Y-62538280D01*
X153213606Y-62540078D01*
X153213127Y-62541337D01*
X153188001Y-62566123D01*
X153143564Y-62598919D01*
X153077935Y-62622890D01*
X153070467Y-62623148D01*
X152800700Y-62624315D01*
X152800000Y-62624319D01*
X152800000Y-62624320D01*
X152800000Y-65326000D01*
X152780315Y-65393039D01*
X152727511Y-65438794D01*
X152676000Y-65450000D01*
X139674000Y-65450000D01*
X139606961Y-65430315D01*
X139561206Y-65377511D01*
X139550000Y-65326000D01*
X139550000Y-64162693D01*
X139558644Y-64133252D01*
X139565168Y-64103266D01*
X139568922Y-64098250D01*
X139569685Y-64095654D01*
X139586319Y-64075012D01*
X139619512Y-64041819D01*
X139680835Y-64008334D01*
X139707193Y-64005500D01*
X144273449Y-64005500D01*
X144340488Y-64025185D01*
X144347760Y-64030233D01*
X144432669Y-64093796D01*
X144432671Y-64093797D01*
X144567517Y-64144091D01*
X144567516Y-64144091D01*
X144574444Y-64144835D01*
X144627127Y-64150500D01*
X145672872Y-64150499D01*
X145732483Y-64144091D01*
X145867331Y-64093796D01*
X145952240Y-64030232D01*
X146017704Y-64005816D01*
X146026551Y-64005500D01*
X147726000Y-64005500D01*
X147780313Y-63999661D01*
X147831824Y-63988455D01*
X147858198Y-63981219D01*
X147887074Y-63964775D01*
X147944818Y-63931894D01*
X147944819Y-63931892D01*
X147944828Y-63931888D01*
X147997632Y-63886133D01*
X148029257Y-63853359D01*
X148075465Y-63765024D01*
X148080103Y-63749231D01*
X148094501Y-63700195D01*
X148095150Y-63697985D01*
X148105500Y-63626000D01*
X148105500Y-63487417D01*
X148100135Y-63435334D01*
X148093005Y-63401091D01*
X148089831Y-63385847D01*
X148083521Y-63361578D01*
X148083518Y-63361572D01*
X148035744Y-63274082D01*
X147990933Y-63220464D01*
X147986133Y-63216152D01*
X147949417Y-63156707D01*
X147945000Y-63123908D01*
X147945000Y-62699500D01*
X147964685Y-62632461D01*
X148017489Y-62586706D01*
X148069000Y-62575500D01*
X148274676Y-62575500D01*
X148274677Y-62575499D01*
X148293188Y-62571817D01*
X148347738Y-62560967D01*
X148351430Y-62559438D01*
X148398881Y-62550000D01*
X150950000Y-62550000D01*
X150950000Y-62176340D01*
X150962791Y-62125624D01*
X150961454Y-62125066D01*
X150963798Y-62119455D01*
X150963799Y-62119451D01*
X150963802Y-62119446D01*
X150984293Y-62052649D01*
X150995509Y-61980795D01*
X151005770Y-61129014D01*
X151005769Y-61129003D01*
X151005769Y-61128997D01*
X151003448Y-61105332D01*
X151000309Y-61073303D01*
X150989183Y-61020452D01*
X150989178Y-61020432D01*
X150981699Y-60992732D01*
X150981696Y-60992726D01*
X150966161Y-60965356D01*
X150950000Y-60904146D01*
X150950000Y-59717651D01*
X150949999Y-59717650D01*
X150133850Y-58853492D01*
X150102130Y-58791238D01*
X150100000Y-58768351D01*
X150100000Y-52174000D01*
X150119685Y-52106961D01*
X150172489Y-52061206D01*
X150224000Y-52050000D01*
X161376000Y-52050000D01*
X161443039Y-52069685D01*
G37*
%TD.AperFunction*%
%TD*%
%TA.AperFunction,Conductor*%
%TO.N,LED_OUT_N*%
G36*
X159993039Y-94819685D02*
G01*
X160038794Y-94872489D01*
X160050000Y-94924000D01*
X160050000Y-98926000D01*
X160030315Y-98993039D01*
X159977511Y-99038794D01*
X159926000Y-99050000D01*
X152835461Y-99050000D01*
X152768422Y-99030315D01*
X152722667Y-98977511D01*
X152713164Y-98911426D01*
X152712618Y-98911383D01*
X152712809Y-98908952D01*
X152712723Y-98908353D01*
X152712987Y-98906609D01*
X152712999Y-98906527D01*
X152712999Y-98906525D01*
X152713000Y-98906519D01*
X152712999Y-98543482D01*
X152698146Y-98449696D01*
X152640550Y-98336658D01*
X152640546Y-98336654D01*
X152640545Y-98336652D01*
X152550847Y-98246954D01*
X152550844Y-98246952D01*
X152550842Y-98246950D01*
X152474017Y-98207805D01*
X152437801Y-98189352D01*
X152344024Y-98174500D01*
X151255982Y-98174500D01*
X151162195Y-98189354D01*
X151080294Y-98231085D01*
X151011625Y-98243981D01*
X150946885Y-98217704D01*
X150906628Y-98160598D01*
X150900000Y-98120600D01*
X150900000Y-94924000D01*
X150919685Y-94856961D01*
X150972489Y-94811206D01*
X151024000Y-94800000D01*
X159926000Y-94800000D01*
X159993039Y-94819685D01*
G37*
%TD.AperFunction*%
%TD*%
%TA.AperFunction,Conductor*%
%TO.N,+BATT2*%
G36*
X170343039Y-36770185D02*
G01*
X170388794Y-36822989D01*
X170400000Y-36874500D01*
X170400000Y-37961802D01*
X170380315Y-38028841D01*
X170375622Y-38034773D01*
X170375932Y-38034997D01*
X170370745Y-38042189D01*
X170324534Y-38130530D01*
X170324533Y-38130530D01*
X170304851Y-38197562D01*
X170304848Y-38197574D01*
X170294500Y-38269551D01*
X170294500Y-41076000D01*
X170274815Y-41143039D01*
X170222011Y-41188794D01*
X170170500Y-41200000D01*
X166057972Y-41200000D01*
X165990933Y-41180315D01*
X165950218Y-41137360D01*
X165931892Y-41105178D01*
X165931889Y-41105175D01*
X165931888Y-41105172D01*
X165886133Y-41052368D01*
X165853359Y-41020743D01*
X165765024Y-40974535D01*
X165765023Y-40974534D01*
X165765022Y-40974534D01*
X165765022Y-40974533D01*
X165697990Y-40954851D01*
X165697978Y-40954848D01*
X165626001Y-40944500D01*
X165626000Y-40944500D01*
X165162565Y-40944500D01*
X165162564Y-40944500D01*
X165135268Y-40945963D01*
X165135263Y-40945963D01*
X165135251Y-40945964D01*
X165135243Y-40945964D01*
X165135214Y-40945967D01*
X165108892Y-40948797D01*
X165108890Y-40948798D01*
X165013763Y-40978585D01*
X165013757Y-40978587D01*
X164974969Y-40999767D01*
X164962961Y-41005510D01*
X164962282Y-41005791D01*
X164955704Y-41006765D01*
X164929757Y-41024103D01*
X164863080Y-41044980D01*
X164860868Y-41045000D01*
X163839130Y-41045000D01*
X163824840Y-41041377D01*
X163813159Y-41042250D01*
X163790505Y-41032671D01*
X163780051Y-41030021D01*
X163775007Y-41027287D01*
X163753275Y-41012767D01*
X163752309Y-41014212D01*
X163711098Y-40992654D01*
X163711036Y-40992621D01*
X163674861Y-40973698D01*
X163624582Y-40925181D01*
X163608341Y-40862781D01*
X163610404Y-40617314D01*
X163609286Y-40591199D01*
X163606909Y-40565973D01*
X163606303Y-40561825D01*
X163605000Y-40543898D01*
X163605000Y-39438389D01*
X165424500Y-39438389D01*
X165424500Y-39561610D01*
X165448535Y-39682444D01*
X165448538Y-39682454D01*
X165495687Y-39796283D01*
X165495692Y-39796292D01*
X165564141Y-39898732D01*
X165564144Y-39898736D01*
X165651263Y-39985855D01*
X165651267Y-39985858D01*
X165753707Y-40054307D01*
X165753713Y-40054310D01*
X165753714Y-40054311D01*
X165867548Y-40101463D01*
X165988389Y-40125499D01*
X165988393Y-40125500D01*
X165988394Y-40125500D01*
X166111607Y-40125500D01*
X166111608Y-40125499D01*
X166232452Y-40101463D01*
X166346286Y-40054311D01*
X166448733Y-39985858D01*
X166535858Y-39898733D01*
X166604311Y-39796286D01*
X166651463Y-39682452D01*
X166675500Y-39561606D01*
X166675500Y-39438394D01*
X166651463Y-39317548D01*
X166604311Y-39203714D01*
X166604310Y-39203713D01*
X166604307Y-39203707D01*
X166535858Y-39101267D01*
X166535855Y-39101263D01*
X166448736Y-39014144D01*
X166448732Y-39014141D01*
X166346292Y-38945692D01*
X166346283Y-38945687D01*
X166232454Y-38898538D01*
X166232455Y-38898538D01*
X166232452Y-38898537D01*
X166232448Y-38898536D01*
X166232444Y-38898535D01*
X166111610Y-38874500D01*
X166111606Y-38874500D01*
X165988394Y-38874500D01*
X165988389Y-38874500D01*
X165867555Y-38898535D01*
X165867545Y-38898538D01*
X165753716Y-38945687D01*
X165753707Y-38945692D01*
X165651267Y-39014141D01*
X165651263Y-39014144D01*
X165564144Y-39101263D01*
X165564141Y-39101267D01*
X165495692Y-39203707D01*
X165495687Y-39203716D01*
X165448538Y-39317545D01*
X165448535Y-39317555D01*
X165424500Y-39438389D01*
X163605000Y-39438389D01*
X163605000Y-37312699D01*
X163607381Y-37288515D01*
X163611147Y-37269576D01*
X163614081Y-37257853D01*
X163628690Y-37209611D01*
X163639645Y-37137716D01*
X163641831Y-36877690D01*
X163641830Y-36877685D01*
X163641859Y-36874303D01*
X163643387Y-36874315D01*
X163658524Y-36812335D01*
X163709165Y-36764197D01*
X163765816Y-36750500D01*
X170276000Y-36750500D01*
X170343039Y-36770185D01*
G37*
%TD.AperFunction*%
%TD*%
%TA.AperFunction,Conductor*%
%TO.N,+5V*%
G36*
X174692539Y-78794685D02*
G01*
X174738294Y-78847489D01*
X174749500Y-78899000D01*
X174749500Y-89320630D01*
X174729815Y-89387669D01*
X174677011Y-89433424D01*
X174625006Y-89444629D01*
X173921354Y-89441825D01*
X173854393Y-89421873D01*
X173852958Y-89420929D01*
X173797739Y-89384033D01*
X173797735Y-89384032D01*
X173724677Y-89369500D01*
X173724674Y-89369500D01*
X171675326Y-89369500D01*
X171675324Y-89369500D01*
X171602260Y-89384033D01*
X171563265Y-89410088D01*
X171496587Y-89430964D01*
X171446926Y-89421546D01*
X171409702Y-89406128D01*
X171391830Y-89398725D01*
X171391826Y-89398724D01*
X171391822Y-89398723D01*
X171244907Y-89369500D01*
X171244903Y-89369500D01*
X171095097Y-89369500D01*
X171095092Y-89369500D01*
X170948178Y-89398723D01*
X170948170Y-89398725D01*
X170896466Y-89420141D01*
X170848521Y-89429578D01*
X168932050Y-89421940D01*
X168885091Y-89412502D01*
X168851836Y-89398727D01*
X168851824Y-89398723D01*
X168704907Y-89369500D01*
X168704903Y-89369500D01*
X168555097Y-89369500D01*
X168555092Y-89369500D01*
X168408173Y-89398723D01*
X168408166Y-89398726D01*
X168380668Y-89410115D01*
X168372214Y-89411778D01*
X168367681Y-89414667D01*
X168332727Y-89419551D01*
X168287750Y-89419372D01*
X168220789Y-89399421D01*
X168219409Y-89398513D01*
X168197740Y-89384034D01*
X168197738Y-89384033D01*
X168197735Y-89384032D01*
X168124677Y-89369500D01*
X168124674Y-89369500D01*
X166075326Y-89369500D01*
X166075324Y-89369500D01*
X166002259Y-89384033D01*
X166002257Y-89384034D01*
X165994731Y-89389063D01*
X165928053Y-89409938D01*
X165925351Y-89409957D01*
X162964079Y-89398155D01*
X162897118Y-89378203D01*
X162851574Y-89325218D01*
X162844802Y-89306260D01*
X162812984Y-89187515D01*
X162798550Y-89162515D01*
X162740511Y-89061988D01*
X162740506Y-89061982D01*
X162686319Y-89007795D01*
X162652834Y-88946472D01*
X162650000Y-88920114D01*
X162650000Y-87563770D01*
X162669685Y-87496731D01*
X162719541Y-87452369D01*
X162746483Y-87439198D01*
X162829198Y-87356483D01*
X162880573Y-87251393D01*
X162890500Y-87183260D01*
X162890500Y-87055321D01*
X165849500Y-87055321D01*
X165849500Y-88124678D01*
X165864032Y-88197735D01*
X165864033Y-88197739D01*
X165864034Y-88197740D01*
X165919399Y-88280601D01*
X165991471Y-88328757D01*
X166002260Y-88335966D01*
X166002264Y-88335967D01*
X166075321Y-88350499D01*
X166075324Y-88350500D01*
X166075326Y-88350500D01*
X168124676Y-88350500D01*
X168124677Y-88350499D01*
X168197740Y-88335966D01*
X168236734Y-88309911D01*
X168303409Y-88289034D01*
X168353073Y-88298453D01*
X168408170Y-88321275D01*
X168555092Y-88350499D01*
X168555096Y-88350500D01*
X168555097Y-88350500D01*
X168704904Y-88350500D01*
X168704905Y-88350499D01*
X168851830Y-88321275D01*
X168990232Y-88263947D01*
X169114791Y-88180719D01*
X169220719Y-88074791D01*
X169303947Y-87950232D01*
X169361275Y-87811830D01*
X169390500Y-87664903D01*
X169390500Y-87515097D01*
X169390499Y-87515092D01*
X170409500Y-87515092D01*
X170409500Y-87664907D01*
X170438723Y-87811822D01*
X170438725Y-87811830D01*
X170496051Y-87950229D01*
X170496056Y-87950238D01*
X170579280Y-88074790D01*
X170579283Y-88074794D01*
X170685205Y-88180716D01*
X170685209Y-88180719D01*
X170809761Y-88263943D01*
X170809767Y-88263946D01*
X170809768Y-88263947D01*
X170948170Y-88321275D01*
X171095092Y-88350499D01*
X171095096Y-88350500D01*
X171095097Y-88350500D01*
X171244904Y-88350500D01*
X171244905Y-88350499D01*
X171391830Y-88321275D01*
X171446924Y-88298453D01*
X171516390Y-88290984D01*
X171563264Y-88309910D01*
X171591471Y-88328757D01*
X171602260Y-88335966D01*
X171602264Y-88335967D01*
X171675321Y-88350499D01*
X171675324Y-88350500D01*
X171675326Y-88350500D01*
X173724676Y-88350500D01*
X173724677Y-88350499D01*
X173797740Y-88335966D01*
X173880601Y-88280601D01*
X173935966Y-88197740D01*
X173950500Y-88124674D01*
X173950500Y-87055326D01*
X173950500Y-87055323D01*
X173950499Y-87055321D01*
X173935967Y-86982264D01*
X173935966Y-86982260D01*
X173880601Y-86899399D01*
X173797740Y-86844034D01*
X173797739Y-86844033D01*
X173797735Y-86844032D01*
X173724677Y-86829500D01*
X173724674Y-86829500D01*
X171675326Y-86829500D01*
X171675323Y-86829500D01*
X171602264Y-86844032D01*
X171602258Y-86844034D01*
X171563265Y-86870088D01*
X171496587Y-86890964D01*
X171446926Y-86881546D01*
X171417759Y-86869465D01*
X171391830Y-86858725D01*
X171391826Y-86858724D01*
X171391822Y-86858723D01*
X171244907Y-86829500D01*
X171244903Y-86829500D01*
X171095097Y-86829500D01*
X171095092Y-86829500D01*
X170948177Y-86858723D01*
X170948169Y-86858725D01*
X170809770Y-86916051D01*
X170809761Y-86916056D01*
X170685209Y-86999280D01*
X170685205Y-86999283D01*
X170579283Y-87105205D01*
X170579280Y-87105209D01*
X170496056Y-87229761D01*
X170496051Y-87229770D01*
X170438725Y-87368169D01*
X170438723Y-87368177D01*
X170409500Y-87515092D01*
X169390499Y-87515092D01*
X169361275Y-87368170D01*
X169303947Y-87229768D01*
X169303946Y-87229767D01*
X169303943Y-87229761D01*
X169220719Y-87105209D01*
X169220716Y-87105205D01*
X169114794Y-86999283D01*
X169114790Y-86999280D01*
X168990238Y-86916056D01*
X168990229Y-86916051D01*
X168851830Y-86858725D01*
X168851822Y-86858723D01*
X168704907Y-86829500D01*
X168704903Y-86829500D01*
X168555097Y-86829500D01*
X168555092Y-86829500D01*
X168408178Y-86858723D01*
X168408174Y-86858724D01*
X168408170Y-86858725D01*
X168353071Y-86881547D01*
X168283604Y-86889015D01*
X168236732Y-86870087D01*
X168197740Y-86844034D01*
X168197735Y-86844032D01*
X168124677Y-86829500D01*
X168124674Y-86829500D01*
X166075326Y-86829500D01*
X166075323Y-86829500D01*
X166002264Y-86844032D01*
X166002260Y-86844033D01*
X165919399Y-86899399D01*
X165864033Y-86982260D01*
X165864032Y-86982264D01*
X165849500Y-87055321D01*
X162890500Y-87055321D01*
X162890500Y-85841740D01*
X162880573Y-85773607D01*
X162829198Y-85668517D01*
X162829196Y-85668515D01*
X162829196Y-85668514D01*
X162746483Y-85585801D01*
X162719539Y-85572629D01*
X162667957Y-85525501D01*
X162665032Y-85515032D01*
X162650000Y-85500000D01*
X162446767Y-85500000D01*
X162379728Y-85480315D01*
X162333973Y-85427511D01*
X162326992Y-85408094D01*
X162302321Y-85316022D01*
X162287984Y-85262515D01*
X162287433Y-85261561D01*
X162215511Y-85136988D01*
X162215506Y-85136982D01*
X162113017Y-85034493D01*
X162113011Y-85034488D01*
X161987488Y-84962017D01*
X161987489Y-84962017D01*
X161976006Y-84958940D01*
X161847475Y-84924500D01*
X161702525Y-84924500D01*
X161573993Y-84958940D01*
X161562511Y-84962017D01*
X161436988Y-85034488D01*
X161436982Y-85034493D01*
X161334493Y-85136982D01*
X161334488Y-85136988D01*
X161262017Y-85262511D01*
X161223008Y-85408094D01*
X161186642Y-85467754D01*
X161123795Y-85498283D01*
X161103233Y-85500000D01*
X159400000Y-85500000D01*
X158410906Y-86440845D01*
X158348766Y-86472787D01*
X158325444Y-86475000D01*
X155524000Y-86475000D01*
X155515314Y-86472449D01*
X155506353Y-86473738D01*
X155482312Y-86462759D01*
X155456961Y-86455315D01*
X155451033Y-86448474D01*
X155442797Y-86444713D01*
X155428507Y-86422478D01*
X155411206Y-86402511D01*
X155408918Y-86391996D01*
X155405023Y-86385935D01*
X155400000Y-86351000D01*
X155400000Y-86279115D01*
X155419685Y-86212076D01*
X155436322Y-86191431D01*
X155443323Y-86184430D01*
X155443324Y-86184429D01*
X155495433Y-86077840D01*
X155505500Y-86008742D01*
X155505500Y-85451258D01*
X155495433Y-85382160D01*
X155463100Y-85316022D01*
X155450500Y-85261561D01*
X155450500Y-84857255D01*
X155470185Y-84790216D01*
X155486819Y-84769574D01*
X156244574Y-84011819D01*
X156305897Y-83978334D01*
X156332255Y-83975500D01*
X156579270Y-83975500D01*
X156609699Y-83972646D01*
X156609701Y-83972646D01*
X156673790Y-83950219D01*
X156737882Y-83927793D01*
X156847150Y-83847150D01*
X156863227Y-83825365D01*
X156918875Y-83783115D01*
X156962997Y-83775000D01*
X165273499Y-83775000D01*
X165340538Y-83794685D01*
X165386293Y-83847489D01*
X165396237Y-83916647D01*
X165367212Y-83980203D01*
X165308434Y-84017977D01*
X165305643Y-84018760D01*
X165244228Y-84035217D01*
X165237511Y-84037017D01*
X165111988Y-84109488D01*
X165111982Y-84109493D01*
X165009493Y-84211982D01*
X165009488Y-84211988D01*
X164937017Y-84337511D01*
X164937016Y-84337515D01*
X164899500Y-84477525D01*
X164899500Y-84622475D01*
X164937016Y-84762485D01*
X164937017Y-84762488D01*
X165009488Y-84888011D01*
X165009490Y-84888013D01*
X165009491Y-84888015D01*
X165111985Y-84990509D01*
X165111986Y-84990510D01*
X165111988Y-84990511D01*
X165237511Y-85062982D01*
X165237512Y-85062982D01*
X165237515Y-85062984D01*
X165377525Y-85100500D01*
X165377528Y-85100500D01*
X165522472Y-85100500D01*
X165522475Y-85100500D01*
X165662485Y-85062984D01*
X165663495Y-85062400D01*
X165664457Y-85062167D01*
X165669999Y-85059872D01*
X165670356Y-85060735D01*
X165731393Y-85045925D01*
X165797421Y-85068774D01*
X165840615Y-85123692D01*
X165849500Y-85169785D01*
X165849500Y-85584678D01*
X165864032Y-85657735D01*
X165864033Y-85657739D01*
X165864034Y-85657740D01*
X165919399Y-85740601D01*
X166002259Y-85795965D01*
X166002260Y-85795966D01*
X166002264Y-85795967D01*
X166075321Y-85810499D01*
X166075324Y-85810500D01*
X166075326Y-85810500D01*
X168124676Y-85810500D01*
X168124677Y-85810499D01*
X168197740Y-85795966D01*
X168236734Y-85769911D01*
X168303409Y-85749034D01*
X168353073Y-85758453D01*
X168408170Y-85781275D01*
X168555092Y-85810499D01*
X168555096Y-85810500D01*
X168555097Y-85810500D01*
X168704904Y-85810500D01*
X168704905Y-85810499D01*
X168851830Y-85781275D01*
X168990232Y-85723947D01*
X169114791Y-85640719D01*
X169220719Y-85534791D01*
X169303947Y-85410232D01*
X169361275Y-85271830D01*
X169390500Y-85124903D01*
X169390500Y-85099978D01*
X169410185Y-85032939D01*
X169462989Y-84987184D01*
X169532147Y-84977240D01*
X169552817Y-84982047D01*
X169566967Y-84986645D01*
X169607166Y-84999707D01*
X169607169Y-84999707D01*
X169607174Y-84999709D01*
X169697213Y-85013969D01*
X169801578Y-85030500D01*
X169801583Y-85030500D01*
X169998422Y-85030500D01*
X170092666Y-85015572D01*
X170192826Y-84999709D01*
X170192831Y-84999707D01*
X170192833Y-84999707D01*
X170231374Y-84987184D01*
X170247180Y-84982047D01*
X170317021Y-84980051D01*
X170376854Y-85016130D01*
X170407683Y-85078831D01*
X170409500Y-85099978D01*
X170409500Y-85124907D01*
X170438723Y-85271822D01*
X170438725Y-85271830D01*
X170496051Y-85410229D01*
X170496056Y-85410238D01*
X170579280Y-85534790D01*
X170579283Y-85534794D01*
X170685205Y-85640716D01*
X170685209Y-85640719D01*
X170809761Y-85723943D01*
X170809767Y-85723946D01*
X170809768Y-85723947D01*
X170948170Y-85781275D01*
X171095092Y-85810499D01*
X171095096Y-85810500D01*
X171095097Y-85810500D01*
X171244904Y-85810500D01*
X171244905Y-85810499D01*
X171391830Y-85781275D01*
X171446924Y-85758453D01*
X171516390Y-85750984D01*
X171563264Y-85769910D01*
X171602259Y-85795965D01*
X171602260Y-85795966D01*
X171602264Y-85795967D01*
X171675321Y-85810499D01*
X171675324Y-85810500D01*
X171675326Y-85810500D01*
X173724676Y-85810500D01*
X173724677Y-85810499D01*
X173797740Y-85795966D01*
X173880601Y-85740601D01*
X173935966Y-85657740D01*
X173950500Y-85584674D01*
X173950500Y-84515326D01*
X173950500Y-84515323D01*
X173950499Y-84515321D01*
X173935967Y-84442264D01*
X173935966Y-84442260D01*
X173903778Y-84394087D01*
X173880601Y-84359399D01*
X173797740Y-84304034D01*
X173797739Y-84304033D01*
X173797735Y-84304032D01*
X173724677Y-84289500D01*
X173724674Y-84289500D01*
X173115097Y-84289500D01*
X173048058Y-84269815D01*
X173027416Y-84253181D01*
X172118718Y-83344483D01*
X172118716Y-83344481D01*
X171981785Y-83265423D01*
X171832793Y-83225500D01*
X171829054Y-83224498D01*
X171820997Y-83223438D01*
X171821211Y-83221808D01*
X171763335Y-83204814D01*
X171717580Y-83152010D01*
X171707636Y-83082852D01*
X171736661Y-83019296D01*
X171742693Y-83012818D01*
X171760716Y-82994794D01*
X171760719Y-82994791D01*
X171843947Y-82870232D01*
X171901275Y-82731830D01*
X171930500Y-82584903D01*
X171930500Y-82435097D01*
X171901275Y-82288170D01*
X171843947Y-82149768D01*
X171843946Y-82149767D01*
X171843943Y-82149761D01*
X171760719Y-82025209D01*
X171760716Y-82025205D01*
X171654794Y-81919283D01*
X171654790Y-81919280D01*
X171530238Y-81836056D01*
X171530229Y-81836051D01*
X171391830Y-81778725D01*
X171391822Y-81778723D01*
X171244907Y-81749500D01*
X171244903Y-81749500D01*
X171095097Y-81749500D01*
X171095092Y-81749500D01*
X170948177Y-81778723D01*
X170948169Y-81778725D01*
X170809770Y-81836051D01*
X170809761Y-81836056D01*
X170685209Y-81919280D01*
X170685205Y-81919283D01*
X170579283Y-82025205D01*
X170579280Y-82025209D01*
X170496056Y-82149761D01*
X170496051Y-82149770D01*
X170438725Y-82288169D01*
X170438723Y-82288177D01*
X170409500Y-82435092D01*
X170409500Y-82460020D01*
X170389815Y-82527059D01*
X170337011Y-82572814D01*
X170267853Y-82582758D01*
X170247183Y-82577951D01*
X170192834Y-82560292D01*
X170192827Y-82560291D01*
X169998420Y-82529499D01*
X169993567Y-82529118D01*
X169993660Y-82527932D01*
X169931961Y-82509815D01*
X169886206Y-82457011D01*
X169875000Y-82405500D01*
X169875000Y-79895092D01*
X170409500Y-79895092D01*
X170409500Y-80044907D01*
X170438723Y-80191822D01*
X170438725Y-80191830D01*
X170496051Y-80330229D01*
X170496056Y-80330238D01*
X170579280Y-80454790D01*
X170579283Y-80454794D01*
X170685205Y-80560716D01*
X170685209Y-80560719D01*
X170809761Y-80643943D01*
X170809767Y-80643946D01*
X170809768Y-80643947D01*
X170948170Y-80701275D01*
X171095092Y-80730499D01*
X171095096Y-80730500D01*
X171095097Y-80730500D01*
X171244904Y-80730500D01*
X171244905Y-80730499D01*
X171391830Y-80701275D01*
X171530232Y-80643947D01*
X171654791Y-80560719D01*
X171760719Y-80454791D01*
X171843947Y-80330232D01*
X171901275Y-80191830D01*
X171930500Y-80044903D01*
X171930500Y-79895097D01*
X171901275Y-79748170D01*
X171843947Y-79609768D01*
X171843946Y-79609767D01*
X171843943Y-79609761D01*
X171760719Y-79485209D01*
X171760716Y-79485205D01*
X171654794Y-79379283D01*
X171654790Y-79379280D01*
X171530238Y-79296056D01*
X171530229Y-79296051D01*
X171391830Y-79238725D01*
X171391822Y-79238723D01*
X171244907Y-79209500D01*
X171244903Y-79209500D01*
X171095097Y-79209500D01*
X171095092Y-79209500D01*
X170948177Y-79238723D01*
X170948169Y-79238725D01*
X170809770Y-79296051D01*
X170809761Y-79296056D01*
X170685209Y-79379280D01*
X170685205Y-79379283D01*
X170579283Y-79485205D01*
X170579280Y-79485209D01*
X170496056Y-79609761D01*
X170496051Y-79609770D01*
X170438725Y-79748169D01*
X170438723Y-79748177D01*
X170409500Y-79895092D01*
X169875000Y-79895092D01*
X169875000Y-78899000D01*
X169894685Y-78831961D01*
X169947489Y-78786206D01*
X169999000Y-78775000D01*
X174625500Y-78775000D01*
X174692539Y-78794685D01*
G37*
%TD.AperFunction*%
%TD*%
%TA.AperFunction,Conductor*%
%TO.N,LED_OUT_P*%
G36*
X150468039Y-93289685D02*
G01*
X150513794Y-93342489D01*
X150525000Y-93394000D01*
X150525000Y-98719746D01*
X150505315Y-98786785D01*
X150488681Y-98807427D01*
X150254522Y-99041585D01*
X150254518Y-99041591D01*
X150201792Y-99132913D01*
X150201793Y-99132914D01*
X150181649Y-99208093D01*
X150145284Y-99267754D01*
X150082437Y-99298283D01*
X150061874Y-99300000D01*
X147249000Y-99300000D01*
X147181961Y-99280315D01*
X147136206Y-99227511D01*
X147125000Y-99176000D01*
X147125000Y-93394000D01*
X147144685Y-93326961D01*
X147197489Y-93281206D01*
X147249000Y-93270000D01*
X150401000Y-93270000D01*
X150468039Y-93289685D01*
G37*
%TD.AperFunction*%
%TD*%
%TA.AperFunction,Conductor*%
%TO.N,Net-(U2-VBUS)*%
G36*
X147632539Y-62595185D02*
G01*
X147678294Y-62647989D01*
X147689500Y-62699500D01*
X147689500Y-63204678D01*
X147704032Y-63277735D01*
X147704033Y-63277739D01*
X147704034Y-63277740D01*
X147759399Y-63360601D01*
X147794891Y-63384316D01*
X147839695Y-63437926D01*
X147850000Y-63487417D01*
X147850000Y-63626000D01*
X147830315Y-63693039D01*
X147777511Y-63738794D01*
X147726000Y-63750000D01*
X139549999Y-63750000D01*
X139175000Y-64124999D01*
X139175000Y-65650000D01*
X140011220Y-66114567D01*
X140060263Y-66164331D01*
X140075000Y-66222962D01*
X140075000Y-67993783D01*
X140071617Y-68005300D01*
X140072759Y-68017251D01*
X140061956Y-68038205D01*
X140055315Y-68060822D01*
X140045443Y-68070234D01*
X140040742Y-68079354D01*
X140013002Y-68101168D01*
X140003207Y-68106824D01*
X139933458Y-68147093D01*
X139865558Y-68163564D01*
X139848458Y-68160565D01*
X139848422Y-68160815D01*
X139770761Y-68149500D01*
X139770760Y-68149500D01*
X138429240Y-68149500D01*
X138429239Y-68149500D01*
X138361108Y-68159426D01*
X138303885Y-68187401D01*
X138291797Y-68190197D01*
X138284360Y-68194977D01*
X138249425Y-68200000D01*
X137999695Y-68200000D01*
X137932656Y-68180315D01*
X137886901Y-68127511D01*
X137875697Y-68075307D01*
X137899715Y-63775955D01*
X137919774Y-63709027D01*
X137936027Y-63688972D01*
X138713681Y-62911319D01*
X138775004Y-62877834D01*
X138801362Y-62875000D01*
X139384366Y-62875000D01*
X139451405Y-62894685D01*
X139488174Y-62933606D01*
X139488877Y-62933113D01*
X139492270Y-62937941D01*
X139492323Y-62937998D01*
X139492378Y-62938096D01*
X139492380Y-62938098D01*
X139492381Y-62938100D01*
X139537959Y-62991057D01*
X139570631Y-63022794D01*
X139658812Y-63069296D01*
X139725785Y-63089204D01*
X139797731Y-63099794D01*
X144088309Y-63114143D01*
X144204266Y-63114531D01*
X144204266Y-63114530D01*
X144204274Y-63114531D01*
X144250068Y-63110549D01*
X144293812Y-63102733D01*
X144312047Y-63098782D01*
X144401978Y-63055762D01*
X144457914Y-63013893D01*
X144481202Y-62990604D01*
X144494558Y-62979031D01*
X144542104Y-62943438D01*
X144573079Y-62926526D01*
X144609833Y-62912818D01*
X144653165Y-62905000D01*
X145646834Y-62905000D01*
X145690166Y-62912818D01*
X145726917Y-62926525D01*
X145757897Y-62943441D01*
X145780334Y-62960238D01*
X145792990Y-62969712D01*
X145810996Y-62986193D01*
X145815360Y-62991060D01*
X145825518Y-63002387D01*
X145857395Y-63032165D01*
X145870828Y-63043864D01*
X145870829Y-63043864D01*
X145870831Y-63043866D01*
X145959004Y-63090364D01*
X145959006Y-63090364D01*
X145959009Y-63090366D01*
X146025982Y-63110274D01*
X146097928Y-63120864D01*
X146271596Y-63121444D01*
X146338568Y-63141352D01*
X146384146Y-63194309D01*
X146392797Y-63221252D01*
X146404032Y-63277735D01*
X146404033Y-63277739D01*
X146404034Y-63277740D01*
X146459399Y-63360601D01*
X146494889Y-63384314D01*
X146542260Y-63415966D01*
X146542264Y-63415967D01*
X146615321Y-63430499D01*
X146615324Y-63430500D01*
X146615326Y-63430500D01*
X146984676Y-63430500D01*
X146984677Y-63430499D01*
X147057740Y-63415966D01*
X147140601Y-63360601D01*
X147195966Y-63277740D01*
X147210500Y-63204674D01*
X147210500Y-63017714D01*
X147224625Y-62960238D01*
X147252728Y-62906513D01*
X147264965Y-62883120D01*
X147267350Y-62875000D01*
X147281936Y-62825323D01*
X147284650Y-62816081D01*
X147295000Y-62744096D01*
X147295000Y-62699500D01*
X147297550Y-62690814D01*
X147296262Y-62681853D01*
X147307240Y-62657812D01*
X147314685Y-62632461D01*
X147321525Y-62626533D01*
X147325287Y-62618297D01*
X147347521Y-62604007D01*
X147367489Y-62586706D01*
X147378003Y-62584418D01*
X147384065Y-62580523D01*
X147419000Y-62575500D01*
X147565500Y-62575500D01*
X147632539Y-62595185D01*
G37*
%TD.AperFunction*%
%TD*%
%TA.AperFunction,Conductor*%
%TO.N,Net-(U3-SW)*%
G36*
X144027987Y-61569685D02*
G01*
X144062071Y-61602236D01*
X144151623Y-61728425D01*
X144174369Y-61794489D01*
X144174407Y-61796121D01*
X144174501Y-61797876D01*
X144180909Y-61857483D01*
X144231202Y-61992327D01*
X144235454Y-62000113D01*
X144234203Y-62000795D01*
X144250948Y-62037532D01*
X144260215Y-62080439D01*
X144267516Y-62107138D01*
X144316829Y-62193778D01*
X144316831Y-62193781D01*
X144362567Y-62246585D01*
X144395339Y-62278221D01*
X144395341Y-62278222D01*
X144395343Y-62278224D01*
X144483670Y-62324449D01*
X144519887Y-62335091D01*
X144550698Y-62344145D01*
X144550701Y-62344145D01*
X144550706Y-62344147D01*
X144622685Y-62354511D01*
X146303084Y-62354850D01*
X146370119Y-62374548D01*
X146404598Y-62414355D01*
X146407248Y-62412585D01*
X146469398Y-62505600D01*
X146552260Y-62560966D01*
X146552264Y-62560967D01*
X146625321Y-62575499D01*
X146625324Y-62575500D01*
X146625326Y-62575500D01*
X146915500Y-62575500D01*
X146924185Y-62578050D01*
X146933147Y-62576762D01*
X146957187Y-62587740D01*
X146982539Y-62595185D01*
X146988466Y-62602025D01*
X146996703Y-62605787D01*
X147010992Y-62628021D01*
X147028294Y-62647989D01*
X147030581Y-62658503D01*
X147034477Y-62664565D01*
X147039500Y-62699500D01*
X147039500Y-62744096D01*
X147019815Y-62811135D01*
X146967011Y-62856890D01*
X146915085Y-62868095D01*
X146098782Y-62865365D01*
X146031809Y-62845457D01*
X145999932Y-62815679D01*
X145982546Y-62792454D01*
X145954462Y-62771430D01*
X145867335Y-62706206D01*
X145867328Y-62706202D01*
X145732482Y-62655908D01*
X145732483Y-62655908D01*
X145672883Y-62649501D01*
X145672881Y-62649500D01*
X145672873Y-62649500D01*
X145672864Y-62649500D01*
X144627129Y-62649500D01*
X144627123Y-62649501D01*
X144567516Y-62655908D01*
X144432671Y-62706202D01*
X144432664Y-62706206D01*
X144317456Y-62792451D01*
X144304808Y-62809347D01*
X144248872Y-62851216D01*
X144205128Y-62859032D01*
X139798585Y-62844295D01*
X139731612Y-62824387D01*
X139686034Y-62771430D01*
X139675000Y-62720296D01*
X139675000Y-61674000D01*
X139694685Y-61606961D01*
X139747489Y-61561206D01*
X139799000Y-61550000D01*
X143960948Y-61550000D01*
X144027987Y-61569685D01*
G37*
%TD.AperFunction*%
%TD*%
%TA.AperFunction,Conductor*%
%TO.N,GND*%
G36*
X165118039Y-66369685D02*
G01*
X165163794Y-66422489D01*
X165175000Y-66474000D01*
X165175000Y-68788409D01*
X165155315Y-68855448D01*
X165102511Y-68901203D01*
X165049291Y-68912397D01*
X164237266Y-68901203D01*
X164150000Y-68900000D01*
X164149999Y-68900000D01*
X164149998Y-68900000D01*
X163894309Y-69155689D01*
X163847584Y-69185049D01*
X163777118Y-69209706D01*
X163667850Y-69290350D01*
X163587206Y-69399618D01*
X163587205Y-69399621D01*
X163585690Y-69403952D01*
X163544970Y-69460729D01*
X163480018Y-69486478D01*
X163468648Y-69487000D01*
X161963828Y-69487000D01*
X161956220Y-69486999D01*
X161956217Y-69486999D01*
X161850764Y-69486999D01*
X161850763Y-69486999D01*
X161848999Y-69486999D01*
X161781960Y-69467314D01*
X161736205Y-69414509D01*
X161736203Y-69414498D01*
X161725000Y-69362999D01*
X161725000Y-68202360D01*
X161744685Y-68135321D01*
X161762528Y-68113486D01*
X163447556Y-66474000D01*
X163538898Y-66385125D01*
X163600674Y-66352484D01*
X163625370Y-66350000D01*
X165051000Y-66350000D01*
X165118039Y-66369685D01*
G37*
%TD.AperFunction*%
%TD*%
%TA.AperFunction,Conductor*%
%TO.N,/Power/LED_OUT_SW*%
G36*
X160368031Y-100344685D02*
G01*
X160413786Y-100397489D01*
X160424989Y-100448260D01*
X160428353Y-101013342D01*
X160449259Y-104525564D01*
X160429974Y-104592719D01*
X160377443Y-104638788D01*
X160325563Y-104650302D01*
X153144612Y-104667774D01*
X153077525Y-104648252D01*
X153047515Y-104616854D01*
X153045457Y-104618434D01*
X153040511Y-104611988D01*
X153040509Y-104611985D01*
X152938015Y-104509491D01*
X152938013Y-104509490D01*
X152938011Y-104509488D01*
X152812488Y-104437017D01*
X152812489Y-104437017D01*
X152801006Y-104433940D01*
X152672475Y-104399500D01*
X152527525Y-104399500D01*
X152398993Y-104433940D01*
X152387511Y-104437017D01*
X152261988Y-104509488D01*
X152261986Y-104509490D01*
X152159487Y-104611988D01*
X152154545Y-104618430D01*
X152152613Y-104616947D01*
X152110959Y-104656652D01*
X152054460Y-104670426D01*
X150399302Y-104674454D01*
X150332215Y-104654932D01*
X150286331Y-104602240D01*
X150275000Y-104550454D01*
X150275000Y-101155254D01*
X150294685Y-101088215D01*
X150311314Y-101067577D01*
X150365550Y-101013342D01*
X150423146Y-100900304D01*
X150423146Y-100900302D01*
X150423147Y-100900301D01*
X150437999Y-100806524D01*
X150438000Y-100806519D01*
X150437999Y-100448999D01*
X150457683Y-100381961D01*
X150510487Y-100336206D01*
X150561999Y-100325000D01*
X160300992Y-100325000D01*
X160368031Y-100344685D01*
G37*
%TD.AperFunction*%
%TD*%
%TA.AperFunction,Conductor*%
%TO.N,+10V*%
G36*
X143402011Y-83698326D02*
G01*
X143468938Y-83718387D01*
X143514396Y-83771447D01*
X143525313Y-83821783D01*
X143546586Y-88693437D01*
X143527194Y-88760561D01*
X143510459Y-88781468D01*
X142906082Y-89388490D01*
X142844833Y-89422108D01*
X142818210Y-89425000D01*
X141651694Y-89425000D01*
X141676693Y-97899998D01*
X141676694Y-97900000D01*
X143693420Y-97900000D01*
X143760459Y-97919685D01*
X143787079Y-97942735D01*
X145225000Y-99600000D01*
X149900500Y-99600000D01*
X149967539Y-99619685D01*
X150013294Y-99672489D01*
X150024500Y-99724000D01*
X150024500Y-99747475D01*
X150058317Y-99873680D01*
X150062017Y-99887488D01*
X150134488Y-100013011D01*
X150139438Y-100019461D01*
X150138042Y-100020531D01*
X150166758Y-100073120D01*
X150169585Y-100100819D01*
X150161962Y-100805868D01*
X150141554Y-100872690D01*
X150130222Y-100887384D01*
X150112379Y-100907249D01*
X150112343Y-100907292D01*
X150095732Y-100927907D01*
X150095732Y-100927908D01*
X150049537Y-101016225D01*
X150049533Y-101016234D01*
X150029850Y-101083267D01*
X150029848Y-101083275D01*
X150019500Y-101155252D01*
X150019500Y-104101000D01*
X149999815Y-104168039D01*
X149947011Y-104213794D01*
X149895500Y-104225000D01*
X145775124Y-104225000D01*
X145708085Y-104205315D01*
X145675859Y-104175313D01*
X145632546Y-104117454D01*
X145576503Y-104075500D01*
X145517335Y-104031206D01*
X145517328Y-104031202D01*
X145382482Y-103980908D01*
X145382483Y-103980908D01*
X145322883Y-103974501D01*
X145322881Y-103974500D01*
X145322873Y-103974500D01*
X144873919Y-103974500D01*
X144873917Y-103974500D01*
X144726083Y-103974500D01*
X144726080Y-103974500D01*
X144277129Y-103974500D01*
X144277123Y-103974501D01*
X144217516Y-103980908D01*
X144082671Y-104031202D01*
X144082664Y-104031206D01*
X143967456Y-104117452D01*
X143967455Y-104117453D01*
X143967454Y-104117454D01*
X143924141Y-104175312D01*
X143868209Y-104217182D01*
X143824876Y-104225000D01*
X143407833Y-104225000D01*
X143340794Y-104205315D01*
X143295039Y-104152511D01*
X143285095Y-104083353D01*
X143288055Y-104068917D01*
X143300500Y-104022475D01*
X143300500Y-103877525D01*
X143262984Y-103737515D01*
X143246924Y-103709699D01*
X143190511Y-103611988D01*
X143190506Y-103611982D01*
X143088017Y-103509493D01*
X143088011Y-103509488D01*
X142962488Y-103437017D01*
X142962489Y-103437017D01*
X142951006Y-103433940D01*
X142822475Y-103399500D01*
X142822472Y-103399500D01*
X142746544Y-103399500D01*
X142679505Y-103379815D01*
X142658863Y-103363181D01*
X142365213Y-103069531D01*
X142365208Y-103069527D01*
X142285290Y-103023387D01*
X142277781Y-103020277D01*
X142279052Y-103017208D01*
X142232589Y-102988893D01*
X142207295Y-102946430D01*
X142177793Y-102862119D01*
X142177792Y-102862117D01*
X142097150Y-102752850D01*
X141987882Y-102672207D01*
X141987880Y-102672206D01*
X141852578Y-102624862D01*
X141853633Y-102621845D01*
X141805050Y-102595209D01*
X141802890Y-102592987D01*
X139284009Y-99935875D01*
X139252173Y-99873680D01*
X139250000Y-99850566D01*
X139250000Y-88787564D01*
X139269685Y-88720525D01*
X139275207Y-88713671D01*
X139280597Y-88705603D01*
X139280601Y-88705601D01*
X139335966Y-88622740D01*
X139350500Y-88549674D01*
X139350500Y-86000326D01*
X139350500Y-86000323D01*
X139350499Y-86000321D01*
X139335967Y-85927264D01*
X139335966Y-85927263D01*
X139335966Y-85927260D01*
X139280601Y-85844399D01*
X139273816Y-85834244D01*
X139276626Y-85832365D01*
X139252834Y-85788793D01*
X139250000Y-85762435D01*
X139250000Y-83799698D01*
X139269685Y-83732659D01*
X139322489Y-83686904D01*
X139374694Y-83675700D01*
X143402011Y-83698326D01*
G37*
%TD.AperFunction*%
%TD*%
%TA.AperFunction,Conductor*%
%TO.N,/Battery Inputs/BATT2_IN*%
G36*
X164443039Y-44569685D02*
G01*
X164488794Y-44622489D01*
X164500000Y-44674000D01*
X164500000Y-50405113D01*
X164480315Y-50472152D01*
X164463682Y-50492794D01*
X164394488Y-50561988D01*
X164322017Y-50687511D01*
X164322016Y-50687515D01*
X164284500Y-50827525D01*
X164284500Y-50972475D01*
X164305139Y-51049500D01*
X164322017Y-51112488D01*
X164394488Y-51238011D01*
X164394493Y-51238017D01*
X164477979Y-51321503D01*
X164491021Y-51341021D01*
X164810181Y-51660181D01*
X164843666Y-51721504D01*
X164846500Y-51747862D01*
X164846500Y-51928742D01*
X164854050Y-51980565D01*
X164856567Y-51997842D01*
X164908676Y-52104430D01*
X164992569Y-52188323D01*
X165099157Y-52240432D01*
X165099158Y-52240432D01*
X165099160Y-52240433D01*
X165168258Y-52250500D01*
X165168264Y-52250500D01*
X165349138Y-52250500D01*
X165416177Y-52270185D01*
X165436819Y-52286819D01*
X165500000Y-52350000D01*
X167776000Y-52350000D01*
X167843039Y-52369685D01*
X167888794Y-52422489D01*
X167900000Y-52474000D01*
X167900000Y-55076000D01*
X167880315Y-55143039D01*
X167827511Y-55188794D01*
X167776000Y-55200000D01*
X164491217Y-55200000D01*
X164424178Y-55180315D01*
X164399464Y-55159411D01*
X162132247Y-52665471D01*
X162101717Y-52602625D01*
X162100000Y-52582060D01*
X162100000Y-49360000D01*
X161300000Y-48400000D01*
X157124000Y-48400000D01*
X157056961Y-48380315D01*
X157011206Y-48327511D01*
X157000000Y-48276000D01*
X157000000Y-44674000D01*
X157019685Y-44606961D01*
X157072489Y-44561206D01*
X157124000Y-44550000D01*
X164376000Y-44550000D01*
X164443039Y-44569685D01*
G37*
%TD.AperFunction*%
%TD*%
%TA.AperFunction,Conductor*%
%TO.N,Net-(U9-VBUS)*%
G36*
X140843039Y-36770185D02*
G01*
X140888794Y-36822989D01*
X140900000Y-36874500D01*
X140900000Y-39046076D01*
X140880315Y-39113115D01*
X140827511Y-39158870D01*
X140758353Y-39168814D01*
X140758274Y-39168802D01*
X140728742Y-39164500D01*
X140728738Y-39164500D01*
X140381615Y-39164500D01*
X140349522Y-39160275D01*
X140332963Y-39155838D01*
X140309309Y-39149500D01*
X140309308Y-39149500D01*
X139903936Y-39149500D01*
X139841936Y-39132887D01*
X139762485Y-39087016D01*
X139622475Y-39049500D01*
X139477525Y-39049500D01*
X139348993Y-39083940D01*
X139337511Y-39087017D01*
X139211988Y-39159488D01*
X139211982Y-39159493D01*
X139109493Y-39261982D01*
X139109488Y-39261988D01*
X139037017Y-39387511D01*
X139037016Y-39387515D01*
X138999500Y-39527525D01*
X138999500Y-39672475D01*
X139037016Y-39812485D01*
X139037017Y-39812488D01*
X139109488Y-39938011D01*
X139109490Y-39938013D01*
X139109491Y-39938015D01*
X139211985Y-40040509D01*
X139211986Y-40040510D01*
X139211988Y-40040511D01*
X139337511Y-40112982D01*
X139337512Y-40112982D01*
X139337515Y-40112984D01*
X139477525Y-40150500D01*
X139477528Y-40150500D01*
X139622472Y-40150500D01*
X139622475Y-40150500D01*
X139762485Y-40112984D01*
X139841936Y-40067112D01*
X139857424Y-40062962D01*
X139869001Y-40055523D01*
X139903936Y-40050500D01*
X140022471Y-40050500D01*
X140076933Y-40063100D01*
X140102157Y-40075432D01*
X140102158Y-40075432D01*
X140102160Y-40075433D01*
X140171258Y-40085500D01*
X140171264Y-40085500D01*
X140728740Y-40085500D01*
X140728742Y-40085500D01*
X140758123Y-40081219D01*
X140827298Y-40091031D01*
X140880189Y-40136686D01*
X140900000Y-40203689D01*
X140900000Y-40275000D01*
X143423638Y-40275000D01*
X143490677Y-40294685D01*
X143511319Y-40311319D01*
X144063681Y-40863681D01*
X144097166Y-40925004D01*
X144100000Y-40951362D01*
X144100000Y-43976000D01*
X144080315Y-44043039D01*
X144027511Y-44088794D01*
X143976000Y-44100000D01*
X141724000Y-44100000D01*
X141656961Y-44080315D01*
X141611206Y-44027511D01*
X141600000Y-43976000D01*
X141600000Y-43470469D01*
X141604208Y-43438441D01*
X141604212Y-43438422D01*
X141604715Y-43436548D01*
X141625501Y-43358977D01*
X141625501Y-43253523D01*
X141625501Y-43245928D01*
X141625500Y-43245910D01*
X141625500Y-43218302D01*
X141638099Y-43163842D01*
X141665573Y-43107643D01*
X141675500Y-43039510D01*
X141675500Y-41697990D01*
X141665573Y-41629857D01*
X141614198Y-41524767D01*
X141600000Y-41510569D01*
X141600000Y-41475000D01*
X141564431Y-41475000D01*
X141531483Y-41442052D01*
X141426393Y-41390677D01*
X141426391Y-41390676D01*
X141358261Y-41380750D01*
X141358260Y-41380750D01*
X141091740Y-41380750D01*
X141091739Y-41380750D01*
X141023607Y-41390676D01*
X141023606Y-41390676D01*
X140954459Y-41424480D01*
X140885586Y-41436238D01*
X140845541Y-41424480D01*
X140776393Y-41390676D01*
X140708261Y-41380750D01*
X140708260Y-41380750D01*
X140441740Y-41380750D01*
X140441739Y-41380750D01*
X140373607Y-41390676D01*
X140373606Y-41390676D01*
X140304459Y-41424480D01*
X140235586Y-41436238D01*
X140195541Y-41424480D01*
X140126393Y-41390676D01*
X140058261Y-41380750D01*
X140058260Y-41380750D01*
X139791740Y-41380750D01*
X139791739Y-41380750D01*
X139723607Y-41390676D01*
X139723606Y-41390676D01*
X139654459Y-41424480D01*
X139585586Y-41436238D01*
X139545541Y-41424480D01*
X139476393Y-41390676D01*
X139408261Y-41380750D01*
X139408260Y-41380750D01*
X139141740Y-41380750D01*
X139141739Y-41380750D01*
X139073607Y-41390676D01*
X139073606Y-41390676D01*
X139004459Y-41424480D01*
X138935586Y-41436238D01*
X138895541Y-41424480D01*
X138826393Y-41390676D01*
X138758261Y-41380750D01*
X138758260Y-41380750D01*
X138491740Y-41380750D01*
X138491739Y-41380750D01*
X138423608Y-41390676D01*
X138318513Y-41442054D01*
X138310153Y-41448023D01*
X138308645Y-41445911D01*
X138260564Y-41472166D01*
X138234206Y-41475000D01*
X137324000Y-41475000D01*
X137256961Y-41455315D01*
X137211206Y-41402511D01*
X137200000Y-41351000D01*
X137200000Y-36874500D01*
X137219685Y-36807461D01*
X137272489Y-36761706D01*
X137324000Y-36750500D01*
X140776000Y-36750500D01*
X140843039Y-36770185D01*
G37*
%TD.AperFunction*%
%TD*%
%TA.AperFunction,Conductor*%
%TO.N,Net-(Q9-S-Pad1)*%
G36*
X173743039Y-46969685D02*
G01*
X173788794Y-47022489D01*
X173800000Y-47074000D01*
X173800000Y-50933760D01*
X173780315Y-51000799D01*
X173764581Y-51020533D01*
X172645655Y-52162773D01*
X172584680Y-52196888D01*
X172557074Y-52200000D01*
X169461140Y-52200000D01*
X169394101Y-52180315D01*
X169385652Y-52174375D01*
X169382550Y-52171995D01*
X169382546Y-52171991D01*
X169345250Y-52150458D01*
X169257019Y-52099517D01*
X169257020Y-52099517D01*
X169238296Y-52094500D01*
X169117006Y-52062000D01*
X168972056Y-52062000D01*
X168850766Y-52094500D01*
X168832042Y-52099517D01*
X168706519Y-52171989D01*
X168703410Y-52174375D01*
X168700312Y-52175572D01*
X168699477Y-52176055D01*
X168699401Y-52175924D01*
X168638241Y-52199570D01*
X168627922Y-52200000D01*
X168083750Y-52200000D01*
X168016711Y-52180315D01*
X168010780Y-52175620D01*
X168010556Y-52175932D01*
X168003363Y-52170745D01*
X167915022Y-52124534D01*
X167915022Y-52124533D01*
X167847990Y-52104851D01*
X167847978Y-52104848D01*
X167776001Y-52094500D01*
X167776000Y-52094500D01*
X165886725Y-52094500D01*
X165819686Y-52074815D01*
X165773931Y-52022011D01*
X165763987Y-51952853D01*
X165767500Y-51928742D01*
X165767500Y-51371258D01*
X165757433Y-51302160D01*
X165712600Y-51210454D01*
X165700000Y-51155993D01*
X165700000Y-50024000D01*
X165719685Y-49956961D01*
X165772489Y-49911206D01*
X165824000Y-49900000D01*
X167625500Y-49900000D01*
X167692539Y-49919685D01*
X167738294Y-49972489D01*
X167749500Y-50023999D01*
X167749500Y-50164230D01*
X167749501Y-50164240D01*
X167755587Y-50220864D01*
X167786186Y-50302899D01*
X167803372Y-50348976D01*
X167885313Y-50458437D01*
X167994774Y-50540378D01*
X168122886Y-50588162D01*
X168179515Y-50594250D01*
X168720484Y-50594249D01*
X168777114Y-50588162D01*
X168905226Y-50540378D01*
X169014687Y-50458437D01*
X169096628Y-50348976D01*
X169108819Y-50316288D01*
X169150687Y-50260359D01*
X169216150Y-50235941D01*
X169284424Y-50250792D01*
X169333830Y-50300196D01*
X169341180Y-50316289D01*
X169353372Y-50348977D01*
X169363858Y-50362984D01*
X169435313Y-50458437D01*
X169544774Y-50540378D01*
X169672886Y-50588162D01*
X169729515Y-50594250D01*
X170270484Y-50594249D01*
X170327114Y-50588162D01*
X170455226Y-50540378D01*
X170564687Y-50458437D01*
X170646047Y-50349751D01*
X170701977Y-50307884D01*
X170771668Y-50302899D01*
X170807308Y-50316676D01*
X170887515Y-50362984D01*
X171027525Y-50400500D01*
X171027528Y-50400500D01*
X171172472Y-50400500D01*
X171172475Y-50400500D01*
X171312485Y-50362984D01*
X171438015Y-50290509D01*
X171540509Y-50188015D01*
X171612984Y-50062485D01*
X171650500Y-49922475D01*
X171650500Y-49777525D01*
X171612984Y-49637515D01*
X171540509Y-49511985D01*
X171438015Y-49409491D01*
X171438013Y-49409490D01*
X171438011Y-49409488D01*
X171312488Y-49337017D01*
X171312489Y-49337017D01*
X171301006Y-49333940D01*
X171172475Y-49299500D01*
X171165161Y-49299500D01*
X171149178Y-49294807D01*
X171132525Y-49295128D01*
X171116348Y-49285166D01*
X171098122Y-49279815D01*
X171087214Y-49267227D01*
X171073030Y-49258493D01*
X171064806Y-49241366D01*
X171052367Y-49227011D01*
X171049996Y-49210525D01*
X171042786Y-49195509D01*
X171045126Y-49176656D01*
X171042423Y-49157853D01*
X171049410Y-49142153D01*
X171051395Y-49126172D01*
X171069899Y-49096121D01*
X171099815Y-49060220D01*
X171140613Y-49028206D01*
X171156483Y-49020448D01*
X171239198Y-48937733D01*
X171290573Y-48832643D01*
X171300500Y-48764510D01*
X171300500Y-47422990D01*
X171290573Y-47354857D01*
X171239198Y-47249767D01*
X171239196Y-47249765D01*
X171239196Y-47249764D01*
X171151113Y-47161681D01*
X171117628Y-47100358D01*
X171122612Y-47030666D01*
X171164484Y-46974733D01*
X171229948Y-46950316D01*
X171238794Y-46950000D01*
X173676000Y-46950000D01*
X173743039Y-46969685D01*
G37*
%TD.AperFunction*%
%TD*%
%TA.AperFunction,Conductor*%
%TO.N,/Power/5V_IN*%
G36*
X164929165Y-61443487D02*
G01*
X164974981Y-61496237D01*
X164986246Y-61547352D01*
X164998895Y-64516142D01*
X164979496Y-64583264D01*
X164962622Y-64604306D01*
X163388986Y-66179555D01*
X163385713Y-66182714D01*
X163380237Y-66187806D01*
X163360722Y-66202003D01*
X163269382Y-66290876D01*
X163268396Y-66291834D01*
X163268377Y-66291853D01*
X161584361Y-67930354D01*
X161564672Y-67951826D01*
X161564669Y-67951830D01*
X161546974Y-67973484D01*
X161545744Y-67974998D01*
X161499951Y-68062540D01*
X161477802Y-68092699D01*
X160818884Y-68752294D01*
X160818883Y-68752296D01*
X160816285Y-69648786D01*
X160796407Y-69715769D01*
X160779968Y-69736108D01*
X160643520Y-69872557D01*
X160590793Y-69963880D01*
X160563500Y-70065743D01*
X160563500Y-70697354D01*
X160560049Y-70697354D01*
X160558199Y-70709189D01*
X160557185Y-70737047D01*
X160552882Y-70743234D01*
X160551719Y-70750681D01*
X160533208Y-70771526D01*
X160517295Y-70794411D01*
X160510331Y-70797289D01*
X160505327Y-70802925D01*
X160478485Y-70810453D01*
X160452725Y-70821102D01*
X160445309Y-70819758D01*
X160438053Y-70821794D01*
X160411402Y-70813616D01*
X160383974Y-70808647D01*
X160375662Y-70802648D01*
X160371258Y-70801297D01*
X160354997Y-70788497D01*
X160353414Y-70787021D01*
X160270913Y-70704520D01*
X160255199Y-70695447D01*
X160244871Y-70685817D01*
X160244581Y-70685327D01*
X160243482Y-70684501D01*
X160228694Y-70670279D01*
X160215159Y-70663191D01*
X160140381Y-70624030D01*
X160073362Y-70604317D01*
X160073356Y-70604316D01*
X160049930Y-70600936D01*
X160001371Y-70593932D01*
X160001374Y-70593932D01*
X158906997Y-70593432D01*
X158863721Y-70585614D01*
X158797482Y-70560908D01*
X158797483Y-70560908D01*
X158737883Y-70554501D01*
X158737881Y-70554500D01*
X158737873Y-70554500D01*
X158737864Y-70554500D01*
X153642129Y-70554500D01*
X153642123Y-70554501D01*
X153582518Y-70560908D01*
X153522931Y-70583132D01*
X153479543Y-70590949D01*
X152594234Y-70590544D01*
X152527204Y-70570829D01*
X152481473Y-70518004D01*
X152470292Y-70466340D01*
X152477368Y-66263256D01*
X152497166Y-66196254D01*
X152550047Y-66150588D01*
X152601116Y-66139469D01*
X160018419Y-66124471D01*
X160715266Y-65429089D01*
X160759912Y-65403347D01*
X160759073Y-65401320D01*
X160766581Y-65398208D01*
X160766588Y-65398207D01*
X160857913Y-65345480D01*
X161564573Y-64638818D01*
X161625896Y-64605334D01*
X161652254Y-64602500D01*
X161908736Y-64602500D01*
X161908742Y-64602500D01*
X161977840Y-64592433D01*
X162084429Y-64540324D01*
X162084430Y-64540323D01*
X162084432Y-64540322D01*
X162168322Y-64456432D01*
X162168323Y-64456430D01*
X162168324Y-64456429D01*
X162220433Y-64349840D01*
X162230500Y-64280742D01*
X162230500Y-64003258D01*
X162220433Y-63934160D01*
X162189780Y-63871460D01*
X162178020Y-63802590D01*
X162189781Y-63762538D01*
X162192871Y-63756218D01*
X162220433Y-63699840D01*
X162230500Y-63630742D01*
X162230500Y-63353258D01*
X162220433Y-63284160D01*
X162189780Y-63221460D01*
X162178020Y-63152590D01*
X162189781Y-63112538D01*
X162220433Y-63049840D01*
X162230500Y-62980742D01*
X162230500Y-62703258D01*
X162220433Y-62634160D01*
X162189780Y-62571460D01*
X162178020Y-62502590D01*
X162189781Y-62462538D01*
X162220433Y-62399840D01*
X162230500Y-62330742D01*
X162230500Y-62053258D01*
X162220433Y-61984160D01*
X162209851Y-61962515D01*
X162163811Y-61868340D01*
X162165696Y-61867418D01*
X162147147Y-61814024D01*
X162147000Y-61807980D01*
X162147000Y-61550896D01*
X162166685Y-61483857D01*
X162219489Y-61438102D01*
X162270852Y-61426896D01*
X164862105Y-61423880D01*
X164929165Y-61443487D01*
G37*
%TD.AperFunction*%
%TD*%
%TA.AperFunction,Conductor*%
%TO.N,GND*%
G36*
X146954212Y-59343248D02*
G01*
X147021134Y-59363330D01*
X147066575Y-59416404D01*
X147077472Y-59466099D01*
X147090008Y-60821539D01*
X147265695Y-60995847D01*
X147565673Y-60996257D01*
X147632682Y-61016032D01*
X147678365Y-61068899D01*
X147689500Y-61120256D01*
X147689500Y-61154678D01*
X147704032Y-61227735D01*
X147704033Y-61227739D01*
X147704034Y-61227740D01*
X147759399Y-61310601D01*
X147842260Y-61365966D01*
X147842264Y-61365967D01*
X147915321Y-61380499D01*
X147915324Y-61380500D01*
X147915326Y-61380500D01*
X148284676Y-61380500D01*
X148284677Y-61380499D01*
X148357740Y-61365966D01*
X148440601Y-61310601D01*
X148495966Y-61227740D01*
X148510500Y-61154674D01*
X148510500Y-61121718D01*
X148530185Y-61054679D01*
X148582989Y-61008924D01*
X148634665Y-60997718D01*
X150626470Y-61000442D01*
X150693480Y-61020218D01*
X150739163Y-61073085D01*
X150750289Y-61125936D01*
X150740028Y-61977717D01*
X150719537Y-62044514D01*
X150666186Y-62089630D01*
X150616012Y-62100223D01*
X144622737Y-62099011D01*
X144555701Y-62079313D01*
X144509957Y-62026500D01*
X144498762Y-61974666D01*
X144500454Y-61365967D01*
X144505768Y-59453127D01*
X144525639Y-59386145D01*
X144578570Y-59340537D01*
X144630502Y-59329476D01*
X146954212Y-59343248D01*
G37*
%TD.AperFunction*%
%TD*%
%TA.AperFunction,Conductor*%
%TO.N,GND*%
G36*
X160757539Y-71720185D02*
G01*
X160803294Y-71772989D01*
X160814500Y-71824500D01*
X160814500Y-72140226D01*
X160841793Y-72242086D01*
X160841794Y-72242089D01*
X160847887Y-72252642D01*
X160864500Y-72314642D01*
X160864500Y-72807356D01*
X160864502Y-72807382D01*
X160867413Y-72832487D01*
X160867415Y-72832491D01*
X160912793Y-72935264D01*
X160912794Y-72935265D01*
X160992235Y-73014706D01*
X161095009Y-73060085D01*
X161120135Y-73063000D01*
X161145498Y-73062999D01*
X161212536Y-73082681D01*
X161258293Y-73135484D01*
X161269500Y-73186999D01*
X161269500Y-79376000D01*
X161249815Y-79443039D01*
X161197011Y-79488794D01*
X161145500Y-79500000D01*
X159099544Y-79500000D01*
X159032505Y-79480315D01*
X159011863Y-79463681D01*
X158175510Y-78627328D01*
X158166488Y-78617264D01*
X157350000Y-77600000D01*
X157349998Y-77599999D01*
X157163758Y-77598599D01*
X157102692Y-77581991D01*
X157087788Y-77573386D01*
X156998644Y-77549500D01*
X154149000Y-77549500D01*
X154081961Y-77529815D01*
X154036206Y-77477011D01*
X154025000Y-77425500D01*
X154025000Y-73449000D01*
X154044685Y-73381961D01*
X154097489Y-73336206D01*
X154149000Y-73325000D01*
X159474999Y-73325000D01*
X159475000Y-73325000D01*
X160325000Y-72575000D01*
X160325000Y-72317755D01*
X160344685Y-72250716D01*
X160361319Y-72230074D01*
X160364062Y-72227331D01*
X160395480Y-72195913D01*
X160448207Y-72104587D01*
X160475500Y-72002727D01*
X160475500Y-71847197D01*
X160484144Y-71817756D01*
X160490668Y-71787770D01*
X160494422Y-71782754D01*
X160495185Y-71780158D01*
X160511819Y-71759516D01*
X160534516Y-71736819D01*
X160595839Y-71703334D01*
X160622197Y-71700500D01*
X160690500Y-71700500D01*
X160757539Y-71720185D01*
G37*
%TD.AperFunction*%
%TD*%
%TA.AperFunction,Conductor*%
%TO.N,Net-(Q6-S-Pad1)*%
G36*
X143543039Y-46019685D02*
G01*
X143588794Y-46072489D01*
X143600000Y-46124000D01*
X143600000Y-48457142D01*
X144249999Y-49200000D01*
X146376000Y-49200000D01*
X146443039Y-49219685D01*
X146488794Y-49272489D01*
X146500000Y-49324000D01*
X146500000Y-50976000D01*
X146480315Y-51043039D01*
X146427511Y-51088794D01*
X146376000Y-51100000D01*
X144809500Y-51100000D01*
X144742461Y-51080315D01*
X144696706Y-51027511D01*
X144685500Y-50976000D01*
X144685500Y-50571263D01*
X144685500Y-50571258D01*
X144675433Y-50502160D01*
X144623324Y-50395571D01*
X144623323Y-50395570D01*
X144623323Y-50395569D01*
X144539430Y-50311676D01*
X144432842Y-50259567D01*
X144415565Y-50257050D01*
X144363742Y-50249500D01*
X144086258Y-50249500D01*
X144040192Y-50256211D01*
X144017157Y-50259567D01*
X143910572Y-50311674D01*
X143902211Y-50317645D01*
X143900988Y-50315932D01*
X143858022Y-50340733D01*
X143835417Y-50346790D01*
X143835413Y-50346792D01*
X143763384Y-50388378D01*
X143750931Y-50395569D01*
X143744084Y-50399522D01*
X143079926Y-51063681D01*
X143018603Y-51097166D01*
X142992245Y-51100000D01*
X141724000Y-51100000D01*
X141656961Y-51080315D01*
X141611206Y-51027511D01*
X141600000Y-50976000D01*
X141600000Y-48995463D01*
X141612599Y-48941003D01*
X141614198Y-48937733D01*
X141665573Y-48832643D01*
X141675500Y-48764510D01*
X141675500Y-47422990D01*
X141665573Y-47354857D01*
X141614198Y-47249767D01*
X141612599Y-47246496D01*
X141600000Y-47192036D01*
X141600000Y-46299003D01*
X141608644Y-46269562D01*
X141615168Y-46239576D01*
X141618922Y-46234560D01*
X141619685Y-46231964D01*
X141636315Y-46211325D01*
X141811323Y-46036318D01*
X141872645Y-46002834D01*
X141899003Y-46000000D01*
X143476000Y-46000000D01*
X143543039Y-46019685D01*
G37*
%TD.AperFunction*%
%TD*%
%TA.AperFunction,Conductor*%
%TO.N,Net-(U11-VBUS)*%
G36*
X174692539Y-36770185D02*
G01*
X174738294Y-36822989D01*
X174749500Y-36874500D01*
X174749500Y-43751000D01*
X174729815Y-43818039D01*
X174677011Y-43863794D01*
X174625500Y-43875000D01*
X171462116Y-43875000D01*
X171395077Y-43855315D01*
X171349322Y-43802511D01*
X171339378Y-43733353D01*
X171354729Y-43688999D01*
X171359367Y-43680966D01*
X171396883Y-43540956D01*
X171396883Y-43396006D01*
X171359367Y-43255996D01*
X171308698Y-43168235D01*
X171292226Y-43100338D01*
X171293380Y-43088376D01*
X171300500Y-43039510D01*
X171300500Y-41697990D01*
X171290573Y-41629857D01*
X171239198Y-41524767D01*
X171239196Y-41524765D01*
X171239196Y-41524764D01*
X171156485Y-41442053D01*
X171051391Y-41390676D01*
X170983261Y-41380750D01*
X170983260Y-41380750D01*
X170716740Y-41380750D01*
X170691875Y-41384372D01*
X170622700Y-41374559D01*
X170569810Y-41328903D01*
X170550000Y-41261900D01*
X170550000Y-38269553D01*
X170569685Y-38202514D01*
X170622489Y-38156759D01*
X170691646Y-38146815D01*
X170751258Y-38155500D01*
X170751264Y-38155500D01*
X171308736Y-38155500D01*
X171308742Y-38155500D01*
X171377840Y-38145433D01*
X171484429Y-38093324D01*
X171484430Y-38093323D01*
X171484432Y-38093322D01*
X171568322Y-38009432D01*
X171568323Y-38009430D01*
X171568324Y-38009429D01*
X171620433Y-37902840D01*
X171630500Y-37833742D01*
X171630500Y-37743497D01*
X171650185Y-37676458D01*
X171702989Y-37630703D01*
X171722402Y-37623723D01*
X171762485Y-37612984D01*
X171888015Y-37540509D01*
X171990509Y-37438015D01*
X172062984Y-37312485D01*
X172100500Y-37172475D01*
X172100500Y-37027525D01*
X172068096Y-36906593D01*
X172069759Y-36836744D01*
X172108921Y-36778881D01*
X172173150Y-36751377D01*
X172187871Y-36750500D01*
X174625500Y-36750500D01*
X174692539Y-36770185D01*
G37*
%TD.AperFunction*%
%TD*%
%TA.AperFunction,Conductor*%
%TO.N,+BATT1*%
G36*
X148193039Y-36770185D02*
G01*
X148238794Y-36822989D01*
X148250000Y-36874500D01*
X148250000Y-37037435D01*
X148230315Y-37104474D01*
X148224790Y-37111329D01*
X148164034Y-37202260D01*
X148164032Y-37202264D01*
X148149500Y-37275321D01*
X148149500Y-40574678D01*
X148164032Y-40647735D01*
X148164033Y-40647739D01*
X148164034Y-40647740D01*
X148219399Y-40730601D01*
X148219400Y-40730601D01*
X148226185Y-40740756D01*
X148223373Y-40742634D01*
X148247166Y-40786206D01*
X148250000Y-40812564D01*
X148250000Y-41726000D01*
X148230315Y-41793039D01*
X148177511Y-41838794D01*
X148126000Y-41850000D01*
X144674000Y-41850000D01*
X144606961Y-41830315D01*
X144561206Y-41777511D01*
X144550000Y-41726000D01*
X144550000Y-40625000D01*
X143775000Y-39850000D01*
X141274000Y-39850000D01*
X141206961Y-39830315D01*
X141161206Y-39777511D01*
X141150000Y-39726000D01*
X141150000Y-39438389D01*
X144824500Y-39438389D01*
X144824500Y-39561610D01*
X144848535Y-39682444D01*
X144848538Y-39682454D01*
X144895687Y-39796283D01*
X144895692Y-39796292D01*
X144964141Y-39898732D01*
X144964144Y-39898736D01*
X145051263Y-39985855D01*
X145051267Y-39985858D01*
X145153707Y-40054307D01*
X145153713Y-40054310D01*
X145153714Y-40054311D01*
X145267548Y-40101463D01*
X145388389Y-40125499D01*
X145388393Y-40125500D01*
X145388394Y-40125500D01*
X145511607Y-40125500D01*
X145511608Y-40125499D01*
X145632452Y-40101463D01*
X145746286Y-40054311D01*
X145848733Y-39985858D01*
X145935858Y-39898733D01*
X146004311Y-39796286D01*
X146051463Y-39682452D01*
X146075500Y-39561606D01*
X146075500Y-39438394D01*
X146051463Y-39317548D01*
X146004311Y-39203714D01*
X146004310Y-39203713D01*
X146004307Y-39203707D01*
X145935858Y-39101267D01*
X145935855Y-39101263D01*
X145848736Y-39014144D01*
X145848732Y-39014141D01*
X145746292Y-38945692D01*
X145746283Y-38945687D01*
X145632454Y-38898538D01*
X145632455Y-38898538D01*
X145632452Y-38898537D01*
X145632448Y-38898536D01*
X145632444Y-38898535D01*
X145511610Y-38874500D01*
X145511606Y-38874500D01*
X145388394Y-38874500D01*
X145388389Y-38874500D01*
X145267555Y-38898535D01*
X145267545Y-38898538D01*
X145153716Y-38945687D01*
X145153707Y-38945692D01*
X145051267Y-39014141D01*
X145051263Y-39014144D01*
X144964144Y-39101263D01*
X144964141Y-39101267D01*
X144895692Y-39203707D01*
X144895687Y-39203716D01*
X144848538Y-39317545D01*
X144848535Y-39317555D01*
X144824500Y-39438389D01*
X141150000Y-39438389D01*
X141150000Y-39093198D01*
X141151262Y-39075551D01*
X141155500Y-39046076D01*
X141155500Y-36874500D01*
X141175185Y-36807461D01*
X141227989Y-36761706D01*
X141279500Y-36750500D01*
X148126000Y-36750500D01*
X148193039Y-36770185D01*
G37*
%TD.AperFunction*%
%TD*%
%TA.AperFunction,Conductor*%
%TO.N,SW_10V*%
G36*
X148051731Y-80724274D02*
G01*
X148118652Y-80744353D01*
X148164095Y-80797425D01*
X148175000Y-80848272D01*
X148175000Y-86607245D01*
X148155315Y-86674284D01*
X148138681Y-86694926D01*
X147854522Y-86979084D01*
X147854520Y-86979087D01*
X147820506Y-87038001D01*
X147769938Y-87086216D01*
X147713119Y-87100000D01*
X145333897Y-87100000D01*
X145266858Y-87080315D01*
X145259596Y-87075273D01*
X145167331Y-87006204D01*
X145167328Y-87006202D01*
X145032482Y-86955908D01*
X145032484Y-86955908D01*
X145011186Y-86953619D01*
X144946635Y-86926881D01*
X144936761Y-86918011D01*
X144136319Y-86117569D01*
X144102834Y-86056246D01*
X144100000Y-86029888D01*
X144100000Y-80825760D01*
X144119685Y-80758721D01*
X144172489Y-80712966D01*
X144224725Y-80701762D01*
X148051731Y-80724274D01*
G37*
%TD.AperFunction*%
%TD*%
%TA.AperFunction,Conductor*%
%TO.N,GND*%
G36*
X163329383Y-36770185D02*
G01*
X163375138Y-36822989D01*
X163386340Y-36875542D01*
X163384154Y-37135568D01*
X163367525Y-37190487D01*
X163368707Y-37190977D01*
X163364033Y-37202260D01*
X163349500Y-37275323D01*
X163349500Y-40574674D01*
X163352536Y-40589942D01*
X163354913Y-40615168D01*
X163350000Y-41200000D01*
X163537435Y-41200000D01*
X163604474Y-41219685D01*
X163611329Y-41225209D01*
X163619399Y-41230601D01*
X163702260Y-41285966D01*
X163702263Y-41285966D01*
X163702264Y-41285967D01*
X163775321Y-41300499D01*
X163775324Y-41300500D01*
X163775326Y-41300500D01*
X164924676Y-41300500D01*
X164924677Y-41300499D01*
X164997740Y-41285966D01*
X165080601Y-41230601D01*
X165080600Y-41230601D01*
X165090756Y-41223816D01*
X165092634Y-41226626D01*
X165136207Y-41202834D01*
X165162565Y-41200000D01*
X165626000Y-41200000D01*
X165693039Y-41219685D01*
X165738794Y-41272489D01*
X165750000Y-41324000D01*
X165750000Y-43426000D01*
X165730315Y-43493039D01*
X165677511Y-43538794D01*
X165626000Y-43550000D01*
X159074000Y-43550000D01*
X159006961Y-43530315D01*
X158961206Y-43477511D01*
X158950000Y-43426000D01*
X158950000Y-41324000D01*
X158969685Y-41256961D01*
X159022489Y-41211206D01*
X159074000Y-41200000D01*
X159537435Y-41200000D01*
X159604474Y-41219685D01*
X159611329Y-41225209D01*
X159619399Y-41230601D01*
X159702260Y-41285966D01*
X159702263Y-41285966D01*
X159702264Y-41285967D01*
X159775321Y-41300499D01*
X159775324Y-41300500D01*
X159775326Y-41300500D01*
X160924676Y-41300500D01*
X160924677Y-41300499D01*
X160997740Y-41285966D01*
X161080601Y-41230601D01*
X161080600Y-41230601D01*
X161090756Y-41223816D01*
X161092634Y-41226626D01*
X161136207Y-41202834D01*
X161162565Y-41200000D01*
X161300000Y-41200000D01*
X161300000Y-40739181D01*
X161319685Y-40672142D01*
X161320856Y-40670352D01*
X161335966Y-40647740D01*
X161350500Y-40574674D01*
X161350500Y-37275326D01*
X161350500Y-37275323D01*
X161335966Y-37202259D01*
X161320897Y-37179706D01*
X161315247Y-37161661D01*
X161305023Y-37145752D01*
X161300570Y-37114787D01*
X161300020Y-37113028D01*
X161300000Y-37110817D01*
X161300000Y-36874500D01*
X161319685Y-36807461D01*
X161372489Y-36761706D01*
X161424000Y-36750500D01*
X163262344Y-36750500D01*
X163329383Y-36770185D01*
G37*
%TD.AperFunction*%
%TD*%
%TA.AperFunction,Conductor*%
%TO.N,5V_OUT*%
G36*
X163293513Y-71444685D02*
G01*
X163339268Y-71497489D01*
X163350473Y-71548525D01*
X163355296Y-72807368D01*
X163373112Y-77457167D01*
X165192461Y-79444456D01*
X165223210Y-79507195D01*
X165225000Y-79528187D01*
X165225000Y-82201000D01*
X165205315Y-82268039D01*
X165152511Y-82313794D01*
X165101000Y-82325000D01*
X163107833Y-82325000D01*
X163040794Y-82305315D01*
X162995039Y-82252511D01*
X162985095Y-82183353D01*
X162988055Y-82168917D01*
X163000500Y-82122475D01*
X163000500Y-81977525D01*
X162962984Y-81837515D01*
X162890509Y-81711985D01*
X162885499Y-81706975D01*
X162852014Y-81645652D01*
X162856998Y-81575960D01*
X162861774Y-81564846D01*
X162880573Y-81526393D01*
X162890500Y-81458260D01*
X162890500Y-80116740D01*
X162880573Y-80048607D01*
X162829198Y-79943517D01*
X162829196Y-79943515D01*
X162829196Y-79943514D01*
X162746485Y-79860803D01*
X162641391Y-79809426D01*
X162573261Y-79799500D01*
X162573260Y-79799500D01*
X162306740Y-79799500D01*
X162306739Y-79799500D01*
X162238607Y-79809426D01*
X162238606Y-79809426D01*
X162169459Y-79843230D01*
X162100586Y-79854988D01*
X162060541Y-79843230D01*
X161991393Y-79809426D01*
X161923261Y-79799500D01*
X161923260Y-79799500D01*
X161656740Y-79799500D01*
X161652253Y-79799500D01*
X161652253Y-79798181D01*
X161589651Y-79784610D01*
X161540210Y-79735240D01*
X161525000Y-79675735D01*
X161525000Y-72943769D01*
X161535565Y-72893684D01*
X161562585Y-72832491D01*
X161565500Y-72807365D01*
X161565499Y-72314642D01*
X161582114Y-72252640D01*
X161588206Y-72242088D01*
X161588207Y-72242087D01*
X161615500Y-72140227D01*
X161615500Y-71549000D01*
X161635185Y-71481961D01*
X161687989Y-71436206D01*
X161739500Y-71425000D01*
X163226474Y-71425000D01*
X163293513Y-71444685D01*
G37*
%TD.AperFunction*%
%TD*%
M02*
