M48
; DRILL file {KiCad 9.0.3} date 2025-07-15T16:25:50+0100
; FORMAT={-:-/ absolute / metric / decimal}
; #@! TF.CreationDate,2025-07-15T16:25:50+01:00
; #@! TF.GenerationSoftware,Kicad,Pcbnew,9.0.3
; #@! TF.FileFunction,Plated,1,4,PTH
FMAT,2
METRIC
; #@! TA.AperFunction,Plated,PTH,ViaDrill
T1C0.300
; #@! TA.AperFunction,Plated,PTH,ComponentDrill
T2C0.750
; #@! TA.AperFunction,Plated,PTH,ComponentDrill
T3C0.900
; #@! TA.AperFunction,Plated,PTH,ComponentDrill
T4C1.020
; #@! TA.AperFunction,Plated,PTH,ComponentDrill
T5C2.000
%
G90
G05
T1
X137.35Y-145.1
X137.45Y-87.3
X137.45Y-123.05
X137.75Y-137.85
X137.8Y-141.75
X137.831Y-57.725
X137.95Y-53.675
X137.975Y-69.225
X138.1Y-51.7
X138.625Y-46.806
X138.7Y-135.55
X138.75Y-140.0
X138.825Y-50.856
X139.347Y-43.606
X139.55Y-39.6
X139.65Y-45.4
X139.75Y-144.4
X139.8Y-53.8
X139.925Y-46.9
X140.075Y-122.8
X140.167Y-43.775
X140.25Y-68.6
X140.25Y-69.875
X140.375Y-50.781
X140.5Y-131.25
X140.5Y-139.5
X140.5Y-141.9
X141.525Y-77.9
X142.05Y-120.05
X142.3Y-107.85
X142.3Y-111.65
X142.3Y-142.3
X142.375Y-66.5
X142.375Y-67.65
X142.55Y-132.0
X142.75Y-103.95
X143.45Y-107.85
X143.5Y-66.5
X143.5Y-67.65
X143.75Y-69.9
X144.4Y-135.7
X144.405Y-106.295
X144.45Y-123.55
X144.5Y-55.325
X144.5Y-140.2
X144.65Y-142.2
X144.7Y-112.85
X144.75Y-46.1
X144.8Y-47.9
X144.892Y-59.746
X144.892Y-60.446
X145.7Y-87.675
X145.7Y-88.4
X145.704Y-59.743
X145.704Y-60.443
X145.725Y-105.75
X145.725Y-106.625
X145.875Y-121.975
X145.875Y-122.95
X146.469Y-59.751
X146.525Y-66.475
X146.525Y-67.625
X146.55Y-139.5
X146.6Y-142.2
X146.8Y-120.625
X146.8Y-137.35
X146.825Y-71.5
X146.825Y-125.7
X146.825Y-128.15
X146.875Y-129.9
X147.65Y-66.475
X147.65Y-67.625
X147.675Y-70.425
X147.7Y-68.9
X147.9Y-143.3
X147.975Y-105.65
X148.15Y-87.75
X148.15Y-88.64
X148.2Y-136.6
X148.425Y-129.9
X148.45Y-109.925
X148.6Y-142.1
X148.625Y-125.7
X148.775Y-66.475
X148.775Y-67.625
X148.8Y-91.85
X149.0Y-113.35
X149.15Y-41.45
X149.5Y-89.325
X149.6Y-138.862
X149.65Y-135.8
X149.75Y-59.75
X149.75Y-60.45
X149.825Y-111.025
X149.9Y-66.475
X149.9Y-67.625
X149.975Y-129.9
X150.0Y-143.8
X150.4Y-117.9
X150.45Y-113.425
X150.575Y-99.675
X150.575Y-138.838
X150.775Y-90.375
X151.0Y-122.65
X151.15Y-41.45
X151.15Y-108.35
X151.325Y-125.85
X151.525Y-127.95
X151.525Y-129.9
X151.575Y-90.375
X151.6Y-139.7
X151.7Y-112.075
X151.7Y-144.75
X151.775Y-117.225
X151.9Y-142.8
X151.986Y-125.262
X152.225Y-84.4
X152.45Y-110.325
X152.45Y-127.75
X152.6Y-104.95
X152.625Y-117.175
X152.7Y-112.075
X152.8Y-109.525
X153.25Y-99.65
X153.55Y-113.55
X153.699Y-64.043
X153.725Y-62.175
X154.0Y-127.75
X154.25Y-99.659
X154.55Y-73.85
X154.55Y-74.9
X154.55Y-75.975
X154.55Y-77.025
X154.675Y-117.95
X154.825Y-80.6
X154.94Y-78.684
X154.975Y-105.375
X155.3Y-99.659
X155.425Y-111.975
X155.533Y-64.135
X155.55Y-73.85
X155.55Y-74.9
X155.55Y-75.975
X155.55Y-77.025
X156.163Y-110.8
X156.35Y-99.641
X156.575Y-73.85
X156.575Y-74.9
X156.575Y-75.975
X156.575Y-77.025
X156.725Y-91.775
X156.8Y-127.3
X156.975Y-79.225
X157.025Y-38.35
X157.35Y-99.65
X157.425Y-75.4
X157.475Y-113.6
X157.575Y-55.125
X157.8Y-56.2
X157.8Y-56.975
X157.8Y-57.75
X158.1Y-92.125
X158.15Y-125.85
X158.161Y-121.118
X158.4Y-99.65
X158.425Y-75.4
X158.45Y-77.5
X158.45Y-106.475
X158.465Y-121.858
X158.575Y-57.75
X158.625Y-120.375
X158.8Y-56.7
X159.075Y-90.325
X159.35Y-99.65
X159.4Y-41.7
X159.4Y-43.1
X159.4Y-57.775
X159.45Y-75.4
X159.475Y-77.5
X159.575Y-88.3
X159.8Y-56.7
X159.875Y-82.3
X160.0Y-110.9
X160.125Y-119.612
X160.25Y-57.775
X160.3Y-116.575
X160.325Y-118.125
X160.975Y-55.125
X160.975Y-56.15
X160.975Y-57.175
X160.975Y-58.2
X160.975Y-59.225
X161.1Y-109.3
X161.125Y-82.05
X161.15Y-41.7
X161.15Y-43.1
X161.525Y-89.375
X161.775Y-82.075
X161.775Y-85.475
X162.3Y-89.4
X162.35Y-41.4
X162.45Y-82.05
X163.2Y-129.8
X163.4Y-41.7
X163.4Y-43.1
X163.46Y-130.85
X163.61Y-139.525
X163.65Y-82.975
X163.9Y-66.75
X163.9Y-67.65
X163.9Y-68.5
X164.46Y-130.85
X164.475Y-129.725
X164.485Y-143.975
X164.75Y-66.75
X164.75Y-67.65
X164.75Y-68.5
X164.835Y-50.9
X165.235Y-132.625
X165.3Y-41.7
X165.3Y-43.1
X165.45Y-82.875
X165.45Y-84.55
X165.557Y-56.1
X165.76Y-144.025
X165.775Y-90.1
X165.785Y-139.825
X165.975Y-124.375
X166.025Y-99.025
X166.1Y-60.3
X166.3Y-46.1
X166.75Y-91.275
X166.775Y-109.45
X166.775Y-111.425
X166.775Y-127.25
X166.775Y-129.225
X166.8Y-71.45
X166.85Y-47.9
X167.2Y-64.7
X167.535Y-144.1
X167.55Y-42.35
X167.635Y-139.8
X167.65Y-49.25
X168.25Y-45.7
X168.55Y-69.15
X168.91Y-143.8
X169.045Y-52.612
X169.05Y-63.55
X169.55Y-43.5
X169.55Y-46.75
X169.7Y-130.775
X170.635Y-61.5
X170.846Y-43.468
X171.1Y-49.85
X171.55Y-37.1
X171.585Y-61.45
X171.735Y-54.552
X171.75Y-83.825
X172.175Y-84.25
X172.56Y-138.95
X172.885Y-64.7
X172.951Y-63.903
X173.05Y-94.15
X173.05Y-96.125
X173.05Y-101.85
X173.05Y-103.825
X173.05Y-114.55
X173.05Y-116.525
X173.05Y-119.625
X173.05Y-121.6
X173.41Y-56.877
X173.55Y-53.05
X174.05Y-129.55
X174.16Y-58.45
T2
X156.6Y-139.425
X158.6Y-139.425
T3
X140.0Y-108.25
X140.0Y-111.25
T4
X168.63Y-79.97
X168.63Y-82.51
X168.63Y-85.05
X168.63Y-87.59
X168.63Y-90.13
X168.63Y-92.67
X168.63Y-95.21
X168.63Y-97.75
X168.63Y-100.29
X168.63Y-102.83
X168.63Y-105.37
X168.63Y-107.91
X168.63Y-110.45
X168.63Y-112.99
X168.63Y-115.53
X168.63Y-118.07
X168.63Y-120.61
X168.63Y-123.15
X168.63Y-125.69
X168.63Y-128.23
X171.17Y-79.97
X171.17Y-82.51
X171.17Y-85.05
X171.17Y-87.59
X171.17Y-90.13
X171.17Y-92.67
X171.17Y-95.21
X171.17Y-97.75
X171.17Y-100.29
X171.17Y-102.83
X171.17Y-105.37
X171.17Y-107.91
X171.17Y-110.45
X171.17Y-112.99
X171.17Y-115.53
X171.17Y-118.07
X171.17Y-120.61
X171.17Y-123.15
X171.17Y-125.69
X171.17Y-128.23
T5
X169.9Y-83.78
X169.9Y-124.42
M30
