#VRML V2.0 utf8
# 3D model generated by easyeda2kicad.py (https://github.com/uPesy/easyeda2kicad.py)

Shape{
    appearance Appearance {
        material  Material 	{
            diffuseColor 0.8117647058823529 0.8117647058823529 0.8117647058823529
            specularColor 0.7529411764705882 0.7529411764705882 0.7529411764705882
            ambientIntensity 0.2
            transparency 0
            shininess 0.5
        }
    }
    geometry IndexedFaceSet {
        ccw TRUE
        solid FALSE
        coord DEF co Coordinate {
            point [
                2.5 1.2141 2.5092, 2.5 1.1614 2.5197, 2.5 1.1614 2.4213, 2.5 1.1811 2.416, 2.5 1.2589 2.4793, 2.5 -1.2141 2.5092, 2.5 -1.1811 2.416, 2.5 -1.1614 2.4213, 2.5 -1.1955 2.4016, 2.5 -1.2992 2.3819, 2.5 -1.2008 2.3819, 2.5 -1.2887 2.4346, 2.5 -1.2589 2.4793, 2.5 -1.2008 0.6693, 2.5 -1.2992 0.6693, 2.5 1.1955 2.4016, 2.5 1.2992 2.3819, 2.5 1.2887 2.4346, 2.5 -1.1614 2.5197, 2.5 1.2992 0.7087, 2.5 1.2008 2.3819, 2.5 1.2008 0.7087, 2.4654 1.2008 0.6251, 2.4654 1.2992 0.6251, 2.491 1.2992 0.6635, 2.491 1.2008 0.6635, 2.4271 1.2008 0.5995, 2.4271 1.2992 0.5995, 2.3819 1.2008 0.5906, 2.3819 1.2992 0.5906, 0.0 1.2992 1.7323, -2.5 1.2992 2.3819, -2.3425 1.2992 0.5906, -2.5 1.2992 0.8268, -2.0251 1.2992 0.8161, 0.4134 1.2992 0.5906, 0.3299 1.2992 0.6251, 0.3043 1.2992 0.6635, 0.3682 1.2992 0.5995, 2.0251 1.2992 0.8161, 0.844 1.2992 0.8161, -0.3299 1.2992 0.6251, -0.3682 1.2992 0.5995, -0.4134 1.2992 0.5906, 0.2953 1.2992 0.7087, -0.3043 1.2992 0.6635, -0.844 1.2992 0.8161, -0.2088 1.2992 1.6458, -2.0251 1.2992 1.4067, -0.1476 1.2992 1.6927, 0.844 1.2992 1.4067, 0.2852 1.2992 1.5134, 0.2557 1.2992 1.5846, 2.0251 1.2992 1.4067, 0.2088 1.2992 1.6458, 0.1476 1.2992 1.6927, 0.0764 1.2992 1.7222, -0.0764 1.2992 1.7222, -0.2557 1.2992 1.5846, -0.2852 1.2992 1.5134, -0.844 1.2992 1.4067, -0.2953 1.2992 1.437, -0.2953 1.2992 0.7087, 0.2953 1.2992 1.437, -0.844 1.2008 0.8161, -2.0251 1.2008 0.8161, -2.0251 1.2008 1.4067, -0.2852 1.2008 1.5134, -0.2557 1.2008 1.5846, -0.844 1.2008 1.4067, 0.3299 1.2008 0.6251, 0.3682 1.2008 0.5995, 0.4134 1.2008 0.5906, -2.5 1.2008 2.3819, -2.5 1.2008 0.8268, 0.0764 1.2008 1.7222, 0.1476 1.2008 1.6927, -0.1476 1.2008 1.6927, -0.2088 1.2008 1.6458, -0.0764 1.2008 1.7222, -0.0 1.2008 1.7323, 0.844 1.2008 1.4067, 0.2088 1.2008 1.6458, 0.2557 1.2008 1.5846, 0.844 1.2008 0.8161, 2.0251 1.2008 0.8161, 0.2953 1.2008 1.437, -2.3425 1.2008 0.5906, -0.4134 1.2008 0.5906, 0.3043 1.2008 0.6635, -0.3299 1.2008 0.6251, -0.3682 1.2008 0.5995, -0.3043 1.2008 0.6635, 0.2852 1.2008 1.5134, 0.2953 1.2008 0.7087, 2.0251 1.2008 1.4067, -0.2953 1.2008 0.7087, -0.2953 1.2008 1.437, -2.5 1.2589 2.4793, -2.5 1.2887 2.4346, -2.5 1.1811 2.416, -2.5 1.1955 2.4016, -2.5 -1.2992 2.3819, -2.5 -1.1955 2.4016, -2.5 -1.2008 2.3819, -2.5 1.1614 2.4213, -2.5 1.2141 2.5092, -2.5 1.1614 2.5197, -2.5 -1.1811 2.416, -2.5 -1.2589 2.4793, -2.5 -1.1614 2.4213, -2.5 -1.2887 2.4346, -2.5 -1.2992 0.7874, -2.5 -1.2008 0.7874, -2.5 -1.2141 2.5092, -2.5 -1.1614 2.5197, 1.2402 -0.7874 2.5197, -1.2441 0.7677 2.5197, -1.2441 -0.7677 2.5197, 1.2402 0.7874 2.5197, -1.2402 -0.7874 2.5197, -1.2402 0.7677 2.5197, -1.2402 0.7874 2.5197, -1.2402 -0.7677 2.5197, -2.0251 -1.2992 1.4067, 0.3299 -1.2992 0.5858, 0.3682 -1.2992 0.5602, 0.4134 -1.2992 0.5512, -2.0251 -1.2992 0.8161, 0.0764 -1.2992 1.7222, 0.1476 -1.2992 1.6927, -0.1476 -1.2992 1.6927, -0.2088 -1.2992 1.6458, -0.844 -1.2992 1.4067, -0.0764 -1.2992 1.7222, -0.0 -1.2992 1.7323, 0.2088 -1.2992 1.6458, 2.0251 -1.2992 1.4067, 0.844 -1.2992 0.8161, 2.3819 -1.2992 0.5512, 2.0251 -1.2992 0.8161, 0.2953 -1.2992 1.437, 0.844 -1.2992 1.4067, 2.4654 -1.2992 0.5858, 2.491 -1.2992 0.6241, -2.3425 -1.2992 0.5512, -0.4134 -1.2992 0.5512, -0.844 -1.2992 0.8161, 0.2953 -1.2992 0.6693, 0.3043 -1.2992 0.6241, -0.3299 -1.2992 0.5858, -0.3682 -1.2992 0.5602, 2.4271 -1.2992 0.5602, -0.2953 -1.2992 0.6693, 0.2852 -1.2992 1.5134, 0.2557 -1.2992 1.5846, -0.2557 -1.2992 1.5846, -0.2852 -1.2992 1.5134, -0.3043 -1.2992 0.6241, -0.2953 -1.2992 1.437, -0.844 -1.2008 0.8161, -2.0251 -1.2008 0.8161, 0.0 -1.2008 1.7323, -2.3425 -1.2008 0.5512, 0.4134 -1.2008 0.5512, 0.3299 -1.2008 0.5858, 0.3043 -1.2008 0.6241, 2.3819 -1.2008 0.5512, 2.4654 -1.2008 0.5858, 2.4271 -1.2008 0.5602, 0.3682 -1.2008 0.5602, 2.491 -1.2008 0.6241, 0.2953 -1.2008 0.6693, 0.844 -1.2008 0.8161, -0.3299 -1.2008 0.5858, -0.3682 -1.2008 0.5602, -0.4134 -1.2008 0.5512, -0.2953 -1.2008 0.6693, -0.3043 -1.2008 0.6241, -2.0251 -1.2008 1.4067, -0.1476 -1.2008 1.6927, -0.2088 -1.2008 1.6458, 0.844 -1.2008 1.4067, 0.2852 -1.2008 1.5134, 0.2557 -1.2008 1.5846, 2.0251 -1.2008 1.4067, 0.2088 -1.2008 1.6458, 2.0251 -1.2008 0.8161, 0.1476 -1.2008 1.6927, 0.0764 -1.2008 1.7222, -0.0764 -1.2008 1.7222, -0.2557 -1.2008 1.5846, -0.2852 -1.2008 1.5134, -0.844 -1.2008 1.4067, -0.2953 -1.2008 1.437, 0.2953 -1.2008 1.437, 1.4152 0.8829 2.4213, -1.4152 -0.8829 2.4213, -1.4152 0.8829 2.4213, 1.4152 -0.8829 2.4213, -1.2402 -0.7874 2.4409, -1.2402 -0.7677 2.4409, -1.2402 0.7677 2.4409, -1.2402 0.7874 2.4409, 1.2402 0.7874 2.4409, 1.2402 -0.7874 2.4409, 1.2402 -0.7874 2.4409
            ]
        }
        coordIndex [
            0,1,2,-1,0,3,4,-1,3,0,2,-1,5,6,7,-1,8,9,10,-1,6,11,8,-1,8,11,9,-1,12,11,6,-1,9,13,10,-1,9,14,13,-1,15,16,17,-1,12,6,5,-1,18,7,2,-1,5,7,18,-1,18,2,1,-1,17,3,15,-1,4,3,17,-1,19,16,20,-1,16,15,20,-1,20,21,19,-1,22,23,24,-1,19,25,24,-1,22,24,25,-1,21,25,19,-1,26,23,22,-1,27,26,28,-1,26,27,23,-1,27,28,29,-1,16,30,31,-1,32,33,34,-1,35,36,37,-1,29,23,27,-1,35,38,36,-1,29,39,24,-1,24,23,29,-1,40,35,37,-1,41,42,43,-1,35,40,29,-1,40,37,44,-1,45,43,46,-1,47,48,49,-1,50,51,52,-1,19,53,16,-1,50,54,53,-1,53,19,39,-1,16,53,55,-1,54,55,53,-1,16,56,30,-1,16,55,56,-1,31,57,49,-1,31,30,57,-1,58,59,60,-1,58,60,47,-1,46,60,61,-1,48,47,60,-1,33,48,34,-1,32,34,46,-1,43,45,41,-1,61,62,46,-1,43,32,46,-1,46,62,45,-1,61,60,59,-1,49,48,31,-1,33,31,48,-1,39,19,24,-1,50,40,63,-1,51,50,63,-1,50,52,54,-1,40,39,29,-1,63,40,44,-1,34,64,46,-1,64,34,65,-1,48,66,65,-1,48,65,34,-1,67,68,69,-1,70,71,72,-1,73,74,66,-1,75,76,20,-1,77,66,78,-1,69,78,66,-1,73,77,79,-1,73,66,77,-1,73,80,20,-1,80,73,79,-1,80,75,20,-1,81,82,83,-1,84,28,85,-1,86,84,81,-1,28,22,25,-1,21,85,25,-1,87,88,64,-1,84,89,72,-1,70,72,89,-1,90,88,91,-1,28,25,85,-1,28,26,22,-1,64,88,92,-1,86,81,93,-1,86,94,84,-1,81,83,93,-1,76,82,95,-1,87,65,74,-1,64,92,96,-1,90,92,88,-1,96,97,64,-1,87,64,65,-1,66,74,65,-1,69,68,78,-1,64,97,69,-1,67,69,97,-1,21,20,95,-1,20,76,95,-1,84,72,28,-1,21,95,85,-1,84,94,89,-1,95,82,81,-1,46,69,60,-1,69,46,64,-1,60,66,48,-1,66,60,69,-1,39,95,53,-1,95,39,85,-1,40,84,85,-1,40,85,39,-1,50,84,40,-1,84,50,81,-1,53,81,50,-1,81,53,95,-1,61,97,96,-1,61,96,62,-1,30,75,80,-1,76,75,56,-1,30,56,75,-1,76,55,82,-1,55,76,56,-1,54,83,82,-1,82,55,54,-1,93,83,52,-1,54,52,83,-1,51,63,86,-1,51,93,52,-1,93,51,86,-1,30,80,57,-1,57,79,49,-1,79,57,80,-1,77,47,49,-1,49,79,77,-1,58,47,78,-1,77,78,47,-1,58,68,59,-1,68,58,78,-1,67,61,59,-1,59,68,67,-1,67,97,61,-1,44,86,63,-1,86,44,94,-1,88,32,43,-1,32,88,87,-1,35,29,28,-1,35,28,72,-1,74,32,87,-1,32,74,33,-1,98,99,100,-1,99,101,100,-1,102,103,104,-1,100,105,98,-1,98,105,106,-1,106,105,107,-1,108,109,110,-1,103,102,111,-1,108,111,109,-1,104,112,102,-1,104,113,112,-1,114,110,109,-1,103,111,108,-1,114,115,110,-1,115,107,110,-1,110,107,105,-1,101,31,73,-1,31,101,99,-1,73,31,74,-1,74,31,33,-1,98,4,17,-1,16,99,17,-1,98,17,99,-1,31,99,16,-1,106,4,98,-1,0,106,107,-1,106,0,4,-1,0,107,1,-1,115,18,116,-1,117,115,118,-1,119,116,1,-1,115,116,120,-1,117,121,122,-1,115,117,107,-1,1,107,122,-1,117,122,107,-1,122,119,1,-1,1,116,18,-1,118,120,123,-1,118,115,120,-1,109,12,5,-1,18,114,5,-1,109,5,114,-1,115,114,18,-1,111,12,109,-1,11,111,102,-1,111,11,12,-1,11,102,9,-1,124,102,112,-1,125,126,127,-1,128,124,112,-1,129,130,9,-1,131,124,132,-1,133,132,124,-1,102,131,134,-1,102,124,131,-1,102,135,9,-1,135,102,134,-1,135,129,9,-1,130,136,137,-1,138,139,140,-1,141,138,142,-1,139,143,144,-1,144,14,139,-1,145,146,147,-1,127,148,149,-1,125,127,149,-1,150,146,151,-1,140,139,14,-1,139,152,143,-1,153,147,146,-1,141,142,154,-1,141,148,138,-1,142,155,154,-1,155,142,136,-1,156,133,157,-1,153,146,158,-1,150,158,146,-1,147,128,145,-1,153,159,147,-1,145,128,112,-1,133,156,132,-1,147,159,133,-1,157,133,159,-1,14,9,137,-1,9,130,137,-1,138,127,139,-1,14,137,140,-1,127,138,148,-1,137,136,142,-1,128,160,161,-1,128,147,160,-1,10,162,104,-1,163,113,161,-1,164,165,166,-1,167,168,169,-1,164,170,165,-1,171,167,13,-1,171,168,167,-1,172,173,164,-1,174,175,176,-1,164,173,167,-1,172,164,166,-1,177,178,176,-1,179,180,181,-1,182,183,184,-1,13,185,10,-1,182,186,185,-1,185,13,187,-1,10,185,188,-1,186,188,185,-1,10,189,162,-1,10,188,189,-1,104,190,180,-1,104,162,190,-1,191,192,193,-1,191,193,181,-1,160,193,194,-1,181,193,179,-1,179,104,180,-1,163,161,160,-1,176,178,174,-1,194,177,160,-1,176,163,160,-1,176,160,177,-1,194,193,192,-1,179,161,113,-1,113,104,179,-1,167,187,13,-1,182,173,195,-1,183,182,195,-1,182,184,186,-1,173,187,167,-1,195,173,172,-1,124,161,179,-1,124,128,161,-1,133,179,193,-1,133,124,179,-1,147,193,160,-1,147,133,193,-1,140,185,187,-1,140,137,185,-1,137,182,185,-1,137,142,182,-1,142,173,182,-1,142,138,173,-1,138,187,173,-1,138,140,187,-1,159,153,177,-1,177,194,159,-1,162,129,135,-1,130,129,189,-1,162,189,129,-1,130,188,136,-1,188,130,189,-1,186,155,136,-1,136,188,186,-1,154,155,184,-1,186,184,155,-1,154,183,141,-1,183,154,184,-1,141,183,195,-1,190,162,135,-1,190,134,180,-1,134,190,135,-1,131,181,180,-1,180,134,131,-1,191,181,132,-1,131,132,181,-1,191,156,192,-1,156,191,132,-1,157,194,192,-1,192,156,157,-1,157,159,194,-1,195,148,141,-1,195,172,148,-1,146,163,176,-1,163,146,145,-1,164,167,139,-1,164,139,127,-1,112,163,145,-1,163,112,113,-1,143,168,171,-1,13,144,171,-1,143,171,144,-1,14,144,13,-1,152,168,143,-1,169,152,139,-1,152,169,168,-1,169,139,167,-1,108,110,7,-1,104,8,10,-1,103,6,8,-1,108,6,103,-1,104,103,8,-1,7,6,108,-1,105,2,196,-1,197,105,198,-1,199,196,7,-1,105,196,198,-1,7,110,197,-1,105,197,110,-1,7,197,199,-1,7,196,2,-1,101,73,20,-1,105,3,2,-1,100,15,3,-1,101,15,100,-1,105,100,3,-1,20,15,101,-1,200,123,120,-1,200,201,123,-1,122,121,202,-1,202,203,122,-1,119,203,204,-1,119,122,203,-1,116,204,205,-1,116,119,204,-1,120,205,200,-1,120,116,205,-1,
        ]
    }
}
Shape{
    appearance Appearance {
        material  Material 	{
            diffuseColor 0.2549019607843137 0.2549019607843137 0.2549019607843137
            specularColor 0.7529411764705882 0.7529411764705882 0.7529411764705882
            ambientIntensity 0.2
            transparency 0
            shininess 0.5
        }
    }
    geometry IndexedFaceSet {
        ccw TRUE
        solid FALSE
        coord DEF co Coordinate {
            point [
                -0.3299 1.2992 0.6251, -0.3299 1.2008 0.6251, -0.3682 1.2008 0.5995, -0.4134 1.2008 0.5906, -0.3682 1.2992 0.5995, -0.4134 1.2992 0.5906, -0.3043 1.2992 0.6635, -0.3043 1.2008 0.6635, -0.2953 1.2992 0.7087, -0.2953 1.2008 0.7087, 0.3299 1.2008 0.6251, 0.3299 1.2992 0.6251, 0.3682 1.2992 0.5995, 0.4134 1.2992 0.5906, 0.3682 1.2008 0.5995, 0.4134 1.2008 0.5906, 0.3043 1.2008 0.6635, 0.3043 1.2992 0.6635, 0.2953 1.2008 0.7087, 0.2953 1.2992 0.7087, -0.3299 -1.2008 0.5858, -0.3299 -1.2992 0.5858, -0.3682 -1.2992 0.5602, -0.4134 -1.2992 0.5512, -0.3682 -1.2008 0.5602, -0.4134 -1.2008 0.5512, -0.3043 -1.2008 0.6241, -0.3043 -1.2992 0.6241, -0.2953 -1.2008 0.6693, -0.2953 -1.2992 0.6693, 0.3299 -1.2992 0.5858, 0.3299 -1.2008 0.5858, 0.3682 -1.2008 0.5602, 0.4134 -1.2008 0.5512, 0.3682 -1.2992 0.5602, 0.4134 -1.2992 0.5512, 0.3043 -1.2992 0.6241, 0.3043 -1.2008 0.6241, 0.2953 -1.2992 0.6693, 0.2953 -1.2008 0.6693, -1.4152 -0.8829 2.4016, -1.4152 -0.8829 2.4213, -1.4152 0.8829 2.4213, -1.4152 0.8829 2.4016, -2.5 1.1811 2.4016, -2.5 -1.1811 2.4016, 2.5 -1.1811 2.4016, 1.4152 0.8829 2.4016, 2.5 1.1811 2.4016, 1.4152 -0.8829 2.4016, -2.5 -1.1811 0.0, -2.5 1.1811 0.0, 1.7126 -0.3937 0.0, 2.5 -1.1811 0.0, 0.1378 -0.3937 0.0, 1.9882 -0.3937 0.0, -0.4418 0.8083 0.0, -0.4971 0.7393 0.0, -0.4479 0.8397 0.0, -0.3495 1.0344 0.0, -0.5955 1.0344 0.0, -0.534 0.7393 0.0, -0.1378 0.3937 0.0, -0.1378 -0.3937 0.0, -0.743 0.7393 0.0, -0.7061 0.7393 0.0, -0.6815 0.8146 0.0, -0.5586 0.8146 0.0, -1.7126 -0.3937 0.0, -0.6447 1.0344 0.0, -0.202 1.0344 0.0, -0.1528 1.0344 0.0, -0.3803 0.7455 0.0, -0.3495 0.7393 0.0, -0.202 0.7393 0.0, 0.0317 0.8774 0.0, 0.0317 0.7769 0.0, -0.1282 0.8774 0.0, -0.4049 0.7581 0.0, -0.4295 0.7832 0.0, -0.4479 0.9339 0.0, -0.4418 0.9653 0.0, -0.4295 0.9904 0.0, -0.4049 1.0155 0.0, -0.3803 1.0281 0.0, -0.1528 0.7393 0.0, 0.0685 0.7393 0.0, -0.1282 0.9151 0.0, 0.0317 0.9151 0.0, 0.0317 0.9967 0.0, -0.1528 0.9967 0.0, 0.0685 1.0344 0.0, 2.5 1.1811 0.0, 0.2038 0.7393 0.0, 0.1731 0.7455 0.0, -0.1528 0.7769 0.0, 0.1546 0.8146 0.0, 0.2591 0.7769 0.0, 0.2038 0.7769 0.0, 0.1239 0.7832 0.0, 0.1177 0.8146 0.0, 0.1608 0.7958 0.0, 0.1792 0.7832 0.0, 0.1485 0.7581 0.0, 0.3022 0.7958 0.0, 0.2837 0.7832 0.0, 0.3145 0.7581 0.0, 0.3391 0.7832 0.0, 0.4067 0.7769 0.0, 0.3145 0.8146 0.0, 0.3206 0.8397 0.0, 0.3206 0.9339 0.0, 0.1546 0.959 0.0, 0.3022 0.9779 0.0, 0.2038 0.9967 0.0, 0.2591 0.9967 0.0, 0.1608 0.9779 0.0, 0.2837 0.9904 0.0, 0.1792 0.9904 0.0, 0.1731 1.0281 0.0, 0.1485 1.0155 0.0, 0.1239 0.9904 0.0, 0.3145 0.959 0.0, 0.1177 0.959 0.0, 0.2038 1.0344 0.0, 0.2591 1.0344 0.0, 0.5911 1.0344 0.0, 0.2899 1.0281 0.0, 0.3145 1.0155 0.0, 0.3391 0.9904 0.0, 0.3514 0.9653 0.0, 0.5911 0.7769 0.0, 0.3575 0.9339 0.0, 0.3575 0.8397 0.0, 0.3514 0.8083 0.0, 0.4067 0.7393 0.0, 0.2899 0.7455 0.0, 0.2591 0.7393 0.0, 0.1378 0.3937 0.0, 0.628 1.0344 0.0, 1.7126 0.3937 0.0, 0.628 0.7393 0.0, 1.9882 0.3937 0.0, -1.7126 0.3937 0.0, -1.9882 0.3937 0.0, -1.9882 -0.3937 0.0, -0.3926 0.9779 0.0, -0.411 0.9339 0.0, -0.4049 0.959 0.0, -0.2389 0.7769 0.0, -0.3495 0.9967 0.0, -0.2389 0.9967 0.0, -0.3741 0.9904 0.0, -0.3741 0.7832 0.0, -0.411 0.8397 0.0, -0.3495 0.7769 0.0, -0.4049 0.8146 0.0, -0.3926 0.7958 0.0, -0.6754 0.8397 0.0, -0.6201 1.0093 0.0, -0.5647 0.8397 0.0, -1.9931 -1.1811 0.8789, -0.8942 -1.1811 0.8789, -0.2548 -1.1811 0.9548, 0.8942 -1.1811 0.8789, 0.0363 -1.1811 1.6134, -0.0363 -1.1811 1.6134, 0.2444 -1.1811 1.433, 0.8942 -1.1811 1.2854, 0.2143 -1.1811 1.499, -0.2143 -1.1811 1.499, -0.1668 -1.1811 1.5538, -0.8942 -1.1811 1.2854, -0.1058 -1.1811 1.593, -1.9931 -1.1811 1.2854, 0.1058 -1.1811 1.593, 0.1668 -1.1811 1.5538, 0.2548 -1.1811 1.3612, 0.2548 -1.1811 0.9548, 1.9931 -1.1811 1.2854, 1.9931 -1.1811 0.8789, -0.2548 -1.1811 1.3612, -0.2444 -1.1811 1.433, 0.8942 1.1811 0.8789, -0.8942 1.1811 0.8789, 0.2548 1.1811 0.9548, -0.0363 1.1811 1.6134, 0.0363 1.1811 1.6134, -0.2548 1.1811 1.3612, -0.8942 1.1811 1.2854, -0.2444 1.1811 1.433, 0.8942 1.1811 1.2854, 0.2143 1.1811 1.499, 0.1668 1.1811 1.5538, 0.1058 1.1811 1.593, 1.9931 1.1811 1.2854, -0.1058 1.1811 1.593, -0.1668 1.1811 1.5538, -0.2143 1.1811 1.499, -0.2548 1.1811 0.9548, 0.2444 1.1811 1.433, 1.9931 1.1811 0.8789, 0.2548 1.1811 1.3612, -1.9931 1.1811 1.2854, -1.9931 1.1811 0.8789, -1.9931 1.3189 0.8789, -0.8942 1.3189 0.8789, -1.9931 1.3189 1.0492, -1.9931 1.2402 1.2854, -0.8942 1.3189 1.0492, -0.8942 1.2402 1.2854, -0.2548 1.3189 1.3612, 0.2548 1.3189 1.3612, 0.2548 1.3189 0.9548, 0.1668 1.3189 1.5538, 0.1058 1.3189 1.593, 0.2143 1.3189 1.499, 0.2444 1.3189 1.433, 0.0363 1.3189 1.6134, -0.1668 1.3189 1.5538, -0.1058 1.3189 1.593, -0.0363 1.3189 1.6134, -0.2143 1.3189 1.499, -0.2444 1.3189 1.433, -0.2548 1.3189 0.9548, 0.8942 1.3189 1.0492, 1.9931 1.3189 1.0492, 1.9931 1.3189 0.8789, 0.8942 1.3189 0.8789, 0.8942 1.2402 1.2854, 1.9931 1.2402 1.2854, -0.8942 -1.3189 0.8789, -1.9931 -1.3189 0.8789, -1.9931 -1.2402 1.2854, -1.9931 -1.3189 1.0492, -0.8942 -1.2402 1.2854, -0.8942 -1.3189 1.0492, 0.2548 -1.3189 0.9548, -0.2548 -1.3189 1.3612, -0.2548 -1.3189 0.9548, 0.2548 -1.3189 1.3612, 0.2444 -1.3189 1.433, 0.2143 -1.3189 1.499, 0.1668 -1.3189 1.5538, 0.1058 -1.3189 1.593, 0.0363 -1.3189 1.6134, -0.0363 -1.3189 1.6134, -0.1058 -1.3189 1.593, -0.2143 -1.3189 1.499, -0.1668 -1.3189 1.5538, -0.2444 -1.3189 1.433, 0.8942 -1.3189 1.0492, 1.9931 -1.3189 0.8789, 1.9931 -1.3189 1.0492, 0.8942 -1.3189 0.8789, 1.9931 -1.2402 1.2854, 0.8942 -1.2402 1.2854, 1.4152 -0.8829 2.4213, 1.4152 0.8829 2.4213, -1.2441 0.7677 4.1509, -1.2441 0.7677 2.5197, -1.2441 -0.7677 2.5197, -1.2441 -0.7677 4.1509, 0.2913 -0.7677 2.4409, 0.2913 -0.7677 4.1634, 0.1061 -0.7677 4.2165, -1.2402 -0.7677 2.5197, -1.2402 -0.7677 2.4409, 0.2022 -0.7677 4.275, -0.0632 -0.7677 4.2586, -0.2257 -0.7677 4.3259, -0.6935 -0.7677 4.2834, 0.0359 -0.7677 4.3294, -0.3787 -0.7677 4.3631, -0.5675 -0.7677 4.358, -0.118 -0.7677 4.3685, -0.269 -0.7677 4.4045, -0.4751 -0.7677 4.4882, -0.6625 -0.7677 4.4497, -0.8641 -0.7677 4.2429, -0.9692 -0.7677 4.1734, -0.8334 -0.7677 4.4078, -0.9692 -0.7677 4.3145, -1.084 -0.7677 4.1407, -1.084 -0.7677 4.2731, -1.1862 -0.7677 4.2778, -1.1862 0.7677 4.2778, -0.8641 0.7677 4.2429, -0.9692 0.7677 4.1734, -0.9692 0.7677 4.3145, -1.2402 0.7677 2.5197, -1.084 0.7677 4.2731, -1.084 0.7677 4.1407, -0.0632 0.7677 4.2586, 0.2913 0.7677 2.4409, -0.6935 0.7677 4.2834, -0.8334 0.7677 4.4078, -0.3787 0.7677 4.3631, -0.2257 0.7677 4.3259, -0.5675 0.7677 4.358, -0.6625 0.7677 4.4497, -0.118 0.7677 4.3685, -0.269 0.7677 4.4045, -0.4751 0.7677 4.4882, 0.1061 0.7677 4.2165, 0.0359 0.7677 4.3294, 0.2913 0.7677 4.1634, 0.2022 0.7677 4.275, -1.2402 0.7677 2.4409, -1.2402 0.7874 2.4409, 1.2402 -0.7874 2.4409, -1.2402 -0.7874 2.4409, 1.2402 0.7874 2.4409, 1.2402 0.7874 2.4409
            ]
        }
        coordIndex [
            0,1,2,-1,3,4,2,-1,0,2,4,-1,5,4,3,-1,6,1,0,-1,7,6,8,-1,6,7,1,-1,7,8,9,-1,10,11,12,-1,13,14,12,-1,10,12,14,-1,15,14,13,-1,16,11,10,-1,17,16,18,-1,16,17,11,-1,17,18,19,-1,20,21,22,-1,23,24,22,-1,20,22,24,-1,25,24,23,-1,26,21,20,-1,27,26,28,-1,26,27,21,-1,27,28,29,-1,30,31,32,-1,33,34,32,-1,30,32,34,-1,35,34,33,-1,36,31,30,-1,37,36,38,-1,36,37,31,-1,37,38,39,-1,40,41,42,-1,40,42,43,-1,40,43,44,-1,40,44,45,-1,45,46,40,-1,47,48,44,-1,44,43,47,-1,46,48,47,-1,40,46,49,-1,46,47,49,-1,50,45,44,-1,50,44,51,-1,52,53,54,-1,52,55,53,-1,56,57,58,-1,51,59,60,-1,61,57,62,-1,54,53,63,-1,64,65,62,-1,61,66,67,-1,61,65,66,-1,50,68,63,-1,60,69,51,-1,64,51,69,-1,70,51,71,-1,57,72,73,-1,74,62,73,-1,75,76,77,-1,62,57,73,-1,78,72,57,-1,79,78,57,-1,57,56,79,-1,60,58,57,-1,60,80,58,-1,60,81,80,-1,60,82,81,-1,60,83,82,-1,59,84,60,-1,60,84,83,-1,70,59,51,-1,85,86,62,-1,70,77,74,-1,70,87,77,-1,88,87,89,-1,70,71,90,-1,87,70,90,-1,87,90,89,-1,71,51,91,-1,51,92,91,-1,93,86,94,-1,95,77,76,-1,85,62,74,-1,77,95,74,-1,74,95,85,-1,96,97,98,-1,99,86,100,-1,101,98,102,-1,86,99,103,-1,98,101,96,-1,97,104,105,-1,106,107,108,-1,104,97,96,-1,104,96,109,-1,109,96,110,-1,111,110,112,-1,113,114,115,-1,116,114,112,-1,115,117,113,-1,114,116,118,-1,114,113,112,-1,91,119,120,-1,121,91,120,-1,112,113,122,-1,122,111,112,-1,110,96,112,-1,100,86,91,-1,96,123,112,-1,91,121,123,-1,92,124,91,-1,91,124,119,-1,92,125,124,-1,125,126,127,-1,127,126,128,-1,129,126,130,-1,131,132,126,-1,133,132,131,-1,131,108,133,-1,134,133,108,-1,108,135,106,-1,136,106,135,-1,136,135,137,-1,138,86,93,-1,86,138,62,-1,103,94,86,-1,100,123,96,-1,91,123,100,-1,137,135,138,-1,132,130,126,-1,137,138,93,-1,107,134,108,-1,139,140,141,-1,126,125,92,-1,128,126,129,-1,92,139,126,-1,139,92,140,-1,53,142,92,-1,92,142,140,-1,142,53,55,-1,138,135,141,-1,62,65,61,-1,140,138,141,-1,52,138,140,-1,138,52,54,-1,50,63,53,-1,143,51,64,-1,51,143,144,-1,50,51,145,-1,62,143,64,-1,63,143,62,-1,143,63,68,-1,145,68,50,-1,51,144,145,-1,146,147,148,-1,149,150,151,-1,147,146,152,-1,153,154,155,-1,156,154,157,-1,153,157,154,-1,147,155,154,-1,155,147,150,-1,155,150,149,-1,150,147,152,-1,158,159,160,-1,161,50,162,-1,163,162,164,-1,165,45,166,-1,167,168,169,-1,170,171,172,-1,173,45,171,-1,172,45,174,-1,45,173,166,-1,175,46,165,-1,45,165,46,-1,169,168,176,-1,46,175,176,-1,168,167,177,-1,164,168,178,-1,163,164,178,-1,164,162,53,-1,53,162,50,-1,53,46,179,-1,176,168,46,-1,53,179,180,-1,53,180,164,-1,46,168,179,-1,178,168,177,-1,181,172,163,-1,172,182,170,-1,163,172,162,-1,50,161,174,-1,172,171,45,-1,50,174,45,-1,182,172,181,-1,92,48,46,-1,92,46,53,-1,92,51,183,-1,184,185,183,-1,186,48,187,-1,188,189,190,-1,191,192,193,-1,194,48,193,-1,191,48,195,-1,48,194,187,-1,196,44,186,-1,48,186,44,-1,197,198,189,-1,44,196,197,-1,188,199,189,-1,184,189,199,-1,184,199,185,-1,183,51,184,-1,200,192,191,-1,92,201,195,-1,191,193,48,-1,92,195,48,-1,185,202,191,-1,200,191,202,-1,191,183,185,-1,201,92,183,-1,44,203,51,-1,189,198,190,-1,51,204,184,-1,51,203,204,-1,197,189,44,-1,44,189,203,-1,184,205,206,-1,184,204,205,-1,207,205,204,-1,207,204,208,-1,204,203,208,-1,209,208,210,-1,208,209,207,-1,210,184,209,-1,210,189,184,-1,184,206,209,-1,211,212,213,-1,214,212,215,-1,212,216,217,-1,218,215,212,-1,216,212,214,-1,211,219,220,-1,221,218,212,-1,222,219,211,-1,211,223,222,-1,220,221,211,-1,211,221,212,-1,211,213,224,-1,207,209,206,-1,206,205,207,-1,225,226,227,-1,227,228,225,-1,217,202,212,-1,215,193,214,-1,216,192,200,-1,186,221,220,-1,194,218,187,-1,197,222,198,-1,219,197,196,-1,190,198,223,-1,222,223,198,-1,211,188,190,-1,190,223,211,-1,220,219,196,-1,219,222,197,-1,187,221,186,-1,186,220,196,-1,194,215,218,-1,187,218,221,-1,193,192,214,-1,194,193,215,-1,216,200,217,-1,214,192,216,-1,202,217,200,-1,213,212,202,-1,202,185,213,-1,185,224,213,-1,185,199,224,-1,199,211,224,-1,199,188,211,-1,226,229,230,-1,229,226,225,-1,230,201,226,-1,230,195,201,-1,201,227,226,-1,228,227,201,-1,201,183,228,-1,225,228,183,-1,225,183,229,-1,183,191,229,-1,230,229,191,-1,191,195,230,-1,210,208,203,-1,203,189,210,-1,162,231,232,-1,162,232,161,-1,161,233,174,-1,161,232,234,-1,161,234,233,-1,234,235,233,-1,235,234,236,-1,235,174,233,-1,174,235,172,-1,236,231,162,-1,162,235,236,-1,162,172,235,-1,237,238,239,-1,238,237,240,-1,240,241,242,-1,240,243,244,-1,242,243,240,-1,240,245,246,-1,244,245,240,-1,247,238,246,-1,240,246,238,-1,248,238,249,-1,238,247,249,-1,238,248,250,-1,234,231,236,-1,231,234,232,-1,251,252,253,-1,252,251,254,-1,246,245,166,-1,173,247,246,-1,246,166,173,-1,247,171,249,-1,171,247,173,-1,248,249,170,-1,171,170,249,-1,182,250,248,-1,248,170,182,-1,181,250,182,-1,181,238,250,-1,166,245,165,-1,165,244,175,-1,244,165,245,-1,176,175,243,-1,244,243,175,-1,242,169,176,-1,176,243,242,-1,169,241,167,-1,241,169,242,-1,241,240,167,-1,167,240,177,-1,177,240,237,-1,177,237,178,-1,178,237,239,-1,178,239,163,-1,163,239,238,-1,163,238,181,-1,251,255,256,-1,255,251,253,-1,164,256,168,-1,164,254,251,-1,164,251,256,-1,180,252,254,-1,180,254,164,-1,253,252,180,-1,180,255,253,-1,180,179,255,-1,255,168,256,-1,168,255,179,-1,49,257,41,-1,49,41,40,-1,47,258,257,-1,47,257,49,-1,43,42,258,-1,43,258,47,-1,259,260,261,-1,259,261,262,-1,263,264,265,-1,266,262,261,-1,263,266,267,-1,264,268,265,-1,265,269,263,-1,270,271,269,-1,265,272,269,-1,271,273,274,-1,273,271,270,-1,269,275,270,-1,269,271,263,-1,270,276,273,-1,273,277,274,-1,263,271,266,-1,278,271,274,-1,271,279,280,-1,271,281,279,-1,271,280,266,-1,282,280,279,-1,283,280,284,-1,262,266,283,-1,266,280,283,-1,283,285,262,-1,262,285,286,-1,286,259,262,-1,287,288,289,-1,260,259,290,-1,291,288,292,-1,293,294,295,-1,288,290,292,-1,295,288,287,-1,287,296,295,-1,295,297,298,-1,299,295,300,-1,297,295,299,-1,293,295,298,-1,301,293,298,-1,302,298,297,-1,299,303,297,-1,304,294,293,-1,305,304,293,-1,304,306,294,-1,307,306,304,-1,294,308,290,-1,290,295,294,-1,290,288,295,-1,292,290,259,-1,259,286,292,-1,294,309,308,-1,310,263,311,-1,294,312,309,-1,310,312,294,-1,311,263,267,-1,310,294,263,-1,264,294,306,-1,294,264,263,-1,268,264,306,-1,306,307,268,-1,265,268,307,-1,307,304,265,-1,272,265,304,-1,304,305,272,-1,269,272,305,-1,305,293,269,-1,275,269,293,-1,293,301,275,-1,270,275,301,-1,301,298,270,-1,276,270,298,-1,298,302,276,-1,273,276,302,-1,302,297,273,-1,277,273,297,-1,297,303,277,-1,274,277,303,-1,303,299,274,-1,278,274,299,-1,299,300,278,-1,271,278,300,-1,300,295,271,-1,281,271,295,-1,295,296,281,-1,279,281,296,-1,296,287,279,-1,282,279,287,-1,287,289,282,-1,280,282,289,-1,289,288,280,-1,284,280,288,-1,288,291,284,-1,283,284,291,-1,291,292,283,-1,285,283,292,-1,292,286,285,-1,
        ]
    }
}
Shape{
    appearance Appearance {
        material  Material 	{
            diffuseColor 0.8823529411764706 0.8823529411764706 0.8823529411764706
            specularColor 0.7529411764705882 0.7529411764705882 0.7529411764705882
            ambientIntensity 0.2
            transparency 0
            shininess 0.5
        }
    }
    geometry IndexedFaceSet {
        ccw TRUE
        solid FALSE
        coord DEF co Coordinate {
            point [
                -1.9882 -0.2559 -0.5906, -1.9882 -0.3937 -0.3937, -1.9882 -0.3937 0.0, -1.9882 0.2559 -2.4213, -1.9882 0.2455 -2.4934, -1.9882 0.2153 -2.5596, -1.9882 0.3937 0.0, -1.9882 0.3937 -0.3937, -1.9882 0.2559 -0.5906, -1.9882 -0.1676 -2.6147, -1.9882 -0.2559 -2.4213, -1.9882 -0.1063 -2.654, -1.9882 0.1676 -2.6147, -1.9882 0.1063 -2.654, -1.9882 0.0364 -2.6746, -1.9882 -0.0364 -2.6746, -1.9882 -0.2153 -2.5596, -1.9882 -0.2455 -2.4934, -1.7126 -0.3937 -0.3937, -1.7126 -0.3937 0.0, -1.7126 -0.2559 -2.4213, -1.7126 -0.1676 -2.6147, -1.7126 -0.1063 -2.654, -1.7126 -0.2153 -2.5596, -1.7126 -0.2455 -2.4934, -1.7126 0.2559 -0.5906, -1.7126 -0.2559 -0.5906, -1.7126 0.0364 -2.6746, -1.7126 -0.0364 -2.6746, -1.7126 0.2455 -2.4934, -1.7126 0.2559 -2.4213, -1.7126 0.2153 -2.5596, -1.7126 0.1063 -2.654, -1.7126 0.1676 -2.6147, -1.7126 0.3937 -0.3937, -1.7126 0.3937 0.0, -0.1378 -0.2559 -0.5906, -0.1378 -0.3937 -0.3937, -0.1378 -0.3937 0.0, -0.1378 0.2559 -2.4213, -0.1378 0.2455 -2.4934, -0.1378 0.2153 -2.5596, -0.1378 0.3937 0.0, -0.1378 0.3937 -0.3937, -0.1378 0.2559 -0.5906, -0.1378 -0.1676 -2.6147, -0.1378 -0.2559 -2.4213, -0.1378 -0.1063 -2.654, -0.1378 0.1676 -2.6147, -0.1378 0.1063 -2.654, -0.1378 0.0364 -2.6746, -0.1378 -0.0364 -2.6746, -0.1378 -0.2153 -2.5596, -0.1378 -0.2455 -2.4934, 0.1378 -0.3937 0.0, 0.1378 -0.3937 -0.3937, 0.1378 -0.2559 -2.4213, 0.1378 -0.1676 -2.6147, 0.1378 -0.1063 -2.654, 0.1378 -0.2153 -2.5596, 0.1378 -0.2455 -2.4934, 0.1378 0.2559 -0.5906, 0.1378 -0.2559 -0.5906, 0.1378 0.0364 -2.6746, 0.1378 -0.0364 -2.6746, 0.1378 0.2455 -2.4934, 0.1378 0.2559 -2.4213, 0.1378 0.2153 -2.5596, 0.1378 0.1063 -2.654, 0.1378 0.1676 -2.6147, 0.1378 0.3937 -0.3937, 0.1378 0.3937 0.0, 1.7126 -0.2559 -0.5906, 1.7126 -0.3937 -0.3937, 1.7126 -0.3937 0.0, 1.7126 0.2559 -2.4213, 1.7126 0.2455 -2.4934, 1.7126 0.2153 -2.5596, 1.7126 0.3937 0.0, 1.7126 0.3937 -0.3937, 1.7126 0.2559 -0.5906, 1.7126 -0.1676 -2.6147, 1.7126 -0.2559 -2.4213, 1.7126 -0.1063 -2.654, 1.7126 0.1676 -2.6147, 1.7126 0.1063 -2.654, 1.7126 0.0364 -2.6746, 1.7126 -0.0364 -2.6746, 1.7126 -0.2153 -2.5596, 1.7126 -0.2455 -2.4934, 1.9882 -0.3937 0.0, 1.9882 -0.3937 -0.3937, 1.9882 -0.2559 -2.4213, 1.9882 -0.1676 -2.6147, 1.9882 -0.1063 -2.654, 1.9882 -0.2153 -2.5596, 1.9882 -0.2455 -2.4934, 1.9882 0.2559 -0.5906, 1.9882 -0.2559 -0.5906, 1.9882 0.0364 -2.6746, 1.9882 -0.0364 -2.6746, 1.9882 0.2455 -2.4934, 1.9882 0.2559 -2.4213, 1.9882 0.2153 -2.5596, 1.9882 0.1063 -2.654, 1.9882 0.1676 -2.6147, 1.9882 0.3937 -0.3937, 1.9882 0.3937 0.0, 0.628 0.7393 0.0, 0.628 0.7393 -0.0079, 0.628 1.0344 -0.0079, 0.628 1.0344 0.0, 0.5911 1.0344 -0.0079, 0.5911 1.0344 0.0, 0.5911 0.7769 -0.0079, 0.5911 0.7769 0.0, 0.4067 0.7769 -0.0079, 0.4067 0.7769 0.0, 0.4067 0.7393 -0.0079, 0.4067 0.7393 0.0, 0.3022 0.9779 -0.0079, 0.3391 0.9904 -0.0079, 0.3145 0.959 -0.0079, 0.1177 0.959 -0.0079, 0.1239 0.9904 -0.0079, 0.1546 0.959 -0.0079, 0.2899 0.7455 -0.0079, 0.2591 0.7769 -0.0079, 0.2837 0.7832 -0.0079, 0.2038 0.7769 -0.0079, 0.1731 0.7455 -0.0079, 0.1792 0.7832 -0.0079, 0.1485 0.7581 -0.0079, 0.1608 0.7958 -0.0079, 0.2038 0.7393 -0.0079, 0.2591 0.7393 -0.0079, 0.3022 0.7958 -0.0079, 0.3145 0.7581 -0.0079, 0.3145 0.8146 -0.0079, 0.3391 0.7832 -0.0079, 0.3514 0.8083 -0.0079, 0.3206 0.8397 -0.0079, 0.3514 0.9653 -0.0079, 0.3206 0.9339 -0.0079, 0.3575 0.9339 -0.0079, 0.3575 0.8397 -0.0079, 0.2837 0.9904 -0.0079, 0.3145 1.0155 -0.0079, 0.2899 1.0281 -0.0079, 0.2591 0.9967 -0.0079, 0.2038 1.0344 -0.0079, 0.2591 1.0344 -0.0079, 0.2038 0.9967 -0.0079, 0.1792 0.9904 -0.0079, 0.1731 1.0281 -0.0079, 0.1608 0.9779 -0.0079, 0.1485 1.0155 -0.0079, 0.1239 0.7832 -0.0079, 0.1546 0.8146 -0.0079, 0.1177 0.8146 -0.0079, 0.0685 0.7393 -0.0079, 0.0317 0.8774 -0.0079, 0.0685 1.0344 -0.0079, 0.0317 0.9151 -0.0079, -0.1528 0.7393 -0.0079, 0.0317 0.7769 -0.0079, -0.1282 0.8774 -0.0079, -0.1282 0.9151 -0.0079, 0.0317 0.9967 -0.0079, -0.1528 0.9967 -0.0079, -0.1528 1.0344 -0.0079, -0.1528 0.7769 -0.0079, -0.4418 0.8083 -0.0079, -0.411 0.8397 -0.0079, -0.4049 0.8146 -0.0079, -0.4479 0.8397 -0.0079, -0.411 0.9339 -0.0079, -0.4479 0.9339 -0.0079, -0.4295 0.9904 -0.0079, -0.3926 0.9779 -0.0079, -0.4049 0.959 -0.0079, -0.3741 0.9904 -0.0079, -0.4049 1.0155 -0.0079, -0.3803 1.0281 -0.0079, -0.3495 0.9967 -0.0079, -0.3495 1.0344 -0.0079, -0.4418 0.9653 -0.0079, -0.2389 0.9967 -0.0079, -0.202 1.0344 -0.0079, -0.2389 0.7769 -0.0079, -0.202 0.7393 -0.0079, -0.3495 0.7769 -0.0079, -0.3803 0.7455 -0.0079, -0.3741 0.7832 -0.0079, -0.3926 0.7958 -0.0079, -0.4049 0.7581 -0.0079, -0.4295 0.7832 -0.0079, -0.3495 0.7393 -0.0079, -0.743 0.7393 -0.0079, -0.6447 1.0344 -0.0079, -0.6754 0.8397 -0.0079, -0.5586 0.8146 -0.0079, -0.4971 0.7393 -0.0079, -0.534 0.7393 -0.0079, -0.5647 0.8397 -0.0079, -0.7061 0.7393 -0.0079, -0.6815 0.8146 -0.0079, -0.5955 1.0344 -0.0079, -0.6201 1.0093 -0.0079, 0.1546 0.8146 0.0, 0.1177 0.8146 0.0, 0.1239 0.7832 0.0, 0.1485 0.7581 0.0, 0.1731 0.7455 0.0, 0.2038 0.7393 0.0, 0.2591 0.7393 0.0, 0.2899 0.7455 0.0, 0.3145 0.7581 0.0, 0.3391 0.7832 0.0, 0.3514 0.8083 0.0, 0.3575 0.8397 0.0, 0.3575 0.9339 0.0, 0.3514 0.9653 0.0, 0.3391 0.9904 0.0, 0.3145 1.0155 0.0, 0.2899 1.0281 0.0, 0.2591 1.0344 0.0, 0.2038 1.0344 0.0, 0.1731 1.0281 0.0, 0.1485 1.0155 0.0, 0.1239 0.9904 0.0, 0.1177 0.959 0.0, 0.1546 0.959 0.0, 0.1608 0.9779 0.0, 0.1792 0.9904 0.0, 0.2038 0.9967 0.0, 0.2591 0.9967 0.0, 0.2837 0.9904 0.0, 0.3022 0.9779 0.0, 0.3145 0.959 0.0, 0.3206 0.9339 0.0, 0.3206 0.8397 0.0, 0.3145 0.8146 0.0, 0.3022 0.7958 0.0, 0.2837 0.7832 0.0, 0.2591 0.7769 0.0, 0.2038 0.7769 0.0, 0.1792 0.7832 0.0, 0.1608 0.7958 0.0, 0.0317 0.7769 0.0, -0.1528 0.7769 0.0, -0.1528 0.7393 0.0, 0.0685 0.7393 0.0, 0.0685 1.0344 0.0, -0.1528 1.0344 0.0, -0.1528 0.9967 0.0, 0.0317 0.9967 0.0, 0.0317 0.9151 0.0, -0.1282 0.9151 0.0, -0.1282 0.8774 0.0, 0.0317 0.8774 0.0, -0.202 1.0344 0.0, -0.3495 1.0344 0.0, -0.3803 1.0281 0.0, -0.4049 1.0155 0.0, -0.4295 0.9904 0.0, -0.4418 0.9653 0.0, -0.4479 0.9339 0.0, -0.4479 0.8397 0.0, -0.4418 0.8083 0.0, -0.4295 0.7832 0.0, -0.4049 0.7581 0.0, -0.3803 0.7455 0.0, -0.3495 0.7393 0.0, -0.202 0.7393 0.0, -0.3495 0.9967 0.0, -0.2389 0.9967 0.0, -0.2389 0.7769 0.0, -0.3495 0.7769 0.0, -0.3741 0.7832 0.0, -0.3926 0.7958 0.0, -0.4049 0.8146 0.0, -0.411 0.8397 0.0, -0.411 0.9339 0.0, -0.4049 0.959 0.0, -0.3926 0.9779 0.0, -0.3741 0.9904 0.0, -0.5955 1.0344 0.0, -0.6447 1.0344 0.0, -0.743 0.7393 0.0, -0.7061 0.7393 0.0, -0.6815 0.8146 0.0, -0.5586 0.8146 0.0, -0.534 0.7393 0.0, -0.4971 0.7393 0.0, -0.6754 0.8397 0.0, -0.6201 1.0093 0.0, -0.5647 0.8397 0.0, -0.5647 0.8397 0.0
            ]
        }
        coordIndex [
            0,1,2,-1,3,4,5,-1,6,7,8,-1,9,10,11,-1,12,13,3,-1,12,3,5,-1,3,14,8,-1,14,3,13,-1,11,10,0,-1,14,15,8,-1,16,17,10,-1,10,9,16,-1,15,11,0,-1,0,8,15,-1,6,0,2,-1,8,0,6,-1,1,18,19,-1,1,19,2,-1,20,21,22,-1,20,23,21,-1,20,24,23,-1,25,26,27,-1,20,22,28,-1,29,30,31,-1,32,33,30,-1,30,25,32,-1,30,33,31,-1,32,25,27,-1,27,26,28,-1,25,34,35,-1,35,19,25,-1,26,19,18,-1,19,26,25,-1,28,26,20,-1,0,10,20,-1,0,20,26,-1,0,18,1,-1,18,0,26,-1,28,14,27,-1,32,27,13,-1,14,13,27,-1,12,33,32,-1,32,13,12,-1,33,5,31,-1,5,33,12,-1,29,31,4,-1,5,4,31,-1,3,30,29,-1,29,4,3,-1,14,28,15,-1,15,22,11,-1,22,15,28,-1,9,11,21,-1,22,21,11,-1,23,16,9,-1,9,21,23,-1,16,24,17,-1,24,16,23,-1,24,20,17,-1,17,20,10,-1,25,30,3,-1,25,3,8,-1,7,34,25,-1,7,25,8,-1,6,34,7,-1,34,6,35,-1,36,37,38,-1,39,40,41,-1,42,43,44,-1,45,46,47,-1,48,49,39,-1,48,39,41,-1,39,50,44,-1,50,39,49,-1,47,46,36,-1,50,51,44,-1,52,53,46,-1,46,45,52,-1,51,47,36,-1,36,44,51,-1,42,36,38,-1,44,36,42,-1,37,54,38,-1,54,37,55,-1,56,57,58,-1,56,59,57,-1,56,60,59,-1,61,62,63,-1,56,58,64,-1,65,66,67,-1,68,69,66,-1,66,61,68,-1,66,69,67,-1,68,61,63,-1,63,62,64,-1,61,70,71,-1,71,54,61,-1,62,54,55,-1,54,62,61,-1,64,62,56,-1,36,46,56,-1,36,56,62,-1,36,55,37,-1,55,36,62,-1,64,50,63,-1,68,63,49,-1,50,49,63,-1,48,69,68,-1,68,49,48,-1,69,41,67,-1,41,69,48,-1,65,67,40,-1,41,40,67,-1,39,66,65,-1,65,40,39,-1,50,64,51,-1,51,58,47,-1,58,51,64,-1,45,47,57,-1,58,57,47,-1,59,52,45,-1,45,57,59,-1,52,60,53,-1,60,52,59,-1,60,56,53,-1,53,56,46,-1,61,66,39,-1,61,39,44,-1,43,61,44,-1,61,43,70,-1,42,70,43,-1,70,42,71,-1,72,73,74,-1,75,76,77,-1,78,79,80,-1,81,82,83,-1,84,85,75,-1,84,75,77,-1,75,86,80,-1,86,75,85,-1,83,82,72,-1,86,87,80,-1,88,89,82,-1,82,81,88,-1,87,83,72,-1,72,80,87,-1,78,72,74,-1,80,72,78,-1,73,90,74,-1,90,73,91,-1,92,93,94,-1,92,95,93,-1,92,96,95,-1,97,98,99,-1,92,94,100,-1,101,102,103,-1,104,105,102,-1,102,97,104,-1,102,105,103,-1,104,97,99,-1,99,98,100,-1,97,106,107,-1,107,90,97,-1,98,90,91,-1,90,98,97,-1,100,98,92,-1,72,82,92,-1,72,92,98,-1,72,91,73,-1,91,72,98,-1,100,86,99,-1,104,99,85,-1,86,85,99,-1,84,105,104,-1,104,85,84,-1,105,77,103,-1,77,105,84,-1,101,103,76,-1,77,76,103,-1,75,102,101,-1,101,76,75,-1,86,100,87,-1,87,94,83,-1,94,87,100,-1,81,83,93,-1,94,93,83,-1,95,88,81,-1,81,93,95,-1,88,96,89,-1,96,88,95,-1,96,92,89,-1,89,92,82,-1,97,102,75,-1,97,75,80,-1,79,97,80,-1,97,79,106,-1,78,106,79,-1,106,78,107,-1,108,109,110,-1,108,110,111,-1,111,110,112,-1,111,112,113,-1,113,112,114,-1,113,114,115,-1,115,114,116,-1,115,116,117,-1,117,116,118,-1,117,118,119,-1,119,118,109,-1,119,109,108,-1,114,118,116,-1,114,110,109,-1,114,112,110,-1,118,114,109,-1,120,121,122,-1,123,124,125,-1,126,127,128,-1,129,130,131,-1,131,132,133,-1,134,127,135,-1,136,137,128,-1,138,139,136,-1,140,139,138,-1,138,141,140,-1,122,142,143,-1,141,144,145,-1,146,147,120,-1,148,147,146,-1,149,148,146,-1,150,151,152,-1,153,154,152,-1,155,156,153,-1,125,124,155,-1,133,157,158,-1,124,156,155,-1,156,154,153,-1,154,150,152,-1,151,149,152,-1,151,148,149,-1,120,147,121,-1,121,142,122,-1,142,144,143,-1,143,144,141,-1,145,140,141,-1,136,139,137,-1,128,137,126,-1,126,135,127,-1,134,129,127,-1,134,130,129,-1,130,132,131,-1,132,157,133,-1,157,159,158,-1,160,161,162,-1,161,163,162,-1,160,164,165,-1,163,166,167,-1,168,169,170,-1,170,162,168,-1,168,162,163,-1,166,163,161,-1,161,160,165,-1,164,171,165,-1,172,173,174,-1,175,173,172,-1,175,176,173,-1,175,177,176,-1,178,179,180,-1,181,179,182,-1,183,181,182,-1,183,184,181,-1,184,183,185,-1,176,186,180,-1,187,185,188,-1,189,188,190,-1,191,192,193,-1,187,184,185,-1,194,193,195,-1,182,179,178,-1,178,180,186,-1,186,176,177,-1,194,196,174,-1,196,172,174,-1,196,194,195,-1,195,193,192,-1,197,191,189,-1,192,191,197,-1,188,189,187,-1,197,189,190,-1,198,199,200,-1,201,202,203,-1,201,204,202,-1,205,198,206,-1,200,204,206,-1,200,206,198,-1,199,207,208,-1,204,201,206,-1,199,208,200,-1,208,207,204,-1,202,204,207,-1,209,158,159,-1,209,159,210,-1,210,159,157,-1,210,157,211,-1,211,157,132,-1,211,132,212,-1,212,132,130,-1,212,130,213,-1,213,130,134,-1,213,134,214,-1,214,134,135,-1,214,135,215,-1,215,135,126,-1,215,126,216,-1,216,126,137,-1,216,137,217,-1,217,137,139,-1,217,139,218,-1,218,139,140,-1,218,140,219,-1,219,140,145,-1,219,145,220,-1,220,145,144,-1,220,144,221,-1,221,144,142,-1,221,142,222,-1,222,142,121,-1,222,121,223,-1,223,121,147,-1,223,147,224,-1,224,147,148,-1,224,148,225,-1,225,148,151,-1,225,151,226,-1,226,151,150,-1,226,150,227,-1,227,150,154,-1,227,154,228,-1,228,154,156,-1,228,156,229,-1,229,156,124,-1,229,124,230,-1,230,124,123,-1,230,123,231,-1,231,123,125,-1,231,125,232,-1,232,125,155,-1,232,155,233,-1,233,155,153,-1,233,153,234,-1,234,153,152,-1,234,152,235,-1,235,152,149,-1,235,149,236,-1,236,149,146,-1,236,146,237,-1,237,146,120,-1,237,120,238,-1,238,120,122,-1,238,122,239,-1,239,122,143,-1,239,143,240,-1,240,143,141,-1,240,141,241,-1,241,141,138,-1,241,138,242,-1,242,138,136,-1,242,136,243,-1,243,136,128,-1,243,128,244,-1,244,128,127,-1,244,127,245,-1,245,127,129,-1,245,129,246,-1,246,129,131,-1,246,131,247,-1,247,131,133,-1,247,133,248,-1,248,133,158,-1,248,158,209,-1,249,165,171,-1,249,171,250,-1,250,171,164,-1,250,164,251,-1,251,164,160,-1,251,160,252,-1,252,160,162,-1,252,162,253,-1,253,162,170,-1,253,170,254,-1,254,170,169,-1,254,169,255,-1,255,169,168,-1,255,168,256,-1,256,168,163,-1,256,163,257,-1,257,163,167,-1,257,167,258,-1,258,167,166,-1,258,166,259,-1,259,166,161,-1,259,161,260,-1,260,161,165,-1,260,165,249,-1,261,188,185,-1,261,185,262,-1,262,185,183,-1,262,183,263,-1,263,183,182,-1,263,182,264,-1,264,182,178,-1,264,178,265,-1,265,178,186,-1,265,186,266,-1,266,186,177,-1,266,177,267,-1,267,177,175,-1,267,175,268,-1,268,175,172,-1,268,172,269,-1,269,172,196,-1,269,196,270,-1,270,196,195,-1,270,195,271,-1,271,195,192,-1,271,192,272,-1,272,192,197,-1,272,197,273,-1,273,197,190,-1,273,190,274,-1,274,190,188,-1,274,188,261,-1,275,184,187,-1,275,187,276,-1,276,187,189,-1,276,189,277,-1,277,189,191,-1,277,191,278,-1,278,191,193,-1,278,193,279,-1,279,193,194,-1,279,194,280,-1,280,194,174,-1,280,174,281,-1,281,174,173,-1,281,173,282,-1,282,173,176,-1,282,176,283,-1,283,176,180,-1,283,180,284,-1,284,180,179,-1,284,179,285,-1,285,179,181,-1,285,181,286,-1,286,181,184,-1,286,184,275,-1,287,207,199,-1,287,199,288,-1,288,199,198,-1,288,198,289,-1,289,198,205,-1,289,205,290,-1,290,205,206,-1,290,206,291,-1,291,206,201,-1,291,201,292,-1,292,201,203,-1,292,203,293,-1,293,203,202,-1,293,202,294,-1,294,202,207,-1,294,207,287,-1,295,200,208,-1,295,208,296,-1,296,208,204,-1,296,204,297,-1,297,204,200,-1,297,200,295,-1,
        ]
    }
}